# Blender 5.2.0 LTS
# www.blender.org
mtllib Cube_007.mtl
o Cube.007_Material.002_0
v 0.468800 -0.040378 -0.689150
v 0.468800 -0.037035 -0.678050
v 0.454509 -0.037035 -0.689150
v 0.468800 0.037034 -0.678050
v 0.468800 0.040378 -0.689150
v 0.454509 0.037034 -0.689150
v 0.468800 -0.040378 -0.935051
v 0.454509 -0.037035 -0.935051
v 0.468800 -0.037035 -0.946151
v 0.468800 0.040378 -0.935051
v 0.468800 0.037034 -0.946151
v 0.454509 0.037034 -0.935051
v 0.785385 -0.040378 -0.689150
v 0.799676 -0.037035 -0.689150
v 0.785385 -0.037035 -0.678050
v 0.785385 0.040378 -0.689150
v 0.785385 0.037034 -0.678050
v 0.799676 0.037034 -0.689150
v 0.785385 -0.040378 -0.935051
v 0.785385 -0.037035 -0.946151
v 0.799676 -0.037035 -0.935051
v 0.785385 0.040378 -0.935051
v 0.799676 0.037034 -0.935051
v 0.785385 0.037034 -0.946151
v 0.809816 -0.040378 0.215094
v 0.809816 -0.037034 0.226194
v 0.795525 -0.037034 0.215094
v 0.809816 0.037035 0.226194
v 0.809816 0.040378 0.215094
v 0.795525 0.037035 0.215094
v 0.809816 -0.040378 -0.030806
v 0.795525 -0.037034 -0.030806
v 0.809816 -0.037034 -0.041906
v 0.809816 0.040378 -0.030806
v 0.809816 0.037034 -0.041906
v 0.795525 0.037034 -0.030806
v 1.126401 -0.040378 0.215094
v 1.140692 -0.037034 0.215094
v 1.126401 -0.037034 0.226194
v 1.126401 0.040378 0.215094
v 1.126401 0.037035 0.226194
v 1.140692 0.037035 0.215094
v 1.126401 -0.040378 -0.030806
v 1.126401 -0.037034 -0.041906
v 1.140692 -0.037034 -0.030806
v 1.126401 0.040378 -0.030806
v 1.140692 0.037034 -0.030806
v 1.126401 0.037035 -0.041906
v 0.468800 -0.040378 0.215094
v 0.468800 -0.037034 0.226194
v 0.454509 -0.037034 0.215094
v 0.468800 0.037035 0.226194
v 0.468800 0.040378 0.215094
v 0.454509 0.037035 0.215094
v 0.468800 -0.040378 -0.030806
v 0.454509 -0.037034 -0.030806
v 0.468800 -0.037034 -0.041906
v 0.468800 0.040378 -0.030806
v 0.468800 0.037034 -0.041906
v 0.454509 0.037034 -0.030806
v 0.785384 -0.040378 0.215094
v 0.799675 -0.037034 0.215094
v 0.785384 -0.037034 0.226194
v 0.785384 0.040378 0.215094
v 0.785384 0.037035 0.226194
v 0.799675 0.037035 0.215094
v 0.785384 -0.040378 -0.030806
v 0.785384 -0.037034 -0.041906
v 0.799675 -0.037034 -0.030806
v 0.785384 0.040378 -0.030806
v 0.799675 0.037034 -0.030806
v 0.785384 0.037034 -0.041906
v -0.213742 -0.040378 0.215094
v -0.213742 -0.037034 0.226194
v -0.228033 -0.037034 0.215094
v -0.213742 0.037035 0.226194
v -0.213742 0.040378 0.215094
v -0.228033 0.037035 0.215094
v -0.213742 -0.040378 -0.030806
v -0.228033 -0.037034 -0.030806
v -0.213742 -0.037034 -0.041906
v -0.213742 0.040378 -0.030806
v -0.213742 0.037034 -0.041906
v -0.228033 0.037034 -0.030806
v 0.102843 -0.040378 0.215094
v 0.117134 -0.037034 0.215094
v 0.102843 -0.037034 0.226194
v 0.102843 0.040378 0.215094
v 0.102843 0.037035 0.226194
v 0.117134 0.037035 0.215094
v 0.102843 -0.040378 -0.030806
v 0.102843 -0.037034 -0.041906
v 0.117134 -0.037034 -0.030806
v 0.102843 0.040378 -0.030806
v 0.117134 0.037034 -0.030806
v 0.102843 0.037034 -0.041906
v 0.127274 -0.040378 0.215094
v 0.127274 -0.037034 0.226194
v 0.112983 -0.037034 0.215094
v 0.127274 0.037035 0.226194
v 0.127274 0.040378 0.215094
v 0.112983 0.037035 0.215094
v 0.127274 -0.040378 -0.030806
v 0.112983 -0.037034 -0.030806
v 0.127274 -0.037034 -0.041906
v 0.127274 0.040378 -0.030806
v 0.127274 0.037034 -0.041906
v 0.112983 0.037034 -0.030806
v 0.443859 -0.040378 0.215094
v 0.458150 -0.037034 0.215094
v 0.443859 -0.037034 0.226194
v 0.443859 0.040378 0.215094
v 0.443859 0.037035 0.226194
v 0.458150 0.037035 0.215094
v 0.443859 -0.040378 -0.030806
v 0.443859 -0.037034 -0.041906
v 0.458150 -0.037034 -0.030806
v 0.443859 0.040378 -0.030806
v 0.458150 0.037034 -0.030806
v 0.443859 0.037034 -0.041906
v -0.238785 -0.040378 0.215094
v -0.224494 -0.037034 0.215094
v -0.238785 -0.037034 0.226194
v 0.809816 -0.040378 -0.689150
v 0.809816 -0.037035 -0.678050
v 0.795525 -0.037035 -0.689150
v 0.809816 0.037034 -0.678050
v 0.809816 0.040378 -0.689150
v 0.795525 0.037034 -0.689150
v 0.809816 -0.040378 -0.935051
v 0.795525 -0.037035 -0.935051
v 0.809816 -0.037035 -0.946151
v 0.809816 0.040378 -0.935051
v 0.809816 0.037034 -0.946151
v 0.795525 0.037034 -0.935051
v 1.126401 -0.040378 -0.689150
v 1.140692 -0.037035 -0.689150
v 1.126401 -0.037035 -0.678050
v 1.126401 0.040378 -0.689150
v 1.126401 0.037034 -0.678050
v 1.140692 0.037034 -0.689150
v 1.126401 -0.040378 -0.935051
v 1.126401 -0.037035 -0.946151
v 1.140692 -0.037035 -0.935051
v 1.126401 0.040378 -0.935051
v 1.140692 0.037034 -0.935051
v 1.126401 0.037034 -0.946151
v -0.213742 -0.040378 -0.689150
v -0.213742 -0.037035 -0.678050
v -0.228033 -0.037035 -0.689150
v -0.213742 0.037034 -0.678050
v -0.213742 0.040378 -0.689150
v -0.228033 0.037034 -0.689150
v -0.213742 -0.040378 -0.935051
v -0.228033 -0.037035 -0.935051
v -0.213742 -0.037035 -0.946151
v -0.213742 0.040378 -0.935051
v -0.213742 0.037034 -0.946151
v -0.228033 0.037034 -0.935051
v 0.102843 -0.040378 -0.689150
v 0.117134 -0.037035 -0.689150
v 0.102843 -0.037035 -0.678050
v 0.102843 0.040378 -0.689150
v 0.102843 0.037034 -0.678050
v 0.117134 0.037034 -0.689150
v 0.102843 -0.040378 -0.935051
v 0.102843 -0.037035 -0.946151
v 0.117134 -0.037035 -0.935051
v 0.102843 0.040378 -0.935051
v 0.117134 0.037034 -0.935051
v 0.102843 0.037034 -0.946151
v 0.127274 -0.040378 -0.689150
v 0.127274 -0.037035 -0.678050
v 0.112983 -0.037035 -0.689150
v 0.127274 0.037034 -0.678050
v 0.127274 0.040378 -0.689150
v 0.112983 0.037034 -0.689150
v 0.127274 -0.040378 -0.935051
v 0.112983 -0.037035 -0.935051
v 0.127274 -0.037035 -0.946151
v 0.127274 0.040378 -0.935051
v 0.127274 0.037034 -0.946151
v 0.112983 0.037034 -0.935051
v 0.443859 -0.040378 -0.689150
v 0.458150 -0.037035 -0.689150
v 0.443859 -0.037035 -0.678050
v 0.443859 0.040378 -0.689150
v 0.443859 0.037034 -0.678050
v 0.458150 0.037034 -0.689150
v 0.443859 -0.040378 -0.935051
v 0.443859 -0.037035 -0.946151
v 0.458150 -0.037035 -0.935051
v 0.443859 0.040378 -0.935051
v 0.458150 0.037034 -0.935051
v 0.443859 0.037034 -0.946151
v -0.896386 -0.040378 -0.689150
v -0.896386 -0.037035 -0.678050
v -0.910677 -0.037035 -0.689150
v -0.896386 0.037034 -0.678050
v -0.896386 0.040378 -0.689150
v -0.910677 0.037034 -0.689150
v -0.896386 -0.040378 -0.935051
v -0.910677 -0.037035 -0.935051
v -0.896386 -0.037035 -0.946151
v -0.896386 0.040378 -0.935051
v -0.896386 0.037034 -0.946151
v -0.910677 0.037034 -0.935051
v -0.579802 -0.040378 -0.689150
v -0.565511 -0.037035 -0.689150
v -0.579802 -0.037035 -0.678050
v -0.579802 0.040378 -0.689150
v -0.579802 0.037034 -0.678050
v -0.565510 0.037034 -0.689150
v -0.579802 -0.040378 -0.935051
v -0.579802 -0.037035 -0.946151
v -0.565511 -0.037035 -0.935051
v -0.579802 0.040378 -0.935051
v -0.565510 0.037034 -0.935051
v -0.579802 0.037034 -0.946151
v -0.555370 -0.040378 -0.689150
v -0.555370 -0.037035 -0.678050
v -0.569661 -0.037035 -0.689150
v -0.555370 0.037034 -0.678050
v -0.555370 0.040378 -0.689150
v -0.569661 0.037034 -0.689150
v -0.555370 -0.040378 -0.935051
v -0.569661 -0.037035 -0.935051
v -0.555370 -0.037035 -0.946151
v -0.555370 0.040378 -0.935051
v -0.555370 0.037034 -0.946151
v -0.569661 0.037034 -0.935051
v -0.238785 -0.040378 -0.689150
v -0.224494 -0.037035 -0.689150
v -0.238785 -0.037035 -0.678050
v -0.238785 0.040378 -0.689150
v -0.238785 0.037034 -0.678050
v -0.224494 0.037034 -0.689150
v -0.238785 -0.040378 -0.935051
v -0.238785 -0.037035 -0.946151
v -0.224494 -0.037035 -0.935051
v -0.238785 0.040378 -0.935051
v -0.224494 0.037034 -0.935051
v -0.238785 0.037034 -0.946151
v -0.883692 -0.040378 -0.433326
v -0.872591 -0.037034 -0.433326
v -0.883692 -0.037034 -0.419035
v -0.872591 0.037034 -0.433326
v -0.883692 0.040378 -0.433326
v -0.883691 0.037034 -0.419035
v -1.129592 -0.040378 -0.433326
v -1.129592 -0.037034 -0.419035
v -1.140692 -0.037034 -0.433326
v -1.129592 0.040378 -0.433326
v -1.140692 0.037034 -0.433326
v -1.129592 0.037034 -0.419035
v -0.883692 -0.040378 -0.749910
v -0.883692 -0.037035 -0.764201
v -0.872591 -0.037035 -0.749910
v -0.883692 0.040378 -0.749910
v -0.872591 0.037034 -0.749910
v -0.883691 0.037034 -0.764201
v -1.129592 -0.040378 -0.749910
v -1.140692 -0.037035 -0.749910
v -1.129592 -0.037035 -0.764201
v -1.129592 0.040378 -0.749910
v -1.129592 0.037034 -0.764201
v -1.140692 0.037034 -0.749910
v -0.883692 -0.040378 -0.774342
v -0.872591 -0.037035 -0.774342
v -0.883692 -0.037035 -0.760051
v -0.872591 0.037034 -0.774342
v -0.883692 0.040378 -0.774342
v -0.883692 0.037034 -0.760051
v -1.129592 -0.040378 -0.774342
v -1.129592 -0.037035 -0.760051
v -1.140692 -0.037035 -0.774342
v -1.129592 0.040378 -0.774342
v -1.140692 0.037034 -0.774342
v -1.129592 0.037034 -0.760051
v -0.883692 -0.040378 -0.931715
v -0.883692 -0.037035 -0.946006
v -0.872591 -0.037035 -0.931715
v -0.883692 0.040378 -0.931715
v -0.872591 0.037034 -0.931715
v -0.883692 0.037034 -0.946006
v -1.129592 -0.040378 -0.931715
v -1.140692 -0.037035 -0.931715
v -1.129592 -0.037035 -0.946006
v -1.129592 0.040378 -0.931715
v -1.129592 0.037034 -0.946006
v -1.140692 0.037034 -0.931715
v -0.883692 -0.040378 0.249216
v -0.872591 -0.037034 0.249216
v -0.883692 -0.037034 0.263507
v -0.872591 0.037035 0.249216
v -0.883692 0.040378 0.249216
v -0.883691 0.037035 0.263507
v -1.129592 -0.040378 0.249216
v -1.129592 -0.037034 0.263507
v -1.140692 -0.037034 0.249216
v -1.129592 0.040378 0.249216
v -1.140692 0.037035 0.249216
v -1.129592 0.037035 0.263507
v -0.883692 -0.040378 -0.067368
v -0.883692 -0.037034 -0.081659
v -0.872591 -0.037034 -0.067368
v -0.883692 0.040378 -0.067368
v -0.872591 0.037034 -0.067368
v -0.883691 0.037034 -0.081659
v -1.129592 -0.040378 -0.067368
v -1.140692 -0.037034 -0.067368
v -1.129592 -0.037034 -0.081659
v -1.129592 0.040378 -0.067368
v -1.129592 0.037034 -0.081659
v -1.140692 0.037034 -0.067368
v -0.883692 -0.040378 -0.091800
v -0.872591 -0.037034 -0.091800
v -0.883692 -0.037034 -0.077509
v -0.872591 0.037034 -0.091800
v -0.883692 0.040378 -0.091800
v -0.883691 0.037034 -0.077509
v -1.129592 -0.040378 -0.091800
v -1.129592 -0.037034 -0.077509
v -1.140692 -0.037034 -0.091800
v -1.129592 0.040378 -0.091800
v -1.140692 0.037034 -0.091800
v -1.129592 0.037034 -0.077509
v -0.883692 -0.040378 -0.408385
v -0.883692 -0.037034 -0.422676
v -0.872591 -0.037034 -0.408385
v -0.883692 0.040378 -0.408385
v -0.872591 0.037034 -0.408385
v -0.883691 0.037034 -0.422676
v -1.129592 -0.040378 -0.408385
v -1.140692 -0.037034 -0.408385
v -1.129592 -0.037034 -0.422676
v -1.129592 0.040378 -0.408385
v -1.129592 0.037034 -0.422675
v -1.140692 0.037034 -0.408385
v -0.883692 -0.040378 0.931860
v -0.872591 -0.037034 0.931860
v -0.883692 -0.037034 0.946151
v -0.872591 0.037035 0.931860
v -0.883692 0.040378 0.931860
v -0.883691 0.037035 0.946151
v -1.129592 -0.040378 0.931860
v -1.129592 -0.037034 0.946151
v -1.140692 -0.037034 0.931860
v -1.129592 0.040378 0.931860
v -1.140692 0.037035 0.931860
v -1.129592 0.037035 0.946151
v -0.883692 -0.040378 0.615275
v -0.883692 -0.037034 0.600984
v -0.872591 -0.037034 0.615275
v -0.883692 0.040378 0.615275
v -0.872591 0.037035 0.615275
v -0.883691 0.037035 0.600984
v -1.129592 -0.040378 0.615275
v -1.140692 -0.037034 0.615275
v -1.129592 -0.037034 0.600984
v -1.129592 0.040378 0.615275
v -1.129592 0.037035 0.600984
v -1.140692 0.037035 0.615275
v -0.883692 -0.040378 0.590844
v -0.872591 -0.037034 0.590844
v -0.883692 -0.037034 0.605135
v -0.872591 0.037035 0.590844
v -0.883692 0.040378 0.590844
v -0.883691 0.037035 0.605135
v -1.129592 -0.040378 0.590844
v -1.129592 -0.037034 0.605135
v -1.140692 -0.037034 0.590844
v -1.129592 0.040378 0.590844
v -1.140692 0.037035 0.590844
v -1.129592 0.037035 0.605135
v -0.883692 -0.040378 0.274259
v -0.883692 -0.037034 0.259968
v -0.872591 -0.037034 0.274259
v -0.883692 0.040378 0.274259
v -0.872591 0.037035 0.274259
v -0.883691 0.037035 0.259968
v -1.129592 -0.040378 0.274259
v -1.140692 -0.037034 0.274259
v -1.129592 -0.037034 0.259968
v -1.129592 0.040378 0.274259
v -1.129592 0.037035 0.259968
v -1.140692 0.037035 0.274259
v -0.217054 -0.040378 0.450581
v -0.217054 -0.037034 0.460371
v -0.228491 -0.037034 0.450581
v -0.217054 0.037034 0.460371
v -0.217054 0.040378 0.450581
v -0.228491 0.037034 0.450581
v -0.217054 -0.040378 0.233708
v -0.228491 -0.037034 0.233708
v -0.217054 -0.037034 0.223918
v -0.217054 0.040378 0.233708
v -0.217054 0.037034 0.223918
v -0.228491 0.037034 0.233708
v 0.036290 -0.040378 0.450581
v 0.047726 -0.037034 0.450581
v 0.036290 -0.037034 0.460371
v 0.036290 0.040378 0.450581
v 0.036290 0.037034 0.460371
v 0.047726 0.037034 0.450581
v 0.036290 -0.040378 0.233708
v 0.036290 -0.037034 0.223918
v 0.047726 -0.037034 0.233708
v 0.036290 0.040378 0.233708
v 0.047726 0.037034 0.233708
v 0.036290 0.037034 0.223918
v -0.217054 -0.040378 0.684241
v -0.217054 -0.037034 0.694031
v -0.228491 -0.037034 0.684241
v -0.217054 0.037035 0.694031
v -0.217054 0.040378 0.684241
v -0.228491 0.037035 0.684241
v -0.217054 -0.040378 0.467369
v -0.228491 -0.037034 0.467369
v -0.217054 -0.037034 0.457579
v -0.217054 0.040378 0.467369
v -0.217054 0.037034 0.457579
v -0.228491 0.037034 0.467369
v 0.036290 -0.040378 0.684241
v 0.047726 -0.037034 0.684241
v 0.036290 -0.037034 0.694031
v 0.036290 0.040378 0.684241
v 0.036290 0.037035 0.694031
v 0.047726 0.037035 0.684241
v 0.036290 -0.040378 0.467369
v 0.036290 -0.037034 0.457579
v 0.047726 -0.037034 0.467369
v 0.036290 0.040378 0.467369
v 0.047726 0.037034 0.467369
v 0.036290 0.037034 0.457579
v -0.217054 -0.040378 0.927979
v -0.217054 -0.037034 0.938164
v -0.228491 -0.037034 0.927979
v -0.217054 0.037035 0.938164
v -0.217054 0.040378 0.927979
v -0.228491 0.037035 0.927979
v -0.217054 -0.040378 0.702350
v -0.228491 -0.037034 0.702350
v -0.217054 -0.037034 0.692165
v -0.217054 0.040378 0.702350
v -0.217054 0.037035 0.692165
v -0.228491 0.037035 0.702350
v 0.036290 -0.040378 0.927979
v 0.047726 -0.037034 0.927979
v 0.036290 -0.037034 0.938164
v 0.036290 0.040378 0.927979
v 0.036290 0.037035 0.938164
v 0.047726 0.037035 0.927979
v 0.036290 -0.040378 0.702350
v 0.036290 -0.037034 0.692165
v 0.047726 -0.037034 0.702350
v 0.036290 0.040378 0.702350
v 0.047726 0.037035 0.702350
v 0.036290 0.037035 0.692165
v 0.785385 -0.037035 -0.678050
v 0.785385 0.037034 -0.678050
v 0.468800 0.037034 -0.678050
v 0.468800 -0.037035 -0.678050
v 0.799676 -0.037035 -0.935051
v 0.799676 0.037034 -0.935051
v 0.799676 0.037034 -0.689150
v 0.799676 -0.037035 -0.689150
v 0.785385 0.040378 -0.935051
v 0.468800 0.040378 -0.935051
v 0.468800 0.040378 -0.689150
v 0.785385 0.040378 -0.689150
v 0.454509 -0.037035 -0.689150
v 0.454509 0.037034 -0.689150
v 0.454509 0.037034 -0.935051
v 0.454509 -0.037035 -0.935051
v 0.468800 -0.037035 -0.946151
v 0.468800 0.037034 -0.946151
v 0.785385 0.037034 -0.946151
v 0.785385 -0.037035 -0.946151
v 0.468800 -0.040378 -0.935051
v 0.468800 -0.040378 -0.689150
v 0.454509 -0.037035 -0.689150
v 0.454509 -0.037035 -0.935051
v 0.468800 -0.037035 -0.678050
v 0.468800 0.037034 -0.678050
v 0.454509 0.037034 -0.689150
v 0.454509 -0.037035 -0.689150
v 0.468800 0.040378 -0.689150
v 0.468800 0.040378 -0.935051
v 0.454509 0.037034 -0.935051
v 0.454509 0.037034 -0.689150
v 0.468800 0.037034 -0.946151
v 0.468800 -0.037035 -0.946151
v 0.454509 -0.037035 -0.935051
v 0.454509 0.037034 -0.935051
v 0.785385 -0.040378 -0.935051
v 0.468800 -0.040378 -0.935051
v 0.468800 -0.037035 -0.946151
v 0.785385 -0.037035 -0.946151
v 0.468800 0.040378 -0.935051
v 0.785385 0.040378 -0.935051
v 0.785385 0.037034 -0.946151
v 0.468800 0.037034 -0.946151
v 0.799676 0.037034 -0.935051
v 0.799676 -0.037035 -0.935051
v 0.785385 -0.037035 -0.946151
v 0.785385 0.037034 -0.946151
v 0.785385 -0.040378 -0.689150
v 0.785385 -0.040378 -0.935051
v 0.799676 -0.037035 -0.935051
v 0.799676 -0.037035 -0.689150
v 0.785385 0.040378 -0.935051
v 0.785385 0.040378 -0.689150
v 0.799676 0.037034 -0.689150
v 0.799676 0.037034 -0.935051
v 0.785385 0.037034 -0.678050
v 0.785385 -0.037035 -0.678050
v 0.799676 -0.037035 -0.689150
v 0.799676 0.037034 -0.689150
v 0.468800 -0.040378 -0.689150
v 0.785385 -0.040378 -0.689150
v 0.785385 -0.037035 -0.678050
v 0.468800 -0.037035 -0.678050
v 0.785385 0.040378 -0.689150
v 0.468800 0.040378 -0.689150
v 0.468800 0.037034 -0.678050
v 0.785385 0.037034 -0.678050
v 0.468800 -0.040378 -0.935051
v 0.785385 -0.040378 -0.935051
v 0.785385 -0.040378 -0.689150
v 0.468800 -0.040378 -0.689150
v 1.126401 -0.037034 0.226194
v 1.126401 0.037035 0.226194
v 0.809816 0.037035 0.226194
v 0.809816 -0.037034 0.226194
v 1.140692 -0.037034 -0.030806
v 1.140692 0.037034 -0.030806
v 1.140692 0.037035 0.215094
v 1.140692 -0.037034 0.215094
v 1.126401 0.040378 -0.030806
v 0.809816 0.040378 -0.030806
v 0.809816 0.040378 0.215094
v 1.126401 0.040378 0.215094
v 0.795525 -0.037034 0.215094
v 0.795525 0.037035 0.215094
v 0.795525 0.037034 -0.030806
v 0.795525 -0.037034 -0.030806
v 0.809816 -0.037034 -0.041906
v 0.809816 0.037034 -0.041906
v 1.126401 0.037035 -0.041906
v 1.126401 -0.037034 -0.041906
v 0.809816 -0.040378 -0.030806
v 0.809816 -0.040378 0.215094
v 0.795525 -0.037034 0.215094
v 0.795525 -0.037034 -0.030806
v 0.809816 -0.037034 0.226194
v 0.809816 0.037035 0.226194
v 0.795525 0.037035 0.215094
v 0.795525 -0.037034 0.215094
v 0.809816 0.040378 0.215094
v 0.809816 0.040378 -0.030806
v 0.795525 0.037034 -0.030806
v 0.795525 0.037035 0.215094
v 0.809816 0.037034 -0.041906
v 0.809816 -0.037034 -0.041906
v 0.795525 -0.037034 -0.030806
v 0.795525 0.037034 -0.030806
v 1.126401 -0.040378 -0.030806
v 0.809816 -0.040378 -0.030806
v 0.809816 -0.037034 -0.041906
v 1.126401 -0.037034 -0.041906
v 0.809816 0.040378 -0.030806
v 1.126401 0.040378 -0.030806
v 1.126401 0.037035 -0.041906
v 0.809816 0.037034 -0.041906
v 1.140692 0.037034 -0.030806
v 1.140692 -0.037034 -0.030806
v 1.126401 -0.037034 -0.041906
v 1.126401 0.037035 -0.041906
v 1.126401 -0.040378 0.215094
v 1.126401 -0.040378 -0.030806
v 1.140692 -0.037034 -0.030806
v 1.140692 -0.037034 0.215094
v 1.126401 0.040378 -0.030806
v 1.126401 0.040378 0.215094
v 1.140692 0.037035 0.215094
v 1.140692 0.037034 -0.030806
v 1.126401 0.037035 0.226194
v 1.126401 -0.037034 0.226194
v 1.140692 -0.037034 0.215094
v 1.140692 0.037035 0.215094
v 0.809816 -0.040378 0.215094
v 1.126401 -0.040378 0.215094
v 1.126401 -0.037034 0.226194
v 0.809816 -0.037034 0.226194
v 1.126401 0.040378 0.215094
v 0.809816 0.040378 0.215094
v 0.809816 0.037035 0.226194
v 1.126401 0.037035 0.226194
v 0.809816 -0.040378 -0.030806
v 1.126401 -0.040378 -0.030806
v 1.126401 -0.040378 0.215094
v 0.809816 -0.040378 0.215094
v 0.785384 -0.037034 0.226194
v 0.785384 0.037035 0.226194
v 0.468800 0.037035 0.226194
v 0.468800 -0.037034 0.226194
v 0.799675 -0.037034 -0.030806
v 0.799675 0.037034 -0.030806
v 0.799675 0.037035 0.215094
v 0.799675 -0.037034 0.215094
v 0.785384 0.040378 -0.030806
v 0.468800 0.040378 -0.030806
v 0.468800 0.040378 0.215094
v 0.785384 0.040378 0.215094
v 0.454509 -0.037034 0.215094
v 0.454509 0.037035 0.215094
v 0.454509 0.037034 -0.030806
v 0.454509 -0.037034 -0.030806
v 0.468800 -0.037034 -0.041906
v 0.468800 0.037034 -0.041906
v 0.785384 0.037034 -0.041906
v 0.785384 -0.037034 -0.041906
v 0.468800 -0.040378 -0.030806
v 0.468800 -0.040378 0.215094
v 0.454509 -0.037034 0.215094
v 0.454509 -0.037034 -0.030806
v 0.468800 -0.037034 0.226194
v 0.468800 0.037035 0.226194
v 0.454509 0.037035 0.215094
v 0.454509 -0.037034 0.215094
v 0.468800 0.040378 0.215094
v 0.468800 0.040378 -0.030806
v 0.454509 0.037034 -0.030806
v 0.454509 0.037035 0.215094
v 0.468800 0.037034 -0.041906
v 0.468800 -0.037034 -0.041906
v 0.454509 -0.037034 -0.030806
v 0.454509 0.037034 -0.030806
v 0.785384 -0.040378 -0.030806
v 0.468800 -0.040378 -0.030806
v 0.468800 -0.037034 -0.041906
v 0.785384 -0.037034 -0.041906
v 0.468800 0.040378 -0.030806
v 0.785384 0.040378 -0.030806
v 0.785384 0.037034 -0.041906
v 0.468800 0.037034 -0.041906
v 0.799675 0.037034 -0.030806
v 0.799675 -0.037034 -0.030806
v 0.785384 -0.037034 -0.041906
v 0.785384 0.037034 -0.041906
v 0.785384 -0.040378 0.215094
v 0.785384 -0.040378 -0.030806
v 0.799675 -0.037034 -0.030806
v 0.799675 -0.037034 0.215094
v 0.785384 0.040378 -0.030806
v 0.785384 0.040378 0.215094
v 0.799675 0.037035 0.215094
v 0.799675 0.037034 -0.030806
v 0.785384 0.037035 0.226194
v 0.785384 -0.037034 0.226194
v 0.799675 -0.037034 0.215094
v 0.799675 0.037035 0.215094
v 0.468800 -0.040378 0.215094
v 0.785384 -0.040378 0.215094
v 0.785384 -0.037034 0.226194
v 0.468800 -0.037034 0.226194
v 0.785384 0.040378 0.215094
v 0.468800 0.040378 0.215094
v 0.468800 0.037035 0.226194
v 0.785384 0.037035 0.226194
v 0.468800 -0.040378 -0.030806
v 0.785384 -0.040378 -0.030806
v 0.785384 -0.040378 0.215094
v 0.468800 -0.040378 0.215094
v 0.102843 -0.037034 0.226194
v 0.102843 0.037035 0.226194
v -0.213742 0.037035 0.226194
v -0.213742 -0.037034 0.226194
v 0.117134 -0.037034 -0.030806
v 0.117134 0.037034 -0.030806
v 0.117134 0.037035 0.215094
v 0.117134 -0.037034 0.215094
v 0.102843 0.040378 -0.030806
v -0.213742 0.040378 -0.030806
v -0.213742 0.040378 0.215094
v 0.102843 0.040378 0.215094
v -0.213742 -0.037034 -0.041906
v -0.213742 0.037034 -0.041906
v 0.102843 0.037034 -0.041906
v 0.102843 -0.037034 -0.041906
v -0.213742 -0.040378 -0.030806
v -0.213742 -0.040378 0.215094
v -0.228033 -0.037034 0.215094
v -0.228033 -0.037034 -0.030806
v -0.213742 -0.037034 0.226194
v -0.213742 0.037035 0.226194
v -0.228033 0.037035 0.215094
v -0.228033 -0.037034 0.215094
v -0.213742 0.040378 0.215094
v -0.213742 0.040378 -0.030806
v -0.228033 0.037034 -0.030806
v -0.228033 0.037035 0.215094
v -0.213742 0.037034 -0.041906
v -0.213742 -0.037034 -0.041906
v -0.228033 -0.037034 -0.030806
v -0.228033 0.037034 -0.030806
v 0.102843 -0.040378 -0.030806
v -0.213742 -0.040378 -0.030806
v -0.213742 -0.037034 -0.041906
v 0.102843 -0.037034 -0.041906
v -0.213742 0.040378 -0.030806
v 0.102843 0.040378 -0.030806
v 0.102843 0.037034 -0.041906
v -0.213742 0.037034 -0.041906
v 0.117134 0.037034 -0.030806
v 0.117134 -0.037034 -0.030806
v 0.102843 -0.037034 -0.041906
v 0.102843 0.037034 -0.041906
v 0.102843 -0.040378 0.215094
v 0.102843 -0.040378 -0.030806
v 0.117134 -0.037034 -0.030806
v 0.117134 -0.037034 0.215094
v 0.102843 0.040378 -0.030806
v 0.102843 0.040378 0.215094
v 0.117134 0.037035 0.215094
v 0.117134 0.037034 -0.030806
v 0.102843 0.037035 0.226194
v 0.102843 -0.037034 0.226194
v 0.117134 -0.037034 0.215094
v 0.117134 0.037035 0.215094
v -0.213742 -0.040378 0.215094
v 0.102843 -0.040378 0.215094
v 0.102843 -0.037034 0.226194
v -0.213742 -0.037034 0.226194
v 0.102843 0.040378 0.215094
v -0.213742 0.040378 0.215094
v -0.213742 0.037035 0.226194
v 0.102843 0.037035 0.226194
v -0.213742 -0.040378 -0.030806
v 0.102843 -0.040378 -0.030806
v 0.102843 -0.040378 0.215094
v -0.213742 -0.040378 0.215094
v 0.443859 -0.037034 0.226194
v 0.443859 0.037035 0.226194
v 0.127274 0.037035 0.226194
v 0.127274 -0.037034 0.226194
v 0.458150 -0.037034 -0.030806
v 0.458150 0.037034 -0.030806
v 0.458150 0.037035 0.215094
v 0.458150 -0.037034 0.215094
v 0.443859 0.040378 -0.030806
v 0.127274 0.040378 -0.030806
v 0.127274 0.040378 0.215094
v 0.443859 0.040378 0.215094
v 0.112983 -0.037034 0.215094
v 0.112983 0.037035 0.215094
v 0.112983 0.037034 -0.030806
v 0.112983 -0.037034 -0.030806
v 0.127274 -0.037034 -0.041906
v 0.127274 0.037034 -0.041906
v 0.443859 0.037034 -0.041906
v 0.443859 -0.037034 -0.041906
v 0.127274 -0.040378 -0.030806
v 0.127274 -0.040378 0.215094
v 0.112983 -0.037034 0.215094
v 0.112983 -0.037034 -0.030806
v 0.127274 -0.037034 0.226194
v 0.127274 0.037035 0.226194
v 0.112983 0.037035 0.215094
v 0.112983 -0.037034 0.215094
v 0.127274 0.040378 0.215094
v 0.127274 0.040378 -0.030806
v 0.112983 0.037034 -0.030806
v 0.112983 0.037035 0.215094
v 0.127274 0.037034 -0.041906
v 0.127274 -0.037034 -0.041906
v 0.112983 -0.037034 -0.030806
v 0.112983 0.037034 -0.030806
v 0.443859 -0.040378 -0.030806
v 0.127274 -0.040378 -0.030806
v 0.127274 -0.037034 -0.041906
v 0.443859 -0.037034 -0.041906
v 0.127274 0.040378 -0.030806
v 0.443859 0.040378 -0.030806
v 0.443859 0.037034 -0.041906
v 0.127274 0.037034 -0.041906
v 0.458150 0.037034 -0.030806
v 0.458150 -0.037034 -0.030806
v 0.443859 -0.037034 -0.041906
v 0.443859 0.037034 -0.041906
v 0.443859 -0.040378 0.215094
v 0.443859 -0.040378 -0.030806
v 0.458150 -0.037034 -0.030806
v 0.458150 -0.037034 0.215094
v 0.443859 0.040378 -0.030806
v 0.443859 0.040378 0.215094
v 0.458150 0.037035 0.215094
v 0.458150 0.037034 -0.030806
v 0.443859 0.037035 0.226194
v 0.443859 -0.037034 0.226194
v 0.458150 -0.037034 0.215094
v 0.458150 0.037035 0.215094
v 0.127274 -0.040378 0.215094
v 0.443859 -0.040378 0.215094
v 0.443859 -0.037034 0.226194
v 0.127274 -0.037034 0.226194
v 0.443859 0.040378 0.215094
v 0.127274 0.040378 0.215094
v 0.127274 0.037035 0.226194
v 0.443859 0.037035 0.226194
v 0.127274 -0.040378 -0.030806
v 0.443859 -0.040378 -0.030806
v 0.443859 -0.040378 0.215094
v 0.127274 -0.040378 0.215094
v -0.224494 -0.037034 -0.030806
v -0.224494 0.037034 -0.030806
v -0.224494 0.037035 0.215094
v -0.224494 -0.037034 0.215094
v 1.126401 -0.037035 -0.678050
v 1.126401 0.037034 -0.678050
v 0.809816 0.037034 -0.678050
v 0.809816 -0.037035 -0.678050
v 1.140692 -0.037035 -0.935051
v 1.140692 0.037034 -0.935051
v 1.140692 0.037034 -0.689150
v 1.140692 -0.037035 -0.689150
v 1.126401 0.040378 -0.935051
v 0.809816 0.040378 -0.935051
v 0.809816 0.040378 -0.689150
v 1.126401 0.040378 -0.689150
v 0.795525 -0.037035 -0.689150
v 0.795525 0.037034 -0.689150
v 0.795525 0.037034 -0.935051
v 0.795525 -0.037035 -0.935051
v 0.809816 -0.037035 -0.946151
v 0.809816 0.037034 -0.946151
v 1.126401 0.037034 -0.946151
v 1.126401 -0.037035 -0.946151
v 0.809816 -0.040378 -0.935051
v 0.809816 -0.040378 -0.689150
v 0.795525 -0.037035 -0.689150
v 0.795525 -0.037035 -0.935051
v 0.809816 -0.037035 -0.678050
v 0.809816 0.037034 -0.678050
v 0.795525 0.037034 -0.689150
v 0.795525 -0.037035 -0.689150
v 0.809816 0.040378 -0.689150
v 0.809816 0.040378 -0.935051
v 0.795525 0.037034 -0.935051
v 0.795525 0.037034 -0.689150
v 0.809816 0.037034 -0.946151
v 0.809816 -0.037035 -0.946151
v 0.795525 -0.037035 -0.935051
v 0.795525 0.037034 -0.935051
v 1.126401 -0.040378 -0.935051
v 0.809816 -0.040378 -0.935051
v 0.809816 -0.037035 -0.946151
v 1.126401 -0.037035 -0.946151
v 0.809816 0.040378 -0.935051
v 1.126401 0.040378 -0.935051
v 1.126401 0.037034 -0.946151
v 0.809816 0.037034 -0.946151
v 1.140692 0.037034 -0.935051
v 1.140692 -0.037035 -0.935051
v 1.126401 -0.037035 -0.946151
v 1.126401 0.037034 -0.946151
v 1.126401 -0.040378 -0.689150
v 1.126401 -0.040378 -0.935051
v 1.140692 -0.037035 -0.935051
v 1.140692 -0.037035 -0.689150
v 1.126401 0.040378 -0.935051
v 1.126401 0.040378 -0.689150
v 1.140692 0.037034 -0.689150
v 1.140692 0.037034 -0.935051
v 1.126401 0.037034 -0.678050
v 1.126401 -0.037035 -0.678050
v 1.140692 -0.037035 -0.689150
v 1.140692 0.037034 -0.689150
v 0.809816 -0.040378 -0.689150
v 1.126401 -0.040378 -0.689150
v 1.126401 -0.037035 -0.678050
v 0.809816 -0.037035 -0.678050
v 1.126401 0.040378 -0.689150
v 0.809816 0.040378 -0.689150
v 0.809816 0.037034 -0.678050
v 1.126401 0.037034 -0.678050
v 0.809816 -0.040378 -0.935051
v 1.126401 -0.040378 -0.935051
v 1.126401 -0.040378 -0.689150
v 0.809816 -0.040378 -0.689150
v 0.102843 -0.037035 -0.678050
v 0.102843 0.037034 -0.678050
v -0.213742 0.037034 -0.678050
v -0.213742 -0.037035 -0.678050
v 0.117134 -0.037035 -0.935051
v 0.117134 0.037034 -0.935051
v 0.117134 0.037034 -0.689150
v 0.117134 -0.037035 -0.689150
v 0.102843 0.040378 -0.935051
v -0.213742 0.040378 -0.935051
v -0.213742 0.040378 -0.689150
v 0.102843 0.040378 -0.689150
v -0.228033 -0.037035 -0.689150
v -0.228033 0.037034 -0.689150
v -0.228033 0.037034 -0.935051
v -0.228033 -0.037035 -0.935051
v -0.213742 -0.037035 -0.946151
v -0.213742 0.037034 -0.946151
v 0.102843 0.037034 -0.946151
v 0.102843 -0.037035 -0.946151
v -0.213742 -0.040378 -0.935051
v -0.213742 -0.040378 -0.689150
v -0.228033 -0.037035 -0.689150
v -0.228033 -0.037035 -0.935051
v -0.213742 -0.037035 -0.678050
v -0.213742 0.037034 -0.678050
v -0.228033 0.037034 -0.689150
v -0.228033 -0.037035 -0.689150
v -0.213742 0.040378 -0.689150
v -0.213742 0.040378 -0.935051
v -0.228033 0.037034 -0.935051
v -0.228033 0.037034 -0.689150
v -0.213742 0.037034 -0.946151
v -0.213742 -0.037035 -0.946151
v -0.228033 -0.037035 -0.935051
v -0.228033 0.037034 -0.935051
v 0.102843 -0.040378 -0.935051
v -0.213742 -0.040378 -0.935051
v -0.213742 -0.037035 -0.946151
v 0.102843 -0.037035 -0.946151
v -0.213742 0.040378 -0.935051
v 0.102843 0.040378 -0.935051
v 0.102843 0.037034 -0.946151
v -0.213742 0.037034 -0.946151
v 0.117134 0.037034 -0.935051
v 0.117134 -0.037035 -0.935051
v 0.102843 -0.037035 -0.946151
v 0.102843 0.037034 -0.946151
v 0.102843 -0.040378 -0.689150
v 0.102843 -0.040378 -0.935051
v 0.117134 -0.037035 -0.935051
v 0.117134 -0.037035 -0.689150
v 0.102843 0.040378 -0.935051
v 0.102843 0.040378 -0.689150
v 0.117134 0.037034 -0.689150
v 0.117134 0.037034 -0.935051
v 0.102843 0.037034 -0.678050
v 0.102843 -0.037035 -0.678050
v 0.117134 -0.037035 -0.689150
v 0.117134 0.037034 -0.689150
v -0.213742 -0.040378 -0.689150
v 0.102843 -0.040378 -0.689150
v 0.102843 -0.037035 -0.678050
v -0.213742 -0.037035 -0.678050
v 0.102843 0.040378 -0.689150
v -0.213742 0.040378 -0.689150
v -0.213742 0.037034 -0.678050
v 0.102843 0.037034 -0.678050
v -0.213742 -0.040378 -0.935051
v 0.102843 -0.040378 -0.935051
v 0.102843 -0.040378 -0.689150
v -0.213742 -0.040378 -0.689150
v 0.443859 -0.037035 -0.678050
v 0.443859 0.037034 -0.678050
v 0.127274 0.037034 -0.678050
v 0.127274 -0.037035 -0.678050
v 0.458150 -0.037035 -0.935051
v 0.458150 0.037034 -0.935051
v 0.458150 0.037034 -0.689150
v 0.458150 -0.037035 -0.689150
v 0.443859 0.040378 -0.935051
v 0.127274 0.040378 -0.935051
v 0.127274 0.040378 -0.689150
v 0.443859 0.040378 -0.689150
v 0.112983 -0.037035 -0.689150
v 0.112983 0.037034 -0.689150
v 0.112983 0.037034 -0.935051
v 0.112983 -0.037035 -0.935051
v 0.127274 -0.037035 -0.946151
v 0.127274 0.037034 -0.946151
v 0.443859 0.037034 -0.946151
v 0.443859 -0.037035 -0.946151
v 0.127274 -0.040378 -0.935051
v 0.127274 -0.040378 -0.689150
v 0.112983 -0.037035 -0.689150
v 0.112983 -0.037035 -0.935051
v 0.127274 -0.037035 -0.678050
v 0.127274 0.037034 -0.678050
v 0.112983 0.037034 -0.689150
v 0.112983 -0.037035 -0.689150
v 0.127274 0.040378 -0.689150
v 0.127274 0.040378 -0.935051
v 0.112983 0.037034 -0.935051
v 0.112983 0.037034 -0.689150
v 0.127274 0.037034 -0.946151
v 0.127274 -0.037035 -0.946151
v 0.112983 -0.037035 -0.935051
v 0.112983 0.037034 -0.935051
v 0.443859 -0.040378 -0.935051
v 0.127274 -0.040378 -0.935051
v 0.127274 -0.037035 -0.946151
v 0.443859 -0.037035 -0.946151
v 0.127274 0.040378 -0.935051
v 0.443859 0.040378 -0.935051
v 0.443859 0.037034 -0.946151
v 0.127274 0.037034 -0.946151
v 0.458150 0.037034 -0.935051
v 0.458150 -0.037035 -0.935051
v 0.443859 -0.037035 -0.946151
v 0.443859 0.037034 -0.946151
v 0.443859 -0.040378 -0.689150
v 0.443859 -0.040378 -0.935051
v 0.458150 -0.037035 -0.935051
v 0.458150 -0.037035 -0.689150
v 0.443859 0.040378 -0.935051
v 0.443859 0.040378 -0.689150
v 0.458150 0.037034 -0.689150
v 0.458150 0.037034 -0.935051
v 0.443859 0.037034 -0.678050
v 0.443859 -0.037035 -0.678050
v 0.458150 -0.037035 -0.689150
v 0.458150 0.037034 -0.689150
v 0.127274 -0.040378 -0.689150
v 0.443859 -0.040378 -0.689150
v 0.443859 -0.037035 -0.678050
v 0.127274 -0.037035 -0.678050
v 0.443859 0.040378 -0.689150
v 0.127274 0.040378 -0.689150
v 0.127274 0.037034 -0.678050
v 0.443859 0.037034 -0.678050
v 0.127274 -0.040378 -0.935051
v 0.443859 -0.040378 -0.935051
v 0.443859 -0.040378 -0.689150
v 0.127274 -0.040378 -0.689150
v -0.579802 -0.037035 -0.678050
v -0.579802 0.037034 -0.678050
v -0.896386 0.037034 -0.678050
v -0.896386 -0.037035 -0.678050
v -0.565511 -0.037035 -0.935051
v -0.565510 0.037034 -0.935051
v -0.565510 0.037034 -0.689150
v -0.565511 -0.037035 -0.689150
v -0.579802 0.040378 -0.935051
v -0.896386 0.040378 -0.935051
v -0.896386 0.040378 -0.689150
v -0.579802 0.040378 -0.689150
v -0.910677 -0.037035 -0.689150
v -0.910677 0.037034 -0.689150
v -0.910677 0.037034 -0.935051
v -0.910677 -0.037035 -0.935051
v -0.896386 -0.037035 -0.946151
v -0.896386 0.037034 -0.946151
v -0.579802 0.037034 -0.946151
v -0.579802 -0.037035 -0.946151
v -0.896386 -0.040378 -0.935051
v -0.896386 -0.040378 -0.689150
v -0.910677 -0.037035 -0.689150
v -0.910677 -0.037035 -0.935051
v -0.896386 -0.037035 -0.678050
v -0.896386 0.037034 -0.678050
v -0.910677 0.037034 -0.689150
v -0.910677 -0.037035 -0.689150
v -0.896386 0.040378 -0.689150
v -0.896386 0.040378 -0.935051
v -0.910677 0.037034 -0.935051
v -0.910677 0.037034 -0.689150
v -0.896386 0.037034 -0.946151
v -0.896386 -0.037035 -0.946151
v -0.910677 -0.037035 -0.935051
v -0.910677 0.037034 -0.935051
v -0.579802 -0.040378 -0.935051
v -0.896386 -0.040378 -0.935051
v -0.896386 -0.037035 -0.946151
v -0.579802 -0.037035 -0.946151
v -0.896386 0.040378 -0.935051
v -0.579802 0.040378 -0.935051
v -0.579802 0.037034 -0.946151
v -0.896386 0.037034 -0.946151
v -0.565510 0.037034 -0.935051
v -0.565511 -0.037035 -0.935051
v -0.579802 -0.037035 -0.946151
v -0.579802 0.037034 -0.946151
v -0.579802 -0.040378 -0.689150
v -0.579802 -0.040378 -0.935051
v -0.565511 -0.037035 -0.935051
v -0.565511 -0.037035 -0.689150
v -0.579802 0.040378 -0.935051
v -0.579802 0.040378 -0.689150
v -0.565510 0.037034 -0.689150
v -0.565510 0.037034 -0.935051
v -0.579802 0.037034 -0.678050
v -0.579802 -0.037035 -0.678050
v -0.565511 -0.037035 -0.689150
v -0.565510 0.037034 -0.689150
v -0.896386 -0.040378 -0.689150
v -0.579802 -0.040378 -0.689150
v -0.579802 -0.037035 -0.678050
v -0.896386 -0.037035 -0.678050
v -0.579802 0.040378 -0.689150
v -0.896386 0.040378 -0.689150
v -0.896386 0.037034 -0.678050
v -0.579802 0.037034 -0.678050
v -0.896386 -0.040378 -0.935051
v -0.579802 -0.040378 -0.935051
v -0.579802 -0.040378 -0.689150
v -0.896386 -0.040378 -0.689150
v -0.238785 -0.037035 -0.678050
v -0.238785 0.037034 -0.678050
v -0.555370 0.037034 -0.678050
v -0.555370 -0.037035 -0.678050
v -0.224494 -0.037035 -0.935051
v -0.224494 0.037034 -0.935051
v -0.224494 0.037034 -0.689150
v -0.224494 -0.037035 -0.689150
v -0.238785 0.040378 -0.935051
v -0.555370 0.040378 -0.935051
v -0.555370 0.040378 -0.689150
v -0.238785 0.040378 -0.689150
v -0.569661 -0.037035 -0.689150
v -0.569661 0.037034 -0.689150
v -0.569661 0.037034 -0.935051
v -0.569661 -0.037035 -0.935051
v -0.555370 -0.037035 -0.946151
v -0.555370 0.037034 -0.946151
v -0.238785 0.037034 -0.946151
v -0.238785 -0.037035 -0.946151
v -0.555370 -0.040378 -0.935051
v -0.555370 -0.040378 -0.689150
v -0.569661 -0.037035 -0.689150
v -0.569661 -0.037035 -0.935051
v -0.555370 -0.037035 -0.678050
v -0.555370 0.037034 -0.678050
v -0.569661 0.037034 -0.689150
v -0.569661 -0.037035 -0.689150
v -0.555370 0.040378 -0.689150
v -0.555370 0.040378 -0.935051
v -0.569661 0.037034 -0.935051
v -0.569661 0.037034 -0.689150
v -0.555370 0.037034 -0.946151
v -0.555370 -0.037035 -0.946151
v -0.569661 -0.037035 -0.935051
v -0.569661 0.037034 -0.935051
v -0.238785 -0.040378 -0.935051
v -0.555370 -0.040378 -0.935051
v -0.555370 -0.037035 -0.946151
v -0.238785 -0.037035 -0.946151
v -0.555370 0.040378 -0.935051
v -0.238785 0.040378 -0.935051
v -0.238785 0.037034 -0.946151
v -0.555370 0.037034 -0.946151
v -0.224494 0.037034 -0.935051
v -0.224494 -0.037035 -0.935051
v -0.238785 -0.037035 -0.946151
v -0.238785 0.037034 -0.946151
v -0.238785 -0.040378 -0.689150
v -0.238785 -0.040378 -0.935051
v -0.224494 -0.037035 -0.935051
v -0.224494 -0.037035 -0.689150
v -0.238785 0.040378 -0.935051
v -0.238785 0.040378 -0.689150
v -0.224494 0.037034 -0.689150
v -0.224494 0.037034 -0.935051
v -0.238785 0.037034 -0.678050
v -0.238785 -0.037035 -0.678050
v -0.224494 -0.037035 -0.689150
v -0.224494 0.037034 -0.689150
v -0.555370 -0.040378 -0.689150
v -0.238785 -0.040378 -0.689150
v -0.238785 -0.037035 -0.678050
v -0.555370 -0.037035 -0.678050
v -0.238785 0.040378 -0.689150
v -0.555370 0.040378 -0.689150
v -0.555370 0.037034 -0.678050
v -0.238785 0.037034 -0.678050
v -0.555370 -0.040378 -0.935051
v -0.238785 -0.040378 -0.935051
v -0.238785 -0.040378 -0.689150
v -0.555370 -0.040378 -0.689150
v -0.872591 -0.037035 -0.749910
v -0.872591 0.037034 -0.749910
v -0.872591 0.037034 -0.433326
v -0.872591 -0.037034 -0.433326
v -1.129592 -0.037035 -0.764201
v -1.129592 0.037034 -0.764201
v -0.883691 0.037034 -0.764201
v -0.883692 -0.037035 -0.764201
v -1.129592 0.040378 -0.749910
v -1.129592 0.040378 -0.433326
v -0.883692 0.040378 -0.433326
v -0.883692 0.040378 -0.749910
v -0.883692 -0.037034 -0.419035
v -0.883691 0.037034 -0.419035
v -1.129592 0.037034 -0.419035
v -1.129592 -0.037034 -0.419035
v -1.140692 -0.037034 -0.433326
v -1.140692 0.037034 -0.433326
v -1.140692 0.037034 -0.749910
v -1.140692 -0.037035 -0.749910
v -1.129592 -0.040378 -0.433326
v -0.883692 -0.040378 -0.433326
v -0.883692 -0.037034 -0.419035
v -1.129592 -0.037034 -0.419035
v -0.872591 -0.037034 -0.433326
v -0.872591 0.037034 -0.433326
v -0.883691 0.037034 -0.419035
v -0.883692 -0.037034 -0.419035
v -0.883692 0.040378 -0.433326
v -1.129592 0.040378 -0.433326
v -1.129592 0.037034 -0.419035
v -0.883691 0.037034 -0.419035
v -1.140692 0.037034 -0.433326
v -1.140692 -0.037034 -0.433326
v -1.129592 -0.037034 -0.419035
v -1.129592 0.037034 -0.419035
v -1.129592 -0.040378 -0.749910
v -1.129592 -0.040378 -0.433326
v -1.140692 -0.037034 -0.433326
v -1.140692 -0.037035 -0.749910
v -1.129592 0.040378 -0.433326
v -1.129592 0.040378 -0.749910
v -1.140692 0.037034 -0.749910
v -1.140692 0.037034 -0.433326
v -1.129592 0.037034 -0.764201
v -1.129592 -0.037035 -0.764201
v -1.140692 -0.037035 -0.749910
v -1.140692 0.037034 -0.749910
v -0.883692 -0.040378 -0.749910
v -1.129592 -0.040378 -0.749910
v -1.129592 -0.037035 -0.764201
v -0.883692 -0.037035 -0.764201
v -1.129592 0.040378 -0.749910
v -0.883692 0.040378 -0.749910
v -0.883691 0.037034 -0.764201
v -1.129592 0.037034 -0.764201
v -0.872591 0.037034 -0.749910
v -0.872591 -0.037035 -0.749910
v -0.883692 -0.037035 -0.764201
v -0.883691 0.037034 -0.764201
v -0.883692 -0.040378 -0.433326
v -0.883692 -0.040378 -0.749910
v -0.872591 -0.037035 -0.749910
v -0.872591 -0.037034 -0.433326
v -0.883692 0.040378 -0.749910
v -0.883692 0.040378 -0.433326
v -0.872591 0.037034 -0.433326
v -0.872591 0.037034 -0.749910
v -1.129592 -0.040378 -0.433326
v -1.129592 -0.040378 -0.749910
v -0.883692 -0.040378 -0.749910
v -0.883692 -0.040378 -0.433326
v -0.872591 -0.037035 -0.931715
v -0.872591 0.037034 -0.931715
v -0.872591 0.037034 -0.774342
v -0.872591 -0.037035 -0.774342
v -1.129592 -0.037035 -0.946006
v -1.129592 0.037034 -0.946006
v -0.883692 0.037034 -0.946006
v -0.883692 -0.037035 -0.946006
v -1.129592 0.040378 -0.931715
v -1.129592 0.040378 -0.774342
v -0.883692 0.040378 -0.774342
v -0.883692 0.040378 -0.931715
v -0.883692 -0.037035 -0.760051
v -0.883692 0.037034 -0.760051
v -1.129592 0.037034 -0.760051
v -1.129592 -0.037035 -0.760051
v -1.140692 -0.037035 -0.774342
v -1.140692 0.037034 -0.774342
v -1.140692 0.037034 -0.931715
v -1.140692 -0.037035 -0.931715
v -1.129592 -0.040378 -0.774342
v -0.883692 -0.040378 -0.774342
v -0.883692 -0.037035 -0.760051
v -1.129592 -0.037035 -0.760051
v -0.872591 -0.037035 -0.774342
v -0.872591 0.037034 -0.774342
v -0.883692 0.037034 -0.760051
v -0.883692 -0.037035 -0.760051
v -0.883692 0.040378 -0.774342
v -1.129592 0.040378 -0.774342
v -1.129592 0.037034 -0.760051
v -0.883692 0.037034 -0.760051
v -1.140692 0.037034 -0.774342
v -1.140692 -0.037035 -0.774342
v -1.129592 -0.037035 -0.760051
v -1.129592 0.037034 -0.760051
v -1.129592 -0.040378 -0.931715
v -1.129592 -0.040378 -0.774342
v -1.140692 -0.037035 -0.774342
v -1.140692 -0.037035 -0.931715
v -1.129592 0.040378 -0.774342
v -1.129592 0.040378 -0.931715
v -1.140692 0.037034 -0.931715
v -1.140692 0.037034 -0.774342
v -1.129592 0.037034 -0.946006
v -1.129592 -0.037035 -0.946006
v -1.140692 -0.037035 -0.931715
v -1.140692 0.037034 -0.931715
v -0.883692 -0.040378 -0.931715
v -1.129592 -0.040378 -0.931715
v -1.129592 -0.037035 -0.946006
v -0.883692 -0.037035 -0.946006
v -1.129592 0.040378 -0.931715
v -0.883692 0.040378 -0.931715
v -0.883692 0.037034 -0.946006
v -1.129592 0.037034 -0.946006
v -0.872591 0.037034 -0.931715
v -0.872591 -0.037035 -0.931715
v -0.883692 -0.037035 -0.946006
v -0.883692 0.037034 -0.946006
v -0.883692 -0.040378 -0.774342
v -0.883692 -0.040378 -0.931715
v -0.872591 -0.037035 -0.931715
v -0.872591 -0.037035 -0.774342
v -0.883692 0.040378 -0.931715
v -0.883692 0.040378 -0.774342
v -0.872591 0.037034 -0.774342
v -0.872591 0.037034 -0.931715
v -1.129592 -0.040378 -0.774342
v -1.129592 -0.040378 -0.931715
v -0.883692 -0.040378 -0.931715
v -0.883692 -0.040378 -0.774342
v -0.872591 -0.037034 -0.067368
v -0.872591 0.037034 -0.067368
v -0.872591 0.037035 0.249216
v -0.872591 -0.037034 0.249216
v -1.129592 -0.037034 -0.081659
v -1.129592 0.037034 -0.081659
v -0.883691 0.037034 -0.081659
v -0.883692 -0.037034 -0.081659
v -1.129592 0.040378 -0.067368
v -1.129592 0.040378 0.249216
v -0.883692 0.040378 0.249216
v -0.883692 0.040378 -0.067368
v -0.883692 -0.037034 0.263507
v -0.883691 0.037035 0.263507
v -1.129592 0.037035 0.263507
v -1.129592 -0.037034 0.263507
v -1.140692 -0.037034 0.249216
v -1.140692 0.037035 0.249216
v -1.140692 0.037034 -0.067368
v -1.140692 -0.037034 -0.067368
v -1.129592 -0.040378 0.249216
v -0.883692 -0.040378 0.249216
v -0.883692 -0.037034 0.263507
v -1.129592 -0.037034 0.263507
v -0.872591 -0.037034 0.249216
v -0.872591 0.037035 0.249216
v -0.883691 0.037035 0.263507
v -0.883692 -0.037034 0.263507
v -0.883692 0.040378 0.249216
v -1.129592 0.040378 0.249216
v -1.129592 0.037035 0.263507
v -0.883691 0.037035 0.263507
v -1.140692 0.037035 0.249216
v -1.140692 -0.037034 0.249216
v -1.129592 -0.037034 0.263507
v -1.129592 0.037035 0.263507
v -1.129592 -0.040378 -0.067368
v -1.129592 -0.040378 0.249216
v -1.140692 -0.037034 0.249216
v -1.140692 -0.037034 -0.067368
v -1.129592 0.040378 0.249216
v -1.129592 0.040378 -0.067368
v -1.140692 0.037034 -0.067368
v -1.140692 0.037035 0.249216
v -1.129592 0.037034 -0.081659
v -1.129592 -0.037034 -0.081659
v -1.140692 -0.037034 -0.067368
v -1.140692 0.037034 -0.067368
v -0.883692 -0.040378 -0.067368
v -1.129592 -0.040378 -0.067368
v -1.129592 -0.037034 -0.081659
v -0.883692 -0.037034 -0.081659
v -1.129592 0.040378 -0.067368
v -0.883692 0.040378 -0.067368
v -0.883691 0.037034 -0.081659
v -1.129592 0.037034 -0.081659
v -0.872591 0.037034 -0.067368
v -0.872591 -0.037034 -0.067368
v -0.883692 -0.037034 -0.081659
v -0.883691 0.037034 -0.081659
v -0.883692 -0.040378 0.249216
v -0.883692 -0.040378 -0.067368
v -0.872591 -0.037034 -0.067368
v -0.872591 -0.037034 0.249216
v -0.883692 0.040378 -0.067368
v -0.883692 0.040378 0.249216
v -0.872591 0.037035 0.249216
v -0.872591 0.037034 -0.067368
v -1.129592 -0.040378 0.249216
v -1.129592 -0.040378 -0.067368
v -0.883692 -0.040378 -0.067368
v -0.883692 -0.040378 0.249216
v -0.872591 -0.037034 -0.408385
v -0.872591 0.037034 -0.408385
v -0.872591 0.037034 -0.091800
v -0.872591 -0.037034 -0.091800
v -1.129592 -0.037034 -0.422676
v -1.129592 0.037034 -0.422675
v -0.883691 0.037034 -0.422676
v -0.883692 -0.037034 -0.422676
v -1.129592 0.040378 -0.408385
v -1.129592 0.040378 -0.091800
v -0.883692 0.040378 -0.091800
v -0.883692 0.040378 -0.408385
v -0.883692 -0.037034 -0.077509
v -0.883691 0.037034 -0.077509
v -1.129592 0.037034 -0.077509
v -1.129592 -0.037034 -0.077509
v -1.140692 -0.037034 -0.091800
v -1.140692 0.037034 -0.091800
v -1.140692 0.037034 -0.408385
v -1.140692 -0.037034 -0.408385
v -1.129592 -0.040378 -0.091800
v -0.883692 -0.040378 -0.091800
v -0.883692 -0.037034 -0.077509
v -1.129592 -0.037034 -0.077509
v -0.872591 -0.037034 -0.091800
v -0.872591 0.037034 -0.091800
v -0.883691 0.037034 -0.077509
v -0.883692 -0.037034 -0.077509
v -0.883692 0.040378 -0.091800
v -1.129592 0.040378 -0.091800
v -1.129592 0.037034 -0.077509
v -0.883691 0.037034 -0.077509
v -1.140692 0.037034 -0.091800
v -1.140692 -0.037034 -0.091800
v -1.129592 -0.037034 -0.077509
v -1.129592 0.037034 -0.077509
v -1.129592 -0.040378 -0.408385
v -1.129592 -0.040378 -0.091800
v -1.140692 -0.037034 -0.091800
v -1.140692 -0.037034 -0.408385
v -1.129592 0.040378 -0.091800
v -1.129592 0.040378 -0.408385
v -1.140692 0.037034 -0.408385
v -1.140692 0.037034 -0.091800
v -1.129592 0.037034 -0.422675
v -1.129592 -0.037034 -0.422676
v -1.140692 -0.037034 -0.408385
v -1.140692 0.037034 -0.408385
v -0.883692 -0.040378 -0.408385
v -1.129592 -0.040378 -0.408385
v -1.129592 -0.037034 -0.422676
v -0.883692 -0.037034 -0.422676
v -1.129592 0.040378 -0.408385
v -0.883692 0.040378 -0.408385
v -0.883691 0.037034 -0.422676
v -1.129592 0.037034 -0.422675
v -0.872591 0.037034 -0.408385
v -0.872591 -0.037034 -0.408385
v -0.883692 -0.037034 -0.422676
v -0.883691 0.037034 -0.422676
v -0.883692 -0.040378 -0.091800
v -0.883692 -0.040378 -0.408385
v -0.872591 -0.037034 -0.408385
v -0.872591 -0.037034 -0.091800
v -0.883692 0.040378 -0.408385
v -0.883692 0.040378 -0.091800
v -0.872591 0.037034 -0.091800
v -0.872591 0.037034 -0.408385
v -1.129592 -0.040378 -0.091800
v -1.129592 -0.040378 -0.408385
v -0.883692 -0.040378 -0.408385
v -0.883692 -0.040378 -0.091800
v -0.872591 -0.037034 0.615275
v -0.872591 0.037035 0.615275
v -0.872591 0.037035 0.931860
v -0.872591 -0.037034 0.931860
v -1.129592 -0.037034 0.600984
v -1.129592 0.037035 0.600984
v -0.883691 0.037035 0.600984
v -0.883692 -0.037034 0.600984
v -1.129592 0.040378 0.615275
v -1.129592 0.040378 0.931860
v -0.883692 0.040378 0.931860
v -0.883692 0.040378 0.615275
v -0.883692 -0.037034 0.946151
v -0.883691 0.037035 0.946151
v -1.129592 0.037035 0.946151
v -1.129592 -0.037034 0.946151
v -1.140692 -0.037034 0.931860
v -1.140692 0.037035 0.931860
v -1.140692 0.037035 0.615275
v -1.140692 -0.037034 0.615275
v -1.129592 -0.040378 0.931860
v -0.883692 -0.040378 0.931860
v -0.883692 -0.037034 0.946151
v -1.129592 -0.037034 0.946151
v -0.872591 -0.037034 0.931860
v -0.872591 0.037035 0.931860
v -0.883691 0.037035 0.946151
v -0.883692 -0.037034 0.946151
v -0.883692 0.040378 0.931860
v -1.129592 0.040378 0.931860
v -1.129592 0.037035 0.946151
v -0.883691 0.037035 0.946151
v -1.140692 0.037035 0.931860
v -1.140692 -0.037034 0.931860
v -1.129592 -0.037034 0.946151
v -1.129592 0.037035 0.946151
v -1.129592 -0.040378 0.615275
v -1.129592 -0.040378 0.931860
v -1.140692 -0.037034 0.931860
v -1.140692 -0.037034 0.615275
v -1.129592 0.040378 0.931860
v -1.129592 0.040378 0.615275
v -1.140692 0.037035 0.615275
v -1.140692 0.037035 0.931860
v -1.129592 0.037035 0.600984
v -1.129592 -0.037034 0.600984
v -1.140692 -0.037034 0.615275
v -1.140692 0.037035 0.615275
v -0.883692 -0.040378 0.615275
v -1.129592 -0.040378 0.615275
v -1.129592 -0.037034 0.600984
v -0.883692 -0.037034 0.600984
v -1.129592 0.040378 0.615275
v -0.883692 0.040378 0.615275
v -0.883691 0.037035 0.600984
v -1.129592 0.037035 0.600984
v -0.872591 0.037035 0.615275
v -0.872591 -0.037034 0.615275
v -0.883692 -0.037034 0.600984
v -0.883691 0.037035 0.600984
v -0.883692 -0.040378 0.931860
v -0.883692 -0.040378 0.615275
v -0.872591 -0.037034 0.615275
v -0.872591 -0.037034 0.931860
v -0.883692 0.040378 0.615275
v -0.883692 0.040378 0.931860
v -0.872591 0.037035 0.931860
v -0.872591 0.037035 0.615275
v -1.129592 -0.040378 0.931860
v -1.129592 -0.040378 0.615275
v -0.883692 -0.040378 0.615275
v -0.883692 -0.040378 0.931860
v -0.872591 -0.037034 0.274259
v -0.872591 0.037035 0.274259
v -0.872591 0.037035 0.590844
v -0.872591 -0.037034 0.590844
v -1.129592 -0.037034 0.259968
v -1.129592 0.037035 0.259968
v -0.883691 0.037035 0.259968
v -0.883692 -0.037034 0.259968
v -1.129592 0.040378 0.274259
v -1.129592 0.040378 0.590844
v -0.883692 0.040378 0.590844
v -0.883692 0.040378 0.274259
v -0.883692 -0.037034 0.605135
v -0.883691 0.037035 0.605135
v -1.129592 0.037035 0.605135
v -1.129592 -0.037034 0.605135
v -1.140692 -0.037034 0.590844
v -1.140692 0.037035 0.590844
v -1.140692 0.037035 0.274259
v -1.140692 -0.037034 0.274259
v -1.129592 -0.040378 0.590844
v -0.883692 -0.040378 0.590844
v -0.883692 -0.037034 0.605135
v -1.129592 -0.037034 0.605135
v -0.872591 -0.037034 0.590844
v -0.872591 0.037035 0.590844
v -0.883691 0.037035 0.605135
v -0.883692 -0.037034 0.605135
v -0.883692 0.040378 0.590844
v -1.129592 0.040378 0.590844
v -1.129592 0.037035 0.605135
v -0.883691 0.037035 0.605135
v -1.140692 0.037035 0.590844
v -1.140692 -0.037034 0.590844
v -1.129592 -0.037034 0.605135
v -1.129592 0.037035 0.605135
v -1.129592 -0.040378 0.274259
v -1.129592 -0.040378 0.590844
v -1.140692 -0.037034 0.590844
v -1.140692 -0.037034 0.274259
v -1.129592 0.040378 0.590844
v -1.129592 0.040378 0.274259
v -1.140692 0.037035 0.274259
v -1.140692 0.037035 0.590844
v -1.129592 0.037035 0.259968
v -1.129592 -0.037034 0.259968
v -1.140692 -0.037034 0.274259
v -1.140692 0.037035 0.274259
v -0.883692 -0.040378 0.274259
v -1.129592 -0.040378 0.274259
v -1.129592 -0.037034 0.259968
v -0.883692 -0.037034 0.259968
v -1.129592 0.040378 0.274259
v -0.883692 0.040378 0.274259
v -0.883691 0.037035 0.259968
v -1.129592 0.037035 0.259968
v -0.872591 0.037035 0.274259
v -0.872591 -0.037034 0.274259
v -0.883692 -0.037034 0.259968
v -0.883691 0.037035 0.259968
v -0.883692 -0.040378 0.590844
v -0.883692 -0.040378 0.274259
v -0.872591 -0.037034 0.274259
v -0.872591 -0.037034 0.590844
v -0.883692 0.040378 0.274259
v -0.883692 0.040378 0.590844
v -0.872591 0.037035 0.590844
v -0.872591 0.037035 0.274259
v -1.129592 -0.040378 0.590844
v -1.129592 -0.040378 0.274259
v -0.883692 -0.040378 0.274259
v -0.883692 -0.040378 0.590844
v 0.036290 -0.037034 0.460371
v 0.036290 0.037034 0.460371
v -0.217054 0.037034 0.460371
v -0.217054 -0.037034 0.460371
v 0.047726 -0.037034 0.233708
v 0.047726 0.037034 0.233708
v 0.047726 0.037034 0.450581
v 0.047726 -0.037034 0.450581
v 0.036290 0.040378 0.233708
v -0.217054 0.040378 0.233708
v -0.217054 0.040378 0.450581
v 0.036290 0.040378 0.450581
v -0.228491 -0.037034 0.450581
v -0.228491 0.037034 0.450581
v -0.228491 0.037034 0.233708
v -0.228491 -0.037034 0.233708
v -0.217054 -0.037034 0.223918
v -0.217054 0.037034 0.223918
v 0.036290 0.037034 0.223918
v 0.036290 -0.037034 0.223918
v -0.217054 -0.040378 0.233708
v -0.217054 -0.040378 0.450581
v -0.228491 -0.037034 0.450581
v -0.228491 -0.037034 0.233708
v -0.217054 -0.037034 0.460371
v -0.217054 0.037034 0.460371
v -0.228491 0.037034 0.450581
v -0.228491 -0.037034 0.450581
v -0.217054 0.040378 0.450581
v -0.217054 0.040378 0.233708
v -0.228491 0.037034 0.233708
v -0.228491 0.037034 0.450581
v -0.217054 0.037034 0.223918
v -0.217054 -0.037034 0.223918
v -0.228491 -0.037034 0.233708
v -0.228491 0.037034 0.233708
v 0.036290 -0.040378 0.233708
v -0.217054 -0.040378 0.233708
v -0.217054 -0.037034 0.223918
v 0.036290 -0.037034 0.223918
v -0.217054 0.040378 0.233708
v 0.036290 0.040378 0.233708
v 0.036290 0.037034 0.223918
v -0.217054 0.037034 0.223918
v 0.047726 0.037034 0.233708
v 0.047726 -0.037034 0.233708
v 0.036290 -0.037034 0.223918
v 0.036290 0.037034 0.223918
v 0.036290 -0.040378 0.450581
v 0.036290 -0.040378 0.233708
v 0.047726 -0.037034 0.233708
v 0.047726 -0.037034 0.450581
v 0.036290 0.040378 0.233708
v 0.036290 0.040378 0.450581
v 0.047726 0.037034 0.450581
v 0.047726 0.037034 0.233708
v 0.036290 0.037034 0.460371
v 0.036290 -0.037034 0.460371
v 0.047726 -0.037034 0.450581
v 0.047726 0.037034 0.450581
v -0.217054 -0.040378 0.450581
v 0.036290 -0.040378 0.450581
v 0.036290 -0.037034 0.460371
v -0.217054 -0.037034 0.460371
v 0.036290 0.040378 0.450581
v -0.217054 0.040378 0.450581
v -0.217054 0.037034 0.460371
v 0.036290 0.037034 0.460371
v -0.217054 -0.040378 0.233708
v 0.036290 -0.040378 0.233708
v 0.036290 -0.040378 0.450581
v -0.217054 -0.040378 0.450581
v 0.036290 -0.037034 0.694031
v 0.036290 0.037035 0.694031
v -0.217054 0.037035 0.694031
v -0.217054 -0.037034 0.694031
v 0.047726 -0.037034 0.467369
v 0.047726 0.037034 0.467369
v 0.047726 0.037035 0.684241
v 0.047726 -0.037034 0.684241
v 0.036290 0.040378 0.467369
v -0.217054 0.040378 0.467369
v -0.217054 0.040378 0.684241
v 0.036290 0.040378 0.684241
v -0.228491 -0.037034 0.684241
v -0.228491 0.037035 0.684241
v -0.228491 0.037034 0.467369
v -0.228491 -0.037034 0.467369
v -0.217054 -0.037034 0.457579
v -0.217054 0.037034 0.457579
v 0.036290 0.037034 0.457579
v 0.036290 -0.037034 0.457579
v -0.217054 -0.040378 0.467369
v -0.217054 -0.040378 0.684241
v -0.228491 -0.037034 0.684241
v -0.228491 -0.037034 0.467369
v -0.217054 -0.037034 0.694031
v -0.217054 0.037035 0.694031
v -0.228491 0.037035 0.684241
v -0.228491 -0.037034 0.684241
v -0.217054 0.040378 0.684241
v -0.217054 0.040378 0.467369
v -0.228491 0.037034 0.467369
v -0.228491 0.037035 0.684241
v -0.217054 0.037034 0.457579
v -0.217054 -0.037034 0.457579
v -0.228491 -0.037034 0.467369
v -0.228491 0.037034 0.467369
v 0.036290 -0.040378 0.467369
v -0.217054 -0.040378 0.467369
v -0.217054 -0.037034 0.457579
v 0.036290 -0.037034 0.457579
v -0.217054 0.040378 0.467369
v 0.036290 0.040378 0.467369
v 0.036290 0.037034 0.457579
v -0.217054 0.037034 0.457579
v 0.047726 0.037034 0.467369
v 0.047726 -0.037034 0.467369
v 0.036290 -0.037034 0.457579
v 0.036290 0.037034 0.457579
v 0.036290 -0.040378 0.684241
v 0.036290 -0.040378 0.467369
v 0.047726 -0.037034 0.467369
v 0.047726 -0.037034 0.684241
v 0.036290 0.040378 0.467369
v 0.036290 0.040378 0.684241
v 0.047726 0.037035 0.684241
v 0.047726 0.037034 0.467369
v 0.036290 0.037035 0.694031
v 0.036290 -0.037034 0.694031
v 0.047726 -0.037034 0.684241
v 0.047726 0.037035 0.684241
v -0.217054 -0.040378 0.684241
v 0.036290 -0.040378 0.684241
v 0.036290 -0.037034 0.694031
v -0.217054 -0.037034 0.694031
v 0.036290 0.040378 0.684241
v -0.217054 0.040378 0.684241
v -0.217054 0.037035 0.694031
v 0.036290 0.037035 0.694031
v -0.217054 -0.040378 0.467369
v 0.036290 -0.040378 0.467369
v 0.036290 -0.040378 0.684241
v -0.217054 -0.040378 0.684241
v 0.036290 -0.037034 0.938164
v 0.036290 0.037035 0.938164
v -0.217054 0.037035 0.938164
v -0.217054 -0.037034 0.938164
v 0.047726 -0.037034 0.702350
v 0.047726 0.037035 0.702350
v 0.047726 0.037035 0.927979
v 0.047726 -0.037034 0.927979
v 0.036290 0.040378 0.702350
v -0.217054 0.040378 0.702350
v -0.217054 0.040378 0.927979
v 0.036290 0.040378 0.927979
v -0.228491 -0.037034 0.927979
v -0.228491 0.037035 0.927979
v -0.228491 0.037035 0.702350
v -0.228491 -0.037034 0.702350
v -0.217054 -0.037034 0.692165
v -0.217054 0.037035 0.692165
v 0.036290 0.037035 0.692165
v 0.036290 -0.037034 0.692165
v -0.217054 -0.040378 0.702350
v -0.217054 -0.040378 0.927979
v -0.228491 -0.037034 0.927979
v -0.228491 -0.037034 0.702350
v -0.217054 -0.037034 0.938164
v -0.217054 0.037035 0.938164
v -0.228491 0.037035 0.927979
v -0.228491 -0.037034 0.927979
v -0.217054 0.040378 0.927979
v -0.217054 0.040378 0.702350
v -0.228491 0.037035 0.702350
v -0.228491 0.037035 0.927979
v -0.217054 0.037035 0.692165
v -0.217054 -0.037034 0.692165
v -0.228491 -0.037034 0.702350
v -0.228491 0.037035 0.702350
v 0.036290 -0.040378 0.702350
v -0.217054 -0.040378 0.702350
v -0.217054 -0.037034 0.692165
v 0.036290 -0.037034 0.692165
v -0.217054 0.040378 0.702350
v 0.036290 0.040378 0.702350
v 0.036290 0.037035 0.692165
v -0.217054 0.037035 0.692165
v 0.047726 0.037035 0.702350
v 0.047726 -0.037034 0.702350
v 0.036290 -0.037034 0.692165
v 0.036290 0.037035 0.692165
v 0.036290 -0.040378 0.927979
v 0.036290 -0.040378 0.702350
v 0.047726 -0.037034 0.702350
v 0.047726 -0.037034 0.927979
v 0.036290 0.040378 0.702350
v 0.036290 0.040378 0.927979
v 0.047726 0.037035 0.927979
v 0.047726 0.037035 0.702350
v 0.036290 0.037035 0.938164
v 0.036290 -0.037034 0.938164
v 0.047726 -0.037034 0.927979
v 0.047726 0.037035 0.927979
v -0.217054 -0.040378 0.927979
v 0.036290 -0.040378 0.927979
v 0.036290 -0.037034 0.938164
v -0.217054 -0.037034 0.938164
v 0.036290 0.040378 0.927979
v -0.217054 0.040378 0.927979
v -0.217054 0.037035 0.938164
v 0.036290 0.037035 0.938164
v -0.217054 -0.040378 0.702350
v 0.036290 -0.040378 0.702350
v 0.036290 -0.040378 0.927979
v -0.217054 -0.040378 0.927979
vn -0.2186 -0.9343 0.2814
vn -0.2186 0.9343 0.2814
vn -0.2186 -0.9343 -0.2814
vn -0.2186 0.9343 -0.2814
vn 0.2186 -0.9343 0.2814
vn 0.2186 0.9343 0.2814
vn 0.2186 -0.9343 -0.2814
vn 0.2186 0.9343 -0.2814
vn 0.2186 0.9344 -0.2814
vn 0.2814 -0.9343 0.2186
vn 0.2814 0.9343 0.2186
vn -0.2814 -0.9343 0.2186
vn -0.2814 0.9343 0.2186
vn 0.2814 -0.9343 -0.2186
vn 0.2814 0.9343 -0.2186
vn -0.2814 -0.9343 -0.2186
vn -0.2814 0.9343 -0.2186
vn -0.2814 0.9344 -0.2186
vn 0.2814 0.9344 0.2186
vn -0.2814 0.9344 0.2186
vn -0.2814 -0.9344 -0.2186
vn 0.2814 0.9344 -0.2186
vn -0.2667 -0.9121 0.3115
vn -0.2667 0.9121 0.3115
vn -0.2667 -0.9121 -0.3115
vn -0.2667 0.9121 -0.3115
vn 0.2667 -0.9121 0.3115
vn 0.2667 0.9121 0.3115
vn 0.2667 -0.9121 -0.3115
vn 0.2667 0.9121 -0.3115
vn -0.2676 -0.9155 0.3005
vn -0.2676 0.9155 0.3005
vn -0.2676 -0.9155 -0.3005
vn -0.2676 0.9155 -0.3005
vn 0.2676 -0.9155 0.3005
vn 0.2676 0.9155 0.3005
vn 0.2676 -0.9155 -0.3005
vn 0.2676 0.9155 -0.3005
vn -0.0000 -0.0000 1.0000
vn 1.0000 -0.0000 -0.0000
vn -0.0000 1.0000 -0.0000
vn -1.0000 -0.0000 -0.0000
vn -0.0000 -0.0000 -1.0000
vn -0.2278 -0.9737 -0.0000
vn -0.6134 -0.0000 0.7898
vn -0.6134 -0.0000 0.7897
vn -0.2278 0.9737 -0.0000
vn -0.6134 -0.0000 -0.7898
vn -0.0000 -0.9575 -0.2884
vn -0.0000 0.9575 -0.2884
vn 0.6134 -0.0000 -0.7898
vn 0.2278 -0.9737 -0.0000
vn 0.2278 0.9737 -0.0000
vn 0.6134 -0.0000 0.7898
vn -0.0000 -0.9575 0.2884
vn -0.0000 0.9575 0.2884
vn -0.0000 -1.0000 -0.0000
vn -0.0000 -0.9737 0.2278
vn 0.7898 -0.0000 0.6134
vn -0.0000 0.9737 0.2278
vn -0.7898 -0.0000 0.6134
vn -0.2884 -0.9575 -0.0000
vn -0.2884 0.9575 -0.0000
vn -0.7898 -0.0000 -0.6134
vn -0.0000 -0.9737 -0.2278
vn -0.0000 0.9737 -0.2278
vn 0.7898 -0.0000 -0.6134
vn 0.2884 -0.9575 -0.0000
vn 0.2884 0.9575 -0.0000
vn 0.7897 -0.0000 0.6134
vn -0.2806 -0.9598 -0.0000
vn -0.6503 -0.0000 0.7597
vn -0.2806 0.9598 -0.0000
vn -0.6503 -0.0000 -0.7597
vn -0.0000 -0.9463 -0.3232
vn -0.0000 0.9463 -0.3232
vn 0.6503 -0.0000 -0.7597
vn 0.2806 -0.9598 -0.0000
vn 0.2806 0.9598 -0.0000
vn 0.6503 -0.0000 0.7597
vn -0.0000 -0.9463 0.3232
vn -0.0000 0.9463 0.3232
vn -0.6651 -0.0000 0.7468
vn -0.6651 -0.0000 -0.7468
vn -0.0000 -0.9501 -0.3119
vn -0.0000 0.9501 -0.3119
vn 0.6651 -0.0000 -0.7468
vn 0.6651 -0.0000 0.7468
vn -0.0000 -0.9501 0.3119
vn -0.0000 0.9501 0.3119
vt 0.135351 0.260351
vt 0.135351 0.250000
vt 0.125000 0.260351
vt 0.614649 1.000000
vt 0.625000 0.989649
vt 0.614649 0.989649
vt 0.135351 0.489649
vt 0.125000 0.489649
vt 0.135351 0.500000
vt 0.625000 0.760351
vt 0.614649 0.750000
vt 0.614649 0.760351
vt 0.364649 0.260351
vt 0.375000 0.260351
vt 0.364649 0.250000
vt 0.625000 0.239649
vt 0.614649 0.239649
vt 0.614649 0.250000
vt 0.364649 0.489649
vt 0.364649 0.500000
vt 0.375000 0.489649
vt 0.625000 0.510351
vt 0.614649 0.500000
vt 0.614649 0.510351
vt 0.385351 0.239649
vt 0.614649 0.010351
vt 0.385351 0.010351
vt 0.385351 0.489649
vt 0.614649 0.489649
vt 0.614649 0.260351
vt 0.385351 0.260351
vt 0.635351 0.489649
vt 0.864649 0.489649
vt 0.864649 0.260351
vt 0.635351 0.260351
vt 0.385351 0.989649
vt 0.385351 0.760351
vt 0.385351 0.739649
vt 0.614649 0.739649
vt 0.385351 0.510351
vt 0.385351 1.000000
vt 0.625000 0.739649
vt 0.364649 0.250000
vt 0.625000 0.010351
s 0
usemtl Material.002
f 1/1/1 2/2/1 3/3/1
f 4/4/2 5/5/2 6/6/2
f 7/7/3 8/8/3 9/9/3
f 10/10/4 11/11/4 12/12/4
f 13/13/5 14/14/5 15/15/5
f 16/16/6 17/17/6 18/18/6
f 19/19/7 20/20/7 21/21/7
f 22/22/8 23/23/8 24/24/8
f 25/1/1 26/2/1 27/3/1
f 28/4/2 29/5/2 30/6/2
f 31/7/3 32/8/3 33/9/3
f 34/10/4 35/11/4 36/12/4
f 37/13/5 38/14/5 39/15/5
f 40/16/6 41/17/6 42/18/6
f 43/19/7 44/20/7 45/21/7
f 46/22/8 47/23/8 48/24/8
f 49/1/1 50/2/1 51/3/1
f 52/4/2 53/5/2 54/6/2
f 55/7/3 56/8/3 57/9/3
f 58/10/4 59/11/4 60/12/4
f 61/13/5 62/14/5 63/15/5
f 64/16/6 65/17/6 66/18/6
f 67/19/7 68/20/7 69/21/7
f 70/22/8 71/23/8 72/24/8
f 73/1/1 74/2/1 75/3/1
f 76/4/2 77/5/2 78/6/2
f 79/7/3 80/8/3 81/9/3
s 1
f 82/10/4 83/11/4 84/12/4
s 0
f 85/13/5 86/14/5 87/15/5
f 88/16/6 89/17/6 90/18/6
f 91/19/7 92/20/7 93/21/7
f 94/22/8 95/23/8 96/24/8
f 97/1/1 98/2/1 99/3/1
f 100/4/2 101/5/2 102/6/2
f 103/7/3 104/8/3 105/9/3
f 106/10/4 107/11/4 108/12/4
f 109/13/5 110/14/5 111/15/5
f 112/16/6 113/17/6 114/18/6
f 115/19/7 116/20/7 117/21/7
f 118/22/8 119/23/8 120/24/8
f 121/13/5 122/14/5 123/15/5
f 124/1/1 125/2/1 126/3/1
f 127/4/2 128/5/2 129/6/2
f 130/7/3 131/8/3 132/9/3
f 133/10/4 134/11/4 135/12/4
f 136/13/5 137/14/5 138/15/5
f 139/16/6 140/17/6 141/18/6
f 142/19/7 143/20/7 144/21/7
f 145/22/9 146/23/9 147/24/9
f 148/1/1 149/2/1 150/3/1
s 1
f 151/4/2 152/5/2 153/6/2
s 0
f 154/7/3 155/8/3 156/9/3
s 1
f 157/10/4 158/11/4 159/12/4
s 0
f 160/13/5 161/14/5 162/15/5
f 163/16/6 164/17/6 165/18/6
f 166/19/7 167/20/7 168/21/7
f 169/22/8 170/23/8 171/24/8
f 172/1/1 173/2/1 174/3/1
f 175/4/2 176/5/2 177/6/2
f 178/7/3 179/8/3 180/9/3
f 181/10/4 182/11/4 183/12/4
f 184/13/5 185/14/5 186/15/5
f 187/16/6 188/17/6 189/18/6
f 190/19/7 191/20/7 192/21/7
f 193/22/8 194/23/8 195/24/8
s 1
f 196/1/1 197/2/1 198/3/1
s 0
f 199/4/2 200/5/2 201/6/2
f 202/7/3 203/8/3 204/9/3
f 205/10/4 206/11/4 207/12/4
f 208/13/5 209/14/5 210/15/5
f 211/16/6 212/17/6 213/18/6
f 214/19/7 215/20/7 216/21/7
f 217/22/8 218/23/8 219/24/8
f 220/1/1 221/2/1 222/3/1
f 223/4/2 224/5/2 225/6/2
f 226/7/3 227/8/3 228/9/3
f 229/10/4 230/11/4 231/12/4
f 232/13/5 233/14/5 234/15/5
f 235/16/6 236/17/6 237/18/6
f 238/19/7 239/20/7 240/21/7
f 241/22/8 242/23/8 243/24/8
f 244/1/10 245/2/10 246/3/10
f 247/4/11 248/5/11 249/6/11
f 250/7/12 251/8/12 252/9/12
f 253/10/13 254/11/13 255/12/13
f 256/13/14 257/14/14 258/15/14
f 259/16/15 260/17/15 261/18/15
f 262/19/16 263/20/16 264/21/16
s 1
f 265/22/17 266/23/17 267/24/17
s 0
f 268/1/10 269/2/10 270/3/10
f 271/4/11 272/5/11 273/6/11
f 274/7/12 275/8/12 276/9/12
f 277/10/13 278/11/13 279/12/13
f 280/13/14 281/14/14 282/15/14
f 283/16/15 284/17/15 285/18/15
f 286/19/16 287/20/16 288/21/16
f 289/22/18 290/23/18 291/24/18
f 292/1/10 293/2/10 294/3/10
f 295/4/19 296/5/19 297/6/19
f 298/7/12 299/8/12 300/9/12
f 301/10/20 302/11/20 303/12/20
f 304/13/14 305/14/14 306/15/14
f 307/16/15 308/17/15 309/18/15
f 310/19/16 311/20/16 312/21/16
f 313/22/17 314/23/17 315/24/17
f 316/1/10 317/2/10 318/3/10
f 319/4/11 320/5/11 321/6/11
f 322/7/12 323/8/12 324/9/12
f 325/10/13 326/11/13 327/12/13
f 328/13/14 329/14/14 330/15/14
f 331/16/15 332/17/15 333/18/15
f 334/19/16 335/20/16 336/21/16
f 337/22/17 338/23/17 339/24/17
f 340/1/10 341/2/10 342/3/10
s 1
f 343/4/11 344/5/11 345/6/11
s 0
f 346/7/12 347/8/12 348/9/12
f 349/10/20 350/11/20 351/12/20
f 352/13/14 353/14/14 354/15/14
f 355/16/15 356/17/15 357/18/15
f 358/19/21 359/20/21 360/21/21
f 361/22/17 362/23/17 363/24/17
f 364/1/10 365/2/10 366/3/10
f 367/4/11 368/5/11 369/6/11
f 370/7/12 371/8/12 372/9/12
f 373/10/20 374/11/20 375/12/20
s 1
f 376/13/14 377/14/14 378/15/14
s 0
f 379/16/22 380/17/22 381/18/22
f 382/19/16 383/20/16 384/21/16
f 385/22/18 386/23/18 387/24/18
f 388/1/23 389/2/23 390/3/23
f 391/4/24 392/5/24 393/6/24
f 394/7/25 395/8/25 396/9/25
s 1
f 397/10/26 398/11/26 399/12/26
f 400/13/27 401/14/27 402/15/27
s 0
f 403/16/28 404/17/28 405/18/28
s 1
f 406/19/29 407/20/29 408/21/29
s 0
f 409/22/30 410/23/30 411/24/30
f 412/1/23 413/2/23 414/3/23
f 415/4/24 416/5/24 417/6/24
f 418/7/25 419/8/25 420/9/25
f 421/10/26 422/11/26 423/12/26
f 424/13/27 425/14/27 426/15/27
f 427/16/28 428/17/28 429/18/28
f 430/19/29 431/20/29 432/21/29
f 433/22/30 434/23/30 435/24/30
f 436/1/31 437/2/31 438/3/31
f 439/4/32 440/5/32 441/6/32
f 442/7/33 443/8/33 444/9/33
s 1
f 445/10/34 446/11/34 447/12/34
s 0
f 448/13/35 449/14/35 450/15/35
f 451/16/36 452/17/36 453/18/36
f 454/19/37 455/20/37 456/21/37
f 457/22/38 458/23/38 459/24/38
f 460/25/39 461/17/39 462/26/39
f 460/25/39 462/26/39 463/27/39
f 464/28/40 465/29/40 466/30/40
f 464/28/40 466/30/40 467/31/40
f 468/32/41 469/33/41 470/34/41
f 468/32/41 470/34/41 471/35/41
f 472/36/42 473/6/42 474/12/42
f 472/36/42 474/12/42 475/37/42
f 476/38/43 477/39/43 478/24/43
f 476/38/43 478/24/43 479/40/43
f 480/7/44 481/1/44 482/3/44
f 480/7/44 482/3/44 483/8/44
f 484/41/45 485/4/45 486/6/45
f 484/41/46 486/6/46 487/36/46
f 488/5/47 489/10/47 490/12/47
f 488/5/47 490/12/47 491/6/47
f 492/39/48 493/38/48 494/37/48
f 492/39/48 494/37/48 495/12/48
f 496/19/49 497/7/49 498/9/49
f 496/19/49 498/9/49 499/20/49
f 500/42/50 501/22/50 502/24/50
f 500/42/50 502/24/50 503/39/50
f 504/29/51 505/28/51 506/40/51
f 504/29/51 506/40/51 507/24/51
f 508/13/52 509/19/52 510/28/52
f 508/13/52 510/28/52 511/31/52
f 512/32/53 513/35/53 514/30/53
f 512/32/53 514/30/53 515/29/53
f 516/17/54 517/25/54 518/31/54
f 516/17/54 518/31/54 519/30/54
f 520/1/55 521/13/55 522/43/55
f 520/1/55 522/43/55 523/2/55
f 524/16/56 525/44/56 526/26/56
f 524/16/56 526/26/56 527/17/56
f 528/7/57 529/19/57 530/13/57
f 528/7/57 530/13/57 531/1/57
f 532/25/39 533/17/39 534/26/39
f 532/25/39 534/26/39 535/27/39
f 536/28/40 537/29/40 538/30/40
f 536/28/40 538/30/40 539/31/40
f 540/32/41 541/33/41 542/34/41
f 540/32/41 542/34/41 543/35/41
f 544/36/42 545/6/42 546/12/42
f 544/36/42 546/12/42 547/37/42
f 548/38/43 549/39/43 550/24/43
f 548/38/43 550/24/43 551/40/43
f 552/7/44 553/1/44 554/3/44
f 552/7/44 554/3/44 555/8/44
f 556/41/45 557/4/45 558/6/45
f 556/41/45 558/6/45 559/36/45
f 560/5/47 561/10/47 562/12/47
f 560/5/47 562/12/47 563/6/47
f 564/39/48 565/38/48 566/37/48
s 1
f 564/39/48 566/37/48 567/12/48
s 0
f 568/19/49 569/7/49 570/9/49
f 568/19/49 570/9/49 571/20/49
f 572/42/50 573/22/50 574/24/50
f 572/42/50 574/24/50 575/39/50
f 576/29/51 577/28/51 578/40/51
f 576/29/51 578/40/51 579/24/51
f 580/13/52 581/19/52 582/28/52
f 580/13/52 582/28/52 583/31/52
f 584/32/53 585/35/53 586/30/53
f 584/32/53 586/30/53 587/29/53
f 588/17/54 589/25/54 590/31/54
f 588/17/54 590/31/54 591/30/54
f 592/1/55 593/13/55 594/43/55
f 592/1/55 594/43/55 595/2/55
f 596/16/56 597/44/56 598/26/56
f 596/16/56 598/26/56 599/17/56
f 600/7/57 601/19/57 602/13/57
f 600/7/57 602/13/57 603/1/57
f 604/25/39 605/17/39 606/26/39
f 604/25/39 606/26/39 607/27/39
f 608/28/40 609/29/40 610/30/40
f 608/28/40 610/30/40 611/31/40
f 612/32/41 613/33/41 614/34/41
f 612/32/41 614/34/41 615/35/41
f 616/36/42 617/6/42 618/12/42
f 616/36/42 618/12/42 619/37/42
f 620/38/43 621/39/43 622/24/43
f 620/38/43 622/24/43 623/40/43
f 624/7/44 625/1/44 626/3/44
f 624/7/44 626/3/44 627/8/44
f 628/41/45 629/4/45 630/6/45
f 628/41/45 630/6/45 631/36/45
f 632/5/47 633/10/47 634/12/47
f 632/5/47 634/12/47 635/6/47
f 636/39/48 637/38/48 638/37/48
f 636/39/48 638/37/48 639/12/48
f 640/19/49 641/7/49 642/9/49
f 640/19/49 642/9/49 643/20/49
f 644/42/50 645/22/50 646/24/50
f 644/42/50 646/24/50 647/39/50
s 1
f 648/29/51 649/28/51 650/40/51
s 0
f 648/29/51 650/40/51 651/24/51
f 652/13/52 653/19/52 654/28/52
f 652/13/52 654/28/52 655/31/52
f 656/32/53 657/35/53 658/30/53
f 656/32/53 658/30/53 659/29/53
f 660/17/54 661/25/54 662/31/54
f 660/17/54 662/31/54 663/30/54
f 664/1/55 665/13/55 666/43/55
f 664/1/55 666/43/55 667/2/55
f 668/16/56 669/44/56 670/26/56
f 668/16/56 670/26/56 671/17/56
f 672/7/57 673/19/57 674/13/57
f 672/7/57 674/13/57 675/1/57
f 676/25/39 677/17/39 678/26/39
f 676/25/39 678/26/39 679/27/39
f 680/28/40 681/29/40 682/30/40
f 680/28/40 682/30/40 683/31/40
f 684/32/41 685/33/41 686/34/41
f 684/32/41 686/34/41 687/35/41
f 688/38/43 689/39/43 690/24/43
f 688/38/43 690/24/43 691/40/43
f 692/7/44 693/1/44 694/3/44
f 692/7/44 694/3/44 695/8/44
f 696/41/45 697/4/45 698/6/45
s 1
f 696/41/45 698/6/45 699/36/45
s 0
f 700/5/47 701/10/47 702/12/47
f 700/5/47 702/12/47 703/6/47
f 704/39/48 705/38/48 706/37/48
f 704/39/48 706/37/48 707/12/48
f 708/19/49 709/7/49 710/9/49
f 708/19/49 710/9/49 711/20/49
f 712/42/50 713/22/50 714/24/50
f 712/42/50 714/24/50 715/39/50
f 716/29/51 717/28/51 718/40/51
f 716/29/51 718/40/51 719/24/51
s 1
f 720/13/52 721/19/52 722/28/52
s 0
f 720/13/52 722/28/52 723/31/52
f 724/32/53 725/35/53 726/30/53
s 1
f 724/32/53 726/30/53 727/29/53
s 0
f 728/17/54 729/25/54 730/31/54
f 728/17/54 730/31/54 731/30/54
f 732/1/55 733/13/55 734/43/55
f 732/1/55 734/43/55 735/2/55
f 736/16/56 737/44/56 738/26/56
f 736/16/56 738/26/56 739/17/56
f 740/7/57 741/19/57 742/13/57
f 740/7/57 742/13/57 743/1/57
f 744/25/39 745/17/39 746/26/39
f 744/25/39 746/26/39 747/27/39
f 748/28/40 749/29/40 750/30/40
f 748/28/40 750/30/40 751/31/40
f 752/32/41 753/33/41 754/34/41
f 752/32/41 754/34/41 755/35/41
f 756/36/42 757/6/42 758/12/42
f 756/36/42 758/12/42 759/37/42
f 760/38/43 761/39/43 762/24/43
f 760/38/43 762/24/43 763/40/43
f 764/7/44 765/1/44 766/3/44
f 764/7/44 766/3/44 767/8/44
f 768/41/45 769/4/45 770/6/45
f 768/41/45 770/6/45 771/36/45
f 772/5/47 773/10/47 774/12/47
f 772/5/47 774/12/47 775/6/47
f 776/39/48 777/38/48 778/37/48
s 1
f 776/39/48 778/37/48 779/12/48
f 780/19/49 781/7/49 782/9/49
s 0
f 780/19/49 782/9/49 783/20/49
f 784/42/50 785/22/50 786/24/50
f 784/42/50 786/24/50 787/39/50
f 788/29/51 789/28/51 790/40/51
f 788/29/51 790/40/51 791/24/51
f 792/13/52 793/19/52 794/28/52
f 792/13/52 794/28/52 795/31/52
f 796/32/53 797/35/53 798/30/53
f 796/32/53 798/30/53 799/29/53
f 800/17/54 801/25/54 802/31/54
f 800/17/54 802/31/54 803/30/54
f 804/1/55 805/13/55 806/43/55
f 804/1/55 806/43/55 807/2/55
f 808/16/56 809/44/56 810/26/56
f 808/16/56 810/26/56 811/17/56
f 812/7/57 813/19/57 814/13/57
f 812/7/57 814/13/57 815/1/57
f 816/28/40 817/29/40 818/30/40
f 816/28/40 818/30/40 819/31/40
f 820/25/39 821/17/39 822/26/39
f 820/25/39 822/26/39 823/27/39
f 824/28/40 825/29/40 826/30/40
f 824/28/40 826/30/40 827/31/40
f 828/32/41 829/33/41 830/34/41
f 828/32/41 830/34/41 831/35/41
f 832/36/42 833/6/42 834/12/42
f 832/36/42 834/12/42 835/37/42
f 836/38/43 837/39/43 838/24/43
f 836/38/43 838/24/43 839/40/43
f 840/7/44 841/1/44 842/3/44
f 840/7/44 842/3/44 843/8/44
f 844/41/45 845/4/45 846/6/45
f 844/41/45 846/6/45 847/36/45
f 848/5/47 849/10/47 850/12/47
f 848/5/47 850/12/47 851/6/47
f 852/39/48 853/38/48 854/37/48
f 852/39/48 854/37/48 855/12/48
f 856/19/49 857/7/49 858/9/49
f 856/19/49 858/9/49 859/20/49
f 860/42/50 861/22/50 862/24/50
f 860/42/50 862/24/50 863/39/50
f 864/29/51 865/28/51 866/40/51
s 1
f 864/29/51 866/40/51 867/24/51
s 0
f 868/13/52 869/19/52 870/28/52
f 868/13/52 870/28/52 871/31/52
f 872/32/53 873/35/53 874/30/53
f 872/32/53 874/30/53 875/29/53
f 876/17/54 877/25/54 878/31/54
f 876/17/54 878/31/54 879/30/54
f 880/1/55 881/13/55 882/43/55
f 880/1/55 882/43/55 883/2/55
f 884/16/56 885/44/56 886/26/56
f 884/16/56 886/26/56 887/17/56
f 888/7/57 889/19/57 890/13/57
f 888/7/57 890/13/57 891/1/57
f 892/25/39 893/17/39 894/26/39
f 892/25/39 894/26/39 895/27/39
f 896/28/40 897/29/40 898/30/40
f 896/28/40 898/30/40 899/31/40
f 900/32/41 901/33/41 902/34/41
f 900/32/41 902/34/41 903/35/41
f 904/36/42 905/6/42 906/12/42
f 904/36/42 906/12/42 907/37/42
f 908/38/43 909/39/43 910/24/43
f 908/38/43 910/24/43 911/40/43
f 912/7/44 913/1/44 914/3/44
f 912/7/44 914/3/44 915/8/44
f 916/41/45 917/4/45 918/6/45
f 916/41/45 918/6/45 919/36/45
f 920/5/47 921/10/47 922/12/47
f 920/5/47 922/12/47 923/6/47
f 924/39/48 925/38/48 926/37/48
f 924/39/48 926/37/48 927/12/48
f 928/19/49 929/7/49 930/9/49
f 928/19/49 930/9/49 931/20/49
f 932/42/50 933/22/50 934/24/50
f 932/42/50 934/24/50 935/39/50
f 936/29/51 937/28/51 938/40/51
s 1
f 936/29/51 938/40/51 939/24/51
s 0
f 940/13/52 941/19/52 942/28/52
f 940/13/52 942/28/52 943/31/52
f 944/32/53 945/35/53 946/30/53
f 944/32/53 946/30/53 947/29/53
f 948/17/54 949/25/54 950/31/54
f 948/17/54 950/31/54 951/30/54
f 952/1/55 953/13/55 954/43/55
s 1
f 952/1/55 954/43/55 955/2/55
s 0
f 956/16/56 957/44/56 958/26/56
f 956/16/56 958/26/56 959/17/56
f 960/7/57 961/19/57 962/13/57
f 960/7/57 962/13/57 963/1/57
f 964/25/39 965/17/39 966/26/39
f 964/25/39 966/26/39 967/27/39
f 968/28/40 969/29/40 970/30/40
f 968/28/40 970/30/40 971/31/40
f 972/32/41 973/33/41 974/34/41
f 972/32/41 974/34/41 975/35/41
f 976/36/42 977/6/42 978/12/42
f 976/36/42 978/12/42 979/37/42
f 980/38/43 981/39/43 982/24/43
f 980/38/43 982/24/43 983/40/43
f 984/7/44 985/1/44 986/3/44
f 984/7/44 986/3/44 987/8/44
f 988/41/45 989/4/45 990/6/45
f 988/41/45 990/6/45 991/36/45
f 992/5/47 993/10/47 994/12/47
f 992/5/47 994/12/47 995/6/47
f 996/39/48 997/38/48 998/37/48
f 996/39/48 998/37/48 999/12/48
f 1000/19/49 1001/7/49 1002/9/49
f 1000/19/49 1002/9/49 1003/20/49
f 1004/42/50 1005/22/50 1006/24/50
f 1004/42/50 1006/24/50 1007/39/50
f 1008/29/51 1009/28/51 1010/40/51
f 1008/29/51 1010/40/51 1011/24/51
f 1012/13/52 1013/19/52 1014/28/52
f 1012/13/52 1014/28/52 1015/31/52
f 1016/32/53 1017/35/53 1018/30/53
f 1016/32/53 1018/30/53 1019/29/53
f 1020/17/54 1021/25/54 1022/31/54
f 1020/17/54 1022/31/54 1023/30/54
f 1024/1/55 1025/13/55 1026/43/55
f 1024/1/55 1026/43/55 1027/2/55
f 1028/16/56 1029/44/56 1030/26/56
f 1028/16/56 1030/26/56 1031/17/56
f 1032/7/57 1033/19/57 1034/13/57
f 1032/7/57 1034/13/57 1035/1/57
f 1036/25/39 1037/17/39 1038/26/39
f 1036/25/39 1038/26/39 1039/27/39
f 1040/28/40 1041/29/40 1042/30/40
f 1040/28/40 1042/30/40 1043/31/40
f 1044/32/41 1045/33/41 1046/34/41
f 1044/32/41 1046/34/41 1047/35/41
f 1048/36/42 1049/6/42 1050/12/42
f 1048/36/42 1050/12/42 1051/37/42
f 1052/38/43 1053/39/43 1054/24/43
f 1052/38/43 1054/24/43 1055/40/43
f 1056/7/44 1057/1/44 1058/3/44
f 1056/7/44 1058/3/44 1059/8/44
f 1060/41/45 1061/4/45 1062/6/45
f 1060/41/45 1062/6/45 1063/36/45
f 1064/5/47 1065/10/47 1066/12/47
f 1064/5/47 1066/12/47 1067/6/47
f 1068/39/48 1069/38/48 1070/37/48
f 1068/39/48 1070/37/48 1071/12/48
f 1072/19/49 1073/7/49 1074/9/49
f 1072/19/49 1074/9/49 1075/20/49
f 1076/42/50 1077/22/50 1078/24/50
f 1076/42/50 1078/24/50 1079/39/50
f 1080/29/51 1081/28/51 1082/40/51
f 1080/29/51 1082/40/51 1083/24/51
f 1084/13/52 1085/19/52 1086/28/52
f 1084/13/52 1086/28/52 1087/31/52
f 1088/32/53 1089/35/53 1090/30/53
s 1
f 1088/32/53 1090/30/53 1091/29/53
s 0
f 1092/17/54 1093/25/54 1094/31/54
f 1092/17/54 1094/31/54 1095/30/54
f 1096/1/55 1097/13/55 1098/43/55
s 1
f 1096/1/55 1098/43/55 1099/2/55
s 0
f 1100/16/56 1101/44/56 1102/26/56
f 1100/16/56 1102/26/56 1103/17/56
f 1104/7/57 1105/19/57 1106/13/57
f 1104/7/57 1106/13/57 1107/1/57
f 1108/25/39 1109/17/39 1110/26/39
f 1108/25/39 1110/26/39 1111/27/39
f 1112/28/40 1113/29/40 1114/30/40
f 1112/28/40 1114/30/40 1115/31/40
f 1116/32/41 1117/33/41 1118/34/41
f 1116/32/41 1118/34/41 1119/35/41
f 1120/36/42 1121/6/42 1122/12/42
f 1120/36/42 1122/12/42 1123/37/42
f 1124/38/43 1125/39/43 1126/24/43
f 1124/38/43 1126/24/43 1127/40/43
f 1128/7/44 1129/1/44 1130/3/44
f 1128/7/44 1130/3/44 1131/8/44
f 1132/41/45 1133/4/45 1134/6/45
f 1132/41/45 1134/6/45 1135/36/45
f 1136/5/47 1137/10/47 1138/12/47
f 1136/5/47 1138/12/47 1139/6/47
f 1140/39/48 1141/38/48 1142/37/48
f 1140/39/48 1142/37/48 1143/12/48
f 1144/19/49 1145/7/49 1146/9/49
f 1144/19/49 1146/9/49 1147/20/49
f 1148/42/50 1149/22/50 1150/24/50
f 1148/42/50 1150/24/50 1151/39/50
f 1152/29/51 1153/28/51 1154/40/51
f 1152/29/51 1154/40/51 1155/24/51
f 1156/13/52 1157/19/52 1158/28/52
f 1156/13/52 1158/28/52 1159/31/52
f 1160/32/53 1161/35/53 1162/30/53
f 1160/32/53 1162/30/53 1163/29/53
f 1164/17/54 1165/25/54 1166/31/54
f 1164/17/54 1166/31/54 1167/30/54
f 1168/1/55 1169/13/55 1170/43/55
f 1168/1/55 1170/43/55 1171/2/55
s 1
f 1172/16/56 1173/44/56 1174/26/56
s 0
f 1172/16/56 1174/26/56 1175/17/56
f 1176/7/57 1177/19/57 1178/13/57
f 1176/7/57 1178/13/57 1179/1/57
f 1180/25/40 1181/17/40 1182/26/40
f 1180/25/40 1182/26/40 1183/27/40
f 1184/28/43 1185/29/43 1186/30/43
f 1184/28/43 1186/30/43 1187/31/43
f 1188/32/41 1189/33/41 1190/34/41
f 1188/32/41 1190/34/41 1191/35/41
f 1192/36/39 1193/6/39 1194/12/39
f 1192/36/39 1194/12/39 1195/37/39
f 1196/38/42 1197/39/42 1198/24/42
f 1196/38/42 1198/24/42 1199/40/42
f 1200/7/58 1201/1/58 1202/3/58
f 1200/7/58 1202/3/58 1203/8/58
f 1204/41/59 1205/4/59 1206/6/59
f 1204/41/59 1206/6/59 1207/36/59
f 1208/5/60 1209/10/60 1210/12/60
f 1208/5/60 1210/12/60 1211/6/60
f 1212/39/61 1213/38/61 1214/37/61
f 1212/39/61 1214/37/61 1215/12/61
f 1216/19/62 1217/7/62 1218/9/62
f 1216/19/62 1218/9/62 1219/20/62
f 1220/42/63 1221/22/63 1222/24/63
s 1
f 1220/42/63 1222/24/63 1223/39/63
s 0
f 1224/29/64 1225/28/64 1226/40/64
f 1224/29/64 1226/40/64 1227/24/64
f 1228/13/65 1229/19/65 1230/28/65
f 1228/13/65 1230/28/65 1231/31/65
f 1232/32/66 1233/35/66 1234/30/66
f 1232/32/66 1234/30/66 1235/29/66
f 1236/17/67 1237/25/67 1238/31/67
f 1236/17/67 1238/31/67 1239/30/67
f 1240/1/68 1241/13/68 1242/43/68
f 1240/1/68 1242/43/68 1243/2/68
f 1244/16/69 1245/44/69 1246/26/69
f 1244/16/69 1246/26/69 1247/17/69
f 1248/7/57 1249/19/57 1250/13/57
f 1248/7/57 1250/13/57 1251/1/57
f 1252/25/40 1253/17/40 1254/26/40
f 1252/25/40 1254/26/40 1255/27/40
f 1256/28/43 1257/29/43 1258/30/43
f 1256/28/43 1258/30/43 1259/31/43
f 1260/32/41 1261/33/41 1262/34/41
f 1260/32/41 1262/34/41 1263/35/41
f 1264/36/39 1265/6/39 1266/12/39
f 1264/36/39 1266/12/39 1267/37/39
f 1268/38/42 1269/39/42 1270/24/42
f 1268/38/42 1270/24/42 1271/40/42
f 1272/7/58 1273/1/58 1274/3/58
f 1272/7/58 1274/3/58 1275/8/58
f 1276/41/70 1277/4/70 1278/6/70
f 1276/41/59 1278/6/59 1279/36/59
f 1280/5/60 1281/10/60 1282/12/60
f 1280/5/60 1282/12/60 1283/6/60
f 1284/39/61 1285/38/61 1286/37/61
f 1284/39/61 1286/37/61 1287/12/61
f 1288/19/62 1289/7/62 1290/9/62
f 1288/19/62 1290/9/62 1291/20/62
f 1292/42/63 1293/22/63 1294/24/63
f 1292/42/63 1294/24/63 1295/39/63
f 1296/29/64 1297/28/64 1298/40/64
f 1296/29/64 1298/40/64 1299/24/64
f 1300/13/65 1301/19/65 1302/28/65
f 1300/13/65 1302/28/65 1303/31/65
f 1304/32/66 1305/35/66 1306/30/66
f 1304/32/66 1306/30/66 1307/29/66
f 1308/17/67 1309/25/67 1310/31/67
f 1308/17/67 1310/31/67 1311/30/67
f 1312/1/68 1313/13/68 1314/43/68
f 1312/1/68 1314/43/68 1315/2/68
f 1316/16/69 1317/44/69 1318/26/69
f 1316/16/69 1318/26/69 1319/17/69
f 1320/7/57 1321/19/57 1322/13/57
f 1320/7/57 1322/13/57 1323/1/57
f 1324/25/40 1325/17/40 1326/26/40
f 1324/25/40 1326/26/40 1327/27/40
f 1328/28/43 1329/29/43 1330/30/43
f 1328/28/43 1330/30/43 1331/31/43
f 1332/32/41 1333/33/41 1334/34/41
f 1332/32/41 1334/34/41 1335/35/41
f 1336/36/39 1337/6/39 1338/12/39
f 1336/36/39 1338/12/39 1339/37/39
f 1340/38/42 1341/39/42 1342/24/42
f 1340/38/42 1342/24/42 1343/40/42
f 1344/7/58 1345/1/58 1346/3/58
f 1344/7/58 1346/3/58 1347/8/58
f 1348/41/59 1349/4/59 1350/6/59
f 1348/41/59 1350/6/59 1351/36/59
f 1352/5/60 1353/10/60 1354/12/60
f 1352/5/60 1354/12/60 1355/6/60
f 1356/39/61 1357/38/61 1358/37/61
f 1356/39/61 1358/37/61 1359/12/61
f 1360/19/62 1361/7/62 1362/9/62
f 1360/19/62 1362/9/62 1363/20/62
f 1364/42/63 1365/22/63 1366/24/63
f 1364/42/63 1366/24/63 1367/39/63
f 1368/29/64 1369/28/64 1370/40/64
f 1368/29/64 1370/40/64 1371/24/64
f 1372/13/65 1373/19/65 1374/28/65
f 1372/13/65 1374/28/65 1375/31/65
f 1376/32/66 1377/35/66 1378/30/66
f 1376/32/66 1378/30/66 1379/29/66
f 1380/17/67 1381/25/67 1382/31/67
f 1380/17/67 1382/31/67 1383/30/67
f 1384/1/68 1385/13/68 1386/43/68
f 1384/1/68 1386/43/68 1387/2/68
f 1388/16/69 1389/44/69 1390/26/69
f 1388/16/69 1390/26/69 1391/17/69
f 1392/7/57 1393/19/57 1394/13/57
f 1392/7/57 1394/13/57 1395/1/57
f 1396/25/40 1397/17/40 1398/26/40
f 1396/25/40 1398/26/40 1399/27/40
f 1400/28/43 1401/29/43 1402/30/43
f 1400/28/43 1402/30/43 1403/31/43
f 1404/32/41 1405/33/41 1406/34/41
f 1404/32/41 1406/34/41 1407/35/41
f 1408/36/39 1409/6/39 1410/12/39
f 1408/36/39 1410/12/39 1411/37/39
f 1412/38/42 1413/39/42 1414/24/42
f 1412/38/42 1414/24/42 1415/40/42
f 1416/7/58 1417/1/58 1418/3/58
f 1416/7/58 1418/3/58 1419/8/58
f 1420/41/59 1421/4/59 1422/6/59
f 1420/41/59 1422/6/59 1423/36/59
f 1424/5/60 1425/10/60 1426/12/60
f 1424/5/60 1426/12/60 1427/6/60
f 1428/39/61 1429/38/61 1430/37/61
f 1428/39/61 1430/37/61 1431/12/61
f 1432/19/62 1433/7/62 1434/9/62
f 1432/19/62 1434/9/62 1435/20/62
f 1436/42/63 1437/22/63 1438/24/63
f 1436/42/63 1438/24/63 1439/39/63
s 1
f 1440/29/64 1441/28/64 1442/40/64
s 0
f 1440/29/64 1442/40/64 1443/24/64
f 1444/13/65 1445/19/65 1446/28/65
f 1444/13/65 1446/28/65 1447/31/65
f 1448/32/66 1449/35/66 1450/30/66
f 1448/32/66 1450/30/66 1451/29/66
f 1452/17/67 1453/25/67 1454/31/67
f 1452/17/67 1454/31/67 1455/30/67
f 1456/1/68 1457/13/68 1458/43/68
f 1456/1/68 1458/43/68 1459/2/68
f 1460/16/69 1461/44/69 1462/26/69
f 1460/16/69 1462/26/69 1463/17/69
f 1464/7/57 1465/19/57 1466/13/57
f 1464/7/57 1466/13/57 1467/1/57
f 1468/25/40 1469/17/40 1470/26/40
f 1468/25/40 1470/26/40 1471/27/40
f 1472/28/43 1473/29/43 1474/30/43
f 1472/28/43 1474/30/43 1475/31/43
f 1476/32/41 1477/33/41 1478/34/41
f 1476/32/41 1478/34/41 1479/35/41
f 1480/36/39 1481/6/39 1482/12/39
f 1480/36/39 1482/12/39 1483/37/39
f 1484/38/42 1485/39/42 1486/24/42
f 1484/38/42 1486/24/42 1487/40/42
f 1488/7/58 1489/1/58 1490/3/58
f 1488/7/58 1490/3/58 1491/8/58
f 1492/41/59 1493/4/59 1494/6/59
f 1492/41/59 1494/6/59 1495/36/59
f 1496/5/60 1497/10/60 1498/12/60
f 1496/5/60 1498/12/60 1499/6/60
f 1500/39/61 1501/38/61 1502/37/61
f 1500/39/61 1502/37/61 1503/12/61
f 1504/19/62 1505/7/62 1506/9/62
f 1504/19/62 1506/9/62 1507/20/62
f 1508/42/63 1509/22/63 1510/24/63
f 1508/42/63 1510/24/63 1511/39/63
f 1512/29/64 1513/28/64 1514/40/64
f 1512/29/64 1514/40/64 1515/24/64
f 1516/13/65 1517/19/65 1518/28/65
f 1516/13/65 1518/28/65 1519/31/65
f 1520/32/66 1521/35/66 1522/30/66
f 1520/32/66 1522/30/66 1523/29/66
f 1524/17/67 1525/25/67 1526/31/67
f 1524/17/67 1526/31/67 1527/30/67
s 1
f 1528/1/68 1529/13/68 1530/43/68
s 0
f 1528/1/68 1530/43/68 1531/2/68
f 1532/16/69 1533/44/69 1534/26/69
f 1532/16/69 1534/26/69 1535/17/69
f 1536/7/57 1537/19/57 1538/13/57
f 1536/7/57 1538/13/57 1539/1/57
f 1540/25/40 1541/17/40 1542/26/40
f 1540/25/40 1542/26/40 1543/27/40
f 1544/28/43 1545/29/43 1546/30/43
f 1544/28/43 1546/30/43 1547/31/43
f 1548/32/41 1549/33/41 1550/34/41
f 1548/32/41 1550/34/41 1551/35/41
f 1552/36/39 1553/6/39 1554/12/39
f 1552/36/39 1554/12/39 1555/37/39
f 1556/38/42 1557/39/42 1558/24/42
f 1556/38/42 1558/24/42 1559/40/42
f 1560/7/58 1561/1/58 1562/3/58
f 1560/7/58 1562/3/58 1563/8/58
f 1564/41/59 1565/4/59 1566/6/59
f 1564/41/59 1566/6/59 1567/36/59
f 1568/5/60 1569/10/60 1570/12/60
f 1568/5/60 1570/12/60 1571/6/60
f 1572/39/61 1573/38/61 1574/37/61
f 1572/39/61 1574/37/61 1575/12/61
f 1576/19/62 1577/7/62 1578/9/62
f 1576/19/62 1578/9/62 1579/20/62
f 1580/42/63 1581/22/63 1582/24/63
f 1580/42/63 1582/24/63 1583/39/63
f 1584/29/64 1585/28/64 1586/40/64
f 1584/29/64 1586/40/64 1587/24/64
f 1588/13/65 1589/19/65 1590/28/65
f 1588/13/65 1590/28/65 1591/31/65
f 1592/32/66 1593/35/66 1594/30/66
f 1592/32/66 1594/30/66 1595/29/66
f 1596/17/67 1597/25/67 1598/31/67
f 1596/17/67 1598/31/67 1599/30/67
f 1600/1/68 1601/13/68 1602/43/68
f 1600/1/68 1602/43/68 1603/2/68
f 1604/16/69 1605/44/69 1606/26/69
f 1604/16/69 1606/26/69 1607/17/69
f 1608/7/57 1609/19/57 1610/13/57
f 1608/7/57 1610/13/57 1611/1/57
f 1612/25/39 1613/17/39 1614/26/39
f 1612/25/39 1614/26/39 1615/27/39
f 1616/28/40 1617/29/40 1618/30/40
f 1616/28/40 1618/30/40 1619/31/40
f 1620/32/41 1621/33/41 1622/34/41
f 1620/32/41 1622/34/41 1623/35/41
f 1624/36/42 1625/6/42 1626/12/42
f 1624/36/42 1626/12/42 1627/37/42
f 1628/38/43 1629/39/43 1630/24/43
f 1628/38/43 1630/24/43 1631/40/43
f 1632/7/71 1633/1/71 1634/3/71
f 1632/7/71 1634/3/71 1635/8/71
f 1636/41/72 1637/4/72 1638/6/72
f 1636/41/72 1638/6/72 1639/36/72
f 1640/5/73 1641/10/73 1642/12/73
f 1640/5/73 1642/12/73 1643/6/73
f 1644/39/74 1645/38/74 1646/37/74
f 1644/39/74 1646/37/74 1647/12/74
f 1648/19/75 1649/7/75 1650/9/75
f 1648/19/75 1650/9/75 1651/20/75
f 1652/42/76 1653/22/76 1654/24/76
f 1652/42/76 1654/24/76 1655/39/76
f 1656/29/77 1657/28/77 1658/40/77
f 1656/29/77 1658/40/77 1659/24/77
f 1660/13/78 1661/19/78 1662/28/78
f 1660/13/78 1662/28/78 1663/31/78
f 1664/32/79 1665/35/79 1666/30/79
f 1664/32/79 1666/30/79 1667/29/79
f 1668/17/80 1669/25/80 1670/31/80
f 1668/17/80 1670/31/80 1671/30/80
f 1672/1/81 1673/13/81 1674/43/81
f 1672/1/81 1674/43/81 1675/2/81
f 1676/16/82 1677/44/82 1678/26/82
f 1676/16/82 1678/26/82 1679/17/82
f 1680/7/57 1681/19/57 1682/13/57
f 1680/7/57 1682/13/57 1683/1/57
f 1684/25/39 1685/17/39 1686/26/39
f 1684/25/39 1686/26/39 1687/27/39
f 1688/28/40 1689/29/40 1690/30/40
f 1688/28/40 1690/30/40 1691/31/40
f 1692/32/41 1693/33/41 1694/34/41
f 1692/32/41 1694/34/41 1695/35/41
f 1696/36/42 1697/6/42 1698/12/42
f 1696/36/42 1698/12/42 1699/37/42
f 1700/38/43 1701/39/43 1702/24/43
f 1700/38/43 1702/24/43 1703/40/43
f 1704/7/71 1705/1/71 1706/3/71
f 1704/7/71 1706/3/71 1707/8/71
f 1708/41/72 1709/4/72 1710/6/72
f 1708/41/72 1710/6/72 1711/36/72
f 1712/5/73 1713/10/73 1714/12/73
f 1712/5/73 1714/12/73 1715/6/73
f 1716/39/74 1717/38/74 1718/37/74
f 1716/39/74 1718/37/74 1719/12/74
f 1720/19/75 1721/7/75 1722/9/75
f 1720/19/75 1722/9/75 1723/20/75
f 1724/42/76 1725/22/76 1726/24/76
f 1724/42/76 1726/24/76 1727/39/76
f 1728/29/77 1729/28/77 1730/40/77
f 1728/29/77 1730/40/77 1731/24/77
f 1732/13/78 1733/19/78 1734/28/78
f 1732/13/78 1734/28/78 1735/31/78
f 1736/32/79 1737/35/79 1738/30/79
f 1736/32/79 1738/30/79 1739/29/79
f 1740/17/80 1741/25/80 1742/31/80
f 1740/17/80 1742/31/80 1743/30/80
f 1744/1/81 1745/13/81 1746/43/81
f 1744/1/81 1746/43/81 1747/2/81
f 1748/16/82 1749/44/82 1750/26/82
f 1748/16/82 1750/26/82 1751/17/82
f 1752/7/57 1753/19/57 1754/13/57
f 1752/7/57 1754/13/57 1755/1/57
f 1756/25/39 1757/17/39 1758/26/39
f 1756/25/39 1758/26/39 1759/27/39
f 1760/28/40 1761/29/40 1762/30/40
f 1760/28/40 1762/30/40 1763/31/40
f 1764/32/41 1765/33/41 1766/34/41
f 1764/32/41 1766/34/41 1767/35/41
f 1768/36/42 1769/6/42 1770/12/42
f 1768/36/42 1770/12/42 1771/37/42
f 1772/38/43 1773/39/43 1774/24/43
f 1772/38/43 1774/24/43 1775/40/43
f 1776/7/71 1777/1/71 1778/3/71
f 1776/7/71 1778/3/71 1779/8/71
f 1780/41/83 1781/4/83 1782/6/83
f 1780/41/83 1782/6/83 1783/36/83
f 1784/5/73 1785/10/73 1786/12/73
f 1784/5/73 1786/12/73 1787/6/73
f 1788/39/84 1789/38/84 1790/37/84
f 1788/39/84 1790/37/84 1791/12/84
f 1792/19/85 1793/7/85 1794/9/85
f 1792/19/85 1794/9/85 1795/20/85
f 1796/42/86 1797/22/86 1798/24/86
f 1796/42/86 1798/24/86 1799/39/86
f 1800/29/87 1801/28/87 1802/40/87
f 1800/29/87 1802/40/87 1803/24/87
f 1804/13/78 1805/19/78 1806/28/78
f 1804/13/78 1806/28/78 1807/31/78
f 1808/32/79 1809/35/79 1810/30/79
f 1808/32/79 1810/30/79 1811/29/79
f 1812/17/88 1813/25/88 1814/31/88
f 1812/17/88 1814/31/88 1815/30/88
f 1816/1/89 1817/13/89 1818/43/89
f 1816/1/89 1818/43/89 1819/2/89
f 1820/16/90 1821/44/90 1822/26/90
f 1820/16/90 1822/26/90 1823/17/90
f 1824/7/57 1825/19/57 1826/13/57
f 1824/7/57 1826/13/57 1827/1/57
