# Blender 5.2.0 LTS
# www.blender.org
mtllib Cube_044.mtl
o Cube.044_Material.006_0
v 0.468802 -0.040317 -0.689151
v 0.468802 -0.036973 -0.678051
v 0.454511 -0.036973 -0.689151
v 0.468802 0.037096 -0.678051
v 0.468802 0.040439 -0.689151
v 0.454511 0.037096 -0.689151
v 0.468802 -0.040317 -0.935051
v 0.454511 -0.036973 -0.935051
v 0.468802 -0.036973 -0.946151
v 0.468802 0.040439 -0.935051
v 0.468802 0.037096 -0.946151
v 0.454511 0.037096 -0.935051
v 0.785387 -0.040317 -0.689151
v 0.799678 -0.036973 -0.689151
v 0.785387 -0.036973 -0.678051
v 0.785387 0.040439 -0.689151
v 0.785387 0.037096 -0.678051
v 0.799678 0.037096 -0.689151
v 0.785387 -0.040317 -0.935051
v 0.785387 -0.036973 -0.946151
v 0.799678 -0.036973 -0.935051
v 0.785387 0.040439 -0.935051
v 0.799678 0.037096 -0.935051
v 0.785387 0.037096 -0.946151
v 0.809819 -0.040317 0.215094
v 0.809819 -0.036973 0.226194
v 0.795528 -0.036973 0.215094
v 0.809819 0.037095 0.226194
v 0.809819 0.040439 0.215094
v 0.795528 0.037095 0.215094
v 0.809819 -0.040317 -0.030806
v 0.795528 -0.036973 -0.030806
v 0.809819 -0.036973 -0.041906
v 0.809819 0.040439 -0.030806
v 0.809819 0.037096 -0.041906
v 0.795528 0.037096 -0.030806
v 1.126404 -0.040317 0.215094
v 1.140695 -0.036973 0.215094
v 1.126404 -0.036973 0.226194
v 1.126404 0.040439 0.215094
v 1.126404 0.037096 0.226194
v 1.140695 0.037095 0.215094
v 1.126404 -0.040317 -0.030806
v 1.126404 -0.036973 -0.041906
v 1.140695 -0.036973 -0.030806
v 1.126404 0.040439 -0.030806
v 1.140695 0.037096 -0.030806
v 1.126404 0.037096 -0.041906
v 0.468802 -0.040317 0.215094
v 0.468802 -0.036973 0.226194
v 0.454511 -0.036973 0.215094
v 0.468802 0.037095 0.226194
v 0.468802 0.040439 0.215094
v 0.454511 0.037095 0.215094
v 0.468802 -0.040317 -0.030806
v 0.454511 -0.036973 -0.030806
v 0.468802 -0.036973 -0.041906
v 0.468802 0.040439 -0.030806
v 0.468802 0.037096 -0.041906
v 0.454511 0.037096 -0.030806
v 0.785387 -0.040317 0.215094
v 0.799678 -0.036973 0.215094
v 0.785387 -0.036973 0.226194
v 0.785387 0.040439 0.215094
v 0.785387 0.037095 0.226194
v 0.799678 0.037095 0.215094
v 0.785387 -0.040317 -0.030806
v 0.785387 -0.036973 -0.041906
v 0.799678 -0.036973 -0.030806
v 0.785387 0.040439 -0.030806
v 0.799678 0.037096 -0.030806
v 0.785387 0.037096 -0.041906
v -0.213740 -0.040317 0.215094
v -0.213740 -0.036973 0.226194
v -0.228031 -0.036973 0.215094
v -0.213740 0.037095 0.226194
v -0.213740 0.040439 0.215094
v -0.228031 0.037095 0.215094
v -0.213740 -0.040317 -0.030806
v -0.228031 -0.036973 -0.030806
v -0.213740 -0.036973 -0.041906
v -0.213740 0.040439 -0.030806
v -0.213740 0.037095 -0.041906
v -0.228031 0.037095 -0.030806
v 0.102845 -0.040317 0.215094
v 0.117136 -0.036973 0.215094
v 0.102845 -0.036973 0.226194
v 0.102845 0.040439 0.215094
v 0.102845 0.037095 0.226194
v 0.117136 0.037095 0.215094
v 0.102845 -0.040317 -0.030806
v 0.102845 -0.036973 -0.041906
v 0.117136 -0.036973 -0.030806
v 0.102845 0.040439 -0.030806
v 0.117136 0.037096 -0.030806
v 0.102845 0.037096 -0.041906
v 0.127276 -0.040317 0.215094
v 0.127276 -0.036973 0.226194
v 0.112985 -0.036973 0.215094
v 0.127276 0.037095 0.226194
v 0.127276 0.040439 0.215094
v 0.112985 0.037095 0.215094
v 0.127276 -0.040317 -0.030806
v 0.112985 -0.036973 -0.030806
v 0.127276 -0.036973 -0.041906
v 0.127276 0.040439 -0.030806
v 0.127276 0.037096 -0.041906
v 0.112985 0.037096 -0.030806
v 0.443861 -0.040317 0.215094
v 0.458152 -0.036973 0.215094
v 0.443861 -0.036973 0.226194
v 0.443861 0.040439 0.215094
v 0.443861 0.037095 0.226194
v 0.458152 0.037095 0.215094
v 0.443861 -0.040317 -0.030806
v 0.443861 -0.036973 -0.041906
v 0.458152 -0.036973 -0.030806
v 0.443861 0.040439 -0.030806
v 0.458152 0.037096 -0.030806
v 0.443861 0.037096 -0.041906
v -0.238783 -0.040317 0.215094
v -0.224492 -0.036973 0.215094
v -0.238783 -0.036973 0.226194
v 0.809819 -0.040317 -0.689151
v 0.809819 -0.036973 -0.678051
v 0.795528 -0.036973 -0.689151
v 0.809819 0.037096 -0.678051
v 0.809819 0.040439 -0.689151
v 0.795528 0.037096 -0.689151
v 0.809819 -0.040317 -0.935051
v 0.795528 -0.036973 -0.935051
v 0.809819 -0.036973 -0.946151
v 0.809819 0.040439 -0.935051
v 0.809819 0.037096 -0.946151
v 0.795528 0.037096 -0.935051
v 1.126403 -0.040317 -0.689151
v 1.140694 -0.036973 -0.689151
v 1.126403 -0.036973 -0.678051
v 1.126403 0.040439 -0.689151
v 1.126403 0.037096 -0.678051
v 1.140694 0.037096 -0.689151
v 1.126403 -0.040317 -0.935051
v 1.126403 -0.036973 -0.946151
v 1.140694 -0.036973 -0.935051
v 1.126403 0.040439 -0.935051
v 1.140694 0.037096 -0.935051
v 1.126403 0.037096 -0.946151
v -0.213740 -0.040317 -0.689151
v -0.213740 -0.036973 -0.678051
v -0.228031 -0.036973 -0.689151
v -0.213740 0.037096 -0.678051
v -0.213740 0.040439 -0.689151
v -0.228031 0.037096 -0.689151
v -0.213740 -0.040317 -0.935051
v -0.228031 -0.036973 -0.935051
v -0.213740 -0.036973 -0.946151
v -0.213740 0.040439 -0.935051
v -0.213740 0.037096 -0.946151
v -0.228031 0.037096 -0.935051
v 0.102845 -0.040317 -0.689151
v 0.117136 -0.036973 -0.689151
v 0.102845 -0.036973 -0.678051
v 0.102845 0.040439 -0.689151
v 0.102845 0.037096 -0.678051
v 0.117136 0.037096 -0.689151
v 0.102845 -0.040317 -0.935051
v 0.102845 -0.036973 -0.946151
v 0.117136 -0.036973 -0.935051
v 0.102845 0.040439 -0.935051
v 0.117136 0.037096 -0.935051
v 0.102845 0.037096 -0.946151
v 0.127276 -0.040317 -0.689151
v 0.127276 -0.036973 -0.678051
v 0.112985 -0.036973 -0.689151
v 0.127276 0.037096 -0.678051
v 0.127276 0.040439 -0.689151
v 0.112985 0.037096 -0.689151
v 0.127276 -0.040317 -0.935051
v 0.112985 -0.036973 -0.935051
v 0.127276 -0.036973 -0.946151
v 0.127276 0.040439 -0.935051
v 0.127276 0.037096 -0.946151
v 0.112985 0.037096 -0.935051
v 0.443861 -0.040317 -0.689151
v 0.458152 -0.036973 -0.689151
v 0.443861 -0.036973 -0.678051
v 0.443861 0.040439 -0.689151
v 0.443861 0.037096 -0.678051
v 0.458152 0.037096 -0.689151
v 0.443861 -0.040317 -0.935051
v 0.443861 -0.036973 -0.946151
v 0.458152 -0.036973 -0.935051
v 0.443861 0.040439 -0.935051
v 0.458152 0.037096 -0.935051
v 0.443861 0.037096 -0.946151
v -0.896384 -0.040317 -0.689151
v -0.896384 -0.036973 -0.678051
v -0.910675 -0.036973 -0.689151
v -0.896384 0.037096 -0.678051
v -0.896384 0.040439 -0.689151
v -0.910675 0.037096 -0.689151
v -0.896384 -0.040317 -0.935051
v -0.910675 -0.036973 -0.935051
v -0.896384 -0.036973 -0.946151
v -0.896384 0.040439 -0.935051
v -0.896384 0.037096 -0.946151
v -0.910675 0.037096 -0.935051
v -0.579799 -0.040317 -0.689151
v -0.565508 -0.036973 -0.689151
v -0.579799 -0.036973 -0.678051
v -0.579799 0.040439 -0.689151
v -0.579799 0.037096 -0.678051
v -0.565508 0.037096 -0.689151
v -0.579799 -0.040317 -0.935051
v -0.579799 -0.036973 -0.946151
v -0.565508 -0.036973 -0.935051
v -0.579799 0.040439 -0.935051
v -0.565508 0.037096 -0.935051
v -0.579799 0.037096 -0.946151
v -0.555367 -0.040317 -0.689151
v -0.555368 -0.036973 -0.678051
v -0.569659 -0.036973 -0.689151
v -0.555367 0.037096 -0.678051
v -0.555367 0.040439 -0.689151
v -0.569659 0.037096 -0.689151
v -0.555367 -0.040317 -0.935051
v -0.569659 -0.036973 -0.935051
v -0.555368 -0.036973 -0.946151
v -0.555367 0.040439 -0.935051
v -0.555367 0.037096 -0.946151
v -0.569659 0.037096 -0.935051
v -0.238783 -0.040317 -0.689151
v -0.224492 -0.036973 -0.689151
v -0.238783 -0.036973 -0.678051
v -0.238783 0.040439 -0.689151
v -0.238783 0.037096 -0.678051
v -0.224492 0.037096 -0.689151
v -0.238783 -0.040317 -0.935051
v -0.238783 -0.036973 -0.946151
v -0.224492 -0.036973 -0.935051
v -0.238783 0.040439 -0.935051
v -0.224492 0.037096 -0.935051
v -0.238783 0.037096 -0.946151
v -0.883689 -0.040317 -0.433326
v -0.872589 -0.036973 -0.433326
v -0.883689 -0.036973 -0.419035
v -0.872589 0.037096 -0.433326
v -0.883689 0.040439 -0.433326
v -0.883689 0.037096 -0.419035
v -1.129590 -0.040317 -0.433326
v -1.129590 -0.036973 -0.419035
v -1.140690 -0.036973 -0.433326
v -1.129590 0.040439 -0.433326
v -1.140690 0.037096 -0.433326
v -1.129590 0.037096 -0.419035
v -0.883689 -0.040317 -0.749911
v -0.883689 -0.036973 -0.764202
v -0.872589 -0.036973 -0.749911
v -0.883689 0.040439 -0.749911
v -0.872589 0.037096 -0.749911
v -0.883689 0.037096 -0.764202
v -1.129590 -0.040317 -0.749911
v -1.140690 -0.036973 -0.749911
v -1.129590 -0.036973 -0.764202
v -1.129590 0.040439 -0.749911
v -1.129590 0.037096 -0.764202
v -1.140690 0.037096 -0.749911
v -0.883689 -0.040317 -0.774342
v -0.872589 -0.036973 -0.774342
v -0.883690 -0.036973 -0.760051
v -0.872589 0.037096 -0.774342
v -0.883690 0.040439 -0.774342
v -0.883690 0.037096 -0.760051
v -1.129590 -0.040317 -0.774342
v -1.129590 -0.036973 -0.760051
v -1.140690 -0.036973 -0.774342
v -1.129590 0.040439 -0.774342
v -1.140690 0.037096 -0.774342
v -1.129590 0.037096 -0.760051
v -0.883689 -0.040317 -0.931716
v -0.883690 -0.036973 -0.946007
v -0.872589 -0.036973 -0.931716
v -0.883690 0.040439 -0.931716
v -0.872589 0.037096 -0.931716
v -0.883690 0.037096 -0.946007
v -1.129590 -0.040317 -0.931716
v -1.140690 -0.036973 -0.931716
v -1.129590 -0.036973 -0.946007
v -1.129590 0.040439 -0.931716
v -1.129590 0.037096 -0.946007
v -1.140690 0.037096 -0.931716
v -0.883689 -0.040317 0.249216
v -0.872589 -0.036973 0.249216
v -0.883689 -0.036973 0.263507
v -0.872589 0.037095 0.249216
v -0.883689 0.040439 0.249216
v -0.883689 0.037095 0.263507
v -1.129590 -0.040317 0.249216
v -1.129590 -0.036973 0.263507
v -1.140690 -0.036973 0.249216
v -1.129590 0.040439 0.249216
v -1.140690 0.037095 0.249216
v -1.129590 0.037095 0.263507
v -0.883689 -0.040317 -0.067369
v -0.883689 -0.036973 -0.081659
v -0.872589 -0.036973 -0.067369
v -0.883689 0.040439 -0.067369
v -0.872589 0.037095 -0.067369
v -0.883689 0.037095 -0.081659
v -1.129590 -0.040317 -0.067369
v -1.140690 -0.036973 -0.067369
v -1.129590 -0.036973 -0.081659
v -1.129590 0.040439 -0.067369
v -1.129590 0.037095 -0.081659
v -1.140690 0.037095 -0.067369
v -0.883689 -0.040317 -0.091800
v -0.872589 -0.036973 -0.091800
v -0.883689 -0.036973 -0.077509
v -0.872589 0.037096 -0.091800
v -0.883689 0.040439 -0.091800
v -0.883689 0.037095 -0.077509
v -1.129590 -0.040317 -0.091800
v -1.129590 -0.036973 -0.077509
v -1.140690 -0.036973 -0.091800
v -1.129590 0.040439 -0.091800
v -1.140690 0.037096 -0.091800
v -1.129590 0.037095 -0.077509
v -0.883689 -0.040317 -0.408385
v -0.883689 -0.036973 -0.422676
v -0.872589 -0.036973 -0.408385
v -0.883689 0.040439 -0.408385
v -0.872589 0.037096 -0.408385
v -0.883689 0.037096 -0.422676
v -1.129590 -0.040317 -0.408385
v -1.140690 -0.036973 -0.408385
v -1.129590 -0.036973 -0.422676
v -1.129590 0.040439 -0.408385
v -1.129590 0.037096 -0.422676
v -1.140690 0.037096 -0.408385
v -0.883689 -0.040317 0.931860
v -0.872589 -0.036974 0.931860
v -0.883689 -0.036974 0.946151
v -0.872589 0.037095 0.931860
v -0.883689 0.040439 0.931860
v -0.883689 0.037095 0.946151
v -1.129590 -0.040317 0.931860
v -1.129590 -0.036974 0.946151
v -1.140690 -0.036974 0.931860
v -1.129590 0.040439 0.931860
v -1.140690 0.037095 0.931860
v -1.129590 0.037095 0.946151
v -0.883689 -0.040317 0.615276
v -0.883689 -0.036973 0.600985
v -0.872589 -0.036973 0.615276
v -0.883689 0.040439 0.615276
v -0.872589 0.037095 0.615276
v -0.883689 0.037095 0.600985
v -1.129590 -0.040317 0.615276
v -1.140690 -0.036974 0.615276
v -1.129590 -0.036973 0.600985
v -1.129590 0.040439 0.615276
v -1.129590 0.037095 0.600985
v -1.140690 0.037095 0.615276
v -0.883689 -0.040317 0.590844
v -0.872589 -0.036974 0.590844
v -0.883689 -0.036974 0.605135
v -0.872589 0.037095 0.590844
v -0.883689 0.040439 0.590844
v -0.883689 0.037095 0.605135
v -1.129590 -0.040317 0.590844
v -1.129590 -0.036974 0.605135
v -1.140690 -0.036974 0.590844
v -1.129590 0.040439 0.590844
v -1.140690 0.037095 0.590844
v -1.129590 0.037095 0.605135
v -0.883689 -0.040317 0.274259
v -0.883689 -0.036973 0.259968
v -0.872589 -0.036973 0.274259
v -0.883689 0.040439 0.274259
v -0.872589 0.037095 0.274259
v -0.883689 0.037095 0.259968
v -1.129590 -0.040317 0.274259
v -1.140690 -0.036973 0.274259
v -1.129590 -0.036973 0.259968
v -1.129590 0.040439 0.274259
v -1.129590 0.037095 0.259968
v -1.140690 0.037095 0.274259
v -0.217052 -0.040317 0.450581
v -0.217052 -0.036974 0.460371
v -0.228488 -0.036974 0.450581
v -0.217052 0.037095 0.460371
v -0.217052 0.040439 0.450581
v -0.228488 0.037095 0.450581
v -0.217052 -0.040317 0.233708
v -0.228488 -0.036974 0.233708
v -0.217052 -0.036974 0.223918
v -0.217052 0.040439 0.233708
v -0.217052 0.037095 0.223918
v -0.228488 0.037095 0.233708
v 0.036293 -0.040317 0.450581
v 0.047729 -0.036974 0.450581
v 0.036293 -0.036974 0.460371
v 0.036293 0.040439 0.450581
v 0.036293 0.037095 0.460371
v 0.047729 0.037095 0.450581
v 0.036293 -0.040317 0.233708
v 0.036293 -0.036974 0.223918
v 0.047729 -0.036974 0.233708
v 0.036293 0.040439 0.233708
v 0.047729 0.037095 0.233708
v 0.036293 0.037095 0.223918
v -0.217052 -0.040317 0.684242
v -0.217052 -0.036974 0.694032
v -0.228488 -0.036974 0.684242
v -0.217052 0.037095 0.694032
v -0.217052 0.040439 0.684242
v -0.228488 0.037095 0.684242
v -0.217052 -0.040317 0.467369
v -0.228488 -0.036974 0.467369
v -0.217052 -0.036974 0.457579
v -0.217052 0.040439 0.467369
v -0.217052 0.037095 0.457579
v -0.228488 0.037095 0.467369
v 0.036293 -0.040317 0.684242
v 0.047729 -0.036974 0.684242
v 0.036293 -0.036974 0.694032
v 0.036293 0.040439 0.684242
v 0.036293 0.037095 0.694032
v 0.047729 0.037095 0.684242
v 0.036293 -0.040317 0.467369
v 0.036293 -0.036974 0.457579
v 0.047729 -0.036974 0.467369
v 0.036293 0.040439 0.467369
v 0.047729 0.037095 0.467369
v 0.036293 0.037095 0.457579
v -0.217052 -0.040317 0.927980
v -0.217052 -0.036974 0.938165
v -0.228488 -0.036974 0.927980
v -0.217052 0.037095 0.938165
v -0.217052 0.040439 0.927980
v -0.228488 0.037095 0.927980
v -0.217052 -0.040317 0.702351
v -0.228488 -0.036974 0.702351
v -0.217052 -0.036974 0.692166
v -0.217052 0.040439 0.702351
v -0.217052 0.037095 0.692166
v -0.228488 0.037095 0.702351
v 0.036293 -0.040317 0.927980
v 0.047729 -0.036974 0.927980
v 0.036293 -0.036974 0.938165
v 0.036293 0.040439 0.927980
v 0.036293 0.037095 0.938165
v 0.047729 0.037095 0.927980
v 0.036293 -0.040317 0.702351
v 0.036293 -0.036974 0.692166
v 0.047729 -0.036974 0.702351
v 0.036293 0.040439 0.702351
v 0.047729 0.037095 0.702351
v 0.036293 0.037095 0.692166
v 0.785387 -0.036973 -0.678051
v 0.785387 0.037096 -0.678051
v 0.468802 0.037096 -0.678051
v 0.468802 -0.036973 -0.678051
v 0.799678 -0.036973 -0.935051
v 0.799678 0.037096 -0.935051
v 0.799678 0.037096 -0.689151
v 0.799678 -0.036973 -0.689151
v 0.785387 0.040439 -0.935051
v 0.468802 0.040439 -0.935051
v 0.468802 0.040439 -0.689151
v 0.785387 0.040439 -0.689151
v 0.454511 -0.036973 -0.689151
v 0.454511 0.037096 -0.689151
v 0.454511 0.037096 -0.935051
v 0.454511 -0.036973 -0.935051
v 0.468802 -0.036973 -0.946151
v 0.468802 0.037096 -0.946151
v 0.785387 0.037096 -0.946151
v 0.785387 -0.036973 -0.946151
v 0.468802 -0.040317 -0.935051
v 0.468802 -0.040317 -0.689151
v 0.454511 -0.036973 -0.689151
v 0.454511 -0.036973 -0.935051
v 0.468802 -0.036973 -0.678051
v 0.468802 0.037096 -0.678051
v 0.454511 0.037096 -0.689151
v 0.454511 -0.036973 -0.689151
v 0.468802 0.040439 -0.689151
v 0.468802 0.040439 -0.935051
v 0.454511 0.037096 -0.935051
v 0.454511 0.037096 -0.689151
v 0.468802 0.037096 -0.946151
v 0.468802 -0.036973 -0.946151
v 0.454511 -0.036973 -0.935051
v 0.454511 0.037096 -0.935051
v 0.785387 -0.040317 -0.935051
v 0.468802 -0.040317 -0.935051
v 0.468802 -0.036973 -0.946151
v 0.785387 -0.036973 -0.946151
v 0.468802 0.040439 -0.935051
v 0.785387 0.040439 -0.935051
v 0.785387 0.037096 -0.946151
v 0.468802 0.037096 -0.946151
v 0.799678 0.037096 -0.935051
v 0.799678 -0.036973 -0.935051
v 0.785387 -0.036973 -0.946151
v 0.785387 0.037096 -0.946151
v 0.785387 -0.040317 -0.689151
v 0.785387 -0.040317 -0.935051
v 0.799678 -0.036973 -0.935051
v 0.799678 -0.036973 -0.689151
v 0.785387 0.040439 -0.935051
v 0.785387 0.040439 -0.689151
v 0.799678 0.037096 -0.689151
v 0.799678 0.037096 -0.935051
v 0.785387 0.037096 -0.678051
v 0.785387 -0.036973 -0.678051
v 0.799678 -0.036973 -0.689151
v 0.799678 0.037096 -0.689151
v 0.468802 -0.040317 -0.689151
v 0.785387 -0.040317 -0.689151
v 0.785387 -0.036973 -0.678051
v 0.468802 -0.036973 -0.678051
v 0.785387 0.040439 -0.689151
v 0.468802 0.040439 -0.689151
v 0.468802 0.037096 -0.678051
v 0.785387 0.037096 -0.678051
v 0.468802 -0.040317 -0.935051
v 0.785387 -0.040317 -0.935051
v 0.785387 -0.040317 -0.689151
v 0.468802 -0.040317 -0.689151
v 1.126404 -0.036973 0.226194
v 1.126404 0.037096 0.226194
v 0.809819 0.037095 0.226194
v 0.809819 -0.036973 0.226194
v 1.140695 -0.036973 -0.030806
v 1.140695 0.037096 -0.030806
v 1.140695 0.037095 0.215094
v 1.140695 -0.036973 0.215094
v 1.126404 0.040439 -0.030806
v 0.809819 0.040439 -0.030806
v 0.809819 0.040439 0.215094
v 1.126404 0.040439 0.215094
v 0.795528 -0.036973 0.215094
v 0.795528 0.037095 0.215094
v 0.795528 0.037096 -0.030806
v 0.795528 -0.036973 -0.030806
v 0.809819 -0.036973 -0.041906
v 0.809819 0.037096 -0.041906
v 1.126404 0.037096 -0.041906
v 1.126404 -0.036973 -0.041906
v 0.809819 -0.040317 -0.030806
v 0.809819 -0.040317 0.215094
v 0.795528 -0.036973 0.215094
v 0.795528 -0.036973 -0.030806
v 0.809819 -0.036973 0.226194
v 0.809819 0.037095 0.226194
v 0.795528 0.037095 0.215094
v 0.795528 -0.036973 0.215094
v 0.809819 0.040439 0.215094
v 0.809819 0.040439 -0.030806
v 0.795528 0.037096 -0.030806
v 0.795528 0.037095 0.215094
v 0.809819 0.037096 -0.041906
v 0.809819 -0.036973 -0.041906
v 0.795528 -0.036973 -0.030806
v 0.795528 0.037096 -0.030806
v 1.126404 -0.040317 -0.030806
v 0.809819 -0.040317 -0.030806
v 0.809819 -0.036973 -0.041906
v 1.126404 -0.036973 -0.041906
v 0.809819 0.040439 -0.030806
v 1.126404 0.040439 -0.030806
v 1.126404 0.037096 -0.041906
v 0.809819 0.037096 -0.041906
v 1.140695 0.037096 -0.030806
v 1.140695 -0.036973 -0.030806
v 1.126404 -0.036973 -0.041906
v 1.126404 0.037096 -0.041906
v 1.126404 -0.040317 0.215094
v 1.126404 -0.040317 -0.030806
v 1.140695 -0.036973 -0.030806
v 1.140695 -0.036973 0.215094
v 1.126404 0.040439 -0.030806
v 1.126404 0.040439 0.215094
v 1.140695 0.037095 0.215094
v 1.140695 0.037096 -0.030806
v 1.126404 0.037096 0.226194
v 1.126404 -0.036973 0.226194
v 1.140695 -0.036973 0.215094
v 1.140695 0.037095 0.215094
v 0.809819 -0.040317 0.215094
v 1.126404 -0.040317 0.215094
v 1.126404 -0.036973 0.226194
v 0.809819 -0.036973 0.226194
v 1.126404 0.040439 0.215094
v 0.809819 0.040439 0.215094
v 0.809819 0.037095 0.226194
v 1.126404 0.037096 0.226194
v 0.809819 -0.040317 -0.030806
v 1.126404 -0.040317 -0.030806
v 1.126404 -0.040317 0.215094
v 0.809819 -0.040317 0.215094
v 0.785387 -0.036973 0.226194
v 0.785387 0.037095 0.226194
v 0.468802 0.037095 0.226194
v 0.468802 -0.036973 0.226194
v 0.799678 -0.036973 -0.030806
v 0.799678 0.037096 -0.030806
v 0.799678 0.037095 0.215094
v 0.799678 -0.036973 0.215094
v 0.785387 0.040439 -0.030806
v 0.468802 0.040439 -0.030806
v 0.468802 0.040439 0.215094
v 0.785387 0.040439 0.215094
v 0.454511 -0.036973 0.215094
v 0.454511 0.037095 0.215094
v 0.454511 0.037096 -0.030806
v 0.454511 -0.036973 -0.030806
v 0.468802 -0.036973 -0.041906
v 0.468802 0.037096 -0.041906
v 0.785387 0.037096 -0.041906
v 0.785387 -0.036973 -0.041906
v 0.468802 -0.040317 -0.030806
v 0.468802 -0.040317 0.215094
v 0.454511 -0.036973 0.215094
v 0.454511 -0.036973 -0.030806
v 0.468802 -0.036973 0.226194
v 0.468802 0.037095 0.226194
v 0.454511 0.037095 0.215094
v 0.454511 -0.036973 0.215094
v 0.468802 0.040439 0.215094
v 0.468802 0.040439 -0.030806
v 0.454511 0.037096 -0.030806
v 0.454511 0.037095 0.215094
v 0.468802 0.037096 -0.041906
v 0.468802 -0.036973 -0.041906
v 0.454511 -0.036973 -0.030806
v 0.454511 0.037096 -0.030806
v 0.785387 -0.040317 -0.030806
v 0.468802 -0.040317 -0.030806
v 0.468802 -0.036973 -0.041906
v 0.785387 -0.036973 -0.041906
v 0.468802 0.040439 -0.030806
v 0.785387 0.040439 -0.030806
v 0.785387 0.037096 -0.041906
v 0.468802 0.037096 -0.041906
v 0.799678 0.037096 -0.030806
v 0.799678 -0.036973 -0.030806
v 0.785387 -0.036973 -0.041906
v 0.785387 0.037096 -0.041906
v 0.785387 -0.040317 0.215094
v 0.785387 -0.040317 -0.030806
v 0.799678 -0.036973 -0.030806
v 0.799678 -0.036973 0.215094
v 0.785387 0.040439 -0.030806
v 0.785387 0.040439 0.215094
v 0.799678 0.037095 0.215094
v 0.799678 0.037096 -0.030806
v 0.785387 0.037095 0.226194
v 0.785387 -0.036973 0.226194
v 0.799678 -0.036973 0.215094
v 0.799678 0.037095 0.215094
v 0.468802 -0.040317 0.215094
v 0.785387 -0.040317 0.215094
v 0.785387 -0.036973 0.226194
v 0.468802 -0.036973 0.226194
v 0.785387 0.040439 0.215094
v 0.468802 0.040439 0.215094
v 0.468802 0.037095 0.226194
v 0.785387 0.037095 0.226194
v 0.468802 -0.040317 -0.030806
v 0.785387 -0.040317 -0.030806
v 0.785387 -0.040317 0.215094
v 0.468802 -0.040317 0.215094
v 0.102845 -0.036973 0.226194
v 0.102845 0.037095 0.226194
v -0.213740 0.037095 0.226194
v -0.213740 -0.036973 0.226194
v 0.117136 -0.036973 -0.030806
v 0.117136 0.037096 -0.030806
v 0.117136 0.037095 0.215094
v 0.117136 -0.036973 0.215094
v 0.102845 0.040439 -0.030806
v -0.213740 0.040439 -0.030806
v -0.213740 0.040439 0.215094
v 0.102845 0.040439 0.215094
v -0.213740 -0.036973 -0.041906
v -0.213740 0.037095 -0.041906
v 0.102845 0.037096 -0.041906
v 0.102845 -0.036973 -0.041906
v -0.213740 -0.040317 -0.030806
v -0.213740 -0.040317 0.215094
v -0.228031 -0.036973 0.215094
v -0.228031 -0.036973 -0.030806
v -0.213740 -0.036973 0.226194
v -0.213740 0.037095 0.226194
v -0.228031 0.037095 0.215094
v -0.228031 -0.036973 0.215094
v -0.213740 0.040439 0.215094
v -0.213740 0.040439 -0.030806
v -0.228031 0.037095 -0.030806
v -0.228031 0.037095 0.215094
v -0.213740 0.037095 -0.041906
v -0.213740 -0.036973 -0.041906
v -0.228031 -0.036973 -0.030806
v -0.228031 0.037095 -0.030806
v 0.102845 -0.040317 -0.030806
v -0.213740 -0.040317 -0.030806
v -0.213740 -0.036973 -0.041906
v 0.102845 -0.036973 -0.041906
v -0.213740 0.040439 -0.030806
v 0.102845 0.040439 -0.030806
v 0.102845 0.037096 -0.041906
v -0.213740 0.037095 -0.041906
v 0.117136 0.037096 -0.030806
v 0.117136 -0.036973 -0.030806
v 0.102845 -0.036973 -0.041906
v 0.102845 0.037096 -0.041906
v 0.102845 -0.040317 0.215094
v 0.102845 -0.040317 -0.030806
v 0.117136 -0.036973 -0.030806
v 0.117136 -0.036973 0.215094
v 0.102845 0.040439 -0.030806
v 0.102845 0.040439 0.215094
v 0.117136 0.037095 0.215094
v 0.117136 0.037096 -0.030806
v 0.102845 0.037095 0.226194
v 0.102845 -0.036973 0.226194
v 0.117136 -0.036973 0.215094
v 0.117136 0.037095 0.215094
v -0.213740 -0.040317 0.215094
v 0.102845 -0.040317 0.215094
v 0.102845 -0.036973 0.226194
v -0.213740 -0.036973 0.226194
v 0.102845 0.040439 0.215094
v -0.213740 0.040439 0.215094
v -0.213740 0.037095 0.226194
v 0.102845 0.037095 0.226194
v -0.213740 -0.040317 -0.030806
v 0.102845 -0.040317 -0.030806
v 0.102845 -0.040317 0.215094
v -0.213740 -0.040317 0.215094
v 0.443861 -0.036973 0.226194
v 0.443861 0.037095 0.226194
v 0.127276 0.037095 0.226194
v 0.127276 -0.036973 0.226194
v 0.458152 -0.036973 -0.030806
v 0.458152 0.037096 -0.030806
v 0.458152 0.037095 0.215094
v 0.458152 -0.036973 0.215094
v 0.443861 0.040439 -0.030806
v 0.127276 0.040439 -0.030806
v 0.127276 0.040439 0.215094
v 0.443861 0.040439 0.215094
v 0.112985 -0.036973 0.215094
v 0.112985 0.037095 0.215094
v 0.112985 0.037096 -0.030806
v 0.112985 -0.036973 -0.030806
v 0.127276 -0.036973 -0.041906
v 0.127276 0.037096 -0.041906
v 0.443861 0.037096 -0.041906
v 0.443861 -0.036973 -0.041906
v 0.127276 -0.040317 -0.030806
v 0.127276 -0.040317 0.215094
v 0.112985 -0.036973 0.215094
v 0.112985 -0.036973 -0.030806
v 0.127276 -0.036973 0.226194
v 0.127276 0.037095 0.226194
v 0.112985 0.037095 0.215094
v 0.112985 -0.036973 0.215094
v 0.127276 0.040439 0.215094
v 0.127276 0.040439 -0.030806
v 0.112985 0.037096 -0.030806
v 0.112985 0.037095 0.215094
v 0.127276 0.037096 -0.041906
v 0.127276 -0.036973 -0.041906
v 0.112985 -0.036973 -0.030806
v 0.112985 0.037096 -0.030806
v 0.443861 -0.040317 -0.030806
v 0.127276 -0.040317 -0.030806
v 0.127276 -0.036973 -0.041906
v 0.443861 -0.036973 -0.041906
v 0.127276 0.040439 -0.030806
v 0.443861 0.040439 -0.030806
v 0.443861 0.037096 -0.041906
v 0.127276 0.037096 -0.041906
v 0.458152 0.037096 -0.030806
v 0.458152 -0.036973 -0.030806
v 0.443861 -0.036973 -0.041906
v 0.443861 0.037096 -0.041906
v 0.443861 -0.040317 0.215094
v 0.443861 -0.040317 -0.030806
v 0.458152 -0.036973 -0.030806
v 0.458152 -0.036973 0.215094
v 0.443861 0.040439 -0.030806
v 0.443861 0.040439 0.215094
v 0.458152 0.037095 0.215094
v 0.458152 0.037096 -0.030806
v 0.443861 0.037095 0.226194
v 0.443861 -0.036973 0.226194
v 0.458152 -0.036973 0.215094
v 0.458152 0.037095 0.215094
v 0.127276 -0.040317 0.215094
v 0.443861 -0.040317 0.215094
v 0.443861 -0.036973 0.226194
v 0.127276 -0.036973 0.226194
v 0.443861 0.040439 0.215094
v 0.127276 0.040439 0.215094
v 0.127276 0.037095 0.226194
v 0.443861 0.037095 0.226194
v 0.127276 -0.040317 -0.030806
v 0.443861 -0.040317 -0.030806
v 0.443861 -0.040317 0.215094
v 0.127276 -0.040317 0.215094
v -0.224492 -0.036973 -0.030806
v -0.224492 0.037096 -0.030806
v -0.224492 0.037095 0.215094
v -0.224492 -0.036973 0.215094
v 1.126403 -0.036973 -0.678051
v 1.126403 0.037096 -0.678051
v 0.809819 0.037096 -0.678051
v 0.809819 -0.036973 -0.678051
v 1.140694 -0.036973 -0.935051
v 1.140694 0.037096 -0.935051
v 1.140694 0.037096 -0.689151
v 1.140694 -0.036973 -0.689151
v 1.126403 0.040439 -0.935051
v 0.809819 0.040439 -0.935051
v 0.809819 0.040439 -0.689151
v 1.126403 0.040439 -0.689151
v 0.795528 -0.036973 -0.689151
v 0.795528 0.037096 -0.689151
v 0.795528 0.037096 -0.935051
v 0.795528 -0.036973 -0.935051
v 0.809819 -0.036973 -0.946151
v 0.809819 0.037096 -0.946151
v 1.126403 0.037096 -0.946151
v 1.126403 -0.036973 -0.946151
v 0.809819 -0.040317 -0.935051
v 0.809819 -0.040317 -0.689151
v 0.795528 -0.036973 -0.689151
v 0.795528 -0.036973 -0.935051
v 0.809819 -0.036973 -0.678051
v 0.809819 0.037096 -0.678051
v 0.795528 0.037096 -0.689151
v 0.795528 -0.036973 -0.689151
v 0.809819 0.040439 -0.689151
v 0.809819 0.040439 -0.935051
v 0.795528 0.037096 -0.935051
v 0.795528 0.037096 -0.689151
v 0.809819 0.037096 -0.946151
v 0.809819 -0.036973 -0.946151
v 0.795528 -0.036973 -0.935051
v 0.795528 0.037096 -0.935051
v 1.126403 -0.040317 -0.935051
v 0.809819 -0.040317 -0.935051
v 0.809819 -0.036973 -0.946151
v 1.126403 -0.036973 -0.946151
v 0.809819 0.040439 -0.935051
v 1.126403 0.040439 -0.935051
v 1.126403 0.037096 -0.946151
v 0.809819 0.037096 -0.946151
v 1.140694 0.037096 -0.935051
v 1.140694 -0.036973 -0.935051
v 1.126403 -0.036973 -0.946151
v 1.126403 0.037096 -0.946151
v 1.126403 -0.040317 -0.689151
v 1.126403 -0.040317 -0.935051
v 1.140694 -0.036973 -0.935051
v 1.140694 -0.036973 -0.689151
v 1.126403 0.040439 -0.935051
v 1.126403 0.040439 -0.689151
v 1.140694 0.037096 -0.689151
v 1.140694 0.037096 -0.935051
v 1.126403 0.037096 -0.678051
v 1.126403 -0.036973 -0.678051
v 1.140694 -0.036973 -0.689151
v 1.140694 0.037096 -0.689151
v 0.809819 -0.040317 -0.689151
v 1.126403 -0.040317 -0.689151
v 1.126403 -0.036973 -0.678051
v 0.809819 -0.036973 -0.678051
v 1.126403 0.040439 -0.689151
v 0.809819 0.040439 -0.689151
v 0.809819 0.037096 -0.678051
v 1.126403 0.037096 -0.678051
v 0.809819 -0.040317 -0.935051
v 1.126403 -0.040317 -0.935051
v 1.126403 -0.040317 -0.689151
v 0.809819 -0.040317 -0.689151
v 0.102845 -0.036973 -0.678051
v 0.102845 0.037096 -0.678051
v -0.213740 0.037096 -0.678051
v -0.213740 -0.036973 -0.678051
v 0.117136 -0.036973 -0.935051
v 0.117136 0.037096 -0.935051
v 0.117136 0.037096 -0.689151
v 0.117136 -0.036973 -0.689151
v 0.102845 0.040439 -0.935051
v -0.213740 0.040439 -0.935051
v -0.213740 0.040439 -0.689151
v 0.102845 0.040439 -0.689151
v -0.228031 -0.036973 -0.689151
v -0.228031 0.037096 -0.689151
v -0.228031 0.037096 -0.935051
v -0.228031 -0.036973 -0.935051
v -0.213740 -0.036973 -0.946151
v -0.213740 0.037096 -0.946151
v 0.102845 0.037096 -0.946151
v 0.102845 -0.036973 -0.946151
v -0.213740 -0.040317 -0.935051
v -0.213740 -0.040317 -0.689151
v -0.228031 -0.036973 -0.689151
v -0.228031 -0.036973 -0.935051
v -0.213740 -0.036973 -0.678051
v -0.213740 0.037096 -0.678051
v -0.228031 0.037096 -0.689151
v -0.228031 -0.036973 -0.689151
v -0.213740 0.040439 -0.689151
v -0.213740 0.040439 -0.935051
v -0.228031 0.037096 -0.935051
v -0.228031 0.037096 -0.689151
v -0.213740 0.037096 -0.946151
v -0.213740 -0.036973 -0.946151
v -0.228031 -0.036973 -0.935051
v -0.228031 0.037096 -0.935051
v 0.102845 -0.040317 -0.935051
v -0.213740 -0.040317 -0.935051
v -0.213740 -0.036973 -0.946151
v 0.102845 -0.036973 -0.946151
v -0.213740 0.040439 -0.935051
v 0.102845 0.040439 -0.935051
v 0.102845 0.037096 -0.946151
v -0.213740 0.037096 -0.946151
v 0.117136 0.037096 -0.935051
v 0.117136 -0.036973 -0.935051
v 0.102845 -0.036973 -0.946151
v 0.102845 0.037096 -0.946151
v 0.102845 -0.040317 -0.689151
v 0.102845 -0.040317 -0.935051
v 0.117136 -0.036973 -0.935051
v 0.117136 -0.036973 -0.689151
v 0.102845 0.040439 -0.935051
v 0.102845 0.040439 -0.689151
v 0.117136 0.037096 -0.689151
v 0.117136 0.037096 -0.935051
v 0.102845 0.037096 -0.678051
v 0.102845 -0.036973 -0.678051
v 0.117136 -0.036973 -0.689151
v 0.117136 0.037096 -0.689151
v -0.213740 -0.040317 -0.689151
v 0.102845 -0.040317 -0.689151
v 0.102845 -0.036973 -0.678051
v -0.213740 -0.036973 -0.678051
v 0.102845 0.040439 -0.689151
v -0.213740 0.040439 -0.689151
v -0.213740 0.037096 -0.678051
v 0.102845 0.037096 -0.678051
v -0.213740 -0.040317 -0.935051
v 0.102845 -0.040317 -0.935051
v 0.102845 -0.040317 -0.689151
v -0.213740 -0.040317 -0.689151
v 0.443861 -0.036973 -0.678051
v 0.443861 0.037096 -0.678051
v 0.127276 0.037096 -0.678051
v 0.127276 -0.036973 -0.678051
v 0.458152 -0.036973 -0.935051
v 0.458152 0.037096 -0.935051
v 0.458152 0.037096 -0.689151
v 0.458152 -0.036973 -0.689151
v 0.443861 0.040439 -0.935051
v 0.127276 0.040439 -0.935051
v 0.127276 0.040439 -0.689151
v 0.443861 0.040439 -0.689151
v 0.112985 -0.036973 -0.689151
v 0.112985 0.037096 -0.689151
v 0.112985 0.037096 -0.935051
v 0.112985 -0.036973 -0.935051
v 0.127276 -0.036973 -0.946151
v 0.127276 0.037096 -0.946151
v 0.443861 0.037096 -0.946151
v 0.443861 -0.036973 -0.946151
v 0.127276 -0.040317 -0.935051
v 0.127276 -0.040317 -0.689151
v 0.112985 -0.036973 -0.689151
v 0.112985 -0.036973 -0.935051
v 0.127276 -0.036973 -0.678051
v 0.127276 0.037096 -0.678051
v 0.112985 0.037096 -0.689151
v 0.112985 -0.036973 -0.689151
v 0.127276 0.040439 -0.689151
v 0.127276 0.040439 -0.935051
v 0.112985 0.037096 -0.935051
v 0.112985 0.037096 -0.689151
v 0.127276 0.037096 -0.946151
v 0.127276 -0.036973 -0.946151
v 0.112985 -0.036973 -0.935051
v 0.112985 0.037096 -0.935051
v 0.443861 -0.040317 -0.935051
v 0.127276 -0.040317 -0.935051
v 0.127276 -0.036973 -0.946151
v 0.443861 -0.036973 -0.946151
v 0.127276 0.040439 -0.935051
v 0.443861 0.040439 -0.935051
v 0.443861 0.037096 -0.946151
v 0.127276 0.037096 -0.946151
v 0.458152 0.037096 -0.935051
v 0.458152 -0.036973 -0.935051
v 0.443861 -0.036973 -0.946151
v 0.443861 0.037096 -0.946151
v 0.443861 -0.040317 -0.689151
v 0.443861 -0.040317 -0.935051
v 0.458152 -0.036973 -0.935051
v 0.458152 -0.036973 -0.689151
v 0.443861 0.040439 -0.935051
v 0.443861 0.040439 -0.689151
v 0.458152 0.037096 -0.689151
v 0.458152 0.037096 -0.935051
v 0.443861 0.037096 -0.678051
v 0.443861 -0.036973 -0.678051
v 0.458152 -0.036973 -0.689151
v 0.458152 0.037096 -0.689151
v 0.127276 -0.040317 -0.689151
v 0.443861 -0.040317 -0.689151
v 0.443861 -0.036973 -0.678051
v 0.127276 -0.036973 -0.678051
v 0.443861 0.040439 -0.689151
v 0.127276 0.040439 -0.689151
v 0.127276 0.037096 -0.678051
v 0.443861 0.037096 -0.678051
v 0.127276 -0.040317 -0.935051
v 0.443861 -0.040317 -0.935051
v 0.443861 -0.040317 -0.689151
v 0.127276 -0.040317 -0.689151
v -0.579799 -0.036973 -0.678051
v -0.579799 0.037096 -0.678051
v -0.896384 0.037096 -0.678051
v -0.896384 -0.036973 -0.678051
v -0.565508 -0.036973 -0.935051
v -0.565508 0.037096 -0.935051
v -0.565508 0.037096 -0.689151
v -0.565508 -0.036973 -0.689151
v -0.579799 0.040439 -0.935051
v -0.896384 0.040439 -0.935051
v -0.896384 0.040439 -0.689151
v -0.579799 0.040439 -0.689151
v -0.910675 -0.036973 -0.689151
v -0.910675 0.037096 -0.689151
v -0.910675 0.037096 -0.935051
v -0.910675 -0.036973 -0.935051
v -0.896384 -0.036973 -0.946151
v -0.896384 0.037096 -0.946151
v -0.579799 0.037096 -0.946151
v -0.579799 -0.036973 -0.946151
v -0.896384 -0.040317 -0.935051
v -0.896384 -0.040317 -0.689151
v -0.910675 -0.036973 -0.689151
v -0.910675 -0.036973 -0.935051
v -0.896384 -0.036973 -0.678051
v -0.896384 0.037096 -0.678051
v -0.910675 0.037096 -0.689151
v -0.910675 -0.036973 -0.689151
v -0.896384 0.040439 -0.689151
v -0.896384 0.040439 -0.935051
v -0.910675 0.037096 -0.935051
v -0.910675 0.037096 -0.689151
v -0.896384 0.037096 -0.946151
v -0.896384 -0.036973 -0.946151
v -0.910675 -0.036973 -0.935051
v -0.910675 0.037096 -0.935051
v -0.579799 -0.040317 -0.935051
v -0.896384 -0.040317 -0.935051
v -0.896384 -0.036973 -0.946151
v -0.579799 -0.036973 -0.946151
v -0.896384 0.040439 -0.935051
v -0.579799 0.040439 -0.935051
v -0.579799 0.037096 -0.946151
v -0.896384 0.037096 -0.946151
v -0.565508 0.037096 -0.935051
v -0.565508 -0.036973 -0.935051
v -0.579799 -0.036973 -0.946151
v -0.579799 0.037096 -0.946151
v -0.579799 -0.040317 -0.689151
v -0.579799 -0.040317 -0.935051
v -0.565508 -0.036973 -0.935051
v -0.565508 -0.036973 -0.689151
v -0.579799 0.040439 -0.935051
v -0.579799 0.040439 -0.689151
v -0.565508 0.037096 -0.689151
v -0.565508 0.037096 -0.935051
v -0.579799 0.037096 -0.678051
v -0.579799 -0.036973 -0.678051
v -0.565508 -0.036973 -0.689151
v -0.565508 0.037096 -0.689151
v -0.896384 -0.040317 -0.689151
v -0.579799 -0.040317 -0.689151
v -0.579799 -0.036973 -0.678051
v -0.896384 -0.036973 -0.678051
v -0.579799 0.040439 -0.689151
v -0.896384 0.040439 -0.689151
v -0.896384 0.037096 -0.678051
v -0.579799 0.037096 -0.678051
v -0.896384 -0.040317 -0.935051
v -0.579799 -0.040317 -0.935051
v -0.579799 -0.040317 -0.689151
v -0.896384 -0.040317 -0.689151
v -0.238783 -0.036973 -0.678051
v -0.238783 0.037096 -0.678051
v -0.555367 0.037096 -0.678051
v -0.555368 -0.036973 -0.678051
v -0.224492 -0.036973 -0.935051
v -0.224492 0.037096 -0.935051
v -0.224492 0.037096 -0.689151
v -0.224492 -0.036973 -0.689151
v -0.238783 0.040439 -0.935051
v -0.555367 0.040439 -0.935051
v -0.555367 0.040439 -0.689151
v -0.238783 0.040439 -0.689151
v -0.569659 -0.036973 -0.689151
v -0.569659 0.037096 -0.689151
v -0.569659 0.037096 -0.935051
v -0.569659 -0.036973 -0.935051
v -0.555368 -0.036973 -0.946151
v -0.555367 0.037096 -0.946151
v -0.238783 0.037096 -0.946151
v -0.238783 -0.036973 -0.946151
v -0.555367 -0.040317 -0.935051
v -0.555367 -0.040317 -0.689151
v -0.569659 -0.036973 -0.689151
v -0.569659 -0.036973 -0.935051
v -0.555368 -0.036973 -0.678051
v -0.555367 0.037096 -0.678051
v -0.569659 0.037096 -0.689151
v -0.569659 -0.036973 -0.689151
v -0.555367 0.040439 -0.689151
v -0.555367 0.040439 -0.935051
v -0.569659 0.037096 -0.935051
v -0.569659 0.037096 -0.689151
v -0.555367 0.037096 -0.946151
v -0.555368 -0.036973 -0.946151
v -0.569659 -0.036973 -0.935051
v -0.569659 0.037096 -0.935051
v -0.238783 -0.040317 -0.935051
v -0.555367 -0.040317 -0.935051
v -0.555368 -0.036973 -0.946151
v -0.238783 -0.036973 -0.946151
v -0.555367 0.040439 -0.935051
v -0.238783 0.040439 -0.935051
v -0.238783 0.037096 -0.946151
v -0.555367 0.037096 -0.946151
v -0.224492 0.037096 -0.935051
v -0.224492 -0.036973 -0.935051
v -0.238783 -0.036973 -0.946151
v -0.238783 0.037096 -0.946151
v -0.238783 -0.040317 -0.689151
v -0.238783 -0.040317 -0.935051
v -0.224492 -0.036973 -0.935051
v -0.224492 -0.036973 -0.689151
v -0.238783 0.040439 -0.935051
v -0.238783 0.040439 -0.689151
v -0.224492 0.037096 -0.689151
v -0.224492 0.037096 -0.935051
v -0.238783 0.037096 -0.678051
v -0.238783 -0.036973 -0.678051
v -0.224492 -0.036973 -0.689151
v -0.224492 0.037096 -0.689151
v -0.555367 -0.040317 -0.689151
v -0.238783 -0.040317 -0.689151
v -0.238783 -0.036973 -0.678051
v -0.555368 -0.036973 -0.678051
v -0.238783 0.040439 -0.689151
v -0.555367 0.040439 -0.689151
v -0.555367 0.037096 -0.678051
v -0.238783 0.037096 -0.678051
v -0.555367 -0.040317 -0.935051
v -0.238783 -0.040317 -0.935051
v -0.238783 -0.040317 -0.689151
v -0.555367 -0.040317 -0.689151
v -0.872589 -0.036973 -0.749911
v -0.872589 0.037096 -0.749911
v -0.872589 0.037096 -0.433326
v -0.872589 -0.036973 -0.433326
v -1.129590 -0.036973 -0.764202
v -1.129590 0.037096 -0.764202
v -0.883689 0.037096 -0.764202
v -0.883689 -0.036973 -0.764202
v -1.129590 0.040439 -0.749911
v -1.129590 0.040439 -0.433326
v -0.883689 0.040439 -0.433326
v -0.883689 0.040439 -0.749911
v -0.883689 -0.036973 -0.419035
v -0.883689 0.037096 -0.419035
v -1.129590 0.037096 -0.419035
v -1.129590 -0.036973 -0.419035
v -1.140690 -0.036973 -0.433326
v -1.140690 0.037096 -0.433326
v -1.140690 0.037096 -0.749911
v -1.140690 -0.036973 -0.749911
v -1.129590 -0.040317 -0.433326
v -0.883689 -0.040317 -0.433326
v -0.883689 -0.036973 -0.419035
v -1.129590 -0.036973 -0.419035
v -0.872589 -0.036973 -0.433326
v -0.872589 0.037096 -0.433326
v -0.883689 0.037096 -0.419035
v -0.883689 -0.036973 -0.419035
v -0.883689 0.040439 -0.433326
v -1.129590 0.040439 -0.433326
v -1.129590 0.037096 -0.419035
v -0.883689 0.037096 -0.419035
v -1.140690 0.037096 -0.433326
v -1.140690 -0.036973 -0.433326
v -1.129590 -0.036973 -0.419035
v -1.129590 0.037096 -0.419035
v -1.129590 -0.040317 -0.749911
v -1.129590 -0.040317 -0.433326
v -1.140690 -0.036973 -0.433326
v -1.140690 -0.036973 -0.749911
v -1.129590 0.040439 -0.433326
v -1.129590 0.040439 -0.749911
v -1.140690 0.037096 -0.749911
v -1.140690 0.037096 -0.433326
v -1.129590 0.037096 -0.764202
v -1.129590 -0.036973 -0.764202
v -1.140690 -0.036973 -0.749911
v -1.140690 0.037096 -0.749911
v -0.883689 -0.040317 -0.749911
v -1.129590 -0.040317 -0.749911
v -1.129590 -0.036973 -0.764202
v -0.883689 -0.036973 -0.764202
v -1.129590 0.040439 -0.749911
v -0.883689 0.040439 -0.749911
v -0.883689 0.037096 -0.764202
v -1.129590 0.037096 -0.764202
v -0.872589 0.037096 -0.749911
v -0.872589 -0.036973 -0.749911
v -0.883689 -0.036973 -0.764202
v -0.883689 0.037096 -0.764202
v -0.883689 -0.040317 -0.433326
v -0.883689 -0.040317 -0.749911
v -0.872589 -0.036973 -0.749911
v -0.872589 -0.036973 -0.433326
v -0.883689 0.040439 -0.749911
v -0.883689 0.040439 -0.433326
v -0.872589 0.037096 -0.433326
v -0.872589 0.037096 -0.749911
v -1.129590 -0.040317 -0.433326
v -1.129590 -0.040317 -0.749911
v -0.883689 -0.040317 -0.749911
v -0.883689 -0.040317 -0.433326
v -0.872589 -0.036973 -0.931716
v -0.872589 0.037096 -0.931716
v -0.872589 0.037096 -0.774342
v -0.872589 -0.036973 -0.774342
v -1.129590 -0.036973 -0.946007
v -1.129590 0.037096 -0.946007
v -0.883690 0.037096 -0.946007
v -0.883690 -0.036973 -0.946007
v -1.129590 0.040439 -0.931716
v -1.129590 0.040439 -0.774342
v -0.883690 0.040439 -0.774342
v -0.883690 0.040439 -0.931716
v -0.883690 -0.036973 -0.760051
v -0.883690 0.037096 -0.760051
v -1.129590 0.037096 -0.760051
v -1.129590 -0.036973 -0.760051
v -1.140690 -0.036973 -0.774342
v -1.140690 0.037096 -0.774342
v -1.140690 0.037096 -0.931716
v -1.140690 -0.036973 -0.931716
v -1.129590 -0.040317 -0.774342
v -0.883689 -0.040317 -0.774342
v -0.883690 -0.036973 -0.760051
v -1.129590 -0.036973 -0.760051
v -0.872589 -0.036973 -0.774342
v -0.872589 0.037096 -0.774342
v -0.883690 0.037096 -0.760051
v -0.883690 -0.036973 -0.760051
v -0.883690 0.040439 -0.774342
v -1.129590 0.040439 -0.774342
v -1.129590 0.037096 -0.760051
v -0.883690 0.037096 -0.760051
v -1.140690 0.037096 -0.774342
v -1.140690 -0.036973 -0.774342
v -1.129590 -0.036973 -0.760051
v -1.129590 0.037096 -0.760051
v -1.129590 -0.040317 -0.931716
v -1.129590 -0.040317 -0.774342
v -1.140690 -0.036973 -0.774342
v -1.140690 -0.036973 -0.931716
v -1.129590 0.040439 -0.774342
v -1.129590 0.040439 -0.931716
v -1.140690 0.037096 -0.931716
v -1.140690 0.037096 -0.774342
v -1.129590 0.037096 -0.946007
v -1.129590 -0.036973 -0.946007
v -1.140690 -0.036973 -0.931716
v -1.140690 0.037096 -0.931716
v -0.883689 -0.040317 -0.931716
v -1.129590 -0.040317 -0.931716
v -1.129590 -0.036973 -0.946007
v -0.883690 -0.036973 -0.946007
v -1.129590 0.040439 -0.931716
v -0.883690 0.040439 -0.931716
v -0.883690 0.037096 -0.946007
v -1.129590 0.037096 -0.946007
v -0.872589 0.037096 -0.931716
v -0.872589 -0.036973 -0.931716
v -0.883690 -0.036973 -0.946007
v -0.883690 0.037096 -0.946007
v -0.883689 -0.040317 -0.774342
v -0.883689 -0.040317 -0.931716
v -0.872589 -0.036973 -0.931716
v -0.872589 -0.036973 -0.774342
v -0.883690 0.040439 -0.931716
v -0.883690 0.040439 -0.774342
v -0.872589 0.037096 -0.774342
v -0.872589 0.037096 -0.931716
v -1.129590 -0.040317 -0.774342
v -1.129590 -0.040317 -0.931716
v -0.883689 -0.040317 -0.931716
v -0.883689 -0.040317 -0.774342
v -0.872589 -0.036973 -0.067369
v -0.872589 0.037095 -0.067369
v -0.872589 0.037095 0.249216
v -0.872589 -0.036973 0.249216
v -1.129590 -0.036973 -0.081659
v -1.129590 0.037095 -0.081659
v -0.883689 0.037095 -0.081659
v -0.883689 -0.036973 -0.081659
v -1.129590 0.040439 -0.067369
v -1.129590 0.040439 0.249216
v -0.883689 0.040439 0.249216
v -0.883689 0.040439 -0.067369
v -0.883689 -0.036973 0.263507
v -0.883689 0.037095 0.263507
v -1.129590 0.037095 0.263507
v -1.129590 -0.036973 0.263507
v -1.140690 -0.036973 0.249216
v -1.140690 0.037095 0.249216
v -1.140690 0.037095 -0.067369
v -1.140690 -0.036973 -0.067369
v -1.129590 -0.040317 0.249216
v -0.883689 -0.040317 0.249216
v -0.883689 -0.036973 0.263507
v -1.129590 -0.036973 0.263507
v -0.872589 -0.036973 0.249216
v -0.872589 0.037095 0.249216
v -0.883689 0.037095 0.263507
v -0.883689 -0.036973 0.263507
v -0.883689 0.040439 0.249216
v -1.129590 0.040439 0.249216
v -1.129590 0.037095 0.263507
v -0.883689 0.037095 0.263507
v -1.140690 0.037095 0.249216
v -1.140690 -0.036973 0.249216
v -1.129590 -0.036973 0.263507
v -1.129590 0.037095 0.263507
v -1.129590 -0.040317 -0.067369
v -1.129590 -0.040317 0.249216
v -1.140690 -0.036973 0.249216
v -1.140690 -0.036973 -0.067369
v -1.129590 0.040439 0.249216
v -1.129590 0.040439 -0.067369
v -1.140690 0.037095 -0.067369
v -1.140690 0.037095 0.249216
v -1.129590 0.037095 -0.081659
v -1.129590 -0.036973 -0.081659
v -1.140690 -0.036973 -0.067369
v -1.140690 0.037095 -0.067369
v -0.883689 -0.040317 -0.067369
v -1.129590 -0.040317 -0.067369
v -1.129590 -0.036973 -0.081659
v -0.883689 -0.036973 -0.081659
v -1.129590 0.040439 -0.067369
v -0.883689 0.040439 -0.067369
v -0.883689 0.037095 -0.081659
v -1.129590 0.037095 -0.081659
v -0.872589 0.037095 -0.067369
v -0.872589 -0.036973 -0.067369
v -0.883689 -0.036973 -0.081659
v -0.883689 0.037095 -0.081659
v -0.883689 -0.040317 0.249216
v -0.883689 -0.040317 -0.067369
v -0.872589 -0.036973 -0.067369
v -0.872589 -0.036973 0.249216
v -0.883689 0.040439 -0.067369
v -0.883689 0.040439 0.249216
v -0.872589 0.037095 0.249216
v -0.872589 0.037095 -0.067369
v -1.129590 -0.040317 0.249216
v -1.129590 -0.040317 -0.067369
v -0.883689 -0.040317 -0.067369
v -0.883689 -0.040317 0.249216
v -0.872589 -0.036973 -0.408385
v -0.872589 0.037096 -0.408385
v -0.872589 0.037096 -0.091800
v -0.872589 -0.036973 -0.091800
v -1.129590 -0.036973 -0.422676
v -1.129590 0.037096 -0.422676
v -0.883689 0.037096 -0.422676
v -0.883689 -0.036973 -0.422676
v -1.129590 0.040439 -0.408385
v -1.129590 0.040439 -0.091800
v -0.883689 0.040439 -0.091800
v -0.883689 0.040439 -0.408385
v -0.883689 -0.036973 -0.077509
v -0.883689 0.037095 -0.077509
v -1.129590 0.037095 -0.077509
v -1.129590 -0.036973 -0.077509
v -1.140690 -0.036973 -0.091800
v -1.140690 0.037096 -0.091800
v -1.140690 0.037096 -0.408385
v -1.140690 -0.036973 -0.408385
v -1.129590 -0.040317 -0.091800
v -0.883689 -0.040317 -0.091800
v -0.883689 -0.036973 -0.077509
v -1.129590 -0.036973 -0.077509
v -0.872589 -0.036973 -0.091800
v -0.872589 0.037096 -0.091800
v -0.883689 0.037095 -0.077509
v -0.883689 -0.036973 -0.077509
v -0.883689 0.040439 -0.091800
v -1.129590 0.040439 -0.091800
v -1.129590 0.037095 -0.077509
v -0.883689 0.037095 -0.077509
v -1.140690 0.037096 -0.091800
v -1.140690 -0.036973 -0.091800
v -1.129590 -0.036973 -0.077509
v -1.129590 0.037095 -0.077509
v -1.129590 -0.040317 -0.408385
v -1.129590 -0.040317 -0.091800
v -1.140690 -0.036973 -0.091800
v -1.140690 -0.036973 -0.408385
v -1.129590 0.040439 -0.091800
v -1.129590 0.040439 -0.408385
v -1.140690 0.037096 -0.408385
v -1.140690 0.037096 -0.091800
v -1.129590 0.037096 -0.422676
v -1.129590 -0.036973 -0.422676
v -1.140690 -0.036973 -0.408385
v -1.140690 0.037096 -0.408385
v -0.883689 -0.040317 -0.408385
v -1.129590 -0.040317 -0.408385
v -1.129590 -0.036973 -0.422676
v -0.883689 -0.036973 -0.422676
v -1.129590 0.040439 -0.408385
v -0.883689 0.040439 -0.408385
v -0.883689 0.037096 -0.422676
v -1.129590 0.037096 -0.422676
v -0.872589 0.037096 -0.408385
v -0.872589 -0.036973 -0.408385
v -0.883689 -0.036973 -0.422676
v -0.883689 0.037096 -0.422676
v -0.883689 -0.040317 -0.091800
v -0.883689 -0.040317 -0.408385
v -0.872589 -0.036973 -0.408385
v -0.872589 -0.036973 -0.091800
v -0.883689 0.040439 -0.408385
v -0.883689 0.040439 -0.091800
v -0.872589 0.037096 -0.091800
v -0.872589 0.037096 -0.408385
v -1.129590 -0.040317 -0.091800
v -1.129590 -0.040317 -0.408385
v -0.883689 -0.040317 -0.408385
v -0.883689 -0.040317 -0.091800
v -0.872589 -0.036973 0.615276
v -0.872589 0.037095 0.615276
v -0.872589 0.037095 0.931860
v -0.872589 -0.036974 0.931860
v -1.129590 -0.036973 0.600985
v -1.129590 0.037095 0.600985
v -0.883689 0.037095 0.600985
v -0.883689 -0.036973 0.600985
v -1.129590 0.040439 0.615276
v -1.129590 0.040439 0.931860
v -0.883689 0.040439 0.931860
v -0.883689 0.040439 0.615276
v -0.883689 -0.036974 0.946151
v -0.883689 0.037095 0.946151
v -1.129590 0.037095 0.946151
v -1.129590 -0.036974 0.946151
v -1.140690 -0.036974 0.931860
v -1.140690 0.037095 0.931860
v -1.140690 0.037095 0.615276
v -1.140690 -0.036974 0.615276
v -1.129590 -0.040317 0.931860
v -0.883689 -0.040317 0.931860
v -0.883689 -0.036974 0.946151
v -1.129590 -0.036974 0.946151
v -0.872589 -0.036974 0.931860
v -0.872589 0.037095 0.931860
v -0.883689 0.037095 0.946151
v -0.883689 -0.036974 0.946151
v -0.883689 0.040439 0.931860
v -1.129590 0.040439 0.931860
v -1.129590 0.037095 0.946151
v -0.883689 0.037095 0.946151
v -1.140690 0.037095 0.931860
v -1.140690 -0.036974 0.931860
v -1.129590 -0.036974 0.946151
v -1.129590 0.037095 0.946151
v -1.129590 -0.040317 0.615276
v -1.129590 -0.040317 0.931860
v -1.140690 -0.036974 0.931860
v -1.140690 -0.036974 0.615276
v -1.129590 0.040439 0.931860
v -1.129590 0.040439 0.615276
v -1.140690 0.037095 0.615276
v -1.140690 0.037095 0.931860
v -1.129590 0.037095 0.600985
v -1.129590 -0.036973 0.600985
v -1.140690 -0.036974 0.615276
v -1.140690 0.037095 0.615276
v -0.883689 -0.040317 0.615276
v -1.129590 -0.040317 0.615276
v -1.129590 -0.036973 0.600985
v -0.883689 -0.036973 0.600985
v -1.129590 0.040439 0.615276
v -0.883689 0.040439 0.615276
v -0.883689 0.037095 0.600985
v -1.129590 0.037095 0.600985
v -0.872589 0.037095 0.615276
v -0.872589 -0.036973 0.615276
v -0.883689 -0.036973 0.600985
v -0.883689 0.037095 0.600985
v -0.883689 -0.040317 0.931860
v -0.883689 -0.040317 0.615276
v -0.872589 -0.036973 0.615276
v -0.872589 -0.036974 0.931860
v -0.883689 0.040439 0.615276
v -0.883689 0.040439 0.931860
v -0.872589 0.037095 0.931860
v -0.872589 0.037095 0.615276
v -1.129590 -0.040317 0.931860
v -1.129590 -0.040317 0.615276
v -0.883689 -0.040317 0.615276
v -0.883689 -0.040317 0.931860
v -0.872589 -0.036973 0.274259
v -0.872589 0.037095 0.274259
v -0.872589 0.037095 0.590844
v -0.872589 -0.036974 0.590844
v -1.129590 -0.036973 0.259968
v -1.129590 0.037095 0.259968
v -0.883689 0.037095 0.259968
v -0.883689 -0.036973 0.259968
v -1.129590 0.040439 0.274259
v -1.129590 0.040439 0.590844
v -0.883689 0.040439 0.590844
v -0.883689 0.040439 0.274259
v -0.883689 -0.036974 0.605135
v -0.883689 0.037095 0.605135
v -1.129590 0.037095 0.605135
v -1.129590 -0.036974 0.605135
v -1.140690 -0.036974 0.590844
v -1.140690 0.037095 0.590844
v -1.140690 0.037095 0.274259
v -1.140690 -0.036973 0.274259
v -1.129590 -0.040317 0.590844
v -0.883689 -0.040317 0.590844
v -0.883689 -0.036974 0.605135
v -1.129590 -0.036974 0.605135
v -0.872589 -0.036974 0.590844
v -0.872589 0.037095 0.590844
v -0.883689 0.037095 0.605135
v -0.883689 -0.036974 0.605135
v -0.883689 0.040439 0.590844
v -1.129590 0.040439 0.590844
v -1.129590 0.037095 0.605135
v -0.883689 0.037095 0.605135
v -1.140690 0.037095 0.590844
v -1.140690 -0.036974 0.590844
v -1.129590 -0.036974 0.605135
v -1.129590 0.037095 0.605135
v -1.129590 -0.040317 0.274259
v -1.129590 -0.040317 0.590844
v -1.140690 -0.036974 0.590844
v -1.140690 -0.036973 0.274259
v -1.129590 0.040439 0.590844
v -1.129590 0.040439 0.274259
v -1.140690 0.037095 0.274259
v -1.140690 0.037095 0.590844
v -1.129590 0.037095 0.259968
v -1.129590 -0.036973 0.259968
v -1.140690 -0.036973 0.274259
v -1.140690 0.037095 0.274259
v -0.883689 -0.040317 0.274259
v -1.129590 -0.040317 0.274259
v -1.129590 -0.036973 0.259968
v -0.883689 -0.036973 0.259968
v -1.129590 0.040439 0.274259
v -0.883689 0.040439 0.274259
v -0.883689 0.037095 0.259968
v -1.129590 0.037095 0.259968
v -0.872589 0.037095 0.274259
v -0.872589 -0.036973 0.274259
v -0.883689 -0.036973 0.259968
v -0.883689 0.037095 0.259968
v -0.883689 -0.040317 0.590844
v -0.883689 -0.040317 0.274259
v -0.872589 -0.036973 0.274259
v -0.872589 -0.036974 0.590844
v -0.883689 0.040439 0.274259
v -0.883689 0.040439 0.590844
v -0.872589 0.037095 0.590844
v -0.872589 0.037095 0.274259
v -1.129590 -0.040317 0.590844
v -1.129590 -0.040317 0.274259
v -0.883689 -0.040317 0.274259
v -0.883689 -0.040317 0.590844
v 0.036293 -0.036974 0.460371
v 0.036293 0.037095 0.460371
v -0.217052 0.037095 0.460371
v -0.217052 -0.036974 0.460371
v 0.047729 -0.036974 0.233708
v 0.047729 0.037095 0.233708
v 0.047729 0.037095 0.450581
v 0.047729 -0.036974 0.450581
v 0.036293 0.040439 0.233708
v -0.217052 0.040439 0.233708
v -0.217052 0.040439 0.450581
v 0.036293 0.040439 0.450581
v -0.228488 -0.036974 0.450581
v -0.228488 0.037095 0.450581
v -0.228488 0.037095 0.233708
v -0.228488 -0.036974 0.233708
v -0.217052 -0.036974 0.223918
v -0.217052 0.037095 0.223918
v 0.036293 0.037095 0.223918
v 0.036293 -0.036974 0.223918
v -0.217052 -0.040317 0.233708
v -0.217052 -0.040317 0.450581
v -0.228488 -0.036974 0.450581
v -0.228488 -0.036974 0.233708
v -0.217052 -0.036974 0.460371
v -0.217052 0.037095 0.460371
v -0.228488 0.037095 0.450581
v -0.228488 -0.036974 0.450581
v -0.217052 0.040439 0.450581
v -0.217052 0.040439 0.233708
v -0.228488 0.037095 0.233708
v -0.228488 0.037095 0.450581
v -0.217052 0.037095 0.223918
v -0.217052 -0.036974 0.223918
v -0.228488 -0.036974 0.233708
v -0.228488 0.037095 0.233708
v 0.036293 -0.040317 0.233708
v -0.217052 -0.040317 0.233708
v -0.217052 -0.036974 0.223918
v 0.036293 -0.036974 0.223918
v -0.217052 0.040439 0.233708
v 0.036293 0.040439 0.233708
v 0.036293 0.037095 0.223918
v -0.217052 0.037095 0.223918
v 0.047729 0.037095 0.233708
v 0.047729 -0.036974 0.233708
v 0.036293 -0.036974 0.223918
v 0.036293 0.037095 0.223918
v 0.036293 -0.040317 0.450581
v 0.036293 -0.040317 0.233708
v 0.047729 -0.036974 0.233708
v 0.047729 -0.036974 0.450581
v 0.036293 0.040439 0.233708
v 0.036293 0.040439 0.450581
v 0.047729 0.037095 0.450581
v 0.047729 0.037095 0.233708
v 0.036293 0.037095 0.460371
v 0.036293 -0.036974 0.460371
v 0.047729 -0.036974 0.450581
v 0.047729 0.037095 0.450581
v -0.217052 -0.040317 0.450581
v 0.036293 -0.040317 0.450581
v 0.036293 -0.036974 0.460371
v -0.217052 -0.036974 0.460371
v 0.036293 0.040439 0.450581
v -0.217052 0.040439 0.450581
v -0.217052 0.037095 0.460371
v 0.036293 0.037095 0.460371
v -0.217052 -0.040317 0.233708
v 0.036293 -0.040317 0.233708
v 0.036293 -0.040317 0.450581
v -0.217052 -0.040317 0.450581
v 0.036293 -0.036974 0.694032
v 0.036293 0.037095 0.694032
v -0.217052 0.037095 0.694032
v -0.217052 -0.036974 0.694032
v 0.047729 -0.036974 0.467369
v 0.047729 0.037095 0.467369
v 0.047729 0.037095 0.684242
v 0.047729 -0.036974 0.684242
v 0.036293 0.040439 0.467369
v -0.217052 0.040439 0.467369
v -0.217052 0.040439 0.684242
v 0.036293 0.040439 0.684242
v -0.228488 -0.036974 0.684242
v -0.228488 0.037095 0.684242
v -0.228488 0.037095 0.467369
v -0.228488 -0.036974 0.467369
v -0.217052 -0.036974 0.457579
v -0.217052 0.037095 0.457579
v 0.036293 0.037095 0.457579
v 0.036293 -0.036974 0.457579
v -0.217052 -0.040317 0.467369
v -0.217052 -0.040317 0.684242
v -0.228488 -0.036974 0.684242
v -0.228488 -0.036974 0.467369
v -0.217052 -0.036974 0.694032
v -0.217052 0.037095 0.694032
v -0.228488 0.037095 0.684242
v -0.228488 -0.036974 0.684242
v -0.217052 0.040439 0.684242
v -0.217052 0.040439 0.467369
v -0.228488 0.037095 0.467369
v -0.228488 0.037095 0.684242
v -0.217052 0.037095 0.457579
v -0.217052 -0.036974 0.457579
v -0.228488 -0.036974 0.467369
v -0.228488 0.037095 0.467369
v 0.036293 -0.040317 0.467369
v -0.217052 -0.040317 0.467369
v -0.217052 -0.036974 0.457579
v 0.036293 -0.036974 0.457579
v -0.217052 0.040439 0.467369
v 0.036293 0.040439 0.467369
v 0.036293 0.037095 0.457579
v -0.217052 0.037095 0.457579
v 0.047729 0.037095 0.467369
v 0.047729 -0.036974 0.467369
v 0.036293 -0.036974 0.457579
v 0.036293 0.037095 0.457579
v 0.036293 -0.040317 0.684242
v 0.036293 -0.040317 0.467369
v 0.047729 -0.036974 0.467369
v 0.047729 -0.036974 0.684242
v 0.036293 0.040439 0.467369
v 0.036293 0.040439 0.684242
v 0.047729 0.037095 0.684242
v 0.047729 0.037095 0.467369
v 0.036293 0.037095 0.694032
v 0.036293 -0.036974 0.694032
v 0.047729 -0.036974 0.684242
v 0.047729 0.037095 0.684242
v -0.217052 -0.040317 0.684242
v 0.036293 -0.040317 0.684242
v 0.036293 -0.036974 0.694032
v -0.217052 -0.036974 0.694032
v 0.036293 0.040439 0.684242
v -0.217052 0.040439 0.684242
v -0.217052 0.037095 0.694032
v 0.036293 0.037095 0.694032
v -0.217052 -0.040317 0.467369
v 0.036293 -0.040317 0.467369
v 0.036293 -0.040317 0.684242
v -0.217052 -0.040317 0.684242
v 0.036293 -0.036974 0.938165
v 0.036293 0.037095 0.938165
v -0.217052 0.037095 0.938165
v -0.217052 -0.036974 0.938165
v 0.047729 -0.036974 0.702351
v 0.047729 0.037095 0.702351
v 0.047729 0.037095 0.927980
v 0.047729 -0.036974 0.927980
v 0.036293 0.040439 0.702351
v -0.217052 0.040439 0.702351
v -0.217052 0.040439 0.927980
v 0.036293 0.040439 0.927980
v -0.228488 -0.036974 0.927980
v -0.228488 0.037095 0.927980
v -0.228488 0.037095 0.702351
v -0.228488 -0.036974 0.702351
v -0.217052 -0.036974 0.692166
v -0.217052 0.037095 0.692166
v 0.036293 0.037095 0.692166
v 0.036293 -0.036974 0.692166
v -0.217052 -0.040317 0.702351
v -0.217052 -0.040317 0.927980
v -0.228488 -0.036974 0.927980
v -0.228488 -0.036974 0.702351
v -0.217052 -0.036974 0.938165
v -0.217052 0.037095 0.938165
v -0.228488 0.037095 0.927980
v -0.228488 -0.036974 0.927980
v -0.217052 0.040439 0.927980
v -0.217052 0.040439 0.702351
v -0.228488 0.037095 0.702351
v -0.228488 0.037095 0.927980
v -0.217052 0.037095 0.692166
v -0.217052 -0.036974 0.692166
v -0.228488 -0.036974 0.702351
v -0.228488 0.037095 0.702351
v 0.036293 -0.040317 0.702351
v -0.217052 -0.040317 0.702351
v -0.217052 -0.036974 0.692166
v 0.036293 -0.036974 0.692166
v -0.217052 0.040439 0.702351
v 0.036293 0.040439 0.702351
v 0.036293 0.037095 0.692166
v -0.217052 0.037095 0.692166
v 0.047729 0.037095 0.702351
v 0.047729 -0.036974 0.702351
v 0.036293 -0.036974 0.692166
v 0.036293 0.037095 0.692166
v 0.036293 -0.040317 0.927980
v 0.036293 -0.040317 0.702351
v 0.047729 -0.036974 0.702351
v 0.047729 -0.036974 0.927980
v 0.036293 0.040439 0.702351
v 0.036293 0.040439 0.927980
v 0.047729 0.037095 0.927980
v 0.047729 0.037095 0.702351
v 0.036293 0.037095 0.938165
v 0.036293 -0.036974 0.938165
v 0.047729 -0.036974 0.927980
v 0.047729 0.037095 0.927980
v -0.217052 -0.040317 0.927980
v 0.036293 -0.040317 0.927980
v 0.036293 -0.036974 0.938165
v -0.217052 -0.036974 0.938165
v 0.036293 0.040439 0.927980
v -0.217052 0.040439 0.927980
v -0.217052 0.037095 0.938165
v 0.036293 0.037095 0.938165
v -0.217052 -0.040317 0.702351
v 0.036293 -0.040317 0.702351
v 0.036293 -0.040317 0.927980
v -0.217052 -0.040317 0.927980
vn -0.2186 -0.9343 0.2814
vn -0.2186 0.9343 0.2814
vn -0.2186 -0.9343 -0.2814
vn -0.2186 0.9343 -0.2814
vn 0.2186 -0.9343 0.2814
vn 0.2186 0.9343 0.2814
vn 0.2186 -0.9343 -0.2814
vn 0.2186 0.9343 -0.2814
vn 0.2814 -0.9343 0.2186
vn 0.2814 0.9343 0.2186
vn -0.2814 -0.9343 0.2186
vn -0.2814 0.9343 0.2186
vn 0.2814 -0.9343 -0.2186
vn 0.2814 0.9343 -0.2186
vn -0.2814 -0.9343 -0.2186
vn -0.2814 0.9343 -0.2186
vn -0.2814 -0.9344 0.2186
vn -0.2814 -0.9344 -0.2186
vn -0.2667 -0.9121 0.3115
vn -0.2667 0.9121 0.3115
vn -0.2667 -0.9121 -0.3115
vn -0.2667 0.9121 -0.3115
vn 0.2667 -0.9121 0.3115
vn 0.2667 0.9121 0.3115
vn 0.2667 -0.9121 -0.3115
vn 0.2667 0.9121 -0.3115
vn -0.2676 -0.9155 0.3005
vn -0.2676 0.9155 0.3005
vn -0.2676 -0.9155 -0.3005
vn -0.2676 0.9155 -0.3005
vn 0.2676 -0.9155 0.3005
vn 0.2676 0.9155 0.3005
vn 0.2676 -0.9155 -0.3005
vn 0.2676 0.9155 -0.3005
vn -0.0000 -0.0000 1.0000
vn 1.0000 -0.0000 -0.0000
vn -0.0000 1.0000 -0.0000
vn -1.0000 -0.0000 -0.0000
vn -0.0000 -0.0000 -1.0000
vn -0.2278 -0.9737 -0.0000
vn -0.6134 -0.0000 0.7898
vn -0.6134 -0.0000 0.7897
vn -0.2278 0.9737 -0.0000
vn -0.6134 -0.0000 -0.7897
vn -0.6134 -0.0000 -0.7898
vn -0.0000 -0.9575 -0.2884
vn -0.0000 0.9575 -0.2884
vn 0.6134 -0.0000 -0.7898
vn 0.2278 -0.9737 -0.0000
vn 0.2278 0.9737 -0.0000
vn 0.6134 -0.0000 0.7898
vn 0.6134 -0.0000 0.7897
vn -0.0000 -0.9575 0.2884
vn -0.0000 0.9575 0.2884
vn -0.0000 -1.0000 -0.0000
vn -0.0000 -0.9737 0.2278
vn 0.7898 -0.0000 0.6134
vn -0.0000 0.9737 0.2278
vn -0.7898 -0.0000 0.6134
vn -0.2884 -0.9575 -0.0000
vn -0.2884 0.9575 -0.0000
vn -0.7898 -0.0000 -0.6134
vn -0.0000 -0.9737 -0.2278
vn -0.0000 0.9737 -0.2278
vn 0.7898 -0.0000 -0.6134
vn 0.2884 -0.9575 -0.0000
vn 0.2884 0.9575 -0.0000
vn 0.7897 -0.0000 0.6134
vn -0.7897 -0.0000 0.6134
vn -0.7897 -0.0000 -0.6134
vn -0.2806 -0.9598 -0.0000
vn -0.6503 -0.0000 0.7597
vn -0.2806 0.9598 -0.0000
vn -0.6503 -0.0000 -0.7597
vn -0.0000 -0.9463 -0.3232
vn -0.0000 0.9463 -0.3232
vn 0.6503 -0.0000 -0.7597
vn 0.2806 -0.9598 -0.0000
vn 0.2806 0.9598 -0.0000
vn 0.6503 -0.0000 0.7597
vn -0.0000 -0.9463 0.3232
vn -0.0000 0.9463 0.3232
vn -0.6651 -0.0000 0.7468
vn -0.6651 -0.0000 -0.7468
vn -0.0000 -0.9501 -0.3119
vn -0.0000 0.9501 -0.3119
vn 0.6651 -0.0000 -0.7468
vn 0.6651 -0.0000 0.7468
vn -0.0000 -0.9501 0.3119
vn -0.0000 0.9501 0.3119
vt 0.135351 0.260351
vt 0.135351 0.250000
vt 0.125000 0.260351
vt 0.614649 1.000000
vt 0.625000 0.989649
vt 0.614649 0.989649
vt 0.135351 0.489649
vt 0.125000 0.489649
vt 0.135351 0.500000
vt 0.625000 0.760351
vt 0.614649 0.750000
vt 0.614649 0.760351
vt 0.364649 0.260351
vt 0.375000 0.260351
vt 0.364649 0.250000
vt 0.625000 0.239649
vt 0.614649 0.239649
vt 0.614649 0.250000
vt 0.364649 0.489649
vt 0.364649 0.500000
vt 0.375000 0.489649
vt 0.625000 0.510351
vt 0.614649 0.500000
vt 0.614649 0.510351
vt 0.385351 0.239649
vt 0.614649 0.010351
vt 0.385351 0.010351
vt 0.385351 0.489649
vt 0.614649 0.489649
vt 0.614649 0.260351
vt 0.385351 0.260351
vt 0.635351 0.489649
vt 0.864649 0.489649
vt 0.864649 0.260351
vt 0.635351 0.260351
vt 0.385351 0.989649
vt 0.385351 0.760351
vt 0.385351 0.739649
vt 0.614649 0.739649
vt 0.385351 0.510351
vt 0.385351 1.000000
vt 0.625000 0.739649
vt 0.364649 0.250000
vt 0.625000 0.010351
s 1
usemtl Material.006
f 1/1/1 2/2/1 3/3/1
s 0
f 4/4/2 5/5/2 6/6/2
s 1
f 7/7/3 8/8/3 9/9/3
s 0
f 10/10/4 11/11/4 12/12/4
f 13/13/5 14/14/5 15/15/5
f 16/16/6 17/17/6 18/18/6
f 19/19/7 20/20/7 21/21/7
f 22/22/8 23/23/8 24/24/8
f 25/1/1 26/2/1 27/3/1
f 28/4/2 29/5/2 30/6/2
s 1
f 31/7/3 32/8/3 33/9/3
s 0
f 34/10/4 35/11/4 36/12/4
f 37/13/5 38/14/5 39/15/5
f 40/16/6 41/17/6 42/18/6
f 43/19/7 44/20/7 45/21/7
f 46/22/8 47/23/8 48/24/8
f 49/1/1 50/2/1 51/3/1
f 52/4/2 53/5/2 54/6/2
f 55/7/3 56/8/3 57/9/3
f 58/10/4 59/11/4 60/12/4
f 61/13/5 62/14/5 63/15/5
f 64/16/6 65/17/6 66/18/6
f 67/19/7 68/20/7 69/21/7
f 70/22/8 71/23/8 72/24/8
f 73/1/1 74/2/1 75/3/1
f 76/4/2 77/5/2 78/6/2
f 79/7/3 80/8/3 81/9/3
f 82/10/4 83/11/4 84/12/4
f 85/13/5 86/14/5 87/15/5
f 88/16/6 89/17/6 90/18/6
f 91/19/7 92/20/7 93/21/7
f 94/22/8 95/23/8 96/24/8
f 97/1/1 98/2/1 99/3/1
f 100/4/2 101/5/2 102/6/2
f 103/7/3 104/8/3 105/9/3
f 106/10/4 107/11/4 108/12/4
f 109/13/5 110/14/5 111/15/5
f 112/16/6 113/17/6 114/18/6
s 1
f 115/19/7 116/20/7 117/21/7
s 0
f 118/22/8 119/23/8 120/24/8
f 121/13/5 122/14/5 123/15/5
f 124/1/1 125/2/1 126/3/1
f 127/4/2 128/5/2 129/6/2
f 130/7/3 131/8/3 132/9/3
f 133/10/4 134/11/4 135/12/4
f 136/13/5 137/14/5 138/15/5
f 139/16/6 140/17/6 141/18/6
f 142/19/7 143/20/7 144/21/7
f 145/22/8 146/23/8 147/24/8
f 148/1/1 149/2/1 150/3/1
f 151/4/2 152/5/2 153/6/2
f 154/7/3 155/8/3 156/9/3
f 157/10/4 158/11/4 159/12/4
f 160/13/5 161/14/5 162/15/5
f 163/16/6 164/17/6 165/18/6
f 166/19/7 167/20/7 168/21/7
f 169/22/8 170/23/8 171/24/8
f 172/1/1 173/2/1 174/3/1
f 175/4/2 176/5/2 177/6/2
f 178/7/3 179/8/3 180/9/3
f 181/10/4 182/11/4 183/12/4
f 184/13/5 185/14/5 186/15/5
f 187/16/6 188/17/6 189/18/6
f 190/19/7 191/20/7 192/21/7
f 193/22/8 194/23/8 195/24/8
f 196/1/1 197/2/1 198/3/1
f 199/4/2 200/5/2 201/6/2
f 202/7/3 203/8/3 204/9/3
f 205/10/4 206/11/4 207/12/4
f 208/13/5 209/14/5 210/15/5
f 211/16/6 212/17/6 213/18/6
f 214/19/7 215/20/7 216/21/7
f 217/22/8 218/23/8 219/24/8
s 1
f 220/1/1 221/2/1 222/3/1
s 0
f 223/4/2 224/5/2 225/6/2
f 226/7/3 227/8/3 228/9/3
f 229/10/4 230/11/4 231/12/4
s 1
f 232/13/5 233/14/5 234/15/5
s 0
f 235/16/6 236/17/6 237/18/6
f 238/19/7 239/20/7 240/21/7
f 241/22/8 242/23/8 243/24/8
f 244/1/9 245/2/9 246/3/9
f 247/4/10 248/5/10 249/6/10
f 250/7/11 251/8/11 252/9/11
f 253/10/12 254/11/12 255/12/12
f 256/13/13 257/14/13 258/15/13
f 259/16/14 260/17/14 261/18/14
f 262/19/15 263/20/15 264/21/15
f 265/22/16 266/23/16 267/24/16
f 268/1/9 269/2/9 270/3/9
f 271/4/10 272/5/10 273/6/10
f 274/7/17 275/8/17 276/9/17
f 277/10/12 278/11/12 279/12/12
f 280/13/13 281/14/13 282/15/13
f 283/16/14 284/17/14 285/18/14
f 286/19/18 287/20/18 288/21/18
f 289/22/16 290/23/16 291/24/16
f 292/1/9 293/2/9 294/3/9
f 295/4/10 296/5/10 297/6/10
f 298/7/17 299/8/17 300/9/17
f 301/10/12 302/11/12 303/12/12
f 304/13/13 305/14/13 306/15/13
f 307/16/14 308/17/14 309/18/14
f 310/19/15 311/20/15 312/21/15
f 313/22/16 314/23/16 315/24/16
f 316/1/9 317/2/9 318/3/9
f 319/4/10 320/5/10 321/6/10
f 322/7/11 323/8/11 324/9/11
f 325/10/12 326/11/12 327/12/12
f 328/13/13 329/14/13 330/15/13
f 331/16/14 332/17/14 333/18/14
f 334/19/15 335/20/15 336/21/15
f 337/22/16 338/23/16 339/24/16
f 340/1/9 341/2/9 342/3/9
f 343/4/10 344/5/10 345/6/10
f 346/7/11 347/8/11 348/9/11
f 349/10/12 350/11/12 351/12/12
f 352/13/13 353/14/13 354/15/13
f 355/16/14 356/17/14 357/18/14
f 358/19/15 359/20/15 360/21/15
f 361/22/16 362/23/16 363/24/16
f 364/1/9 365/2/9 366/3/9
f 367/4/10 368/5/10 369/6/10
f 370/7/11 371/8/11 372/9/11
f 373/10/12 374/11/12 375/12/12
f 376/13/13 377/14/13 378/15/13
f 379/16/14 380/17/14 381/18/14
f 382/19/15 383/20/15 384/21/15
f 385/22/16 386/23/16 387/24/16
f 388/1/19 389/2/19 390/3/19
f 391/4/20 392/5/20 393/6/20
f 394/7/21 395/8/21 396/9/21
s 1
f 397/10/22 398/11/22 399/12/22
s 0
f 400/13/23 401/14/23 402/15/23
f 403/16/24 404/17/24 405/18/24
f 406/19/25 407/20/25 408/21/25
f 409/22/26 410/23/26 411/24/26
f 412/1/19 413/2/19 414/3/19
f 415/4/20 416/5/20 417/6/20
f 418/7/21 419/8/21 420/9/21
f 421/10/22 422/11/22 423/12/22
f 424/13/23 425/14/23 426/15/23
s 1
f 427/16/24 428/17/24 429/18/24
s 0
f 430/19/25 431/20/25 432/21/25
f 433/22/26 434/23/26 435/24/26
f 436/1/27 437/2/27 438/3/27
f 439/4/28 440/5/28 441/6/28
f 442/7/29 443/8/29 444/9/29
f 445/10/30 446/11/30 447/12/30
f 448/13/31 449/14/31 450/15/31
f 451/16/32 452/17/32 453/18/32
s 1
f 454/19/33 455/20/33 456/21/33
s 0
f 457/22/34 458/23/34 459/24/34
f 460/25/35 461/17/35 462/26/35
f 460/25/35 462/26/35 463/27/35
f 464/28/36 465/29/36 466/30/36
f 464/28/36 466/30/36 467/31/36
f 468/32/37 469/33/37 470/34/37
f 468/32/37 470/34/37 471/35/37
f 472/36/38 473/6/38 474/12/38
f 472/36/38 474/12/38 475/37/38
f 476/38/39 477/39/39 478/24/39
f 476/38/39 478/24/39 479/40/39
f 480/7/40 481/1/40 482/3/40
f 480/7/40 482/3/40 483/8/40
f 484/41/41 485/4/41 486/6/41
f 484/41/42 486/6/42 487/36/42
f 488/5/43 489/10/43 490/12/43
f 488/5/43 490/12/43 491/6/43
f 492/39/44 493/38/44 494/37/44
f 492/39/45 494/37/45 495/12/45
f 496/19/46 497/7/46 498/9/46
f 496/19/46 498/9/46 499/20/46
f 500/42/47 501/22/47 502/24/47
f 500/42/47 502/24/47 503/39/47
f 504/29/48 505/28/48 506/40/48
f 504/29/48 506/40/48 507/24/48
f 508/13/49 509/19/49 510/28/49
f 508/13/49 510/28/49 511/31/49
f 512/32/50 513/35/50 514/30/50
f 512/32/50 514/30/50 515/29/50
f 516/17/51 517/25/51 518/31/51
f 516/17/52 518/31/52 519/30/52
f 520/1/53 521/13/53 522/43/53
f 520/1/53 522/43/53 523/2/53
f 524/16/54 525/44/54 526/26/54
f 524/16/54 526/26/54 527/17/54
f 528/7/55 529/19/55 530/13/55
f 528/7/55 530/13/55 531/1/55
f 532/25/35 533/17/35 534/26/35
f 532/25/35 534/26/35 535/27/35
f 536/28/36 537/29/36 538/30/36
f 536/28/36 538/30/36 539/31/36
f 540/32/37 541/33/37 542/34/37
f 540/32/37 542/34/37 543/35/37
f 544/36/38 545/6/38 546/12/38
f 544/36/38 546/12/38 547/37/38
f 548/38/39 549/39/39 550/24/39
f 548/38/39 550/24/39 551/40/39
f 552/7/40 553/1/40 554/3/40
f 552/7/40 554/3/40 555/8/40
f 556/41/41 557/4/41 558/6/41
f 556/41/41 558/6/41 559/36/41
f 560/5/43 561/10/43 562/12/43
f 560/5/43 562/12/43 563/6/43
f 564/39/45 565/38/45 566/37/45
f 564/39/45 566/37/45 567/12/45
f 568/19/46 569/7/46 570/9/46
f 568/19/46 570/9/46 571/20/46
f 572/42/47 573/22/47 574/24/47
f 572/42/47 574/24/47 575/39/47
f 576/29/48 577/28/48 578/40/48
f 576/29/48 578/40/48 579/24/48
f 580/13/49 581/19/49 582/28/49
f 580/13/49 582/28/49 583/31/49
f 584/32/50 585/35/50 586/30/50
f 584/32/50 586/30/50 587/29/50
f 588/17/51 589/25/51 590/31/51
f 588/17/51 590/31/51 591/30/51
f 592/1/53 593/13/53 594/43/53
f 592/1/53 594/43/53 595/2/53
f 596/16/54 597/44/54 598/26/54
f 596/16/54 598/26/54 599/17/54
f 600/7/55 601/19/55 602/13/55
f 600/7/55 602/13/55 603/1/55
f 604/25/35 605/17/35 606/26/35
f 604/25/35 606/26/35 607/27/35
f 608/28/36 609/29/36 610/30/36
f 608/28/36 610/30/36 611/31/36
f 612/32/37 613/33/37 614/34/37
f 612/32/37 614/34/37 615/35/37
f 616/36/38 617/6/38 618/12/38
f 616/36/38 618/12/38 619/37/38
f 620/38/39 621/39/39 622/24/39
f 620/38/39 622/24/39 623/40/39
f 624/7/40 625/1/40 626/3/40
f 624/7/40 626/3/40 627/8/40
f 628/41/41 629/4/41 630/6/41
f 628/41/41 630/6/41 631/36/41
f 632/5/43 633/10/43 634/12/43
f 632/5/43 634/12/43 635/6/43
f 636/39/45 637/38/45 638/37/45
f 636/39/45 638/37/45 639/12/45
f 640/19/46 641/7/46 642/9/46
f 640/19/46 642/9/46 643/20/46
f 644/42/47 645/22/47 646/24/47
f 644/42/47 646/24/47 647/39/47
f 648/29/48 649/28/48 650/40/48
f 648/29/48 650/40/48 651/24/48
f 652/13/49 653/19/49 654/28/49
f 652/13/49 654/28/49 655/31/49
f 656/32/50 657/35/50 658/30/50
f 656/32/50 658/30/50 659/29/50
f 660/17/51 661/25/51 662/31/51
f 660/17/51 662/31/51 663/30/51
f 664/1/53 665/13/53 666/43/53
f 664/1/53 666/43/53 667/2/53
s 1
f 668/16/54 669/44/54 670/26/54
s 0
f 668/16/54 670/26/54 671/17/54
f 672/7/55 673/19/55 674/13/55
f 672/7/55 674/13/55 675/1/55
f 676/25/35 677/17/35 678/26/35
f 676/25/35 678/26/35 679/27/35
f 680/28/36 681/29/36 682/30/36
f 680/28/36 682/30/36 683/31/36
f 684/32/37 685/33/37 686/34/37
f 684/32/37 686/34/37 687/35/37
f 688/38/39 689/39/39 690/24/39
f 688/38/39 690/24/39 691/40/39
f 692/7/40 693/1/40 694/3/40
f 692/7/40 694/3/40 695/8/40
f 696/41/41 697/4/41 698/6/41
f 696/41/41 698/6/41 699/36/41
f 700/5/43 701/10/43 702/12/43
f 700/5/43 702/12/43 703/6/43
f 704/39/45 705/38/45 706/37/45
f 704/39/45 706/37/45 707/12/45
f 708/19/46 709/7/46 710/9/46
f 708/19/46 710/9/46 711/20/46
f 712/42/47 713/22/47 714/24/47
f 712/42/47 714/24/47 715/39/47
f 716/29/48 717/28/48 718/40/48
f 716/29/48 718/40/48 719/24/48
f 720/13/49 721/19/49 722/28/49
f 720/13/49 722/28/49 723/31/49
f 724/32/50 725/35/50 726/30/50
f 724/32/50 726/30/50 727/29/50
f 728/17/51 729/25/51 730/31/51
f 728/17/51 730/31/51 731/30/51
f 732/1/53 733/13/53 734/43/53
f 732/1/53 734/43/53 735/2/53
f 736/16/54 737/44/54 738/26/54
f 736/16/54 738/26/54 739/17/54
f 740/7/55 741/19/55 742/13/55
f 740/7/55 742/13/55 743/1/55
f 744/25/35 745/17/35 746/26/35
f 744/25/35 746/26/35 747/27/35
f 748/28/36 749/29/36 750/30/36
f 748/28/36 750/30/36 751/31/36
f 752/32/37 753/33/37 754/34/37
s 1
f 752/32/37 754/34/37 755/35/37
s 0
f 756/36/38 757/6/38 758/12/38
f 756/36/38 758/12/38 759/37/38
f 760/38/39 761/39/39 762/24/39
f 760/38/39 762/24/39 763/40/39
f 764/7/40 765/1/40 766/3/40
f 764/7/40 766/3/40 767/8/40
f 768/41/41 769/4/41 770/6/41
f 768/41/41 770/6/41 771/36/41
f 772/5/43 773/10/43 774/12/43
f 772/5/43 774/12/43 775/6/43
f 776/39/45 777/38/45 778/37/45
f 776/39/45 778/37/45 779/12/45
f 780/19/46 781/7/46 782/9/46
f 780/19/46 782/9/46 783/20/46
f 784/42/47 785/22/47 786/24/47
f 784/42/47 786/24/47 787/39/47
f 788/29/48 789/28/48 790/40/48
f 788/29/48 790/40/48 791/24/48
f 792/13/49 793/19/49 794/28/49
f 792/13/49 794/28/49 795/31/49
f 796/32/50 797/35/50 798/30/50
f 796/32/50 798/30/50 799/29/50
f 800/17/51 801/25/51 802/31/51
f 800/17/51 802/31/51 803/30/51
f 804/1/53 805/13/53 806/43/53
f 804/1/53 806/43/53 807/2/53
f 808/16/54 809/44/54 810/26/54
f 808/16/54 810/26/54 811/17/54
f 812/7/55 813/19/55 814/13/55
f 812/7/55 814/13/55 815/1/55
f 816/28/36 817/29/36 818/30/36
f 816/28/36 818/30/36 819/31/36
f 820/25/35 821/17/35 822/26/35
f 820/25/35 822/26/35 823/27/35
f 824/28/36 825/29/36 826/30/36
f 824/28/36 826/30/36 827/31/36
f 828/32/37 829/33/37 830/34/37
f 828/32/37 830/34/37 831/35/37
f 832/36/38 833/6/38 834/12/38
f 832/36/38 834/12/38 835/37/38
f 836/38/39 837/39/39 838/24/39
f 836/38/39 838/24/39 839/40/39
f 840/7/40 841/1/40 842/3/40
f 840/7/40 842/3/40 843/8/40
f 844/41/41 845/4/41 846/6/41
f 844/41/41 846/6/41 847/36/41
f 848/5/43 849/10/43 850/12/43
f 848/5/43 850/12/43 851/6/43
f 852/39/45 853/38/45 854/37/45
f 852/39/45 854/37/45 855/12/45
f 856/19/46 857/7/46 858/9/46
f 856/19/46 858/9/46 859/20/46
f 860/42/47 861/22/47 862/24/47
f 860/42/47 862/24/47 863/39/47
f 864/29/48 865/28/48 866/40/48
f 864/29/48 866/40/48 867/24/48
f 868/13/49 869/19/49 870/28/49
f 868/13/49 870/28/49 871/31/49
f 872/32/50 873/35/50 874/30/50
f 872/32/50 874/30/50 875/29/50
f 876/17/51 877/25/51 878/31/51
f 876/17/51 878/31/51 879/30/51
f 880/1/53 881/13/53 882/43/53
f 880/1/53 882/43/53 883/2/53
f 884/16/54 885/44/54 886/26/54
f 884/16/54 886/26/54 887/17/54
f 888/7/55 889/19/55 890/13/55
f 888/7/55 890/13/55 891/1/55
f 892/25/35 893/17/35 894/26/35
f 892/25/35 894/26/35 895/27/35
f 896/28/36 897/29/36 898/30/36
f 896/28/36 898/30/36 899/31/36
f 900/32/37 901/33/37 902/34/37
f 900/32/37 902/34/37 903/35/37
f 904/36/38 905/6/38 906/12/38
f 904/36/38 906/12/38 907/37/38
f 908/38/39 909/39/39 910/24/39
f 908/38/39 910/24/39 911/40/39
f 912/7/40 913/1/40 914/3/40
f 912/7/40 914/3/40 915/8/40
f 916/41/41 917/4/41 918/6/41
f 916/41/41 918/6/41 919/36/41
f 920/5/43 921/10/43 922/12/43
f 920/5/43 922/12/43 923/6/43
f 924/39/45 925/38/45 926/37/45
f 924/39/45 926/37/45 927/12/45
f 928/19/46 929/7/46 930/9/46
f 928/19/46 930/9/46 931/20/46
f 932/42/47 933/22/47 934/24/47
f 932/42/47 934/24/47 935/39/47
f 936/29/48 937/28/48 938/40/48
f 936/29/48 938/40/48 939/24/48
f 940/13/49 941/19/49 942/28/49
f 940/13/49 942/28/49 943/31/49
f 944/32/50 945/35/50 946/30/50
f 944/32/50 946/30/50 947/29/50
f 948/17/51 949/25/51 950/31/51
f 948/17/51 950/31/51 951/30/51
f 952/1/53 953/13/53 954/43/53
f 952/1/53 954/43/53 955/2/53
s 1
f 956/16/54 957/44/54 958/26/54
s 0
f 956/16/54 958/26/54 959/17/54
f 960/7/55 961/19/55 962/13/55
f 960/7/55 962/13/55 963/1/55
f 964/25/35 965/17/35 966/26/35
f 964/25/35 966/26/35 967/27/35
f 968/28/36 969/29/36 970/30/36
f 968/28/36 970/30/36 971/31/36
f 972/32/37 973/33/37 974/34/37
f 972/32/37 974/34/37 975/35/37
f 976/36/38 977/6/38 978/12/38
f 976/36/38 978/12/38 979/37/38
f 980/38/39 981/39/39 982/24/39
f 980/38/39 982/24/39 983/40/39
f 984/7/40 985/1/40 986/3/40
f 984/7/40 986/3/40 987/8/40
f 988/41/41 989/4/41 990/6/41
f 988/41/41 990/6/41 991/36/41
f 992/5/43 993/10/43 994/12/43
f 992/5/43 994/12/43 995/6/43
f 996/39/45 997/38/45 998/37/45
f 996/39/45 998/37/45 999/12/45
f 1000/19/46 1001/7/46 1002/9/46
f 1000/19/46 1002/9/46 1003/20/46
f 1004/42/47 1005/22/47 1006/24/47
f 1004/42/47 1006/24/47 1007/39/47
f 1008/29/48 1009/28/48 1010/40/48
f 1008/29/48 1010/40/48 1011/24/48
f 1012/13/49 1013/19/49 1014/28/49
f 1012/13/49 1014/28/49 1015/31/49
f 1016/32/50 1017/35/50 1018/30/50
f 1016/32/50 1018/30/50 1019/29/50
f 1020/17/51 1021/25/51 1022/31/51
f 1020/17/51 1022/31/51 1023/30/51
f 1024/1/53 1025/13/53 1026/43/53
f 1024/1/53 1026/43/53 1027/2/53
f 1028/16/54 1029/44/54 1030/26/54
f 1028/16/54 1030/26/54 1031/17/54
f 1032/7/55 1033/19/55 1034/13/55
f 1032/7/55 1034/13/55 1035/1/55
f 1036/25/35 1037/17/35 1038/26/35
f 1036/25/35 1038/26/35 1039/27/35
f 1040/28/36 1041/29/36 1042/30/36
f 1040/28/36 1042/30/36 1043/31/36
f 1044/32/37 1045/33/37 1046/34/37
f 1044/32/37 1046/34/37 1047/35/37
f 1048/36/38 1049/6/38 1050/12/38
f 1048/36/38 1050/12/38 1051/37/38
f 1052/38/39 1053/39/39 1054/24/39
f 1052/38/39 1054/24/39 1055/40/39
f 1056/7/40 1057/1/40 1058/3/40
f 1056/7/40 1058/3/40 1059/8/40
f 1060/41/41 1061/4/41 1062/6/41
f 1060/41/41 1062/6/41 1063/36/41
f 1064/5/43 1065/10/43 1066/12/43
f 1064/5/43 1066/12/43 1067/6/43
f 1068/39/45 1069/38/45 1070/37/45
f 1068/39/45 1070/37/45 1071/12/45
f 1072/19/46 1073/7/46 1074/9/46
f 1072/19/46 1074/9/46 1075/20/46
f 1076/42/47 1077/22/47 1078/24/47
f 1076/42/47 1078/24/47 1079/39/47
f 1080/29/48 1081/28/48 1082/40/48
f 1080/29/48 1082/40/48 1083/24/48
f 1084/13/49 1085/19/49 1086/28/49
f 1084/13/49 1086/28/49 1087/31/49
f 1088/32/50 1089/35/50 1090/30/50
f 1088/32/50 1090/30/50 1091/29/50
f 1092/17/51 1093/25/51 1094/31/51
f 1092/17/51 1094/31/51 1095/30/51
f 1096/1/53 1097/13/53 1098/43/53
f 1096/1/53 1098/43/53 1099/2/53
f 1100/16/54 1101/44/54 1102/26/54
f 1100/16/54 1102/26/54 1103/17/54
f 1104/7/55 1105/19/55 1106/13/55
f 1104/7/55 1106/13/55 1107/1/55
f 1108/25/35 1109/17/35 1110/26/35
f 1108/25/35 1110/26/35 1111/27/35
f 1112/28/36 1113/29/36 1114/30/36
f 1112/28/36 1114/30/36 1115/31/36
f 1116/32/37 1117/33/37 1118/34/37
f 1116/32/37 1118/34/37 1119/35/37
f 1120/36/38 1121/6/38 1122/12/38
f 1120/36/38 1122/12/38 1123/37/38
f 1124/38/39 1125/39/39 1126/24/39
f 1124/38/39 1126/24/39 1127/40/39
f 1128/7/40 1129/1/40 1130/3/40
f 1128/7/40 1130/3/40 1131/8/40
f 1132/41/41 1133/4/41 1134/6/41
f 1132/41/41 1134/6/41 1135/36/41
f 1136/5/43 1137/10/43 1138/12/43
f 1136/5/43 1138/12/43 1139/6/43
f 1140/39/45 1141/38/45 1142/37/45
f 1140/39/45 1142/37/45 1143/12/45
f 1144/19/46 1145/7/46 1146/9/46
f 1144/19/46 1146/9/46 1147/20/46
f 1148/42/47 1149/22/47 1150/24/47
f 1148/42/47 1150/24/47 1151/39/47
f 1152/29/48 1153/28/48 1154/40/48
f 1152/29/48 1154/40/48 1155/24/48
f 1156/13/49 1157/19/49 1158/28/49
f 1156/13/49 1158/28/49 1159/31/49
f 1160/32/50 1161/35/50 1162/30/50
f 1160/32/50 1162/30/50 1163/29/50
f 1164/17/51 1165/25/51 1166/31/51
f 1164/17/51 1166/31/51 1167/30/51
f 1168/1/53 1169/13/53 1170/43/53
f 1168/1/53 1170/43/53 1171/2/53
f 1172/16/54 1173/44/54 1174/26/54
f 1172/16/54 1174/26/54 1175/17/54
f 1176/7/55 1177/19/55 1178/13/55
f 1176/7/55 1178/13/55 1179/1/55
f 1180/25/36 1181/17/36 1182/26/36
f 1180/25/36 1182/26/36 1183/27/36
f 1184/28/39 1185/29/39 1186/30/39
f 1184/28/39 1186/30/39 1187/31/39
f 1188/32/37 1189/33/37 1190/34/37
f 1188/32/37 1190/34/37 1191/35/37
f 1192/36/35 1193/6/35 1194/12/35
f 1192/36/35 1194/12/35 1195/37/35
f 1196/38/38 1197/39/38 1198/24/38
f 1196/38/38 1198/24/38 1199/40/38
s 1
f 1200/7/56 1201/1/56 1202/3/56
s 0
f 1200/7/56 1202/3/56 1203/8/56
f 1204/41/57 1205/4/57 1206/6/57
f 1204/41/57 1206/6/57 1207/36/57
f 1208/5/58 1209/10/58 1210/12/58
f 1208/5/58 1210/12/58 1211/6/58
f 1212/39/59 1213/38/59 1214/37/59
f 1212/39/59 1214/37/59 1215/12/59
f 1216/19/60 1217/7/60 1218/9/60
f 1216/19/60 1218/9/60 1219/20/60
f 1220/42/61 1221/22/61 1222/24/61
f 1220/42/61 1222/24/61 1223/39/61
f 1224/29/62 1225/28/62 1226/40/62
f 1224/29/62 1226/40/62 1227/24/62
f 1228/13/63 1229/19/63 1230/28/63
f 1228/13/63 1230/28/63 1231/31/63
f 1232/32/64 1233/35/64 1234/30/64
f 1232/32/64 1234/30/64 1235/29/64
f 1236/17/65 1237/25/65 1238/31/65
f 1236/17/65 1238/31/65 1239/30/65
f 1240/1/66 1241/13/66 1242/43/66
f 1240/1/66 1242/43/66 1243/2/66
f 1244/16/67 1245/44/67 1246/26/67
f 1244/16/67 1246/26/67 1247/17/67
f 1248/7/55 1249/19/55 1250/13/55
f 1248/7/55 1250/13/55 1251/1/55
f 1252/25/36 1253/17/36 1254/26/36
f 1252/25/36 1254/26/36 1255/27/36
f 1256/28/39 1257/29/39 1258/30/39
f 1256/28/39 1258/30/39 1259/31/39
f 1260/32/37 1261/33/37 1262/34/37
f 1260/32/37 1262/34/37 1263/35/37
f 1264/36/35 1265/6/35 1266/12/35
f 1264/36/35 1266/12/35 1267/37/35
f 1268/38/38 1269/39/38 1270/24/38
f 1268/38/38 1270/24/38 1271/40/38
f 1272/7/56 1273/1/56 1274/3/56
f 1272/7/56 1274/3/56 1275/8/56
f 1276/41/57 1277/4/57 1278/6/57
f 1276/41/68 1278/6/68 1279/36/68
f 1280/5/58 1281/10/58 1282/12/58
f 1280/5/58 1282/12/58 1283/6/58
f 1284/39/69 1285/38/69 1286/37/69
f 1284/39/59 1286/37/59 1287/12/59
f 1288/19/60 1289/7/60 1290/9/60
f 1288/19/60 1290/9/60 1291/20/60
f 1292/42/61 1293/22/61 1294/24/61
f 1292/42/61 1294/24/61 1295/39/61
f 1296/29/62 1297/28/62 1298/40/62
f 1296/29/62 1298/40/62 1299/24/62
f 1300/13/63 1301/19/63 1302/28/63
f 1300/13/63 1302/28/63 1303/31/63
f 1304/32/64 1305/35/64 1306/30/64
s 1
f 1304/32/64 1306/30/64 1307/29/64
s 0
f 1308/17/65 1309/25/65 1310/31/65
f 1308/17/65 1310/31/65 1311/30/65
f 1312/1/66 1313/13/66 1314/43/66
f 1312/1/66 1314/43/66 1315/2/66
f 1316/16/67 1317/44/67 1318/26/67
f 1316/16/67 1318/26/67 1319/17/67
f 1320/7/55 1321/19/55 1322/13/55
f 1320/7/55 1322/13/55 1323/1/55
f 1324/25/36 1325/17/36 1326/26/36
f 1324/25/36 1326/26/36 1327/27/36
f 1328/28/39 1329/29/39 1330/30/39
f 1328/28/39 1330/30/39 1331/31/39
f 1332/32/37 1333/33/37 1334/34/37
f 1332/32/37 1334/34/37 1335/35/37
f 1336/36/35 1337/6/35 1338/12/35
f 1336/36/35 1338/12/35 1339/37/35
f 1340/38/38 1341/39/38 1342/24/38
f 1340/38/38 1342/24/38 1343/40/38
f 1344/7/56 1345/1/56 1346/3/56
f 1344/7/56 1346/3/56 1347/8/56
f 1348/41/57 1349/4/57 1350/6/57
f 1348/41/57 1350/6/57 1351/36/57
f 1352/5/58 1353/10/58 1354/12/58
f 1352/5/58 1354/12/58 1355/6/58
f 1356/39/59 1357/38/59 1358/37/59
f 1356/39/59 1358/37/59 1359/12/59
f 1360/19/60 1361/7/60 1362/9/60
f 1360/19/60 1362/9/60 1363/20/60
f 1364/42/61 1365/22/61 1366/24/61
f 1364/42/61 1366/24/61 1367/39/61
f 1368/29/62 1369/28/62 1370/40/62
f 1368/29/62 1370/40/62 1371/24/62
f 1372/13/63 1373/19/63 1374/28/63
f 1372/13/63 1374/28/63 1375/31/63
f 1376/32/64 1377/35/64 1378/30/64
f 1376/32/64 1378/30/64 1379/29/64
f 1380/17/65 1381/25/65 1382/31/65
f 1380/17/65 1382/31/65 1383/30/65
f 1384/1/66 1385/13/66 1386/43/66
f 1384/1/66 1386/43/66 1387/2/66
f 1388/16/67 1389/44/67 1390/26/67
f 1388/16/67 1390/26/67 1391/17/67
f 1392/7/55 1393/19/55 1394/13/55
f 1392/7/55 1394/13/55 1395/1/55
f 1396/25/36 1397/17/36 1398/26/36
f 1396/25/36 1398/26/36 1399/27/36
f 1400/28/39 1401/29/39 1402/30/39
f 1400/28/39 1402/30/39 1403/31/39
f 1404/32/37 1405/33/37 1406/34/37
f 1404/32/37 1406/34/37 1407/35/37
f 1408/36/35 1409/6/35 1410/12/35
f 1408/36/35 1410/12/35 1411/37/35
f 1412/38/38 1413/39/38 1414/24/38
f 1412/38/38 1414/24/38 1415/40/38
f 1416/7/56 1417/1/56 1418/3/56
f 1416/7/56 1418/3/56 1419/8/56
f 1420/41/57 1421/4/57 1422/6/57
f 1420/41/57 1422/6/57 1423/36/57
f 1424/5/58 1425/10/58 1426/12/58
f 1424/5/58 1426/12/58 1427/6/58
f 1428/39/59 1429/38/59 1430/37/59
f 1428/39/59 1430/37/59 1431/12/59
f 1432/19/60 1433/7/60 1434/9/60
f 1432/19/60 1434/9/60 1435/20/60
f 1436/42/61 1437/22/61 1438/24/61
f 1436/42/61 1438/24/61 1439/39/61
f 1440/29/62 1441/28/62 1442/40/62
f 1440/29/62 1442/40/62 1443/24/62
f 1444/13/63 1445/19/63 1446/28/63
f 1444/13/63 1446/28/63 1447/31/63
f 1448/32/64 1449/35/64 1450/30/64
f 1448/32/64 1450/30/64 1451/29/64
f 1452/17/65 1453/25/65 1454/31/65
f 1452/17/65 1454/31/65 1455/30/65
f 1456/1/66 1457/13/66 1458/43/66
f 1456/1/66 1458/43/66 1459/2/66
f 1460/16/67 1461/44/67 1462/26/67
f 1460/16/67 1462/26/67 1463/17/67
f 1464/7/55 1465/19/55 1466/13/55
f 1464/7/55 1466/13/55 1467/1/55
f 1468/25/36 1469/17/36 1470/26/36
f 1468/25/36 1470/26/36 1471/27/36
f 1472/28/39 1473/29/39 1474/30/39
f 1472/28/39 1474/30/39 1475/31/39
f 1476/32/37 1477/33/37 1478/34/37
f 1476/32/37 1478/34/37 1479/35/37
f 1480/36/35 1481/6/35 1482/12/35
f 1480/36/35 1482/12/35 1483/37/35
f 1484/38/38 1485/39/38 1486/24/38
f 1484/38/38 1486/24/38 1487/40/38
f 1488/7/56 1489/1/56 1490/3/56
f 1488/7/56 1490/3/56 1491/8/56
f 1492/41/57 1493/4/57 1494/6/57
f 1492/41/57 1494/6/57 1495/36/57
f 1496/5/58 1497/10/58 1498/12/58
f 1496/5/58 1498/12/58 1499/6/58
f 1500/39/59 1501/38/59 1502/37/59
f 1500/39/69 1502/37/69 1503/12/69
f 1504/19/60 1505/7/60 1506/9/60
f 1504/19/60 1506/9/60 1507/20/60
f 1508/42/61 1509/22/61 1510/24/61
f 1508/42/61 1510/24/61 1511/39/61
f 1512/29/62 1513/28/62 1514/40/62
f 1512/29/62 1514/40/62 1515/24/62
f 1516/13/63 1517/19/63 1518/28/63
f 1516/13/63 1518/28/63 1519/31/63
f 1520/32/64 1521/35/64 1522/30/64
f 1520/32/64 1522/30/64 1523/29/64
f 1524/17/65 1525/25/65 1526/31/65
f 1524/17/65 1526/31/65 1527/30/65
f 1528/1/66 1529/13/66 1530/43/66
f 1528/1/66 1530/43/66 1531/2/66
f 1532/16/67 1533/44/67 1534/26/67
f 1532/16/67 1534/26/67 1535/17/67
f 1536/7/55 1537/19/55 1538/13/55
f 1536/7/55 1538/13/55 1539/1/55
f 1540/25/36 1541/17/36 1542/26/36
f 1540/25/36 1542/26/36 1543/27/36
f 1544/28/39 1545/29/39 1546/30/39
f 1544/28/39 1546/30/39 1547/31/39
f 1548/32/37 1549/33/37 1550/34/37
f 1548/32/37 1550/34/37 1551/35/37
f 1552/36/35 1553/6/35 1554/12/35
f 1552/36/35 1554/12/35 1555/37/35
f 1556/38/38 1557/39/38 1558/24/38
f 1556/38/38 1558/24/38 1559/40/38
f 1560/7/56 1561/1/56 1562/3/56
f 1560/7/56 1562/3/56 1563/8/56
f 1564/41/57 1565/4/57 1566/6/57
f 1564/41/57 1566/6/57 1567/36/57
f 1568/5/58 1569/10/58 1570/12/58
f 1568/5/58 1570/12/58 1571/6/58
f 1572/39/59 1573/38/59 1574/37/59
f 1572/39/59 1574/37/59 1575/12/59
f 1576/19/60 1577/7/60 1578/9/60
f 1576/19/60 1578/9/60 1579/20/60
f 1580/42/61 1581/22/61 1582/24/61
f 1580/42/61 1582/24/61 1583/39/61
f 1584/29/70 1585/28/70 1586/40/70
f 1584/29/62 1586/40/62 1587/24/62
f 1588/13/63 1589/19/63 1590/28/63
f 1588/13/63 1590/28/63 1591/31/63
f 1592/32/64 1593/35/64 1594/30/64
f 1592/32/64 1594/30/64 1595/29/64
f 1596/17/65 1597/25/65 1598/31/65
f 1596/17/65 1598/31/65 1599/30/65
f 1600/1/66 1601/13/66 1602/43/66
f 1600/1/66 1602/43/66 1603/2/66
f 1604/16/67 1605/44/67 1606/26/67
f 1604/16/67 1606/26/67 1607/17/67
f 1608/7/55 1609/19/55 1610/13/55
f 1608/7/55 1610/13/55 1611/1/55
f 1612/25/35 1613/17/35 1614/26/35
f 1612/25/35 1614/26/35 1615/27/35
f 1616/28/36 1617/29/36 1618/30/36
f 1616/28/36 1618/30/36 1619/31/36
f 1620/32/37 1621/33/37 1622/34/37
f 1620/32/37 1622/34/37 1623/35/37
f 1624/36/38 1625/6/38 1626/12/38
f 1624/36/38 1626/12/38 1627/37/38
f 1628/38/39 1629/39/39 1630/24/39
f 1628/38/39 1630/24/39 1631/40/39
f 1632/7/71 1633/1/71 1634/3/71
f 1632/7/71 1634/3/71 1635/8/71
f 1636/41/72 1637/4/72 1638/6/72
f 1636/41/72 1638/6/72 1639/36/72
f 1640/5/73 1641/10/73 1642/12/73
f 1640/5/73 1642/12/73 1643/6/73
f 1644/39/74 1645/38/74 1646/37/74
f 1644/39/74 1646/37/74 1647/12/74
f 1648/19/75 1649/7/75 1650/9/75
f 1648/19/75 1650/9/75 1651/20/75
f 1652/42/76 1653/22/76 1654/24/76
f 1652/42/76 1654/24/76 1655/39/76
f 1656/29/77 1657/28/77 1658/40/77
f 1656/29/77 1658/40/77 1659/24/77
f 1660/13/78 1661/19/78 1662/28/78
f 1660/13/78 1662/28/78 1663/31/78
f 1664/32/79 1665/35/79 1666/30/79
f 1664/32/79 1666/30/79 1667/29/79
f 1668/17/80 1669/25/80 1670/31/80
f 1668/17/80 1670/31/80 1671/30/80
f 1672/1/81 1673/13/81 1674/43/81
f 1672/1/81 1674/43/81 1675/2/81
f 1676/16/82 1677/44/82 1678/26/82
f 1676/16/82 1678/26/82 1679/17/82
f 1680/7/55 1681/19/55 1682/13/55
f 1680/7/55 1682/13/55 1683/1/55
f 1684/25/35 1685/17/35 1686/26/35
f 1684/25/35 1686/26/35 1687/27/35
f 1688/28/36 1689/29/36 1690/30/36
f 1688/28/36 1690/30/36 1691/31/36
f 1692/32/37 1693/33/37 1694/34/37
f 1692/32/37 1694/34/37 1695/35/37
f 1696/36/38 1697/6/38 1698/12/38
f 1696/36/38 1698/12/38 1699/37/38
f 1700/38/39 1701/39/39 1702/24/39
f 1700/38/39 1702/24/39 1703/40/39
f 1704/7/71 1705/1/71 1706/3/71
f 1704/7/71 1706/3/71 1707/8/71
f 1708/41/72 1709/4/72 1710/6/72
f 1708/41/72 1710/6/72 1711/36/72
f 1712/5/73 1713/10/73 1714/12/73
f 1712/5/73 1714/12/73 1715/6/73
f 1716/39/74 1717/38/74 1718/37/74
f 1716/39/74 1718/37/74 1719/12/74
f 1720/19/75 1721/7/75 1722/9/75
f 1720/19/75 1722/9/75 1723/20/75
f 1724/42/76 1725/22/76 1726/24/76
f 1724/42/76 1726/24/76 1727/39/76
f 1728/29/77 1729/28/77 1730/40/77
f 1728/29/77 1730/40/77 1731/24/77
f 1732/13/78 1733/19/78 1734/28/78
f 1732/13/78 1734/28/78 1735/31/78
f 1736/32/79 1737/35/79 1738/30/79
f 1736/32/79 1738/30/79 1739/29/79
f 1740/17/80 1741/25/80 1742/31/80
f 1740/17/80 1742/31/80 1743/30/80
f 1744/1/81 1745/13/81 1746/43/81
f 1744/1/81 1746/43/81 1747/2/81
f 1748/16/82 1749/44/82 1750/26/82
f 1748/16/82 1750/26/82 1751/17/82
f 1752/7/55 1753/19/55 1754/13/55
f 1752/7/55 1754/13/55 1755/1/55
f 1756/25/35 1757/17/35 1758/26/35
f 1756/25/35 1758/26/35 1759/27/35
f 1760/28/36 1761/29/36 1762/30/36
f 1760/28/36 1762/30/36 1763/31/36
f 1764/32/37 1765/33/37 1766/34/37
f 1764/32/37 1766/34/37 1767/35/37
f 1768/36/38 1769/6/38 1770/12/38
f 1768/36/38 1770/12/38 1771/37/38
f 1772/38/39 1773/39/39 1774/24/39
f 1772/38/39 1774/24/39 1775/40/39
f 1776/7/71 1777/1/71 1778/3/71
f 1776/7/71 1778/3/71 1779/8/71
f 1780/41/83 1781/4/83 1782/6/83
f 1780/41/83 1782/6/83 1783/36/83
f 1784/5/73 1785/10/73 1786/12/73
f 1784/5/73 1786/12/73 1787/6/73
f 1788/39/84 1789/38/84 1790/37/84
f 1788/39/84 1790/37/84 1791/12/84
f 1792/19/85 1793/7/85 1794/9/85
f 1792/19/85 1794/9/85 1795/20/85
f 1796/42/86 1797/22/86 1798/24/86
f 1796/42/86 1798/24/86 1799/39/86
f 1800/29/87 1801/28/87 1802/40/87
f 1800/29/87 1802/40/87 1803/24/87
f 1804/13/78 1805/19/78 1806/28/78
f 1804/13/78 1806/28/78 1807/31/78
f 1808/32/79 1809/35/79 1810/30/79
f 1808/32/79 1810/30/79 1811/29/79
f 1812/17/88 1813/25/88 1814/31/88
f 1812/17/88 1814/31/88 1815/30/88
f 1816/1/89 1817/13/89 1818/43/89
f 1816/1/89 1818/43/89 1819/2/89
f 1820/16/90 1821/44/90 1822/26/90
f 1820/16/90 1822/26/90 1823/17/90
f 1824/7/55 1825/19/55 1826/13/55
f 1824/7/55 1826/13/55 1827/1/55
