# Blender 5.2.0 LTS
# www.blender.org
mtllib Cube_001.mtl
o Cube.001_Material.002_0
v 0.353792 -0.040378 0.575072
v 0.353792 -0.037034 0.586172
v 0.339501 -0.037034 0.575072
v 0.353792 0.037035 0.586172
v 0.353792 0.040378 0.575072
v 0.339501 0.037035 0.575072
v 0.353792 -0.040378 0.329172
v 0.339501 -0.037034 0.329172
v 0.353792 -0.037034 0.318072
v 0.353792 0.040378 0.329172
v 0.353792 0.037035 0.318072
v 0.339501 0.037035 0.329172
v 0.670377 -0.040378 0.575072
v 0.684668 -0.037034 0.575072
v 0.670377 -0.037034 0.586172
v 0.670377 0.040378 0.575072
v 0.670377 0.037035 0.586172
v 0.684668 0.037035 0.575072
v 0.670377 -0.040378 0.329172
v 0.670377 -0.037034 0.318072
v 0.684668 -0.037034 0.329172
v 0.670377 0.040378 0.329172
v 0.684668 0.037035 0.329172
v 0.670377 0.037035 0.318072
v 0.694808 -0.040378 0.575072
v 0.694808 -0.037034 0.586172
v 0.680517 -0.037034 0.575072
v 0.694808 0.037035 0.586172
v 0.694808 0.040378 0.575072
v 0.680517 0.037035 0.575072
v 0.694808 -0.040378 0.329172
v 0.680517 -0.037034 0.329172
v 0.694808 -0.037034 0.318072
v 0.694808 0.040378 0.329172
v 0.694808 0.037035 0.318072
v 0.680517 0.037035 0.329172
v 1.011393 -0.040378 0.575072
v 1.025684 -0.037034 0.575072
v 1.011393 -0.037034 0.586172
v 1.011393 0.040378 0.575072
v 1.011393 0.037035 0.586172
v 1.025684 0.037035 0.575072
v 1.011393 -0.040378 0.329172
v 1.011393 -0.037034 0.318072
v 1.025684 -0.037034 0.329172
v 1.011393 0.040378 0.329172
v 1.025684 0.037035 0.329172
v 1.011393 0.037035 0.318072
v -0.328749 -0.040378 0.575072
v -0.328749 -0.037034 0.586172
v -0.343040 -0.037034 0.575072
v -0.328749 0.037035 0.586172
v -0.328749 0.040378 0.575072
v -0.343040 0.037035 0.575072
v -0.328749 -0.040378 0.329172
v -0.343040 -0.037034 0.329172
v -0.328749 -0.037034 0.318072
v -0.328749 0.040378 0.329172
v -0.328749 0.037035 0.318072
v -0.343040 0.037035 0.329172
v -0.012165 -0.040378 0.575072
v 0.002126 -0.037034 0.575072
v -0.012165 -0.037034 0.586172
v -0.012165 0.040378 0.575072
v -0.012165 0.037035 0.586172
v 0.002126 0.037035 0.575072
v -0.012165 -0.040378 0.329172
v -0.012165 -0.037034 0.318072
v 0.002126 -0.037034 0.329172
v -0.012165 0.040378 0.329172
v 0.002126 0.037035 0.329172
v -0.012165 0.037035 0.318072
v 0.012267 -0.040378 0.575072
v 0.012267 -0.037034 0.586172
v -0.002024 -0.037034 0.575072
v 0.012267 0.037035 0.586172
v 0.012267 0.040378 0.575072
v -0.002024 0.037035 0.575072
v 0.012267 -0.040378 0.329172
v -0.002024 -0.037034 0.329172
v 0.012267 -0.037034 0.318072
v 0.012267 0.040378 0.329172
v 0.012267 0.037035 0.318072
v -0.002024 0.037035 0.329172
v 0.328851 -0.040378 0.575072
v 0.343142 -0.037034 0.575072
v 0.328851 -0.037034 0.586172
v 0.328851 0.040378 0.575072
v 0.328851 0.037035 0.586172
v 0.343142 0.037035 0.575072
v 0.328851 -0.040378 0.329172
v 0.328851 -0.037034 0.318072
v 0.343142 -0.037034 0.329172
v 0.328851 0.040378 0.329172
v 0.343142 0.037035 0.329172
v 0.328851 0.037035 0.318072
v -1.011393 -0.040378 0.575072
v -1.011393 -0.037034 0.586172
v -1.025684 -0.037034 0.575072
v -1.011393 0.037035 0.586172
v -1.011393 0.040378 0.575072
v -1.025684 0.037035 0.575072
v -1.011393 -0.040378 0.329172
v -1.025684 -0.037034 0.329172
v -1.011393 -0.037034 0.318072
v -1.011393 0.040378 0.329172
v -1.011393 0.037035 0.318072
v -1.025684 0.037035 0.329172
v -0.694808 -0.040378 0.575072
v -0.680517 -0.037034 0.575072
v -0.694808 -0.037034 0.586172
v -0.694808 0.040378 0.575072
v -0.694808 0.037035 0.586172
v -0.680517 0.037035 0.575072
v -0.694808 -0.040378 0.329172
v -0.694808 -0.037034 0.318072
v -0.680517 -0.037034 0.329172
v -0.694808 0.040378 0.329172
v -0.680517 0.037035 0.329172
v -0.694808 0.037035 0.318072
v -0.670377 -0.040378 0.575072
v -0.670377 -0.037034 0.586172
v -0.684668 -0.037034 0.575072
v -0.670377 0.037035 0.586172
v -0.670377 0.040378 0.575072
v -0.684668 0.037035 0.575072
v -0.670377 -0.040378 0.329172
v -0.684668 -0.037034 0.329172
v -0.670377 -0.037034 0.318072
v -0.670377 0.040378 0.329172
v -0.670377 0.037035 0.318072
v -0.684668 0.037035 0.329172
v -0.353792 -0.040378 0.575072
v -0.339501 -0.037034 0.575072
v -0.353792 -0.037034 0.586172
v -0.353792 0.040378 0.575072
v -0.353792 0.037035 0.586172
v -0.339501 0.037035 0.575072
v -0.353792 -0.040378 0.329172
v -0.353792 -0.037034 0.318072
v -0.339501 -0.037034 0.329172
v -0.353792 0.040378 0.329172
v -0.339501 0.037035 0.329172
v -0.353792 0.037035 0.318072
v 0.353792 -0.040378 -0.329172
v 0.353792 -0.037035 -0.318072
v 0.339501 -0.037035 -0.329172
v 0.353792 0.037034 -0.318072
v 0.353792 0.040378 -0.329172
v 0.339501 0.037034 -0.329172
v 0.353792 -0.040378 -0.575072
v 0.339501 -0.037035 -0.575072
v 0.353792 -0.037035 -0.586172
v 0.353792 0.040378 -0.575072
v 0.353792 0.037034 -0.586172
v 0.339501 0.037034 -0.575072
v 0.670377 -0.040378 -0.329172
v 0.684668 -0.037035 -0.329172
v 0.670377 -0.037035 -0.318072
v 0.670377 0.040378 -0.329172
v 0.670377 0.037034 -0.318072
v 0.684668 0.037034 -0.329172
v 0.670377 -0.040378 -0.575072
v 0.670377 -0.037035 -0.586172
v 0.684668 -0.037035 -0.575072
v 0.670377 0.040378 -0.575072
v 0.684668 0.037034 -0.575072
v 0.670377 0.037034 -0.586172
v 0.694808 -0.040378 -0.329172
v 0.694808 -0.037035 -0.318072
v 0.680517 -0.037035 -0.329172
v 0.694808 0.037034 -0.318072
v 0.694808 0.040378 -0.329172
v 0.680517 0.037034 -0.329172
v 0.694808 -0.040378 -0.575072
v 0.680517 -0.037035 -0.575072
v 0.694808 -0.037035 -0.586172
v 0.694808 0.040378 -0.575072
v 0.694808 0.037034 -0.586172
v 0.680517 0.037034 -0.575072
v 1.011393 -0.040378 -0.329172
v 1.025684 -0.037035 -0.329172
v 1.011393 -0.037035 -0.318072
v 1.011393 0.040378 -0.329172
v 1.011393 0.037034 -0.318072
v 1.025684 0.037034 -0.329172
v 1.011393 -0.040378 -0.575072
v 1.011393 -0.037035 -0.586172
v 1.025684 -0.037035 -0.575072
v 1.011393 0.040378 -0.575072
v 1.025684 0.037034 -0.575072
v 1.011393 0.037034 -0.586172
v -0.328749 -0.040378 -0.329172
v -0.328749 -0.037035 -0.318072
v -0.343040 -0.037035 -0.329172
v -0.328749 0.037034 -0.318072
v -0.328749 0.040378 -0.329172
v -0.343040 0.037034 -0.329172
v -0.328749 -0.040378 -0.575072
v -0.343040 -0.037035 -0.575072
v -0.328749 -0.037035 -0.586172
v -0.328749 0.040378 -0.575072
v -0.328749 0.037034 -0.586172
v -0.343040 0.037034 -0.575072
v -0.012165 -0.040378 -0.329172
v 0.002126 -0.037035 -0.329172
v -0.012165 -0.037035 -0.318072
v -0.012165 0.040378 -0.329172
v -0.012165 0.037034 -0.318072
v 0.002126 0.037034 -0.329172
v -0.012165 -0.040378 -0.575072
v -0.012165 -0.037035 -0.586172
v 0.002126 -0.037035 -0.575072
v -0.012165 0.040378 -0.575072
v 0.002126 0.037034 -0.575072
v -0.012165 0.037034 -0.586172
v 0.012267 -0.040378 -0.329172
v 0.012267 -0.037035 -0.318072
v -0.002024 -0.037035 -0.329172
v 0.012267 0.037034 -0.318072
v 0.012267 0.040378 -0.329172
v -0.002024 0.037034 -0.329172
v 0.012267 -0.040378 -0.575072
v -0.002024 -0.037035 -0.575072
v 0.012267 -0.037035 -0.586172
v 0.012267 0.040378 -0.575072
v 0.012267 0.037034 -0.586172
v -0.002024 0.037034 -0.575072
v 0.328851 -0.040378 -0.329172
v 0.343142 -0.037035 -0.329172
v 0.328851 -0.037035 -0.318072
v 0.328851 0.040378 -0.329172
v 0.328851 0.037034 -0.318072
v 0.343142 0.037034 -0.329172
v 0.328851 -0.040378 -0.575072
v 0.328851 -0.037035 -0.586172
v 0.343142 -0.037035 -0.575072
v 0.328851 0.040378 -0.575072
v 0.343142 0.037034 -0.575072
v 0.328851 0.037034 -0.586172
v -1.011393 -0.040378 -0.329172
v -1.011393 -0.037035 -0.318072
v -1.025684 -0.037035 -0.329172
v -1.011393 0.037034 -0.318072
v -1.011393 0.040378 -0.329172
v -1.025684 0.037034 -0.329172
v -1.011393 -0.040378 -0.575072
v -1.025684 -0.037035 -0.575072
v -1.011393 -0.037035 -0.586172
v -1.011393 0.040378 -0.575072
v -1.011393 0.037034 -0.586172
v -1.025684 0.037034 -0.575072
v -0.694808 -0.040378 -0.329172
v -0.680517 -0.037035 -0.329172
v -0.694808 -0.037035 -0.318072
v -0.694808 0.040378 -0.329172
v -0.694808 0.037034 -0.318072
v -0.680517 0.037034 -0.329172
v -0.694808 -0.040378 -0.575072
v -0.694808 -0.037035 -0.586172
v -0.680517 -0.037035 -0.575072
v -0.694808 0.040378 -0.575072
v -0.680517 0.037034 -0.575072
v -0.694808 0.037034 -0.586172
v -0.670377 -0.040378 -0.329172
v -0.670377 -0.037035 -0.318072
v -0.684668 -0.037035 -0.329172
v -0.670377 0.037034 -0.318072
v -0.670377 0.040378 -0.329172
v -0.684668 0.037034 -0.329172
v -0.670377 -0.040378 -0.575072
v -0.684668 -0.037035 -0.575072
v -0.670377 -0.037035 -0.586172
v -0.670377 0.040378 -0.575072
v -0.670377 0.037034 -0.586172
v -0.684668 0.037034 -0.575072
v -0.353792 -0.040378 -0.329172
v -0.339501 -0.037035 -0.329172
v -0.353792 -0.037035 -0.318072
v -0.353792 0.040378 -0.329172
v -0.353792 0.037034 -0.318072
v -0.339501 0.037034 -0.329172
v -0.353792 -0.040378 -0.575072
v -0.353792 -0.037035 -0.586172
v -0.339501 -0.037035 -0.575072
v -0.353792 0.040378 -0.575072
v -0.339501 0.037034 -0.575072
v -0.353792 0.037034 -0.586172
v 0.670377 -0.037034 0.586172
v 0.670377 0.037035 0.586172
v 0.353792 0.037035 0.586172
v 0.353792 -0.037034 0.586172
v 0.684668 -0.037034 0.329172
v 0.684668 0.037035 0.329172
v 0.684668 0.037035 0.575072
v 0.684668 -0.037034 0.575072
v 0.670377 0.040378 0.329172
v 0.353792 0.040378 0.329172
v 0.353792 0.040378 0.575072
v 0.670377 0.040378 0.575072
v 0.339501 -0.037034 0.575072
v 0.339501 0.037035 0.575072
v 0.339501 0.037035 0.329172
v 0.339501 -0.037034 0.329172
v 0.353792 -0.037034 0.318072
v 0.353792 0.037035 0.318072
v 0.670377 0.037035 0.318072
v 0.670377 -0.037034 0.318072
v 0.353792 -0.040378 0.329172
v 0.353792 -0.040378 0.575072
v 0.339501 -0.037034 0.575072
v 0.339501 -0.037034 0.329172
v 0.353792 -0.037034 0.586172
v 0.353792 0.037035 0.586172
v 0.339501 0.037035 0.575072
v 0.339501 -0.037034 0.575072
v 0.353792 0.040378 0.575072
v 0.353792 0.040378 0.329172
v 0.339501 0.037035 0.329172
v 0.339501 0.037035 0.575072
v 0.353792 0.037035 0.318072
v 0.353792 -0.037034 0.318072
v 0.339501 -0.037034 0.329172
v 0.339501 0.037035 0.329172
v 0.670377 -0.040378 0.329172
v 0.353792 -0.040378 0.329172
v 0.353792 -0.037034 0.318072
v 0.670377 -0.037034 0.318072
v 0.353792 0.040378 0.329172
v 0.670377 0.040378 0.329172
v 0.670377 0.037035 0.318072
v 0.353792 0.037035 0.318072
v 0.684668 0.037035 0.329172
v 0.684668 -0.037034 0.329172
v 0.670377 -0.037034 0.318072
v 0.670377 0.037035 0.318072
v 0.670377 -0.040378 0.575072
v 0.670377 -0.040378 0.329172
v 0.684668 -0.037034 0.329172
v 0.684668 -0.037034 0.575072
v 0.670377 0.040378 0.329172
v 0.670377 0.040378 0.575072
v 0.684668 0.037035 0.575072
v 0.684668 0.037035 0.329172
v 0.670377 0.037035 0.586172
v 0.670377 -0.037034 0.586172
v 0.684668 -0.037034 0.575072
v 0.684668 0.037035 0.575072
v 0.353792 -0.040378 0.575072
v 0.670377 -0.040378 0.575072
v 0.670377 -0.037034 0.586172
v 0.353792 -0.037034 0.586172
v 0.670377 0.040378 0.575072
v 0.353792 0.040378 0.575072
v 0.353792 0.037035 0.586172
v 0.670377 0.037035 0.586172
v 0.353792 -0.040378 0.329172
v 0.670377 -0.040378 0.329172
v 0.670377 -0.040378 0.575072
v 0.353792 -0.040378 0.575072
v 1.011393 -0.037034 0.586172
v 1.011393 0.037035 0.586172
v 0.694808 0.037035 0.586172
v 0.694808 -0.037034 0.586172
v 1.025684 -0.037034 0.329172
v 1.025684 0.037035 0.329172
v 1.025684 0.037035 0.575072
v 1.025684 -0.037034 0.575072
v 1.011393 0.040378 0.329172
v 0.694808 0.040378 0.329172
v 0.694808 0.040378 0.575072
v 1.011393 0.040378 0.575072
v 0.680517 -0.037034 0.575072
v 0.680517 0.037035 0.575072
v 0.680517 0.037035 0.329172
v 0.680517 -0.037034 0.329172
v 0.694808 -0.037034 0.318072
v 0.694808 0.037035 0.318072
v 1.011393 0.037035 0.318072
v 1.011393 -0.037034 0.318072
v 0.694808 -0.040378 0.329172
v 0.694808 -0.040378 0.575072
v 0.680517 -0.037034 0.575072
v 0.680517 -0.037034 0.329172
v 0.694808 -0.037034 0.586172
v 0.694808 0.037035 0.586172
v 0.680517 0.037035 0.575072
v 0.680517 -0.037034 0.575072
v 0.694808 0.040378 0.575072
v 0.694808 0.040378 0.329172
v 0.680517 0.037035 0.329172
v 0.680517 0.037035 0.575072
v 0.694808 0.037035 0.318072
v 0.694808 -0.037034 0.318072
v 0.680517 -0.037034 0.329172
v 0.680517 0.037035 0.329172
v 1.011393 -0.040378 0.329172
v 0.694808 -0.040378 0.329172
v 0.694808 -0.037034 0.318072
v 1.011393 -0.037034 0.318072
v 0.694808 0.040378 0.329172
v 1.011393 0.040378 0.329172
v 1.011393 0.037035 0.318072
v 0.694808 0.037035 0.318072
v 1.025684 0.037035 0.329172
v 1.025684 -0.037034 0.329172
v 1.011393 -0.037034 0.318072
v 1.011393 0.037035 0.318072
v 1.011393 -0.040378 0.575072
v 1.011393 -0.040378 0.329172
v 1.025684 -0.037034 0.329172
v 1.025684 -0.037034 0.575072
v 1.011393 0.040378 0.329172
v 1.011393 0.040378 0.575072
v 1.025684 0.037035 0.575072
v 1.025684 0.037035 0.329172
v 1.011393 0.037035 0.586172
v 1.011393 -0.037034 0.586172
v 1.025684 -0.037034 0.575072
v 1.025684 0.037035 0.575072
v 0.694808 -0.040378 0.575072
v 1.011393 -0.040378 0.575072
v 1.011393 -0.037034 0.586172
v 0.694808 -0.037034 0.586172
v 1.011393 0.040378 0.575072
v 0.694808 0.040378 0.575072
v 0.694808 0.037035 0.586172
v 1.011393 0.037035 0.586172
v 0.694808 -0.040378 0.329172
v 1.011393 -0.040378 0.329172
v 1.011393 -0.040378 0.575072
v 0.694808 -0.040378 0.575072
v -0.012165 -0.037034 0.586172
v -0.012165 0.037035 0.586172
v -0.328749 0.037035 0.586172
v -0.328749 -0.037034 0.586172
v 0.002126 -0.037034 0.329172
v 0.002126 0.037035 0.329172
v 0.002126 0.037035 0.575072
v 0.002126 -0.037034 0.575072
v -0.012165 0.040378 0.329172
v -0.328749 0.040378 0.329172
v -0.328749 0.040378 0.575072
v -0.012165 0.040378 0.575072
v -0.343040 -0.037034 0.575072
v -0.343040 0.037035 0.575072
v -0.343040 0.037035 0.329172
v -0.343040 -0.037034 0.329172
v -0.328749 -0.037034 0.318072
v -0.328749 0.037035 0.318072
v -0.012165 0.037035 0.318072
v -0.012165 -0.037034 0.318072
v -0.328749 -0.040378 0.329172
v -0.328749 -0.040378 0.575072
v -0.343040 -0.037034 0.575072
v -0.343040 -0.037034 0.329172
v -0.328749 -0.037034 0.586172
v -0.328749 0.037035 0.586172
v -0.343040 0.037035 0.575072
v -0.343040 -0.037034 0.575072
v -0.328749 0.040378 0.575072
v -0.328749 0.040378 0.329172
v -0.343040 0.037035 0.329172
v -0.343040 0.037035 0.575072
v -0.328749 0.037035 0.318072
v -0.328749 -0.037034 0.318072
v -0.343040 -0.037034 0.329172
v -0.343040 0.037035 0.329172
v -0.012165 -0.040378 0.329172
v -0.328749 -0.040378 0.329172
v -0.328749 -0.037034 0.318072
v -0.012165 -0.037034 0.318072
v -0.328749 0.040378 0.329172
v -0.012165 0.040378 0.329172
v -0.012165 0.037035 0.318072
v -0.328749 0.037035 0.318072
v 0.002126 0.037035 0.329172
v 0.002126 -0.037034 0.329172
v -0.012165 -0.037034 0.318072
v -0.012165 0.037035 0.318072
v -0.012165 -0.040378 0.575072
v -0.012165 -0.040378 0.329172
v 0.002126 -0.037034 0.329172
v 0.002126 -0.037034 0.575072
v -0.012165 0.040378 0.329172
v -0.012165 0.040378 0.575072
v 0.002126 0.037035 0.575072
v 0.002126 0.037035 0.329172
v -0.012165 0.037035 0.586172
v -0.012165 -0.037034 0.586172
v 0.002126 -0.037034 0.575072
v 0.002126 0.037035 0.575072
v -0.328749 -0.040378 0.575072
v -0.012165 -0.040378 0.575072
v -0.012165 -0.037034 0.586172
v -0.328749 -0.037034 0.586172
v -0.012165 0.040378 0.575072
v -0.328749 0.040378 0.575072
v -0.328749 0.037035 0.586172
v -0.012165 0.037035 0.586172
v -0.328749 -0.040378 0.329172
v -0.012165 -0.040378 0.329172
v -0.012165 -0.040378 0.575072
v -0.328749 -0.040378 0.575072
v 0.328851 -0.037034 0.586172
v 0.328851 0.037035 0.586172
v 0.012267 0.037035 0.586172
v 0.012267 -0.037034 0.586172
v 0.343142 -0.037034 0.329172
v 0.343142 0.037035 0.329172
v 0.343142 0.037035 0.575072
v 0.343142 -0.037034 0.575072
v 0.328851 0.040378 0.329172
v 0.012267 0.040378 0.329172
v 0.012267 0.040378 0.575072
v 0.328851 0.040378 0.575072
v -0.002024 -0.037034 0.575072
v -0.002024 0.037035 0.575072
v -0.002024 0.037035 0.329172
v -0.002024 -0.037034 0.329172
v 0.012267 -0.037034 0.318072
v 0.012267 0.037035 0.318072
v 0.328851 0.037035 0.318072
v 0.328851 -0.037034 0.318072
v 0.012267 -0.040378 0.329172
v 0.012267 -0.040378 0.575072
v -0.002024 -0.037034 0.575072
v -0.002024 -0.037034 0.329172
v 0.012267 -0.037034 0.586172
v 0.012267 0.037035 0.586172
v -0.002024 0.037035 0.575072
v -0.002024 -0.037034 0.575072
v 0.012267 0.040378 0.575072
v 0.012267 0.040378 0.329172
v -0.002024 0.037035 0.329172
v -0.002024 0.037035 0.575072
v 0.012267 0.037035 0.318072
v 0.012267 -0.037034 0.318072
v -0.002024 -0.037034 0.329172
v -0.002024 0.037035 0.329172
v 0.328851 -0.040378 0.329172
v 0.012267 -0.040378 0.329172
v 0.012267 -0.037034 0.318072
v 0.328851 -0.037034 0.318072
v 0.012267 0.040378 0.329172
v 0.328851 0.040378 0.329172
v 0.328851 0.037035 0.318072
v 0.012267 0.037035 0.318072
v 0.343142 0.037035 0.329172
v 0.343142 -0.037034 0.329172
v 0.328851 -0.037034 0.318072
v 0.328851 0.037035 0.318072
v 0.328851 -0.040378 0.575072
v 0.328851 -0.040378 0.329172
v 0.343142 -0.037034 0.329172
v 0.343142 -0.037034 0.575072
v 0.328851 0.040378 0.329172
v 0.328851 0.040378 0.575072
v 0.343142 0.037035 0.575072
v 0.343142 0.037035 0.329172
v 0.328851 0.037035 0.586172
v 0.328851 -0.037034 0.586172
v 0.343142 -0.037034 0.575072
v 0.343142 0.037035 0.575072
v 0.012267 -0.040378 0.575072
v 0.328851 -0.040378 0.575072
v 0.328851 -0.037034 0.586172
v 0.012267 -0.037034 0.586172
v 0.328851 0.040378 0.575072
v 0.012267 0.040378 0.575072
v 0.012267 0.037035 0.586172
v 0.328851 0.037035 0.586172
v 0.012267 -0.040378 0.329172
v 0.328851 -0.040378 0.329172
v 0.328851 -0.040378 0.575072
v 0.012267 -0.040378 0.575072
v -0.694808 -0.037034 0.586172
v -0.694808 0.037035 0.586172
v -1.011393 0.037035 0.586172
v -1.011393 -0.037034 0.586172
v -0.680517 -0.037034 0.329172
v -0.680517 0.037035 0.329172
v -0.680517 0.037035 0.575072
v -0.680517 -0.037034 0.575072
v -0.694808 0.040378 0.329172
v -1.011393 0.040378 0.329172
v -1.011393 0.040378 0.575072
v -0.694808 0.040378 0.575072
v -1.025684 -0.037034 0.575072
v -1.025684 0.037035 0.575072
v -1.025684 0.037035 0.329172
v -1.025684 -0.037034 0.329172
v -1.011393 -0.037034 0.318072
v -1.011393 0.037035 0.318072
v -0.694808 0.037035 0.318072
v -0.694808 -0.037034 0.318072
v -1.011393 -0.040378 0.329172
v -1.011393 -0.040378 0.575072
v -1.025684 -0.037034 0.575072
v -1.025684 -0.037034 0.329172
v -1.011393 -0.037034 0.586172
v -1.011393 0.037035 0.586172
v -1.025684 0.037035 0.575072
v -1.025684 -0.037034 0.575072
v -1.011393 0.040378 0.575072
v -1.011393 0.040378 0.329172
v -1.025684 0.037035 0.329172
v -1.025684 0.037035 0.575072
v -1.011393 0.037035 0.318072
v -1.011393 -0.037034 0.318072
v -1.025684 -0.037034 0.329172
v -1.025684 0.037035 0.329172
v -0.694808 -0.040378 0.329172
v -1.011393 -0.040378 0.329172
v -1.011393 -0.037034 0.318072
v -0.694808 -0.037034 0.318072
v -1.011393 0.040378 0.329172
v -0.694808 0.040378 0.329172
v -0.694808 0.037035 0.318072
v -1.011393 0.037035 0.318072
v -0.680517 0.037035 0.329172
v -0.680517 -0.037034 0.329172
v -0.694808 -0.037034 0.318072
v -0.694808 0.037035 0.318072
v -0.694808 -0.040378 0.575072
v -0.694808 -0.040378 0.329172
v -0.680517 -0.037034 0.329172
v -0.680517 -0.037034 0.575072
v -0.694808 0.040378 0.329172
v -0.694808 0.040378 0.575072
v -0.680517 0.037035 0.575072
v -0.680517 0.037035 0.329172
v -0.694808 0.037035 0.586172
v -0.694808 -0.037034 0.586172
v -0.680517 -0.037034 0.575072
v -0.680517 0.037035 0.575072
v -1.011393 -0.040378 0.575072
v -0.694808 -0.040378 0.575072
v -0.694808 -0.037034 0.586172
v -1.011393 -0.037034 0.586172
v -0.694808 0.040378 0.575072
v -1.011393 0.040378 0.575072
v -1.011393 0.037035 0.586172
v -0.694808 0.037035 0.586172
v -1.011393 -0.040378 0.329172
v -0.694808 -0.040378 0.329172
v -0.694808 -0.040378 0.575072
v -1.011393 -0.040378 0.575072
v -0.353792 -0.037034 0.586172
v -0.353792 0.037035 0.586172
v -0.670377 0.037035 0.586172
v -0.670377 -0.037034 0.586172
v -0.339501 -0.037034 0.329172
v -0.339501 0.037035 0.329172
v -0.339501 0.037035 0.575072
v -0.339501 -0.037034 0.575072
v -0.353792 0.040378 0.329172
v -0.670377 0.040378 0.329172
v -0.670377 0.040378 0.575072
v -0.353792 0.040378 0.575072
v -0.684668 -0.037034 0.575072
v -0.684668 0.037035 0.575072
v -0.684668 0.037035 0.329172
v -0.684668 -0.037034 0.329172
v -0.670377 -0.037034 0.318072
v -0.670377 0.037035 0.318072
v -0.353792 0.037035 0.318072
v -0.353792 -0.037034 0.318072
v -0.670377 -0.040378 0.329172
v -0.670377 -0.040378 0.575072
v -0.684668 -0.037034 0.575072
v -0.684668 -0.037034 0.329172
v -0.670377 -0.037034 0.586172
v -0.670377 0.037035 0.586172
v -0.684668 0.037035 0.575072
v -0.684668 -0.037034 0.575072
v -0.670377 0.040378 0.575072
v -0.670377 0.040378 0.329172
v -0.684668 0.037035 0.329172
v -0.684668 0.037035 0.575072
v -0.670377 0.037035 0.318072
v -0.670377 -0.037034 0.318072
v -0.684668 -0.037034 0.329172
v -0.684668 0.037035 0.329172
v -0.353792 -0.040378 0.329172
v -0.670377 -0.040378 0.329172
v -0.670377 -0.037034 0.318072
v -0.353792 -0.037034 0.318072
v -0.670377 0.040378 0.329172
v -0.353792 0.040378 0.329172
v -0.353792 0.037035 0.318072
v -0.670377 0.037035 0.318072
v -0.339501 0.037035 0.329172
v -0.339501 -0.037034 0.329172
v -0.353792 -0.037034 0.318072
v -0.353792 0.037035 0.318072
v -0.353792 -0.040378 0.575072
v -0.353792 -0.040378 0.329172
v -0.339501 -0.037034 0.329172
v -0.339501 -0.037034 0.575072
v -0.353792 0.040378 0.329172
v -0.353792 0.040378 0.575072
v -0.339501 0.037035 0.575072
v -0.339501 0.037035 0.329172
v -0.353792 0.037035 0.586172
v -0.353792 -0.037034 0.586172
v -0.339501 -0.037034 0.575072
v -0.339501 0.037035 0.575072
v -0.670377 -0.040378 0.575072
v -0.353792 -0.040378 0.575072
v -0.353792 -0.037034 0.586172
v -0.670377 -0.037034 0.586172
v -0.353792 0.040378 0.575072
v -0.670377 0.040378 0.575072
v -0.670377 0.037035 0.586172
v -0.353792 0.037035 0.586172
v -0.670377 -0.040378 0.329172
v -0.353792 -0.040378 0.329172
v -0.353792 -0.040378 0.575072
v -0.670377 -0.040378 0.575072
v 0.670377 -0.037035 -0.318072
v 0.670377 0.037034 -0.318072
v 0.353792 0.037034 -0.318072
v 0.353792 -0.037035 -0.318072
v 0.684668 -0.037035 -0.575072
v 0.684668 0.037034 -0.575072
v 0.684668 0.037034 -0.329172
v 0.684668 -0.037035 -0.329172
v 0.670377 0.040378 -0.575072
v 0.353792 0.040378 -0.575072
v 0.353792 0.040378 -0.329172
v 0.670377 0.040378 -0.329172
v 0.339501 -0.037035 -0.329172
v 0.339501 0.037034 -0.329172
v 0.339501 0.037034 -0.575072
v 0.339501 -0.037035 -0.575072
v 0.353792 -0.037035 -0.586172
v 0.353792 0.037034 -0.586172
v 0.670377 0.037034 -0.586172
v 0.670377 -0.037035 -0.586172
v 0.353792 -0.040378 -0.575072
v 0.353792 -0.040378 -0.329172
v 0.339501 -0.037035 -0.329172
v 0.339501 -0.037035 -0.575072
v 0.353792 -0.037035 -0.318072
v 0.353792 0.037034 -0.318072
v 0.339501 0.037034 -0.329172
v 0.339501 -0.037035 -0.329172
v 0.353792 0.040378 -0.329172
v 0.353792 0.040378 -0.575072
v 0.339501 0.037034 -0.575072
v 0.339501 0.037034 -0.329172
v 0.353792 0.037034 -0.586172
v 0.353792 -0.037035 -0.586172
v 0.339501 -0.037035 -0.575072
v 0.339501 0.037034 -0.575072
v 0.670377 -0.040378 -0.575072
v 0.353792 -0.040378 -0.575072
v 0.353792 -0.037035 -0.586172
v 0.670377 -0.037035 -0.586172
v 0.353792 0.040378 -0.575072
v 0.670377 0.040378 -0.575072
v 0.670377 0.037034 -0.586172
v 0.353792 0.037034 -0.586172
v 0.684668 0.037034 -0.575072
v 0.684668 -0.037035 -0.575072
v 0.670377 -0.037035 -0.586172
v 0.670377 0.037034 -0.586172
v 0.670377 -0.040378 -0.329172
v 0.670377 -0.040378 -0.575072
v 0.684668 -0.037035 -0.575072
v 0.684668 -0.037035 -0.329172
v 0.670377 0.040378 -0.575072
v 0.670377 0.040378 -0.329172
v 0.684668 0.037034 -0.329172
v 0.684668 0.037034 -0.575072
v 0.670377 0.037034 -0.318072
v 0.670377 -0.037035 -0.318072
v 0.684668 -0.037035 -0.329172
v 0.684668 0.037034 -0.329172
v 0.353792 -0.040378 -0.329172
v 0.670377 -0.040378 -0.329172
v 0.670377 -0.037035 -0.318072
v 0.353792 -0.037035 -0.318072
v 0.670377 0.040378 -0.329172
v 0.353792 0.040378 -0.329172
v 0.353792 0.037034 -0.318072
v 0.670377 0.037034 -0.318072
v 0.353792 -0.040378 -0.575072
v 0.670377 -0.040378 -0.575072
v 0.670377 -0.040378 -0.329172
v 0.353792 -0.040378 -0.329172
v 1.011393 -0.037035 -0.318072
v 1.011393 0.037034 -0.318072
v 0.694808 0.037034 -0.318072
v 0.694808 -0.037035 -0.318072
v 1.025684 -0.037035 -0.575072
v 1.025684 0.037034 -0.575072
v 1.025684 0.037034 -0.329172
v 1.025684 -0.037035 -0.329172
v 1.011393 0.040378 -0.575072
v 0.694808 0.040378 -0.575072
v 0.694808 0.040378 -0.329172
v 1.011393 0.040378 -0.329172
v 0.680517 -0.037035 -0.329172
v 0.680517 0.037034 -0.329172
v 0.680517 0.037034 -0.575072
v 0.680517 -0.037035 -0.575072
v 0.694808 -0.037035 -0.586172
v 0.694808 0.037034 -0.586172
v 1.011393 0.037034 -0.586172
v 1.011393 -0.037035 -0.586172
v 0.694808 -0.040378 -0.575072
v 0.694808 -0.040378 -0.329172
v 0.680517 -0.037035 -0.329172
v 0.680517 -0.037035 -0.575072
v 0.694808 -0.037035 -0.318072
v 0.694808 0.037034 -0.318072
v 0.680517 0.037034 -0.329172
v 0.680517 -0.037035 -0.329172
v 0.694808 0.040378 -0.329172
v 0.694808 0.040378 -0.575072
v 0.680517 0.037034 -0.575072
v 0.680517 0.037034 -0.329172
v 0.694808 0.037034 -0.586172
v 0.694808 -0.037035 -0.586172
v 0.680517 -0.037035 -0.575072
v 0.680517 0.037034 -0.575072
v 1.011393 -0.040378 -0.575072
v 0.694808 -0.040378 -0.575072
v 0.694808 -0.037035 -0.586172
v 1.011393 -0.037035 -0.586172
v 0.694808 0.040378 -0.575072
v 1.011393 0.040378 -0.575072
v 1.011393 0.037034 -0.586172
v 0.694808 0.037034 -0.586172
v 1.025684 0.037034 -0.575072
v 1.025684 -0.037035 -0.575072
v 1.011393 -0.037035 -0.586172
v 1.011393 0.037034 -0.586172
v 1.011393 -0.040378 -0.329172
v 1.011393 -0.040378 -0.575072
v 1.025684 -0.037035 -0.575072
v 1.025684 -0.037035 -0.329172
v 1.011393 0.040378 -0.575072
v 1.011393 0.040378 -0.329172
v 1.025684 0.037034 -0.329172
v 1.025684 0.037034 -0.575072
v 1.011393 0.037034 -0.318072
v 1.011393 -0.037035 -0.318072
v 1.025684 -0.037035 -0.329172
v 1.025684 0.037034 -0.329172
v 0.694808 -0.040378 -0.329172
v 1.011393 -0.040378 -0.329172
v 1.011393 -0.037035 -0.318072
v 0.694808 -0.037035 -0.318072
v 1.011393 0.040378 -0.329172
v 0.694808 0.040378 -0.329172
v 0.694808 0.037034 -0.318072
v 1.011393 0.037034 -0.318072
v 0.694808 -0.040378 -0.575072
v 1.011393 -0.040378 -0.575072
v 1.011393 -0.040378 -0.329172
v 0.694808 -0.040378 -0.329172
v -0.012165 -0.037035 -0.318072
v -0.012165 0.037034 -0.318072
v -0.328749 0.037034 -0.318072
v -0.328749 -0.037035 -0.318072
v 0.002126 -0.037035 -0.575072
v 0.002126 0.037034 -0.575072
v 0.002126 0.037034 -0.329172
v 0.002126 -0.037035 -0.329172
v -0.012165 0.040378 -0.575072
v -0.328749 0.040378 -0.575072
v -0.328749 0.040378 -0.329172
v -0.012165 0.040378 -0.329172
v -0.343040 -0.037035 -0.329172
v -0.343040 0.037034 -0.329172
v -0.343040 0.037034 -0.575072
v -0.343040 -0.037035 -0.575072
v -0.328749 -0.037035 -0.586172
v -0.328749 0.037034 -0.586172
v -0.012165 0.037034 -0.586172
v -0.012165 -0.037035 -0.586172
v -0.328749 -0.040378 -0.575072
v -0.328749 -0.040378 -0.329172
v -0.343040 -0.037035 -0.329172
v -0.343040 -0.037035 -0.575072
v -0.328749 -0.037035 -0.318072
v -0.328749 0.037034 -0.318072
v -0.343040 0.037034 -0.329172
v -0.343040 -0.037035 -0.329172
v -0.328749 0.040378 -0.329172
v -0.328749 0.040378 -0.575072
v -0.343040 0.037034 -0.575072
v -0.343040 0.037034 -0.329172
v -0.328749 0.037034 -0.586172
v -0.328749 -0.037035 -0.586172
v -0.343040 -0.037035 -0.575072
v -0.343040 0.037034 -0.575072
v -0.012165 -0.040378 -0.575072
v -0.328749 -0.040378 -0.575072
v -0.328749 -0.037035 -0.586172
v -0.012165 -0.037035 -0.586172
v -0.328749 0.040378 -0.575072
v -0.012165 0.040378 -0.575072
v -0.012165 0.037034 -0.586172
v -0.328749 0.037034 -0.586172
v 0.002126 0.037034 -0.575072
v 0.002126 -0.037035 -0.575072
v -0.012165 -0.037035 -0.586172
v -0.012165 0.037034 -0.586172
v -0.012165 -0.040378 -0.329172
v -0.012165 -0.040378 -0.575072
v 0.002126 -0.037035 -0.575072
v 0.002126 -0.037035 -0.329172
v -0.012165 0.040378 -0.575072
v -0.012165 0.040378 -0.329172
v 0.002126 0.037034 -0.329172
v 0.002126 0.037034 -0.575072
v -0.012165 0.037034 -0.318072
v -0.012165 -0.037035 -0.318072
v 0.002126 -0.037035 -0.329172
v 0.002126 0.037034 -0.329172
v -0.328749 -0.040378 -0.329172
v -0.012165 -0.040378 -0.329172
v -0.012165 -0.037035 -0.318072
v -0.328749 -0.037035 -0.318072
v -0.012165 0.040378 -0.329172
v -0.328749 0.040378 -0.329172
v -0.328749 0.037034 -0.318072
v -0.012165 0.037034 -0.318072
v -0.328749 -0.040378 -0.575072
v -0.012165 -0.040378 -0.575072
v -0.012165 -0.040378 -0.329172
v -0.328749 -0.040378 -0.329172
v 0.328851 -0.037035 -0.318072
v 0.328851 0.037034 -0.318072
v 0.012267 0.037034 -0.318072
v 0.012267 -0.037035 -0.318072
v 0.343142 -0.037035 -0.575072
v 0.343142 0.037034 -0.575072
v 0.343142 0.037034 -0.329172
v 0.343142 -0.037035 -0.329172
v 0.328851 0.040378 -0.575072
v 0.012267 0.040378 -0.575072
v 0.012267 0.040378 -0.329172
v 0.328851 0.040378 -0.329172
v -0.002024 -0.037035 -0.329172
v -0.002024 0.037034 -0.329172
v -0.002024 0.037034 -0.575072
v -0.002024 -0.037035 -0.575072
v 0.012267 -0.037035 -0.586172
v 0.012267 0.037034 -0.586172
v 0.328851 0.037034 -0.586172
v 0.328851 -0.037035 -0.586172
v 0.012267 -0.040378 -0.575072
v 0.012267 -0.040378 -0.329172
v -0.002024 -0.037035 -0.329172
v -0.002024 -0.037035 -0.575072
v 0.012267 -0.037035 -0.318072
v 0.012267 0.037034 -0.318072
v -0.002024 0.037034 -0.329172
v -0.002024 -0.037035 -0.329172
v 0.012267 0.040378 -0.329172
v 0.012267 0.040378 -0.575072
v -0.002024 0.037034 -0.575072
v -0.002024 0.037034 -0.329172
v 0.012267 0.037034 -0.586172
v 0.012267 -0.037035 -0.586172
v -0.002024 -0.037035 -0.575072
v -0.002024 0.037034 -0.575072
v 0.328851 -0.040378 -0.575072
v 0.012267 -0.040378 -0.575072
v 0.012267 -0.037035 -0.586172
v 0.328851 -0.037035 -0.586172
v 0.012267 0.040378 -0.575072
v 0.328851 0.040378 -0.575072
v 0.328851 0.037034 -0.586172
v 0.012267 0.037034 -0.586172
v 0.343142 0.037034 -0.575072
v 0.343142 -0.037035 -0.575072
v 0.328851 -0.037035 -0.586172
v 0.328851 0.037034 -0.586172
v 0.328851 -0.040378 -0.329172
v 0.328851 -0.040378 -0.575072
v 0.343142 -0.037035 -0.575072
v 0.343142 -0.037035 -0.329172
v 0.328851 0.040378 -0.575072
v 0.328851 0.040378 -0.329172
v 0.343142 0.037034 -0.329172
v 0.343142 0.037034 -0.575072
v 0.328851 0.037034 -0.318072
v 0.328851 -0.037035 -0.318072
v 0.343142 -0.037035 -0.329172
v 0.343142 0.037034 -0.329172
v 0.012267 -0.040378 -0.329172
v 0.328851 -0.040378 -0.329172
v 0.328851 -0.037035 -0.318072
v 0.012267 -0.037035 -0.318072
v 0.328851 0.040378 -0.329172
v 0.012267 0.040378 -0.329172
v 0.012267 0.037034 -0.318072
v 0.328851 0.037034 -0.318072
v 0.012267 -0.040378 -0.575072
v 0.328851 -0.040378 -0.575072
v 0.328851 -0.040378 -0.329172
v 0.012267 -0.040378 -0.329172
v -0.694808 -0.037035 -0.318072
v -0.694808 0.037034 -0.318072
v -1.011393 0.037034 -0.318072
v -1.011393 -0.037035 -0.318072
v -0.680517 -0.037035 -0.575072
v -0.680517 0.037034 -0.575072
v -0.680517 0.037034 -0.329172
v -0.680517 -0.037035 -0.329172
v -0.694808 0.040378 -0.575072
v -1.011393 0.040378 -0.575072
v -1.011393 0.040378 -0.329172
v -0.694808 0.040378 -0.329172
v -1.025684 -0.037035 -0.329172
v -1.025684 0.037034 -0.329172
v -1.025684 0.037034 -0.575072
v -1.025684 -0.037035 -0.575072
v -1.011393 -0.037035 -0.586172
v -1.011393 0.037034 -0.586172
v -0.694808 0.037034 -0.586172
v -0.694808 -0.037035 -0.586172
v -1.011393 -0.040378 -0.575072
v -1.011393 -0.040378 -0.329172
v -1.025684 -0.037035 -0.329172
v -1.025684 -0.037035 -0.575072
v -1.011393 -0.037035 -0.318072
v -1.011393 0.037034 -0.318072
v -1.025684 0.037034 -0.329172
v -1.025684 -0.037035 -0.329172
v -1.011393 0.040378 -0.329172
v -1.011393 0.040378 -0.575072
v -1.025684 0.037034 -0.575072
v -1.025684 0.037034 -0.329172
v -1.011393 0.037034 -0.586172
v -1.011393 -0.037035 -0.586172
v -1.025684 -0.037035 -0.575072
v -1.025684 0.037034 -0.575072
v -0.694808 -0.040378 -0.575072
v -1.011393 -0.040378 -0.575072
v -1.011393 -0.037035 -0.586172
v -0.694808 -0.037035 -0.586172
v -1.011393 0.040378 -0.575072
v -0.694808 0.040378 -0.575072
v -0.694808 0.037034 -0.586172
v -1.011393 0.037034 -0.586172
v -0.680517 0.037034 -0.575072
v -0.680517 -0.037035 -0.575072
v -0.694808 -0.037035 -0.586172
v -0.694808 0.037034 -0.586172
v -0.694808 -0.040378 -0.329172
v -0.694808 -0.040378 -0.575072
v -0.680517 -0.037035 -0.575072
v -0.680517 -0.037035 -0.329172
v -0.694808 0.040378 -0.575072
v -0.694808 0.040378 -0.329172
v -0.680517 0.037034 -0.329172
v -0.680517 0.037034 -0.575072
v -0.694808 0.037034 -0.318072
v -0.694808 -0.037035 -0.318072
v -0.680517 -0.037035 -0.329172
v -0.680517 0.037034 -0.329172
v -1.011393 -0.040378 -0.329172
v -0.694808 -0.040378 -0.329172
v -0.694808 -0.037035 -0.318072
v -1.011393 -0.037035 -0.318072
v -0.694808 0.040378 -0.329172
v -1.011393 0.040378 -0.329172
v -1.011393 0.037034 -0.318072
v -0.694808 0.037034 -0.318072
v -1.011393 -0.040378 -0.575072
v -0.694808 -0.040378 -0.575072
v -0.694808 -0.040378 -0.329172
v -1.011393 -0.040378 -0.329172
v -0.353792 -0.037035 -0.318072
v -0.353792 0.037034 -0.318072
v -0.670377 0.037034 -0.318072
v -0.670377 -0.037035 -0.318072
v -0.339501 -0.037035 -0.575072
v -0.339501 0.037034 -0.575072
v -0.339501 0.037034 -0.329172
v -0.339501 -0.037035 -0.329172
v -0.353792 0.040378 -0.575072
v -0.670377 0.040378 -0.575072
v -0.670377 0.040378 -0.329172
v -0.353792 0.040378 -0.329172
v -0.684668 -0.037035 -0.329172
v -0.684668 0.037034 -0.329172
v -0.684668 0.037034 -0.575072
v -0.684668 -0.037035 -0.575072
v -0.670377 -0.037035 -0.586172
v -0.670377 0.037034 -0.586172
v -0.353792 0.037034 -0.586172
v -0.353792 -0.037035 -0.586172
v -0.670377 -0.040378 -0.575072
v -0.670377 -0.040378 -0.329172
v -0.684668 -0.037035 -0.329172
v -0.684668 -0.037035 -0.575072
v -0.670377 -0.037035 -0.318072
v -0.670377 0.037034 -0.318072
v -0.684668 0.037034 -0.329172
v -0.684668 -0.037035 -0.329172
v -0.670377 0.040378 -0.329172
v -0.670377 0.040378 -0.575072
v -0.684668 0.037034 -0.575072
v -0.684668 0.037034 -0.329172
v -0.670377 0.037034 -0.586172
v -0.670377 -0.037035 -0.586172
v -0.684668 -0.037035 -0.575072
v -0.684668 0.037034 -0.575072
v -0.353792 -0.040378 -0.575072
v -0.670377 -0.040378 -0.575072
v -0.670377 -0.037035 -0.586172
v -0.353792 -0.037035 -0.586172
v -0.670377 0.040378 -0.575072
v -0.353792 0.040378 -0.575072
v -0.353792 0.037034 -0.586172
v -0.670377 0.037034 -0.586172
v -0.339501 0.037034 -0.575072
v -0.339501 -0.037035 -0.575072
v -0.353792 -0.037035 -0.586172
v -0.353792 0.037034 -0.586172
v -0.353792 -0.040378 -0.329172
v -0.353792 -0.040378 -0.575072
v -0.339501 -0.037035 -0.575072
v -0.339501 -0.037035 -0.329172
v -0.353792 0.040378 -0.575072
v -0.353792 0.040378 -0.329172
v -0.339501 0.037034 -0.329172
v -0.339501 0.037034 -0.575072
v -0.353792 0.037034 -0.318072
v -0.353792 -0.037035 -0.318072
v -0.339501 -0.037035 -0.329172
v -0.339501 0.037034 -0.329172
v -0.670377 -0.040378 -0.329172
v -0.353792 -0.040378 -0.329172
v -0.353792 -0.037035 -0.318072
v -0.670377 -0.037035 -0.318072
v -0.353792 0.040378 -0.329172
v -0.670377 0.040378 -0.329172
v -0.670377 0.037034 -0.318072
v -0.353792 0.037034 -0.318072
v -0.670377 -0.040378 -0.575072
v -0.353792 -0.040378 -0.575072
v -0.353792 -0.040378 -0.329172
v -0.670377 -0.040378 -0.329172
vn -0.2186 -0.9343 0.2814
vn -0.2186 0.9343 0.2814
vn -0.2186 -0.9343 -0.2814
vn -0.2186 0.9343 -0.2814
vn 0.2186 -0.9343 0.2814
vn 0.2186 0.9343 0.2814
vn 0.2186 -0.9343 -0.2814
vn 0.2186 0.9343 -0.2814
vn -0.0000 -0.0000 1.0000
vn 1.0000 -0.0000 -0.0000
vn -0.0000 1.0000 -0.0000
vn -1.0000 -0.0000 -0.0000
vn -0.0000 -0.0000 -1.0000
vn -0.2278 -0.9737 -0.0000
vn -0.6134 -0.0000 0.7898
vn -0.2278 0.9737 -0.0000
vn -0.6134 -0.0000 -0.7898
vn -0.0000 -0.9575 -0.2884
vn -0.0000 0.9575 -0.2884
vn 0.6134 -0.0000 -0.7898
vn 0.2278 -0.9737 -0.0000
vn 0.2278 0.9737 -0.0000
vn 0.6134 -0.0000 0.7897
vn 0.6134 -0.0000 0.7898
vn -0.0000 -0.9575 0.2884
vn -0.0000 0.9575 0.2884
vn -0.0000 -1.0000 -0.0000
vn -0.6134 -0.0000 0.7897
vn 0.6134 -0.0000 -0.7897
vn -0.6134 -0.0000 -0.7897
vt 0.135351 0.260351
vt 0.135351 0.250000
vt 0.125000 0.260351
vt 0.614649 1.000000
vt 0.625000 0.989649
vt 0.614649 0.989649
vt 0.135351 0.489649
vt 0.125000 0.489649
vt 0.135351 0.500000
vt 0.625000 0.760351
vt 0.614649 0.750000
vt 0.614649 0.760351
vt 0.364649 0.260351
vt 0.375000 0.260351
vt 0.364649 0.250000
vt 0.625000 0.239649
vt 0.614649 0.239649
vt 0.614649 0.250000
vt 0.364649 0.489649
vt 0.364649 0.500000
vt 0.375000 0.489649
vt 0.625000 0.510351
vt 0.614649 0.500000
vt 0.614649 0.510351
vt 0.385351 0.239649
vt 0.614649 0.010351
vt 0.385351 0.010351
vt 0.385351 0.489649
vt 0.614649 0.489649
vt 0.614649 0.260351
vt 0.385351 0.260351
vt 0.635351 0.489649
vt 0.864649 0.489649
vt 0.864649 0.260351
vt 0.635351 0.260351
vt 0.385351 0.989649
vt 0.385351 0.760351
vt 0.385351 0.739649
vt 0.614649 0.739649
vt 0.385351 0.510351
vt 0.385351 1.000000
vt 0.625000 0.739649
vt 0.364649 0.250000
vt 0.625000 0.010351
s 0
usemtl Material.002
f 1/1/1 2/2/1 3/3/1
f 4/4/2 5/5/2 6/6/2
f 7/7/3 8/8/3 9/9/3
f 10/10/4 11/11/4 12/12/4
f 13/13/5 14/14/5 15/15/5
f 16/16/6 17/17/6 18/18/6
f 19/19/7 20/20/7 21/21/7
f 22/22/8 23/23/8 24/24/8
f 25/1/1 26/2/1 27/3/1
f 28/4/2 29/5/2 30/6/2
s 1
f 31/7/3 32/8/3 33/9/3
s 0
f 34/10/4 35/11/4 36/12/4
f 37/13/5 38/14/5 39/15/5
f 40/16/6 41/17/6 42/18/6
f 43/19/7 44/20/7 45/21/7
f 46/22/8 47/23/8 48/24/8
f 49/1/1 50/2/1 51/3/1
f 52/4/2 53/5/2 54/6/2
f 55/7/3 56/8/3 57/9/3
f 58/10/4 59/11/4 60/12/4
f 61/13/5 62/14/5 63/15/5
f 64/16/6 65/17/6 66/18/6
f 67/19/7 68/20/7 69/21/7
f 70/22/8 71/23/8 72/24/8
f 73/1/1 74/2/1 75/3/1
f 76/4/2 77/5/2 78/6/2
f 79/7/3 80/8/3 81/9/3
f 82/10/4 83/11/4 84/12/4
f 85/13/5 86/14/5 87/15/5
f 88/16/6 89/17/6 90/18/6
f 91/19/7 92/20/7 93/21/7
f 94/22/8 95/23/8 96/24/8
f 97/1/1 98/2/1 99/3/1
f 100/4/2 101/5/2 102/6/2
f 103/7/3 104/8/3 105/9/3
f 106/10/4 107/11/4 108/12/4
f 109/13/5 110/14/5 111/15/5
f 112/16/6 113/17/6 114/18/6
f 115/19/7 116/20/7 117/21/7
f 118/22/8 119/23/8 120/24/8
f 121/1/1 122/2/1 123/3/1
f 124/4/2 125/5/2 126/6/2
f 127/7/3 128/8/3 129/9/3
f 130/10/4 131/11/4 132/12/4
f 133/13/5 134/14/5 135/15/5
f 136/16/6 137/17/6 138/18/6
f 139/19/7 140/20/7 141/21/7
f 142/22/8 143/23/8 144/24/8
f 145/1/1 146/2/1 147/3/1
f 148/4/2 149/5/2 150/6/2
f 151/7/3 152/8/3 153/9/3
f 154/10/4 155/11/4 156/12/4
f 157/13/5 158/14/5 159/15/5
f 160/16/6 161/17/6 162/18/6
f 163/19/7 164/20/7 165/21/7
f 166/22/8 167/23/8 168/24/8
f 169/1/1 170/2/1 171/3/1
f 172/4/2 173/5/2 174/6/2
f 175/7/3 176/8/3 177/9/3
f 178/10/4 179/11/4 180/12/4
f 181/13/5 182/14/5 183/15/5
f 184/16/6 185/17/6 186/18/6
f 187/19/7 188/20/7 189/21/7
f 190/22/8 191/23/8 192/24/8
f 193/1/1 194/2/1 195/3/1
f 196/4/2 197/5/2 198/6/2
f 199/7/3 200/8/3 201/9/3
f 202/10/4 203/11/4 204/12/4
f 205/13/5 206/14/5 207/15/5
f 208/16/6 209/17/6 210/18/6
f 211/19/7 212/20/7 213/21/7
f 214/22/8 215/23/8 216/24/8
f 217/1/1 218/2/1 219/3/1
f 220/4/2 221/5/2 222/6/2
f 223/7/3 224/8/3 225/9/3
f 226/10/4 227/11/4 228/12/4
f 229/13/5 230/14/5 231/15/5
f 232/16/6 233/17/6 234/18/6
f 235/19/7 236/20/7 237/21/7
f 238/22/8 239/23/8 240/24/8
f 241/1/1 242/2/1 243/3/1
f 244/4/2 245/5/2 246/6/2
f 247/7/3 248/8/3 249/9/3
f 250/10/4 251/11/4 252/12/4
f 253/13/5 254/14/5 255/15/5
f 256/16/6 257/17/6 258/18/6
f 259/19/7 260/20/7 261/21/7
f 262/22/8 263/23/8 264/24/8
f 265/1/1 266/2/1 267/3/1
f 268/4/2 269/5/2 270/6/2
f 271/7/3 272/8/3 273/9/3
f 274/10/4 275/11/4 276/12/4
f 277/13/5 278/14/5 279/15/5
f 280/16/6 281/17/6 282/18/6
f 283/19/7 284/20/7 285/21/7
f 286/22/8 287/23/8 288/24/8
f 289/25/9 290/17/9 291/26/9
f 289/25/9 291/26/9 292/27/9
f 293/28/10 294/29/10 295/30/10
f 293/28/10 295/30/10 296/31/10
f 297/32/11 298/33/11 299/34/11
f 297/32/11 299/34/11 300/35/11
f 301/36/12 302/6/12 303/12/12
f 301/36/12 303/12/12 304/37/12
f 305/38/13 306/39/13 307/24/13
f 305/38/13 307/24/13 308/40/13
f 309/7/14 310/1/14 311/3/14
f 309/7/14 311/3/14 312/8/14
f 313/41/15 314/4/15 315/6/15
f 313/41/15 315/6/15 316/36/15
f 317/5/16 318/10/16 319/12/16
f 317/5/16 319/12/16 320/6/16
f 321/39/17 322/38/17 323/37/17
f 321/39/17 323/37/17 324/12/17
f 325/19/18 326/7/18 327/9/18
f 325/19/18 327/9/18 328/20/18
f 329/42/19 330/22/19 331/24/19
f 329/42/19 331/24/19 332/39/19
f 333/29/20 334/28/20 335/40/20
f 333/29/20 335/40/20 336/24/20
f 337/13/21 338/19/21 339/28/21
f 337/13/21 339/28/21 340/31/21
f 341/32/22 342/35/22 343/30/22
f 341/32/22 343/30/22 344/29/22
f 345/17/23 346/25/23 347/31/23
f 345/17/24 347/31/24 348/30/24
f 349/1/25 350/13/25 351/43/25
f 349/1/25 351/43/25 352/2/25
f 353/16/26 354/44/26 355/26/26
f 353/16/26 355/26/26 356/17/26
f 357/7/27 358/19/27 359/13/27
f 357/7/27 359/13/27 360/1/27
f 361/25/9 362/17/9 363/26/9
f 361/25/9 363/26/9 364/27/9
f 365/28/10 366/29/10 367/30/10
f 365/28/10 367/30/10 368/31/10
f 369/32/11 370/33/11 371/34/11
f 369/32/11 371/34/11 372/35/11
f 373/36/12 374/6/12 375/12/12
f 373/36/12 375/12/12 376/37/12
f 377/38/13 378/39/13 379/24/13
f 377/38/13 379/24/13 380/40/13
f 381/7/14 382/1/14 383/3/14
f 381/7/14 383/3/14 384/8/14
f 385/41/28 386/4/28 387/6/28
f 385/41/15 387/6/15 388/36/15
f 389/5/16 390/10/16 391/12/16
f 389/5/16 391/12/16 392/6/16
f 393/39/17 394/38/17 395/37/17
f 393/39/17 395/37/17 396/12/17
f 397/19/18 398/7/18 399/9/18
f 397/19/18 399/9/18 400/20/18
f 401/42/19 402/22/19 403/24/19
f 401/42/19 403/24/19 404/39/19
f 405/29/20 406/28/20 407/40/20
f 405/29/20 407/40/20 408/24/20
f 409/13/21 410/19/21 411/28/21
f 409/13/21 411/28/21 412/31/21
f 413/32/22 414/35/22 415/30/22
f 413/32/22 415/30/22 416/29/22
f 417/17/23 418/25/23 419/31/23
f 417/17/24 419/31/24 420/30/24
f 421/1/25 422/13/25 423/43/25
s 1
f 421/1/25 423/43/25 424/2/25
s 0
f 425/16/26 426/44/26 427/26/26
f 425/16/26 427/26/26 428/17/26
f 429/7/27 430/19/27 431/13/27
f 429/7/27 431/13/27 432/1/27
f 433/25/9 434/17/9 435/26/9
f 433/25/9 435/26/9 436/27/9
f 437/28/10 438/29/10 439/30/10
f 437/28/10 439/30/10 440/31/10
f 441/32/11 442/33/11 443/34/11
f 441/32/11 443/34/11 444/35/11
f 445/36/12 446/6/12 447/12/12
f 445/36/12 447/12/12 448/37/12
f 449/38/13 450/39/13 451/24/13
f 449/38/13 451/24/13 452/40/13
f 453/7/14 454/1/14 455/3/14
f 453/7/14 455/3/14 456/8/14
f 457/41/15 458/4/15 459/6/15
f 457/41/15 459/6/15 460/36/15
f 461/5/16 462/10/16 463/12/16
f 461/5/16 463/12/16 464/6/16
f 465/39/17 466/38/17 467/37/17
f 465/39/17 467/37/17 468/12/17
f 469/19/18 470/7/18 471/9/18
f 469/19/18 471/9/18 472/20/18
f 473/42/19 474/22/19 475/24/19
f 473/42/19 475/24/19 476/39/19
f 477/29/20 478/28/20 479/40/20
f 477/29/20 479/40/20 480/24/20
f 481/13/21 482/19/21 483/28/21
f 481/13/21 483/28/21 484/31/21
f 485/32/22 486/35/22 487/30/22
f 485/32/22 487/30/22 488/29/22
f 489/17/24 490/25/24 491/31/24
f 489/17/24 491/31/24 492/30/24
f 493/1/25 494/13/25 495/43/25
f 493/1/25 495/43/25 496/2/25
f 497/16/26 498/44/26 499/26/26
f 497/16/26 499/26/26 500/17/26
f 501/7/27 502/19/27 503/13/27
f 501/7/27 503/13/27 504/1/27
f 505/25/9 506/17/9 507/26/9
f 505/25/9 507/26/9 508/27/9
f 509/28/10 510/29/10 511/30/10
f 509/28/10 511/30/10 512/31/10
f 513/32/11 514/33/11 515/34/11
f 513/32/11 515/34/11 516/35/11
f 517/36/12 518/6/12 519/12/12
f 517/36/12 519/12/12 520/37/12
f 521/38/13 522/39/13 523/24/13
f 521/38/13 523/24/13 524/40/13
f 525/7/14 526/1/14 527/3/14
f 525/7/14 527/3/14 528/8/14
f 529/41/15 530/4/15 531/6/15
f 529/41/15 531/6/15 532/36/15
f 533/5/16 534/10/16 535/12/16
f 533/5/16 535/12/16 536/6/16
f 537/39/17 538/38/17 539/37/17
f 537/39/17 539/37/17 540/12/17
f 541/19/18 542/7/18 543/9/18
f 541/19/18 543/9/18 544/20/18
f 545/42/19 546/22/19 547/24/19
f 545/42/19 547/24/19 548/39/19
f 549/29/20 550/28/20 551/40/20
f 549/29/20 551/40/20 552/24/20
f 553/13/21 554/19/21 555/28/21
f 553/13/21 555/28/21 556/31/21
f 557/32/22 558/35/22 559/30/22
f 557/32/22 559/30/22 560/29/22
f 561/17/24 562/25/24 563/31/24
f 561/17/24 563/31/24 564/30/24
f 565/1/25 566/13/25 567/43/25
f 565/1/25 567/43/25 568/2/25
f 569/16/26 570/44/26 571/26/26
f 569/16/26 571/26/26 572/17/26
f 573/7/27 574/19/27 575/13/27
f 573/7/27 575/13/27 576/1/27
f 577/25/9 578/17/9 579/26/9
f 577/25/9 579/26/9 580/27/9
f 581/28/10 582/29/10 583/30/10
f 581/28/10 583/30/10 584/31/10
f 585/32/11 586/33/11 587/34/11
f 585/32/11 587/34/11 588/35/11
f 589/36/12 590/6/12 591/12/12
f 589/36/12 591/12/12 592/37/12
f 593/38/13 594/39/13 595/24/13
f 593/38/13 595/24/13 596/40/13
f 597/7/14 598/1/14 599/3/14
f 597/7/14 599/3/14 600/8/14
f 601/41/15 602/4/15 603/6/15
f 601/41/15 603/6/15 604/36/15
f 605/5/16 606/10/16 607/12/16
f 605/5/16 607/12/16 608/6/16
f 609/39/17 610/38/17 611/37/17
f 609/39/17 611/37/17 612/12/17
f 613/19/18 614/7/18 615/9/18
f 613/19/18 615/9/18 616/20/18
f 617/42/19 618/22/19 619/24/19
f 617/42/19 619/24/19 620/39/19
f 621/29/20 622/28/20 623/40/20
f 621/29/20 623/40/20 624/24/20
f 625/13/21 626/19/21 627/28/21
f 625/13/21 627/28/21 628/31/21
f 629/32/22 630/35/22 631/30/22
f 629/32/22 631/30/22 632/29/22
f 633/17/24 634/25/24 635/31/24
f 633/17/24 635/31/24 636/30/24
f 637/1/25 638/13/25 639/43/25
f 637/1/25 639/43/25 640/2/25
f 641/16/26 642/44/26 643/26/26
f 641/16/26 643/26/26 644/17/26
f 645/7/27 646/19/27 647/13/27
f 645/7/27 647/13/27 648/1/27
f 649/25/9 650/17/9 651/26/9
f 649/25/9 651/26/9 652/27/9
f 653/28/10 654/29/10 655/30/10
f 653/28/10 655/30/10 656/31/10
f 657/32/11 658/33/11 659/34/11
f 657/32/11 659/34/11 660/35/11
f 661/36/12 662/6/12 663/12/12
f 661/36/12 663/12/12 664/37/12
f 665/38/13 666/39/13 667/24/13
f 665/38/13 667/24/13 668/40/13
f 669/7/14 670/1/14 671/3/14
f 669/7/14 671/3/14 672/8/14
f 673/41/15 674/4/15 675/6/15
f 673/41/15 675/6/15 676/36/15
f 677/5/16 678/10/16 679/12/16
f 677/5/16 679/12/16 680/6/16
f 681/39/17 682/38/17 683/37/17
f 681/39/17 683/37/17 684/12/17
f 685/19/18 686/7/18 687/9/18
f 685/19/18 687/9/18 688/20/18
f 689/42/19 690/22/19 691/24/19
f 689/42/19 691/24/19 692/39/19
f 693/29/20 694/28/20 695/40/20
f 693/29/20 695/40/20 696/24/20
f 697/13/21 698/19/21 699/28/21
f 697/13/21 699/28/21 700/31/21
f 701/32/22 702/35/22 703/30/22
f 701/32/22 703/30/22 704/29/22
f 705/17/24 706/25/24 707/31/24
f 705/17/24 707/31/24 708/30/24
f 709/1/25 710/13/25 711/43/25
f 709/1/25 711/43/25 712/2/25
f 713/16/26 714/44/26 715/26/26
f 713/16/26 715/26/26 716/17/26
f 717/7/27 718/19/27 719/13/27
f 717/7/27 719/13/27 720/1/27
f 721/25/9 722/17/9 723/26/9
f 721/25/9 723/26/9 724/27/9
f 725/28/10 726/29/10 727/30/10
f 725/28/10 727/30/10 728/31/10
f 729/32/11 730/33/11 731/34/11
f 729/32/11 731/34/11 732/35/11
f 733/36/12 734/6/12 735/12/12
f 733/36/12 735/12/12 736/37/12
f 737/38/13 738/39/13 739/24/13
f 737/38/13 739/24/13 740/40/13
f 741/7/14 742/1/14 743/3/14
f 741/7/14 743/3/14 744/8/14
f 745/41/15 746/4/15 747/6/15
f 745/41/15 747/6/15 748/36/15
f 749/5/16 750/10/16 751/12/16
f 749/5/16 751/12/16 752/6/16
f 753/39/17 754/38/17 755/37/17
f 753/39/17 755/37/17 756/12/17
f 757/19/18 758/7/18 759/9/18
f 757/19/18 759/9/18 760/20/18
f 761/42/19 762/22/19 763/24/19
f 761/42/19 763/24/19 764/39/19
f 765/29/20 766/28/20 767/40/20
f 765/29/29 767/40/29 768/24/29
f 769/13/21 770/19/21 771/28/21
f 769/13/21 771/28/21 772/31/21
f 773/32/22 774/35/22 775/30/22
f 773/32/22 775/30/22 776/29/22
f 777/17/24 778/25/24 779/31/24
f 777/17/24 779/31/24 780/30/24
f 781/1/25 782/13/25 783/43/25
f 781/1/25 783/43/25 784/2/25
f 785/16/26 786/44/26 787/26/26
f 785/16/26 787/26/26 788/17/26
f 789/7/27 790/19/27 791/13/27
f 789/7/27 791/13/27 792/1/27
f 793/25/9 794/17/9 795/26/9
f 793/25/9 795/26/9 796/27/9
f 797/28/10 798/29/10 799/30/10
f 797/28/10 799/30/10 800/31/10
f 801/32/11 802/33/11 803/34/11
f 801/32/11 803/34/11 804/35/11
f 805/36/12 806/6/12 807/12/12
f 805/36/12 807/12/12 808/37/12
f 809/38/13 810/39/13 811/24/13
f 809/38/13 811/24/13 812/40/13
f 813/7/14 814/1/14 815/3/14
s 1
f 813/7/14 815/3/14 816/8/14
s 0
f 817/41/15 818/4/15 819/6/15
f 817/41/15 819/6/15 820/36/15
f 821/5/16 822/10/16 823/12/16
f 821/5/16 823/12/16 824/6/16
f 825/39/30 826/38/30 827/37/30
f 825/39/17 827/37/17 828/12/17
f 829/19/18 830/7/18 831/9/18
f 829/19/18 831/9/18 832/20/18
f 833/42/19 834/22/19 835/24/19
f 833/42/19 835/24/19 836/39/19
f 837/29/20 838/28/20 839/40/20
f 837/29/29 839/40/29 840/24/29
f 841/13/21 842/19/21 843/28/21
f 841/13/21 843/28/21 844/31/21
f 845/32/22 846/35/22 847/30/22
f 845/32/22 847/30/22 848/29/22
f 849/17/24 850/25/24 851/31/24
f 849/17/24 851/31/24 852/30/24
f 853/1/25 854/13/25 855/43/25
f 853/1/25 855/43/25 856/2/25
f 857/16/26 858/44/26 859/26/26
f 857/16/26 859/26/26 860/17/26
f 861/7/27 862/19/27 863/13/27
f 861/7/27 863/13/27 864/1/27
f 865/25/9 866/17/9 867/26/9
f 865/25/9 867/26/9 868/27/9
f 869/28/10 870/29/10 871/30/10
f 869/28/10 871/30/10 872/31/10
f 873/32/11 874/33/11 875/34/11
f 873/32/11 875/34/11 876/35/11
f 877/36/12 878/6/12 879/12/12
f 877/36/12 879/12/12 880/37/12
f 881/38/13 882/39/13 883/24/13
f 881/38/13 883/24/13 884/40/13
f 885/7/14 886/1/14 887/3/14
s 1
f 885/7/14 887/3/14 888/8/14
s 0
f 889/41/15 890/4/15 891/6/15
f 889/41/15 891/6/15 892/36/15
s 1
f 893/5/16 894/10/16 895/12/16
s 0
f 893/5/16 895/12/16 896/6/16
f 897/39/17 898/38/17 899/37/17
f 897/39/17 899/37/17 900/12/17
f 901/19/18 902/7/18 903/9/18
f 901/19/18 903/9/18 904/20/18
s 1
f 905/42/19 906/22/19 907/24/19
s 0
f 905/42/19 907/24/19 908/39/19
f 909/29/20 910/28/20 911/40/20
f 909/29/20 911/40/20 912/24/20
f 913/13/21 914/19/21 915/28/21
f 913/13/21 915/28/21 916/31/21
f 917/32/22 918/35/22 919/30/22
f 917/32/22 919/30/22 920/29/22
f 921/17/24 922/25/24 923/31/24
f 921/17/24 923/31/24 924/30/24
f 925/1/25 926/13/25 927/43/25
f 925/1/25 927/43/25 928/2/25
f 929/16/26 930/44/26 931/26/26
f 929/16/26 931/26/26 932/17/26
f 933/7/27 934/19/27 935/13/27
f 933/7/27 935/13/27 936/1/27
f 937/25/9 938/17/9 939/26/9
f 937/25/9 939/26/9 940/27/9
f 941/28/10 942/29/10 943/30/10
f 941/28/10 943/30/10 944/31/10
f 945/32/11 946/33/11 947/34/11
f 945/32/11 947/34/11 948/35/11
f 949/36/12 950/6/12 951/12/12
f 949/36/12 951/12/12 952/37/12
f 953/38/13 954/39/13 955/24/13
f 953/38/13 955/24/13 956/40/13
f 957/7/14 958/1/14 959/3/14
f 957/7/14 959/3/14 960/8/14
f 961/41/15 962/4/15 963/6/15
f 961/41/15 963/6/15 964/36/15
f 965/5/16 966/10/16 967/12/16
f 965/5/16 967/12/16 968/6/16
f 969/39/17 970/38/17 971/37/17
f 969/39/17 971/37/17 972/12/17
f 973/19/18 974/7/18 975/9/18
f 973/19/18 975/9/18 976/20/18
s 1
f 977/42/19 978/22/19 979/24/19
s 0
f 977/42/19 979/24/19 980/39/19
f 981/29/20 982/28/20 983/40/20
f 981/29/20 983/40/20 984/24/20
f 985/13/21 986/19/21 987/28/21
f 985/13/21 987/28/21 988/31/21
f 989/32/22 990/35/22 991/30/22
f 989/32/22 991/30/22 992/29/22
f 993/17/24 994/25/24 995/31/24
f 993/17/24 995/31/24 996/30/24
f 997/1/25 998/13/25 999/43/25
f 997/1/25 999/43/25 1000/2/25
f 1001/16/26 1002/44/26 1003/26/26
f 1001/16/26 1003/26/26 1004/17/26
f 1005/7/27 1006/19/27 1007/13/27
f 1005/7/27 1007/13/27 1008/1/27
f 1009/25/9 1010/17/9 1011/26/9
f 1009/25/9 1011/26/9 1012/27/9
f 1013/28/10 1014/29/10 1015/30/10
f 1013/28/10 1015/30/10 1016/31/10
f 1017/32/11 1018/33/11 1019/34/11
f 1017/32/11 1019/34/11 1020/35/11
f 1021/36/12 1022/6/12 1023/12/12
f 1021/36/12 1023/12/12 1024/37/12
f 1025/38/13 1026/39/13 1027/24/13
f 1025/38/13 1027/24/13 1028/40/13
f 1029/7/14 1030/1/14 1031/3/14
f 1029/7/14 1031/3/14 1032/8/14
f 1033/41/15 1034/4/15 1035/6/15
f 1033/41/15 1035/6/15 1036/36/15
f 1037/5/16 1038/10/16 1039/12/16
f 1037/5/16 1039/12/16 1040/6/16
f 1041/39/17 1042/38/17 1043/37/17
f 1041/39/17 1043/37/17 1044/12/17
s 1
f 1045/19/18 1046/7/18 1047/9/18
f 1045/19/18 1047/9/18 1048/20/18
s 0
f 1049/42/19 1050/22/19 1051/24/19
f 1049/42/19 1051/24/19 1052/39/19
f 1053/29/20 1054/28/20 1055/40/20
f 1053/29/20 1055/40/20 1056/24/20
s 1
f 1057/13/21 1058/19/21 1059/28/21
s 0
f 1057/13/21 1059/28/21 1060/31/21
f 1061/32/22 1062/35/22 1063/30/22
s 1
f 1061/32/22 1063/30/22 1064/29/22
s 0
f 1065/17/24 1066/25/24 1067/31/24
f 1065/17/24 1067/31/24 1068/30/24
f 1069/1/25 1070/13/25 1071/43/25
f 1069/1/25 1071/43/25 1072/2/25
f 1073/16/26 1074/44/26 1075/26/26
f 1073/16/26 1075/26/26 1076/17/26
f 1077/7/27 1078/19/27 1079/13/27
f 1077/7/27 1079/13/27 1080/1/27
f 1081/25/9 1082/17/9 1083/26/9
f 1081/25/9 1083/26/9 1084/27/9
f 1085/28/10 1086/29/10 1087/30/10
f 1085/28/10 1087/30/10 1088/31/10
f 1089/32/11 1090/33/11 1091/34/11
f 1089/32/11 1091/34/11 1092/35/11
f 1093/36/12 1094/6/12 1095/12/12
f 1093/36/12 1095/12/12 1096/37/12
f 1097/38/13 1098/39/13 1099/24/13
f 1097/38/13 1099/24/13 1100/40/13
f 1101/7/14 1102/1/14 1103/3/14
s 1
f 1101/7/14 1103/3/14 1104/8/14
s 0
f 1105/41/15 1106/4/15 1107/6/15
f 1105/41/15 1107/6/15 1108/36/15
s 1
f 1109/5/16 1110/10/16 1111/12/16
s 0
f 1109/5/16 1111/12/16 1112/6/16
f 1113/39/17 1114/38/17 1115/37/17
f 1113/39/17 1115/37/17 1116/12/17
s 1
f 1117/19/18 1118/7/18 1119/9/18
s 0
f 1117/19/18 1119/9/18 1120/20/18
f 1121/42/19 1122/22/19 1123/24/19
f 1121/42/19 1123/24/19 1124/39/19
f 1125/29/20 1126/28/20 1127/40/20
f 1125/29/20 1127/40/20 1128/24/20
f 1129/13/21 1130/19/21 1131/28/21
f 1129/13/21 1131/28/21 1132/31/21
f 1133/32/22 1134/35/22 1135/30/22
f 1133/32/22 1135/30/22 1136/29/22
f 1137/17/24 1138/25/24 1139/31/24
f 1137/17/24 1139/31/24 1140/30/24
f 1141/1/25 1142/13/25 1143/43/25
f 1141/1/25 1143/43/25 1144/2/25
f 1145/16/26 1146/44/26 1147/26/26
f 1145/16/26 1147/26/26 1148/17/26
f 1149/7/27 1150/19/27 1151/13/27
f 1149/7/27 1151/13/27 1152/1/27
