# Blender 5.2.0 LTS
# www.blender.org
mtllib Cube_004.mtl
o Cube.004_Material.003_0
v -1.015782 -0.029528 -0.353104
v -1.015782 -0.029528 -1.095792
v -1.015782 0.029528 -1.095792
v -1.015782 0.029528 -0.353104
v -1.015782 -0.029528 1.095792
v -1.015782 -0.029528 0.353104
v -1.015782 0.029528 0.353104
v -1.015782 0.029528 1.095792
v -0.829748 0.029528 1.095792
v -1.015782 0.029528 1.095792
v -0.464497 0.029528 0.366356
v -0.402301 0.029528 0.366356
v 0.582286 0.029528 0.144621
v 0.549323 0.029528 0.292221
v 0.181677 0.029528 0.146439
v 0.198195 0.029528 0.072473
v -1.015782 0.029528 1.095792
v -1.015782 0.029528 0.353104
v -0.464497 0.029528 0.366356
v 0.327730 0.029528 0.605635
v 0.226556 0.029528 0.689574
v 0.019933 0.029528 0.345560
v 0.070632 0.029528 0.303497
v 0.489113 0.029528 0.406959
v 0.428903 0.029528 0.521697
v 0.121333 0.029528 0.261433
v 0.151505 0.029528 0.203936
v 0.069254 0.029528 0.710324
v -0.088048 0.029528 0.731074
v -0.137721 0.029528 0.366356
v -0.058895 0.029528 0.355958
v 0.226556 0.029528 0.689574
v 0.069254 0.029528 0.710324
v -0.058895 0.029528 0.355958
v 0.019933 0.029528 0.345560
v 0.433180 0.029528 1.033588
v 0.197403 0.029528 1.075037
v 0.069254 0.029528 0.710324
v 0.226556 0.029528 0.689574
v 0.197403 0.029528 1.075037
v -0.038374 0.029528 1.095792
v -0.088048 0.029528 0.731074
v 0.069254 0.029528 0.710324
v 0.549323 0.029528 0.292221
v 0.489113 0.029528 0.406959
v 0.151505 0.029528 0.203936
v 0.181677 0.029528 0.146439
v 0.916969 0.029528 0.438004
v 0.843979 0.029528 0.609982
v 0.489113 0.029528 0.406959
v 0.549323 0.029528 0.292221
v 0.843979 0.029528 0.609982
v 0.736473 0.029528 0.781961
v 0.428903 0.029528 0.521697
v 0.489113 0.029528 0.406959
v 0.428903 0.029528 0.521697
v 0.327730 0.029528 0.605635
v 0.070632 0.029528 0.303497
v 0.121333 0.029528 0.261433
v 0.736473 0.029528 0.781961
v 0.592316 0.029528 0.932176
v 0.327730 0.029528 0.605635
v 0.428903 0.029528 0.521697
v 0.592316 0.029528 0.932176
v 0.433180 0.029528 1.033588
v 0.226556 0.029528 0.689574
v 0.327730 0.029528 0.605635
v 0.615248 0.029528 -0.002980
v 0.582286 0.029528 0.144621
v 0.198195 0.029528 0.072473
v 0.214713 0.029528 -0.001493
v 1.015782 0.029528 -0.004468
v 0.967483 0.029528 0.216768
v 0.582286 0.029528 0.144621
v 0.615248 0.029528 -0.002980
v 0.967483 0.029528 0.216768
v 0.916969 0.029528 0.438004
v 0.549323 0.029528 0.292221
v 0.582286 0.029528 0.144621
v 0.582286 0.029528 -0.144620
v 0.615248 0.029528 0.002981
v 0.214714 0.029528 0.001495
v 0.198195 0.029528 -0.072471
v -1.015782 0.029528 -0.353104
v -1.015782 0.029528 -1.095792
v -0.464497 0.029528 -0.366354
v 0.327730 0.029528 -0.605634
v 0.428903 0.029528 -0.521696
v 0.121333 0.029528 -0.261431
v 0.070632 0.029528 -0.303494
v -1.015782 0.029528 -1.095792
v -0.829748 0.029528 -1.095792
v -0.402301 0.029528 -0.366354
v -0.464497 0.029528 -0.366354
v 0.489113 0.029528 -0.406958
v 0.549323 0.029528 -0.292220
v 0.181677 0.029528 -0.146436
v 0.151505 0.029528 -0.203934
v 0.069254 0.029528 -0.710322
v 0.226556 0.029528 -0.689572
v 0.019933 0.029528 -0.345557
v -0.058895 0.029528 -0.355956
v -0.088048 0.029528 -0.731073
v 0.069254 0.029528 -0.710322
v -0.058895 0.029528 -0.355956
v -0.137722 0.029528 -0.366354
v -0.038374 0.029528 -1.095792
v 0.197403 0.029528 -1.075036
v 0.069254 0.029528 -0.710322
v -0.088048 0.029528 -0.731073
v 0.197403 0.029528 -1.075036
v 0.433180 0.029528 -1.033588
v 0.226556 0.029528 -0.689572
v 0.069254 0.029528 -0.710322
v 0.428903 0.029528 -0.521696
v 0.489113 0.029528 -0.406958
v 0.151505 0.029528 -0.203934
v 0.121333 0.029528 -0.261431
v 0.736474 0.029528 -0.781961
v 0.843979 0.029528 -0.609982
v 0.489113 0.029528 -0.406958
v 0.428903 0.029528 -0.521696
v 0.843979 0.029528 -0.609982
v 0.916969 0.029528 -0.438004
v 0.549323 0.029528 -0.292220
v 0.489113 0.029528 -0.406958
v 0.226556 0.029528 -0.689572
v 0.327730 0.029528 -0.605634
v 0.070632 0.029528 -0.303494
v 0.019933 0.029528 -0.345557
v 0.433180 0.029528 -1.033588
v 0.592316 0.029528 -0.932175
v 0.327730 0.029528 -0.605634
v 0.226556 0.029528 -0.689572
v 0.592316 0.029528 -0.932175
v 0.736474 0.029528 -0.781961
v 0.428903 0.029528 -0.521696
v 0.327730 0.029528 -0.605634
v 0.549323 0.029528 -0.292220
v 0.582286 0.029528 -0.144620
v 0.198195 0.029528 -0.072471
v 0.181677 0.029528 -0.146436
v 0.916969 0.029528 -0.438004
v 0.967483 0.029528 -0.216768
v 0.582286 0.029528 -0.144620
v 0.549323 0.029528 -0.292220
v 0.967483 0.029528 -0.216768
v 1.015782 0.029528 0.004467
v 0.615248 0.029528 0.002981
v 0.582286 0.029528 -0.144620
v -0.402301 0.029528 0.366356
v -0.038374 0.029528 1.095792
v -0.829748 0.029528 1.095792
v -0.088048 0.029528 0.731074
v -0.137721 0.029528 0.366356
v -0.038374 0.029528 -1.095792
v -0.402301 0.029528 -0.366354
v -0.829748 0.029528 -1.095792
v -0.088048 0.029528 -0.731073
v -0.137722 0.029528 -0.366354
vn 1.0000 -0.0000 -0.0000
vn -0.0000 -1.0000 -0.0000
vt 0.000000 1.000000
s 0
usemtl Material.003
f 1/1/1 2/1/1 3/1/1
f 1/1/1 3/1/1 4/1/1
f 5/1/1 6/1/1 7/1/1
f 5/1/1 7/1/1 8/1/1
f 9/1/2 10/1/2 11/1/2
f 9/1/2 11/1/2 12/1/2
f 13/1/2 14/1/2 15/1/2
f 13/1/2 15/1/2 16/1/2
f 17/1/2 18/1/2 19/1/2
f 20/1/2 21/1/2 22/1/2
f 20/1/2 22/1/2 23/1/2
f 24/1/2 25/1/2 26/1/2
f 24/1/2 26/1/2 27/1/2
f 28/1/2 29/1/2 30/1/2
f 28/1/2 30/1/2 31/1/2
f 32/1/2 33/1/2 34/1/2
f 32/1/2 34/1/2 35/1/2
f 36/1/2 37/1/2 38/1/2
f 36/1/2 38/1/2 39/1/2
f 40/1/2 41/1/2 42/1/2
f 40/1/2 42/1/2 43/1/2
f 44/1/2 45/1/2 46/1/2
f 44/1/2 46/1/2 47/1/2
f 48/1/2 49/1/2 50/1/2
f 48/1/2 50/1/2 51/1/2
f 52/1/2 53/1/2 54/1/2
f 52/1/2 54/1/2 55/1/2
f 56/1/2 57/1/2 58/1/2
f 56/1/2 58/1/2 59/1/2
f 60/1/2 61/1/2 62/1/2
f 60/1/2 62/1/2 63/1/2
f 64/1/2 65/1/2 66/1/2
f 64/1/2 66/1/2 67/1/2
f 68/1/2 69/1/2 70/1/2
f 68/1/2 70/1/2 71/1/2
f 72/1/2 73/1/2 74/1/2
f 72/1/2 74/1/2 75/1/2
f 76/1/2 77/1/2 78/1/2
f 76/1/2 78/1/2 79/1/2
f 80/1/2 81/1/2 82/1/2
f 80/1/2 82/1/2 83/1/2
f 84/1/2 85/1/2 86/1/2
f 87/1/2 88/1/2 89/1/2
f 87/1/2 89/1/2 90/1/2
f 91/1/2 92/1/2 93/1/2
f 91/1/2 93/1/2 94/1/2
f 95/1/2 96/1/2 97/1/2
f 95/1/2 97/1/2 98/1/2
f 99/1/2 100/1/2 101/1/2
f 99/1/2 101/1/2 102/1/2
f 103/1/2 104/1/2 105/1/2
f 103/1/2 105/1/2 106/1/2
f 107/1/2 108/1/2 109/1/2
f 107/1/2 109/1/2 110/1/2
f 111/1/2 112/1/2 113/1/2
f 111/1/2 113/1/2 114/1/2
f 115/1/2 116/1/2 117/1/2
f 115/1/2 117/1/2 118/1/2
f 119/1/2 120/1/2 121/1/2
f 119/1/2 121/1/2 122/1/2
f 123/1/2 124/1/2 125/1/2
f 123/1/2 125/1/2 126/1/2
f 127/1/2 128/1/2 129/1/2
f 127/1/2 129/1/2 130/1/2
f 131/1/2 132/1/2 133/1/2
f 131/1/2 133/1/2 134/1/2
f 135/1/2 136/1/2 137/1/2
f 135/1/2 137/1/2 138/1/2
f 139/1/2 140/1/2 141/1/2
f 139/1/2 141/1/2 142/1/2
f 143/1/2 144/1/2 145/1/2
f 143/1/2 145/1/2 146/1/2
f 147/1/2 148/1/2 149/1/2
f 147/1/2 149/1/2 150/1/2
f 151/1/2 152/1/2 153/1/2
f 152/1/2 151/1/2 154/1/2
f 154/1/2 151/1/2 155/1/2
f 156/1/2 157/1/2 158/1/2
f 157/1/2 156/1/2 159/1/2
f 157/1/2 159/1/2 160/1/2
