# Blender 5.2.0 LTS
# www.blender.org
mtllib Cube_011.mtl
o Cube.011_Material.013_0
v 0.075868 0.006418 -0.000107
v 0.075867 -0.006433 -0.000107
v 0.076428 -0.006433 -0.005884
v 0.076429 0.006418 -0.005884
v 0.076429 0.006418 -0.005884
v 0.076428 -0.006433 -0.005884
v 0.078105 -0.006433 -0.011441
v 0.078106 0.006417 -0.011441
v 0.078106 0.006417 -0.011441
v 0.078105 -0.006433 -0.011441
v 0.080834 -0.006433 -0.016564
v 0.080835 0.006417 -0.016564
v 0.080835 0.006417 -0.016564
v 0.080834 -0.006433 -0.016564
v 0.084510 -0.006434 -0.021056
v 0.084511 0.006417 -0.021056
v 0.084511 0.006417 -0.021056
v 0.084510 -0.006434 -0.021056
v 0.088991 -0.006434 -0.024744
v 0.088993 0.006416 -0.024744
v 0.088993 0.006416 -0.024744
v 0.088991 -0.006434 -0.024744
v 0.094107 -0.006435 -0.027488
v 0.094108 0.006416 -0.027488
v 0.094108 0.006416 -0.027488
v 0.094107 -0.006435 -0.027488
v 0.099659 -0.006435 -0.029181
v 0.099660 0.006415 -0.029181
v 0.099660 0.006415 -0.029181
v 0.099659 -0.006435 -0.029181
v 0.105434 -0.006436 -0.029758
v 0.105435 0.006415 -0.029758
v 0.105435 0.006415 -0.029758
v 0.105434 -0.006436 -0.029758
v 0.111211 -0.006436 -0.029197
v 0.111213 0.006414 -0.029197
v 0.111213 0.006414 -0.029197
v 0.111211 -0.006436 -0.029197
v 0.116768 -0.006437 -0.027520
v 0.116769 0.006414 -0.027520
v 0.116769 0.006414 -0.027520
v 0.116768 -0.006437 -0.027520
v 0.121891 -0.006437 -0.024791
v 0.121892 0.006413 -0.024791
v 0.121892 0.006413 -0.024791
v 0.121891 -0.006437 -0.024791
v 0.126383 -0.006438 -0.021115
v 0.126384 0.006413 -0.021115
v 0.126384 0.006413 -0.021115
v 0.126383 -0.006438 -0.021115
v 0.130072 -0.006438 -0.016633
v 0.130073 0.006412 -0.016633
v 0.130073 0.006412 -0.016633
v 0.130072 -0.006438 -0.016633
v 0.132815 -0.006438 -0.011518
v 0.132816 0.006412 -0.011518
v 0.132816 0.006412 -0.011518
v 0.132815 -0.006438 -0.011518
v 0.134508 -0.006439 -0.005966
v 0.134509 0.006412 -0.005966
v 0.134509 0.006412 -0.005966
v 0.134508 -0.006439 -0.005966
v 0.135085 -0.006439 -0.000191
v 0.135086 0.006412 -0.000191
v 0.135086 0.006412 -0.000191
v 0.135085 -0.006439 -0.000191
v 0.134524 -0.006438 0.005587
v 0.134525 0.006412 0.005587
v 0.134525 0.006412 0.005587
v 0.134524 -0.006438 0.005587
v 0.132847 -0.006438 0.011144
v 0.132848 0.006412 0.011144
v 0.132848 0.006412 0.011144
v 0.132847 -0.006438 0.011144
v 0.130118 -0.006438 0.016266
v 0.130119 0.006412 0.016266
v 0.130119 0.006412 0.016266
v 0.130118 -0.006438 0.016266
v 0.126442 -0.006438 0.020758
v 0.126443 0.006413 0.020758
v 0.126443 0.006413 0.020758
v 0.126442 -0.006438 0.020758
v 0.121960 -0.006437 0.024447
v 0.121962 0.006413 0.024447
v 0.121962 0.006413 0.024447
v 0.121960 -0.006437 0.024447
v 0.116845 -0.006437 0.027190
v 0.116847 0.006414 0.027190
v 0.116847 0.006414 0.027190
v 0.116845 -0.006437 0.027190
v 0.111293 -0.006436 0.028883
v 0.111295 0.006414 0.028883
v 0.111295 0.006414 0.028883
v 0.111293 -0.006436 0.028883
v 0.105518 -0.006436 0.029460
v 0.105519 0.006415 0.029460
v 0.105519 0.006415 0.029460
v 0.105518 -0.006436 0.029460
v 0.099740 -0.006435 0.028899
v 0.099742 0.006415 0.028899
v 0.099742 0.006415 0.028899
v 0.099740 -0.006435 0.028899
v 0.094184 -0.006434 0.027222
v 0.094185 0.006416 0.027222
v 0.094185 0.006416 0.027222
v 0.094184 -0.006434 0.027222
v 0.089061 -0.006434 0.024493
v 0.089062 0.006416 0.024493
v 0.089062 0.006416 0.024493
v 0.089061 -0.006434 0.024493
v 0.084569 -0.006434 0.020817
v 0.084570 0.006417 0.020817
v 0.084570 0.006417 0.020817
v 0.084569 -0.006434 0.020817
v 0.080880 -0.006433 0.016336
v 0.080881 0.006417 0.016336
v 0.080881 0.006417 0.016336
v 0.080880 -0.006433 0.016336
v 0.078137 -0.006433 0.011221
v 0.078138 0.006417 0.011221
v 0.078138 0.006417 0.011221
v 0.078137 -0.006433 0.011221
v 0.076444 -0.006433 0.005669
v 0.076445 0.006418 0.005669
v 0.076445 0.006418 0.005669
v 0.076444 -0.006433 0.005669
v 0.075867 -0.006433 -0.000107
v 0.075868 0.006418 -0.000107
v -0.030984 0.006428 0.000044
v -0.030985 -0.006422 0.000044
v -0.030424 -0.006422 -0.005734
v -0.030423 0.006428 -0.005734
v -0.030423 0.006428 -0.005734
v -0.030424 -0.006422 -0.005734
v -0.028747 -0.006422 -0.011290
v -0.028746 0.006428 -0.011290
v -0.028746 0.006428 -0.011290
v -0.028747 -0.006422 -0.011290
v -0.026018 -0.006423 -0.016413
v -0.026017 0.006428 -0.016413
v -0.026017 0.006428 -0.016413
v -0.026018 -0.006423 -0.016413
v -0.022342 -0.006423 -0.020905
v -0.022341 0.006427 -0.020905
v -0.022341 0.006427 -0.020905
v -0.022342 -0.006423 -0.020905
v -0.017860 -0.006423 -0.024594
v -0.017859 0.006427 -0.024594
v -0.017859 0.006427 -0.024594
v -0.017860 -0.006423 -0.024594
v -0.012745 -0.006424 -0.027337
v -0.012744 0.006426 -0.027337
v -0.012744 0.006426 -0.027337
v -0.012745 -0.006424 -0.027337
v -0.007193 -0.006424 -0.029030
v -0.007192 0.006426 -0.029030
v -0.007192 0.006426 -0.029030
v -0.007193 -0.006424 -0.029030
v -0.001418 -0.006425 -0.029607
v -0.001416 0.006425 -0.029607
v -0.001416 0.006425 -0.029607
v -0.001418 -0.006425 -0.029607
v 0.004360 -0.006426 -0.029046
v 0.004361 0.006425 -0.029046
v 0.004361 0.006425 -0.029046
v 0.004360 -0.006426 -0.029046
v 0.009916 -0.006426 -0.027369
v 0.009918 0.006424 -0.027369
v 0.009918 0.006424 -0.027369
v 0.009916 -0.006426 -0.027369
v 0.015039 -0.006427 -0.024640
v 0.015040 0.006424 -0.024640
v 0.015040 0.006424 -0.024640
v 0.015039 -0.006427 -0.024640
v 0.019531 -0.006427 -0.020964
v 0.019532 0.006423 -0.020964
v 0.019532 0.006423 -0.020964
v 0.019531 -0.006427 -0.020964
v 0.023220 -0.006427 -0.016483
v 0.023221 0.006423 -0.016483
v 0.023221 0.006423 -0.016483
v 0.023220 -0.006427 -0.016483
v 0.025963 -0.006428 -0.011367
v 0.025964 0.006423 -0.011367
v 0.025964 0.006423 -0.011367
v 0.025963 -0.006428 -0.011367
v 0.027656 -0.006428 -0.005815
v 0.027657 0.006422 -0.005815
v 0.027657 0.006422 -0.005815
v 0.027656 -0.006428 -0.005815
v 0.028233 -0.006428 -0.000040
v 0.028234 0.006422 -0.000040
v 0.028234 0.006422 -0.000040
v 0.028233 -0.006428 -0.000040
v 0.027672 -0.006428 0.005737
v 0.027673 0.006422 0.005737
v 0.027673 0.006422 0.005737
v 0.027672 -0.006428 0.005737
v 0.025995 -0.006428 0.011294
v 0.025996 0.006423 0.011294
v 0.025996 0.006423 0.011294
v 0.025995 -0.006428 0.011294
v 0.023266 -0.006427 0.016417
v 0.023267 0.006423 0.016417
v 0.023267 0.006423 0.016417
v 0.023266 -0.006427 0.016417
v 0.019590 -0.006427 0.020909
v 0.019591 0.006423 0.020909
v 0.019591 0.006423 0.020909
v 0.019590 -0.006427 0.020909
v 0.015109 -0.006427 0.024598
v 0.015110 0.006424 0.024598
v 0.015110 0.006424 0.024598
v 0.015109 -0.006427 0.024598
v 0.009993 -0.006426 0.027341
v 0.009995 0.006424 0.027341
v 0.009995 0.006424 0.027341
v 0.009993 -0.006426 0.027341
v 0.004441 -0.006426 0.029034
v 0.004443 0.006425 0.029034
v 0.004443 0.006425 0.029034
v 0.004441 -0.006426 0.029034
v -0.001334 -0.006425 0.029611
v -0.001333 0.006425 0.029611
v -0.001333 0.006425 0.029611
v -0.001334 -0.006425 0.029611
v -0.007111 -0.006424 0.029050
v -0.007110 0.006426 0.029050
v -0.007110 0.006426 0.029050
v -0.007111 -0.006424 0.029050
v -0.012668 -0.006424 0.027373
v -0.012667 0.006426 0.027373
v -0.012667 0.006426 0.027373
v -0.012668 -0.006424 0.027373
v -0.017791 -0.006423 0.024644
v -0.017790 0.006427 0.024644
v -0.017790 0.006427 0.024644
v -0.017791 -0.006423 0.024644
v -0.022283 -0.006423 0.020968
v -0.022282 0.006427 0.020968
v -0.022282 0.006427 0.020968
v -0.022283 -0.006423 0.020968
v -0.025972 -0.006423 0.016486
v -0.025970 0.006428 0.016486
v -0.025970 0.006428 0.016486
v -0.025972 -0.006423 0.016486
v -0.028715 -0.006422 0.011371
v -0.028714 0.006428 0.011371
v -0.028714 0.006428 0.011371
v -0.028715 -0.006422 0.011371
v -0.030408 -0.006422 0.005819
v -0.030406 0.006428 0.005819
v -0.030406 0.006428 0.005819
v -0.030408 -0.006422 0.005819
v -0.030985 -0.006422 0.000044
v -0.030984 0.006428 0.000044
v -0.135085 0.006439 0.000191
v -0.135086 -0.006412 0.000191
v -0.134525 -0.006412 -0.005587
v -0.134524 0.006438 -0.005587
v -0.134524 0.006438 -0.005587
v -0.134525 -0.006412 -0.005587
v -0.132848 -0.006412 -0.011144
v -0.132847 0.006438 -0.011144
v -0.132847 0.006438 -0.011144
v -0.132848 -0.006412 -0.011144
v -0.130119 -0.006412 -0.016266
v -0.130118 0.006438 -0.016266
v -0.130118 0.006438 -0.016266
v -0.130119 -0.006412 -0.016266
v -0.126443 -0.006413 -0.020758
v -0.126442 0.006438 -0.020758
v -0.126442 0.006438 -0.020758
v -0.126443 -0.006413 -0.020758
v -0.121962 -0.006413 -0.024447
v -0.121960 0.006437 -0.024447
v -0.121960 0.006437 -0.024447
v -0.121962 -0.006413 -0.024447
v -0.116847 -0.006414 -0.027190
v -0.116845 0.006437 -0.027190
v -0.116845 0.006437 -0.027190
v -0.116847 -0.006414 -0.027190
v -0.111295 -0.006414 -0.028883
v -0.111293 0.006436 -0.028883
v -0.111293 0.006436 -0.028883
v -0.111295 -0.006414 -0.028883
v -0.105519 -0.006415 -0.029460
v -0.105518 0.006436 -0.029460
v -0.105518 0.006436 -0.029460
v -0.105519 -0.006415 -0.029460
v -0.099742 -0.006415 -0.028899
v -0.099740 0.006435 -0.028899
v -0.099740 0.006435 -0.028899
v -0.099742 -0.006415 -0.028899
v -0.094185 -0.006416 -0.027222
v -0.094184 0.006434 -0.027222
v -0.094184 0.006434 -0.027222
v -0.094185 -0.006416 -0.027222
v -0.089062 -0.006416 -0.024493
v -0.089061 0.006434 -0.024493
v -0.089061 0.006434 -0.024493
v -0.089062 -0.006416 -0.024493
v -0.084570 -0.006417 -0.020817
v -0.084569 0.006434 -0.020817
v -0.084569 0.006434 -0.020817
v -0.084570 -0.006417 -0.020817
v -0.080881 -0.006417 -0.016336
v -0.080880 0.006433 -0.016336
v -0.080880 0.006433 -0.016336
v -0.080881 -0.006417 -0.016336
v -0.078138 -0.006417 -0.011221
v -0.078137 0.006433 -0.011221
v -0.078137 0.006433 -0.011221
v -0.078138 -0.006417 -0.011221
v -0.076445 -0.006418 -0.005669
v -0.076444 0.006433 -0.005669
v -0.076444 0.006433 -0.005669
v -0.076445 -0.006418 -0.005669
v -0.075868 -0.006418 0.000107
v -0.075867 0.006433 0.000107
v -0.075867 0.006433 0.000107
v -0.075868 -0.006418 0.000107
v -0.076429 -0.006418 0.005884
v -0.076428 0.006433 0.005884
v -0.076428 0.006433 0.005884
v -0.076429 -0.006418 0.005884
v -0.078106 -0.006417 0.011441
v -0.078105 0.006433 0.011441
v -0.078105 0.006433 0.011441
v -0.078106 -0.006417 0.011441
v -0.080835 -0.006417 0.016564
v -0.080834 0.006433 0.016564
v -0.080834 0.006433 0.016564
v -0.080835 -0.006417 0.016564
v -0.084511 -0.006417 0.021056
v -0.084510 0.006434 0.021056
v -0.084510 0.006434 0.021056
v -0.084511 -0.006417 0.021056
v -0.088993 -0.006416 0.024744
v -0.088991 0.006434 0.024744
v -0.088991 0.006434 0.024744
v -0.088993 -0.006416 0.024744
v -0.094108 -0.006416 0.027488
v -0.094107 0.006434 0.027488
v -0.094107 0.006434 0.027488
v -0.094108 -0.006416 0.027488
v -0.099660 -0.006415 0.029181
v -0.099659 0.006435 0.029181
v -0.099659 0.006435 0.029181
v -0.099660 -0.006415 0.029181
v -0.105435 -0.006415 0.029758
v -0.105434 0.006436 0.029758
v -0.105434 0.006436 0.029758
v -0.105435 -0.006415 0.029758
v -0.111213 -0.006414 0.029197
v -0.111211 0.006436 0.029197
v -0.111211 0.006436 0.029197
v -0.111213 -0.006414 0.029197
v -0.116769 -0.006414 0.027520
v -0.116768 0.006437 0.027520
v -0.116768 0.006437 0.027520
v -0.116769 -0.006414 0.027520
v -0.121892 -0.006413 0.024791
v -0.121891 0.006437 0.024791
v -0.121891 0.006437 0.024791
v -0.121892 -0.006413 0.024791
v -0.126384 -0.006413 0.021115
v -0.126383 0.006438 0.021115
v -0.126383 0.006438 0.021115
v -0.126384 -0.006413 0.021115
v -0.130073 -0.006412 0.016633
v -0.130072 0.006438 0.016633
v -0.130072 0.006438 0.016633
v -0.130073 -0.006412 0.016633
v -0.132816 -0.006412 0.011518
v -0.132815 0.006438 0.011518
v -0.132815 0.006438 0.011518
v -0.132816 -0.006412 0.011518
v -0.134509 -0.006412 0.005966
v -0.134508 0.006438 0.005966
v -0.134508 0.006438 0.005966
v -0.134509 -0.006412 0.005966
v -0.135086 -0.006412 0.000191
v -0.135085 0.006439 0.000191
v 0.076428 -0.006433 -0.005884
v 0.075867 -0.006433 -0.000107
v 0.076444 -0.006433 0.005669
v 0.078137 -0.006433 0.011221
v 0.080880 -0.006433 0.016336
v 0.084569 -0.006434 0.020817
v 0.089061 -0.006434 0.024493
v 0.094184 -0.006434 0.027222
v 0.099740 -0.006435 0.028899
v 0.105518 -0.006436 0.029460
v 0.111293 -0.006436 0.028883
v 0.116845 -0.006437 0.027190
v 0.121960 -0.006437 0.024447
v 0.126442 -0.006438 0.020758
v 0.130118 -0.006438 0.016266
v 0.132847 -0.006438 0.011144
v 0.134524 -0.006438 0.005587
v 0.135085 -0.006439 -0.000191
v 0.134508 -0.006439 -0.005966
v 0.132815 -0.006438 -0.011518
v 0.130072 -0.006438 -0.016633
v 0.126383 -0.006438 -0.021115
v 0.121891 -0.006437 -0.024791
v 0.116768 -0.006437 -0.027520
v 0.111211 -0.006436 -0.029197
v 0.105434 -0.006436 -0.029758
v 0.099659 -0.006435 -0.029181
v 0.094107 -0.006435 -0.027488
v 0.088991 -0.006434 -0.024744
v 0.084510 -0.006434 -0.021056
v 0.080834 -0.006433 -0.016564
v 0.078105 -0.006433 -0.011441
v 0.075868 0.006418 -0.000107
v 0.076429 0.006418 -0.005884
v 0.078106 0.006417 -0.011441
v 0.080835 0.006417 -0.016564
v 0.084511 0.006417 -0.021056
v 0.088993 0.006416 -0.024744
v 0.094108 0.006416 -0.027488
v 0.099660 0.006415 -0.029181
v 0.105435 0.006415 -0.029758
v 0.111213 0.006414 -0.029197
v 0.116769 0.006414 -0.027520
v 0.121892 0.006413 -0.024791
v 0.126384 0.006413 -0.021115
v 0.130073 0.006412 -0.016633
v 0.132816 0.006412 -0.011518
v 0.134509 0.006412 -0.005966
v 0.135086 0.006412 -0.000191
v 0.134525 0.006412 0.005587
v 0.132848 0.006412 0.011144
v 0.130119 0.006412 0.016266
v 0.126443 0.006413 0.020758
v 0.121962 0.006413 0.024447
v 0.116847 0.006414 0.027190
v 0.111295 0.006414 0.028883
v 0.105519 0.006415 0.029460
v 0.099742 0.006415 0.028899
v 0.094185 0.006416 0.027222
v 0.089062 0.006416 0.024493
v 0.084570 0.006417 0.020817
v 0.080881 0.006417 0.016336
v 0.078138 0.006417 0.011221
v 0.076445 0.006418 0.005669
v -0.030424 -0.006422 -0.005734
v -0.030985 -0.006422 0.000044
v -0.030408 -0.006422 0.005819
v -0.028715 -0.006422 0.011371
v -0.025972 -0.006423 0.016486
v -0.022283 -0.006423 0.020968
v -0.017791 -0.006423 0.024644
v -0.012668 -0.006424 0.027373
v -0.007111 -0.006424 0.029050
v -0.001334 -0.006425 0.029611
v 0.004441 -0.006426 0.029034
v 0.009993 -0.006426 0.027341
v 0.015109 -0.006427 0.024598
v 0.019590 -0.006427 0.020909
v 0.023266 -0.006427 0.016417
v 0.025995 -0.006428 0.011294
v 0.027672 -0.006428 0.005737
v 0.028233 -0.006428 -0.000040
v 0.027656 -0.006428 -0.005815
v 0.025963 -0.006428 -0.011367
v 0.023220 -0.006427 -0.016483
v 0.019531 -0.006427 -0.020964
v 0.015039 -0.006427 -0.024640
v 0.009916 -0.006426 -0.027369
v 0.004360 -0.006426 -0.029046
v -0.001418 -0.006425 -0.029607
v -0.007193 -0.006424 -0.029030
v -0.012745 -0.006424 -0.027337
v -0.017860 -0.006423 -0.024594
v -0.022342 -0.006423 -0.020905
v -0.026018 -0.006423 -0.016413
v -0.028747 -0.006422 -0.011290
v -0.030984 0.006428 0.000044
v -0.030423 0.006428 -0.005734
v -0.028746 0.006428 -0.011290
v -0.026017 0.006428 -0.016413
v -0.022341 0.006427 -0.020905
v -0.017859 0.006427 -0.024594
v -0.012744 0.006426 -0.027337
v -0.007192 0.006426 -0.029030
v -0.001416 0.006425 -0.029607
v 0.004361 0.006425 -0.029046
v 0.009918 0.006424 -0.027369
v 0.015040 0.006424 -0.024640
v 0.019532 0.006423 -0.020964
v 0.023221 0.006423 -0.016483
v 0.025964 0.006423 -0.011367
v 0.027657 0.006422 -0.005815
v 0.028234 0.006422 -0.000040
v 0.027673 0.006422 0.005737
v 0.025996 0.006423 0.011294
v 0.023267 0.006423 0.016417
v 0.019591 0.006423 0.020909
v 0.015110 0.006424 0.024598
v 0.009995 0.006424 0.027341
v 0.004443 0.006425 0.029034
v -0.001333 0.006425 0.029611
v -0.007110 0.006426 0.029050
v -0.012667 0.006426 0.027373
v -0.017790 0.006427 0.024644
v -0.022282 0.006427 0.020968
v -0.025970 0.006428 0.016486
v -0.028714 0.006428 0.011371
v -0.030406 0.006428 0.005819
v -0.134525 -0.006412 -0.005587
v -0.135086 -0.006412 0.000191
v -0.134509 -0.006412 0.005966
v -0.132816 -0.006412 0.011518
v -0.130073 -0.006412 0.016633
v -0.126384 -0.006413 0.021115
v -0.121892 -0.006413 0.024791
v -0.116769 -0.006414 0.027520
v -0.111213 -0.006414 0.029197
v -0.105435 -0.006415 0.029758
v -0.099660 -0.006415 0.029181
v -0.094108 -0.006416 0.027488
v -0.088993 -0.006416 0.024744
v -0.084511 -0.006417 0.021056
v -0.080835 -0.006417 0.016564
v -0.078106 -0.006417 0.011441
v -0.076429 -0.006418 0.005884
v -0.075868 -0.006418 0.000107
v -0.076445 -0.006418 -0.005669
v -0.078138 -0.006417 -0.011221
v -0.080881 -0.006417 -0.016336
v -0.084570 -0.006417 -0.020817
v -0.089062 -0.006416 -0.024493
v -0.094185 -0.006416 -0.027222
v -0.099742 -0.006415 -0.028899
v -0.105519 -0.006415 -0.029460
v -0.111295 -0.006414 -0.028883
v -0.116847 -0.006414 -0.027190
v -0.121962 -0.006413 -0.024447
v -0.126443 -0.006413 -0.020758
v -0.130119 -0.006412 -0.016266
v -0.132848 -0.006412 -0.011144
v -0.135085 0.006439 0.000191
v -0.134524 0.006438 -0.005587
v -0.132847 0.006438 -0.011144
v -0.130118 0.006438 -0.016266
v -0.126442 0.006438 -0.020758
v -0.121960 0.006437 -0.024447
v -0.116845 0.006437 -0.027190
v -0.111293 0.006436 -0.028883
v -0.105518 0.006436 -0.029460
v -0.099740 0.006435 -0.028899
v -0.094184 0.006434 -0.027222
v -0.089061 0.006434 -0.024493
v -0.084569 0.006434 -0.020817
v -0.080880 0.006433 -0.016336
v -0.078137 0.006433 -0.011221
v -0.076444 0.006433 -0.005669
v -0.075867 0.006433 0.000107
v -0.076428 0.006433 0.005884
v -0.078105 0.006433 0.011441
v -0.080834 0.006433 0.016564
v -0.084510 0.006434 0.021056
v -0.088991 0.006434 0.024744
v -0.094107 0.006434 0.027488
v -0.099659 0.006435 0.029181
v -0.105434 0.006436 0.029758
v -0.111211 0.006436 0.029197
v -0.116768 0.006437 0.027520
v -0.121891 0.006437 0.024791
v -0.126383 0.006438 0.021115
v -0.130072 0.006438 0.016633
v -0.132815 0.006438 0.011518
v -0.134508 0.006438 0.005966
vn 0.9953 -0.0001 0.0966
vn 0.9574 -0.0001 0.2889
vn 0.8826 -0.0001 0.4702
vn 0.7739 -0.0001 0.6333
vn 0.6355 -0.0001 0.7721
vn 0.4726 -0.0000 0.8813
vn 0.2916 -0.0000 0.9565
vn 0.0994 -0.0000 0.9950
vn -0.0966 -0.0000 0.9953
vn -0.2889 -0.0000 0.9573
vn -0.4702 -0.0000 0.8826
vn -0.6333 0.0001 0.7739
vn -0.7721 0.0001 0.6355
vn -0.8813 0.0001 0.4726
vn -0.9565 0.0001 0.2916
vn -0.9950 0.0001 0.0994
vn -0.9953 0.0001 -0.0966
vn -0.9574 0.0001 -0.2889
vn -0.8826 0.0001 -0.4702
vn -0.7739 0.0001 -0.6333
vn -0.6355 0.0001 -0.7721
vn -0.4726 -0.0000 -0.8813
vn -0.2916 -0.0000 -0.9565
vn -0.0994 -0.0000 -0.9950
vn 0.0966 -0.0000 -0.9953
vn 0.2889 -0.0000 -0.9573
vn 0.4702 -0.0000 -0.8826
vn 0.6333 -0.0001 -0.7739
vn 0.7721 -0.0001 -0.6355
vn 0.8813 -0.0001 -0.4726
vn 0.9565 -0.0001 -0.2916
vn 0.9950 -0.0001 -0.0994
vn 0.0001 1.0000 -0.0000
vn -0.0001 -1.0000 -0.0000
vt 1.000000 0.500000
vt 1.000000 0.000000
vt 0.968750 0.000000
vt 0.968750 0.500000
vt 0.937500 0.000000
vt 0.937500 0.500000
vt 0.906250 0.000000
vt 0.906250 0.500000
vt 0.875000 0.000000
vt 0.875000 0.500000
vt 0.843750 0.000000
vt 0.843750 0.500000
vt 0.812500 0.000000
vt 0.812500 0.500000
vt 0.781250 0.000000
vt 0.781250 0.500000
vt 0.750000 0.000000
vt 0.750000 0.500000
vt 0.718750 0.000000
vt 0.718750 0.500000
vt 0.687500 0.000000
vt 0.687500 0.500000
vt 0.656250 0.000000
vt 0.656250 0.500000
vt 0.625000 0.000000
vt 0.625000 0.500000
vt 0.593750 0.000000
vt 0.593750 0.500000
vt 0.562500 0.000000
vt 0.562500 0.500000
vt 0.531250 0.000000
vt 0.531250 0.500000
vt 0.500000 0.000000
vt 0.500000 0.500000
vt 0.468750 0.000000
vt 0.468750 0.500000
vt 0.437500 0.000000
vt 0.437500 0.500000
vt 0.406250 0.000000
vt 0.406250 0.500000
vt 0.375000 0.000000
vt 0.375000 0.500000
vt 0.343750 0.000000
vt 0.343750 0.500000
vt 0.312500 0.000000
vt 0.312500 0.500000
vt 0.281250 0.000000
vt 0.281250 0.500000
vt 0.250000 0.000000
vt 0.250000 0.500000
vt 0.218750 0.000000
vt 0.218750 0.500000
vt 0.187500 0.000000
vt 0.187500 0.500000
vt 0.156250 0.000000
vt 0.156250 0.500000
vt 0.125000 0.000000
vt 0.125000 0.500000
vt 0.093750 0.000000
vt 0.093750 0.500000
vt 0.062500 0.000000
vt 0.062500 0.500000
vt 0.031250 0.000000
vt 0.031250 0.500000
vt 0.000000 0.000000
vt 0.000000 0.500000
vt 0.485388 0.703178
vt 0.485388 0.796822
vt 0.490000 0.750000
vt 0.471731 0.658156
vt 0.471731 0.841844
vt 0.449553 0.616663
vt 0.449553 0.883337
vt 0.419706 0.580294
vt 0.419706 0.919706
vt 0.383337 0.550447
vt 0.383337 0.949553
vt 0.341844 0.528269
vt 0.341844 0.971731
vt 0.296822 0.514612
vt 0.296822 0.985388
vt 0.250000 0.510000
vt 0.250000 0.990000
vt 0.203178 0.514612
vt 0.203178 0.985388
vt 0.158156 0.528269
vt 0.158156 0.971731
vt 0.116663 0.550447
vt 0.116663 0.949553
vt 0.080294 0.580294
vt 0.080294 0.919706
vt 0.050447 0.616663
vt 0.050447 0.883337
vt 0.028269 0.658156
vt 0.028269 0.841844
vt 0.014612 0.703178
vt 0.014612 0.796822
vt 0.010000 0.750000
vt 0.985388 0.796822
vt 0.985388 0.703178
vt 0.990000 0.750000
vt 0.971731 0.841844
vt 0.971731 0.658156
vt 0.949553 0.883337
vt 0.949553 0.616663
vt 0.919706 0.919706
vt 0.919706 0.580294
vt 0.883337 0.949553
vt 0.883337 0.550447
vt 0.841844 0.971731
vt 0.841844 0.528269
vt 0.796822 0.985388
vt 0.796822 0.514612
vt 0.750000 0.990000
vt 0.750000 0.510000
vt 0.703178 0.985388
vt 0.703178 0.514612
vt 0.658156 0.971731
vt 0.658156 0.528269
vt 0.616663 0.949553
vt 0.616663 0.550447
vt 0.580294 0.919706
vt 0.580294 0.580294
vt 0.550447 0.883337
vt 0.550447 0.616663
vt 0.528269 0.841844
vt 0.528269 0.658156
vt 0.514612 0.796822
vt 0.514612 0.703178
vt 0.510000 0.750000
s 0
usemtl Material.013
f 1/1/1 2/2/1 3/3/1
f 1/1/1 3/3/1 4/4/1
f 5/4/2 6/3/2 7/5/2
f 5/4/2 7/5/2 8/6/2
f 9/6/3 10/5/3 11/7/3
f 9/6/3 11/7/3 12/8/3
f 13/8/4 14/7/4 15/9/4
f 13/8/4 15/9/4 16/10/4
f 17/10/5 18/9/5 19/11/5
f 17/10/5 19/11/5 20/12/5
f 21/12/6 22/11/6 23/13/6
f 21/12/6 23/13/6 24/14/6
f 25/14/7 26/13/7 27/15/7
f 25/14/7 27/15/7 28/16/7
f 29/16/8 30/15/8 31/17/8
f 29/16/8 31/17/8 32/18/8
f 33/18/9 34/17/9 35/19/9
f 33/18/9 35/19/9 36/20/9
f 37/20/10 38/19/10 39/21/10
f 37/20/10 39/21/10 40/22/10
f 41/22/11 42/21/11 43/23/11
f 41/22/11 43/23/11 44/24/11
f 45/24/12 46/23/12 47/25/12
f 45/24/12 47/25/12 48/26/12
f 49/26/13 50/25/13 51/27/13
f 49/26/13 51/27/13 52/28/13
f 53/28/14 54/27/14 55/29/14
f 53/28/14 55/29/14 56/30/14
f 57/30/15 58/29/15 59/31/15
f 57/30/15 59/31/15 60/32/15
f 61/32/16 62/31/16 63/33/16
f 61/32/16 63/33/16 64/34/16
f 65/34/17 66/33/17 67/35/17
f 65/34/17 67/35/17 68/36/17
f 69/36/18 70/35/18 71/37/18
f 69/36/18 71/37/18 72/38/18
f 73/38/19 74/37/19 75/39/19
f 73/38/19 75/39/19 76/40/19
f 77/40/20 78/39/20 79/41/20
f 77/40/20 79/41/20 80/42/20
f 81/42/21 82/41/21 83/43/21
f 81/42/21 83/43/21 84/44/21
f 85/44/22 86/43/22 87/45/22
f 85/44/22 87/45/22 88/46/22
f 89/46/23 90/45/23 91/47/23
f 89/46/23 91/47/23 92/48/23
f 93/48/24 94/47/24 95/49/24
f 93/48/24 95/49/24 96/50/24
f 97/50/25 98/49/25 99/51/25
f 97/50/25 99/51/25 100/52/25
f 101/52/26 102/51/26 103/53/26
f 101/52/26 103/53/26 104/54/26
f 105/54/27 106/53/27 107/55/27
f 105/54/27 107/55/27 108/56/27
f 109/56/28 110/55/28 111/57/28
f 109/56/28 111/57/28 112/58/28
f 113/58/29 114/57/29 115/59/29
f 113/58/29 115/59/29 116/60/29
f 117/60/30 118/59/30 119/61/30
f 117/60/30 119/61/30 120/62/30
f 121/62/31 122/61/31 123/63/31
f 121/62/31 123/63/31 124/64/31
f 125/64/32 126/63/32 127/65/32
f 125/64/32 127/65/32 128/66/32
f 129/1/1 130/2/1 131/3/1
f 129/1/1 131/3/1 132/4/1
f 133/4/2 134/3/2 135/5/2
f 133/4/2 135/5/2 136/6/2
f 137/6/3 138/5/3 139/7/3
f 137/6/3 139/7/3 140/8/3
f 141/8/4 142/7/4 143/9/4
f 141/8/4 143/9/4 144/10/4
f 145/10/5 146/9/5 147/11/5
f 145/10/5 147/11/5 148/12/5
f 149/12/6 150/11/6 151/13/6
f 149/12/6 151/13/6 152/14/6
f 153/14/7 154/13/7 155/15/7
f 153/14/7 155/15/7 156/16/7
f 157/16/8 158/15/8 159/17/8
f 157/16/8 159/17/8 160/18/8
f 161/18/9 162/17/9 163/19/9
f 161/18/9 163/19/9 164/20/9
f 165/20/10 166/19/10 167/21/10
f 165/20/10 167/21/10 168/22/10
f 169/22/11 170/21/11 171/23/11
f 169/22/11 171/23/11 172/24/11
f 173/24/12 174/23/12 175/25/12
f 173/24/12 175/25/12 176/26/12
f 177/26/13 178/25/13 179/27/13
f 177/26/13 179/27/13 180/28/13
f 181/28/14 182/27/14 183/29/14
f 181/28/14 183/29/14 184/30/14
f 185/30/15 186/29/15 187/31/15
f 185/30/15 187/31/15 188/32/15
f 189/32/16 190/31/16 191/33/16
f 189/32/16 191/33/16 192/34/16
f 193/34/17 194/33/17 195/35/17
f 193/34/17 195/35/17 196/36/17
f 197/36/18 198/35/18 199/37/18
f 197/36/18 199/37/18 200/38/18
f 201/38/19 202/37/19 203/39/19
f 201/38/19 203/39/19 204/40/19
f 205/40/20 206/39/20 207/41/20
f 205/40/20 207/41/20 208/42/20
f 209/42/21 210/41/21 211/43/21
f 209/42/21 211/43/21 212/44/21
f 213/44/22 214/43/22 215/45/22
f 213/44/22 215/45/22 216/46/22
f 217/46/23 218/45/23 219/47/23
f 217/46/23 219/47/23 220/48/23
f 221/48/24 222/47/24 223/49/24
f 221/48/24 223/49/24 224/50/24
f 225/50/25 226/49/25 227/51/25
f 225/50/25 227/51/25 228/52/25
f 229/52/26 230/51/26 231/53/26
f 229/52/26 231/53/26 232/54/26
f 233/54/27 234/53/27 235/55/27
f 233/54/27 235/55/27 236/56/27
f 237/56/28 238/55/28 239/57/28
f 237/56/28 239/57/28 240/58/28
f 241/58/29 242/57/29 243/59/29
f 241/58/29 243/59/29 244/60/29
f 245/60/30 246/59/30 247/61/30
f 245/60/30 247/61/30 248/62/30
f 249/62/31 250/61/31 251/63/31
f 249/62/31 251/63/31 252/64/31
f 253/64/32 254/63/32 255/65/32
f 253/64/32 255/65/32 256/66/32
f 257/1/1 258/2/1 259/3/1
f 257/1/1 259/3/1 260/4/1
f 261/4/2 262/3/2 263/5/2
f 261/4/2 263/5/2 264/6/2
f 265/6/3 266/5/3 267/7/3
f 265/6/3 267/7/3 268/8/3
f 269/8/4 270/7/4 271/9/4
f 269/8/4 271/9/4 272/10/4
f 273/10/5 274/9/5 275/11/5
f 273/10/5 275/11/5 276/12/5
f 277/12/6 278/11/6 279/13/6
f 277/12/6 279/13/6 280/14/6
f 281/14/7 282/13/7 283/15/7
f 281/14/7 283/15/7 284/16/7
f 285/16/8 286/15/8 287/17/8
f 285/16/8 287/17/8 288/18/8
f 289/18/9 290/17/9 291/19/9
f 289/18/9 291/19/9 292/20/9
f 293/20/10 294/19/10 295/21/10
f 293/20/10 295/21/10 296/22/10
f 297/22/11 298/21/11 299/23/11
f 297/22/11 299/23/11 300/24/11
f 301/24/12 302/23/12 303/25/12
f 301/24/12 303/25/12 304/26/12
f 305/26/13 306/25/13 307/27/13
f 305/26/13 307/27/13 308/28/13
f 309/28/14 310/27/14 311/29/14
f 309/28/14 311/29/14 312/30/14
f 313/30/15 314/29/15 315/31/15
f 313/30/15 315/31/15 316/32/15
f 317/32/16 318/31/16 319/33/16
f 317/32/16 319/33/16 320/34/16
f 321/34/17 322/33/17 323/35/17
f 321/34/17 323/35/17 324/36/17
f 325/36/18 326/35/18 327/37/18
f 325/36/18 327/37/18 328/38/18
f 329/38/19 330/37/19 331/39/19
f 329/38/19 331/39/19 332/40/19
f 333/40/20 334/39/20 335/41/20
f 333/40/20 335/41/20 336/42/20
f 337/42/21 338/41/21 339/43/21
f 337/42/21 339/43/21 340/44/21
f 341/44/22 342/43/22 343/45/22
f 341/44/22 343/45/22 344/46/22
f 345/46/23 346/45/23 347/47/23
f 345/46/23 347/47/23 348/48/23
f 349/48/24 350/47/24 351/49/24
f 349/48/24 351/49/24 352/50/24
f 353/50/25 354/49/25 355/51/25
f 353/50/25 355/51/25 356/52/25
f 357/52/26 358/51/26 359/53/26
f 357/52/26 359/53/26 360/54/26
f 361/54/27 362/53/27 363/55/27
f 361/54/27 363/55/27 364/56/27
f 365/56/28 366/55/28 367/57/28
f 365/56/28 367/57/28 368/58/28
f 369/58/29 370/57/29 371/59/29
f 369/58/29 371/59/29 372/60/29
f 373/60/30 374/59/30 375/61/30
f 373/60/30 375/61/30 376/62/30
f 377/62/31 378/61/31 379/63/31
f 377/62/31 379/63/31 380/64/31
f 381/64/32 382/63/32 383/65/32
f 381/64/32 383/65/32 384/66/32
f 411/67/33 409/68/33 410/69/33
f 409/68/33 411/67/33 412/70/33
f 409/68/33 412/70/33 408/71/33
f 408/71/33 412/70/33 413/72/33
f 408/71/33 413/72/33 407/73/33
f 407/73/33 413/72/33 414/74/33
f 407/73/33 414/74/33 406/75/33
f 406/75/33 414/74/33 415/76/33
f 406/75/33 415/76/33 405/77/33
f 405/77/33 415/76/33 416/78/33
f 405/77/33 416/78/33 404/79/33
f 404/79/33 416/78/33 385/80/33
f 404/79/33 385/80/33 403/81/33
f 403/81/33 385/80/33 386/82/33
f 403/81/33 386/82/33 402/83/33
f 402/83/33 386/82/33 387/84/33
f 402/83/33 387/84/33 401/85/33
f 401/85/33 387/84/33 388/86/33
f 401/85/33 388/86/33 400/87/33
f 400/87/33 388/86/33 389/88/33
f 400/87/33 389/88/33 399/89/33
f 399/89/33 389/88/33 390/90/33
f 399/89/33 390/90/33 398/91/33
f 398/91/33 390/90/33 391/92/33
f 398/91/33 391/92/33 397/93/33
f 397/93/33 391/92/33 392/94/33
f 397/93/33 392/94/33 396/95/33
f 396/95/33 392/94/33 393/96/33
f 396/95/33 393/96/33 395/97/33
f 395/97/33 393/96/33 394/98/33
f 426/99/34 424/100/34 425/101/34
f 424/100/34 426/99/34 427/102/34
f 424/100/34 427/102/34 423/103/34
f 423/103/34 427/102/34 428/104/34
f 423/103/34 428/104/34 422/105/34
f 422/105/34 428/104/34 429/106/34
f 422/105/34 429/106/34 421/107/34
f 421/107/34 429/106/34 430/108/34
f 421/107/34 430/108/34 420/109/34
f 420/109/34 430/108/34 431/110/34
f 420/109/34 431/110/34 419/111/34
f 419/111/34 431/110/34 432/112/34
f 419/111/34 432/112/34 418/113/34
f 418/113/34 432/112/34 433/114/34
f 418/113/34 433/114/34 417/115/34
f 417/115/34 433/114/34 434/116/34
f 417/115/34 434/116/34 448/117/34
f 448/117/34 434/116/34 435/118/34
f 448/117/34 435/118/34 447/119/34
f 447/119/34 435/118/34 436/120/34
f 447/119/34 436/120/34 446/121/34
f 446/121/34 436/120/34 437/122/34
f 446/121/34 437/122/34 445/123/34
f 445/123/34 437/122/34 438/124/34
f 445/123/34 438/124/34 444/125/34
f 444/125/34 438/124/34 439/126/34
f 444/125/34 439/126/34 443/127/34
f 443/127/34 439/126/34 440/128/34
f 443/127/34 440/128/34 442/129/34
f 442/129/34 440/128/34 441/130/34
f 475/67/33 473/68/33 474/69/33
f 473/68/33 475/67/33 476/70/33
f 473/68/33 476/70/33 472/71/33
f 472/71/33 476/70/33 477/72/33
f 472/71/33 477/72/33 471/73/33
f 471/73/33 477/72/33 478/74/33
f 471/73/33 478/74/33 470/75/33
f 470/75/33 478/74/33 479/76/33
f 470/75/33 479/76/33 469/77/33
f 469/77/33 479/76/33 480/78/33
f 469/77/33 480/78/33 468/79/33
f 468/79/33 480/78/33 449/80/33
f 468/79/33 449/80/33 467/81/33
f 467/81/33 449/80/33 450/82/33
f 467/81/33 450/82/33 466/83/33
f 466/83/33 450/82/33 451/84/33
f 466/83/33 451/84/33 465/85/33
f 465/85/33 451/84/33 452/86/33
f 465/85/33 452/86/33 464/87/33
f 464/87/33 452/86/33 453/88/33
f 464/87/33 453/88/33 463/89/33
f 463/89/33 453/88/33 454/90/33
f 463/89/33 454/90/33 462/91/33
f 462/91/33 454/90/33 455/92/33
f 462/91/33 455/92/33 461/93/33
f 461/93/33 455/92/33 456/94/33
f 461/93/33 456/94/33 460/95/33
f 460/95/33 456/94/33 457/96/33
f 460/95/33 457/96/33 459/97/33
f 459/97/33 457/96/33 458/98/33
f 490/99/34 488/100/34 489/101/34
f 488/100/34 490/99/34 491/102/34
f 488/100/34 491/102/34 487/103/34
f 487/103/34 491/102/34 492/104/34
f 487/103/34 492/104/34 486/105/34
f 486/105/34 492/104/34 493/106/34
f 486/105/34 493/106/34 485/107/34
f 485/107/34 493/106/34 494/108/34
f 485/107/34 494/108/34 484/109/34
f 484/109/34 494/108/34 495/110/34
f 484/109/34 495/110/34 483/111/34
f 483/111/34 495/110/34 496/112/34
f 483/111/34 496/112/34 482/113/34
f 482/113/34 496/112/34 497/114/34
f 482/113/34 497/114/34 481/115/34
f 481/115/34 497/114/34 498/116/34
f 481/115/34 498/116/34 512/117/34
f 512/117/34 498/116/34 499/118/34
f 512/117/34 499/118/34 511/119/34
f 511/119/34 499/118/34 500/120/34
f 511/119/34 500/120/34 510/121/34
f 510/121/34 500/120/34 501/122/34
f 510/121/34 501/122/34 509/123/34
f 509/123/34 501/122/34 502/124/34
f 509/123/34 502/124/34 508/125/34
f 508/125/34 502/124/34 503/126/34
f 508/125/34 503/126/34 507/127/34
f 507/127/34 503/126/34 504/128/34
f 507/127/34 504/128/34 506/129/34
f 506/129/34 504/128/34 505/130/34
f 539/67/33 537/68/33 538/69/33
f 537/68/33 539/67/33 540/70/33
f 537/68/33 540/70/33 536/71/33
f 536/71/33 540/70/33 541/72/33
f 536/71/33 541/72/33 535/73/33
f 535/73/33 541/72/33 542/74/33
f 535/73/33 542/74/33 534/75/33
f 534/75/33 542/74/33 543/76/33
f 534/75/33 543/76/33 533/77/33
f 533/77/33 543/76/33 544/78/33
f 533/77/33 544/78/33 532/79/33
f 532/79/33 544/78/33 513/80/33
f 532/79/33 513/80/33 531/81/33
f 531/81/33 513/80/33 514/82/33
f 531/81/33 514/82/33 530/83/33
f 530/83/33 514/82/33 515/84/33
f 530/83/33 515/84/33 529/85/33
f 529/85/33 515/84/33 516/86/33
f 529/85/33 516/86/33 528/87/33
f 528/87/33 516/86/33 517/88/33
f 528/87/33 517/88/33 527/89/33
f 527/89/33 517/88/33 518/90/33
f 527/89/33 518/90/33 526/91/33
f 526/91/33 518/90/33 519/92/33
f 526/91/33 519/92/33 525/93/33
f 525/93/33 519/92/33 520/94/33
f 525/93/33 520/94/33 524/95/33
f 524/95/33 520/94/33 521/96/33
f 524/95/33 521/96/33 523/97/33
f 523/97/33 521/96/33 522/98/33
f 554/99/34 552/100/34 553/101/34
f 552/100/34 554/99/34 555/102/34
f 552/100/34 555/102/34 551/103/34
f 551/103/34 555/102/34 556/104/34
f 551/103/34 556/104/34 550/105/34
f 550/105/34 556/104/34 557/106/34
f 550/105/34 557/106/34 549/107/34
f 549/107/34 557/106/34 558/108/34
f 549/107/34 558/108/34 548/109/34
f 548/109/34 558/108/34 559/110/34
f 548/109/34 559/110/34 547/111/34
f 547/111/34 559/110/34 560/112/34
f 547/111/34 560/112/34 546/113/34
f 546/113/34 560/112/34 561/114/34
f 546/113/34 561/114/34 545/115/34
f 545/115/34 561/114/34 562/116/34
f 545/115/34 562/116/34 576/117/34
f 576/117/34 562/116/34 563/118/34
f 576/117/34 563/118/34 575/119/34
f 575/119/34 563/118/34 564/120/34
f 575/119/34 564/120/34 574/121/34
f 574/121/34 564/120/34 565/122/34
f 574/121/34 565/122/34 573/123/34
f 573/123/34 565/122/34 566/124/34
f 573/123/34 566/124/34 572/125/34
f 572/125/34 566/124/34 567/126/34
f 572/125/34 567/126/34 571/127/34
f 571/127/34 567/126/34 568/128/34
f 571/127/34 568/128/34 570/129/34
f 570/129/34 568/128/34 569/130/34
