# Blender 5.2.0 LTS
# www.blender.org
mtllib Cube_003.mtl
o Cube.003_Material.003_0
v 1.000847 -0.031492 0.487524
v 1.000847 -0.031491 -0.487524
v 1.000847 -0.064319 -0.487524
v 1.000847 -0.064320 0.487524
v 1.000847 -0.031492 0.488059
v 1.000847 -0.031492 0.362271
v 1.000847 0.049804 0.362271
v 1.000847 0.049804 0.488059
v 0.000847 0.094618 0.362271
v 1.000847 -0.031492 0.362271
v 1.000847 -0.031492 0.487524
v 0.000847 0.094618 0.487524
v 0.000847 0.094618 -0.362271
v 1.000847 -0.031491 -0.362271
v 1.000847 0.049804 -0.362271
v 0.000847 0.175914 -0.362271
v 0.000847 0.094618 0.362271
v -0.999153 -0.031492 0.362271
v -0.999153 0.049804 0.362271
v 0.000847 0.175914 0.362271
v 0.000847 0.094618 0.488060
v 1.000847 -0.031492 0.488059
v 1.000847 0.049804 0.488059
v 0.000847 0.175914 0.488060
v 0.000847 0.181199 -0.367556
v 0.995562 0.055089 -0.367556
v 0.995562 0.055089 -0.482775
v 0.000847 0.181199 -0.482775
v 0.000847 0.181198 0.482775
v 0.995562 0.055088 0.482775
v 0.995562 0.055089 0.367556
v 0.000847 0.181198 0.367556
v 0.000847 0.094619 -0.488059
v -0.999153 -0.031491 -0.488059
v -0.999153 0.049805 -0.488059
v 0.000847 0.175914 -0.488059
v 1.000847 -0.031491 -0.362271
v 1.000847 -0.031491 -0.488060
v 1.000847 0.049805 -0.488060
v 1.000847 0.049804 -0.362271
v -0.999153 -0.031491 -0.488059
v -0.999153 -0.031491 -0.362271
v -0.999153 0.049804 -0.362271
v -0.999153 0.049805 -0.488059
v -0.999153 0.049804 0.362271
v -0.999153 0.049804 0.488060
v -0.993868 0.055088 0.482775
v -0.993868 0.055089 0.367556
v 0.000847 0.175914 0.488060
v 1.000847 0.049804 0.488059
v 0.995562 0.055088 0.482775
v 0.000847 0.181198 0.482775
v 1.000847 0.049804 -0.362271
v 1.000847 0.049805 -0.488060
v 0.995562 0.055089 -0.482775
v 0.995562 0.055089 -0.367556
v 0.000847 0.175914 -0.488059
v -0.999153 0.049805 -0.488059
v -0.993868 0.055089 -0.482775
v 0.000847 0.181199 -0.482775
v 1.000847 0.049804 0.488059
v 1.000847 0.049804 0.362271
v 0.995562 0.055089 0.367556
v 0.995562 0.055088 0.482775
v 0.000847 0.175914 0.362271
v -0.999153 0.049804 0.362271
v -0.993868 0.055089 0.367556
v 0.000847 0.181198 0.367556
v -0.999153 0.049805 -0.488059
v -0.999153 0.049804 -0.362271
v -0.993868 0.055089 -0.367556
v -0.993868 0.055089 -0.482775
v 0.000847 0.181199 -0.367556
v -0.993868 0.055089 -0.367556
v -0.999153 0.049804 -0.362271
v 0.000847 0.175914 -0.362271
v -0.999153 -0.031492 0.362271
v -0.999153 -0.031492 0.488060
v -0.999153 0.049804 0.488060
v -0.999153 0.049804 0.362271
v 0.000847 0.094618 -0.362271
v -0.999153 -0.031491 -0.362271
v -0.999153 -0.031491 -0.487524
v 0.000847 0.094619 -0.487524
v 1.000847 -0.064320 0.487524
v 1.000847 -0.064319 -0.487524
v 1.000847 -0.026470 -0.487524
v 1.000847 -0.026471 0.487524
v 0.000847 0.094618 0.487524
v 1.000847 -0.031492 0.487524
v 1.000847 -0.064320 0.487524
v 0.000847 0.061790 0.487524
v 0.000847 0.094619 -0.487524
v -0.999153 -0.031491 -0.487524
v -0.999153 -0.064319 -0.487524
v 0.000847 0.061791 -0.487524
v -0.999153 -0.031491 -0.487524
v -0.999153 -0.031492 0.487524
v -0.999153 -0.064320 0.487524
v -0.999153 -0.064319 -0.487524
v 0.000847 0.061791 -0.487524
v -0.999153 -0.064319 -0.487524
v -0.999153 -0.026470 -0.487524
v 0.000847 0.099640 -0.487524
v 0.000847 0.061790 0.487524
v 1.000847 -0.064320 0.487524
v 1.000847 -0.026471 0.487524
v 0.000847 0.099639 0.487524
v -0.999153 -0.064319 -0.487524
v -0.999153 -0.064320 0.487524
v -0.999153 -0.026471 0.487524
v -0.999153 -0.026470 -0.487524
v 0.000847 0.062523 0.487524
v 1.000847 -0.063587 0.487524
v 1.000847 -0.063586 -0.487524
v 0.000847 0.062524 -0.487524
v 0.000847 0.099639 0.487524
v 0.000847 0.062523 0.487524
v -0.999153 -0.063587 0.487524
v -0.999153 -0.026471 0.487524
v 1.000847 -0.026470 -0.487524
v 1.000847 -0.063586 -0.487524
v 1.000847 -0.063587 0.487524
v 1.000847 -0.026471 0.487524
v 0.000847 0.099640 -0.487524
v 0.000847 0.062524 -0.487524
v 1.000847 -0.063586 -0.487524
v 1.000847 -0.026470 -0.487524
v -0.999153 -0.026471 0.487524
v -0.999153 -0.063587 0.487524
v -0.999153 -0.063586 -0.487524
v -0.999153 -0.026470 -0.487524
v 0.001514 0.091418 -0.487524
v -0.997818 -0.026470 -0.487524
v -0.997818 -0.026471 0.487524
v 0.001514 0.091418 0.487524
v -0.999153 -0.026470 -0.487524
v -0.999153 -0.063586 -0.487524
v 0.000847 0.062524 -0.487524
v 0.000847 0.099640 -0.487524
v 1.000847 -0.026471 0.487524
v 1.000847 -0.063587 0.487524
v 0.000847 0.062523 0.487524
v 0.000847 0.099639 0.487524
v -0.999153 -0.063587 0.487524
v 0.000847 0.062523 0.487524
v 0.000847 0.062524 -0.487524
v -0.999153 -0.063586 -0.487524
v -0.999153 -0.064320 0.487524
v 0.000847 0.061790 0.487524
v 0.000847 0.099639 0.487524
v -0.999153 -0.026471 0.487524
v 1.000847 -0.064319 -0.487524
v 1.000847 -0.026470 -0.487524
v 1.000847 -0.031491 -0.487524
v 1.000847 -0.064319 -0.487524
v -0.999153 -0.031492 0.487524
v -0.999153 -0.064320 0.487524
v 1.000847 -0.031491 -0.362271
v 0.000847 0.094618 -0.362271
v 0.000847 0.094619 -0.487524
v 1.000847 -0.031491 -0.487524
v 0.995562 0.055089 -0.367556
v 0.000847 0.181199 -0.367556
v 0.000847 0.175914 -0.362271
v 1.000847 0.049804 -0.362271
v 1.000847 0.049804 0.362271
v 0.000847 0.175914 0.362271
v 0.000847 0.181198 0.367556
v 0.995562 0.055089 0.367556
v 1.000847 0.049805 -0.488060
v 0.000847 0.175914 -0.488059
v 0.000847 0.181199 -0.482775
v 0.995562 0.055089 -0.482775
v -0.999153 0.049804 0.488060
v 0.000847 0.175914 0.488060
v 0.000847 0.181198 0.482775
v -0.993868 0.055088 0.482775
v 1.000847 -0.031491 -0.488060
v 1.000847 0.049805 -0.488060
v -0.993868 0.055088 0.482775
v 0.000847 0.181198 0.482775
v 0.000847 0.181198 0.367556
v -0.993868 0.055089 0.367556
v -0.993868 0.055089 -0.367556
v 0.000847 0.181199 -0.367556
v 0.000847 0.181199 -0.482775
v -0.993868 0.055089 -0.482775
v -0.999153 -0.031492 0.488060
v 0.000847 0.094618 0.488060
v 0.000847 0.175914 0.488060
v -0.999153 0.049804 0.488060
v 1.000847 -0.031492 0.362271
v 1.000847 0.049804 0.362271
v -0.999153 -0.031491 -0.362271
v -0.999153 0.049804 -0.362271
v -0.999153 -0.031492 0.362271
v 0.000847 0.094618 0.362271
v 0.000847 0.094618 0.487524
v -0.999153 -0.031492 0.487524
v 1.000847 -0.026470 -0.487524
v 0.001514 0.091418 -0.487524
v 0.001514 0.091418 0.487524
v 1.000847 -0.026471 0.487524
v 0.075454 0.072109 -0.074558
v -0.073760 0.072109 -0.074558
v -0.073760 0.072109 0.074656
v 0.075454 0.072109 0.074656
vn -1.0000 -0.0000 -0.0000
vn 1.0000 -0.0000 -0.0000
vn -0.1251 -0.9921 -0.0000
vn -0.0000 -0.0000 1.0000
vn -0.0000 -0.0000 -1.0000
vn 0.1258 0.9921 -0.0000
vn -0.7071 0.7071 -0.0000
vn 0.0919 0.7267 0.6808
vn 0.7071 0.7071 -0.0000
vn -0.0919 0.7267 -0.6808
vn -0.0919 0.7267 -0.6807
vn -0.0919 0.7267 0.6808
vn -0.0919 0.7267 0.6807
vn 0.1251 -0.9921 -0.0000
vn 0.1251 0.9921 -0.0000
vn -0.1172 0.9931 -0.0000
vn -0.1251 0.9921 -0.0000
vn 0.0919 0.7267 0.6807
vn 0.0919 0.7267 -0.6808
vn 0.0919 0.7267 -0.6807
vn -0.1258 0.9921 -0.0000
vn 0.1172 0.9931 -0.0000
vn -0.0000 1.0000 -0.0000
vt 0.000000 1.000000
vt 0.500000 0.871134
vt 1.000000 0.871134
vt 0.500000 0.128866
vt 1.000000 0.128866
vt 0.500000 0.128866
vt 0.000000 0.871134
vt 0.500000 0.123452
vt 0.997358 0.123452
vt 0.997358 0.005414
vt 0.500000 0.005414
vt 0.500000 0.994586
vt 0.997358 0.994586
vt 0.997358 0.876548
vt 0.500000 0.876548
vt 0.002642 0.994586
vt 0.002642 0.876548
vt 0.500000 1.000000
vt 1.000000 1.000000
vt 1.000000 0.000000
vt 0.500000 0.000000
vt 0.000000 0.000000
vt 0.002642 0.005414
vt 0.000000 0.128866
vt 0.002642 0.123452
vt 0.000000 0.128866
vt 0.625000 0.500000
vt 0.875000 0.500000
vt 0.875000 0.250000
vt 0.625000 0.250000
s 0
usemtl Material.003
f 1/1/1 2/1/1 3/1/1
f 1/1/1 3/1/1 4/1/1
f 5/1/2 6/1/2 7/1/2
f 5/1/2 7/1/2 8/1/2
f 9/2/3 10/3/3 11/3/3
f 9/2/3 11/3/3 12/2/3
f 13/4/4 14/5/4 15/5/4
f 13/4/4 15/5/4 16/6/4
f 17/2/5 18/7/5 19/7/5
f 17/2/5 19/7/5 20/2/5
f 21/1/4 22/1/4 23/1/4
f 21/1/4 23/1/4 24/1/4
f 25/8/6 26/9/6 27/10/6
f 25/8/6 27/10/6 28/11/6
f 29/12/6 30/13/6 31/14/6
f 29/12/6 31/14/6 32/15/6
f 33/1/5 34/1/5 35/1/5
f 33/1/5 35/1/5 36/1/5
f 37/1/2 38/1/2 39/1/2
f 37/1/2 39/1/2 40/1/2
f 41/1/1 42/1/1 43/1/1
f 41/1/1 43/1/1 44/1/1
f 45/7/7 46/1/7 47/16/7
f 45/7/7 47/16/7 48/17/7
s 1
f 49/18/8 50/19/8 51/13/8
f 49/18/8 51/13/8 52/12/8
s 0
f 53/5/9 54/20/9 55/10/9
f 53/5/9 55/10/9 56/9/9
s 1
f 57/21/10 58/22/11 59/23/10
f 57/21/10 59/23/10 60/11/10
s 0
f 61/19/9 62/3/9 63/14/9
f 61/19/9 63/14/9 64/13/9
s 1
f 65/2/10 66/7/11 67/17/10
f 65/2/10 67/17/10 68/15/10
s 0
f 69/22/7 70/24/7 71/25/7
f 69/22/7 71/25/7 72/23/7
s 1
f 73/8/12 74/25/13 75/26/12
f 73/8/12 75/26/12 76/6/12
s 0
f 77/1/1 78/1/1 79/1/1
f 77/1/1 79/1/1 80/1/1
f 81/4/14 82/24/14 83/24/14
f 81/4/14 83/24/14 84/4/14
f 85/1/2 86/1/2 87/1/2
f 85/1/2 87/1/2 88/1/2
f 89/2/5 90/3/5 91/3/5
f 89/2/5 91/3/5 92/2/5
f 93/4/4 94/24/4 95/24/4
f 93/4/4 95/24/4 96/4/4
f 97/1/2 98/1/2 99/1/2
f 97/1/2 99/1/2 100/1/2
f 101/4/5 102/24/5 103/24/5
f 101/4/5 103/24/5 104/4/5
f 105/2/4 106/3/4 107/3/4
f 105/2/4 107/3/4 108/2/4
f 109/24/1 110/7/1 111/7/1
f 109/24/1 111/7/1 112/24/1
f 113/2/15 114/3/15 115/5/15
f 113/2/15 115/5/15 116/4/15
f 117/2/5 118/2/5 119/7/5
f 117/2/5 119/7/5 120/7/5
f 121/5/1 122/5/1 123/3/1
f 121/5/1 123/3/1 124/3/1
f 125/4/4 126/4/4 127/5/4
f 125/4/4 127/5/4 128/5/4
f 129/7/2 130/7/2 131/24/2
f 129/7/2 131/24/2 132/24/2
f 133/1/16 134/1/16 135/1/16
f 133/1/16 135/1/16 136/1/16
f 137/24/4 138/24/4 139/4/4
f 137/24/4 139/4/4 140/4/4
f 141/3/5 142/3/5 143/2/5
f 141/3/5 143/2/5 144/2/5
f 145/7/17 146/2/17 147/4/17
f 145/7/17 147/4/17 148/24/17
f 149/7/4 150/2/4 151/2/4
f 149/7/4 151/2/4 152/7/4
f 153/5/5 101/4/5 104/4/5
f 153/5/5 104/4/5 154/5/5
f 155/5/4 93/4/4 96/4/4
f 155/5/4 96/4/4 156/5/4
f 157/7/5 89/2/5 92/2/5
f 157/7/5 92/2/5 158/7/5
f 159/5/3 160/4/3 161/4/3
f 159/5/3 161/4/3 162/5/3
s 1
f 163/9/18 164/8/8 165/6/8
f 163/9/18 165/6/8 166/5/8
f 167/3/19 168/2/19 169/15/19
f 167/3/19 169/15/19 170/14/20
f 171/20/20 172/21/19 173/11/19
f 171/20/20 173/11/19 174/10/19
f 175/1/12 176/18/12 177/12/12
f 175/1/12 177/12/12 178/16/13
s 0
f 179/1/5 33/1/5 36/1/5
f 179/1/5 36/1/5 180/1/5
f 181/16/21 182/12/21 183/15/21
f 181/16/21 183/15/21 184/17/21
f 185/25/21 186/8/21 187/11/21
f 185/25/21 187/11/21 188/23/21
f 189/1/4 190/1/4 191/1/4
f 189/1/4 191/1/4 192/1/4
f 193/3/5 17/2/5 20/2/5
f 193/3/5 20/2/5 194/3/5
f 195/24/4 13/4/4 16/6/4
f 195/24/4 16/6/4 196/26/4
f 197/7/14 198/2/14 199/2/14
f 197/7/14 199/2/14 200/7/14
f 201/1/22 202/1/22 203/1/22
f 201/1/22 203/1/22 204/1/22
f 205/27/23 206/28/23 207/29/23
f 205/27/23 207/29/23 208/30/23
