# Blender 5.2.0 LTS
# www.blender.org
mtllib Cube_013.mtl
o Cube.013_Material.003_0
v -1.015782 -0.029528 -1.095792
v -0.829748 -0.029528 -1.095792
v -0.829748 0.029528 -1.095792
v -1.015782 0.029528 -1.095792
v -0.137722 -0.029528 -0.366354
v -0.402301 -0.029528 -0.366354
v -0.402300 0.029528 -0.366354
v -0.137722 0.029528 -0.366354
v 0.070632 -0.029528 0.303496
v 0.121333 -0.029528 0.261433
v 0.121333 0.029528 0.261433
v 0.070632 0.029528 0.303497
v -1.015782 -0.029528 -0.353104
v -1.015782 -0.029528 -1.095792
v -1.015782 0.029528 -1.095792
v -1.015782 0.029528 -0.353104
v -0.402301 -0.029528 -0.366354
v -0.464497 -0.029528 -0.366354
v -0.464497 0.029528 -0.366354
v -0.402300 0.029528 -0.366354
v -0.829748 -0.029528 1.095792
v -1.015782 -0.029528 1.095792
v -1.015782 0.029528 1.095792
v -0.829748 0.029528 1.095792
v -0.058895 -0.029528 0.355958
v 0.019932 -0.029528 0.345560
v 0.019933 0.029528 0.345560
v -0.058895 0.029528 0.355958
v -0.464497 -0.029528 -0.366354
v -1.015782 -0.029528 -0.353104
v -1.015782 0.029528 -0.353104
v -0.464497 0.029528 -0.366354
v -0.402301 -0.029528 0.366356
v -0.137722 -0.029528 0.366356
v -0.137721 0.029528 0.366356
v -0.402300 0.029528 0.366356
v -1.015782 -0.029528 1.095792
v -1.015782 -0.029528 0.353104
v -1.015782 0.029528 0.353104
v -1.015782 0.029528 1.095792
v -0.464497 -0.029528 0.366356
v -0.402301 -0.029528 0.366356
v -0.402300 0.029528 0.366356
v -0.464497 0.029528 0.366356
v 0.433180 -0.029528 -1.033588
v 0.736473 -0.029528 -0.781961
v 0.736473 0.029528 -0.781961
v 0.433180 0.029528 -1.033588
v 1.015782 -0.029528 0.004467
v 0.615247 -0.029528 0.002981
v 0.615247 0.029528 0.002981
v 1.015782 0.029528 0.004467
v -1.015782 -0.029528 0.353104
v -0.464497 -0.029528 0.366356
v -0.464497 0.029528 0.366356
v -1.015782 0.029528 0.353104
v 0.214713 -0.029528 0.001495
v 0.198195 -0.029528 -0.072471
v 0.198195 0.029528 -0.072471
v 0.214713 0.029528 0.001495
v 0.214713 -0.029528 -0.001493
v 0.615247 -0.029528 -0.002980
v 0.615247 0.029528 -0.002980
v 0.214713 0.029528 -0.001493
v 0.181677 -0.029528 -0.146436
v 0.151505 -0.029528 -0.203934
v 0.151505 0.029528 -0.203934
v 0.181677 0.029528 -0.146436
v 0.121333 -0.029528 -0.261431
v 0.070633 -0.029528 -0.303494
v 0.070632 0.029528 -0.303494
v 0.121333 0.029528 -0.261431
v 0.181677 -0.029528 0.146439
v 0.198195 -0.029528 0.072473
v 0.198195 0.029528 0.072473
v 0.181677 0.029528 0.146439
v 0.019933 -0.029528 -0.345557
v -0.058895 -0.029528 -0.355956
v -0.058895 0.029528 -0.355956
v 0.019933 0.029528 -0.345557
v 0.121333 -0.029528 0.261433
v 0.151505 -0.029528 0.203936
v 0.151505 0.029528 0.203936
v 0.121333 0.029528 0.261433
v 0.967483 -0.029528 -0.216768
v 1.015782 -0.029528 0.004467
v 1.015782 0.029528 0.004467
v 0.967483 0.029528 -0.216768
v 0.019932 -0.029528 0.345560
v 0.070632 -0.029528 0.303496
v 0.070632 0.029528 0.303497
v 0.019933 0.029528 0.345560
v 0.843979 -0.029528 -0.609983
v 0.916969 -0.029528 -0.438004
v 0.916969 0.029528 -0.438004
v 0.843979 0.029528 -0.609982
v -0.137722 -0.029528 0.366356
v -0.058895 -0.029528 0.355958
v -0.058895 0.029528 0.355958
v -0.137721 0.029528 0.366356
v 0.967483 -0.029528 0.216768
v 0.916969 -0.029528 0.438004
v 0.916969 0.029528 0.438004
v 0.967483 0.029528 0.216768
v 0.197403 -0.029528 -1.075036
v 0.433180 -0.029528 -1.033588
v 0.433180 0.029528 -1.033588
v 0.197403 0.029528 -1.075036
v 0.843979 -0.029528 0.609982
v 0.736473 -0.029528 0.781961
v 0.736473 0.029528 0.781961
v 0.843979 0.029528 0.609982
v 0.592316 -0.029528 0.932175
v 0.433179 -0.029528 1.033588
v 0.433179 0.029528 1.033588
v 0.592316 0.029528 0.932175
v 0.197403 -0.029528 1.075037
v -0.038374 -0.029528 1.095792
v -0.038374 0.029528 1.095792
v 0.197403 0.029528 1.075036
v 0.916969 -0.029528 -0.438004
v 0.967483 -0.029528 -0.216768
v 0.967483 0.029528 -0.216768
v 0.916969 0.029528 -0.438004
v 0.736473 -0.029528 -0.781961
v 0.843979 -0.029528 -0.609983
v 0.843979 0.029528 -0.609982
v 0.736473 0.029528 -0.781961
v 1.015782 -0.029528 -0.004468
v 0.967483 -0.029528 0.216768
v 0.967483 0.029528 0.216768
v 1.015782 0.029528 -0.004468
v -0.038374 -0.029528 -1.095792
v 0.197403 -0.029528 -1.075036
v 0.197403 0.029528 -1.075036
v -0.038374 0.029528 -1.095792
v 0.916969 -0.029528 0.438004
v 0.843979 -0.029528 0.609982
v 0.843979 0.029528 0.609982
v 0.916969 0.029528 0.438004
v -0.829748 0.029528 1.095792
v -1.015782 0.029528 1.095792
v -0.464497 0.029528 0.366356
v -0.402300 0.029528 0.366356
v 0.582285 0.029528 0.144621
v 0.549323 0.029528 0.292221
v 0.181677 0.029528 0.146439
v 0.198195 0.029528 0.072473
v -1.015782 0.029528 1.095792
v -1.015782 0.029528 0.353104
v -0.464497 0.029528 0.366356
v 0.327730 0.029528 0.605635
v 0.226556 0.029528 0.689574
v 0.019933 0.029528 0.345560
v 0.070632 0.029528 0.303497
v 0.489113 0.029528 0.406959
v 0.428903 0.029528 0.521697
v 0.121333 0.029528 0.261433
v 0.151505 0.029528 0.203936
v 0.069254 0.029528 0.710324
v -0.088048 0.029528 0.731074
v -0.137721 0.029528 0.366356
v -0.058895 0.029528 0.355958
v 0.226556 0.029528 0.689574
v 0.069254 0.029528 0.710324
v -0.058895 0.029528 0.355958
v 0.019933 0.029528 0.345560
v 0.433179 0.029528 1.033588
v 0.197403 0.029528 1.075036
v 0.069254 0.029528 0.710324
v 0.226556 0.029528 0.689574
v 0.197403 0.029528 1.075036
v -0.038374 0.029528 1.095792
v -0.088048 0.029528 0.731074
v 0.069254 0.029528 0.710324
v 0.549323 0.029528 0.292221
v 0.489113 0.029528 0.406959
v 0.151505 0.029528 0.203936
v 0.181677 0.029528 0.146439
v 0.916969 0.029528 0.438004
v 0.843979 0.029528 0.609982
v 0.489113 0.029528 0.406959
v 0.549323 0.029528 0.292221
v 0.843979 0.029528 0.609982
v 0.736473 0.029528 0.781961
v 0.428903 0.029528 0.521697
v 0.489113 0.029528 0.406959
v 0.428903 0.029528 0.521697
v 0.327730 0.029528 0.605635
v 0.070632 0.029528 0.303497
v 0.121333 0.029528 0.261433
v 0.736473 0.029528 0.781961
v 0.592316 0.029528 0.932175
v 0.327730 0.029528 0.605635
v 0.428903 0.029528 0.521697
v 0.592316 0.029528 0.932175
v 0.433179 0.029528 1.033588
v 0.226556 0.029528 0.689574
v 0.327730 0.029528 0.605635
v 0.615247 0.029528 -0.002980
v 0.582285 0.029528 0.144621
v 0.198195 0.029528 0.072473
v 0.214713 0.029528 -0.001493
v 1.015782 0.029528 -0.004468
v 0.967483 0.029528 0.216768
v 0.582285 0.029528 0.144621
v 0.615247 0.029528 -0.002980
v 0.967483 0.029528 0.216768
v 0.916969 0.029528 0.438004
v 0.549323 0.029528 0.292221
v 0.582285 0.029528 0.144621
v 0.582285 0.029528 -0.144620
v 0.615247 0.029528 0.002981
v 0.214713 0.029528 0.001495
v 0.198195 0.029528 -0.072471
v -1.015782 0.029528 -0.353104
v -1.015782 0.029528 -1.095792
v -0.464497 0.029528 -0.366354
v 0.327730 0.029528 -0.605634
v 0.428903 0.029528 -0.521696
v 0.121333 0.029528 -0.261431
v 0.070632 0.029528 -0.303494
v -1.015782 0.029528 -1.095792
v -0.829748 0.029528 -1.095792
v -0.402300 0.029528 -0.366354
v -0.464497 0.029528 -0.366354
v 0.489113 0.029528 -0.406958
v 0.549323 0.029528 -0.292220
v 0.181677 0.029528 -0.146436
v 0.151505 0.029528 -0.203934
v 0.069254 0.029528 -0.710322
v 0.226556 0.029528 -0.689572
v 0.019933 0.029528 -0.345557
v -0.058895 0.029528 -0.355956
v -0.088048 0.029528 -0.731073
v 0.069254 0.029528 -0.710322
v -0.058895 0.029528 -0.355956
v -0.137722 0.029528 -0.366354
v -0.038374 0.029528 -1.095792
v 0.197403 0.029528 -1.075036
v 0.069254 0.029528 -0.710322
v -0.088048 0.029528 -0.731073
v 0.197403 0.029528 -1.075036
v 0.433180 0.029528 -1.033588
v 0.226556 0.029528 -0.689572
v 0.069254 0.029528 -0.710322
v 0.428903 0.029528 -0.521696
v 0.489113 0.029528 -0.406958
v 0.151505 0.029528 -0.203934
v 0.121333 0.029528 -0.261431
v 0.736473 0.029528 -0.781961
v 0.843979 0.029528 -0.609982
v 0.489113 0.029528 -0.406958
v 0.428903 0.029528 -0.521696
v 0.843979 0.029528 -0.609982
v 0.916969 0.029528 -0.438004
v 0.549323 0.029528 -0.292220
v 0.489113 0.029528 -0.406958
v 0.226556 0.029528 -0.689572
v 0.327730 0.029528 -0.605634
v 0.070632 0.029528 -0.303494
v 0.019933 0.029528 -0.345557
v 0.433180 0.029528 -1.033588
v 0.592316 0.029528 -0.932175
v 0.327730 0.029528 -0.605634
v 0.226556 0.029528 -0.689572
v 0.592316 0.029528 -0.932175
v 0.736473 0.029528 -0.781961
v 0.428903 0.029528 -0.521696
v 0.327730 0.029528 -0.605634
v 0.549323 0.029528 -0.292220
v 0.582285 0.029528 -0.144620
v 0.198195 0.029528 -0.072471
v 0.181677 0.029528 -0.146436
v 0.916969 0.029528 -0.438004
v 0.967483 0.029528 -0.216768
v 0.582285 0.029528 -0.144620
v 0.549323 0.029528 -0.292220
v 0.967483 0.029528 -0.216768
v 1.015782 0.029528 0.004467
v 0.615247 0.029528 0.002981
v 0.582285 0.029528 -0.144620
v 0.151505 -0.029528 0.203936
v 0.181677 -0.029528 0.146439
v 0.181677 0.029528 0.146439
v 0.151505 0.029528 0.203936
v -0.038374 -0.029528 1.095792
v -0.829748 -0.029528 1.095792
v -0.829748 0.029528 1.095792
v -0.038374 0.029528 1.095792
v -0.058895 -0.029528 -0.355956
v -0.137722 -0.029528 -0.366354
v -0.137722 0.029528 -0.366354
v -0.058895 0.029528 -0.355956
v 0.198195 -0.029528 0.072473
v 0.214713 -0.029528 -0.001493
v 0.214713 0.029528 -0.001493
v 0.198195 0.029528 0.072473
v 0.070633 -0.029528 -0.303494
v 0.019933 -0.029528 -0.345557
v 0.019933 0.029528 -0.345557
v 0.070632 0.029528 -0.303494
v -0.829748 -0.029528 -1.095792
v -0.038374 -0.029528 -1.095792
v -0.038374 0.029528 -1.095792
v -0.829748 0.029528 -1.095792
v 0.151505 -0.029528 -0.203934
v 0.121333 -0.029528 -0.261431
v 0.121333 0.029528 -0.261431
v 0.151505 0.029528 -0.203934
v 0.198195 -0.029528 -0.072471
v 0.181677 -0.029528 -0.146436
v 0.181677 0.029528 -0.146436
v 0.198195 0.029528 -0.072471
v 0.433179 -0.029528 1.033588
v 0.197403 -0.029528 1.075037
v 0.197403 0.029528 1.075036
v 0.433179 0.029528 1.033588
v 0.615247 -0.029528 -0.002980
v 1.015782 -0.029528 -0.004468
v 1.015782 0.029528 -0.004468
v 0.615247 0.029528 -0.002980
v 0.736473 -0.029528 0.781961
v 0.592316 -0.029528 0.932175
v 0.592316 0.029528 0.932175
v 0.736473 0.029528 0.781961
v 0.615247 -0.029528 0.002981
v 0.214713 -0.029528 0.001495
v 0.214713 0.029528 0.001495
v 0.615247 0.029528 0.002981
v 1.015782 -0.029528 -0.004468
v 0.916969 -0.029528 0.438004
v 0.967483 -0.029528 0.216768
v 0.433179 -0.029528 1.033588
v -0.038374 -0.029528 1.095792
v 0.197403 -0.029528 1.075037
v 0.736473 -0.029528 0.781961
v 0.433179 -0.029528 1.033588
v 0.592316 -0.029528 0.932175
v 0.916969 -0.029528 0.438004
v 0.736473 -0.029528 0.781961
v 0.843979 -0.029528 0.609982
v 0.433180 -0.029528 -1.033588
v 0.197403 -0.029528 -1.075036
v -0.038374 -0.029528 -1.095792
v 0.916969 -0.029528 -0.438004
v 0.843979 -0.029528 -0.609983
v 0.736473 -0.029528 -0.781961
v 1.015782 -0.029528 0.004467
v 0.967483 -0.029528 -0.216768
v 0.916969 -0.029528 -0.438004
v -0.402300 0.029528 0.366356
v -0.038374 0.029528 1.095792
v -0.829748 0.029528 1.095792
v -0.088048 0.029528 0.731074
v -0.137721 0.029528 0.366356
v 0.736473 0.029528 -0.781961
v 0.592316 0.029528 -0.932175
v 0.433180 0.029528 -1.033588
v -0.038374 0.029528 -1.095792
v -0.402300 0.029528 -0.366354
v -0.829748 0.029528 -1.095792
v -0.088048 0.029528 -0.731073
v -0.137722 0.029528 -0.366354
vn -0.0000 -0.0000 1.0000
vn -0.0000 -0.0000 -1.0000
vn 0.6385 -0.0000 0.7696
vn 1.0000 -0.0000 -0.0000
vn 0.1308 -0.0000 0.9914
vn -0.0240 -0.0000 -0.9997
vn -0.6385 -0.0000 0.7696
vn 0.0037 -0.0000 -1.0000
vn -0.0240 -0.0000 0.9997
vn 0.9760 -0.0000 -0.2180
vn 0.0037 -0.0000 1.0000
vn 0.8855 -0.0000 -0.4647
vn 0.6385 -0.0000 -0.7696
vn 0.9760 -0.0000 0.2180
vn 0.1308 -0.0000 -0.9914
vn 0.8855 -0.0000 0.4647
vn -0.9770 -0.0000 0.2133
vn -0.9205 -0.0000 0.3907
vn -0.9749 -0.0000 -0.2226
vn -0.1731 -0.0000 0.9849
vn -0.8480 -0.0000 -0.5301
vn -0.5374 -0.0000 -0.8433
vn -0.0877 -0.0000 -0.9961
vn -0.9749 -0.0000 0.2226
vn -0.8480 -0.0000 0.5301
vn -0.9770 -0.0000 -0.2133
vn -0.0877 -0.0000 0.9961
vn -0.9205 -0.0000 -0.3907
vn -0.0000 -1.0000 -0.0000
vn 0.9760 -0.0000 -0.2179
vn -0.1731 -0.0000 -0.9849
vn -0.7215 -0.0000 -0.6924
vn -0.0000 1.0000 -0.0000
vt 0.000000 1.000000
s 0
usemtl Material.003
f 1/1/1 2/1/1 3/1/1
f 1/1/1 3/1/1 4/1/1
f 5/1/2 6/1/2 7/1/2
f 5/1/2 7/1/2 8/1/2
f 9/1/3 10/1/3 11/1/3
f 9/1/3 11/1/3 12/1/3
f 13/1/4 14/1/4 15/1/4
f 13/1/4 15/1/4 16/1/4
f 17/1/2 18/1/2 19/1/2
f 17/1/2 19/1/2 20/1/2
f 21/1/2 22/1/2 23/1/2
f 21/1/2 23/1/2 24/1/2
f 25/1/5 26/1/5 27/1/5
f 25/1/5 27/1/5 28/1/5
f 29/1/6 30/1/6 31/1/6
f 29/1/6 31/1/6 32/1/6
f 33/1/1 34/1/1 35/1/1
f 33/1/1 35/1/1 36/1/1
f 37/1/4 38/1/4 39/1/4
f 37/1/4 39/1/4 40/1/4
f 41/1/1 42/1/1 43/1/1
f 41/1/1 43/1/1 44/1/1
f 45/1/7 46/1/7 47/1/7
f 45/1/7 47/1/7 48/1/7
f 49/1/8 50/1/8 51/1/8
f 49/1/8 51/1/8 52/1/8
f 53/1/9 54/1/9 55/1/9
f 53/1/9 55/1/9 56/1/9
f 57/1/10 58/1/10 59/1/10
f 57/1/10 59/1/10 60/1/10
f 61/1/11 62/1/11 63/1/11
f 61/1/11 63/1/11 64/1/11
f 65/1/12 66/1/12 67/1/12
f 65/1/12 67/1/12 68/1/12
f 69/1/13 70/1/13 71/1/13
f 69/1/13 71/1/13 72/1/13
f 73/1/14 74/1/14 75/1/14
f 73/1/14 75/1/14 76/1/14
f 77/1/15 78/1/15 79/1/15
f 77/1/15 79/1/15 80/1/15
f 81/1/16 82/1/16 83/1/16
f 81/1/16 83/1/16 84/1/16
f 85/1/17 86/1/17 87/1/17
f 85/1/17 87/1/17 88/1/17
f 89/1/3 90/1/3 91/1/3
f 89/1/3 91/1/3 92/1/3
f 93/1/18 94/1/18 95/1/18
f 93/1/18 95/1/18 96/1/18
f 97/1/5 98/1/5 99/1/5
f 97/1/5 99/1/5 100/1/5
f 101/1/19 102/1/19 103/1/19
f 101/1/19 103/1/19 104/1/19
f 105/1/20 106/1/20 107/1/20
f 105/1/20 107/1/20 108/1/20
f 109/1/21 110/1/21 111/1/21
f 109/1/21 111/1/21 112/1/21
f 113/1/22 114/1/22 115/1/22
f 113/1/22 115/1/22 116/1/22
f 117/1/23 118/1/23 119/1/23
f 117/1/23 119/1/23 120/1/23
f 121/1/24 122/1/24 123/1/24
f 121/1/24 123/1/24 124/1/24
f 125/1/25 126/1/25 127/1/25
f 125/1/25 127/1/25 128/1/25
f 129/1/26 130/1/26 131/1/26
f 129/1/26 131/1/26 132/1/26
f 133/1/27 134/1/27 135/1/27
f 133/1/27 135/1/27 136/1/27
f 137/1/28 138/1/28 139/1/28
f 137/1/28 139/1/28 140/1/28
f 141/1/29 142/1/29 143/1/29
f 141/1/29 143/1/29 144/1/29
f 145/1/29 146/1/29 147/1/29
f 145/1/29 147/1/29 148/1/29
f 149/1/29 150/1/29 151/1/29
f 152/1/29 153/1/29 154/1/29
f 152/1/29 154/1/29 155/1/29
f 156/1/29 157/1/29 158/1/29
f 156/1/29 158/1/29 159/1/29
f 160/1/29 161/1/29 162/1/29
f 160/1/29 162/1/29 163/1/29
f 164/1/29 165/1/29 166/1/29
f 164/1/29 166/1/29 167/1/29
f 168/1/29 169/1/29 170/1/29
f 168/1/29 170/1/29 171/1/29
f 172/1/29 173/1/29 174/1/29
f 172/1/29 174/1/29 175/1/29
f 176/1/29 177/1/29 178/1/29
f 176/1/29 178/1/29 179/1/29
f 180/1/29 181/1/29 182/1/29
f 180/1/29 182/1/29 183/1/29
f 184/1/29 185/1/29 186/1/29
f 184/1/29 186/1/29 187/1/29
f 188/1/29 189/1/29 190/1/29
f 188/1/29 190/1/29 191/1/29
f 192/1/29 193/1/29 194/1/29
f 192/1/29 194/1/29 195/1/29
f 196/1/29 197/1/29 198/1/29
f 196/1/29 198/1/29 199/1/29
f 200/1/29 201/1/29 202/1/29
f 200/1/29 202/1/29 203/1/29
f 204/1/29 205/1/29 206/1/29
f 204/1/29 206/1/29 207/1/29
f 208/1/29 209/1/29 210/1/29
f 208/1/29 210/1/29 211/1/29
f 212/1/29 213/1/29 214/1/29
f 212/1/29 214/1/29 215/1/29
f 216/1/29 217/1/29 218/1/29
f 219/1/29 220/1/29 221/1/29
f 219/1/29 221/1/29 222/1/29
f 223/1/29 224/1/29 225/1/29
f 223/1/29 225/1/29 226/1/29
f 227/1/29 228/1/29 229/1/29
f 227/1/29 229/1/29 230/1/29
f 231/1/29 232/1/29 233/1/29
f 231/1/29 233/1/29 234/1/29
f 235/1/29 236/1/29 237/1/29
f 235/1/29 237/1/29 238/1/29
f 239/1/29 240/1/29 241/1/29
f 239/1/29 241/1/29 242/1/29
f 243/1/29 244/1/29 245/1/29
f 243/1/29 245/1/29 246/1/29
f 247/1/29 248/1/29 249/1/29
f 247/1/29 249/1/29 250/1/29
f 251/1/29 252/1/29 253/1/29
f 251/1/29 253/1/29 254/1/29
f 255/1/29 256/1/29 257/1/29
f 255/1/29 257/1/29 258/1/29
f 259/1/29 260/1/29 261/1/29
f 259/1/29 261/1/29 262/1/29
f 263/1/29 264/1/29 265/1/29
f 263/1/29 265/1/29 266/1/29
f 267/1/29 268/1/29 269/1/29
f 267/1/29 269/1/29 270/1/29
f 271/1/29 272/1/29 273/1/29
f 271/1/29 273/1/29 274/1/29
f 275/1/29 276/1/29 277/1/29
f 275/1/29 277/1/29 278/1/29
f 279/1/29 280/1/29 281/1/29
f 279/1/29 281/1/29 282/1/29
f 283/1/16 284/1/16 285/1/16
f 283/1/16 285/1/16 286/1/16
f 287/1/2 288/1/2 289/1/2
f 287/1/2 289/1/2 290/1/2
f 291/1/15 292/1/15 293/1/15
f 291/1/15 293/1/15 294/1/15
f 295/1/14 296/1/14 297/1/14
f 295/1/14 297/1/14 298/1/14
f 299/1/13 300/1/13 301/1/13
f 299/1/13 301/1/13 302/1/13
f 303/1/1 304/1/1 305/1/1
f 303/1/1 305/1/1 306/1/1
f 307/1/12 308/1/12 309/1/12
f 307/1/12 309/1/12 310/1/12
f 311/1/10 312/1/10 313/1/10
f 311/1/30 313/1/30 314/1/30
f 315/1/31 316/1/31 317/1/31
f 315/1/31 317/1/31 318/1/31
f 319/1/11 320/1/11 321/1/11
f 319/1/11 321/1/11 322/1/11
f 323/1/32 324/1/32 325/1/32
f 323/1/32 325/1/32 326/1/32
f 327/1/8 328/1/8 329/1/8
f 327/1/8 329/1/8 330/1/8
f 331/1/33 332/1/33 333/1/33
f 334/1/33 335/1/33 336/1/33
f 337/1/33 338/1/33 339/1/33
f 340/1/33 341/1/33 342/1/33
f 343/1/33 344/1/33 345/1/33
f 346/1/33 347/1/33 348/1/33
f 349/1/33 350/1/33 351/1/33
f 352/1/29 353/1/29 354/1/29
f 353/1/29 352/1/29 355/1/29
f 355/1/29 352/1/29 356/1/29
f 357/1/33 358/1/33 359/1/33
f 360/1/29 361/1/29 362/1/29
f 361/1/29 360/1/29 363/1/29
f 361/1/29 363/1/29 364/1/29
