# Blender 5.2.0 LTS
# www.blender.org
mtllib Cube_065.mtl
o Cube.065_Material.003_0
v 1.023603 0.013903 0.378002
v 1.023603 0.013903 -0.378002
v 1.023603 -0.018925 -0.378002
v 1.023603 -0.018924 0.378002
v -1.023603 0.013903 0.318654
v 1.023603 0.013903 0.318654
v 1.023603 0.013903 0.378002
v -1.023603 0.013903 0.378002
v 1.023603 0.013903 -0.318654
v -1.023603 0.013903 -0.318654
v -1.023603 0.013903 -0.378002
v 1.023603 0.013903 -0.378002
v 1.023603 -0.018924 0.378002
v 1.023603 -0.018925 -0.378002
v 1.023603 0.018924 -0.378002
v 1.023603 0.018925 0.378002
v -1.023603 0.013903 0.378002
v 1.023603 0.013903 0.378002
v 1.023603 -0.018924 0.378002
v -1.023603 -0.018924 0.378002
v 1.023603 0.013903 -0.378002
v -1.023603 0.013903 -0.378002
v -1.023603 -0.018925 -0.378002
v 1.023603 -0.018925 -0.378002
v -1.023603 0.013903 -0.378002
v -1.023603 0.013903 0.378002
v -1.023603 -0.018924 0.378002
v -1.023603 -0.018925 -0.378002
v 1.023603 -0.018925 -0.378002
v -1.023603 -0.018925 -0.378002
v -1.023603 0.018924 -0.378002
v 1.023603 0.018924 -0.378002
v -1.023603 -0.018924 0.378002
v 1.023603 -0.018924 0.378002
v 1.023603 0.018925 0.378002
v -1.023603 0.018925 0.378002
v -1.023603 -0.018925 -0.378002
v -1.023603 -0.018924 0.378002
v -1.023603 0.018925 0.378002
v -1.023603 0.018924 -0.378002
v -1.023603 -0.018192 0.378002
v 1.023603 -0.018192 0.378002
v 1.023603 -0.018192 -0.378002
v -1.023603 -0.018192 -0.378002
v 1.023603 0.018925 0.378002
v 1.023603 -0.018192 0.378002
v -1.023603 -0.018192 0.378002
v -1.023603 0.018925 0.378002
v 1.023603 0.018924 -0.378002
v 1.023603 -0.018192 -0.378002
v 1.023603 -0.018192 0.378002
v 1.023603 0.018925 0.378002
v -1.023603 0.018924 -0.378002
v -1.023603 -0.018192 -0.378002
v 1.023603 -0.018192 -0.378002
v 1.023603 0.018924 -0.378002
v -1.023603 0.018925 0.378002
v -1.023603 -0.018192 0.378002
v -1.023603 -0.018192 -0.378002
v -1.023603 0.018924 -0.378002
v 1.023603 0.018924 -0.378002
v -1.022237 0.018924 -0.378002
v -1.022237 0.018925 0.378002
v 1.023603 0.018925 0.378002
vn -1.0000 -0.0000 -0.0000
vn -0.0000 -1.0000 -0.0000
vn 1.0000 -0.0000 -0.0000
vn -0.0000 -0.0000 -1.0000
vn -0.0000 -0.0000 1.0000
vn -0.0000 1.0000 -0.0000
vt 0.000000 1.000000
vt 0.000000 0.871134
vt 1.000000 0.871134
vt 1.000000 0.128866
vt 0.000000 0.128866
s 0
usemtl Material.003
f 1/1/1 2/1/1 3/1/1
f 1/1/1 3/1/1 4/1/1
f 5/2/2 6/3/2 7/3/2
f 5/2/2 7/3/2 8/2/2
f 9/4/2 10/5/2 11/5/2
f 9/4/2 11/5/2 12/4/2
f 13/1/3 14/1/3 15/1/3
f 13/1/3 15/1/3 16/1/3
f 17/2/4 18/3/4 19/3/4
f 17/2/4 19/3/4 20/2/4
f 21/4/5 22/5/5 23/5/5
f 21/4/5 23/5/5 24/4/5
f 25/1/3 26/1/3 27/1/3
f 25/1/3 27/1/3 28/1/3
f 29/4/4 30/5/4 31/5/4
f 29/4/4 31/5/4 32/4/4
f 33/2/5 34/3/5 35/3/5
f 33/2/5 35/3/5 36/2/5
f 37/5/1 38/2/1 39/2/1
f 37/5/1 39/2/1 40/5/1
f 41/2/6 42/3/6 43/4/6
f 41/2/6 43/4/6 44/5/6
f 45/3/4 46/3/4 47/2/4
f 45/3/4 47/2/4 48/2/4
f 49/4/1 50/4/1 51/3/1
f 49/4/1 51/3/1 52/3/1
f 53/5/5 54/5/5 55/4/5
f 53/5/5 55/4/5 56/4/5
f 57/2/3 58/2/3 59/5/3
f 57/2/3 59/5/3 60/5/3
f 61/1/6 62/1/6 63/1/6
f 61/1/6 63/1/6 64/1/6
