# Blender 5.2.0 LTS
# www.blender.org
mtllib Cube_005.mtl
o Cube.005_Material.001_0
v -1.015452 0.000000 -0.032687
v 1.013805 -0.000000 -0.032687
v 1.013805 -0.000000 -0.010622
v -1.015452 0.000000 -0.010622
v -1.013805 0.000000 0.003609
v 1.015452 -0.000000 0.011016
v 1.015452 -0.000000 0.033080
v -1.013805 0.000000 0.025674
v -0.942850 0.000000 -0.021684
v -0.827492 0.000000 -0.021684
v -0.827492 0.000000 0.011726
v -0.942850 0.000000 0.011726
v -0.151231 0.000000 -0.021684
v -0.035873 0.000000 -0.021684
v -0.035873 -0.000000 0.011726
v -0.151231 -0.000000 0.011726
v 0.241916 0.000000 -0.021684
v 0.357274 0.000000 -0.021684
v 0.357274 -0.000000 0.011726
v 0.241916 -0.000000 0.011726
v 0.622087 -0.000000 -0.021684
v 0.737445 -0.000000 -0.021684
v 0.737445 -0.000000 0.011726
v 0.622087 -0.000000 0.011726
v -0.869834 -0.002010 0.004903
v -0.870215 0.011241 0.004903
v -0.870215 0.011241 -0.033080
v -0.869834 -0.002010 -0.033080
v -0.869834 -0.002010 -0.033080
v -0.870215 0.011241 -0.033080
v -0.757563 0.014475 -0.033080
v -0.757183 0.001224 -0.033080
v -0.757183 0.001224 -0.033080
v -0.757563 0.014475 -0.033080
v -0.757563 0.014475 0.004903
v -0.757183 0.001224 0.004903
v -0.757183 0.001224 0.004903
v -0.757563 0.014475 0.004903
v -0.870215 0.011241 0.004903
v -0.869834 -0.002010 0.004903
v -0.869834 -0.002010 -0.033080
v -0.757183 0.001224 -0.033080
v -0.757183 0.001224 0.004903
v -0.869834 -0.002010 0.004903
v -0.757563 0.014475 -0.033080
v -0.870215 0.011241 -0.033080
v -0.870215 0.011241 0.004903
v -0.757563 0.014475 0.004903
v -0.478162 -0.002010 0.004903
v -0.478542 0.011241 0.004903
v -0.478542 0.011241 -0.033080
v -0.478162 -0.002010 -0.033080
v -0.478162 -0.002010 -0.033080
v -0.478542 0.011241 -0.033080
v -0.365891 0.014475 -0.033080
v -0.365511 0.001224 -0.033080
v -0.365511 0.001224 -0.033080
v -0.365891 0.014475 -0.033080
v -0.365891 0.014475 0.004903
v -0.365511 0.001224 0.004903
v -0.365511 0.001224 0.004903
v -0.365891 0.014475 0.004903
v -0.478542 0.011241 0.004903
v -0.478162 -0.002010 0.004903
v -0.478162 -0.002010 -0.033080
v -0.365511 0.001224 -0.033080
v -0.365511 0.001224 0.004903
v -0.478162 -0.002010 0.004903
v -0.365891 0.014475 -0.033080
v -0.478542 0.011241 -0.033080
v -0.478542 0.011241 0.004903
v -0.365891 0.014475 0.004903
v -0.077904 -0.002010 0.004903
v -0.078284 0.011241 0.004903
v -0.078284 0.011241 -0.033080
v -0.077904 -0.002010 -0.033080
v -0.077904 -0.002010 -0.033080
v -0.078284 0.011241 -0.033080
v 0.034367 0.014475 -0.033080
v 0.034748 0.001224 -0.033080
v 0.034748 0.001224 -0.033080
v 0.034367 0.014475 -0.033080
v 0.034367 0.014475 0.004903
v 0.034748 0.001224 0.004903
v 0.034748 0.001224 0.004903
v 0.034367 0.014475 0.004903
v -0.078284 0.011241 0.004903
v -0.077904 -0.002010 0.004903
v -0.077904 -0.002010 -0.033080
v 0.034748 0.001224 -0.033080
v 0.034748 0.001224 0.004903
v -0.077904 -0.002010 0.004903
v 0.034367 0.014475 -0.033080
v -0.078284 0.011241 -0.033080
v -0.078284 0.011241 0.004903
v 0.034367 0.014475 0.004903
v 0.317131 -0.002010 0.004903
v 0.316751 0.011241 0.004903
v 0.316751 0.011241 -0.033080
v 0.317131 -0.002010 -0.033080
v 0.317131 -0.002010 -0.033080
v 0.316751 0.011241 -0.033080
v 0.429402 0.014475 -0.033080
v 0.429783 0.001224 -0.033080
v 0.429783 0.001224 -0.033080
v 0.429402 0.014475 -0.033080
v 0.429402 0.014475 0.004903
v 0.429783 0.001224 0.004903
v 0.429783 0.001224 0.004903
v 0.429402 0.014475 0.004903
v 0.316751 0.011241 0.004903
v 0.317131 -0.002010 0.004903
v 0.317131 -0.002010 -0.033080
v 0.429783 0.001224 -0.033080
v 0.429783 0.001224 0.004903
v 0.317131 -0.002010 0.004903
v 0.429402 0.014475 -0.033080
v 0.316751 0.011241 -0.033080
v 0.316751 0.011241 0.004903
v 0.429402 0.014475 0.004903
v 0.706300 -0.002010 0.004903
v 0.705920 0.011241 0.004903
v 0.705920 0.011241 -0.033080
v 0.706300 -0.002010 -0.033080
v 0.706300 -0.002010 -0.033080
v 0.705920 0.011241 -0.033080
v 0.818571 0.014475 -0.033080
v 0.818952 0.001224 -0.033080
v 0.818952 0.001224 -0.033080
v 0.818571 0.014475 -0.033080
v 0.818571 0.014475 0.004903
v 0.818952 0.001224 0.004903
v 0.818952 0.001224 0.004903
v 0.818571 0.014475 0.004903
v 0.705920 0.011241 0.004903
v 0.706300 -0.002010 0.004903
v 0.706300 -0.002010 -0.033080
v 0.818952 0.001224 -0.033080
v 0.818952 0.001224 0.004903
v 0.706300 -0.002010 0.004903
v 0.818571 0.014475 -0.033080
v 0.705920 0.011241 -0.033080
v 0.705920 0.011241 0.004903
v 0.818571 0.014475 0.004903
vn -0.0000 -1.0000 -0.0000
vn -0.9996 -0.0287 -0.0000
vn -0.0000 -0.0000 -1.0000
vn 0.9996 0.0287 -0.0000
vn -0.0000 -0.0000 1.0000
vn 0.0287 -0.9996 -0.0000
vn -0.0287 0.9996 -0.0000
vt 0.125000 0.500000
vt 0.375000 0.500000
vt 0.375000 0.250000
vt 0.125000 0.250000
vt 0.375000 1.000000
vt 0.625000 1.000000
vt 0.625000 0.750000
vt 0.375000 0.750000
vt 0.625000 0.500000
vt 0.625000 0.250000
vt 0.625000 0.000000
vt 0.375000 0.000000
vt 0.875000 0.500000
vt 0.875000 0.250000
s 0
usemtl Material.001
f 1/1/1 2/2/1 3/3/1
f 1/1/1 3/3/1 4/4/1
s 1
f 5/1/1 6/2/1 7/3/1
s 0
f 5/1/1 7/3/1 8/4/1
s 1
f 9/1/1 10/2/1 11/3/1
s 0
f 9/1/1 11/3/1 12/4/1
f 13/1/1 14/2/1 15/3/1
f 13/1/1 15/3/1 16/4/1
f 17/1/1 18/2/1 19/3/1
f 17/1/1 19/3/1 20/4/1
f 21/1/1 22/2/1 23/3/1
f 21/1/1 23/3/1 24/4/1
f 25/5/2 26/6/2 27/7/2
f 25/5/2 27/7/2 28/8/2
f 29/8/3 30/7/3 31/9/3
f 29/8/3 31/9/3 32/2/3
f 33/2/4 34/9/4 35/10/4
f 33/2/4 35/10/4 36/3/4
f 37/3/5 38/10/5 39/11/5
f 37/3/5 39/11/5 40/12/5
f 41/1/6 42/2/6 43/3/6
f 41/1/6 43/3/6 44/4/6
f 45/9/7 46/13/7 47/14/7
f 45/9/7 47/14/7 48/10/7
f 49/5/2 50/6/2 51/7/2
f 49/5/2 51/7/2 52/8/2
f 53/8/3 54/7/3 55/9/3
f 53/8/3 55/9/3 56/2/3
f 57/2/4 58/9/4 59/10/4
f 57/2/4 59/10/4 60/3/4
f 61/3/5 62/10/5 63/11/5
f 61/3/5 63/11/5 64/12/5
f 65/1/6 66/2/6 67/3/6
f 65/1/6 67/3/6 68/4/6
f 69/9/7 70/13/7 71/14/7
f 69/9/7 71/14/7 72/10/7
f 73/5/2 74/6/2 75/7/2
f 73/5/2 75/7/2 76/8/2
f 77/8/3 78/7/3 79/9/3
f 77/8/3 79/9/3 80/2/3
f 81/2/4 82/9/4 83/10/4
f 81/2/4 83/10/4 84/3/4
f 85/3/5 86/10/5 87/11/5
f 85/3/5 87/11/5 88/12/5
f 89/1/6 90/2/6 91/3/6
f 89/1/6 91/3/6 92/4/6
f 93/9/7 94/13/7 95/14/7
f 93/9/7 95/14/7 96/10/7
f 97/5/2 98/6/2 99/7/2
f 97/5/2 99/7/2 100/8/2
f 101/8/3 102/7/3 103/9/3
f 101/8/3 103/9/3 104/2/3
f 105/2/4 106/9/4 107/10/4
f 105/2/4 107/10/4 108/3/4
f 109/3/5 110/10/5 111/11/5
f 109/3/5 111/11/5 112/12/5
f 113/1/6 114/2/6 115/3/6
f 113/1/6 115/3/6 116/4/6
f 117/9/7 118/13/7 119/14/7
f 117/9/7 119/14/7 120/10/7
f 121/5/2 122/6/2 123/7/2
f 121/5/2 123/7/2 124/8/2
f 125/8/3 126/7/3 127/9/3
f 125/8/3 127/9/3 128/2/3
f 129/2/4 130/9/4 131/10/4
f 129/2/4 131/10/4 132/3/4
f 133/3/5 134/10/5 135/11/5
f 133/3/5 135/11/5 136/12/5
f 137/1/6 138/2/6 139/3/6
f 137/1/6 139/3/6 140/4/6
f 141/9/7 142/13/7 143/14/7
f 141/9/7 143/14/7 144/10/7
