# Blender 5.2.0 LTS
# www.blender.org
mtllib Cube_022.mtl
o Cube.022_Material.003_0
v -1.024427 -0.018925 -0.371576
v -1.024427 0.013903 -0.371576
v -1.024427 0.013903 -0.376964
v -1.024427 -0.018925 -0.376964
v 1.024427 0.013903 0.378002
v 1.024427 0.013903 -0.378002
v 1.024427 -0.018925 -0.378002
v 1.024427 -0.018924 0.378002
v -1.022780 0.013903 0.318654
v 1.024427 0.013903 0.318654
v 1.024427 0.013903 0.378002
v -1.022780 0.013903 0.378002
v 1.024427 0.013903 -0.318654
v -1.022780 0.013903 -0.318654
v -1.022780 0.013903 -0.378002
v 1.024427 0.013903 -0.378002
v 1.024427 -0.018924 0.378002
v 1.024427 -0.018925 -0.378002
v 1.024427 0.018924 -0.378002
v 1.024427 0.018925 0.378002
v -1.022780 0.013903 0.378002
v 1.024427 0.013903 0.378002
v 1.024427 -0.018924 0.378002
v -1.022780 -0.018924 0.378002
v 1.024427 0.013903 -0.378002
v -1.022780 0.013903 -0.378002
v -1.022780 -0.018925 -0.378002
v 1.024427 -0.018925 -0.378002
v -1.022780 0.013903 -0.378002
v -1.022780 0.013903 0.378002
v -1.022780 -0.018924 0.378002
v -1.022780 -0.018925 -0.378002
v 1.024427 -0.018925 -0.378002
v -1.022780 -0.018925 -0.378002
v -1.022780 0.018924 -0.378002
v 1.024427 0.018924 -0.378002
v -1.022780 -0.018924 0.378002
v 1.024427 -0.018924 0.378002
v 1.024427 0.018925 0.378002
v -1.022780 0.018925 0.378002
v -1.022780 -0.018925 -0.378002
v -1.022780 -0.018924 0.378002
v -1.022780 0.018925 0.378002
v -1.022780 0.018924 -0.378002
v -1.022780 -0.018192 0.378002
v 1.024427 -0.018192 0.378002
v 1.024427 -0.018192 -0.378002
v -1.022780 -0.018192 -0.378002
v 1.024427 0.018925 0.378002
v 1.024427 -0.018192 0.378002
v -1.022780 -0.018192 0.378002
v -1.022780 0.018925 0.378002
v 1.024427 0.018924 -0.378002
v 1.024427 -0.018192 -0.378002
v 1.024427 -0.018192 0.378002
v 1.024427 0.018925 0.378002
v -1.022780 0.018924 -0.378002
v -1.022780 -0.018192 -0.378002
v 1.024427 -0.018192 -0.378002
v 1.024427 0.018924 -0.378002
v -1.022780 0.018925 0.378002
v -1.022780 -0.018192 0.378002
v -1.022780 -0.018192 -0.378002
v -1.022780 0.018924 -0.378002
v 1.024427 0.018924 -0.378002
v -1.021413 0.018924 -0.378002
v -1.021413 0.018925 0.378002
v 1.024427 0.018925 0.378002
vn -1.0000 -0.0000 -0.0000
vn -0.0000 -1.0000 -0.0000
vn 1.0000 -0.0000 -0.0000
vn -0.0000 -0.0000 -1.0000
vn -0.0000 -0.0000 1.0000
vn -0.0000 1.0000 -0.0000
vt 0.000000 0.128866
vt 0.000000 1.000000
vt 0.000000 0.871134
vt 1.000000 0.871134
vt 1.000000 0.128866
s 0
usemtl Material.003
f 1/1/1 2/1/1 3/1/1
f 1/1/1 3/1/1 4/1/1
f 5/2/1 6/2/1 7/2/1
f 5/2/1 7/2/1 8/2/1
f 9/3/2 10/4/2 11/4/2
f 9/3/2 11/4/2 12/3/2
f 13/5/2 14/1/2 15/1/2
f 13/5/2 15/1/2 16/5/2
f 17/2/3 18/2/3 19/2/3
f 17/2/3 19/2/3 20/2/3
f 21/3/4 22/4/4 23/4/4
f 21/3/4 23/4/4 24/3/4
f 25/5/5 26/1/5 27/1/5
f 25/5/5 27/1/5 28/5/5
f 29/2/3 30/2/3 31/2/3
f 29/2/3 31/2/3 32/2/3
f 33/5/4 34/1/4 35/1/4
f 33/5/4 35/1/4 36/5/4
f 37/3/5 38/4/5 39/4/5
f 37/3/5 39/4/5 40/3/5
f 41/1/1 42/3/1 43/3/1
f 41/1/1 43/3/1 44/1/1
f 45/3/6 46/4/6 47/5/6
f 45/3/6 47/5/6 48/1/6
f 49/4/4 50/4/4 51/3/4
f 49/4/4 51/3/4 52/3/4
f 53/5/1 54/5/1 55/4/1
f 53/5/1 55/4/1 56/4/1
f 57/1/5 58/1/5 59/5/5
f 57/1/5 59/5/5 60/5/5
f 61/3/3 62/3/3 63/1/3
f 61/3/3 63/1/3 64/1/3
f 65/2/6 66/2/6 67/2/6
f 65/2/6 67/2/6 68/2/6
