# Blender 5.2.0 LTS
# www.blender.org
mtllib Cube_017.mtl
o Cube.017_Material.002_0
v -0.158292 -0.040378 0.122950
v -0.158292 -0.037034 0.134050
v -0.172583 -0.037034 0.122950
v -0.158292 0.037034 0.134050
v -0.158292 0.040378 0.122950
v -0.172583 0.037034 0.122950
v -0.158292 -0.040378 -0.001969
v -0.172583 -0.037034 -0.001969
v -0.158292 -0.037034 -0.010734
v -0.158292 0.040378 -0.001969
v -0.158292 0.037034 -0.010734
v -0.172583 0.037034 -0.001969
v 0.158292 -0.040378 0.122950
v 0.172583 -0.037034 0.122950
v 0.158292 -0.037034 0.134050
v 0.158292 0.040378 0.122950
v 0.158292 0.037034 0.134050
v 0.172583 0.037034 0.122950
v 0.158292 -0.040378 -0.122950
v 0.158292 -0.037034 -0.134050
v 0.172583 -0.037034 -0.122950
v 0.158292 0.040378 -0.122950
v 0.172583 0.037034 -0.122950
v 0.158292 0.037034 -0.134050
v 0.158292 -0.037034 0.134050
v 0.158292 0.037034 0.134050
v -0.158292 0.037034 0.134050
v -0.158292 -0.037034 0.134050
v 0.172583 -0.037034 -0.122950
v 0.172583 0.037034 -0.122950
v 0.172583 0.037034 0.122950
v 0.172583 -0.037034 0.122950
v 0.158292 0.040378 -0.122950
v -0.158292 0.040378 -0.001969
v -0.158292 0.040378 0.122950
v 0.158292 0.040378 0.122950
v -0.172583 -0.037034 0.122950
v -0.172583 0.037034 0.122950
v -0.172583 0.037034 -0.001969
v -0.172583 -0.037034 -0.001969
v -0.158292 -0.037034 -0.010734
v -0.158292 0.037034 -0.010734
v 0.158292 0.037034 -0.134050
v 0.158292 -0.037034 -0.134050
v -0.158292 -0.040378 -0.001969
v -0.158292 -0.040378 0.122950
v -0.172583 -0.037034 0.122950
v -0.172583 -0.037034 -0.001969
v -0.158292 -0.037034 0.134050
v -0.158292 0.037034 0.134050
v -0.172583 0.037034 0.122950
v -0.172583 -0.037034 0.122950
v -0.158292 0.040378 0.122950
v -0.158292 0.040378 -0.001969
v -0.172583 0.037034 -0.001969
v -0.172583 0.037034 0.122950
v -0.158292 0.037034 -0.010734
v -0.158292 -0.037034 -0.010734
v -0.172583 -0.037034 -0.001969
v -0.172583 0.037034 -0.001969
v 0.158292 -0.040378 -0.122950
v -0.158292 -0.040378 -0.001969
v -0.158292 -0.037034 -0.010734
v 0.158292 -0.037034 -0.134050
v -0.158292 0.040378 -0.001969
v 0.158292 0.040378 -0.122950
v 0.158292 0.037034 -0.134050
v -0.158292 0.037034 -0.010734
v 0.172583 0.037034 -0.122950
v 0.172583 -0.037034 -0.122950
v 0.158292 -0.037034 -0.134050
v 0.158292 0.037034 -0.134050
v 0.158292 -0.040378 0.122950
v 0.158292 -0.040378 -0.122950
v 0.172583 -0.037034 -0.122950
v 0.172583 -0.037034 0.122950
v 0.158292 0.040378 -0.122950
v 0.158292 0.040378 0.122950
v 0.172583 0.037034 0.122950
v 0.172583 0.037034 -0.122950
v 0.158292 0.037034 0.134050
v 0.158292 -0.037034 0.134050
v 0.172583 -0.037034 0.122950
v 0.172583 0.037034 0.122950
v -0.158292 -0.040378 0.122950
v 0.158292 -0.040378 0.122950
v 0.158292 -0.037034 0.134050
v -0.158292 -0.037034 0.134050
v 0.158292 0.040378 0.122950
v -0.158292 0.040378 0.122950
v -0.158292 0.037034 0.134050
v 0.158292 0.037034 0.134050
v -0.158292 -0.040378 -0.001969
v 0.158292 -0.040378 -0.122950
v 0.158292 -0.040378 0.122950
v -0.158292 -0.040378 0.122950
v 0.168432 -0.037034 0.122950
v 0.168432 0.037034 0.122950
v 0.168432 0.037034 -0.122950
v 0.168432 -0.037034 -0.122950
vn -0.2186 -0.9343 0.2814
vn -0.2186 0.9343 0.2814
vn -0.2136 -0.9128 -0.3482
vn -0.2136 0.9128 -0.3482
vn 0.2186 -0.9343 0.2814
vn 0.2186 0.9343 0.2814
vn 0.2186 -0.9343 -0.2814
vn 0.2186 0.9343 -0.2814
vn -0.0000 -0.0000 1.0000
vn 1.0000 -0.0000 -0.0000
vn -0.0000 1.0000 -0.0000
vn -1.0000 -0.0000 -0.0000
vn -0.3630 -0.0000 -0.9318
vn -0.2278 -0.9737 -0.0000
vn -0.6134 -0.0000 0.7898
vn -0.2278 0.9737 -0.0000
vn -0.5228 -0.0000 -0.8524
vn -0.1222 -0.9406 -0.3166
vn -0.1222 -0.9406 -0.3167
vn -0.1222 0.9406 -0.3166
vn 0.6134 -0.0000 -0.7898
vn 0.2278 -0.9737 -0.0000
vn 0.2278 0.9737 -0.0000
vn 0.6134 -0.0000 0.7898
vn -0.0000 -0.9575 0.2884
vn -0.0000 0.9575 0.2884
vn -0.0000 -1.0000 -0.0000
vt 0.135351 0.260351
vt 0.135351 0.250000
vt 0.125000 0.260351
vt 0.614649 1.000000
vt 0.625000 0.989649
vt 0.614649 0.989649
vt 0.135351 0.489649
vt 0.125000 0.489649
vt 0.135351 0.500000
vt 0.625000 0.760351
vt 0.614649 0.750000
vt 0.614649 0.760351
vt 0.364649 0.260351
vt 0.375000 0.260351
vt 0.364649 0.250000
vt 0.625000 0.239649
vt 0.614649 0.239649
vt 0.614649 0.250000
vt 0.364649 0.489649
vt 0.364649 0.500000
vt 0.375000 0.489649
vt 0.625000 0.510351
vt 0.614649 0.500000
vt 0.614649 0.510351
vt 0.385351 0.239649
vt 0.614649 0.010351
vt 0.385351 0.010351
vt 0.385351 0.489649
vt 0.614649 0.489649
vt 0.614649 0.260351
vt 0.385351 0.260351
vt 0.635351 0.489649
vt 0.864649 0.489649
vt 0.864649 0.260351
vt 0.635351 0.260351
vt 0.385351 0.989649
vt 0.385351 0.760351
vt 0.385351 0.739649
vt 0.614649 0.739649
vt 0.385351 0.510351
vt 0.385351 1.000000
vt 0.625000 0.739649
vt 0.364649 0.250000
vt 0.625000 0.010351
s 0
usemtl Material.002
f 1/1/1 2/2/1 3/3/1
f 4/4/2 5/5/2 6/6/2
f 7/7/3 8/8/3 9/9/3
f 10/10/4 11/11/4 12/12/4
f 13/13/5 14/14/5 15/15/5
f 16/16/6 17/17/6 18/18/6
f 19/19/7 20/20/7 21/21/7
f 22/22/8 23/23/8 24/24/8
f 25/25/9 26/17/9 27/26/9
f 25/25/9 27/26/9 28/27/9
f 29/28/10 30/29/10 31/30/10
f 29/28/10 31/30/10 32/31/10
f 33/32/11 34/33/11 35/34/11
f 33/32/11 35/34/11 36/35/11
f 37/36/12 38/6/12 39/12/12
f 37/36/12 39/12/12 40/37/12
f 41/38/13 42/39/13 43/24/13
f 41/38/13 43/24/13 44/40/13
f 45/7/14 46/1/14 47/3/14
f 45/7/14 47/3/14 48/8/14
f 49/41/15 50/4/15 51/6/15
f 49/41/15 51/6/15 52/36/15
f 53/5/16 54/10/16 55/12/16
f 53/5/16 55/12/16 56/6/16
f 57/39/17 58/38/17 59/37/17
f 57/39/17 59/37/17 60/12/17
s 1
f 61/19/18 62/7/19 63/9/18
f 61/19/18 63/9/18 64/20/18
f 65/42/20 66/22/20 67/24/20
f 65/42/20 67/24/20 68/39/20
s 0
f 69/29/21 70/28/21 71/40/21
f 69/29/21 71/40/21 72/24/21
f 73/13/22 74/19/22 75/28/22
f 73/13/22 75/28/22 76/31/22
f 77/32/23 78/35/23 79/30/23
f 77/32/23 79/30/23 80/29/23
f 81/17/24 82/25/24 83/31/24
f 81/17/24 83/31/24 84/30/24
f 85/1/25 86/13/25 87/43/25
f 85/1/25 87/43/25 88/2/25
f 89/16/26 90/44/26 91/26/26
f 89/16/26 91/26/26 92/17/26
f 93/7/27 94/19/27 95/13/27
f 93/7/27 95/13/27 96/1/27
f 97/36/12 98/6/12 99/12/12
f 97/36/12 99/12/12 100/37/12
