# Blender 5.2.0 LTS
# www.blender.org
mtllib Cube_010.mtl
o Cube.010_Material.001_0
v -1.015452 -0.006628 -0.007626
v -1.015452 0.006628 -0.007626
v -1.015452 0.006628 -0.031272
v -1.015452 -0.006628 -0.031272
v -1.015452 -0.006628 -0.031272
v 1.013805 -0.006628 -0.031272
v 1.013805 -0.006628 -0.007626
v -1.015452 -0.006628 -0.007626
v 1.013805 0.006628 -0.031272
v -1.015452 0.006628 -0.031272
v -1.015452 0.006628 -0.007626
v 1.013805 0.006628 -0.007626
v -1.015452 -0.006628 -0.031272
v -1.015452 0.006628 -0.031272
v 1.013805 0.006628 -0.031272
v 1.013805 -0.006628 -0.031272
v 1.013805 -0.006628 -0.031272
v 1.013805 0.006628 -0.031272
v 1.013805 0.006628 -0.007626
v 1.013805 -0.006628 -0.007626
v 1.013805 -0.006628 -0.007626
v 1.013805 0.006628 -0.007626
v -1.015452 0.006628 -0.007626
v -1.015452 -0.006628 -0.007626
v -1.013805 -0.006628 0.031272
v -1.013805 0.006628 0.031272
v -1.013805 0.006628 0.007626
v -1.013805 -0.006628 0.007626
v 1.015452 0.006628 0.007626
v -1.013805 0.006628 0.007626
v -1.013805 0.006628 0.031272
v 1.015452 0.006628 0.031272
v -1.013805 -0.006628 0.007626
v -1.013805 0.006628 0.007626
v 1.015452 0.006628 0.007626
v 1.015452 -0.006628 0.007626
v 1.015452 -0.006628 0.007626
v 1.015452 0.006628 0.007626
v 1.015452 0.006628 0.031272
v 1.015452 -0.006628 0.031272
v 1.015452 -0.006628 0.031272
v 1.015452 0.006628 0.031272
v -1.013805 0.006628 0.031272
v -1.013805 -0.006628 0.031272
vn -1.0000 -0.0000 -0.0000
vn -0.0000 -1.0000 -0.0000
vn -0.0000 1.0000 -0.0000
vn -0.0000 -0.0000 -1.0000
vn 1.0000 -0.0000 -0.0000
vn -0.0000 -0.0000 1.0000
vt 0.375000 1.000000
vt 0.625000 1.000000
vt 0.625000 0.750000
vt 0.375000 0.750000
vt 0.125000 0.500000
vt 0.375000 0.500000
vt 0.375000 0.250000
vt 0.125000 0.250000
vt 0.625000 0.500000
vt 0.875000 0.500000
vt 0.875000 0.250000
vt 0.625000 0.250000
vt 0.625000 0.000000
vt 0.375000 0.000000
s 0
usemtl Material.001
f 1/1/1 2/2/1 3/3/1
f 1/1/1 3/3/1 4/4/1
f 5/5/2 6/6/2 7/7/2
f 5/5/2 7/7/2 8/8/2
f 9/9/3 10/10/3 11/11/3
f 9/9/3 11/11/3 12/12/3
f 13/4/4 14/3/4 15/9/4
f 13/4/4 15/9/4 16/6/4
f 17/6/5 18/9/5 19/12/5
f 17/6/5 19/12/5 20/7/5
f 21/7/6 22/12/6 23/13/6
f 21/7/6 23/13/6 24/14/6
f 25/1/1 26/2/1 27/3/1
f 25/1/1 27/3/1 28/4/1
f 29/9/3 30/10/3 31/11/3
f 29/9/3 31/11/3 32/12/3
f 33/4/4 34/3/4 35/9/4
f 33/4/4 35/9/4 36/6/4
f 37/6/5 38/9/5 39/12/5
f 37/6/5 39/12/5 40/7/5
f 41/7/6 42/12/6 43/13/6
f 41/7/6 43/13/6 44/14/6
