# Blender 5.2.0 LTS
# www.blender.org
mtllib Cube_002.mtl
o Cube.002_Material.002_0
v -0.126672 -0.040378 0.122950
v -0.126672 -0.037034 0.134050
v -0.138109 -0.037034 0.122950
v -0.126672 0.037034 0.134050
v -0.126672 0.040378 0.122950
v -0.138109 0.037034 0.122950
v -0.126672 -0.040378 -0.122950
v -0.138109 -0.037034 -0.122950
v -0.126672 -0.037034 -0.134050
v -0.126672 0.040378 -0.122950
v -0.126672 0.037034 -0.134050
v -0.138109 0.037034 -0.122950
v 0.126672 -0.040378 0.122950
v 0.138109 -0.037034 0.122950
v 0.126672 -0.037034 0.134050
v 0.126672 0.040378 0.122950
v 0.126672 0.037034 0.134050
v 0.138109 0.037034 0.122950
v 0.126672 -0.040378 -0.122950
v 0.126672 -0.037034 -0.134050
v 0.138109 -0.037034 -0.122950
v 0.126672 0.040378 -0.122950
v 0.138109 0.037034 -0.122950
v 0.126672 0.037034 -0.134050
v 0.126672 -0.037034 0.134050
v 0.126672 0.037034 0.134050
v -0.126672 0.037034 0.134050
v -0.126672 -0.037034 0.134050
v 0.138109 -0.037034 -0.122950
v 0.138109 0.037034 -0.122950
v 0.138109 0.037034 0.122950
v 0.138109 -0.037034 0.122950
v 0.126672 0.040378 -0.122950
v -0.126672 0.040378 -0.122950
v -0.126672 0.040378 0.122950
v 0.126672 0.040378 0.122950
v -0.138109 -0.037034 0.122950
v -0.138109 0.037034 0.122950
v -0.138109 0.037034 -0.122950
v -0.138109 -0.037034 -0.122950
v -0.126672 -0.037034 -0.134050
v -0.126672 0.037034 -0.134050
v 0.126672 0.037034 -0.134050
v 0.126672 -0.037034 -0.134050
v -0.126672 -0.040378 -0.122950
v -0.126672 -0.040378 0.122950
v -0.138109 -0.037034 0.122950
v -0.138109 -0.037034 -0.122950
v -0.126672 -0.037034 0.134050
v -0.126672 0.037034 0.134050
v -0.138109 0.037034 0.122950
v -0.138109 -0.037034 0.122950
v -0.126672 0.040378 0.122950
v -0.126672 0.040378 -0.122950
v -0.138109 0.037034 -0.122950
v -0.138109 0.037034 0.122950
v -0.126672 0.037034 -0.134050
v -0.126672 -0.037034 -0.134050
v -0.138109 -0.037034 -0.122950
v -0.138109 0.037034 -0.122950
v 0.126672 -0.040378 -0.122950
v -0.126672 -0.040378 -0.122950
v -0.126672 -0.037034 -0.134050
v 0.126672 -0.037034 -0.134050
v -0.126672 0.040378 -0.122950
v 0.126672 0.040378 -0.122950
v 0.126672 0.037034 -0.134050
v -0.126672 0.037034 -0.134050
v 0.138109 0.037034 -0.122950
v 0.138109 -0.037034 -0.122950
v 0.126672 -0.037034 -0.134050
v 0.126672 0.037034 -0.134050
v 0.126672 -0.040378 0.122950
v 0.126672 -0.040378 -0.122950
v 0.138109 -0.037034 -0.122950
v 0.138109 -0.037034 0.122950
v 0.126672 0.040378 -0.122950
v 0.126672 0.040378 0.122950
v 0.138109 0.037034 0.122950
v 0.138109 0.037034 -0.122950
v 0.126672 0.037034 0.134050
v 0.126672 -0.037034 0.134050
v 0.138109 -0.037034 0.122950
v 0.138109 0.037034 0.122950
v -0.126672 -0.040378 0.122950
v 0.126672 -0.040378 0.122950
v 0.126672 -0.037034 0.134050
v -0.126672 -0.037034 0.134050
v 0.126672 0.040378 0.122950
v -0.126672 0.040378 0.122950
v -0.126672 0.037034 0.134050
v 0.126672 0.037034 0.134050
v -0.126672 -0.040378 -0.122950
v 0.126672 -0.040378 -0.122950
v 0.126672 -0.040378 0.122950
v -0.126672 -0.040378 0.122950
vn -0.2696 -0.9221 0.2777
vn -0.2696 0.9221 0.2777
vn -0.2696 -0.9221 -0.2777
vn -0.2696 0.9221 -0.2777
vn 0.2696 -0.9221 0.2777
vn 0.2696 0.9221 0.2777
vn 0.2696 -0.9221 -0.2777
vn 0.2696 0.9221 -0.2777
vn -0.0000 -0.0000 1.0000
vn 1.0000 -0.0000 -0.0000
vn -0.0000 1.0000 -0.0000
vn -1.0000 -0.0000 -0.0000
vn -0.0000 -0.0000 -1.0000
vn -0.2806 -0.9598 -0.0000
vn -0.6965 -0.0000 0.7176
vn -0.2806 0.9598 -0.0000
vn -0.6965 -0.0000 -0.7176
vn -0.0000 -0.9575 -0.2884
vn -0.0000 0.9575 -0.2884
vn 0.6965 -0.0000 -0.7176
vn 0.2806 -0.9598 -0.0000
vn 0.2806 0.9598 -0.0000
vn 0.6965 -0.0000 0.7176
vn -0.0000 -0.9575 0.2884
vn -0.0000 0.9575 0.2884
vn -0.0000 -1.0000 -0.0000
vt 0.135351 0.260351
vt 0.135351 0.250000
vt 0.125000 0.260351
vt 0.614649 1.000000
vt 0.625000 0.989649
vt 0.614649 0.989649
vt 0.135351 0.489649
vt 0.125000 0.489649
vt 0.135351 0.500000
vt 0.625000 0.760351
vt 0.614649 0.750000
vt 0.614649 0.760351
vt 0.364649 0.260351
vt 0.375000 0.260351
vt 0.364649 0.250000
vt 0.625000 0.239649
vt 0.614649 0.239649
vt 0.614649 0.250000
vt 0.364649 0.489649
vt 0.364649 0.500000
vt 0.375000 0.489649
vt 0.625000 0.510351
vt 0.614649 0.500000
vt 0.614649 0.510351
vt 0.385351 0.239649
vt 0.614649 0.010351
vt 0.385351 0.010351
vt 0.385351 0.489649
vt 0.614649 0.489649
vt 0.614649 0.260351
vt 0.385351 0.260351
vt 0.635351 0.489649
vt 0.864649 0.489649
vt 0.864649 0.260351
vt 0.635351 0.260351
vt 0.385351 0.989649
vt 0.385351 0.760351
vt 0.385351 0.739649
vt 0.614649 0.739649
vt 0.385351 0.510351
vt 0.385351 1.000000
vt 0.625000 0.739649
vt 0.364649 0.250000
vt 0.625000 0.010351
s 0
usemtl Material.002
f 1/1/1 2/2/1 3/3/1
f 4/4/2 5/5/2 6/6/2
f 7/7/3 8/8/3 9/9/3
f 10/10/4 11/11/4 12/12/4
f 13/13/5 14/14/5 15/15/5
f 16/16/6 17/17/6 18/18/6
f 19/19/7 20/20/7 21/21/7
f 22/22/8 23/23/8 24/24/8
f 25/25/9 26/17/9 27/26/9
f 25/25/9 27/26/9 28/27/9
f 29/28/10 30/29/10 31/30/10
f 29/28/10 31/30/10 32/31/10
f 33/32/11 34/33/11 35/34/11
f 33/32/11 35/34/11 36/35/11
f 37/36/12 38/6/12 39/12/12
f 37/36/12 39/12/12 40/37/12
f 41/38/13 42/39/13 43/24/13
f 41/38/13 43/24/13 44/40/13
f 45/7/14 46/1/14 47/3/14
f 45/7/14 47/3/14 48/8/14
f 49/41/15 50/4/15 51/6/15
f 49/41/15 51/6/15 52/36/15
f 53/5/16 54/10/16 55/12/16
f 53/5/16 55/12/16 56/6/16
f 57/39/17 58/38/17 59/37/17
f 57/39/17 59/37/17 60/12/17
f 61/19/18 62/7/18 63/9/18
f 61/19/18 63/9/18 64/20/18
f 65/42/19 66/22/19 67/24/19
f 65/42/19 67/24/19 68/39/19
f 69/29/20 70/28/20 71/40/20
f 69/29/20 71/40/20 72/24/20
f 73/13/21 74/19/21 75/28/21
f 73/13/21 75/28/21 76/31/21
f 77/32/22 78/35/22 79/30/22
f 77/32/22 79/30/22 80/29/22
f 81/17/23 82/25/23 83/31/23
f 81/17/23 83/31/23 84/30/23
f 85/1/24 86/13/24 87/43/24
f 85/1/24 87/43/24 88/2/24
f 89/16/25 90/44/25 91/26/25
f 89/16/25 91/26/25 92/17/25
f 93/7/26 94/19/26 95/13/26
f 93/7/26 95/13/26 96/1/26
