# Blender 5.2.0 LTS
# www.blender.org
mtllib Cylinder_003.mtl
o Cylinder.003_Material.011_0
v -0.029609 0.006427 0.000042
v -0.029609 -0.006423 0.000042
v -0.029049 -0.006424 -0.005735
v -0.029048 0.006427 -0.005735
v -0.029048 0.006427 -0.005735
v -0.029049 -0.006424 -0.005735
v -0.027371 -0.006424 -0.011292
v -0.027371 0.006427 -0.011292
v -0.027371 0.006427 -0.011292
v -0.027371 -0.006424 -0.011292
v -0.024642 -0.006424 -0.016415
v -0.024642 0.006427 -0.016415
v -0.024642 0.006427 -0.016415
v -0.024642 -0.006424 -0.016415
v -0.020967 -0.006424 -0.020907
v -0.020966 0.006426 -0.020907
v -0.020966 0.006426 -0.020907
v -0.020967 -0.006424 -0.020907
v -0.016485 -0.006424 -0.024596
v -0.016484 0.006426 -0.024596
v -0.016484 0.006426 -0.024596
v -0.016485 -0.006424 -0.024596
v -0.011370 -0.006425 -0.027339
v -0.011369 0.006426 -0.027339
v -0.011369 0.006426 -0.027339
v -0.011370 -0.006425 -0.027339
v -0.005818 -0.006425 -0.029032
v -0.005817 0.006425 -0.029032
v -0.005817 0.006425 -0.029032
v -0.005818 -0.006425 -0.029032
v -0.000042 -0.006425 -0.029609
v -0.000041 0.006425 -0.029609
v -0.000041 0.006425 -0.029609
v -0.000042 -0.006425 -0.029609
v 0.005735 -0.006425 -0.029048
v 0.005736 0.006425 -0.029048
v 0.005736 0.006425 -0.029048
v 0.005735 -0.006425 -0.029048
v 0.011292 -0.006426 -0.027371
v 0.011293 0.006425 -0.027371
v 0.011293 0.006425 -0.027371
v 0.011292 -0.006426 -0.027371
v 0.016415 -0.006426 -0.024642
v 0.016415 0.006424 -0.024642
v 0.016415 0.006424 -0.024642
v 0.016415 -0.006426 -0.024642
v 0.020907 -0.006426 -0.020966
v 0.020907 0.006424 -0.020966
v 0.020907 0.006424 -0.020966
v 0.020907 -0.006426 -0.020966
v 0.024595 -0.006427 -0.016485
v 0.024596 0.006424 -0.016485
v 0.024596 0.006424 -0.016485
v 0.024595 -0.006427 -0.016485
v 0.027339 -0.006427 -0.011369
v 0.027339 0.006424 -0.011369
v 0.027339 0.006424 -0.011369
v 0.027339 -0.006427 -0.011369
v 0.029031 -0.006427 -0.005817
v 0.029032 0.006424 -0.005817
v 0.029032 0.006424 -0.005817
v 0.029031 -0.006427 -0.005817
v 0.029609 -0.006427 -0.000042
v 0.029609 0.006423 -0.000042
v 0.029609 0.006423 -0.000042
v 0.029609 -0.006427 -0.000042
v 0.029048 -0.006427 0.005735
v 0.029049 0.006424 0.005735
v 0.029049 0.006424 0.005735
v 0.029048 -0.006427 0.005735
v 0.027371 -0.006427 0.011292
v 0.027371 0.006424 0.011292
v 0.027371 0.006424 0.011292
v 0.027371 -0.006427 0.011292
v 0.024642 -0.006427 0.016415
v 0.024642 0.006424 0.016415
v 0.024642 0.006424 0.016415
v 0.024642 -0.006427 0.016415
v 0.020966 -0.006426 0.020907
v 0.020967 0.006424 0.020907
v 0.020967 0.006424 0.020907
v 0.020966 -0.006426 0.020907
v 0.016484 -0.006426 0.024596
v 0.016485 0.006424 0.024596
v 0.016485 0.006424 0.024596
v 0.016484 -0.006426 0.024596
v 0.011369 -0.006426 0.027339
v 0.011370 0.006425 0.027339
v 0.011370 0.006425 0.027339
v 0.011369 -0.006426 0.027339
v 0.005817 -0.006425 0.029032
v 0.005818 0.006425 0.029032
v 0.005818 0.006425 0.029032
v 0.005817 -0.006425 0.029032
v 0.000041 -0.006425 0.029609
v 0.000042 0.006425 0.029609
v 0.000042 0.006425 0.029609
v 0.000041 -0.006425 0.029609
v -0.005736 -0.006425 0.029048
v -0.005735 0.006425 0.029048
v -0.005735 0.006425 0.029048
v -0.005736 -0.006425 0.029048
v -0.011293 -0.006425 0.027371
v -0.011292 0.006426 0.027371
v -0.011292 0.006426 0.027371
v -0.011293 -0.006425 0.027371
v -0.016415 -0.006424 0.024642
v -0.016415 0.006426 0.024642
v -0.016415 0.006426 0.024642
v -0.016415 -0.006424 0.024642
v -0.020907 -0.006424 0.020966
v -0.020907 0.006426 0.020966
v -0.020907 0.006426 0.020966
v -0.020907 -0.006424 0.020966
v -0.024596 -0.006424 0.016485
v -0.024595 0.006427 0.016485
v -0.024595 0.006427 0.016485
v -0.024596 -0.006424 0.016485
v -0.027339 -0.006424 0.011369
v -0.027339 0.006427 0.011369
v -0.027339 0.006427 0.011369
v -0.027339 -0.006424 0.011369
v -0.029032 -0.006424 0.005817
v -0.029031 0.006427 0.005817
v -0.029031 0.006427 0.005817
v -0.029032 -0.006424 0.005817
v -0.029609 -0.006423 0.000042
v -0.029609 0.006427 0.000042
v -0.029049 -0.006424 -0.005735
v -0.029609 -0.006423 0.000042
v -0.029032 -0.006424 0.005817
v -0.027339 -0.006424 0.011369
v -0.024596 -0.006424 0.016485
v -0.020907 -0.006424 0.020966
v -0.016415 -0.006424 0.024642
v -0.011293 -0.006425 0.027371
v -0.005736 -0.006425 0.029048
v 0.000041 -0.006425 0.029609
v 0.005817 -0.006425 0.029032
v 0.011369 -0.006426 0.027339
v 0.016484 -0.006426 0.024596
v 0.020966 -0.006426 0.020907
v 0.024642 -0.006427 0.016415
v 0.027371 -0.006427 0.011292
v 0.029048 -0.006427 0.005735
v 0.029609 -0.006427 -0.000042
v 0.029031 -0.006427 -0.005817
v 0.027339 -0.006427 -0.011369
v 0.024595 -0.006427 -0.016485
v 0.020907 -0.006426 -0.020966
v 0.016415 -0.006426 -0.024642
v 0.011292 -0.006426 -0.027371
v 0.005735 -0.006425 -0.029048
v -0.000042 -0.006425 -0.029609
v -0.005818 -0.006425 -0.029032
v -0.011370 -0.006425 -0.027339
v -0.016485 -0.006424 -0.024596
v -0.020967 -0.006424 -0.020907
v -0.024642 -0.006424 -0.016415
v -0.027371 -0.006424 -0.011292
v -0.029609 0.006427 0.000042
v -0.029048 0.006427 -0.005735
v -0.027371 0.006427 -0.011292
v -0.024642 0.006427 -0.016415
v -0.020966 0.006426 -0.020907
v -0.016484 0.006426 -0.024596
v -0.011369 0.006426 -0.027339
v -0.005817 0.006425 -0.029032
v -0.000041 0.006425 -0.029609
v 0.005736 0.006425 -0.029048
v 0.011293 0.006425 -0.027371
v 0.016415 0.006424 -0.024642
v 0.020907 0.006424 -0.020966
v 0.024596 0.006424 -0.016485
v 0.027339 0.006424 -0.011369
v 0.029032 0.006424 -0.005817
v 0.029609 0.006423 -0.000042
v 0.029049 0.006424 0.005735
v 0.027371 0.006424 0.011292
v 0.024642 0.006424 0.016415
v 0.020967 0.006424 0.020907
v 0.016485 0.006424 0.024596
v 0.011370 0.006425 0.027339
v 0.005818 0.006425 0.029032
v 0.000042 0.006425 0.029609
v -0.005735 0.006425 0.029048
v -0.011292 0.006426 0.027371
v -0.016415 0.006426 0.024642
v -0.020907 0.006426 0.020966
v -0.024595 0.006427 0.016485
v -0.027339 0.006427 0.011369
v -0.029031 0.006427 0.005817
vn -0.9953 0.0001 -0.0966
vn -0.9573 0.0001 -0.2889
vn -0.8826 -0.0000 -0.4702
vn -0.7739 -0.0000 -0.6333
vn -0.6355 -0.0000 -0.7721
vn -0.4726 -0.0000 -0.8813
vn -0.2916 -0.0000 -0.9565
vn -0.0994 -0.0000 -0.9950
vn 0.0966 -0.0000 -0.9953
vn 0.2889 -0.0000 -0.9573
vn 0.4702 -0.0000 -0.8826
vn 0.6333 -0.0000 -0.7739
vn 0.7721 -0.0000 -0.6355
vn 0.8813 -0.0001 -0.4726
vn 0.9565 -0.0001 -0.2916
vn 0.9950 -0.0001 -0.0994
vn 0.9953 -0.0001 0.0966
vn 0.9573 -0.0001 0.2889
vn 0.8826 -0.0000 0.4702
vn 0.7739 -0.0000 0.6333
vn 0.6355 -0.0000 0.7721
vn 0.4726 -0.0000 0.8813
vn 0.2916 -0.0000 0.9565
vn 0.0994 -0.0000 0.9950
vn -0.0966 -0.0000 0.9953
vn -0.2889 -0.0000 0.9573
vn -0.4702 -0.0000 0.8826
vn -0.6333 -0.0000 0.7739
vn -0.7721 -0.0000 0.6355
vn -0.8813 0.0001 0.4726
vn -0.9565 0.0001 0.2916
vn -0.9950 0.0001 0.0994
vn -0.0001 -1.0000 -0.0000
vn 0.0001 1.0000 -0.0000
vt 1.000000 0.500000
vt 1.000000 0.000000
vt 0.968750 0.000000
vt 0.968750 0.500000
vt 0.937500 0.000000
vt 0.937500 0.500000
vt 0.906250 0.000000
vt 0.906250 0.500000
vt 0.875000 0.000000
vt 0.875000 0.500000
vt 0.843750 0.000000
vt 0.843750 0.500000
vt 0.812500 0.000000
vt 0.812500 0.500000
vt 0.781250 0.000000
vt 0.781250 0.500000
vt 0.750000 0.000000
vt 0.750000 0.500000
vt 0.718750 0.000000
vt 0.718750 0.500000
vt 0.687500 0.000000
vt 0.687500 0.500000
vt 0.656250 0.000000
vt 0.656250 0.500000
vt 0.625000 0.000000
vt 0.625000 0.500000
vt 0.593750 0.000000
vt 0.593750 0.500000
vt 0.562500 0.000000
vt 0.562500 0.500000
vt 0.531250 0.000000
vt 0.531250 0.500000
vt 0.500000 0.000000
vt 0.500000 0.500000
vt 0.468750 0.000000
vt 0.468750 0.500000
vt 0.437500 0.000000
vt 0.437500 0.500000
vt 0.406250 0.000000
vt 0.406250 0.500000
vt 0.375000 0.000000
vt 0.375000 0.500000
vt 0.343750 0.000000
vt 0.343750 0.500000
vt 0.312500 0.000000
vt 0.312500 0.500000
vt 0.281250 0.000000
vt 0.281250 0.500000
vt 0.250000 0.000000
vt 0.250000 0.500000
vt 0.218750 0.000000
vt 0.218750 0.500000
vt 0.187500 0.000000
vt 0.187500 0.500000
vt 0.156250 0.000000
vt 0.156250 0.500000
vt 0.125000 0.000000
vt 0.125000 0.500000
vt 0.093750 0.000000
vt 0.093750 0.500000
vt 0.062500 0.000000
vt 0.062500 0.500000
vt 0.031250 0.000000
vt 0.031250 0.500000
vt 0.000000 0.000000
vt 0.000000 0.500000
vt 0.014612 0.796822
vt 0.014612 0.703178
vt 0.010000 0.750000
vt 0.028269 0.841844
vt 0.028269 0.658156
vt 0.050447 0.883337
vt 0.050447 0.616663
vt 0.080294 0.919706
vt 0.080294 0.580294
vt 0.116663 0.949553
vt 0.116663 0.550447
vt 0.158156 0.971731
vt 0.158156 0.528269
vt 0.203178 0.985388
vt 0.203178 0.514612
vt 0.250000 0.990000
vt 0.250000 0.510000
vt 0.296822 0.985388
vt 0.296822 0.514612
vt 0.341844 0.971731
vt 0.341844 0.528269
vt 0.383337 0.949553
vt 0.383337 0.550447
vt 0.419706 0.919706
vt 0.419706 0.580294
vt 0.449553 0.883337
vt 0.449553 0.616663
vt 0.471731 0.841844
vt 0.471731 0.658156
vt 0.485388 0.796822
vt 0.485388 0.703178
vt 0.490000 0.750000
vt 0.514612 0.703178
vt 0.514612 0.796822
vt 0.510000 0.750000
vt 0.528269 0.658156
vt 0.528269 0.841844
vt 0.550447 0.616663
vt 0.550447 0.883337
vt 0.580294 0.580294
vt 0.580294 0.919706
vt 0.616663 0.550447
vt 0.616663 0.949553
vt 0.658156 0.528269
vt 0.658156 0.971731
vt 0.703178 0.514612
vt 0.703178 0.985388
vt 0.750000 0.510000
vt 0.750000 0.990000
vt 0.796822 0.514612
vt 0.796822 0.985388
vt 0.841844 0.528269
vt 0.841844 0.971731
vt 0.883337 0.550447
vt 0.883337 0.949553
vt 0.919706 0.580294
vt 0.919706 0.919706
vt 0.949553 0.616663
vt 0.949553 0.883337
vt 0.971731 0.658156
vt 0.971731 0.841844
vt 0.985388 0.703178
vt 0.985388 0.796822
vt 0.990000 0.750000
s 0
usemtl Material.011
f 1/1/1 3/3/1 2/2/1
f 1/1/1 4/4/1 3/3/1
f 5/4/2 7/5/2 6/3/2
f 5/4/2 8/6/2 7/5/2
f 9/6/3 11/7/3 10/5/3
f 9/6/3 12/8/3 11/7/3
f 13/8/4 15/9/4 14/7/4
f 13/8/4 16/10/4 15/9/4
f 17/10/5 19/11/5 18/9/5
f 17/10/5 20/12/5 19/11/5
f 21/12/6 23/13/6 22/11/6
f 21/12/6 24/14/6 23/13/6
f 25/14/7 27/15/7 26/13/7
f 25/14/7 28/16/7 27/15/7
f 29/16/8 31/17/8 30/15/8
f 29/16/8 32/18/8 31/17/8
f 33/18/9 35/19/9 34/17/9
f 33/18/9 36/20/9 35/19/9
f 37/20/10 39/21/10 38/19/10
f 37/20/10 40/22/10 39/21/10
f 41/22/11 43/23/11 42/21/11
f 41/22/11 44/24/11 43/23/11
f 45/24/12 47/25/12 46/23/12
f 45/24/12 48/26/12 47/25/12
f 49/26/13 51/27/13 50/25/13
f 49/26/13 52/28/13 51/27/13
f 53/28/14 55/29/14 54/27/14
f 53/28/14 56/30/14 55/29/14
f 57/30/15 59/31/15 58/29/15
f 57/30/15 60/32/15 59/31/15
f 61/32/16 63/33/16 62/31/16
f 61/32/16 64/34/16 63/33/16
f 65/34/17 67/35/17 66/33/17
f 65/34/17 68/36/17 67/35/17
f 69/36/18 71/37/18 70/35/18
f 69/36/18 72/38/18 71/37/18
f 73/38/19 75/39/19 74/37/19
f 73/38/19 76/40/19 75/39/19
f 77/40/20 79/41/20 78/39/20
f 77/40/20 80/42/20 79/41/20
f 81/42/21 83/43/21 82/41/21
f 81/42/21 84/44/21 83/43/21
f 85/44/22 87/45/22 86/43/22
f 85/44/22 88/46/22 87/45/22
f 89/46/23 91/47/23 90/45/23
f 89/46/23 92/48/23 91/47/23
f 93/48/24 95/49/24 94/47/24
f 93/48/24 96/50/24 95/49/24
f 97/50/25 99/51/25 98/49/25
f 97/50/25 100/52/25 99/51/25
f 101/52/26 103/53/26 102/51/26
f 101/52/26 104/54/26 103/53/26
f 105/54/27 107/55/27 106/53/27
f 105/54/27 108/56/27 107/55/27
f 109/56/28 111/57/28 110/55/28
f 109/56/28 112/58/28 111/57/28
f 113/58/29 115/59/29 114/57/29
f 113/58/29 116/60/29 115/59/29
f 117/60/30 119/61/30 118/59/30
f 117/60/30 120/62/30 119/61/30
f 121/62/31 123/63/31 122/61/31
f 121/62/31 124/64/31 123/63/31
f 125/64/32 127/65/32 126/63/32
f 125/64/32 128/66/32 127/65/32
f 139/67/33 138/69/33 137/68/33
f 137/68/33 140/70/33 139/67/33
f 137/68/33 136/71/33 140/70/33
f 136/71/33 141/72/33 140/70/33
f 136/71/33 135/73/33 141/72/33
f 135/73/33 142/74/33 141/72/33
f 135/73/33 134/75/33 142/74/33
f 134/75/33 143/76/33 142/74/33
f 134/75/33 133/77/33 143/76/33
f 133/77/33 144/78/33 143/76/33
f 133/77/33 132/79/33 144/78/33
f 132/79/33 145/80/33 144/78/33
f 132/79/33 131/81/33 145/80/33
f 131/81/33 146/82/33 145/80/33
f 131/81/33 130/83/33 146/82/33
f 130/83/33 147/84/33 146/82/33
f 130/83/33 129/85/33 147/84/33
f 129/85/33 148/86/33 147/84/33
f 129/85/33 160/87/33 148/86/33
f 160/87/33 149/88/33 148/86/33
f 160/87/33 159/89/33 149/88/33
f 159/89/33 150/90/33 149/88/33
f 159/89/33 158/91/33 150/90/33
f 158/91/33 151/92/33 150/90/33
f 158/91/33 157/93/33 151/92/33
f 157/93/33 152/94/33 151/92/33
f 157/93/33 156/95/33 152/94/33
f 156/95/33 153/96/33 152/94/33
f 156/95/33 155/97/33 153/96/33
f 155/97/33 154/98/33 153/96/33
f 186/99/34 185/101/34 184/100/34
f 184/100/34 187/102/34 186/99/34
f 184/100/34 183/103/34 187/102/34
f 183/103/34 188/104/34 187/102/34
f 183/103/34 182/105/34 188/104/34
f 182/105/34 189/106/34 188/104/34
f 182/105/34 181/107/34 189/106/34
f 181/107/34 190/108/34 189/106/34
f 181/107/34 180/109/34 190/108/34
f 180/109/34 191/110/34 190/108/34
f 180/109/34 179/111/34 191/110/34
f 179/111/34 192/112/34 191/110/34
f 179/111/34 178/113/34 192/112/34
f 178/113/34 161/114/34 192/112/34
f 178/113/34 177/115/34 161/114/34
f 177/115/34 162/116/34 161/114/34
f 177/115/34 176/117/34 162/116/34
f 176/117/34 163/118/34 162/116/34
f 176/117/34 175/119/34 163/118/34
f 175/119/34 164/120/34 163/118/34
f 175/119/34 174/121/34 164/120/34
f 174/121/34 165/122/34 164/120/34
f 174/121/34 173/123/34 165/122/34
f 173/123/34 166/124/34 165/122/34
f 173/123/34 172/125/34 166/124/34
f 172/125/34 167/126/34 166/124/34
f 172/125/34 171/127/34 167/126/34
f 171/127/34 168/128/34 167/126/34
f 171/127/34 170/129/34 168/128/34
f 170/129/34 169/130/34 168/128/34
