# Blender 5.2.0 LTS
# www.blender.org
mtllib Cylinder_010.mtl
o Cylinder.010_Material.013_0
v 0.075868 0.006421 -0.000107
v 0.075867 -0.006429 -0.000107
v 0.076428 -0.006430 -0.005884
v 0.076429 0.006421 -0.005884
v 0.076429 0.006421 -0.005884
v 0.076428 -0.006430 -0.005884
v 0.078105 -0.006430 -0.011441
v 0.078106 0.006421 -0.011441
v 0.078106 0.006421 -0.011441
v 0.078105 -0.006430 -0.011441
v 0.080834 -0.006430 -0.016564
v 0.080835 0.006421 -0.016564
v 0.080835 0.006421 -0.016564
v 0.080834 -0.006430 -0.016564
v 0.084510 -0.006430 -0.021056
v 0.084511 0.006420 -0.021056
v 0.084511 0.006420 -0.021056
v 0.084510 -0.006430 -0.021056
v 0.088992 -0.006430 -0.024745
v 0.088992 0.006420 -0.024745
v 0.088992 0.006420 -0.024745
v 0.088992 -0.006430 -0.024745
v 0.094107 -0.006431 -0.027488
v 0.094108 0.006420 -0.027488
v 0.094108 0.006420 -0.027488
v 0.094107 -0.006431 -0.027488
v 0.099659 -0.006431 -0.029181
v 0.099660 0.006419 -0.029181
v 0.099660 0.006419 -0.029181
v 0.099659 -0.006431 -0.029181
v 0.105434 -0.006431 -0.029758
v 0.105435 0.006419 -0.029758
v 0.105435 0.006419 -0.029758
v 0.105434 -0.006431 -0.029758
v 0.111212 -0.006431 -0.029197
v 0.111212 0.006419 -0.029197
v 0.111212 0.006419 -0.029197
v 0.111212 -0.006431 -0.029197
v 0.116768 -0.006432 -0.027520
v 0.116769 0.006419 -0.027520
v 0.116769 0.006419 -0.027520
v 0.116768 -0.006432 -0.027520
v 0.121891 -0.006432 -0.024791
v 0.121892 0.006418 -0.024791
v 0.121892 0.006418 -0.024791
v 0.121891 -0.006432 -0.024791
v 0.126383 -0.006432 -0.021115
v 0.126384 0.006418 -0.021115
v 0.126384 0.006418 -0.021115
v 0.126383 -0.006432 -0.021115
v 0.130072 -0.006433 -0.016633
v 0.130073 0.006418 -0.016633
v 0.130073 0.006418 -0.016633
v 0.130072 -0.006433 -0.016633
v 0.132815 -0.006433 -0.011518
v 0.132816 0.006418 -0.011518
v 0.132816 0.006418 -0.011518
v 0.132815 -0.006433 -0.011518
v 0.134508 -0.006433 -0.005966
v 0.134509 0.006418 -0.005966
v 0.134509 0.006418 -0.005966
v 0.134508 -0.006433 -0.005966
v 0.135085 -0.006433 -0.000191
v 0.135086 0.006417 -0.000191
v 0.135086 0.006417 -0.000191
v 0.135085 -0.006433 -0.000191
v 0.134524 -0.006433 0.005587
v 0.134525 0.006418 0.005587
v 0.134525 0.006418 0.005587
v 0.134524 -0.006433 0.005587
v 0.132847 -0.006433 0.011143
v 0.132848 0.006418 0.011143
v 0.132848 0.006418 0.011143
v 0.132847 -0.006433 0.011143
v 0.130118 -0.006433 0.016266
v 0.130119 0.006418 0.016266
v 0.130119 0.006418 0.016266
v 0.130118 -0.006433 0.016266
v 0.126442 -0.006432 0.020758
v 0.126443 0.006418 0.020758
v 0.126443 0.006418 0.020758
v 0.126442 -0.006432 0.020758
v 0.121961 -0.006432 0.024447
v 0.121961 0.006418 0.024447
v 0.121961 0.006418 0.024447
v 0.121961 -0.006432 0.024447
v 0.116846 -0.006432 0.027190
v 0.116846 0.006419 0.027190
v 0.116846 0.006419 0.027190
v 0.116846 -0.006432 0.027190
v 0.111294 -0.006431 0.028883
v 0.111294 0.006419 0.028883
v 0.111294 0.006419 0.028883
v 0.111294 -0.006431 0.028883
v 0.105518 -0.006431 0.029460
v 0.105519 0.006419 0.029460
v 0.105519 0.006419 0.029460
v 0.105518 -0.006431 0.029460
v 0.099741 -0.006431 0.028899
v 0.099741 0.006419 0.028899
v 0.099741 0.006419 0.028899
v 0.099741 -0.006431 0.028899
v 0.094184 -0.006431 0.027222
v 0.094185 0.006420 0.027222
v 0.094185 0.006420 0.027222
v 0.094184 -0.006431 0.027222
v 0.089061 -0.006430 0.024493
v 0.089062 0.006420 0.024493
v 0.089062 0.006420 0.024493
v 0.089061 -0.006430 0.024493
v 0.084569 -0.006430 0.020817
v 0.084570 0.006420 0.020817
v 0.084570 0.006420 0.020817
v 0.084569 -0.006430 0.020817
v 0.080881 -0.006430 0.016336
v 0.080881 0.006421 0.016336
v 0.080881 0.006421 0.016336
v 0.080881 -0.006430 0.016336
v 0.078137 -0.006430 0.011221
v 0.078138 0.006421 0.011221
v 0.078138 0.006421 0.011221
v 0.078137 -0.006430 0.011221
v 0.076444 -0.006430 0.005669
v 0.076445 0.006421 0.005669
v 0.076445 0.006421 0.005669
v 0.076444 -0.006430 0.005669
v 0.075867 -0.006429 -0.000107
v 0.075868 0.006421 -0.000107
v -0.135085 0.006433 0.000191
v -0.135086 -0.006417 0.000191
v -0.134525 -0.006418 -0.005587
v -0.134524 0.006433 -0.005587
v -0.134524 0.006433 -0.005587
v -0.134525 -0.006418 -0.005587
v -0.132848 -0.006418 -0.011143
v -0.132847 0.006433 -0.011143
v -0.132847 0.006433 -0.011143
v -0.132848 -0.006418 -0.011143
v -0.130119 -0.006418 -0.016266
v -0.130118 0.006433 -0.016266
v -0.130118 0.006433 -0.016266
v -0.130119 -0.006418 -0.016266
v -0.126443 -0.006418 -0.020758
v -0.126442 0.006432 -0.020758
v -0.126442 0.006432 -0.020758
v -0.126443 -0.006418 -0.020758
v -0.121961 -0.006418 -0.024447
v -0.121961 0.006432 -0.024447
v -0.121961 0.006432 -0.024447
v -0.121961 -0.006418 -0.024447
v -0.116846 -0.006419 -0.027190
v -0.116846 0.006432 -0.027190
v -0.116846 0.006432 -0.027190
v -0.116846 -0.006419 -0.027190
v -0.111294 -0.006419 -0.028883
v -0.111294 0.006431 -0.028883
v -0.111294 0.006431 -0.028883
v -0.111294 -0.006419 -0.028883
v -0.105519 -0.006419 -0.029460
v -0.105518 0.006431 -0.029460
v -0.105518 0.006431 -0.029460
v -0.105519 -0.006419 -0.029460
v -0.099741 -0.006419 -0.028899
v -0.099741 0.006431 -0.028899
v -0.099741 0.006431 -0.028899
v -0.099741 -0.006419 -0.028899
v -0.094185 -0.006420 -0.027222
v -0.094184 0.006431 -0.027222
v -0.094184 0.006431 -0.027222
v -0.094185 -0.006420 -0.027222
v -0.089062 -0.006420 -0.024493
v -0.089061 0.006430 -0.024493
v -0.089061 0.006430 -0.024493
v -0.089062 -0.006420 -0.024493
v -0.084570 -0.006420 -0.020817
v -0.084569 0.006430 -0.020817
v -0.084569 0.006430 -0.020817
v -0.084570 -0.006420 -0.020817
v -0.080881 -0.006421 -0.016336
v -0.080881 0.006430 -0.016336
v -0.080881 0.006430 -0.016336
v -0.080881 -0.006421 -0.016336
v -0.078138 -0.006421 -0.011221
v -0.078137 0.006430 -0.011221
v -0.078137 0.006430 -0.011221
v -0.078138 -0.006421 -0.011221
v -0.076445 -0.006421 -0.005669
v -0.076444 0.006430 -0.005669
v -0.076444 0.006430 -0.005669
v -0.076445 -0.006421 -0.005669
v -0.075868 -0.006421 0.000107
v -0.075867 0.006429 0.000107
v -0.075867 0.006429 0.000107
v -0.075868 -0.006421 0.000107
v -0.076429 -0.006421 0.005884
v -0.076428 0.006430 0.005884
v -0.076428 0.006430 0.005884
v -0.076429 -0.006421 0.005884
v -0.078106 -0.006421 0.011441
v -0.078105 0.006430 0.011441
v -0.078105 0.006430 0.011441
v -0.078106 -0.006421 0.011441
v -0.080835 -0.006421 0.016564
v -0.080834 0.006430 0.016564
v -0.080834 0.006430 0.016564
v -0.080835 -0.006421 0.016564
v -0.084511 -0.006420 0.021056
v -0.084510 0.006430 0.021056
v -0.084510 0.006430 0.021056
v -0.084511 -0.006420 0.021056
v -0.088992 -0.006420 0.024745
v -0.088992 0.006430 0.024745
v -0.088992 0.006430 0.024745
v -0.088992 -0.006420 0.024745
v -0.094108 -0.006420 0.027488
v -0.094107 0.006431 0.027488
v -0.094107 0.006431 0.027488
v -0.094108 -0.006420 0.027488
v -0.099660 -0.006419 0.029181
v -0.099659 0.006431 0.029181
v -0.099659 0.006431 0.029181
v -0.099660 -0.006419 0.029181
v -0.105435 -0.006419 0.029758
v -0.105434 0.006431 0.029758
v -0.105434 0.006431 0.029758
v -0.105435 -0.006419 0.029758
v -0.111212 -0.006419 0.029197
v -0.111212 0.006431 0.029197
v -0.111212 0.006431 0.029197
v -0.111212 -0.006419 0.029197
v -0.116769 -0.006419 0.027520
v -0.116768 0.006432 0.027520
v -0.116768 0.006432 0.027520
v -0.116769 -0.006419 0.027520
v -0.121892 -0.006418 0.024791
v -0.121891 0.006432 0.024791
v -0.121891 0.006432 0.024791
v -0.121892 -0.006418 0.024791
v -0.126384 -0.006418 0.021115
v -0.126383 0.006432 0.021115
v -0.126383 0.006432 0.021115
v -0.126384 -0.006418 0.021115
v -0.130073 -0.006418 0.016633
v -0.130072 0.006433 0.016633
v -0.130072 0.006433 0.016633
v -0.130073 -0.006418 0.016633
v -0.132816 -0.006418 0.011518
v -0.132815 0.006433 0.011518
v -0.132815 0.006433 0.011518
v -0.132816 -0.006418 0.011518
v -0.134509 -0.006418 0.005966
v -0.134508 0.006433 0.005966
v -0.134508 0.006433 0.005966
v -0.134509 -0.006418 0.005966
v -0.135086 -0.006417 0.000191
v -0.135085 0.006433 0.000191
v 0.076428 -0.006430 -0.005884
v 0.075867 -0.006429 -0.000107
v 0.076444 -0.006430 0.005669
v 0.078137 -0.006430 0.011221
v 0.080881 -0.006430 0.016336
v 0.084569 -0.006430 0.020817
v 0.089061 -0.006430 0.024493
v 0.094184 -0.006431 0.027222
v 0.099741 -0.006431 0.028899
v 0.105518 -0.006431 0.029460
v 0.111294 -0.006431 0.028883
v 0.116846 -0.006432 0.027190
v 0.121961 -0.006432 0.024447
v 0.126442 -0.006432 0.020758
v 0.130118 -0.006433 0.016266
v 0.132847 -0.006433 0.011143
v 0.134524 -0.006433 0.005587
v 0.135085 -0.006433 -0.000191
v 0.134508 -0.006433 -0.005966
v 0.132815 -0.006433 -0.011518
v 0.130072 -0.006433 -0.016633
v 0.126383 -0.006432 -0.021115
v 0.121891 -0.006432 -0.024791
v 0.116768 -0.006432 -0.027520
v 0.111212 -0.006431 -0.029197
v 0.105434 -0.006431 -0.029758
v 0.099659 -0.006431 -0.029181
v 0.094107 -0.006431 -0.027488
v 0.088992 -0.006430 -0.024745
v 0.084510 -0.006430 -0.021056
v 0.080834 -0.006430 -0.016564
v 0.078105 -0.006430 -0.011441
v 0.075868 0.006421 -0.000107
v 0.076429 0.006421 -0.005884
v 0.078106 0.006421 -0.011441
v 0.080835 0.006421 -0.016564
v 0.084511 0.006420 -0.021056
v 0.088992 0.006420 -0.024745
v 0.094108 0.006420 -0.027488
v 0.099660 0.006419 -0.029181
v 0.105435 0.006419 -0.029758
v 0.111212 0.006419 -0.029197
v 0.116769 0.006419 -0.027520
v 0.121892 0.006418 -0.024791
v 0.126384 0.006418 -0.021115
v 0.130073 0.006418 -0.016633
v 0.132816 0.006418 -0.011518
v 0.134509 0.006418 -0.005966
v 0.135086 0.006417 -0.000191
v 0.134525 0.006418 0.005587
v 0.132848 0.006418 0.011143
v 0.130119 0.006418 0.016266
v 0.126443 0.006418 0.020758
v 0.121961 0.006418 0.024447
v 0.116846 0.006419 0.027190
v 0.111294 0.006419 0.028883
v 0.105519 0.006419 0.029460
v 0.099741 0.006419 0.028899
v 0.094185 0.006420 0.027222
v 0.089062 0.006420 0.024493
v 0.084570 0.006420 0.020817
v 0.080881 0.006421 0.016336
v 0.078138 0.006421 0.011221
v 0.076445 0.006421 0.005669
v -0.134525 -0.006418 -0.005587
v -0.135086 -0.006417 0.000191
v -0.134509 -0.006418 0.005966
v -0.132816 -0.006418 0.011518
v -0.130073 -0.006418 0.016633
v -0.126384 -0.006418 0.021115
v -0.121892 -0.006418 0.024791
v -0.116769 -0.006419 0.027520
v -0.111212 -0.006419 0.029197
v -0.105435 -0.006419 0.029758
v -0.099660 -0.006419 0.029181
v -0.094108 -0.006420 0.027488
v -0.088992 -0.006420 0.024745
v -0.084511 -0.006420 0.021056
v -0.080835 -0.006421 0.016564
v -0.078106 -0.006421 0.011441
v -0.076429 -0.006421 0.005884
v -0.075868 -0.006421 0.000107
v -0.076445 -0.006421 -0.005669
v -0.078138 -0.006421 -0.011221
v -0.080881 -0.006421 -0.016336
v -0.084570 -0.006420 -0.020817
v -0.089062 -0.006420 -0.024493
v -0.094185 -0.006420 -0.027222
v -0.099741 -0.006419 -0.028899
v -0.105519 -0.006419 -0.029460
v -0.111294 -0.006419 -0.028883
v -0.116846 -0.006419 -0.027190
v -0.121961 -0.006418 -0.024447
v -0.126443 -0.006418 -0.020758
v -0.130119 -0.006418 -0.016266
v -0.132848 -0.006418 -0.011143
v -0.135085 0.006433 0.000191
v -0.134524 0.006433 -0.005587
v -0.132847 0.006433 -0.011143
v -0.130118 0.006433 -0.016266
v -0.126442 0.006432 -0.020758
v -0.121961 0.006432 -0.024447
v -0.116846 0.006432 -0.027190
v -0.111294 0.006431 -0.028883
v -0.105518 0.006431 -0.029460
v -0.099741 0.006431 -0.028899
v -0.094184 0.006431 -0.027222
v -0.089061 0.006430 -0.024493
v -0.084569 0.006430 -0.020817
v -0.080881 0.006430 -0.016336
v -0.078137 0.006430 -0.011221
v -0.076444 0.006430 -0.005669
v -0.075867 0.006429 0.000107
v -0.076428 0.006430 0.005884
v -0.078105 0.006430 0.011441
v -0.080834 0.006430 0.016564
v -0.084510 0.006430 0.021056
v -0.088992 0.006430 0.024745
v -0.094107 0.006431 0.027488
v -0.099659 0.006431 0.029181
v -0.105434 0.006431 0.029758
v -0.111212 0.006431 0.029197
v -0.116768 0.006432 0.027520
v -0.121891 0.006432 0.024791
v -0.126383 0.006432 0.021115
v -0.130072 0.006433 0.016633
v -0.132815 0.006433 0.011518
v -0.134508 0.006433 0.005966
vn -0.9953 0.0001 -0.0966
vn -0.9573 0.0001 -0.2889
vn -0.8826 -0.0000 -0.4702
vn -0.7739 -0.0000 -0.6333
vn -0.6355 -0.0000 -0.7721
vn -0.4726 -0.0000 -0.8813
vn -0.2916 -0.0000 -0.9565
vn -0.0994 -0.0000 -0.9950
vn 0.0966 -0.0000 -0.9953
vn 0.2889 -0.0000 -0.9573
vn 0.4702 -0.0000 -0.8826
vn 0.6333 -0.0000 -0.7739
vn 0.7721 -0.0000 -0.6355
vn 0.8813 -0.0001 -0.4726
vn 0.9565 -0.0001 -0.2916
vn 0.9950 -0.0001 -0.0994
vn 0.9953 -0.0001 0.0966
vn 0.9573 -0.0001 0.2889
vn 0.8826 -0.0000 0.4702
vn 0.7739 -0.0000 0.6333
vn 0.6355 -0.0000 0.7721
vn 0.4726 -0.0000 0.8813
vn 0.2916 -0.0000 0.9565
vn 0.0994 -0.0000 0.9950
vn -0.0966 -0.0000 0.9953
vn -0.2889 -0.0000 0.9573
vn -0.4702 -0.0000 0.8826
vn -0.6333 -0.0000 0.7739
vn -0.7721 -0.0000 0.6355
vn -0.8813 0.0001 0.4726
vn -0.9565 0.0001 0.2916
vn -0.9950 0.0001 0.0994
vn -0.0001 -1.0000 -0.0000
vn 0.0001 1.0000 -0.0000
vt 1.000000 0.500000
vt 1.000000 0.000000
vt 0.968750 0.000000
vt 0.968750 0.500000
vt 0.937500 0.000000
vt 0.937500 0.500000
vt 0.906250 0.000000
vt 0.906250 0.500000
vt 0.875000 0.000000
vt 0.875000 0.500000
vt 0.843750 0.000000
vt 0.843750 0.500000
vt 0.812500 0.000000
vt 0.812500 0.500000
vt 0.781250 0.000000
vt 0.781250 0.500000
vt 0.750000 0.000000
vt 0.750000 0.500000
vt 0.718750 0.000000
vt 0.718750 0.500000
vt 0.687500 0.000000
vt 0.687500 0.500000
vt 0.656250 0.000000
vt 0.656250 0.500000
vt 0.625000 0.000000
vt 0.625000 0.500000
vt 0.593750 0.000000
vt 0.593750 0.500000
vt 0.562500 0.000000
vt 0.562500 0.500000
vt 0.531250 0.000000
vt 0.531250 0.500000
vt 0.500000 0.000000
vt 0.500000 0.500000
vt 0.468750 0.000000
vt 0.468750 0.500000
vt 0.437500 0.000000
vt 0.437500 0.500000
vt 0.406250 0.000000
vt 0.406250 0.500000
vt 0.375000 0.000000
vt 0.375000 0.500000
vt 0.343750 0.000000
vt 0.343750 0.500000
vt 0.312500 0.000000
vt 0.312500 0.500000
vt 0.281250 0.000000
vt 0.281250 0.500000
vt 0.250000 0.000000
vt 0.250000 0.500000
vt 0.218750 0.000000
vt 0.218750 0.500000
vt 0.187500 0.000000
vt 0.187500 0.500000
vt 0.156250 0.000000
vt 0.156250 0.500000
vt 0.125000 0.000000
vt 0.125000 0.500000
vt 0.093750 0.000000
vt 0.093750 0.500000
vt 0.062500 0.000000
vt 0.062500 0.500000
vt 0.031250 0.000000
vt 0.031250 0.500000
vt 0.000000 0.000000
vt 0.000000 0.500000
vt 0.014612 0.796822
vt 0.014612 0.703178
vt 0.010000 0.750000
vt 0.028269 0.841844
vt 0.028269 0.658156
vt 0.050447 0.883337
vt 0.050447 0.616663
vt 0.080294 0.919706
vt 0.080294 0.580294
vt 0.116663 0.949553
vt 0.116663 0.550447
vt 0.158156 0.971731
vt 0.158156 0.528269
vt 0.203178 0.985388
vt 0.203178 0.514612
vt 0.250000 0.990000
vt 0.250000 0.510000
vt 0.296822 0.985388
vt 0.296822 0.514612
vt 0.341844 0.971731
vt 0.341844 0.528269
vt 0.383337 0.949553
vt 0.383337 0.550447
vt 0.419706 0.919706
vt 0.419706 0.580294
vt 0.449553 0.883337
vt 0.449553 0.616663
vt 0.471731 0.841844
vt 0.471731 0.658156
vt 0.485388 0.796822
vt 0.485388 0.703178
vt 0.490000 0.750000
vt 0.514612 0.703178
vt 0.514612 0.796822
vt 0.510000 0.750000
vt 0.528269 0.658156
vt 0.528269 0.841844
vt 0.550447 0.616663
vt 0.550447 0.883337
vt 0.580294 0.580294
vt 0.580294 0.919706
vt 0.616663 0.550447
vt 0.616663 0.949553
vt 0.658156 0.528269
vt 0.658156 0.971731
vt 0.703178 0.514612
vt 0.703178 0.985388
vt 0.750000 0.510000
vt 0.750000 0.990000
vt 0.796822 0.514612
vt 0.796822 0.985388
vt 0.841844 0.528269
vt 0.841844 0.971731
vt 0.883337 0.550447
vt 0.883337 0.949553
vt 0.919706 0.580294
vt 0.919706 0.919706
vt 0.949553 0.616663
vt 0.949553 0.883337
vt 0.971731 0.658156
vt 0.971731 0.841844
vt 0.985388 0.703178
vt 0.985388 0.796822
vt 0.990000 0.750000
s 0
usemtl Material.013
f 1/1/1 3/3/1 2/2/1
f 1/1/1 4/4/1 3/3/1
f 5/4/2 7/5/2 6/3/2
f 5/4/2 8/6/2 7/5/2
f 9/6/3 11/7/3 10/5/3
f 9/6/3 12/8/3 11/7/3
f 13/8/4 15/9/4 14/7/4
f 13/8/4 16/10/4 15/9/4
f 17/10/5 19/11/5 18/9/5
f 17/10/5 20/12/5 19/11/5
f 21/12/6 23/13/6 22/11/6
f 21/12/6 24/14/6 23/13/6
f 25/14/7 27/15/7 26/13/7
f 25/14/7 28/16/7 27/15/7
f 29/16/8 31/17/8 30/15/8
f 29/16/8 32/18/8 31/17/8
f 33/18/9 35/19/9 34/17/9
f 33/18/9 36/20/9 35/19/9
f 37/20/10 39/21/10 38/19/10
f 37/20/10 40/22/10 39/21/10
f 41/22/11 43/23/11 42/21/11
f 41/22/11 44/24/11 43/23/11
f 45/24/12 47/25/12 46/23/12
f 45/24/12 48/26/12 47/25/12
f 49/26/13 51/27/13 50/25/13
f 49/26/13 52/28/13 51/27/13
f 53/28/14 55/29/14 54/27/14
f 53/28/14 56/30/14 55/29/14
f 57/30/15 59/31/15 58/29/15
f 57/30/15 60/32/15 59/31/15
f 61/32/16 63/33/16 62/31/16
f 61/32/16 64/34/16 63/33/16
f 65/34/17 67/35/17 66/33/17
f 65/34/17 68/36/17 67/35/17
f 69/36/18 71/37/18 70/35/18
f 69/36/18 72/38/18 71/37/18
f 73/38/19 75/39/19 74/37/19
f 73/38/19 76/40/19 75/39/19
f 77/40/20 79/41/20 78/39/20
f 77/40/20 80/42/20 79/41/20
f 81/42/21 83/43/21 82/41/21
f 81/42/21 84/44/21 83/43/21
f 85/44/22 87/45/22 86/43/22
f 85/44/22 88/46/22 87/45/22
f 89/46/23 91/47/23 90/45/23
f 89/46/23 92/48/23 91/47/23
f 93/48/24 95/49/24 94/47/24
f 93/48/24 96/50/24 95/49/24
f 97/50/25 99/51/25 98/49/25
f 97/50/25 100/52/25 99/51/25
f 101/52/26 103/53/26 102/51/26
f 101/52/26 104/54/26 103/53/26
f 105/54/27 107/55/27 106/53/27
f 105/54/27 108/56/27 107/55/27
f 109/56/28 111/57/28 110/55/28
f 109/56/28 112/58/28 111/57/28
f 113/58/29 115/59/29 114/57/29
f 113/58/29 116/60/29 115/59/29
f 117/60/30 119/61/30 118/59/30
f 117/60/30 120/62/30 119/61/30
f 121/62/31 123/63/31 122/61/31
f 121/62/31 124/64/31 123/63/31
f 125/64/32 127/65/32 126/63/32
f 125/64/32 128/66/32 127/65/32
f 129/1/1 131/3/1 130/2/1
f 129/1/1 132/4/1 131/3/1
f 133/4/2 135/5/2 134/3/2
f 133/4/2 136/6/2 135/5/2
f 137/6/3 139/7/3 138/5/3
f 137/6/3 140/8/3 139/7/3
f 141/8/4 143/9/4 142/7/4
f 141/8/4 144/10/4 143/9/4
f 145/10/5 147/11/5 146/9/5
f 145/10/5 148/12/5 147/11/5
f 149/12/6 151/13/6 150/11/6
f 149/12/6 152/14/6 151/13/6
f 153/14/7 155/15/7 154/13/7
f 153/14/7 156/16/7 155/15/7
f 157/16/8 159/17/8 158/15/8
f 157/16/8 160/18/8 159/17/8
f 161/18/9 163/19/9 162/17/9
f 161/18/9 164/20/9 163/19/9
f 165/20/10 167/21/10 166/19/10
f 165/20/10 168/22/10 167/21/10
f 169/22/11 171/23/11 170/21/11
f 169/22/11 172/24/11 171/23/11
f 173/24/12 175/25/12 174/23/12
f 173/24/12 176/26/12 175/25/12
f 177/26/13 179/27/13 178/25/13
f 177/26/13 180/28/13 179/27/13
f 181/28/14 183/29/14 182/27/14
f 181/28/14 184/30/14 183/29/14
f 185/30/15 187/31/15 186/29/15
f 185/30/15 188/32/15 187/31/15
f 189/32/16 191/33/16 190/31/16
f 189/32/16 192/34/16 191/33/16
f 193/34/17 195/35/17 194/33/17
f 193/34/17 196/36/17 195/35/17
f 197/36/18 199/37/18 198/35/18
f 197/36/18 200/38/18 199/37/18
f 201/38/19 203/39/19 202/37/19
f 201/38/19 204/40/19 203/39/19
f 205/40/20 207/41/20 206/39/20
f 205/40/20 208/42/20 207/41/20
f 209/42/21 211/43/21 210/41/21
f 209/42/21 212/44/21 211/43/21
f 213/44/22 215/45/22 214/43/22
f 213/44/22 216/46/22 215/45/22
f 217/46/23 219/47/23 218/45/23
f 217/46/23 220/48/23 219/47/23
f 221/48/24 223/49/24 222/47/24
f 221/48/24 224/50/24 223/49/24
f 225/50/25 227/51/25 226/49/25
f 225/50/25 228/52/25 227/51/25
f 229/52/26 231/53/26 230/51/26
f 229/52/26 232/54/26 231/53/26
f 233/54/27 235/55/27 234/53/27
f 233/54/27 236/56/27 235/55/27
f 237/56/28 239/57/28 238/55/28
f 237/56/28 240/58/28 239/57/28
f 241/58/29 243/59/29 242/57/29
f 241/58/29 244/60/29 243/59/29
f 245/60/30 247/61/30 246/59/30
f 245/60/30 248/62/30 247/61/30
f 249/62/31 251/63/31 250/61/31
f 249/62/31 252/64/31 251/63/31
f 253/64/32 255/65/32 254/63/32
f 253/64/32 256/66/32 255/65/32
f 267/67/33 266/69/33 265/68/33
f 265/68/33 268/70/33 267/67/33
f 265/68/33 264/71/33 268/70/33
f 264/71/33 269/72/33 268/70/33
f 264/71/33 263/73/33 269/72/33
f 263/73/33 270/74/33 269/72/33
f 263/73/33 262/75/33 270/74/33
f 262/75/33 271/76/33 270/74/33
f 262/75/33 261/77/33 271/76/33
f 261/77/33 272/78/33 271/76/33
f 261/77/33 260/79/33 272/78/33
f 260/79/33 273/80/33 272/78/33
f 260/79/33 259/81/33 273/80/33
f 259/81/33 274/82/33 273/80/33
f 259/81/33 258/83/33 274/82/33
f 258/83/33 275/84/33 274/82/33
f 258/83/33 257/85/33 275/84/33
f 257/85/33 276/86/33 275/84/33
f 257/85/33 288/87/33 276/86/33
f 288/87/33 277/88/33 276/86/33
f 288/87/33 287/89/33 277/88/33
f 287/89/33 278/90/33 277/88/33
f 287/89/33 286/91/33 278/90/33
f 286/91/33 279/92/33 278/90/33
f 286/91/33 285/93/33 279/92/33
f 285/93/33 280/94/33 279/92/33
f 285/93/33 284/95/33 280/94/33
f 284/95/33 281/96/33 280/94/33
f 284/95/33 283/97/33 281/96/33
f 283/97/33 282/98/33 281/96/33
f 314/99/34 313/101/34 312/100/34
f 312/100/34 315/102/34 314/99/34
f 312/100/34 311/103/34 315/102/34
f 311/103/34 316/104/34 315/102/34
f 311/103/34 310/105/34 316/104/34
f 310/105/34 317/106/34 316/104/34
f 310/105/34 309/107/34 317/106/34
f 309/107/34 318/108/34 317/106/34
f 309/107/34 308/109/34 318/108/34
f 308/109/34 319/110/34 318/108/34
f 308/109/34 307/111/34 319/110/34
f 307/111/34 320/112/34 319/110/34
f 307/111/34 306/113/34 320/112/34
f 306/113/34 289/114/34 320/112/34
f 306/113/34 305/115/34 289/114/34
f 305/115/34 290/116/34 289/114/34
f 305/115/34 304/117/34 290/116/34
f 304/117/34 291/118/34 290/116/34
f 304/117/34 303/119/34 291/118/34
f 303/119/34 292/120/34 291/118/34
f 303/119/34 302/121/34 292/120/34
f 302/121/34 293/122/34 292/120/34
f 302/121/34 301/123/34 293/122/34
f 301/123/34 294/124/34 293/122/34
f 301/123/34 300/125/34 294/124/34
f 300/125/34 295/126/34 294/124/34
f 300/125/34 299/127/34 295/126/34
f 299/127/34 296/128/34 295/126/34
f 299/127/34 298/129/34 296/128/34
f 298/129/34 297/130/34 296/128/34
f 331/67/33 330/69/33 329/68/33
f 329/68/33 332/70/33 331/67/33
f 329/68/33 328/71/33 332/70/33
f 328/71/33 333/72/33 332/70/33
f 328/71/33 327/73/33 333/72/33
f 327/73/33 334/74/33 333/72/33
f 327/73/33 326/75/33 334/74/33
f 326/75/33 335/76/33 334/74/33
f 326/75/33 325/77/33 335/76/33
f 325/77/33 336/78/33 335/76/33
f 325/77/33 324/79/33 336/78/33
f 324/79/33 337/80/33 336/78/33
f 324/79/33 323/81/33 337/80/33
f 323/81/33 338/82/33 337/80/33
f 323/81/33 322/83/33 338/82/33
f 322/83/33 339/84/33 338/82/33
f 322/83/33 321/85/33 339/84/33
f 321/85/33 340/86/33 339/84/33
f 321/85/33 352/87/33 340/86/33
f 352/87/33 341/88/33 340/86/33
f 352/87/33 351/89/33 341/88/33
f 351/89/33 342/90/33 341/88/33
f 351/89/33 350/91/33 342/90/33
f 350/91/33 343/92/33 342/90/33
f 350/91/33 349/93/33 343/92/33
f 349/93/33 344/94/33 343/92/33
f 349/93/33 348/95/33 344/94/33
f 348/95/33 345/96/33 344/94/33
f 348/95/33 347/97/33 345/96/33
f 347/97/33 346/98/33 345/96/33
f 378/99/34 377/101/34 376/100/34
f 376/100/34 379/102/34 378/99/34
f 376/100/34 375/103/34 379/102/34
f 375/103/34 380/104/34 379/102/34
f 375/103/34 374/105/34 380/104/34
f 374/105/34 381/106/34 380/104/34
f 374/105/34 373/107/34 381/106/34
f 373/107/34 382/108/34 381/106/34
f 373/107/34 372/109/34 382/108/34
f 372/109/34 383/110/34 382/108/34
f 372/109/34 371/111/34 383/110/34
f 371/111/34 384/112/34 383/110/34
f 371/111/34 370/113/34 384/112/34
f 370/113/34 353/114/34 384/112/34
f 370/113/34 369/115/34 353/114/34
f 369/115/34 354/116/34 353/114/34
f 369/115/34 368/117/34 354/116/34
f 368/117/34 355/118/34 354/116/34
f 368/117/34 367/119/34 355/118/34
f 367/119/34 356/120/34 355/118/34
f 367/119/34 366/121/34 356/120/34
f 366/121/34 357/122/34 356/120/34
f 366/121/34 365/123/34 357/122/34
f 365/123/34 358/124/34 357/122/34
f 365/123/34 364/125/34 358/124/34
f 364/125/34 359/126/34 358/124/34
f 364/125/34 363/127/34 359/126/34
f 363/127/34 360/128/34 359/126/34
f 363/127/34 362/129/34 360/128/34
f 362/129/34 361/130/34 360/128/34
