# Blender 5.2.0 LTS
# www.blender.org
mtllib Plane_007.mtl
o Plane.007_Material.012_0
v -0.029609 0.006424 -0.000010
v -0.029609 -0.006426 -0.000010
v -0.029038 -0.006426 -0.005786
v -0.029038 0.006424 -0.005786
v -0.029038 0.006424 -0.005786
v -0.029038 -0.006426 -0.005786
v -0.027351 -0.006426 -0.011340
v -0.027352 0.006424 -0.011340
v -0.027352 0.006424 -0.011340
v -0.027351 -0.006426 -0.011340
v -0.024613 -0.006426 -0.016458
v -0.024614 0.006424 -0.016458
v -0.024614 0.006424 -0.016458
v -0.024613 -0.006426 -0.016458
v -0.020929 -0.006426 -0.020944
v -0.020930 0.006424 -0.020944
v -0.020930 0.006424 -0.020944
v -0.020929 -0.006426 -0.020944
v -0.016441 -0.006426 -0.024624
v -0.016442 0.006424 -0.024624
v -0.016442 0.006424 -0.024624
v -0.016441 -0.006426 -0.024624
v -0.011321 -0.006426 -0.027359
v -0.011322 0.006425 -0.027359
v -0.011322 0.006425 -0.027359
v -0.011321 -0.006426 -0.027359
v -0.005766 -0.006425 -0.029042
v -0.005767 0.006425 -0.029042
v -0.005767 0.006425 -0.029042
v -0.005766 -0.006425 -0.029042
v 0.000010 -0.006425 -0.029609
v 0.000010 0.006425 -0.029609
v 0.000010 0.006425 -0.029609
v 0.000010 -0.006425 -0.029609
v 0.005786 -0.006425 -0.029038
v 0.005786 0.006425 -0.029038
v 0.005786 0.006425 -0.029038
v 0.005786 -0.006425 -0.029038
v 0.011340 -0.006425 -0.027351
v 0.011340 0.006426 -0.027351
v 0.011340 0.006426 -0.027351
v 0.011340 -0.006425 -0.027351
v 0.016458 -0.006424 -0.024613
v 0.016458 0.006426 -0.024613
v 0.016458 0.006426 -0.024613
v 0.016458 -0.006424 -0.024613
v 0.020944 -0.006424 -0.020930
v 0.020943 0.006426 -0.020930
v 0.020943 0.006426 -0.020930
v 0.020944 -0.006424 -0.020930
v 0.024625 -0.006424 -0.016442
v 0.024624 0.006426 -0.016442
v 0.024624 0.006426 -0.016442
v 0.024625 -0.006424 -0.016442
v 0.027359 -0.006424 -0.011322
v 0.027359 0.006426 -0.011322
v 0.027359 0.006426 -0.011322
v 0.027359 -0.006424 -0.011322
v 0.029042 -0.006424 -0.005767
v 0.029042 0.006426 -0.005767
v 0.029042 0.006426 -0.005767
v 0.029042 -0.006424 -0.005767
v 0.029609 -0.006424 0.000010
v 0.029609 0.006426 0.000010
v 0.029609 0.006426 0.000010
v 0.029609 -0.006424 0.000010
v 0.029038 -0.006424 0.005786
v 0.029038 0.006426 0.005786
v 0.029038 0.006426 0.005786
v 0.029038 -0.006424 0.005786
v 0.027352 -0.006424 0.011340
v 0.027351 0.006426 0.011340
v 0.027351 0.006426 0.011340
v 0.027352 -0.006424 0.011340
v 0.024614 -0.006424 0.016458
v 0.024613 0.006426 0.016458
v 0.024613 0.006426 0.016458
v 0.024614 -0.006424 0.016458
v 0.020930 -0.006424 0.020944
v 0.020929 0.006426 0.020944
v 0.020929 0.006426 0.020944
v 0.020930 -0.006424 0.020944
v 0.016442 -0.006424 0.024624
v 0.016441 0.006426 0.024624
v 0.016441 0.006426 0.024624
v 0.016442 -0.006424 0.024624
v 0.011322 -0.006425 0.027359
v 0.011321 0.006426 0.027359
v 0.011321 0.006426 0.027359
v 0.011322 -0.006425 0.027359
v 0.005767 -0.006425 0.029042
v 0.005766 0.006425 0.029042
v 0.005766 0.006425 0.029042
v 0.005767 -0.006425 0.029042
v -0.000010 -0.006425 0.029609
v -0.000010 0.006425 0.029609
v -0.000010 0.006425 0.029609
v -0.000010 -0.006425 0.029609
v -0.005786 -0.006425 0.029038
v -0.005786 0.006425 0.029038
v -0.005786 0.006425 0.029038
v -0.005786 -0.006425 0.029038
v -0.011340 -0.006426 0.027351
v -0.011340 0.006425 0.027351
v -0.011340 0.006425 0.027351
v -0.011340 -0.006426 0.027351
v -0.016458 -0.006426 0.024613
v -0.016458 0.006424 0.024613
v -0.016458 0.006424 0.024613
v -0.016458 -0.006426 0.024613
v -0.020943 -0.006426 0.020930
v -0.020944 0.006424 0.020930
v -0.020944 0.006424 0.020930
v -0.020943 -0.006426 0.020930
v -0.024624 -0.006426 0.016442
v -0.024625 0.006424 0.016442
v -0.024625 0.006424 0.016442
v -0.024624 -0.006426 0.016442
v -0.027359 -0.006426 0.011322
v -0.027359 0.006424 0.011322
v -0.027359 0.006424 0.011322
v -0.027359 -0.006426 0.011322
v -0.029042 -0.006426 0.005767
v -0.029042 0.006424 0.005767
v -0.029042 0.006424 0.005767
v -0.029042 -0.006426 0.005767
v -0.029609 -0.006426 -0.000010
v -0.029609 0.006424 -0.000010
v -0.029038 -0.006426 -0.005786
v -0.029609 -0.006426 -0.000010
v -0.029042 -0.006426 0.005767
v -0.027359 -0.006426 0.011322
v -0.024624 -0.006426 0.016442
v -0.020943 -0.006426 0.020930
v -0.016458 -0.006426 0.024613
v -0.011340 -0.006426 0.027351
v -0.005786 -0.006425 0.029038
v -0.000010 -0.006425 0.029609
v 0.005767 -0.006425 0.029042
v 0.011322 -0.006425 0.027359
v 0.016442 -0.006424 0.024624
v 0.020930 -0.006424 0.020944
v 0.024614 -0.006424 0.016458
v 0.027352 -0.006424 0.011340
v 0.029038 -0.006424 0.005786
v 0.029609 -0.006424 0.000010
v 0.029042 -0.006424 -0.005767
v 0.027359 -0.006424 -0.011322
v 0.024625 -0.006424 -0.016442
v 0.020944 -0.006424 -0.020930
v 0.016458 -0.006424 -0.024613
v 0.011340 -0.006425 -0.027351
v 0.005786 -0.006425 -0.029038
v 0.000010 -0.006425 -0.029609
v -0.005766 -0.006425 -0.029042
v -0.011321 -0.006426 -0.027359
v -0.016441 -0.006426 -0.024624
v -0.020929 -0.006426 -0.020944
v -0.024613 -0.006426 -0.016458
v -0.027351 -0.006426 -0.011340
v -0.029609 0.006424 -0.000010
v -0.029038 0.006424 -0.005786
v -0.027352 0.006424 -0.011340
v -0.024614 0.006424 -0.016458
v -0.020930 0.006424 -0.020944
v -0.016442 0.006424 -0.024624
v -0.011322 0.006425 -0.027359
v -0.005767 0.006425 -0.029042
v 0.000010 0.006425 -0.029609
v 0.005786 0.006425 -0.029038
v 0.011340 0.006426 -0.027351
v 0.016458 0.006426 -0.024613
v 0.020943 0.006426 -0.020930
v 0.024624 0.006426 -0.016442
v 0.027359 0.006426 -0.011322
v 0.029042 0.006426 -0.005767
v 0.029609 0.006426 0.000010
v 0.029038 0.006426 0.005786
v 0.027351 0.006426 0.011340
v 0.024613 0.006426 0.016458
v 0.020929 0.006426 0.020944
v 0.016441 0.006426 0.024624
v 0.011321 0.006426 0.027359
v 0.005766 0.006425 0.029042
v -0.000010 0.006425 0.029609
v -0.005786 0.006425 0.029038
v -0.011340 0.006425 0.027351
v -0.016458 0.006424 0.024613
v -0.020944 0.006424 0.020930
v -0.024625 0.006424 0.016442
v -0.027359 0.006424 0.011322
v -0.029042 0.006424 0.005767
vn 0.9952 -0.0000 0.0984
vn 0.9568 -0.0000 0.2906
vn 0.8818 -0.0000 0.4717
vn 0.7728 -0.0000 0.6347
vn 0.6341 -0.0000 0.7732
vn 0.4711 -0.0000 0.8821
vn 0.2900 -0.0000 0.9570
vn 0.0977 -0.0000 0.9952
vn -0.0984 -0.0000 0.9952
vn -0.2906 -0.0000 0.9568
vn -0.4717 -0.0000 0.8818
vn -0.6347 -0.0000 0.7728
vn -0.7732 -0.0000 0.6341
vn -0.8821 -0.0000 0.4711
vn -0.9570 -0.0000 0.2900
vn -0.9952 -0.0000 0.0977
vn -0.9952 -0.0000 -0.0984
vn -0.9568 -0.0000 -0.2906
vn -0.8818 -0.0000 -0.4717
vn -0.7728 -0.0000 -0.6347
vn -0.6341 -0.0000 -0.7732
vn -0.4711 -0.0000 -0.8821
vn -0.2900 -0.0000 -0.9570
vn -0.0977 -0.0000 -0.9952
vn 0.0984 -0.0000 -0.9952
vn 0.2906 -0.0000 -0.9568
vn 0.4717 -0.0000 -0.8818
vn 0.6347 -0.0000 -0.7728
vn 0.7732 -0.0000 -0.6341
vn 0.8821 -0.0000 -0.4711
vn 0.9570 -0.0000 -0.2900
vn 0.9952 -0.0000 -0.0977
vn -0.0000 1.0000 -0.0000
vn -0.0000 -1.0000 -0.0000
vt 1.000000 0.500000
vt 1.000000 0.000000
vt 0.968750 0.000000
vt 0.968750 0.500000
vt 0.937500 0.000000
vt 0.937500 0.500000
vt 0.906250 0.000000
vt 0.906250 0.500000
vt 0.875000 0.000000
vt 0.875000 0.500000
vt 0.843750 0.000000
vt 0.843750 0.500000
vt 0.812500 0.000000
vt 0.812500 0.500000
vt 0.781250 0.000000
vt 0.781250 0.500000
vt 0.750000 0.000000
vt 0.750000 0.500000
vt 0.718750 0.000000
vt 0.718750 0.500000
vt 0.687500 0.000000
vt 0.687500 0.500000
vt 0.656250 0.000000
vt 0.656250 0.500000
vt 0.625000 0.000000
vt 0.625000 0.500000
vt 0.593750 0.000000
vt 0.593750 0.500000
vt 0.562500 0.000000
vt 0.562500 0.500000
vt 0.531250 0.000000
vt 0.531250 0.500000
vt 0.500000 0.000000
vt 0.500000 0.500000
vt 0.468750 0.000000
vt 0.468750 0.500000
vt 0.437500 0.000000
vt 0.437500 0.500000
vt 0.406250 0.000000
vt 0.406250 0.500000
vt 0.375000 0.000000
vt 0.375000 0.500000
vt 0.343750 0.000000
vt 0.343750 0.500000
vt 0.312500 0.000000
vt 0.312500 0.500000
vt 0.281250 0.000000
vt 0.281250 0.500000
vt 0.250000 0.000000
vt 0.250000 0.500000
vt 0.218750 0.000000
vt 0.218750 0.500000
vt 0.187500 0.000000
vt 0.187500 0.500000
vt 0.156250 0.000000
vt 0.156250 0.500000
vt 0.125000 0.000000
vt 0.125000 0.500000
vt 0.093750 0.000000
vt 0.093750 0.500000
vt 0.062500 0.000000
vt 0.062500 0.500000
vt 0.031250 0.000000
vt 0.031250 0.500000
vt 0.000000 0.000000
vt 0.000000 0.500000
vt 0.296822 0.985388
vt 0.203178 0.985388
vt 0.250000 0.990000
vt 0.341844 0.971731
vt 0.158156 0.971731
vt 0.383337 0.949553
vt 0.116663 0.949553
vt 0.419706 0.919706
vt 0.080294 0.919706
vt 0.449553 0.883337
vt 0.050447 0.883337
vt 0.471731 0.841844
vt 0.028269 0.841844
vt 0.485388 0.796822
vt 0.014612 0.796822
vt 0.490000 0.750000
vt 0.010000 0.750000
vt 0.485388 0.703178
vt 0.014612 0.703178
vt 0.471731 0.658156
vt 0.028269 0.658156
vt 0.449553 0.616663
vt 0.050447 0.616663
vt 0.419706 0.580294
vt 0.080294 0.580294
vt 0.383337 0.550447
vt 0.116663 0.550447
vt 0.341844 0.528269
vt 0.158156 0.528269
vt 0.296822 0.514612
vt 0.203178 0.514612
vt 0.250000 0.510000
vt 0.703178 0.985388
vt 0.796822 0.985388
vt 0.750000 0.990000
vt 0.658156 0.971731
vt 0.841844 0.971731
vt 0.616663 0.949553
vt 0.883337 0.949553
vt 0.580294 0.919706
vt 0.919706 0.919706
vt 0.550447 0.883337
vt 0.949553 0.883337
vt 0.528269 0.841844
vt 0.971731 0.841844
vt 0.514612 0.796822
vt 0.985388 0.796822
vt 0.510000 0.750000
vt 0.990000 0.750000
vt 0.514612 0.703178
vt 0.985388 0.703178
vt 0.528269 0.658156
vt 0.971731 0.658156
vt 0.550447 0.616663
vt 0.949553 0.616663
vt 0.580294 0.580294
vt 0.919706 0.580294
vt 0.616663 0.550447
vt 0.883337 0.550447
vt 0.658156 0.528269
vt 0.841844 0.528269
vt 0.703178 0.514612
vt 0.796822 0.514612
vt 0.750000 0.510000
s 0
usemtl Material.012
f 1/1/1 2/2/1 3/3/1
f 1/1/1 3/3/1 4/4/1
f 5/4/2 6/3/2 7/5/2
f 5/4/2 7/5/2 8/6/2
f 9/6/3 10/5/3 11/7/3
f 9/6/3 11/7/3 12/8/3
f 13/8/4 14/7/4 15/9/4
f 13/8/4 15/9/4 16/10/4
f 17/10/5 18/9/5 19/11/5
f 17/10/5 19/11/5 20/12/5
f 21/12/6 22/11/6 23/13/6
f 21/12/6 23/13/6 24/14/6
f 25/14/7 26/13/7 27/15/7
f 25/14/7 27/15/7 28/16/7
f 29/16/8 30/15/8 31/17/8
f 29/16/8 31/17/8 32/18/8
f 33/18/9 34/17/9 35/19/9
f 33/18/9 35/19/9 36/20/9
f 37/20/10 38/19/10 39/21/10
f 37/20/10 39/21/10 40/22/10
f 41/22/11 42/21/11 43/23/11
f 41/22/11 43/23/11 44/24/11
f 45/24/12 46/23/12 47/25/12
f 45/24/12 47/25/12 48/26/12
f 49/26/13 50/25/13 51/27/13
f 49/26/13 51/27/13 52/28/13
f 53/28/14 54/27/14 55/29/14
f 53/28/14 55/29/14 56/30/14
s 1
f 57/30/15 58/29/15 59/31/15
s 0
f 57/30/15 59/31/15 60/32/15
f 61/32/16 62/31/16 63/33/16
f 61/32/16 63/33/16 64/34/16
f 65/34/17 66/33/17 67/35/17
f 65/34/17 67/35/17 68/36/17
f 69/36/18 70/35/18 71/37/18
f 69/36/18 71/37/18 72/38/18
f 73/38/19 74/37/19 75/39/19
f 73/38/19 75/39/19 76/40/19
f 77/40/20 78/39/20 79/41/20
f 77/40/20 79/41/20 80/42/20
f 81/42/21 82/41/21 83/43/21
f 81/42/21 83/43/21 84/44/21
f 85/44/22 86/43/22 87/45/22
f 85/44/22 87/45/22 88/46/22
f 89/46/23 90/45/23 91/47/23
f 89/46/23 91/47/23 92/48/23
f 93/48/24 94/47/24 95/49/24
f 93/48/24 95/49/24 96/50/24
f 97/50/25 98/49/25 99/51/25
f 97/50/25 99/51/25 100/52/25
f 101/52/26 102/51/26 103/53/26
f 101/52/26 103/53/26 104/54/26
f 105/54/27 106/53/27 107/55/27
f 105/54/27 107/55/27 108/56/27
f 109/56/28 110/55/28 111/57/28
f 109/56/28 111/57/28 112/58/28
f 113/58/29 114/57/29 115/59/29
f 113/58/29 115/59/29 116/60/29
f 117/60/30 118/59/30 119/61/30
f 117/60/30 119/61/30 120/62/30
f 121/62/31 122/61/31 123/63/31
f 121/62/31 123/63/31 124/64/31
f 125/64/32 126/63/32 127/65/32
f 125/64/32 127/65/32 128/66/32
f 147/67/33 145/68/33 146/69/33
f 145/68/33 147/67/33 148/70/33
f 145/68/33 148/70/33 144/71/33
f 144/71/33 148/70/33 149/72/33
f 144/71/33 149/72/33 143/73/33
f 143/73/33 149/72/33 150/74/33
f 143/73/33 150/74/33 142/75/33
f 142/75/33 150/74/33 151/76/33
f 142/75/33 151/76/33 141/77/33
f 141/77/33 151/76/33 152/78/33
f 141/77/33 152/78/33 140/79/33
f 140/79/33 152/78/33 153/80/33
f 140/79/33 153/80/33 139/81/33
f 139/81/33 153/80/33 154/82/33
f 139/81/33 154/82/33 138/83/33
f 138/83/33 154/82/33 155/84/33
f 138/83/33 155/84/33 137/85/33
f 137/85/33 155/84/33 156/86/33
f 137/85/33 156/86/33 136/87/33
f 136/87/33 156/86/33 157/88/33
f 136/87/33 157/88/33 135/89/33
f 135/89/33 157/88/33 158/90/33
f 135/89/33 158/90/33 134/91/33
f 134/91/33 158/90/33 159/92/33
f 134/91/33 159/92/33 133/93/33
f 133/93/33 159/92/33 160/94/33
f 133/93/33 160/94/33 132/95/33
f 132/95/33 160/94/33 129/96/33
f 132/95/33 129/96/33 131/97/33
f 131/97/33 129/96/33 130/98/33
f 178/99/34 176/100/34 177/101/34
f 176/100/34 178/99/34 179/102/34
f 176/100/34 179/102/34 175/103/34
f 175/103/34 179/102/34 180/104/34
f 175/103/34 180/104/34 174/105/34
f 174/105/34 180/104/34 181/106/34
f 174/105/34 181/106/34 173/107/34
f 173/107/34 181/106/34 182/108/34
f 173/107/34 182/108/34 172/109/34
f 172/109/34 182/108/34 183/110/34
f 172/109/34 183/110/34 171/111/34
f 171/111/34 183/110/34 184/112/34
f 171/111/34 184/112/34 170/113/34
f 170/113/34 184/112/34 185/114/34
f 170/113/34 185/114/34 169/115/34
f 169/115/34 185/114/34 186/116/34
f 169/115/34 186/116/34 168/117/34
f 168/117/34 186/116/34 187/118/34
f 168/117/34 187/118/34 167/119/34
f 167/119/34 187/118/34 188/120/34
f 167/119/34 188/120/34 166/121/34
f 166/121/34 188/120/34 189/122/34
f 166/121/34 189/122/34 165/123/34
f 165/123/34 189/122/34 190/124/34
f 165/123/34 190/124/34 164/125/34
f 164/125/34 190/124/34 191/126/34
f 164/125/34 191/126/34 163/127/34
f 163/127/34 191/126/34 192/128/34
f 163/127/34 192/128/34 162/129/34
f 162/129/34 192/128/34 161/130/34
