# Blender 5.2.0 LTS
# www.blender.org
mtllib Plane_006.mtl
o Plane.006_Material.010_0
v 0.063597 0.053122 -0.055841
v 0.066872 0.098397 -0.061225
v 0.054022 0.076291 -0.040099
v 0.049894 0.036519 -0.033313
v 0.066334 -0.083490 -0.060340
v 0.063912 0.007847 -0.056358
v 0.047382 -0.003254 -0.029183
v 0.047021 -0.083490 -0.028590
v 0.058722 0.053122 -0.058806
v 0.045019 0.036519 -0.036278
v 0.049147 0.076291 -0.043065
v 0.061997 0.098397 -0.064191
v 0.061459 -0.083490 -0.063305
v 0.042147 -0.083490 -0.031556
v 0.042507 -0.003254 -0.032148
v 0.059037 0.007847 -0.059323
v -0.111531 0.047561 -0.024740
v -0.123717 0.091618 -0.024740
v -0.096304 0.072946 -0.024740
v -0.083213 0.034559 -0.024740
v -0.098833 -0.088562 -0.024740
v -0.106193 0.002597 -0.024740
v -0.073204 -0.004236 -0.024740
v -0.061993 -0.083688 -0.024740
v -0.111531 0.047561 -0.019034
v -0.083213 0.034559 -0.019034
v -0.096304 0.072946 -0.019034
v -0.123717 0.091618 -0.019034
v -0.098833 -0.088562 -0.019034
v -0.061993 -0.083688 -0.019034
v -0.073204 -0.004236 -0.019034
v -0.106193 0.002597 -0.019034
v 0.022319 0.053122 0.093259
v 0.021809 0.098397 0.099541
v 0.023811 0.076291 0.074895
v 0.024455 0.036519 0.066978
v 0.021893 -0.083490 0.098508
v 0.022270 0.007847 0.093863
v 0.024846 -0.003254 0.062160
v 0.024902 -0.083490 0.061469
v 0.028006 0.053122 0.093721
v 0.030142 0.036519 0.067440
v 0.029498 0.076291 0.075357
v 0.027496 0.098397 0.100003
v 0.027580 -0.083490 0.098971
v 0.030589 -0.083490 0.061931
v 0.030533 -0.003254 0.062622
v 0.027957 0.007847 0.094325
v -0.000811 0.018753 -0.081231
v -0.000069 0.053784 -0.086051
v -0.002979 0.036680 -0.067141
v -0.003913 0.005906 -0.061067
v -0.000191 -0.086949 -0.085258
v -0.000740 -0.016278 -0.081694
v -0.004482 -0.024867 -0.057370
v -0.004564 -0.086949 -0.056839
v -0.005174 0.018753 -0.081902
v -0.008277 0.005906 -0.061738
v -0.007342 0.036680 -0.067812
v -0.004433 0.053784 -0.086722
v -0.004555 -0.086949 -0.085930
v -0.008927 -0.086949 -0.057511
v -0.008845 -0.024867 -0.058041
v -0.005103 -0.016278 -0.082365
v 0.110185 0.011860 0.021582
v 0.126429 0.046441 0.020282
v 0.101761 0.034826 0.025383
v 0.085632 0.005033 0.027021
v 0.079945 -0.098397 0.020496
v 0.099282 -0.024403 0.021457
v 0.071906 -0.025517 0.028018
v 0.051218 -0.089352 0.028162
v 0.109063 0.012213 0.016958
v 0.084509 0.005386 0.022397
v 0.100639 0.035179 0.020758
v 0.125306 0.046795 0.015658
v 0.078823 -0.098044 0.015871
v 0.050095 -0.088999 0.023537
v 0.070783 -0.025163 0.023394
v 0.098160 -0.024050 0.016833
v 0.011243 -0.006557 0.003891
v 0.004836 0.019705 0.002231
v 0.029972 0.006882 0.008744
v 0.038046 -0.016188 0.010836
v 0.005889 -0.085800 0.002504
v 0.010627 -0.032819 0.003731
v 0.042960 -0.039259 0.012110
v 0.043665 -0.085800 0.012293
v 0.009740 -0.006557 0.009691
v 0.036543 -0.016188 0.016636
v 0.028469 0.006882 0.014544
v 0.003333 0.019705 0.008031
v 0.004386 -0.085800 0.008304
v 0.042163 -0.085800 0.018093
v 0.041457 -0.039259 0.017910
v 0.009124 -0.032819 0.009531
v -0.053734 -0.000983 0.058348
v -0.062110 0.029120 0.062511
v -0.046517 0.016744 0.051249
v -0.037880 -0.009442 0.046566
v -0.041361 -0.094417 0.056139
v -0.049028 -0.031826 0.057130
v -0.030895 -0.035961 0.043209
v -0.021616 -0.090432 0.040297
v -0.051307 -0.000734 0.061435
v -0.035454 -0.009194 0.049653
v -0.044091 0.016992 0.054336
v -0.059684 0.029368 0.065598
v -0.038934 -0.094169 0.059226
v -0.019189 -0.090183 0.043384
v -0.028468 -0.035713 0.046296
v -0.046601 -0.031577 0.060217
v -0.024830 0.020946 -0.006929
v -0.027575 0.058056 -0.002553
v -0.016805 0.039936 -0.019722
v -0.013345 0.007337 -0.025237
v -0.027124 -0.091030 -0.003272
v -0.025094 -0.016164 -0.006508
v -0.011239 -0.025263 -0.028594
v -0.010937 -0.091030 -0.029075
v -0.020868 0.020946 -0.004443
v -0.009383 0.007337 -0.022752
v -0.012843 0.039936 -0.017237
v -0.023613 0.058056 -0.000067
v -0.023162 -0.091030 -0.000787
v -0.006975 -0.091030 -0.026590
v -0.007278 -0.025263 -0.026108
v -0.021132 -0.016164 -0.004023
vn 0.9765 -0.0430 -0.2111
vn 0.6706 0.7399 -0.0538
vn 0.2030 0.3803 0.9023
vn 0.2298 0.1133 0.9666
vn 0.7993 -0.5637 -0.2082
vn 0.9728 0.0226 -0.2305
vn 0.2205 0.0466 0.9743
vn 0.1914 -0.5751 0.7954
vn -0.2616 -0.0430 -0.9642
vn -0.9640 0.1133 0.2405
vn -0.8946 0.3803 0.2347
vn -0.2606 0.7399 -0.6202
vn -0.1827 -0.5637 -0.8055
vn -0.7943 -0.5751 0.1958
vn -0.9665 0.0466 0.2522
vn -0.2427 0.0226 -0.9698
vn -0.6763 -0.1329 -0.7246
vn -0.4881 0.6817 -0.5450
vn 0.6098 0.4643 -0.6423
vn 0.6855 0.2050 -0.6986
vn -0.5142 -0.6367 -0.5747
vn -0.6994 -0.0697 -0.7114
vn 0.7055 0.1403 -0.6947
vn 0.6505 -0.4940 -0.5769
vn -0.6763 -0.1329 0.7246
vn 0.6855 0.2050 0.6986
vn 0.6098 0.4643 0.6423
vn -0.4881 0.6817 0.5450
vn -0.5142 -0.6367 0.5747
vn 0.6505 -0.4940 0.5769
vn 0.7055 0.1403 0.6947
vn -0.6994 -0.0697 0.7114
vn -0.7779 -0.0430 0.6269
vn -0.5751 0.7399 0.3490
vn -0.5863 0.3803 -0.7153
vn -0.6391 0.1133 -0.7607
vn -0.6209 -0.5637 0.5447
vn -0.7659 0.0226 0.6426
vn -0.6343 0.0466 -0.7717
vn -0.5280 -0.5751 -0.6249
vn 0.6665 -0.0430 0.7443
vn 0.7536 0.1133 -0.6475
vn 0.6941 0.3803 -0.6112
vn 0.5112 0.7399 0.4373
vn 0.5248 -0.5637 0.6378
vn 0.6220 -0.5751 -0.5314
vn 0.7505 0.0466 -0.6592
vn 0.6521 0.0226 0.7578
vn 0.8207 -0.0430 -0.5697
vn 0.5986 0.7399 -0.3070
vn 0.5336 0.3803 0.7554
vn 0.5831 0.1133 0.8045
vn 0.6582 -0.5637 -0.4989
vn 0.8099 0.0226 -0.5861
vn 0.5775 0.0466 0.8151
vn 0.4820 -0.5751 0.6611
vn -0.6115 -0.0430 -0.7900
vn -0.7980 0.1133 0.5920
vn -0.7360 0.3803 0.5600
vn -0.4786 0.7399 -0.4728
vn -0.4778 -0.5637 -0.6737
vn -0.6584 -0.5751 0.4856
vn -0.7958 0.0466 0.6038
vn -0.5963 0.0226 -0.8025
vn 0.7934 -0.2949 0.5325
vn 0.7150 0.5505 0.4308
vn -0.3498 0.5088 0.7866
vn -0.4546 0.2619 0.8513
vn 0.5143 -0.7529 0.4106
vn 0.8235 -0.2356 0.5161
vn -0.4861 0.2019 0.8503
vn -0.5732 -0.4224 0.7022
vn 0.4524 -0.1876 -0.8719
vn -0.7834 0.3654 -0.5028
vn -0.6520 0.6040 -0.4583
vn 0.4586 0.6313 -0.6254
vn 0.2439 -0.6678 -0.7033
vn -0.8446 -0.3370 -0.4160
vn -0.8130 0.3048 -0.4962
vn 0.4888 -0.1302 -0.8627
vn -0.4630 -0.0749 -0.8832
vn -0.3707 0.6502 -0.6632
vn 0.7178 0.5166 -0.4668
vn 0.8444 0.2005 -0.4968
vn -0.4427 -0.5524 -0.7063
vn -0.4965 0.0407 -0.8671
vn 0.8722 0.0844 -0.4818
vn 0.7083 -0.5732 -0.4120
vn -0.8336 -0.0749 0.5472
vn 0.4968 0.2005 0.8444
vn 0.4008 0.5166 0.7567
vn -0.6462 0.6501 0.3998
vn -0.7300 -0.5524 0.4024
vn 0.4190 -0.5732 0.7042
vn 0.5284 0.0844 0.8448
vn -0.8551 0.0407 0.5169
vn -0.9700 -0.1951 -0.1453
vn -0.7592 0.6336 -0.1487
vn 0.0553 0.4378 -0.8973
vn 0.0952 0.1775 -0.9795
vn -0.7208 -0.6843 -0.1108
vn -0.9836 -0.1319 -0.1228
vn 0.1171 0.1137 -0.9866
vn 0.1837 -0.5131 -0.8384
vn -0.0762 -0.1037 0.9917
vn 0.9570 0.2657 0.1168
vn 0.8476 0.5189 0.1106
vn -0.0870 0.7024 0.7064
vn -0.0118 -0.6117 0.7910
vn 0.8954 -0.4403 0.0669
vn 0.9740 0.2014 0.1035
vn -0.1061 -0.0420 0.9935
vn -0.9793 -0.0430 0.1977
vn -0.6713 0.7399 0.0446
vn -0.1905 0.3803 -0.9050
vn -0.2164 0.1133 -0.9697
vn -0.8021 -0.5637 0.1971
vn -0.9759 0.0226 0.2171
vn -0.2070 0.0466 -0.9772
vn -0.1804 -0.5751 -0.7980
vn 0.2483 -0.0430 0.9677
vn 0.9672 0.1133 -0.2272
vn 0.8977 0.3803 -0.2224
vn 0.2520 0.7399 0.6238
vn 0.1716 -0.5637 0.8079
vn 0.7970 -0.5751 -0.1848
vn 0.9699 0.0466 -0.2389
vn 0.2293 0.0226 0.9731
vt 0.000000 0.248918
vt 0.000000 0.000000
vt 1.000000 0.000000
vt 1.000000 0.248918
vt 0.000000 1.000000
vt 0.000000 0.497836
vt 1.000000 0.497836
vt 1.000000 1.000000
s 1
usemtl Material.010
f 1/1/1 2/2/2 3/3/3
f 1/1/1 3/3/3 4/4/4
f 5/5/5 6/6/6 7/7/7
f 5/5/5 7/7/7 8/8/8
f 6/6/6 1/1/1 4/4/4
f 6/6/6 4/4/4 7/7/7
f 9/1/9 10/4/10 11/3/11
f 9/1/9 11/3/11 12/2/12
f 13/5/13 14/8/14 15/7/15
f 13/5/13 15/7/15 16/6/16
f 16/6/16 15/7/15 10/4/10
f 16/6/16 10/4/10 9/1/9
f 6/6/6 5/5/5 13/5/13
f 6/6/6 13/5/13 16/6/16
f 7/7/7 4/4/4 10/4/10
f 7/7/7 10/4/10 15/7/15
f 8/8/8 7/7/7 15/7/15
f 8/8/8 15/7/15 14/8/14
f 3/3/3 2/2/2 12/2/12
f 3/3/3 12/2/12 11/3/11
f 5/5/5 8/8/8 14/8/14
f 5/5/5 14/8/14 13/5/13
f 2/2/2 1/1/1 9/1/9
f 2/2/2 9/1/9 12/2/12
f 1/1/1 6/6/6 16/6/16
f 1/1/1 16/6/16 9/1/9
f 4/4/4 3/3/3 11/3/11
f 4/4/4 11/3/11 10/4/10
f 17/1/17 18/2/18 19/3/19
f 17/1/17 19/3/19 20/4/20
f 21/5/21 22/6/22 23/7/23
f 21/5/21 23/7/23 24/8/24
f 22/6/22 17/1/17 20/4/20
f 22/6/22 20/4/20 23/7/23
f 25/1/25 26/4/26 27/3/27
f 25/1/25 27/3/27 28/2/28
f 29/5/29 30/8/30 31/7/31
f 29/5/29 31/7/31 32/6/32
f 32/6/32 31/7/31 26/4/26
f 32/6/32 26/4/26 25/1/25
f 22/6/22 21/5/21 29/5/29
f 22/6/22 29/5/29 32/6/32
f 23/7/23 20/4/20 26/4/26
f 23/7/23 26/4/26 31/7/31
f 24/8/24 23/7/23 31/7/31
f 24/8/24 31/7/31 30/8/30
f 19/3/19 18/2/18 28/2/28
f 19/3/19 28/2/28 27/3/27
f 21/5/21 24/8/24 30/8/30
f 21/5/21 30/8/30 29/5/29
f 18/2/18 17/1/17 25/1/25
f 18/2/18 25/1/25 28/2/28
f 17/1/17 22/6/22 32/6/32
f 17/1/17 32/6/32 25/1/25
f 20/4/20 19/3/19 27/3/27
f 20/4/20 27/3/27 26/4/26
f 33/1/33 34/2/34 35/3/35
f 33/1/33 35/3/35 36/4/36
f 37/5/37 38/6/38 39/7/39
f 37/5/37 39/7/39 40/8/40
f 38/6/38 33/1/33 36/4/36
f 38/6/38 36/4/36 39/7/39
f 41/1/41 42/4/42 43/3/43
f 41/1/41 43/3/43 44/2/44
f 45/5/45 46/8/46 47/7/47
f 45/5/45 47/7/47 48/6/48
f 48/6/48 47/7/47 42/4/42
f 48/6/48 42/4/42 41/1/41
f 38/6/38 37/5/37 45/5/45
f 38/6/38 45/5/45 48/6/48
f 39/7/39 36/4/36 42/4/42
f 39/7/39 42/4/42 47/7/47
f 40/8/40 39/7/39 47/7/47
f 40/8/40 47/7/47 46/8/46
f 35/3/35 34/2/34 44/2/44
f 35/3/35 44/2/44 43/3/43
f 37/5/37 40/8/40 46/8/46
f 37/5/37 46/8/46 45/5/45
f 34/2/34 33/1/33 41/1/41
f 34/2/34 41/1/41 44/2/44
f 33/1/33 38/6/38 48/6/48
f 33/1/33 48/6/48 41/1/41
f 36/4/36 35/3/35 43/3/43
f 36/4/36 43/3/43 42/4/42
f 49/1/49 50/2/50 51/3/51
f 49/1/49 51/3/51 52/4/52
f 53/5/53 54/6/54 55/7/55
f 53/5/53 55/7/55 56/8/56
f 54/6/54 49/1/49 52/4/52
f 54/6/54 52/4/52 55/7/55
f 57/1/57 58/4/58 59/3/59
f 57/1/57 59/3/59 60/2/60
f 61/5/61 62/8/62 63/7/63
f 61/5/61 63/7/63 64/6/64
f 64/6/64 63/7/63 58/4/58
f 64/6/64 58/4/58 57/1/57
f 54/6/54 53/5/53 61/5/61
f 54/6/54 61/5/61 64/6/64
f 55/7/55 52/4/52 58/4/58
f 55/7/55 58/4/58 63/7/63
f 56/8/56 55/7/55 63/7/63
f 56/8/56 63/7/63 62/8/62
f 51/3/51 50/2/50 60/2/60
f 51/3/51 60/2/60 59/3/59
f 53/5/53 56/8/56 62/8/62
f 53/5/53 62/8/62 61/5/61
f 50/2/50 49/1/49 57/1/57
f 50/2/50 57/1/57 60/2/60
f 49/1/49 54/6/54 64/6/64
f 49/1/49 64/6/64 57/1/57
f 52/4/52 51/3/51 59/3/59
f 52/4/52 59/3/59 58/4/58
f 65/1/65 66/2/66 67/3/67
f 65/1/65 67/3/67 68/4/68
f 69/5/69 70/6/70 71/7/71
f 69/5/69 71/7/71 72/8/72
f 70/6/70 65/1/65 68/4/68
f 70/6/70 68/4/68 71/7/71
f 73/1/73 74/4/74 75/3/75
f 73/1/73 75/3/75 76/2/76
f 77/5/77 78/8/78 79/7/79
f 77/5/77 79/7/79 80/6/80
f 80/6/80 79/7/79 74/4/74
f 80/6/80 74/4/74 73/1/73
f 70/6/70 69/5/69 77/5/77
f 70/6/70 77/5/77 80/6/80
f 71/7/71 68/4/68 74/4/74
f 71/7/71 74/4/74 79/7/79
f 72/8/72 71/7/71 79/7/79
f 72/8/72 79/7/79 78/8/78
f 67/3/67 66/2/66 76/2/76
f 67/3/67 76/2/76 75/3/75
f 69/5/69 72/8/72 78/8/78
f 69/5/69 78/8/78 77/5/77
f 66/2/66 65/1/65 73/1/73
f 66/2/66 73/1/73 76/2/76
f 65/1/65 70/6/70 80/6/80
f 65/1/65 80/6/80 73/1/73
f 68/4/68 67/3/67 75/3/75
f 68/4/68 75/3/75 74/4/74
f 81/1/81 82/2/82 83/3/83
f 81/1/81 83/3/83 84/4/84
f 85/5/85 86/6/86 87/7/87
f 85/5/85 87/7/87 88/8/88
f 86/6/86 81/1/81 84/4/84
f 86/6/86 84/4/84 87/7/87
f 89/1/89 90/4/90 91/3/91
f 89/1/89 91/3/91 92/2/92
f 93/5/93 94/8/94 95/7/95
f 93/5/93 95/7/95 96/6/96
f 96/6/96 95/7/95 90/4/90
f 96/6/96 90/4/90 89/1/89
f 86/6/86 85/5/85 93/5/93
f 86/6/86 93/5/93 96/6/96
f 87/7/87 84/4/84 90/4/90
f 87/7/87 90/4/90 95/7/95
f 88/8/88 87/7/87 95/7/95
f 88/8/88 95/7/95 94/8/94
f 83/3/83 82/2/82 92/2/92
f 83/3/83 92/2/92 91/3/91
f 85/5/85 88/8/88 94/8/94
f 85/5/85 94/8/94 93/5/93
f 82/2/82 81/1/81 89/1/89
f 82/2/82 89/1/89 92/2/92
f 81/1/81 86/6/86 96/6/96
f 81/1/81 96/6/96 89/1/89
f 84/4/84 83/3/83 91/3/91
f 84/4/84 91/3/91 90/4/90
f 97/1/97 98/2/98 99/3/99
f 97/1/97 99/3/99 100/4/100
f 101/5/101 102/6/102 103/7/103
f 101/5/101 103/7/103 104/8/104
f 102/6/102 97/1/97 100/4/100
f 102/6/102 100/4/100 103/7/103
f 105/1/105 106/4/106 107/3/107
f 105/1/105 107/3/107 108/2/108
f 109/5/109 110/8/110 111/7/111
f 109/5/109 111/7/111 112/6/112
f 112/6/112 111/7/111 106/4/106
f 112/6/112 106/4/106 105/1/105
f 102/6/102 101/5/101 109/5/109
f 102/6/102 109/5/109 112/6/112
f 103/7/103 100/4/100 106/4/106
f 103/7/103 106/4/106 111/7/111
f 104/8/104 103/7/103 111/7/111
f 104/8/104 111/7/111 110/8/110
f 99/3/99 98/2/98 108/2/108
f 99/3/99 108/2/108 107/3/107
f 101/5/101 104/8/104 110/8/110
f 101/5/101 110/8/110 109/5/109
f 98/2/98 97/1/97 105/1/105
f 98/2/98 105/1/105 108/2/108
f 97/1/97 102/6/102 112/6/112
f 97/1/97 112/6/112 105/1/105
f 100/4/100 99/3/99 107/3/107
f 100/4/100 107/3/107 106/4/106
f 113/1/113 114/2/114 115/3/115
f 113/1/113 115/3/115 116/4/116
f 117/5/117 118/6/118 119/7/119
f 117/5/117 119/7/119 120/8/120
f 118/6/118 113/1/113 116/4/116
f 118/6/118 116/4/116 119/7/119
f 121/1/121 122/4/122 123/3/123
f 121/1/121 123/3/123 124/2/124
f 125/5/125 126/8/126 127/7/127
f 125/5/125 127/7/127 128/6/128
f 128/6/128 127/7/127 122/4/122
f 128/6/128 122/4/122 121/1/121
f 118/6/118 117/5/117 125/5/125
f 118/6/118 125/5/125 128/6/128
f 119/7/119 116/4/116 122/4/122
f 119/7/119 122/4/122 127/7/127
f 120/8/120 119/7/119 127/7/127
f 120/8/120 127/7/127 126/8/126
f 115/3/115 114/2/114 124/2/124
f 115/3/115 124/2/124 123/3/123
f 117/5/117 120/8/120 126/8/126
f 117/5/117 126/8/126 125/5/125
f 114/2/114 113/1/113 121/1/121
f 114/2/114 121/1/121 124/2/124
f 113/1/113 118/6/118 128/6/128
f 113/1/113 128/6/128 121/1/121
f 116/4/116 115/3/115 123/3/123
f 116/4/116 123/3/123 122/4/122
