# Blender 5.2.0 LTS
# www.blender.org
mtllib Plane_001.mtl
o Plane.001_Material.003_0
v -0.116066 -0.280725 0.116066
v -0.116066 -0.263788 0.121081
v -0.121081 -0.263788 0.116066
v -0.083627 0.268503 0.087241
v -0.083633 0.280725 0.083627
v -0.087241 0.269182 0.083627
v -0.116066 -0.280725 -0.116065
v -0.121081 -0.263788 -0.116065
v -0.116066 -0.263788 -0.121081
v -0.083633 0.280725 -0.083627
v -0.083627 0.268503 -0.087241
v -0.087241 0.269181 -0.083627
v 0.116066 -0.280725 0.116066
v 0.121081 -0.263788 0.116066
v 0.116066 -0.263788 0.121081
v 0.083633 0.280375 0.083627
v 0.083627 0.268155 0.087241
v 0.087241 0.267513 0.083627
v 0.116066 -0.280725 -0.116065
v 0.116066 -0.263788 -0.121081
v 0.121081 -0.263788 -0.116065
v 0.083633 0.280375 -0.083627
v 0.087241 0.267513 -0.083627
v 0.083627 0.268155 -0.087241
v 0.083627 -0.153046 0.087241
v 0.083627 0.268155 0.087241
v -0.083627 0.268503 0.087241
v -0.083627 -0.146610 0.087241
v 0.087241 -0.153181 -0.083627
v 0.087241 0.267513 -0.083627
v 0.087241 0.267513 0.083627
v 0.087241 -0.153181 0.083627
v 0.083633 0.280375 -0.083627
v -0.083633 0.280725 -0.083627
v -0.083633 0.280725 0.083627
v 0.083633 0.280375 0.083627
v -0.087241 -0.146468 0.083627
v -0.087241 0.269182 0.083627
v -0.087241 0.269181 -0.083627
v -0.087241 -0.146468 -0.083627
v -0.083627 -0.146610 -0.087241
v -0.083627 0.268503 -0.087241
v 0.083627 0.268155 -0.087241
v 0.083627 -0.153046 -0.087241
v -0.116066 -0.280725 -0.116065
v -0.116066 -0.280725 0.116066
v -0.121081 -0.263788 0.116066
v -0.121081 -0.263788 -0.116065
v -0.083627 -0.146610 0.087241
v -0.083627 0.268503 0.087241
v -0.087241 0.269182 0.083627
v -0.087241 -0.146468 0.083627
v -0.083633 0.280725 0.083627
v -0.083633 0.280725 -0.083627
v -0.087241 0.269181 -0.083627
v -0.087241 0.269182 0.083627
v -0.083627 -0.146610 -0.087241
v -0.116066 -0.263788 -0.121081
v -0.121081 -0.263788 -0.116065
v -0.087241 -0.146468 -0.083627
v 0.116066 -0.280725 -0.116065
v -0.116066 -0.280725 -0.116065
v -0.116066 -0.263788 -0.121081
v 0.116066 -0.263788 -0.121081
v -0.083633 0.280725 -0.083627
v 0.083633 0.280375 -0.083627
v 0.083627 0.268155 -0.087241
v -0.083627 0.268503 -0.087241
v 0.087241 -0.153181 -0.083627
v 0.121081 -0.263788 -0.116065
v 0.116066 -0.263788 -0.121081
v 0.083627 -0.153046 -0.087241
v 0.116066 -0.280725 0.116066
v 0.116066 -0.280725 -0.116065
v 0.121081 -0.263788 -0.116065
v 0.121081 -0.263788 0.116066
v 0.083633 0.280375 -0.083627
v 0.083633 0.280375 0.083627
v 0.087241 0.267513 0.083627
v 0.087241 0.267513 -0.083627
v 0.083627 -0.153046 0.087241
v 0.116066 -0.263788 0.121081
v 0.121081 -0.263788 0.116066
v 0.087241 -0.153181 0.083627
v -0.116066 -0.280725 0.116066
v 0.116066 -0.280725 0.116066
v 0.116066 -0.263788 0.121081
v -0.116066 -0.263788 0.121081
v 0.083633 0.280375 0.083627
v -0.083633 0.280725 0.083627
v -0.083627 0.268503 0.087241
v 0.083627 0.268155 0.087241
v -0.116066 -0.280725 -0.116065
v 0.116066 -0.280725 -0.116065
v 0.116066 -0.280725 0.116066
v -0.116066 -0.280725 0.116066
v 0.083627 0.268155 0.087241
v 0.083627 -0.153046 0.087241
v 0.087241 -0.153181 0.083627
v 0.087241 0.267513 0.083627
v 0.087241 0.267513 -0.083627
v 0.087241 -0.153181 -0.083627
v 0.083627 -0.153046 -0.087241
v 0.083627 0.268155 -0.087241
v -0.083627 0.268503 -0.087241
v -0.083627 -0.146610 -0.087241
v -0.087241 -0.146468 -0.083627
v -0.087241 0.269181 -0.083627
v -0.116066 -0.263788 0.121081
v -0.083627 -0.146610 0.087241
v -0.087241 -0.146468 0.083627
v -0.121081 -0.263788 0.116066
v -0.116066 -0.263788 -0.121081
v -0.083627 -0.146610 -0.087241
v 0.083627 -0.153046 -0.087241
v 0.116066 -0.263788 -0.121081
v -0.121081 -0.263788 0.116066
v -0.087241 -0.146468 0.083627
v -0.087241 -0.146468 -0.083627
v -0.121081 -0.263788 -0.116065
v 0.121081 -0.263788 -0.116065
v 0.087241 -0.153181 -0.083627
v 0.087241 -0.153181 0.083627
v 0.121081 -0.263788 0.116066
v 0.116066 -0.263788 0.121081
v 0.083627 -0.153046 0.087241
v -0.083627 -0.146610 0.087241
v -0.116066 -0.263788 0.121081
vn -0.6921 -0.2050 0.6921
vn -0.6714 0.2099 0.7108
vn -0.6921 -0.2050 -0.6921
vn -0.6714 0.2099 -0.7108
vn 0.6921 -0.2050 0.6921
vn 0.7104 0.1993 0.6750
vn 0.6921 -0.2050 -0.6921
vn 0.7104 0.1993 -0.6750
vn -0.0000 -0.0000 1.0000
vn 1.0000 -0.0000 -0.0000
vn 0.0021 1.0000 -0.0000
vn -1.0000 -0.0000 -0.0000
vn -0.0000 -0.0000 -1.0000
vn -0.9588 -0.2840 -0.0000
vn -0.7071 -0.0000 0.7071
vn -0.9545 0.2984 -0.0000
vn -0.6535 0.3712 -0.6597
vn -0.0000 -0.2840 -0.9588
vn 0.0006 0.2836 -0.9589
vn 0.0006 0.2836 -0.9590
vn 0.6542 0.3899 -0.6481
vn 0.9588 -0.2840 -0.0000
vn 0.9628 0.2701 -0.0000
vn 0.6542 0.3899 0.6481
vn 0.6542 0.3899 0.6480
vn -0.0000 -0.2840 0.9588
vn 0.0006 0.2836 0.9590
vn 0.0006 0.2836 0.9589
vn -0.0000 -1.0000 -0.0000
vn 0.7071 -0.0000 0.7071
vn 0.7071 -0.0000 -0.7071
vn -0.7071 -0.0000 -0.7071
vn -0.6535 0.3712 0.6597
vn 0.0046 0.2847 -0.9586
vn 0.0046 0.2846 -0.9586
vn -0.9608 0.2771 -0.0000
vn 0.9562 0.2926 -0.0000
vn 0.0046 0.2846 0.9586
vn 0.0046 0.2847 0.9586
vt 0.130178 0.255178
vt 0.130178 0.250000
vt 0.125000 0.255178
vt 0.619534 1.000000
vt 0.624720 0.994822
vt 0.619822 0.994822
vt 0.130178 0.494822
vt 0.125000 0.494822
vt 0.130178 0.500000
vt 0.624720 0.755178
vt 0.619534 0.750000
vt 0.619822 0.755178
vt 0.369822 0.255178
vt 0.375000 0.255178
vt 0.369822 0.250000
vt 0.625000 0.255178
vt 0.619814 0.250000
vt 0.619526 0.255178
vt 0.369822 0.494822
vt 0.369822 0.500000
vt 0.375000 0.494822
vt 0.625000 0.494822
vt 0.619526 0.494822
vt 0.619814 0.500000
vt 0.430769 0.244822
vt 0.619575 0.244822
vt 0.619767 0.005178
vt 0.430658 0.005178
vt 0.430801 0.494822
vt 0.430801 0.255178
vt 0.630170 0.494822
vt 0.869830 0.494822
vt 0.869830 0.255178
vt 0.630170 0.255178
vt 0.430629 0.994822
vt 0.430629 0.755178
vt 0.430658 0.744822
vt 0.619767 0.744822
vt 0.619575 0.505178
vt 0.430769 0.505178
vt 0.430569 1.000000
vt 0.625000 0.994822
vt 0.625000 0.755178
vt 0.380230 0.744822
vt 0.380178 0.755178
vt 0.625000 0.744830
vt 0.625000 0.505170
vt 0.380474 0.494822
vt 0.380421 0.505178
vt 0.380474 0.255178
vt 0.380421 0.244822
vt 0.625000 0.244830
vt 0.625000 0.005170
vt 0.380178 1.000000
vt 0.380178 0.994822
vt 0.380230 0.005178
s 0
usemtl Material.003
f 1/1/1 2/2/1 3/3/1
f 4/4/2 5/5/2 6/6/2
f 7/7/3 8/8/3 9/9/3
f 10/10/4 11/11/4 12/12/4
f 13/13/5 14/14/5 15/15/5
f 16/16/6 17/17/6 18/18/6
f 19/19/7 20/20/7 21/21/7
f 22/22/8 23/23/8 24/24/8
f 25/25/9 26/26/9 27/27/9
f 25/25/9 27/27/9 28/28/9
f 29/29/10 30/23/10 31/18/10
f 29/29/10 31/18/10 32/30/10
f 33/31/11 34/32/11 35/33/11
f 33/31/11 35/33/11 36/34/11
f 37/35/12 38/6/12 39/12/12
f 37/35/12 39/12/12 40/36/12
f 41/37/13 42/38/13 43/39/13
f 41/37/13 43/39/13 44/40/13
f 45/7/14 46/1/14 47/3/14
s 1
f 45/7/14 47/3/14 48/8/14
s 0
f 49/41/15 50/4/15 51/6/15
f 49/41/15 51/6/15 52/35/15
f 53/42/16 54/43/16 55/12/16
f 53/42/16 55/12/16 56/6/16
s 1
f 57/37/17 58/44/17 59/45/17
f 57/37/17 59/45/17 60/36/17
s 0
f 61/19/18 62/7/18 63/9/18
f 61/19/18 63/9/18 64/20/18
f 65/46/19 66/47/19 67/39/19
f 65/46/20 67/39/20 68/38/20
s 1
f 69/29/21 70/48/21 71/49/21
f 69/29/21 71/49/21 72/40/21
f 73/13/22 74/19/22 75/48/22
s 0
f 73/13/22 75/48/22 76/50/22
f 77/31/23 78/34/23 79/18/23
f 77/31/23 79/18/23 80/23/23
s 1
f 81/25/24 82/51/25 83/50/25
f 81/25/24 83/50/25 84/30/24
s 0
f 85/1/26 86/13/26 87/15/26
f 85/1/26 87/15/26 88/2/26
f 89/52/27 90/53/27 91/27/27
f 89/52/28 91/27/28 92/26/28
f 93/7/29 94/19/29 95/13/29
f 93/7/29 95/13/29 96/1/29
f 97/26/30 98/25/30 99/30/30
f 97/26/30 99/30/30 100/18/30
f 101/23/31 102/29/31 103/40/31
f 101/23/31 103/40/31 104/39/31
f 105/38/32 106/37/32 107/36/32
f 105/38/32 107/36/32 108/12/32
s 1
f 109/54/33 110/41/33 111/35/33
f 109/54/33 111/35/33 112/55/33
f 113/44/34 114/37/34 115/40/35
f 113/44/34 115/40/35 116/49/35
s 0
f 117/55/36 118/35/36 119/36/36
f 117/55/36 119/36/36 120/45/36
f 121/48/37 122/29/37 123/30/37
f 121/48/37 123/30/37 124/50/37
s 1
f 125/51/38 126/25/39 127/28/39
f 125/51/38 127/28/39 128/56/39
