# Blender 5.2.0 LTS
# www.blender.org
mtllib Plane_008.mtl
o Plane.008_Material.001_0
v 0.576103 -0.236594 0.019146
v 0.580539 -0.224102 0.019146
v 0.580539 -0.224102 -0.019146
v 0.576103 -0.236594 -0.019146
v 0.576103 -0.236594 -0.019146
v 0.580539 -0.224102 -0.019146
v 0.686740 -0.261813 -0.019146
v 0.682304 -0.274306 -0.019146
v 0.682304 -0.274306 -0.019146
v 0.686740 -0.261813 -0.019146
v 0.686740 -0.261813 0.019146
v 0.682304 -0.274306 0.019146
v 0.682304 -0.274306 0.019146
v 0.686740 -0.261813 0.019146
v 0.580539 -0.224102 0.019146
v 0.576103 -0.236594 0.019146
v 0.576103 -0.236594 -0.019146
v 0.682304 -0.274306 -0.019146
v 0.682304 -0.274306 0.019146
v 0.576103 -0.236594 0.019146
v 0.686740 -0.261813 -0.019146
v 0.580539 -0.224102 -0.019146
v 0.580539 -0.224102 0.019146
v 0.686740 -0.261813 0.019146
v 0.241819 -0.100666 0.019146
v 0.247267 -0.088580 0.019146
v 0.247267 -0.088580 -0.019146
v 0.241819 -0.100666 -0.019146
v 0.241819 -0.100666 -0.019146
v 0.247267 -0.088580 -0.019146
v 0.350010 -0.134890 -0.019146
v 0.344563 -0.146976 -0.019146
v 0.344563 -0.146976 -0.019146
v 0.350010 -0.134890 -0.019146
v 0.350010 -0.134890 0.019146
v 0.344563 -0.146976 0.019146
v 0.344563 -0.146976 0.019146
v 0.350010 -0.134890 0.019146
v 0.247267 -0.088580 0.019146
v 0.241819 -0.100666 0.019146
v 0.241819 -0.100666 -0.019146
v 0.344563 -0.146976 -0.019146
v 0.344563 -0.146976 0.019146
v 0.241819 -0.100666 0.019146
v 0.350010 -0.134890 -0.019146
v 0.247267 -0.088580 -0.019146
v 0.247267 -0.088580 0.019146
v 0.350010 -0.134890 0.019146
v -0.078535 0.050411 0.019146
v -0.072640 0.062284 0.019146
v -0.072640 0.062284 -0.019146
v -0.078535 0.050410 -0.019146
v -0.078535 0.050410 -0.019146
v -0.072640 0.062284 -0.019146
v 0.028304 0.012174 -0.019146
v 0.022409 0.000300 -0.019146
v 0.022409 0.000300 -0.019146
v 0.028304 0.012174 -0.019146
v 0.028304 0.012174 0.019146
v 0.022409 0.000300 0.019146
v 0.022409 0.000300 0.019146
v 0.028304 0.012174 0.019146
v -0.072640 0.062284 0.019146
v -0.078535 0.050411 0.019146
v -0.078535 0.050410 -0.019146
v 0.022409 0.000300 -0.019146
v 0.022409 0.000300 0.019146
v -0.078535 0.050411 0.019146
v 0.028304 0.012174 -0.019146
v -0.072640 0.062284 -0.019146
v -0.072640 0.062284 0.019146
v 0.028304 0.012174 0.019146
v -0.366315 0.194205 0.019146
v -0.360420 0.206079 0.019146
v -0.360420 0.206079 -0.019146
v -0.366315 0.194205 -0.019146
v -0.366315 0.194205 -0.019146
v -0.360420 0.206079 -0.019146
v -0.259476 0.155969 -0.019146
v -0.265370 0.144095 -0.019146
v -0.265370 0.144095 -0.019146
v -0.259476 0.155969 -0.019146
v -0.259476 0.155969 0.019146
v -0.265370 0.144095 0.019146
v -0.265370 0.144095 0.019146
v -0.259476 0.155969 0.019146
v -0.360420 0.206079 0.019146
v -0.366315 0.194205 0.019146
v -0.366315 0.194205 -0.019146
v -0.265370 0.144095 -0.019146
v -0.265370 0.144095 0.019146
v -0.366315 0.194205 0.019146
v -0.259476 0.155969 -0.019146
v -0.360420 0.206079 -0.019146
v -0.360420 0.206079 0.019146
v -0.259476 0.155969 0.019146
v -0.686740 0.261375 0.019146
v -0.683819 0.274306 0.019146
v -0.683819 0.274306 -0.019146
v -0.686740 0.261375 -0.019146
v -0.686740 0.261375 -0.019146
v -0.683819 0.274306 -0.019146
v -0.573891 0.249472 -0.019146
v -0.576812 0.236541 -0.019146
v -0.576812 0.236541 -0.019146
v -0.573891 0.249472 -0.019146
v -0.573891 0.249472 0.019146
v -0.576812 0.236541 0.019146
v -0.576812 0.236541 0.019146
v -0.573891 0.249472 0.019146
v -0.683819 0.274306 0.019146
v -0.686740 0.261375 0.019146
v -0.686740 0.261375 -0.019146
v -0.576812 0.236541 -0.019146
v -0.576812 0.236541 0.019146
v -0.686740 0.261375 0.019146
v -0.573891 0.249472 -0.019146
v -0.683819 0.274306 -0.019146
v -0.683819 0.274306 0.019146
v -0.573891 0.249472 0.019146
vn -0.9424 0.3346 -0.0000
vn -0.0000 -0.0000 -1.0000
vn 0.9423 -0.3346 -0.0000
vn 0.9424 -0.3346 -0.0000
vn -0.0000 -0.0000 1.0000
vn -0.3346 -0.9424 -0.0000
vn 0.3346 0.9424 -0.0000
vn -0.9117 0.4109 -0.0000
vn 0.9117 -0.4109 -0.0000
vn -0.4109 -0.9117 -0.0000
vn 0.4109 0.9117 -0.0000
vn -0.8957 0.4446 -0.0000
vn 0.8957 -0.4446 -0.0000
vn -0.4446 -0.8957 -0.0000
vn 0.4446 0.8957 -0.0000
vn -0.9754 0.2204 -0.0000
vn 0.9754 -0.2204 -0.0000
vn -0.2204 -0.9754 -0.0000
vn 0.2204 0.9754 -0.0000
vt 0.375000 1.000000
vt 0.625000 1.000000
vt 0.625000 0.750000
vt 0.375000 0.750000
vt 0.625000 0.500000
vt 0.375000 0.500000
vt 0.625000 0.250000
vt 0.375000 0.250000
vt 0.625000 0.000000
vt 0.375000 0.000000
vt 0.125000 0.500000
vt 0.125000 0.250000
vt 0.875000 0.500000
vt 0.875000 0.250000
s 0
usemtl Material.001
f 1/1/1 2/2/1 3/3/1
f 1/1/1 3/3/1 4/4/1
f 5/4/2 6/3/2 7/5/2
f 5/4/2 7/5/2 8/6/2
f 9/6/3 10/5/3 11/7/3
f 9/6/4 11/7/4 12/8/4
f 13/8/5 14/7/5 15/9/5
f 13/8/5 15/9/5 16/10/5
f 17/11/6 18/6/6 19/8/6
f 17/11/6 19/8/6 20/12/6
f 21/5/7 22/13/7 23/14/7
f 21/5/7 23/14/7 24/7/7
f 25/1/8 26/2/8 27/3/8
f 25/1/8 27/3/8 28/4/8
f 29/4/2 30/3/2 31/5/2
f 29/4/2 31/5/2 32/6/2
f 33/6/9 34/5/9 35/7/9
f 33/6/9 35/7/9 36/8/9
f 37/8/5 38/7/5 39/9/5
f 37/8/5 39/9/5 40/10/5
f 41/11/10 42/6/10 43/8/10
f 41/11/10 43/8/10 44/12/10
f 45/5/11 46/13/11 47/14/11
f 45/5/11 47/14/11 48/7/11
f 49/1/12 50/2/12 51/3/12
f 49/1/12 51/3/12 52/4/12
f 53/4/2 54/3/2 55/5/2
f 53/4/2 55/5/2 56/6/2
f 57/6/13 58/5/13 59/7/13
f 57/6/13 59/7/13 60/8/13
f 61/8/5 62/7/5 63/9/5
f 61/8/5 63/9/5 64/10/5
f 65/11/14 66/6/14 67/8/14
f 65/11/14 67/8/14 68/12/14
f 69/5/15 70/13/15 71/14/15
f 69/5/15 71/14/15 72/7/15
f 73/1/12 74/2/12 75/3/12
f 73/1/12 75/3/12 76/4/12
f 77/4/2 78/3/2 79/5/2
f 77/4/2 79/5/2 80/6/2
f 81/6/13 82/5/13 83/7/13
f 81/6/13 83/7/13 84/8/13
f 85/8/5 86/7/5 87/9/5
f 85/8/5 87/9/5 88/10/5
f 89/11/14 90/6/14 91/8/14
f 89/11/14 91/8/14 92/12/14
f 93/5/15 94/13/15 95/14/15
f 93/5/15 95/14/15 96/7/15
f 97/1/16 98/2/16 99/3/16
f 97/1/16 99/3/16 100/4/16
f 101/4/2 102/3/2 103/5/2
f 101/4/2 103/5/2 104/6/2
f 105/6/17 106/5/17 107/7/17
f 105/6/17 107/7/17 108/8/17
f 109/8/5 110/7/5 111/9/5
f 109/8/5 111/9/5 112/10/5
f 113/11/18 114/6/18 115/8/18
f 113/11/18 115/8/18 116/12/18
f 117/5/19 118/13/19 119/14/19
f 117/5/19 119/14/19 120/7/19
