# Blender 5.2.0 LTS
# www.blender.org
mtllib Plane_004.mtl
o Plane.004_Material.013_0
v 0.022442 0.006425 -0.000032
v 0.022442 -0.006425 -0.000032
v 0.023002 -0.006425 -0.005809
v 0.023003 0.006425 -0.005809
v 0.023003 0.006425 -0.005809
v 0.023002 -0.006425 -0.005809
v 0.024680 -0.006425 -0.011366
v 0.024680 0.006425 -0.011366
v 0.024680 0.006425 -0.011366
v 0.024680 -0.006425 -0.011366
v 0.027409 -0.006425 -0.016489
v 0.027409 0.006425 -0.016489
v 0.027409 0.006425 -0.016489
v 0.027409 -0.006425 -0.016489
v 0.031084 -0.006425 -0.020981
v 0.031084 0.006425 -0.020981
v 0.031084 0.006425 -0.020981
v 0.031084 -0.006425 -0.020981
v 0.035566 -0.006425 -0.024669
v 0.035566 0.006425 -0.024669
v 0.035566 0.006425 -0.024669
v 0.035566 -0.006425 -0.024669
v 0.040681 -0.006425 -0.027413
v 0.040681 0.006425 -0.027413
v 0.040681 0.006425 -0.027413
v 0.040681 -0.006425 -0.027413
v 0.046233 -0.006425 -0.029105
v 0.046233 0.006425 -0.029105
v 0.046233 0.006425 -0.029105
v 0.046233 -0.006425 -0.029105
v 0.052009 -0.006425 -0.029682
v 0.052009 0.006425 -0.029682
v 0.052009 0.006425 -0.029682
v 0.052009 -0.006425 -0.029682
v 0.057786 -0.006425 -0.029122
v 0.057786 0.006425 -0.029122
v 0.057786 0.006425 -0.029122
v 0.057786 -0.006425 -0.029122
v 0.063343 -0.006425 -0.027444
v 0.063343 0.006425 -0.027444
v 0.063343 0.006425 -0.027444
v 0.063343 -0.006425 -0.027444
v 0.068466 -0.006425 -0.024716
v 0.068466 0.006425 -0.024716
v 0.068466 0.006425 -0.024716
v 0.068466 -0.006425 -0.024716
v 0.072958 -0.006425 -0.021040
v 0.072958 0.006425 -0.021040
v 0.072958 0.006425 -0.021040
v 0.072958 -0.006425 -0.021040
v 0.076646 -0.006425 -0.016558
v 0.076646 0.006425 -0.016558
v 0.076646 0.006425 -0.016558
v 0.076646 -0.006425 -0.016558
v 0.079390 -0.006425 -0.011443
v 0.079390 0.006425 -0.011443
v 0.079390 0.006425 -0.011443
v 0.079390 -0.006425 -0.011443
v 0.081082 -0.006425 -0.005891
v 0.081083 0.006425 -0.005891
v 0.081083 0.006425 -0.005891
v 0.081082 -0.006425 -0.005891
v 0.081660 -0.006425 -0.000115
v 0.081660 0.006425 -0.000115
v 0.081660 0.006425 -0.000115
v 0.081660 -0.006425 -0.000115
v 0.081099 -0.006425 0.005662
v 0.081099 0.006425 0.005662
v 0.081099 0.006425 0.005662
v 0.081099 -0.006425 0.005662
v 0.079422 -0.006425 0.011219
v 0.079422 0.006425 0.011219
v 0.079422 0.006425 0.011219
v 0.079422 -0.006425 0.011219
v 0.076693 -0.006425 0.016342
v 0.076693 0.006425 0.016342
v 0.076693 0.006425 0.016342
v 0.076693 -0.006425 0.016342
v 0.073017 -0.006425 0.020834
v 0.073017 0.006425 0.020834
v 0.073017 0.006425 0.020834
v 0.073017 -0.006425 0.020834
v 0.068535 -0.006425 0.024522
v 0.068535 0.006425 0.024522
v 0.068535 0.006425 0.024522
v 0.068535 -0.006425 0.024522
v 0.063420 -0.006425 0.027266
v 0.063420 0.006425 0.027266
v 0.063420 0.006425 0.027266
v 0.063420 -0.006425 0.027266
v 0.057868 -0.006425 0.028958
v 0.057868 0.006425 0.028958
v 0.057868 0.006425 0.028958
v 0.057868 -0.006425 0.028958
v 0.052092 -0.006425 0.029536
v 0.052092 0.006425 0.029536
v 0.052092 0.006425 0.029536
v 0.052092 -0.006425 0.029536
v 0.046315 -0.006425 0.028975
v 0.046315 0.006425 0.028975
v 0.046315 0.006425 0.028975
v 0.046315 -0.006425 0.028975
v 0.040758 -0.006425 0.027298
v 0.040758 0.006425 0.027298
v 0.040758 0.006425 0.027298
v 0.040758 -0.006425 0.027298
v 0.035636 -0.006425 0.024569
v 0.035636 0.006425 0.024569
v 0.035636 0.006425 0.024569
v 0.035636 -0.006425 0.024569
v 0.031143 -0.006425 0.020893
v 0.031144 0.006425 0.020893
v 0.031144 0.006425 0.020893
v 0.031143 -0.006425 0.020893
v 0.027455 -0.006425 0.016411
v 0.027455 0.006425 0.016411
v 0.027455 0.006425 0.016411
v 0.027455 -0.006425 0.016411
v 0.024712 -0.006425 0.011296
v 0.024712 0.006425 0.011296
v 0.024712 0.006425 0.011296
v 0.024712 -0.006425 0.011296
v 0.023019 -0.006425 0.005744
v 0.023019 0.006425 0.005744
v 0.023019 0.006425 0.005744
v 0.023019 -0.006425 0.005744
v 0.022442 -0.006425 -0.000032
v 0.022442 0.006425 -0.000032
v -0.081660 0.006425 0.000115
v -0.081660 -0.006425 0.000115
v -0.081099 -0.006425 -0.005662
v -0.081099 0.006425 -0.005662
v -0.081099 0.006425 -0.005662
v -0.081099 -0.006425 -0.005662
v -0.079422 -0.006425 -0.011219
v -0.079422 0.006425 -0.011219
v -0.079422 0.006425 -0.011219
v -0.079422 -0.006425 -0.011219
v -0.076693 -0.006425 -0.016342
v -0.076693 0.006425 -0.016342
v -0.076693 0.006425 -0.016342
v -0.076693 -0.006425 -0.016342
v -0.073017 -0.006425 -0.020834
v -0.073017 0.006425 -0.020834
v -0.073017 0.006425 -0.020834
v -0.073017 -0.006425 -0.020834
v -0.068535 -0.006425 -0.024522
v -0.068535 0.006425 -0.024522
v -0.068535 0.006425 -0.024522
v -0.068535 -0.006425 -0.024522
v -0.063420 -0.006425 -0.027266
v -0.063420 0.006425 -0.027266
v -0.063420 0.006425 -0.027266
v -0.063420 -0.006425 -0.027266
v -0.057868 -0.006425 -0.028958
v -0.057868 0.006425 -0.028958
v -0.057868 0.006425 -0.028958
v -0.057868 -0.006425 -0.028958
v -0.052092 -0.006425 -0.029536
v -0.052092 0.006425 -0.029536
v -0.052092 0.006425 -0.029536
v -0.052092 -0.006425 -0.029536
v -0.046315 -0.006425 -0.028975
v -0.046315 0.006425 -0.028975
v -0.046315 0.006425 -0.028975
v -0.046315 -0.006425 -0.028975
v -0.040758 -0.006425 -0.027298
v -0.040758 0.006425 -0.027298
v -0.040758 0.006425 -0.027298
v -0.040758 -0.006425 -0.027298
v -0.035636 -0.006425 -0.024569
v -0.035635 0.006425 -0.024569
v -0.035635 0.006425 -0.024569
v -0.035636 -0.006425 -0.024569
v -0.031143 -0.006425 -0.020893
v -0.031143 0.006425 -0.020893
v -0.031143 0.006425 -0.020893
v -0.031143 -0.006425 -0.020893
v -0.027455 -0.006425 -0.016411
v -0.027455 0.006425 -0.016411
v -0.027455 0.006425 -0.016411
v -0.027455 -0.006425 -0.016411
v -0.024712 -0.006425 -0.011296
v -0.024712 0.006425 -0.011296
v -0.024712 0.006425 -0.011296
v -0.024712 -0.006425 -0.011296
v -0.023019 -0.006425 -0.005744
v -0.023019 0.006425 -0.005744
v -0.023019 0.006425 -0.005744
v -0.023019 -0.006425 -0.005744
v -0.022442 -0.006425 0.000032
v -0.022442 0.006425 0.000032
v -0.022442 0.006425 0.000032
v -0.022442 -0.006425 0.000032
v -0.023002 -0.006425 0.005809
v -0.023002 0.006425 0.005809
v -0.023002 0.006425 0.005809
v -0.023002 -0.006425 0.005809
v -0.024680 -0.006425 0.011366
v -0.024680 0.006425 0.011366
v -0.024680 0.006425 0.011366
v -0.024680 -0.006425 0.011366
v -0.027409 -0.006425 0.016489
v -0.027408 0.006425 0.016489
v -0.027408 0.006425 0.016489
v -0.027409 -0.006425 0.016489
v -0.031084 -0.006425 0.020981
v -0.031084 0.006425 0.020981
v -0.031084 0.006425 0.020981
v -0.031084 -0.006425 0.020981
v -0.035566 -0.006425 0.024669
v -0.035566 0.006425 0.024669
v -0.035566 0.006425 0.024669
v -0.035566 -0.006425 0.024669
v -0.040681 -0.006425 0.027413
v -0.040681 0.006425 0.027413
v -0.040681 0.006425 0.027413
v -0.040681 -0.006425 0.027413
v -0.046233 -0.006425 0.029105
v -0.046233 0.006425 0.029105
v -0.046233 0.006425 0.029105
v -0.046233 -0.006425 0.029105
v -0.052009 -0.006425 0.029682
v -0.052009 0.006425 0.029682
v -0.052009 0.006425 0.029682
v -0.052009 -0.006425 0.029682
v -0.057786 -0.006425 0.029122
v -0.057786 0.006425 0.029122
v -0.057786 0.006425 0.029122
v -0.057786 -0.006425 0.029122
v -0.063343 -0.006425 0.027444
v -0.063343 0.006425 0.027444
v -0.063343 0.006425 0.027444
v -0.063343 -0.006425 0.027444
v -0.068466 -0.006425 0.024716
v -0.068466 0.006425 0.024716
v -0.068466 0.006425 0.024716
v -0.068466 -0.006425 0.024716
v -0.072958 -0.006425 0.021040
v -0.072958 0.006425 0.021040
v -0.072958 0.006425 0.021040
v -0.072958 -0.006425 0.021040
v -0.076646 -0.006425 0.016558
v -0.076646 0.006425 0.016558
v -0.076646 0.006425 0.016558
v -0.076646 -0.006425 0.016558
v -0.079390 -0.006425 0.011443
v -0.079390 0.006425 0.011443
v -0.079390 0.006425 0.011443
v -0.079390 -0.006425 0.011443
v -0.081082 -0.006425 0.005891
v -0.081082 0.006425 0.005891
v -0.081082 0.006425 0.005891
v -0.081082 -0.006425 0.005891
v -0.081660 -0.006425 0.000115
v -0.081660 0.006425 0.000115
v 0.023002 -0.006425 -0.005809
v 0.022442 -0.006425 -0.000032
v 0.023019 -0.006425 0.005744
v 0.024712 -0.006425 0.011296
v 0.027455 -0.006425 0.016411
v 0.031143 -0.006425 0.020893
v 0.035636 -0.006425 0.024569
v 0.040758 -0.006425 0.027298
v 0.046315 -0.006425 0.028975
v 0.052092 -0.006425 0.029536
v 0.057868 -0.006425 0.028958
v 0.063420 -0.006425 0.027266
v 0.068535 -0.006425 0.024522
v 0.073017 -0.006425 0.020834
v 0.076693 -0.006425 0.016342
v 0.079422 -0.006425 0.011219
v 0.081099 -0.006425 0.005662
v 0.081660 -0.006425 -0.000115
v 0.081082 -0.006425 -0.005891
v 0.079390 -0.006425 -0.011443
v 0.076646 -0.006425 -0.016558
v 0.072958 -0.006425 -0.021040
v 0.068466 -0.006425 -0.024716
v 0.063343 -0.006425 -0.027444
v 0.057786 -0.006425 -0.029122
v 0.052009 -0.006425 -0.029682
v 0.046233 -0.006425 -0.029105
v 0.040681 -0.006425 -0.027413
v 0.035566 -0.006425 -0.024669
v 0.031084 -0.006425 -0.020981
v 0.027409 -0.006425 -0.016489
v 0.024680 -0.006425 -0.011366
v 0.022442 0.006425 -0.000032
v 0.023003 0.006425 -0.005809
v 0.024680 0.006425 -0.011366
v 0.027409 0.006425 -0.016489
v 0.031084 0.006425 -0.020981
v 0.035566 0.006425 -0.024669
v 0.040681 0.006425 -0.027413
v 0.046233 0.006425 -0.029105
v 0.052009 0.006425 -0.029682
v 0.057786 0.006425 -0.029122
v 0.063343 0.006425 -0.027444
v 0.068466 0.006425 -0.024716
v 0.072958 0.006425 -0.021040
v 0.076646 0.006425 -0.016558
v 0.079390 0.006425 -0.011443
v 0.081083 0.006425 -0.005891
v 0.081660 0.006425 -0.000115
v 0.081099 0.006425 0.005662
v 0.079422 0.006425 0.011219
v 0.076693 0.006425 0.016342
v 0.073017 0.006425 0.020834
v 0.068535 0.006425 0.024522
v 0.063420 0.006425 0.027266
v 0.057868 0.006425 0.028958
v 0.052092 0.006425 0.029536
v 0.046315 0.006425 0.028975
v 0.040758 0.006425 0.027298
v 0.035636 0.006425 0.024569
v 0.031144 0.006425 0.020893
v 0.027455 0.006425 0.016411
v 0.024712 0.006425 0.011296
v 0.023019 0.006425 0.005744
v -0.081099 -0.006425 -0.005662
v -0.081660 -0.006425 0.000115
v -0.081082 -0.006425 0.005891
v -0.079390 -0.006425 0.011443
v -0.076646 -0.006425 0.016558
v -0.072958 -0.006425 0.021040
v -0.068466 -0.006425 0.024716
v -0.063343 -0.006425 0.027444
v -0.057786 -0.006425 0.029122
v -0.052009 -0.006425 0.029682
v -0.046233 -0.006425 0.029105
v -0.040681 -0.006425 0.027413
v -0.035566 -0.006425 0.024669
v -0.031084 -0.006425 0.020981
v -0.027409 -0.006425 0.016489
v -0.024680 -0.006425 0.011366
v -0.023002 -0.006425 0.005809
v -0.022442 -0.006425 0.000032
v -0.023019 -0.006425 -0.005744
v -0.024712 -0.006425 -0.011296
v -0.027455 -0.006425 -0.016411
v -0.031143 -0.006425 -0.020893
v -0.035636 -0.006425 -0.024569
v -0.040758 -0.006425 -0.027298
v -0.046315 -0.006425 -0.028975
v -0.052092 -0.006425 -0.029536
v -0.057868 -0.006425 -0.028958
v -0.063420 -0.006425 -0.027266
v -0.068535 -0.006425 -0.024522
v -0.073017 -0.006425 -0.020834
v -0.076693 -0.006425 -0.016342
v -0.079422 -0.006425 -0.011219
v -0.081660 0.006425 0.000115
v -0.081099 0.006425 -0.005662
v -0.079422 0.006425 -0.011219
v -0.076693 0.006425 -0.016342
v -0.073017 0.006425 -0.020834
v -0.068535 0.006425 -0.024522
v -0.063420 0.006425 -0.027266
v -0.057868 0.006425 -0.028958
v -0.052092 0.006425 -0.029536
v -0.046315 0.006425 -0.028975
v -0.040758 0.006425 -0.027298
v -0.035635 0.006425 -0.024569
v -0.031143 0.006425 -0.020893
v -0.027455 0.006425 -0.016411
v -0.024712 0.006425 -0.011296
v -0.023019 0.006425 -0.005744
v -0.022442 0.006425 0.000032
v -0.023002 0.006425 0.005809
v -0.024680 0.006425 0.011366
v -0.027408 0.006425 0.016489
v -0.031084 0.006425 0.020981
v -0.035566 0.006425 0.024669
v -0.040681 0.006425 0.027413
v -0.046233 0.006425 0.029105
v -0.052009 0.006425 0.029682
v -0.057786 0.006425 0.029122
v -0.063343 0.006425 0.027444
v -0.068466 0.006425 0.024716
v -0.072958 0.006425 0.021040
v -0.076646 0.006425 0.016558
v -0.079390 0.006425 0.011443
v -0.081082 0.006425 0.005891
vn 0.9953 -0.0000 0.0966
vn 0.9573 -0.0000 0.2889
vn 0.8826 -0.0000 0.4702
vn 0.7739 -0.0000 0.6333
vn 0.6355 -0.0000 0.7721
vn 0.4726 -0.0000 0.8813
vn 0.2916 -0.0000 0.9565
vn 0.0994 -0.0000 0.9950
vn -0.0966 -0.0000 0.9953
vn -0.2889 -0.0000 0.9573
vn -0.4702 -0.0000 0.8826
vn -0.6333 -0.0000 0.7739
vn -0.7721 -0.0000 0.6355
vn -0.8813 -0.0000 0.4726
vn -0.9565 -0.0000 0.2916
vn -0.9950 -0.0000 0.0994
vn -0.9953 -0.0000 -0.0966
vn -0.9573 -0.0000 -0.2889
vn -0.8826 -0.0000 -0.4702
vn -0.7739 -0.0000 -0.6333
vn -0.6355 -0.0000 -0.7721
vn -0.4726 -0.0000 -0.8813
vn -0.2916 -0.0000 -0.9565
vn -0.0994 -0.0000 -0.9950
vn 0.0966 -0.0000 -0.9953
vn 0.2889 -0.0000 -0.9573
vn 0.4702 -0.0000 -0.8826
vn 0.6333 -0.0000 -0.7739
vn 0.7721 -0.0000 -0.6355
vn 0.8813 -0.0000 -0.4726
vn 0.9565 -0.0000 -0.2916
vn 0.9950 -0.0000 -0.0994
vn -0.0000 1.0000 -0.0000
vn -0.0000 -1.0000 -0.0000
vt 1.000000 0.500000
vt 1.000000 0.000000
vt 0.968750 0.000000
vt 0.968750 0.500000
vt 0.937500 0.000000
vt 0.937500 0.500000
vt 0.906250 0.000000
vt 0.906250 0.500000
vt 0.875000 0.000000
vt 0.875000 0.500000
vt 0.843750 0.000000
vt 0.843750 0.500000
vt 0.812500 0.000000
vt 0.812500 0.500000
vt 0.781250 0.000000
vt 0.781250 0.500000
vt 0.750000 0.000000
vt 0.750000 0.500000
vt 0.718750 0.000000
vt 0.718750 0.500000
vt 0.687500 0.000000
vt 0.687500 0.500000
vt 0.656250 0.000000
vt 0.656250 0.500000
vt 0.625000 0.000000
vt 0.625000 0.500000
vt 0.593750 0.000000
vt 0.593750 0.500000
vt 0.562500 0.000000
vt 0.562500 0.500000
vt 0.531250 0.000000
vt 0.531250 0.500000
vt 0.500000 0.000000
vt 0.500000 0.500000
vt 0.468750 0.000000
vt 0.468750 0.500000
vt 0.437500 0.000000
vt 0.437500 0.500000
vt 0.406250 0.000000
vt 0.406250 0.500000
vt 0.375000 0.000000
vt 0.375000 0.500000
vt 0.343750 0.000000
vt 0.343750 0.500000
vt 0.312500 0.000000
vt 0.312500 0.500000
vt 0.281250 0.000000
vt 0.281250 0.500000
vt 0.250000 0.000000
vt 0.250000 0.500000
vt 0.218750 0.000000
vt 0.218750 0.500000
vt 0.187500 0.000000
vt 0.187500 0.500000
vt 0.156250 0.000000
vt 0.156250 0.500000
vt 0.125000 0.000000
vt 0.125000 0.500000
vt 0.093750 0.000000
vt 0.093750 0.500000
vt 0.062500 0.000000
vt 0.062500 0.500000
vt 0.031250 0.000000
vt 0.031250 0.500000
vt 0.000000 0.000000
vt 0.000000 0.500000
vt 0.296822 0.985388
vt 0.203178 0.985388
vt 0.250000 0.990000
vt 0.341844 0.971731
vt 0.158156 0.971731
vt 0.383337 0.949553
vt 0.116663 0.949553
vt 0.419706 0.919706
vt 0.080294 0.919706
vt 0.449553 0.883337
vt 0.050447 0.883337
vt 0.471731 0.841844
vt 0.028269 0.841844
vt 0.485388 0.796822
vt 0.014612 0.796822
vt 0.490000 0.750000
vt 0.010000 0.750000
vt 0.485388 0.703178
vt 0.014612 0.703178
vt 0.471731 0.658156
vt 0.028269 0.658156
vt 0.449553 0.616663
vt 0.050447 0.616663
vt 0.419706 0.580294
vt 0.080294 0.580294
vt 0.383337 0.550447
vt 0.116663 0.550447
vt 0.341844 0.528269
vt 0.158156 0.528269
vt 0.296822 0.514612
vt 0.203178 0.514612
vt 0.250000 0.510000
vt 0.703178 0.985388
vt 0.796822 0.985388
vt 0.750000 0.990000
vt 0.658156 0.971731
vt 0.841844 0.971731
vt 0.616663 0.949553
vt 0.883337 0.949553
vt 0.580294 0.919706
vt 0.919706 0.919706
vt 0.550447 0.883337
vt 0.949553 0.883337
vt 0.528269 0.841844
vt 0.971731 0.841844
vt 0.514612 0.796822
vt 0.985388 0.796822
vt 0.510000 0.750000
vt 0.990000 0.750000
vt 0.514612 0.703178
vt 0.985388 0.703178
vt 0.528269 0.658156
vt 0.971731 0.658156
vt 0.550447 0.616663
vt 0.949553 0.616663
vt 0.580294 0.580294
vt 0.919706 0.580294
vt 0.616663 0.550447
vt 0.883337 0.550447
vt 0.658156 0.528269
vt 0.841844 0.528269
vt 0.703178 0.514612
vt 0.796822 0.514612
vt 0.750000 0.510000
s 0
usemtl Material.013
f 1/1/1 2/2/1 3/3/1
f 1/1/1 3/3/1 4/4/1
f 5/4/2 6/3/2 7/5/2
f 5/4/2 7/5/2 8/6/2
f 9/6/3 10/5/3 11/7/3
f 9/6/3 11/7/3 12/8/3
f 13/8/4 14/7/4 15/9/4
f 13/8/4 15/9/4 16/10/4
f 17/10/5 18/9/5 19/11/5
f 17/10/5 19/11/5 20/12/5
f 21/12/6 22/11/6 23/13/6
f 21/12/6 23/13/6 24/14/6
f 25/14/7 26/13/7 27/15/7
f 25/14/7 27/15/7 28/16/7
f 29/16/8 30/15/8 31/17/8
f 29/16/8 31/17/8 32/18/8
f 33/18/9 34/17/9 35/19/9
f 33/18/9 35/19/9 36/20/9
f 37/20/10 38/19/10 39/21/10
f 37/20/10 39/21/10 40/22/10
f 41/22/11 42/21/11 43/23/11
f 41/22/11 43/23/11 44/24/11
f 45/24/12 46/23/12 47/25/12
f 45/24/12 47/25/12 48/26/12
f 49/26/13 50/25/13 51/27/13
f 49/26/13 51/27/13 52/28/13
s 1
f 53/28/14 54/27/14 55/29/14
s 0
f 53/28/14 55/29/14 56/30/14
f 57/30/15 58/29/15 59/31/15
f 57/30/15 59/31/15 60/32/15
f 61/32/16 62/31/16 63/33/16
f 61/32/16 63/33/16 64/34/16
f 65/34/17 66/33/17 67/35/17
f 65/34/17 67/35/17 68/36/17
f 69/36/18 70/35/18 71/37/18
s 1
f 69/36/18 71/37/18 72/38/18
s 0
f 73/38/19 74/37/19 75/39/19
f 73/38/19 75/39/19 76/40/19
f 77/40/20 78/39/20 79/41/20
f 77/40/20 79/41/20 80/42/20
f 81/42/21 82/41/21 83/43/21
f 81/42/21 83/43/21 84/44/21
f 85/44/22 86/43/22 87/45/22
f 85/44/22 87/45/22 88/46/22
f 89/46/23 90/45/23 91/47/23
f 89/46/23 91/47/23 92/48/23
f 93/48/24 94/47/24 95/49/24
f 93/48/24 95/49/24 96/50/24
f 97/50/25 98/49/25 99/51/25
f 97/50/25 99/51/25 100/52/25
f 101/52/26 102/51/26 103/53/26
f 101/52/26 103/53/26 104/54/26
f 105/54/27 106/53/27 107/55/27
f 105/54/27 107/55/27 108/56/27
f 109/56/28 110/55/28 111/57/28
f 109/56/28 111/57/28 112/58/28
f 113/58/29 114/57/29 115/59/29
f 113/58/29 115/59/29 116/60/29
f 117/60/30 118/59/30 119/61/30
f 117/60/30 119/61/30 120/62/30
f 121/62/31 122/61/31 123/63/31
f 121/62/31 123/63/31 124/64/31
f 125/64/32 126/63/32 127/65/32
f 125/64/32 127/65/32 128/66/32
f 129/1/1 130/2/1 131/3/1
f 129/1/1 131/3/1 132/4/1
f 133/4/2 134/3/2 135/5/2
f 133/4/2 135/5/2 136/6/2
f 137/6/3 138/5/3 139/7/3
f 137/6/3 139/7/3 140/8/3
f 141/8/4 142/7/4 143/9/4
f 141/8/4 143/9/4 144/10/4
f 145/10/5 146/9/5 147/11/5
f 145/10/5 147/11/5 148/12/5
f 149/12/6 150/11/6 151/13/6
f 149/12/6 151/13/6 152/14/6
f 153/14/7 154/13/7 155/15/7
f 153/14/7 155/15/7 156/16/7
f 157/16/8 158/15/8 159/17/8
f 157/16/8 159/17/8 160/18/8
f 161/18/9 162/17/9 163/19/9
f 161/18/9 163/19/9 164/20/9
f 165/20/10 166/19/10 167/21/10
f 165/20/10 167/21/10 168/22/10
f 169/22/11 170/21/11 171/23/11
f 169/22/11 171/23/11 172/24/11
f 173/24/12 174/23/12 175/25/12
f 173/24/12 175/25/12 176/26/12
f 177/26/13 178/25/13 179/27/13
f 177/26/13 179/27/13 180/28/13
f 181/28/14 182/27/14 183/29/14
f 181/28/14 183/29/14 184/30/14
f 185/30/15 186/29/15 187/31/15
f 185/30/15 187/31/15 188/32/15
f 189/32/16 190/31/16 191/33/16
f 189/32/16 191/33/16 192/34/16
f 193/34/17 194/33/17 195/35/17
f 193/34/17 195/35/17 196/36/17
s 1
f 197/36/18 198/35/18 199/37/18
s 0
f 197/36/18 199/37/18 200/38/18
f 201/38/19 202/37/19 203/39/19
f 201/38/19 203/39/19 204/40/19
f 205/40/20 206/39/20 207/41/20
f 205/40/20 207/41/20 208/42/20
f 209/42/21 210/41/21 211/43/21
f 209/42/21 211/43/21 212/44/21
f 213/44/22 214/43/22 215/45/22
f 213/44/22 215/45/22 216/46/22
f 217/46/23 218/45/23 219/47/23
f 217/46/23 219/47/23 220/48/23
f 221/48/24 222/47/24 223/49/24
f 221/48/24 223/49/24 224/50/24
f 225/50/25 226/49/25 227/51/25
f 225/50/25 227/51/25 228/52/25
f 229/52/26 230/51/26 231/53/26
f 229/52/26 231/53/26 232/54/26
f 233/54/27 234/53/27 235/55/27
s 1
f 233/54/27 235/55/27 236/56/27
s 0
f 237/56/28 238/55/28 239/57/28
f 237/56/28 239/57/28 240/58/28
f 241/58/29 242/57/29 243/59/29
f 241/58/29 243/59/29 244/60/29
f 245/60/30 246/59/30 247/61/30
f 245/60/30 247/61/30 248/62/30
f 249/62/31 250/61/31 251/63/31
f 249/62/31 251/63/31 252/64/31
f 253/64/32 254/63/32 255/65/32
f 253/64/32 255/65/32 256/66/32
f 275/67/33 273/68/33 274/69/33
f 273/68/33 275/67/33 276/70/33
f 273/68/33 276/70/33 272/71/33
f 272/71/33 276/70/33 277/72/33
f 272/71/33 277/72/33 271/73/33
f 271/73/33 277/72/33 278/74/33
f 271/73/33 278/74/33 270/75/33
f 270/75/33 278/74/33 279/76/33
f 270/75/33 279/76/33 269/77/33
f 269/77/33 279/76/33 280/78/33
f 269/77/33 280/78/33 268/79/33
f 268/79/33 280/78/33 281/80/33
f 268/79/33 281/80/33 267/81/33
f 267/81/33 281/80/33 282/82/33
f 267/81/33 282/82/33 266/83/33
f 266/83/33 282/82/33 283/84/33
f 266/83/33 283/84/33 265/85/33
f 265/85/33 283/84/33 284/86/33
f 265/85/33 284/86/33 264/87/33
f 264/87/33 284/86/33 285/88/33
f 264/87/33 285/88/33 263/89/33
f 263/89/33 285/88/33 286/90/33
f 263/89/33 286/90/33 262/91/33
f 262/91/33 286/90/33 287/92/33
f 262/91/33 287/92/33 261/93/33
f 261/93/33 287/92/33 288/94/33
f 261/93/33 288/94/33 260/95/33
f 260/95/33 288/94/33 257/96/33
f 260/95/33 257/96/33 259/97/33
f 259/97/33 257/96/33 258/98/33
f 306/99/34 304/100/34 305/101/34
f 304/100/34 306/99/34 307/102/34
f 304/100/34 307/102/34 303/103/34
f 303/103/34 307/102/34 308/104/34
f 303/103/34 308/104/34 302/105/34
f 302/105/34 308/104/34 309/106/34
f 302/105/34 309/106/34 301/107/34
f 301/107/34 309/106/34 310/108/34
f 301/107/34 310/108/34 300/109/34
f 300/109/34 310/108/34 311/110/34
f 300/109/34 311/110/34 299/111/34
f 299/111/34 311/110/34 312/112/34
f 299/111/34 312/112/34 298/113/34
f 298/113/34 312/112/34 313/114/34
f 298/113/34 313/114/34 297/115/34
f 297/115/34 313/114/34 314/116/34
f 297/115/34 314/116/34 296/117/34
f 296/117/34 314/116/34 315/118/34
f 296/117/34 315/118/34 295/119/34
f 295/119/34 315/118/34 316/120/34
f 295/119/34 316/120/34 294/121/34
f 294/121/34 316/120/34 317/122/34
f 294/121/34 317/122/34 293/123/34
f 293/123/34 317/122/34 318/124/34
f 293/123/34 318/124/34 292/125/34
f 292/125/34 318/124/34 319/126/34
f 292/125/34 319/126/34 291/127/34
f 291/127/34 319/126/34 320/128/34
f 291/127/34 320/128/34 290/129/34
f 290/129/34 320/128/34 289/130/34
f 339/67/33 337/68/33 338/69/33
f 337/68/33 339/67/33 340/70/33
f 337/68/33 340/70/33 336/71/33
f 336/71/33 340/70/33 341/72/33
f 336/71/33 341/72/33 335/73/33
f 335/73/33 341/72/33 342/74/33
f 335/73/33 342/74/33 334/75/33
f 334/75/33 342/74/33 343/76/33
f 334/75/33 343/76/33 333/77/33
f 333/77/33 343/76/33 344/78/33
f 333/77/33 344/78/33 332/79/33
f 332/79/33 344/78/33 345/80/33
f 332/79/33 345/80/33 331/81/33
f 331/81/33 345/80/33 346/82/33
f 331/81/33 346/82/33 330/83/33
f 330/83/33 346/82/33 347/84/33
f 330/83/33 347/84/33 329/85/33
f 329/85/33 347/84/33 348/86/33
f 329/85/33 348/86/33 328/87/33
f 328/87/33 348/86/33 349/88/33
f 328/87/33 349/88/33 327/89/33
f 327/89/33 349/88/33 350/90/33
f 327/89/33 350/90/33 326/91/33
f 326/91/33 350/90/33 351/92/33
f 326/91/33 351/92/33 325/93/33
f 325/93/33 351/92/33 352/94/33
f 325/93/33 352/94/33 324/95/33
f 324/95/33 352/94/33 321/96/33
f 324/95/33 321/96/33 323/97/33
f 323/97/33 321/96/33 322/98/33
f 370/99/34 368/100/34 369/101/34
f 368/100/34 370/99/34 371/102/34
f 368/100/34 371/102/34 367/103/34
f 367/103/34 371/102/34 372/104/34
f 367/103/34 372/104/34 366/105/34
f 366/105/34 372/104/34 373/106/34
f 366/105/34 373/106/34 365/107/34
f 365/107/34 373/106/34 374/108/34
f 365/107/34 374/108/34 364/109/34
f 364/109/34 374/108/34 375/110/34
f 364/109/34 375/110/34 363/111/34
f 363/111/34 375/110/34 376/112/34
f 363/111/34 376/112/34 362/113/34
f 362/113/34 376/112/34 377/114/34
f 362/113/34 377/114/34 361/115/34
f 361/115/34 377/114/34 378/116/34
f 361/115/34 378/116/34 360/117/34
f 360/117/34 378/116/34 379/118/34
f 360/117/34 379/118/34 359/119/34
f 359/119/34 379/118/34 380/120/34
f 359/119/34 380/120/34 358/121/34
f 358/121/34 380/120/34 381/122/34
f 358/121/34 381/122/34 357/123/34
f 357/123/34 381/122/34 382/124/34
f 357/123/34 382/124/34 356/125/34
f 356/125/34 382/124/34 383/126/34
f 356/125/34 383/126/34 355/127/34
f 355/127/34 383/126/34 384/128/34
f 355/127/34 384/128/34 354/129/34
f 354/129/34 384/128/34 353/130/34
