# Object Export From Tinkercad Server 2015

mtllib 10_Chairs_AIRPORT_0.mtl

o obj_0
v -0.2955 		-0.2101 		0.6563
v -0.2955 		-0.5 		0.6563
v -0.378 		-0.2101 		0.6563
v -0.378 		-0.5 		0.6563
v -0.378 		-0.2101 		0.7217
v -0.378 		-0.5 		0.7217
v -0.2955 		-0.2101 		0.7217
v -0.2955 		-0.5 		0.7217
# 8 vertices

g group_0_16768282

usemtl color_16768282
s 0

f 1 	2 	3
f 2 	4 	3
f 5 	6 	7
f 6 	8 	7
f 5 	7 	3
f 7 	1 	3
f 8 	6 	2
f 6 	4 	2
f 7 	8 	1
f 8 	2 	1
f 3 	4 	5
f 4 	6 	5
# 12 faces

 #end of obj_0

o obj_1
v 0.3643 		-0.2101 		-0.4896
v 0.3643 		-0.5 		-0.4896
v 0.3093 		-0.2101 		-0.4896
v 0.3093 		-0.5 		-0.4896
v 0.3093 		-0.2101 		-0.4241
v 0.3093 		-0.5 		-0.4241
v 0.3643 		-0.2101 		-0.4241
v 0.3643 		-0.5 		-0.4241
# 8 vertices

g group_1_16768282

usemtl color_16768282
s 0

f 9 	10 	11
f 10 	12 	11
f 13 	14 	15
f 14 	16 	15
f 13 	15 	11
f 15 	9 	11
f 16 	14 	10
f 14 	12 	10
f 15 	16 	9
f 16 	10 	9
f 11 	12 	13
f 12 	14 	13
# 12 faces

 #end of obj_1

o obj_2
v 0.323 		-0.2101 		0.7217
v 0.323 		-0.5 		0.7217
v 0.3918 		-0.2101 		0.7217
v 0.3918 		-0.5 		0.7217
v 0.3918 		-0.2101 		0.6563
v 0.3918 		-0.5 		0.6563
v 0.323 		-0.2101 		0.6563
v 0.323 		-0.5 		0.6563
# 8 vertices

g group_2_16768282

usemtl color_16768282
s 0

f 17 	18 	19
f 18 	20 	19
f 21 	22 	23
f 22 	24 	23
f 21 	23 	19
f 23 	17 	19
f 24 	22 	18
f 22 	20 	18
f 23 	24 	17
f 24 	18 	17
f 19 	20 	21
f 20 	22 	21
# 12 faces

 #end of obj_2

o obj_3
v -0.3505 		-0.2101 		-0.506
v -0.3505 		-0.5 		-0.506
v -0.4055 		-0.2101 		-0.506
v -0.4055 		-0.5 		-0.506
v -0.4055 		-0.2101 		-0.4568
v -0.4055 		-0.5 		-0.4568
v -0.3505 		-0.2101 		-0.4568
v -0.3505 		-0.5 		-0.4568
# 8 vertices

g group_3_16768282

usemtl color_16768282
s 0

f 25 	26 	27
f 26 	28 	27
f 29 	30 	31
f 30 	32 	31
f 29 	31 	27
f 31 	25 	27
f 32 	30 	26
f 30 	28 	26
f 31 	32 	25
f 32 	26 	25
f 27 	28 	29
f 28 	30 	29
# 12 faces

 #end of obj_3

o obj_4
v 0.6667 		-0.0942 		-0.8333
v 0.6667 		-0.1812 		-0.8333
v -0.6667 		-0.0942 		-0.8333
v -0.6667 		-0.1812 		-0.8333
v -0.6667 		-0.0942 		1
v -0.6667 		-0.1812 		1
v 0.6667 		-0.0942 		1
v 0.6667 		-0.1812 		1
# 8 vertices

g group_4_8768998

usemtl color_8768998
s 0

f 33 	34 	35
f 34 	36 	35
f 37 	38 	39
f 38 	40 	39
f 37 	39 	35
f 39 	33 	35
f 40 	38 	34
f 38 	36 	34
f 39 	40 	33
f 40 	34 	33
f 35 	36 	37
f 36 	38 	37
# 12 faces

 #end of obj_4

o obj_5
v 0.0347 		0.5 		-0.6536
v 0.0347 		-0.0942 		-0.6536
v -0.0344 		0.5 		-0.6536
v -0.0344 		-0.0942 		-0.6536
v -0.0344 		0.5 		0.7708
v -0.0344 		-0.0942 		0.7708
v 0.0347 		0.5 		0.7708
v 0.0347 		-0.0942 		0.7708
# 8 vertices

g group_5_8768998

usemtl color_8768998
s 0

f 41 	42 	43
f 42 	44 	43
f 45 	46 	47
f 46 	48 	47
f 45 	47 	43
f 47 	41 	43
f 48 	46 	42
f 46 	44 	42
f 47 	48 	41
f 48 	42 	41
f 43 	44 	45
f 44 	46 	45
# 12 faces

 #end of obj_5

