# Blender 5.2.0 LTS
# www.blender.org
mtllib 12_1_BaggageClaimBand_AIRPORT_0.mtl
o 12.1.BaggageClaimBand_AIRPORT_0
v -0.309893 1.506116 -1.105542
v -0.309893 1.280033 -1.328110
v -0.309893 1.042854 -0.858078
v 0.309893 0.772152 -0.991913
v 0.309893 0.837148 -0.937214
v 0.309893 0.737260 -0.876416
v -0.309893 1.506117 1.105541
v -0.309893 1.042854 0.858077
v -0.309893 1.280034 1.328109
v 0.309893 0.772153 0.991913
v 0.309893 0.737261 0.876415
v 0.309893 0.837149 0.937214
v 0.285853 -1.506117 -1.010251
v -0.061070 -1.506117 -1.010251
v -0.061070 1.116775 -1.010252
v 0.285853 0.788896 -1.010251
v -0.061070 1.116775 -1.010252
v -0.061070 -1.506117 -1.010251
v -0.061070 -1.506117 -1.328109
v -0.061070 1.280033 -1.328110
v -0.309893 1.042854 -0.858078
v 0.285853 0.714975 -0.858077
v 0.285853 0.714975 -0.000000
v -0.309893 1.042854 -0.000000
v 0.285853 0.852793 -0.947348
v -0.061070 1.180672 -0.947348
v -0.061070 1.180672 -0.000000
v 0.285853 0.852793 -0.000000
v 0.309893 0.837148 -0.937214
v 0.309893 0.837148 -0.000000
v -0.061070 -1.506117 -1.328109
v -0.309893 -1.506117 -1.328109
v -0.309893 1.280033 -1.328110
v -0.061070 1.280033 -1.328110
v -0.061070 1.506116 -1.105542
v -0.309893 1.506116 -1.105542
v -0.309893 1.506116 -0.000000
v -0.061070 1.506116 -0.000000
v -0.309893 -1.506117 -0.858077
v -0.309893 -1.506117 -1.328109
v -0.309893 1.042854 -0.000000
v -0.309893 1.506116 -0.000000
v -0.061070 1.180672 -0.000000
v -0.061070 1.180672 -0.947348
v -0.061070 1.506116 -1.105542
v -0.061070 1.506116 -0.000000
v -0.309893 1.506116 -1.105542
v -0.061070 1.506116 -1.105542
v 0.309893 0.772152 -0.991913
v -0.061070 1.116775 -1.010252
v -0.309893 -1.506117 -0.858077
v 0.285853 -1.506117 -0.858077
v 0.285853 0.714975 -0.858077
v -0.309893 1.042854 -0.858078
v 0.309893 -1.506117 -0.876415
v 0.309893 -1.506117 -0.991913
v 0.309893 0.837148 -0.000000
v 0.309893 0.737261 -0.000000
v 0.285853 0.714975 -0.858077
v 0.309893 0.737260 -0.876416
v 0.309893 0.737261 -0.000000
v 0.285853 0.714975 -0.000000
v 0.309893 -1.506117 -0.991913
v 0.309893 -1.506117 -0.876415
v 0.309893 0.737260 -0.876416
v -0.061070 -1.506117 -1.328109
v -0.061070 -1.506117 -1.010251
v -0.309893 -1.506117 -0.858077
v -0.309893 -1.506117 -1.328109
v 0.285853 -1.506117 -1.010251
v 0.285853 -1.506117 -0.858077
v 0.309893 -1.506117 -0.991913
v 0.309893 -1.506117 -0.876415
v 0.285853 -1.506116 1.010252
v 0.285853 0.788897 1.010251
v -0.061070 1.116775 1.010251
v -0.061070 -1.506116 1.010252
v -0.061070 1.116775 1.010251
v -0.061070 1.280034 1.328109
v -0.061070 -1.506116 1.328110
v -0.061070 -1.506116 1.010252
v -0.309893 1.042854 0.858077
v 0.285853 0.714976 0.858077
v 0.285853 0.852794 0.947347
v -0.061070 1.180672 0.947347
v 0.309893 0.837149 0.937214
v -0.061070 -1.506116 1.328110
v -0.061070 1.280034 1.328109
v -0.309893 1.280034 1.328109
v -0.309893 -1.506116 1.328110
v -0.061070 1.506117 1.105541
v -0.309893 1.506117 1.105541
v -0.309893 -1.506116 0.858078
v -0.309893 -1.506116 1.328110
v -0.061070 1.506117 1.105541
v -0.061070 1.180672 0.947347
v -0.309893 1.506117 1.105541
v -0.061070 1.506117 1.105541
v 0.309893 0.772153 0.991913
v -0.061070 1.116775 1.010251
v -0.309893 -1.506116 0.858078
v -0.309893 1.042854 0.858077
v 0.285853 0.714976 0.858077
v 0.285853 -1.506116 0.858078
v 0.309893 -1.506116 0.991914
v 0.309893 -1.506116 0.876416
v 0.285853 0.714976 0.858077
v 0.309893 0.737261 0.876415
v 0.309893 -1.506116 0.991914
v 0.309893 0.737261 0.876415
v 0.309893 -1.506116 0.876416
v -0.061070 -1.506116 1.328110
v -0.309893 -1.506116 1.328110
v -0.309893 -1.506116 0.858078
v -0.061070 -1.506116 1.010252
v 0.285853 -1.506116 0.858078
v 0.285853 -1.506116 1.010252
v 0.309893 -1.506116 0.876416
v 0.309893 -1.506116 0.991914
v 0.108649 0.459254 0.861482
v 0.108649 0.817509 0.861482
v 0.076141 0.817509 0.861482
v 0.076141 0.459289 0.861482
v 0.076141 0.459284 0.718608
v 0.076141 0.817509 0.718608
v 0.076141 0.817509 0.575733
v 0.076141 0.459289 0.575733
v 0.076141 0.459289 0.575733
v 0.076141 0.817509 0.575733
v 0.108649 0.817509 0.575733
v 0.108649 0.459254 0.575733
v 0.108649 0.817509 0.718608
v 0.129193 0.798288 0.845870
v 0.129193 0.798288 0.718608
v 0.108553 -0.571714 0.713954
v 0.118691 -0.578254 0.574597
v 0.154295 -0.578150 0.574570
v 0.141925 -0.571589 0.713777
v 0.076141 0.817509 0.718608
v 0.076141 0.817509 0.861482
v 0.129193 0.453238 0.718608
v 0.129193 0.798288 0.718608
v 0.129193 0.798288 0.845870
v 0.129193 0.453238 0.845870
v 0.129193 0.798288 0.591345
v 0.129193 0.453238 0.591346
v 0.126621 -0.438246 0.856072
v 0.128169 -0.566530 0.852662
v 0.149811 -0.546440 0.835526
v 0.148468 -0.422634 0.840909
v 0.178179 -0.558103 0.589902
v 0.162736 -0.552316 0.713724
v 0.108649 0.210992 0.861482
v 0.129193 0.210992 0.845870
v 0.129193 0.453238 0.845870
v 0.115596 -0.050039 0.575733
v 0.108793 0.210992 0.575733
v 0.129340 0.210992 0.591346
v 0.135878 -0.043607 0.591346
v 0.135174 -0.043585 0.718608
v 0.129277 0.210992 0.718608
v 0.129193 0.210992 0.845870
v 0.133396 -0.043585 0.845870
v 0.082984 -0.050036 0.575733
v 0.076275 0.210992 0.575733
v 0.081495 -0.049992 0.718608
v 0.076168 0.210992 0.718608
v 0.076275 0.210992 0.575733
v 0.082984 -0.050036 0.575733
v 0.112646 -0.049992 0.861482
v 0.076141 0.210992 0.861482
v 0.079637 -0.049992 0.861482
v 0.122530 -0.309923 0.859737
v 0.088592 -0.309989 0.859841
v 0.092204 -0.438474 0.856419
v 0.100743 -0.441650 0.715165
v 0.094286 -0.311555 0.717493
v 0.099692 -0.314101 0.575598
v 0.111557 -0.446850 0.574892
v 0.111557 -0.446850 0.574892
v 0.099692 -0.314101 0.575598
v 0.132594 -0.314109 0.575582
v 0.145055 -0.446808 0.574861
v 0.157944 -0.425590 0.715306
v 0.149431 -0.298695 0.717598
v 0.143732 -0.297293 0.844342
v 0.148468 -0.422634 0.840909
v 0.152085 -0.300821 0.591175
v 0.163922 -0.429954 0.590357
v 0.133396 -0.043585 0.845870
v 0.143732 -0.297293 0.844342
v 0.154295 -0.578150 0.574570
v 0.178179 -0.558103 0.589902
v 0.162736 -0.552316 0.713724
v 0.149811 -0.546440 0.835526
v 0.118691 -0.578254 0.574597
v 0.108553 -0.571714 0.713954
v 0.118691 -0.578254 0.574597
v 0.095515 -0.567243 0.853719
v 0.095515 -0.567243 0.853719
v 0.092204 -0.438474 0.856419
v 0.178179 -0.558103 0.589902
v 0.163922 -0.429954 0.590357
v 0.076141 0.210992 0.861482
v 0.076141 0.459289 0.861482
v 0.129340 0.210992 0.591346
v 0.129193 0.453238 0.591346
v 0.152085 -0.300821 0.591175
v 0.135878 -0.043607 0.591346
v 0.088592 -0.309989 0.859841
v 0.079637 -0.049992 0.861482
v 0.129193 0.798288 0.591345
v 0.076141 0.817509 0.575733
v 0.095515 -0.567243 0.853719
v 0.076141 0.817509 0.861482
v 0.108649 0.459254 0.575733
v 0.108649 0.817509 0.575733
v 0.076141 0.817509 0.575733
v 0.076141 0.459289 0.575733
v 0.076141 0.459284 0.432859
v 0.076141 0.817509 0.432859
v 0.076141 0.817509 0.289984
v 0.076141 0.459288 0.289984
v 0.076141 0.459288 0.289984
v 0.076141 0.817509 0.289984
v 0.108649 0.817509 0.289984
v 0.108649 0.459254 0.289984
v 0.108649 0.817509 0.432859
v 0.129193 0.798288 0.560121
v 0.129193 0.798288 0.432859
v 0.071504 -0.578291 0.432859
v 0.079231 -0.572123 0.289985
v 0.110772 -0.571490 0.289985
v 0.103781 -0.579195 0.432859
v 0.076141 0.817509 0.432859
v 0.076141 0.817509 0.575733
v 0.129193 0.453238 0.432859
v 0.129193 0.798288 0.432859
v 0.129193 0.798288 0.560121
v 0.129193 0.453238 0.560121
v 0.129193 0.798288 0.305597
v 0.129193 0.453238 0.305597
v 0.103753 -0.445489 0.574913
v 0.103035 -0.576497 0.574625
v 0.123435 -0.557815 0.559208
v 0.124109 -0.429501 0.559541
v 0.128248 -0.551882 0.305597
v 0.124256 -0.561168 0.432859
v 0.108649 0.210992 0.575733
v 0.129193 0.210992 0.560121
v 0.129193 0.453238 0.560121
v 0.108452 -0.050039 0.289984
v 0.108649 0.210992 0.289984
v 0.129193 0.210992 0.305597
v 0.128793 -0.043627 0.305597
v 0.128387 -0.043682 0.432859
v 0.129193 0.210992 0.432859
v 0.129193 0.210992 0.560121
v 0.128821 -0.043627 0.560121
v 0.075942 -0.050034 0.289984
v 0.076141 0.210992 0.289984
v 0.075498 -0.050108 0.432859
v 0.076141 0.210992 0.432859
v 0.076141 0.210992 0.289984
v 0.075942 -0.050034 0.289984
v 0.108321 -0.050039 0.575733
v 0.076141 0.210992 0.575733
v 0.075912 -0.050034 0.575733
v 0.105231 -0.313525 0.575596
v 0.073235 -0.313647 0.575620
v 0.071983 -0.445709 0.574988
v 0.074031 -0.446970 0.432859
v 0.074427 -0.313863 0.432859
v 0.079625 -0.311878 0.289985
v 0.080247 -0.442294 0.289985
v 0.080247 -0.442294 0.289985
v 0.079625 -0.311878 0.289985
v 0.112166 -0.311877 0.289985
v 0.112645 -0.442193 0.289985
v 0.125300 -0.429789 0.432859
v 0.126502 -0.300470 0.432859
v 0.125648 -0.300619 0.560071
v 0.124109 -0.429501 0.559541
v 0.131618 -0.299202 0.305597
v 0.131949 -0.426603 0.305597
v 0.128821 -0.043627 0.560121
v 0.125648 -0.300619 0.560071
v 0.124256 -0.561168 0.432859
v 0.123435 -0.557815 0.559208
v 0.079231 -0.572123 0.289985
v 0.071504 -0.578291 0.432859
v 0.079231 -0.572123 0.289985
v 0.070650 -0.576388 0.574722
v 0.070650 -0.576388 0.574722
v 0.071983 -0.445709 0.574988
v 0.128248 -0.551882 0.305597
v 0.131949 -0.426603 0.305597
v 0.076141 0.210992 0.575733
v 0.076141 0.459289 0.575733
v 0.129193 0.210992 0.305597
v 0.129193 0.453238 0.305597
v 0.131618 -0.299202 0.305597
v 0.128793 -0.043627 0.305597
v 0.073235 -0.313647 0.575620
v 0.075912 -0.050034 0.575733
v 0.129193 0.798288 0.305597
v 0.076141 0.817509 0.289984
v 0.070650 -0.576388 0.574722
v 0.076141 0.817509 0.575733
v 0.108649 0.459254 0.289984
v 0.108649 0.817509 0.289984
v 0.076141 0.817509 0.289984
v 0.076141 0.459288 0.289984
v 0.076141 0.459284 0.147110
v 0.076141 0.817509 0.147110
v 0.076141 0.817509 0.004235
v 0.076141 0.459288 0.004235
v 0.076141 0.459288 0.004235
v 0.076141 0.817509 0.004235
v 0.108649 0.817509 0.004235
v 0.108649 0.459253 0.004235
v 0.108649 0.817509 0.147110
v 0.129193 0.798288 0.274372
v 0.129193 0.798288 0.147110
v 0.128630 -0.574891 0.147110
v 0.141463 -0.572536 0.004236
v 0.177335 -0.572513 0.004236
v 0.163745 -0.574842 0.147110
v 0.076141 0.817509 0.147110
v 0.076141 0.817509 0.289984
v 0.129193 0.453238 0.147110
v 0.129193 0.798288 0.147110
v 0.129193 0.798288 0.274372
v 0.129193 0.453238 0.274372
v 0.129193 0.798288 0.019848
v 0.129193 0.453238 0.019848
v 0.133359 -0.447428 0.289985
v 0.137628 -0.579013 0.289985
v 0.160962 -0.559216 0.274372
v 0.155180 -0.430665 0.274372
v 0.197102 -0.553437 0.019848
v 0.186403 -0.555571 0.147110
v 0.108649 0.210992 0.289984
v 0.129193 0.210992 0.274372
v 0.129193 0.453238 0.274372
v 0.112456 -0.049992 0.004236
v 0.108649 0.210992 0.004236
v 0.129193 0.210992 0.019848
v 0.132683 -0.043585 0.019848
v 0.131706 -0.043585 0.147110
v 0.129193 0.210992 0.147110
v 0.129193 0.210992 0.274372
v 0.130130 -0.043607 0.274372
v 0.079874 -0.049992 0.004236
v 0.076141 0.210992 0.004236
v 0.078824 -0.049992 0.147110
v 0.076141 0.210992 0.147110
v 0.076141 0.210992 0.004236
v 0.079874 -0.049992 0.004236
v 0.109526 -0.050039 0.289984
v 0.076141 0.210992 0.289984
v 0.076988 -0.050035 0.289984
v 0.123414 -0.314214 0.289985
v 0.090172 -0.314174 0.289985
v 0.099462 -0.447390 0.289985
v 0.115491 -0.444007 0.147110
v 0.098801 -0.312319 0.147110
v 0.104635 -0.311111 0.004236
v 0.125709 -0.441932 0.004236
v 0.125709 -0.441932 0.004236
v 0.104635 -0.311111 0.004236
v 0.138086 -0.311111 0.004236
v 0.160262 -0.441921 0.004236
v 0.171085 -0.427813 0.147110
v 0.153245 -0.299380 0.147110
v 0.144307 -0.300948 0.274372
v 0.155180 -0.430665 0.274372
v 0.156936 -0.298332 0.019848
v 0.178263 -0.425993 0.019848
v 0.130130 -0.043607 0.274372
v 0.144307 -0.300948 0.274372
v 0.177335 -0.572513 0.004236
v 0.197102 -0.553437 0.019848
v 0.186403 -0.555571 0.147110
v 0.160962 -0.559216 0.274372
v 0.141463 -0.572536 0.004236
v 0.128630 -0.574891 0.147110
v 0.141463 -0.572536 0.004236
v 0.104464 -0.578993 0.289985
v 0.104464 -0.578993 0.289985
v 0.099462 -0.447390 0.289985
v 0.197102 -0.553437 0.019848
v 0.178263 -0.425993 0.019848
v 0.076141 0.210992 0.289984
v 0.076141 0.459288 0.289984
v 0.129193 0.210992 0.019848
v 0.129193 0.453238 0.019848
v 0.156936 -0.298332 0.019848
v 0.132683 -0.043585 0.019848
v 0.090172 -0.314174 0.289985
v 0.076988 -0.050035 0.289984
v 0.129193 0.798288 0.019848
v 0.076141 0.817509 0.004235
v 0.104464 -0.578993 0.289985
v 0.076141 0.817509 0.289984
v 0.108649 0.459253 0.004235
v 0.108649 0.817509 0.004235
v 0.076141 0.817509 0.004235
v 0.076141 0.459288 0.004235
v 0.076141 0.459284 -0.138639
v 0.076141 0.817509 -0.138639
v 0.076141 0.817509 -0.281514
v 0.076141 0.459288 -0.281513
v 0.076141 0.459288 -0.281513
v 0.076141 0.817509 -0.281514
v 0.108649 0.817509 -0.281514
v 0.108649 0.459253 -0.281513
v 0.108649 0.817509 -0.138639
v 0.129193 0.798288 -0.011377
v 0.129193 0.798288 -0.138639
v 0.101298 -0.571960 -0.138639
v 0.077836 -0.571960 -0.281513
v 0.108154 -0.571960 -0.281513
v 0.134356 -0.571960 -0.138639
v 0.076141 0.817509 -0.138639
v 0.076141 0.817509 0.004235
v 0.129193 0.453238 -0.138639
v 0.129193 0.798288 -0.138639
v 0.129193 0.798288 -0.011377
v 0.129193 0.453238 -0.011377
v 0.129193 0.798288 -0.265901
v 0.129193 0.453238 -0.265901
v 0.147538 -0.441927 0.004236
v 0.160085 -0.572527 0.004236
v 0.185360 -0.553147 -0.011377
v 0.165321 -0.425747 -0.011377
v 0.127447 -0.552739 -0.265901
v 0.155349 -0.552739 -0.138639
v 0.108649 0.210992 0.004236
v 0.129193 0.210992 -0.011377
v 0.129193 0.453238 -0.011377
v 0.112637 -0.049992 -0.281513
v 0.108689 0.210992 -0.281513
v 0.129214 0.210992 -0.265901
v 0.132869 -0.043585 -0.265901
v 0.132697 -0.043585 -0.138639
v 0.129193 0.210992 -0.138639
v 0.129193 0.210992 -0.011377
v 0.132727 -0.043585 -0.011377
v 0.080057 -0.049992 -0.281513
v 0.076178 0.210992 -0.281513
v 0.079857 -0.049992 -0.138639
v 0.076141 0.210992 -0.138639
v 0.076178 0.210992 -0.281513
v 0.080057 -0.049992 -0.281513
v 0.112456 -0.049992 0.004236
v 0.076141 0.210992 0.004236
v 0.079874 -0.049992 0.004236
v 0.132279 -0.311112 0.004236
v 0.099957 -0.311110 0.004236
v 0.114963 -0.441931 0.004236
v 0.102926 -0.441468 -0.138639
v 0.095273 -0.310976 -0.138639
v 0.086921 -0.310976 -0.281513
v 0.083570 -0.441468 -0.281513
v 0.083570 -0.441468 -0.281513
v 0.086921 -0.310976 -0.281513
v 0.119445 -0.310976 -0.281513
v 0.115727 -0.441468 -0.281513
v 0.152542 -0.425451 -0.138639
v 0.146292 -0.298162 -0.138639
v 0.151221 -0.298217 -0.011377
v 0.165321 -0.425747 -0.011377
v 0.140415 -0.298162 -0.265901
v 0.138139 -0.425451 -0.265901
v 0.132727 -0.043585 -0.011377
v 0.151221 -0.298217 -0.011377
v 0.155349 -0.552739 -0.138639
v 0.185360 -0.553147 -0.011377
v 0.077836 -0.571960 -0.281513
v 0.101298 -0.571960 -0.138639
v 0.077836 -0.571960 -0.281513
v 0.123821 -0.572539 0.004236
v 0.123821 -0.572539 0.004236
v 0.114963 -0.441931 0.004236
v 0.127447 -0.552739 -0.265901
v 0.138139 -0.425451 -0.265901
v 0.076141 0.210992 0.004236
v 0.076141 0.459288 0.004235
v 0.129214 0.210992 -0.265901
v 0.129193 0.453238 -0.265901
v 0.140415 -0.298162 -0.265901
v 0.132869 -0.043585 -0.265901
v 0.099957 -0.311110 0.004236
v 0.079874 -0.049992 0.004236
v 0.160085 -0.572527 0.004236
v 0.185360 -0.553147 -0.011377
v 0.129193 0.798288 -0.265901
v 0.076141 0.817509 -0.281514
v 0.123821 -0.572539 0.004236
v 0.076141 0.817509 0.004235
v 0.108649 0.459253 -0.281513
v 0.108649 0.817509 -0.281514
v 0.076141 0.817509 -0.281514
v 0.076141 0.459288 -0.281513
v 0.076141 0.459284 -0.424388
v 0.076141 0.817509 -0.424388
v 0.076141 0.817509 -0.567262
v 0.076141 0.459288 -0.567262
v 0.076141 0.459288 -0.567262
v 0.076141 0.817509 -0.567262
v 0.108649 0.817509 -0.567262
v 0.108649 0.459253 -0.567262
v 0.108649 0.817509 -0.424388
v 0.129193 0.798288 -0.297126
v 0.129193 0.798288 -0.424388
v 0.055637 -0.571960 -0.424388
v 0.060598 -0.571960 -0.567262
v 0.093123 -0.571960 -0.567262
v 0.088214 -0.571960 -0.424388
v 0.076141 0.817509 -0.424388
v 0.076141 0.817509 -0.281514
v 0.129193 0.453238 -0.424388
v 0.129193 0.798288 -0.424388
v 0.129193 0.798288 -0.297126
v 0.129193 0.453238 -0.297126
v 0.129193 0.798288 -0.551650
v 0.129193 0.453238 -0.551650
v 0.097806 -0.441468 -0.281513
v 0.083386 -0.571960 -0.281513
v 0.106923 -0.552739 -0.297126
v 0.118902 -0.425451 -0.297126
v 0.113841 -0.552739 -0.551650
v 0.109634 -0.552739 -0.424388
v 0.108642 0.210992 -0.281513
v 0.129210 0.210992 -0.297126
v 0.129193 0.453238 -0.297126
v 0.111402 -0.049992 -0.567262
v 0.109111 0.210992 -0.567262
v 0.129656 0.210992 -0.551650
v 0.131640 -0.043585 -0.551650
v 0.129249 -0.043585 -0.424388
v 0.129508 0.210992 -0.424388
v 0.129210 0.210992 -0.297126
v 0.127222 -0.043585 -0.297126
v 0.078982 -0.049992 -0.567262
v 0.076592 0.210992 -0.567262
v 0.076290 -0.049992 -0.424388
v 0.076453 0.210992 -0.424388
v 0.076592 0.210992 -0.567262
v 0.078982 -0.049992 -0.567262
v 0.106540 -0.049992 -0.281513
v 0.076133 0.210992 -0.281513
v 0.073978 -0.049992 -0.281513
v 0.104405 -0.310976 -0.281513
v 0.071617 -0.310976 -0.281513
v 0.064961 -0.441468 -0.281513
v 0.064625 -0.441468 -0.424388
v 0.072448 -0.310976 -0.424388
v 0.077389 -0.310976 -0.567262
v 0.067563 -0.441468 -0.567262
v 0.067563 -0.441468 -0.567262
v 0.077389 -0.310976 -0.567262
v 0.110662 -0.310976 -0.567262
v 0.100215 -0.441468 -0.567262
v 0.118023 -0.425451 -0.424388
v 0.125826 -0.298162 -0.424388
v 0.125034 -0.298162 -0.297126
v 0.118902 -0.425451 -0.297126
v 0.132714 -0.298162 -0.551650
v 0.121175 -0.425451 -0.551650
v 0.127222 -0.043585 -0.297126
v 0.125034 -0.298162 -0.297126
v 0.109634 -0.552739 -0.424388
v 0.106923 -0.552739 -0.297126
v 0.060598 -0.571960 -0.567262
v 0.055637 -0.571960 -0.424388
v 0.060598 -0.571960 -0.567262
v 0.053593 -0.571960 -0.281513
v 0.053593 -0.571960 -0.281513
v 0.064961 -0.441468 -0.281513
v 0.113841 -0.552739 -0.551650
v 0.121175 -0.425451 -0.551650
v 0.076133 0.210992 -0.281513
v 0.076141 0.459288 -0.281513
v 0.129656 0.210992 -0.551650
v 0.129193 0.453238 -0.551650
v 0.132714 -0.298162 -0.551650
v 0.131640 -0.043585 -0.551650
v 0.071617 -0.310976 -0.281513
v 0.073978 -0.049992 -0.281513
v 0.129193 0.798288 -0.551650
v 0.076141 0.817509 -0.567262
v 0.053593 -0.571960 -0.281513
v 0.076141 0.817509 -0.281514
v 0.108649 0.459253 -0.567262
v 0.108649 0.817509 -0.567262
v 0.076141 0.817509 -0.567262
v 0.076141 0.459288 -0.567262
v 0.076141 0.459284 -0.710137
v 0.076141 0.817509 -0.710137
v 0.076141 0.817509 -0.853011
v 0.076141 0.459288 -0.853011
v 0.076141 0.459288 -0.853011
v 0.076141 0.817509 -0.853011
v 0.108649 0.817509 -0.853011
v 0.108649 0.459253 -0.853011
v 0.108649 0.817509 -0.710137
v 0.129193 0.798288 -0.582875
v 0.129193 0.798288 -0.710137
v 0.102970 -0.571960 -0.710136
v 0.087759 -0.571960 -0.853011
v 0.120517 -0.571960 -0.853011
v 0.136304 -0.571960 -0.710136
v 0.076141 0.817509 -0.710137
v 0.076141 0.817509 -0.567262
v 0.129193 0.453238 -0.710137
v 0.129193 0.798288 -0.710137
v 0.129193 0.798288 -0.582875
v 0.129193 0.453238 -0.582875
v 0.129193 0.798288 -0.837399
v 0.129193 0.453238 -0.837399
v 0.147482 -0.441468 -0.567262
v 0.151849 -0.571960 -0.567262
v 0.175593 -0.552739 -0.582874
v 0.166452 -0.425451 -0.582874
v 0.142356 -0.552739 -0.837399
v 0.157295 -0.552739 -0.710136
v 0.109111 0.210992 -0.567262
v 0.129647 0.210992 -0.582874
v 0.129193 0.453238 -0.582875
v 0.111466 -0.049992 -0.853011
v 0.108657 0.210992 -0.853011
v 0.129214 0.210992 -0.837399
v 0.132402 -0.043585 -0.837399
v 0.136184 -0.043585 -0.710137
v 0.129451 0.210992 -0.710137
v 0.129647 0.210992 -0.582874
v 0.138675 -0.043585 -0.582874
v 0.078599 -0.049992 -0.853011
v 0.076148 0.210992 -0.853011
v 0.082725 -0.049992 -0.710137
v 0.076392 0.210992 -0.710137
v 0.076148 0.210992 -0.853011
v 0.078599 -0.049992 -0.853011
v 0.118654 -0.049992 -0.567262
v 0.076592 0.210992 -0.567262
v 0.086004 -0.049992 -0.567262
v 0.142157 -0.310976 -0.567262
v 0.108961 -0.310976 -0.567262
v 0.114085 -0.441468 -0.567262
v 0.097708 -0.441468 -0.710137
v 0.094828 -0.310976 -0.710137
v 0.083127 -0.310976 -0.853011
v 0.082876 -0.441468 -0.853011
v 0.082876 -0.441468 -0.853011
v 0.083127 -0.310976 -0.853011
v 0.116821 -0.310976 -0.853011
v 0.116132 -0.441468 -0.853011
v 0.154897 -0.425451 -0.710137
v 0.149939 -0.298162 -0.710137
v 0.160373 -0.298162 -0.582874
v 0.166452 -0.425451 -0.582874
v 0.138758 -0.298162 -0.837399
v 0.139336 -0.425451 -0.837399
v 0.138675 -0.043585 -0.582874
v 0.160373 -0.298162 -0.582874
v 0.157295 -0.552739 -0.710136
v 0.175593 -0.552739 -0.582874
v 0.087759 -0.571960 -0.853011
v 0.102970 -0.571960 -0.710136
v 0.087759 -0.571960 -0.853011
v 0.116564 -0.571960 -0.567262
v 0.116564 -0.571960 -0.567262
v 0.114085 -0.441468 -0.567262
v 0.142356 -0.552739 -0.837399
v 0.139336 -0.425451 -0.837399
v 0.076592 0.210992 -0.567262
v 0.076141 0.459288 -0.567262
v 0.129214 0.210992 -0.837399
v 0.129193 0.453238 -0.837399
v 0.138758 -0.298162 -0.837399
v 0.132402 -0.043585 -0.837399
v 0.108961 -0.310976 -0.567262
v 0.086004 -0.049992 -0.567262
v 0.151849 -0.571960 -0.567262
v 0.175593 -0.552739 -0.582874
v 0.129193 0.798288 -0.837399
v 0.076141 0.817509 -0.853011
v 0.116564 -0.571960 -0.567262
v 0.076141 0.817509 -0.567262
vn -1.0000 -0.0000 -0.0000
vn 1.0000 -0.0000 -0.0000
vn 0.3201 -0.0000 -0.9474
vn -0.0000 -0.0000 -1.0000
vn 0.4215 0.2605 -0.8686
vn -0.4822 -0.8761 -0.0000
vn 0.6436 0.6864 -0.3386
vn 0.6648 0.7034 -0.2513
vn 0.6869 0.7268 -0.0000
vn 0.6187 0.7856 -0.0000
vn 0.6381 0.7176 -0.2791
vn 0.5454 0.8381 -0.0000
vn -0.0000 0.3791 -0.9254
vn -0.0000 1.0000 -0.0000
vn -0.0000 0.7015 -0.7126
vn 0.6575 0.2232 -0.7196
vn 0.5526 0.5847 -0.5939
vn -0.0000 -0.0000 1.0000
vn 0.3201 -0.0000 0.9474
vn 0.3299 -0.0000 0.9440
vn 0.6798 -0.7334 -0.0000
vn 0.6065 -0.0000 -0.7951
vn 0.6065 -0.0000 0.7951
vn -0.0000 -1.0000 -0.0000
vn 0.4215 0.2605 0.8686
vn 0.6436 0.6864 0.3386
vn 0.6648 0.7034 0.2513
vn 0.6381 0.7176 0.2791
vn -0.0000 0.3791 0.9254
vn -0.0000 0.7015 0.7126
vn 0.6576 0.2232 0.7196
vn 0.5526 0.5847 0.5939
vn 0.3299 -0.0000 -0.9440
vn 0.3192 -0.0000 0.9477
vn 0.3646 0.6635 0.6533
vn 0.3646 0.6635 -0.6533
vn 0.3192 0.0001 -0.9477
vn 0.3673 0.9301 -0.0000
vn 0.7646 0.4207 0.4882
vn 0.6832 0.7302 -0.0000
vn 0.0086 -0.9991 0.0410
vn 0.0035 -0.9989 0.0473
vn 0.2981 -0.9515 0.0762
vn 0.3635 -0.9284 0.0775
vn 0.7646 0.4207 -0.4882
vn 0.6051 0.0002 -0.7962
vn 0.3234 -0.0209 0.9460
vn 0.3564 -0.6548 0.6664
vn 0.7485 -0.4161 0.5163
vn 0.5893 -0.0088 0.8078
vn 0.6369 -0.7640 0.1032
vn 0.6670 -0.7380 0.1023
vn 0.3170 0.0025 0.9484
vn 0.6036 0.0048 0.7973
vn 0.6051 -0.0000 0.7962
vn 0.3159 0.0152 -0.9487
vn 0.3169 0.0042 -0.9485
vn 0.6054 0.0081 -0.7959
vn 0.6053 0.0258 -0.7955
vn 0.9992 0.0379 0.0130
vn 0.9999 0.0112 0.0027
vn 0.9999 0.0100 0.0038
vn 0.9993 0.0338 0.0184
vn -0.0000 0.0002 -1.0000
vn -0.9993 -0.0343 -0.0155
vn -0.9999 -0.0101 -0.0032
vn -0.9999 -0.0116 -0.0029
vn -0.9991 -0.0395 -0.0146
vn 0.3112 0.0058 0.9503
vn 0.0007 -0.0032 1.0000
vn 0.3084 -0.0065 0.9512
vn 0.0040 -0.0168 0.9999
vn 0.0139 -0.0254 0.9996
vn -0.9967 -0.0513 -0.0631
vn -0.9980 -0.0509 -0.0386
vn -0.9973 -0.0625 -0.0398
vn -0.9960 -0.0625 -0.0640
vn -0.0009 0.0038 -1.0000
vn -0.0005 0.0028 -1.0000
vn 0.3145 0.0292 -0.9488
vn 0.2997 0.0310 -0.9535
vn 0.9963 0.0563 0.0655
vn 0.9977 0.0592 0.0334
vn 0.9978 0.0495 0.0438
vn 0.9966 0.0370 0.0736
vn 0.6029 0.0468 -0.7965
vn 0.5845 0.0578 -0.8093
vn 0.5965 0.0132 0.8025
vn 0.5856 0.0104 0.8105
vn 1.0000 0.0004 0.0001
vn 1.0000 0.0002 0.0002
vn -1.0000 -0.0001 -0.0000
vn -1.0000 -0.0003 -0.0003
vn 0.2323 0.0234 -0.9724
vn 0.5538 0.0525 -0.8310
vn 0.9951 0.0488 0.0859
vn 0.9958 0.0219 0.0894
vn -0.0008 0.0022 -1.0000
vn -0.9961 -0.0493 -0.0738
vn -0.9958 -0.0565 -0.0722
vn 0.0212 -0.0234 0.9995
vn -0.9963 -0.0416 -0.0753
vn -0.9973 -0.0396 -0.0620
vn 0.9939 0.0736 0.0826
vn 0.9954 0.0762 0.0581
vn -1.0000 -0.0085 -0.0034
vn 0.9999 0.0125 0.0016
vn 1.0000 0.0003 0.0001
vn 0.9973 0.0692 0.0226
vn 0.9991 0.0419 0.0078
vn -0.9985 -0.0397 -0.0376
vn -0.9994 -0.0292 -0.0164
vn 0.0134 -0.9993 0.0355
vn 0.3192 -0.0000 -0.9477
vn -0.0101 -0.9998 -0.0157
vn -0.0042 -0.9988 -0.0487
vn 0.3770 -0.6500 -0.6598
vn 0.3595 -0.9331 -0.0078
vn 0.6051 -0.0000 -0.7962
vn 0.3205 -0.0056 0.9472
vn 0.3533 -0.6634 0.6596
vn 0.7549 -0.4268 0.4980
vn 0.6076 -0.0090 0.7942
vn 0.7881 -0.3942 -0.4727
vn 0.6905 -0.7234 0.0021
vn 0.3194 -0.0002 0.9476
vn 0.6054 -0.0004 0.7959
vn 0.6050 -0.0000 0.7962
vn 0.3218 0.0022 -0.9468
vn 0.3196 -0.0002 -0.9475
vn 0.6061 -0.0004 -0.7954
vn 0.6104 0.0029 -0.7921
vn 1.0000 -0.0032 0.0058
vn 1.0000 -0.0013 0.0002
vn 1.0000 -0.0012 -0.0008
vn 1.0000 -0.0061 -0.0000
vn -1.0000 0.0013 -0.0057
vn -1.0000 0.0007 -0.0002
vn -1.0000 0.0007 -0.0009
vn -0.9999 -0.0017 -0.0106
vn 0.3212 -0.0027 0.9470
vn 0.0004 -0.0002 1.0000
vn 0.3214 -0.0065 0.9469
vn 0.0009 -0.0028 1.0000
vn 0.0024 -0.0035 1.0000
vn -0.9996 0.0086 -0.0275
vn -0.9998 0.0019 -0.0186
vn -0.9996 -0.0029 -0.0298
vn -0.9990 0.0062 -0.0440
vn 0.3306 0.0021 -0.9438
vn 0.3458 -0.0049 -0.9383
vn 0.9996 -0.0098 0.0258
vn 0.9998 -0.0055 0.0194
vn 0.9999 -0.0103 0.0049
vn 0.9999 -0.0087 0.0081
vn 0.6191 0.0057 -0.7853
vn 0.6357 -0.0032 -0.7719
vn 0.6066 -0.0037 0.7950
vn 0.6082 -0.0087 0.7938
vn 0.9996 -0.0125 0.0242
vn 0.9999 -0.0067 0.0081
vn -0.9995 0.0142 -0.0291
vn -0.9987 0.0136 -0.0482
vn 0.0027 -0.0021 1.0000
vn -0.9998 0.0148 -0.0104
vn -0.9999 0.0105 -0.0109
vn 0.9990 -0.0185 0.0409
vn 0.9990 -0.0108 0.0435
vn -1.0000 0.0008 0.0007
vn 1.0000 -0.0012 0.0008
vn 0.9994 -0.0007 0.0339
vn 0.9999 -0.0003 0.0116
vn -1.0000 0.0068 -0.0070
vn -1.0000 0.0044 -0.0006
vn -0.0156 -0.9997 0.0161
vn 0.0007 -0.9997 -0.0231
vn 0.0006 -0.9999 -0.0164
vn 0.3070 -0.9516 0.0120
vn 0.3642 -0.9308 0.0315
vn 0.2970 0.0156 0.9547
vn 0.3255 -0.6721 0.6651
vn 0.7200 -0.4293 0.5452
vn 0.5648 0.0371 0.8244
vn 0.6602 -0.7496 0.0470
vn 0.6624 -0.7455 0.0739
vn 0.3189 0.0006 0.9478
vn 0.6051 0.0011 0.7962
vn 0.3124 0.0190 -0.9497
vn 0.3185 0.0022 -0.9479
vn 0.6061 0.0043 -0.7954
vn 0.6066 0.0304 -0.7944
vn 0.9989 0.0444 0.0176
vn 1.0000 0.0047 0.0024
vn 1.0000 0.0034 0.0031
vn 0.9990 0.0381 0.0239
vn -0.9990 -0.0418 -0.0179
vn -1.0000 -0.0047 -0.0025
vn -1.0000 -0.0061 -0.0018
vn -0.9987 -0.0487 -0.0140
vn 0.3100 0.0099 0.9507
vn 0.3009 0.0210 0.9534
vn -0.9903 -0.1044 -0.0917
vn -0.9940 -0.0969 -0.0515
vn -0.9927 -0.1137 -0.0408
vn -0.9896 -0.1259 -0.0694
vn 0.3105 0.0438 -0.9496
vn 0.3150 0.0471 -0.9479
vn 0.9885 0.1187 0.0940
vn 0.9932 0.1051 0.0507
vn 0.9935 0.0898 0.0702
vn 0.9868 0.0954 0.1305
vn 0.6022 0.0745 -0.7949
vn 0.5938 0.0939 -0.7991
vn 0.5988 0.0149 0.8008
vn 0.5830 0.0366 0.8117
vn 0.2575 0.0358 -0.9656
vn 0.5888 0.0819 -0.8041
vn 0.9874 0.1067 0.1170
vn 0.9835 0.0810 0.1618
vn -0.9898 -0.0888 -0.1114
vn -0.9906 -0.1095 -0.0816
vn -0.9877 -0.0682 -0.1407
vn -0.9900 -0.0826 -0.1144
vn 0.9886 0.1322 0.0716
vn 0.9882 0.1417 0.0577
vn -1.0000 -0.0034 -0.0032
vn 1.0000 0.0059 0.0019
vn 0.9923 0.1202 0.0312
vn 0.9987 0.0506 0.0112
vn -0.9948 -0.0802 -0.0623
vn -0.9992 -0.0348 -0.0217
vn 0.0003 -0.9996 -0.0289
vn -0.0000 -1.0000 -0.0018
vn 0.3292 -0.6663 -0.6691
vn 0.3580 -0.9307 -0.0745
vn 0.6051 0.0001 -0.7962
vn 0.3006 0.0366 0.9531
vn 0.2407 0.0304 0.9701
vn 0.5476 0.0692 0.8339
vn 0.5913 0.0696 0.8034
vn 0.7487 -0.4066 -0.5236
vn 0.6568 -0.7418 -0.1352
vn 0.3180 0.0022 0.9481
vn 0.6059 0.0043 0.7955
vn 0.3168 0.0070 -0.9485
vn 0.3186 0.0024 -0.9479
vn 0.6062 0.0045 -0.7953
vn 0.6037 0.0123 -0.7971
vn 0.9994 0.0331 -0.0103
vn 1.0000 0.0070 0.0002
vn 1.0000 0.0069 -0.0000
vn 0.9992 0.0384 -0.0098
vn -0.9993 -0.0348 0.0110
vn -1.0000 -0.0072 -0.0001
vn -1.0000 -0.0073 -0.0004
vn -0.9995 -0.0286 0.0138
vn 0.3153 0.0152 0.9489
vn 0.3197 0.0317 0.9470
vn -0.9941 -0.0257 0.1057
vn -0.9973 -0.0533 0.0499
vn -0.9976 -0.0295 0.0626
vn -0.9925 0.0058 0.1225
vn 0.3172 -0.0015 -0.9484
vn 0.3262 -0.0183 -0.9451
vn 0.9921 0.0382 -0.1196
vn 0.9976 0.0498 -0.0476
vn 0.9965 0.0712 -0.0444
vn 0.9895 0.0839 -0.1176
vn 0.5959 0.0059 -0.8030
vn 0.6004 -0.0233 -0.7993
vn 0.6076 0.0245 0.7938
vn 0.6105 0.0543 0.7902
vn -1.0000 -0.0000 -0.0001
vn 0.9859 0.0291 -0.1647
vn 0.9824 0.0881 -0.1649
vn -0.9910 0.0002 0.1341
vn -0.9886 0.0279 0.1481
vn -0.9924 -0.0275 0.1199
vn -0.9944 -0.0567 0.0892
vn 0.9860 -0.0305 -0.1639
vn 0.9925 -0.0076 -0.1219
vn -1.0000 -0.0072 -0.0000
vn 1.0000 0.0072 0.0001
vn 1.0000 0.0001 -0.0000
vn 0.9983 0.0285 -0.0509
vn 0.9996 0.0278 -0.0108
vn -0.9963 -0.0771 0.0373
vn -0.9991 -0.0411 0.0082
vn 0.3062 -0.9496 -0.0668
vn 0.6094 -0.7824 -0.1286
vn 0.0003 -1.0000 -0.0040
vn -1.0000 -0.0004 -0.0002
vn -1.0000 -0.0007 -0.0002
vn 0.3191 0.0003 -0.9477
vn 0.3610 -0.6704 -0.6483
vn 0.3534 -0.9354 0.0109
vn 1.0000 0.0008 0.0001
vn 1.0000 0.0005 0.0004
vn 0.6052 0.0006 -0.7961
vn 0.3259 -0.0280 0.9450
vn 0.3370 -0.6749 0.6565
vn 0.7356 -0.4622 0.4953
vn 0.6099 -0.0399 0.7915
vn 0.7616 -0.4410 -0.4749
vn 0.6615 -0.7497 0.0204
vn 0.3197 -0.0013 0.9475
vn 0.6046 -0.0024 0.7965
vn 0.3170 0.0012 -0.9484
vn 0.3193 0.0016 -0.9476
vn 0.6062 0.0031 -0.7953
vn 0.6017 0.0031 -0.7987
vn 0.9999 -0.0042 0.0167
vn 1.0000 0.0003 0.0052
vn 1.0000 -0.0019 0.0052
vn 0.9999 -0.0077 0.0101
vn -0.9999 0.0056 -0.0142
vn -1.0000 -0.0005 -0.0052
vn -1.0000 -0.0029 -0.0051
vn -0.9998 0.0031 -0.0183
vn 0.3183 -0.0027 0.9480
vn 0.3258 -0.0115 0.9454
vn -0.9977 0.0654 -0.0157
vn -0.9992 0.0363 -0.0167
vn -0.9989 0.0389 -0.0271
vn -0.9976 0.0642 -0.0275
vn 0.3257 -0.0181 -0.9453
vn 0.3229 -0.0210 -0.9462
vn 0.9975 -0.0679 0.0187
vn 0.9991 -0.0366 0.0217
vn 0.9994 -0.0328 0.0054
vn 0.9977 -0.0672 0.0034
vn 0.5994 -0.0176 -0.8003
vn 0.6119 -0.0466 -0.7895
vn 0.6042 -0.0049 0.7968
vn 0.6072 -0.0137 0.7944
vn 0.9973 -0.0707 0.0180
vn 0.9968 -0.0798 0.0072
vn -0.9974 0.0694 -0.0168
vn -0.9978 0.0610 -0.0276
vn -0.9969 0.0779 -0.0058
vn -0.9978 0.0666 -0.0038
vn 0.9977 -0.0616 0.0289
vn 0.9971 -0.0686 0.0341
vn -1.0000 0.0019 -0.0051
vn -1.0000 -0.0002 -0.0004
vn 1.0000 0.0025 0.0053
vn 1.0000 0.0010 -0.0000
vn 0.9985 -0.0401 0.0379
vn 0.9997 -0.0006 0.0232
vn -0.9994 0.0336 -0.0064
vn -0.9999 0.0081 -0.0101
vn 0.3191 0.0003 0.9477
vn -1.0000 -0.0006 0.0001
vn -1.0000 -0.0003 0.0003
vn 0.3393 -0.6607 -0.6696
vn 0.3526 -0.9348 -0.0420
vn 1.0000 0.0004 -0.0001
vn 1.0000 0.0007 -0.0002
vn 0.6050 -0.0000 -0.7962
vn 0.3123 0.0155 0.9499
vn 0.2371 0.0124 0.9714
vn 0.5736 0.0301 0.8186
vn 0.6116 0.0286 0.7906
vn 0.7331 -0.4177 -0.5367
vn 0.6564 -0.7503 -0.0785
vn 0.3170 0.0060 0.9484
vn 0.6064 0.0116 0.7950
vn 0.6052 0.0007 0.7961
vn 0.3104 0.0056 -0.9506
vn 0.3170 0.0018 -0.9484
vn 0.6028 0.0035 -0.7979
vn 0.5939 0.0097 -0.8045
vn 0.9986 0.0398 -0.0339
vn 0.9999 0.0131 -0.0070
vn 0.9999 0.0162 -0.0057
vn 0.9983 0.0502 -0.0306
vn -0.9987 -0.0364 0.0359
vn -0.9999 -0.0122 0.0072
vn -0.9999 -0.0087 0.0081
vn -0.9991 -0.0243 0.0353
vn 0.3185 0.0208 0.9477
vn 0.3357 0.0200 0.9418
vn -0.9944 -0.0272 0.1019
vn -0.9963 -0.0348 0.0787
vn -0.9970 -0.0209 0.0739
vn -0.9948 -0.0243 0.0985
vn 0.3036 0.0025 -0.9528
vn 0.2917 0.0055 -0.9565
vn 0.9938 0.0327 -0.1064
vn 0.9962 0.0434 -0.0750
vn 0.9961 0.0562 -0.0684
vn 0.9939 0.0441 -0.1013
vn 0.5791 0.0084 -0.8152
vn 0.5663 0.0053 -0.8242
vn 0.6111 0.0359 0.7908
vn 0.6206 0.0446 0.7829
vn 0.9925 0.0331 -0.1177
vn 0.9922 0.0450 -0.1164
vn -0.9940 -0.0341 0.1044
vn -0.9938 -0.0386 0.1045
vn -0.9941 -0.0295 0.1043
vn -0.9940 -0.0300 0.1052
vn 0.9927 0.0211 -0.1190
vn 0.9935 0.0214 -0.1117
vn -0.9999 -0.0158 0.0064
vn -1.0000 -0.0007 0.0004
vn 0.9999 0.0100 -0.0083
vn 1.0000 0.0003 -0.0004
vn 0.9962 0.0305 -0.0816
vn 0.9989 0.0294 -0.0372
vn -0.9953 -0.0486 0.0836
vn -0.9982 -0.0486 0.0365
vn 0.3011 -0.9528 -0.0377
vn 0.6336 -0.7696 -0.0794
vt 0.781908 0.091037
vt 0.844891 0.091838
vt 0.719896 0.092692
vt 0.719896 0.092692
vt 0.719896 0.092691
vt 0.719896 0.092691
vt 0.719896 0.092691
vt 0.719896 0.092691
vt 0.719896 0.092691
vt 0.719896 0.092691
vt 0.719896 0.092691
vt 0.719896 0.092691
vt 0.719896 0.092691
vt 0.719896 0.092691
vt 0.719895 0.092691
vt 0.719895 0.092691
vt 0.719895 0.092691
vt 0.719895 0.092691
vt 0.719896 0.092691
vt 0.719896 0.092691
vt 0.719896 0.092691
vt 0.719896 0.092691
vt 0.719896 0.092691
vt 0.719896 0.092691
vt 0.719895 0.092692
vt 0.719896 0.092692
vt 0.719896 0.092691
vt 0.719896 0.092691
vt 0.719896 0.092691
vt 0.719896 0.092691
vt 0.719896 0.092691
vt 0.719896 0.092691
vt 0.719895 0.092691
vt 0.719895 0.092691
vt 0.719895 0.092691
vt 0.719895 0.092691
vt 0.719895 0.092691
vt 0.719895 0.092691
s 0
usemtl AIRPORT
f 1/1/1 2/1/1 3/1/1
f 4/1/2 5/1/2 6/1/2
f 7/1/1 8/1/1 9/1/1
f 10/1/2 11/1/2 12/1/2
s 1
f 13/1/3 14/1/4 15/1/4
f 13/1/3 15/1/4 16/1/5
s 0
f 17/2/2 18/2/2 19/2/2
f 17/2/2 19/2/2 20/2/2
s 1
f 21/1/6 22/1/6 23/1/6
f 21/1/6 23/1/6 24/1/6
f 25/1/7 26/1/8 27/1/9
f 25/1/7 27/1/9 28/1/10
f 29/1/11 25/1/7 28/1/10
f 29/1/11 28/1/10 30/1/12
f 31/2/4 32/2/4 33/2/13
f 31/2/4 33/2/13 34/2/13
s 0
f 35/2/14 36/2/14 37/2/14
f 35/2/14 37/2/14 38/2/14
f 39/1/1 3/1/1 2/1/1
f 39/1/1 2/1/1 40/1/1
f 3/1/1 41/1/1 42/1/1
f 3/1/1 42/1/1 1/1/1
f 43/2/2 44/2/2 45/2/2
f 43/2/2 45/2/2 46/2/2
f 20/2/2 45/2/2 44/2/2
f 20/2/2 44/2/2 17/2/2
s 1
f 47/2/15 48/2/15 34/2/13
f 47/2/15 34/2/13 33/2/13
f 16/1/5 25/1/7 29/1/11
f 16/1/5 29/1/11 49/1/16
f 26/1/8 25/1/7 16/1/5
f 26/1/8 16/1/5 50/1/17
f 51/1/18 52/1/19 53/1/20
f 51/1/18 53/1/20 54/1/18
s 0
f 6/1/2 55/1/2 56/1/2
f 6/1/2 56/1/2 4/1/2
f 6/1/2 5/1/2 57/1/2
f 6/1/2 57/1/2 58/1/2
f 59/1/21 60/1/21 61/1/21
f 59/1/21 61/1/21 62/1/21
s 1
f 49/1/16 63/1/22 13/1/3
f 49/1/16 13/1/3 16/1/5
f 52/1/19 64/1/23 65/1/23
f 52/1/19 65/1/23 53/1/20
s 0
f 66/2/24 67/2/24 68/2/24
f 66/2/24 68/2/24 69/2/24
f 67/2/24 70/2/24 71/2/24
f 67/2/24 71/2/24 68/2/24
f 70/2/24 72/2/24 73/2/24
f 70/2/24 73/2/24 71/2/24
s 1
f 74/1/19 75/1/25 76/1/18
f 74/1/19 76/1/18 77/1/18
s 0
f 78/2/2 79/2/2 80/2/2
f 78/2/2 80/2/2 81/2/2
s 1
f 82/1/6 24/1/6 23/1/6
f 82/1/6 23/1/6 83/1/6
f 84/1/26 28/1/10 27/1/9
f 84/1/26 27/1/9 85/1/27
f 86/1/28 30/1/12 28/1/10
f 86/1/28 28/1/10 84/1/26
f 87/2/18 88/2/29 89/2/29
f 87/2/18 89/2/29 90/2/18
s 0
f 91/2/14 38/2/14 37/2/14
f 91/2/14 37/2/14 92/2/14
f 93/1/1 94/1/1 9/1/1
f 93/1/1 9/1/1 8/1/1
f 8/1/1 7/1/1 42/1/1
f 8/1/1 42/1/1 41/1/1
f 43/2/2 46/2/2 95/2/2
f 43/2/2 95/2/2 96/2/2
f 79/2/2 78/2/2 96/2/2
f 79/2/2 96/2/2 95/2/2
s 1
f 97/2/30 89/2/29 88/2/29
f 97/2/30 88/2/29 98/2/30
f 75/1/25 99/1/31 86/1/28
f 75/1/25 86/1/28 84/1/26
f 85/1/27 100/1/32 75/1/25
f 85/1/27 75/1/25 84/1/26
f 101/1/4 102/1/4 103/1/33
f 101/1/4 103/1/33 104/1/3
s 0
f 11/1/2 10/1/2 105/1/2
f 11/1/2 105/1/2 106/1/2
f 11/1/2 58/1/2 57/1/2
f 11/1/2 57/1/2 12/1/2
f 107/1/21 62/1/21 61/1/21
f 107/1/21 61/1/21 108/1/21
s 1
f 99/1/31 75/1/25 74/1/19
f 99/1/31 74/1/19 109/1/23
f 104/1/3 103/1/33 110/1/22
f 104/1/3 110/1/22 111/1/22
s 0
f 112/2/24 113/2/24 114/2/24
f 112/2/24 114/2/24 115/2/24
f 115/2/24 114/2/24 116/2/24
f 115/2/24 116/2/24 117/2/24
f 117/2/24 116/2/24 118/2/24
f 117/2/24 118/2/24 119/2/24
s 1
f 120/3/34 121/4/35 122/5/18
f 120/3/34 122/5/18 123/6/18
s 0
f 124/7/1 125/8/1 126/9/1
f 124/7/1 126/9/1 127/10/1
s 1
f 128/10/4 129/9/4 130/11/36
f 128/10/4 130/11/36 131/12/37
f 132/13/38 121/4/35 133/14/39
f 132/13/38 133/14/39 134/13/40
f 135/15/41 136/16/42 137/17/43
f 135/15/41 137/17/43 138/18/44
f 139/19/14 140/20/14 121/4/35
f 139/19/14 121/4/35 132/13/38
s 0
f 141/21/2 142/22/2 143/23/2
f 141/21/2 143/23/2 144/24/2
s 1
f 131/12/37 130/11/36 145/11/45
f 131/12/37 145/11/45 146/12/46
f 147/25/47 148/25/48 149/25/49
f 147/25/47 149/25/49 150/25/50
f 138/18/44 137/17/43 151/17/51
f 138/18/44 151/17/51 152/18/52
f 120/3/34 153/26/53 154/26/54
f 120/3/34 154/26/54 155/3/55
f 156/27/56 157/27/57 158/27/58
f 156/27/56 158/27/58 159/27/59
f 160/28/60 161/28/61 162/29/62
f 160/28/60 162/29/62 163/29/63
f 164/30/64 165/30/4 157/27/57
f 164/30/64 157/27/57 156/27/56
f 166/31/65 167/31/66 168/30/67
f 166/31/65 168/30/67 169/30/68
f 170/26/69 153/26/53 171/32/18
f 170/26/69 171/32/18 172/32/70
f 147/25/47 173/25/71 174/33/72
f 147/25/47 174/33/72 175/33/73
f 173/25/71 170/26/69 172/32/70
f 173/25/71 172/32/70 174/33/72
f 176/34/74 177/34/75 178/16/76
f 176/34/74 178/16/76 179/16/77
f 177/34/75 166/31/65 169/30/68
f 177/34/75 169/30/68 178/16/76
f 180/16/78 181/16/79 182/17/80
f 180/16/78 182/17/80 183/17/81
f 181/16/79 164/30/64 156/27/56
f 181/16/79 156/27/56 182/17/80
f 184/35/82 185/35/83 186/36/84
f 184/35/82 186/36/84 187/36/85
f 185/35/83 160/28/60 163/29/63
f 185/35/83 163/29/63 186/36/84
f 183/17/81 182/17/80 188/17/86
f 183/17/81 188/17/86 189/17/87
f 182/17/80 156/27/56 159/27/59
f 182/17/80 159/27/59 188/17/86
f 153/26/53 170/26/69 190/26/88
f 153/26/53 190/26/88 154/26/54
f 170/26/69 173/25/71 191/25/89
f 170/26/69 191/25/89 190/26/88
f 121/4/35 120/3/34 155/3/55
f 121/4/35 155/3/55 133/14/39
f 157/27/57 131/12/37 146/12/46
f 157/27/57 146/12/46 158/27/58
f 161/28/61 141/21/90 144/24/91
f 161/28/61 144/24/91 162/29/62
f 165/30/4 128/10/4 131/12/37
f 165/30/4 131/12/37 157/27/57
f 167/31/66 124/7/92 127/10/93
f 167/31/66 127/10/93 168/30/67
f 153/26/53 120/3/34 123/6/18
f 153/26/53 123/6/18 171/32/18
f 192/17/94 183/17/81 189/17/87
f 192/17/94 189/17/87 193/17/95
f 194/35/96 184/35/82 187/36/85
f 194/35/96 187/36/85 195/36/97
f 196/16/98 180/16/78 183/17/81
f 196/16/98 183/17/81 192/17/94
f 197/34/99 176/34/74 179/16/77
f 197/34/99 179/16/77 198/16/100
f 148/25/48 147/25/47 175/33/73
f 148/25/48 175/33/73 199/33/101
f 173/25/71 147/25/47 150/25/50
f 173/25/71 150/25/50 191/25/89
f 200/33/102 201/33/103 176/34/74
f 200/33/102 176/34/74 197/34/99
f 202/17/104 203/17/105 184/35/82
f 202/17/104 184/35/82 194/35/96
f 204/32/106 205/6/1 124/7/92
f 204/32/106 124/7/92 167/31/66
f 206/27/107 207/12/108 141/21/90
f 206/27/107 141/21/90 161/28/61
f 208/17/109 209/27/110 160/28/60
f 208/17/109 160/28/60 185/35/83
f 203/17/105 208/17/109 185/35/83
f 203/17/105 185/35/83 184/35/82
f 210/33/111 211/32/112 166/31/65
f 210/33/111 166/31/65 177/34/75
f 201/33/103 210/33/111 177/34/75
f 201/33/103 177/34/75 176/34/74
f 211/32/112 204/32/106 167/31/66
f 211/32/112 167/31/66 166/31/65
f 209/27/110 206/27/107 161/28/61
f 209/27/110 161/28/61 160/28/60
f 148/25/48 138/18/44 152/18/52
f 148/25/48 152/18/52 149/25/49
s 0
f 207/12/2 212/11/2 142/22/2
f 207/12/2 142/22/2 141/21/2
s 1
f 213/9/14 139/19/14 132/13/38
f 213/9/14 132/13/38 130/11/36
f 214/37/113 135/15/41 138/18/44
f 214/37/113 138/18/44 148/25/48
f 130/11/36 132/13/38 134/13/40
f 130/11/36 134/13/40 145/11/45
s 0
f 205/6/1 215/5/1 125/8/1
f 205/6/1 125/8/1 124/7/1
s 1
f 216/3/34 217/4/35 218/5/18
f 216/3/34 218/5/18 219/6/18
s 0
f 220/7/1 221/8/1 222/9/1
f 220/7/1 222/9/1 223/10/1
s 1
f 224/10/4 225/9/4 226/11/36
f 224/10/4 226/11/36 227/12/114
f 228/13/38 217/4/35 229/14/39
f 228/13/38 229/14/39 230/13/40
f 231/15/115 232/16/116 233/17/117
f 231/15/115 233/17/117 234/18/118
f 235/19/14 236/20/14 217/4/35
f 235/19/14 217/4/35 228/13/38
s 0
f 237/21/2 238/22/2 239/23/2
f 237/21/2 239/23/2 240/24/2
s 1
f 227/12/114 226/11/36 241/11/45
f 227/12/114 241/11/45 242/12/119
f 243/25/120 244/25/121 245/25/122
f 243/25/120 245/25/122 246/25/123
f 234/18/118 233/17/117 247/17/124
f 234/18/118 247/17/124 248/18/125
f 216/3/34 249/26/126 250/26/127
f 216/3/34 250/26/127 251/3/128
f 252/27/129 253/27/130 254/27/131
f 252/27/129 254/27/131 255/27/132
f 256/28/133 257/28/134 258/29/135
f 256/28/133 258/29/135 259/29/136
f 260/30/4 261/30/4 253/27/130
f 260/30/4 253/27/130 252/27/129
f 262/31/137 263/31/138 264/30/139
f 262/31/137 264/30/139 265/30/140
f 266/26/141 249/26/126 267/32/18
f 266/26/141 267/32/18 268/32/142
f 243/25/120 269/25/143 270/33/144
f 243/25/120 270/33/144 271/33/145
f 269/25/143 266/26/141 268/32/142
f 269/25/143 268/32/142 270/33/144
f 272/34/146 273/34/147 274/16/148
f 272/34/146 274/16/148 275/16/149
f 273/34/147 262/31/137 265/30/140
f 273/34/147 265/30/140 274/16/148
f 276/16/4 277/16/4 278/17/150
f 276/16/4 278/17/150 279/17/151
f 277/16/4 260/30/4 252/27/129
f 277/16/4 252/27/129 278/17/150
f 280/35/152 281/35/153 282/36/154
f 280/35/152 282/36/154 283/36/155
f 281/35/153 256/28/133 259/29/136
f 281/35/153 259/29/136 282/36/154
f 279/17/151 278/17/150 284/17/156
f 279/17/151 284/17/156 285/17/157
f 278/17/150 252/27/129 255/27/132
f 278/17/150 255/27/132 284/17/156
f 249/26/126 266/26/141 286/26/158
f 249/26/126 286/26/158 250/26/127
f 266/26/141 269/25/143 287/25/159
f 266/26/141 287/25/159 286/26/158
f 217/4/35 216/3/34 251/3/128
f 217/4/35 251/3/128 229/14/39
f 253/27/130 227/12/114 242/12/119
f 253/27/130 242/12/119 254/27/131
f 257/28/134 237/21/2 240/24/2
f 257/28/134 240/24/2 258/29/135
f 261/30/4 224/10/4 227/12/114
f 261/30/4 227/12/114 253/27/130
f 263/31/138 220/7/1 223/10/1
f 263/31/138 223/10/1 264/30/139
f 249/26/126 216/3/34 219/6/18
f 249/26/126 219/6/18 267/32/18
f 233/17/117 279/17/151 285/17/157
f 233/17/117 285/17/157 247/17/124
f 288/35/160 280/35/152 283/36/155
f 288/35/160 283/36/155 289/36/161
f 290/16/4 276/16/4 279/17/151
f 290/16/4 279/17/151 233/17/117
f 291/34/162 272/34/146 275/16/149
f 291/34/162 275/16/149 292/16/163
f 244/25/121 243/25/120 271/33/145
f 244/25/121 271/33/145 293/33/164
f 269/25/143 243/25/120 246/25/123
f 269/25/143 246/25/123 287/25/159
f 294/33/165 295/33/166 272/34/146
f 294/33/165 272/34/146 291/34/162
f 296/17/167 297/17/168 280/35/152
f 296/17/167 280/35/152 288/35/160
f 298/32/169 299/6/1 220/7/1
f 298/32/169 220/7/1 263/31/138
f 300/27/170 301/12/2 237/21/2
f 300/27/170 237/21/2 257/28/134
f 302/17/171 303/27/172 256/28/133
f 302/17/171 256/28/133 281/35/153
f 297/17/168 302/17/171 281/35/153
f 297/17/168 281/35/153 280/35/152
f 304/33/173 305/32/174 262/31/137
f 304/33/173 262/31/137 273/34/147
f 295/33/166 304/33/173 273/34/147
f 295/33/166 273/34/147 272/34/146
f 305/32/174 298/32/169 263/31/138
f 305/32/174 263/31/138 262/31/137
f 303/27/172 300/27/170 257/28/134
f 303/27/172 257/28/134 256/28/133
f 244/25/121 234/18/118 248/18/125
f 244/25/121 248/18/125 245/25/122
s 0
f 301/12/2 306/11/2 238/22/2
f 301/12/2 238/22/2 237/21/2
s 1
f 307/9/14 235/19/14 228/13/38
f 307/9/14 228/13/38 226/11/36
f 308/37/175 231/15/115 234/18/118
f 308/37/175 234/18/118 244/25/121
f 226/11/36 228/13/38 230/13/40
f 226/11/36 230/13/40 241/11/45
s 0
f 299/6/1 309/5/1 221/8/1
f 299/6/1 221/8/1 220/7/1
s 1
f 310/3/34 311/4/35 312/5/18
f 310/3/34 312/5/18 313/6/18
s 0
f 314/7/1 315/8/1 316/9/1
f 314/7/1 316/9/1 317/10/1
s 1
f 318/10/4 319/9/4 320/11/36
f 318/10/4 320/11/36 321/12/114
f 322/13/38 311/4/35 323/14/39
f 322/13/38 323/14/39 324/13/40
f 325/15/176 326/16/177 327/17/178
f 325/15/176 327/17/178 328/18/179
f 329/19/14 330/20/14 311/4/35
f 329/19/14 311/4/35 322/13/38
s 0
f 331/21/2 332/22/2 333/23/2
f 331/21/2 333/23/2 334/24/2
s 1
f 321/12/114 320/11/36 335/11/45
f 321/12/114 335/11/45 336/12/119
f 337/25/180 338/25/181 339/25/182
f 337/25/180 339/25/182 340/25/183
f 328/18/179 327/17/178 341/17/184
f 328/18/179 341/17/184 342/18/185
f 310/3/34 343/26/186 344/26/187
f 310/3/34 344/26/187 345/3/55
f 346/27/188 347/27/189 348/27/190
f 346/27/188 348/27/190 349/27/191
f 350/28/192 351/28/193 352/29/194
f 350/28/192 352/29/194 353/29/195
f 354/30/4 355/30/4 347/27/189
f 354/30/4 347/27/189 346/27/188
f 356/31/196 357/31/197 358/30/198
f 356/31/196 358/30/198 359/30/199
f 360/26/200 343/26/186 361/32/18
f 360/26/200 361/32/18 362/32/18
f 337/25/180 363/25/201 364/33/18
f 337/25/180 364/33/18 365/33/18
f 363/25/201 360/26/200 362/32/18
f 363/25/201 362/32/18 364/33/18
f 366/34/202 367/34/203 368/16/204
f 366/34/202 368/16/204 369/16/205
f 367/34/203 356/31/196 359/30/199
f 367/34/203 359/30/199 368/16/204
f 370/16/4 371/16/4 372/17/206
f 370/16/4 372/17/206 373/17/207
f 371/16/4 354/30/4 346/27/188
f 371/16/4 346/27/188 372/17/206
f 374/35/208 375/35/209 376/36/210
f 374/35/208 376/36/210 377/36/211
f 375/35/209 350/28/192 353/29/195
f 375/35/209 353/29/195 376/36/210
f 373/17/207 372/17/206 378/17/212
f 373/17/207 378/17/212 379/17/213
f 372/17/206 346/27/188 349/27/191
f 372/17/206 349/27/191 378/17/212
f 343/26/186 360/26/200 380/26/214
f 343/26/186 380/26/214 344/26/187
f 360/26/200 363/25/201 381/25/215
f 360/26/200 381/25/215 380/26/214
f 311/4/35 310/3/34 345/3/55
f 311/4/35 345/3/55 323/14/39
f 347/27/189 321/12/114 336/12/119
f 347/27/189 336/12/119 348/27/190
f 351/28/193 331/21/2 334/24/2
f 351/28/193 334/24/2 352/29/194
f 355/30/4 318/10/4 321/12/114
f 355/30/4 321/12/114 347/27/189
f 357/31/197 314/7/1 317/10/1
f 357/31/197 317/10/1 358/30/198
f 343/26/186 310/3/34 313/6/18
f 343/26/186 313/6/18 361/32/18
f 382/17/216 373/17/207 379/17/213
f 382/17/216 379/17/213 383/17/217
f 384/35/218 374/35/208 377/36/211
f 384/35/218 377/36/211 385/36/219
f 386/16/4 370/16/4 373/17/207
f 386/16/4 373/17/207 382/17/216
f 387/34/220 366/34/202 369/16/205
f 387/34/220 369/16/205 388/16/221
f 338/25/181 337/25/180 365/33/18
f 338/25/181 365/33/18 389/33/18
f 363/25/201 337/25/180 340/25/183
f 363/25/201 340/25/183 381/25/215
f 390/33/222 391/33/223 366/34/202
f 390/33/222 366/34/202 387/34/220
f 392/17/224 393/17/225 374/35/208
f 392/17/224 374/35/208 384/35/218
f 394/32/226 395/6/1 314/7/1
f 394/32/226 314/7/1 357/31/197
f 396/27/227 397/12/2 331/21/2
f 396/27/227 331/21/2 351/28/193
f 398/17/228 399/27/229 350/28/192
f 398/17/228 350/28/192 375/35/209
f 393/17/225 398/17/228 375/35/209
f 393/17/225 375/35/209 374/35/208
f 400/33/230 401/32/231 356/31/196
f 400/33/230 356/31/196 367/34/203
f 391/33/223 400/33/230 367/34/203
f 391/33/223 367/34/203 366/34/202
f 401/32/231 394/32/226 357/31/197
f 401/32/231 357/31/197 356/31/196
f 399/27/229 396/27/227 351/28/193
f 399/27/229 351/28/193 350/28/192
f 338/25/181 328/18/179 342/18/185
f 338/25/181 342/18/185 339/25/182
s 0
f 397/12/2 402/11/2 332/22/2
f 397/12/2 332/22/2 331/21/2
s 1
f 403/9/14 329/19/14 322/13/38
f 403/9/14 322/13/38 320/11/36
f 404/37/232 325/15/176 328/18/179
f 404/37/232 328/18/179 338/25/181
f 320/11/36 322/13/38 324/13/40
f 320/11/36 324/13/40 335/11/45
s 0
f 395/6/1 405/5/1 315/8/1
f 395/6/1 315/8/1 314/7/1
s 1
f 406/3/34 407/4/35 408/5/18
f 406/3/34 408/5/18 409/6/18
s 0
f 410/7/1 411/8/1 412/9/1
f 410/7/1 412/9/1 413/10/1
s 1
f 414/10/4 415/9/4 416/11/36
f 414/10/4 416/11/36 417/12/114
f 418/13/38 407/4/35 419/14/39
f 418/13/38 419/14/39 420/13/40
f 421/15/233 422/16/24 423/17/234
f 421/15/233 423/17/234 424/18/235
f 425/19/14 426/20/14 407/4/35
f 425/19/14 407/4/35 418/13/38
s 0
f 427/21/2 428/22/2 429/23/2
f 427/21/2 429/23/2 430/24/2
s 1
f 417/12/114 416/11/36 431/11/45
f 417/12/114 431/11/45 432/12/236
f 433/25/237 434/25/238 435/25/239
f 433/25/237 435/25/239 436/25/240
f 424/18/235 423/17/234 437/17/241
f 424/18/235 437/17/241 438/18/242
f 406/3/34 439/26/243 440/26/244
f 406/3/34 440/26/244 441/3/55
f 442/27/245 443/27/246 444/27/247
f 442/27/245 444/27/247 445/27/248
f 446/28/249 447/28/250 448/29/251
f 446/28/249 448/29/251 449/29/252
f 450/30/4 451/30/4 443/27/246
f 450/30/4 443/27/246 442/27/245
f 452/31/253 453/31/254 454/30/255
f 452/31/253 454/30/255 455/30/256
f 456/26/257 439/26/243 457/32/18
f 456/26/257 457/32/18 458/32/18
f 433/25/237 459/25/258 460/33/18
f 433/25/237 460/33/18 461/33/18
f 459/25/258 456/26/257 458/32/18
f 459/25/258 458/32/18 460/33/18
f 462/34/259 463/34/260 464/16/261
f 462/34/259 464/16/261 465/16/262
f 463/34/260 452/31/253 455/30/256
f 463/34/260 455/30/256 464/16/261
f 466/16/4 467/16/4 468/17/263
f 466/16/4 468/17/263 469/17/264
f 467/16/4 450/30/4 442/27/245
f 467/16/4 442/27/245 468/17/263
f 470/35/265 471/35/266 472/36/267
f 470/35/265 472/36/267 473/36/268
f 471/35/266 446/28/249 449/29/252
f 471/35/266 449/29/252 472/36/267
f 469/17/264 468/17/263 474/17/269
f 469/17/264 474/17/269 475/17/270
f 468/17/263 442/27/245 445/27/248
f 468/17/263 445/27/248 474/17/269
f 439/26/243 456/26/257 476/26/271
f 439/26/243 476/26/271 440/26/244
f 456/26/257 459/25/258 477/25/272
f 456/26/257 477/25/272 476/26/271
f 407/4/35 406/3/34 441/3/55
f 407/4/35 441/3/55 419/14/39
f 443/27/246 417/12/114 432/12/236
f 443/27/246 432/12/236 444/27/247
f 447/28/250 427/21/2 430/24/2
f 447/28/250 430/24/2 448/29/251
f 451/30/4 414/10/4 417/12/114
f 451/30/4 417/12/114 443/27/246
f 453/31/254 410/7/1 413/10/273
f 453/31/254 413/10/273 454/30/255
f 439/26/243 406/3/34 409/6/18
f 439/26/243 409/6/18 457/32/18
f 423/17/234 469/17/264 475/17/270
f 423/17/234 475/17/270 437/17/241
f 478/35/274 470/35/265 473/36/268
f 478/35/274 473/36/268 479/36/275
f 480/16/4 466/16/4 469/17/264
f 480/16/4 469/17/264 423/17/234
f 481/34/276 462/34/259 465/16/262
f 481/34/276 465/16/262 482/16/277
f 434/25/238 433/25/237 461/33/18
f 434/25/238 461/33/18 483/33/18
f 459/25/258 433/25/237 436/25/240
f 459/25/258 436/25/240 477/25/272
f 484/33/278 485/33/279 462/34/259
f 484/33/278 462/34/259 481/34/276
f 486/17/280 487/17/281 470/35/265
f 486/17/280 470/35/265 478/35/274
f 488/32/282 489/6/1 410/7/1
f 488/32/282 410/7/1 453/31/254
f 490/27/283 491/12/284 427/21/2
f 490/27/283 427/21/2 447/28/250
f 492/17/285 493/27/286 446/28/249
f 492/17/285 446/28/249 471/35/266
f 487/17/281 492/17/285 471/35/266
f 487/17/281 471/35/266 470/35/265
f 494/33/287 495/32/288 452/31/253
f 494/33/287 452/31/253 463/34/260
f 485/33/279 494/33/287 463/34/260
f 485/33/279 463/34/260 462/34/259
f 495/32/288 488/32/282 453/31/254
f 495/32/288 453/31/254 452/31/253
f 493/27/286 490/27/283 447/28/250
f 493/27/286 447/28/250 446/28/249
f 496/38/289 424/18/235 438/18/242
f 496/38/289 438/18/242 497/38/290
s 0
f 491/12/2 498/11/2 428/22/2
f 491/12/2 428/22/2 427/21/2
s 1
f 499/9/14 425/19/14 418/13/38
f 499/9/14 418/13/38 416/11/36
f 500/37/291 421/15/233 424/18/235
f 500/37/291 424/18/235 496/38/289
f 416/11/36 418/13/38 420/13/40
f 416/11/36 420/13/40 431/11/45
s 0
f 489/6/1 501/5/1 411/8/1
f 489/6/1 411/8/1 410/7/1
s 1
f 502/3/34 503/4/35 504/5/18
f 502/3/34 504/5/18 505/6/18
f 506/7/292 507/8/1 508/9/1
f 506/7/292 508/9/1 509/10/293
f 510/10/4 511/9/4 512/11/36
f 510/10/4 512/11/36 513/12/294
f 514/13/38 503/4/35 515/14/39
f 514/13/38 515/14/39 516/13/40
f 517/15/24 518/16/24 519/17/295
f 517/15/24 519/17/295 520/18/296
f 521/19/14 522/20/14 503/4/35
f 521/19/14 503/4/35 514/13/38
f 523/21/297 524/22/2 525/23/2
f 523/21/297 525/23/2 526/24/298
f 513/12/294 512/11/36 527/11/45
f 513/12/294 527/11/45 528/12/299
f 529/25/300 530/25/301 531/25/302
f 529/25/300 531/25/302 532/25/303
f 520/18/296 519/17/295 533/17/304
f 520/18/296 533/17/304 534/18/305
f 502/3/34 535/26/306 536/26/307
f 502/3/34 536/26/307 537/3/55
f 538/27/308 539/27/309 540/27/310
f 538/27/308 540/27/310 541/27/311
f 542/28/312 543/28/313 544/29/314
f 542/28/312 544/29/314 545/29/315
f 546/30/4 547/30/4 539/27/309
f 546/30/4 539/27/309 538/27/308
f 548/31/316 549/31/317 550/30/318
f 548/31/316 550/30/318 551/30/319
f 552/26/320 535/26/306 553/32/18
f 552/26/320 553/32/18 554/32/18
f 529/25/300 555/25/321 556/33/18
f 529/25/300 556/33/18 557/33/18
f 555/25/321 552/26/320 554/32/18
f 555/25/321 554/32/18 556/33/18
f 558/34/322 559/34/323 560/16/324
f 558/34/322 560/16/324 561/16/325
f 559/34/323 548/31/316 551/30/319
f 559/34/323 551/30/319 560/16/324
f 562/16/4 563/16/4 564/17/326
f 562/16/4 564/17/326 565/17/327
f 563/16/4 546/30/4 538/27/308
f 563/16/4 538/27/308 564/17/326
f 566/35/328 567/35/329 568/36/330
f 566/35/328 568/36/330 569/36/331
f 567/35/329 542/28/312 545/29/315
f 567/35/329 545/29/315 568/36/330
f 565/17/327 564/17/326 570/17/332
f 565/17/327 570/17/332 571/17/333
f 564/17/326 538/27/308 541/27/311
f 564/17/326 541/27/311 570/17/332
f 535/26/306 552/26/320 572/26/334
f 535/26/306 572/26/334 536/26/307
f 552/26/320 555/25/321 573/25/335
f 552/26/320 573/25/335 572/26/334
f 503/4/35 502/3/34 537/3/55
f 503/4/35 537/3/55 515/14/39
f 539/27/309 513/12/294 528/12/299
f 539/27/309 528/12/299 540/27/310
f 543/28/313 523/21/297 526/24/298
f 543/28/313 526/24/298 544/29/314
f 547/30/4 510/10/4 513/12/294
f 547/30/4 513/12/294 539/27/309
f 549/31/317 506/7/292 509/10/293
f 549/31/317 509/10/293 550/30/318
f 535/26/306 502/3/34 505/6/18
f 535/26/306 505/6/18 553/32/18
f 519/17/295 565/17/327 571/17/333
f 519/17/295 571/17/333 533/17/304
f 574/35/336 566/35/328 569/36/331
f 574/35/336 569/36/331 575/36/337
f 576/16/4 562/16/4 565/17/327
f 576/16/4 565/17/327 519/17/295
f 577/34/338 558/34/322 561/16/325
f 577/34/338 561/16/325 578/16/339
f 530/25/301 529/25/300 557/33/18
f 530/25/301 557/33/18 579/33/18
f 555/25/321 529/25/300 532/25/303
f 555/25/321 532/25/303 573/25/335
f 580/33/340 581/33/341 558/34/322
f 580/33/340 558/34/322 577/34/338
f 582/17/342 583/17/343 566/35/328
f 582/17/342 566/35/328 574/35/336
f 584/32/344 585/6/345 506/7/292
f 584/32/344 506/7/292 549/31/317
f 586/27/346 587/12/347 523/21/297
f 586/27/346 523/21/297 543/28/313
f 588/17/348 589/27/349 542/28/312
f 588/17/348 542/28/312 567/35/329
f 583/17/343 588/17/348 567/35/329
f 583/17/343 567/35/329 566/35/328
f 590/33/350 591/32/351 548/31/316
f 590/33/350 548/31/316 559/34/323
f 581/33/341 590/33/350 559/34/323
f 581/33/341 559/34/323 558/34/322
f 591/32/351 584/32/344 549/31/317
f 591/32/351 549/31/317 548/31/316
f 589/27/349 586/27/346 543/28/313
f 589/27/349 543/28/313 542/28/312
f 530/25/301 520/18/296 534/18/305
f 530/25/301 534/18/305 531/25/302
f 587/12/347 592/11/2 524/22/2
f 587/12/347 524/22/2 523/21/297
f 593/9/14 521/19/14 514/13/38
f 593/9/14 514/13/38 512/11/36
f 594/37/24 517/15/24 520/18/296
f 594/37/24 520/18/296 530/25/301
f 512/11/36 514/13/38 516/13/40
f 512/11/36 516/13/40 527/11/45
f 585/6/345 595/5/1 507/8/1
f 585/6/345 507/8/1 506/7/292
f 596/3/352 597/4/35 598/5/18
f 596/3/352 598/5/18 599/6/18
f 600/7/353 601/8/1 602/9/1
f 600/7/353 602/9/1 603/10/354
f 604/10/4 605/9/4 606/11/36
f 604/10/4 606/11/36 607/12/114
f 608/13/38 597/4/35 609/14/39
f 608/13/38 609/14/39 610/13/40
f 611/15/24 612/16/24 613/17/355
f 611/15/24 613/17/355 614/18/356
f 615/19/14 616/20/14 597/4/35
f 615/19/14 597/4/35 608/13/38
f 617/21/357 618/22/2 619/23/2
f 617/21/357 619/23/2 620/24/358
f 607/12/114 606/11/36 621/11/45
f 607/12/114 621/11/45 622/12/359
f 623/25/360 624/25/361 625/25/362
f 623/25/360 625/25/362 626/25/363
f 614/18/356 613/17/355 627/17/364
f 614/18/356 627/17/364 628/18/365
f 596/3/352 629/26/366 630/26/367
f 596/3/352 630/26/367 631/3/368
f 632/27/369 633/27/370 634/27/371
f 632/27/369 634/27/371 635/27/372
f 636/28/373 637/28/374 638/29/375
f 636/28/373 638/29/375 639/29/376
f 640/30/4 641/30/4 633/27/370
f 640/30/4 633/27/370 632/27/369
f 642/31/377 643/31/378 644/30/379
f 642/31/377 644/30/379 645/30/380
f 646/26/381 629/26/366 647/32/18
f 646/26/381 647/32/18 648/32/18
f 623/25/360 649/25/382 650/33/18
f 623/25/360 650/33/18 651/33/18
f 649/25/382 646/26/381 648/32/18
f 649/25/382 648/32/18 650/33/18
f 652/34/383 653/34/384 654/16/385
f 652/34/383 654/16/385 655/16/386
f 653/34/384 642/31/377 645/30/380
f 653/34/384 645/30/380 654/16/385
f 656/16/4 657/16/4 658/17/387
f 656/16/4 658/17/387 659/17/388
f 657/16/4 640/30/4 632/27/369
f 657/16/4 632/27/369 658/17/387
f 660/35/389 661/35/390 662/36/391
f 660/35/389 662/36/391 663/36/392
f 661/35/390 636/28/373 639/29/376
f 661/35/390 639/29/376 662/36/391
f 659/17/388 658/17/387 664/17/393
f 659/17/388 664/17/393 665/17/394
f 658/17/387 632/27/369 635/27/372
f 658/17/387 635/27/372 664/17/393
f 629/26/366 646/26/381 666/26/395
f 629/26/366 666/26/395 630/26/367
f 646/26/381 649/25/382 667/25/396
f 646/26/381 667/25/396 666/26/395
f 597/4/35 596/3/352 631/3/368
f 597/4/35 631/3/368 609/14/39
f 633/27/370 607/12/114 622/12/359
f 633/27/370 622/12/359 634/27/371
f 637/28/374 617/21/357 620/24/358
f 637/28/374 620/24/358 638/29/375
f 641/30/4 604/10/4 607/12/114
f 641/30/4 607/12/114 633/27/370
f 643/31/378 600/7/353 603/10/354
f 643/31/378 603/10/354 644/30/379
f 629/26/366 596/3/352 599/6/18
f 629/26/366 599/6/18 647/32/18
f 613/17/355 659/17/388 665/17/394
f 613/17/355 665/17/394 627/17/364
f 668/35/397 660/35/389 663/36/392
f 668/35/397 663/36/392 669/36/398
f 670/16/4 656/16/4 659/17/388
f 670/16/4 659/17/388 613/17/355
f 671/34/399 652/34/383 655/16/386
f 671/34/399 655/16/386 672/16/400
f 624/25/361 623/25/360 651/33/18
f 624/25/361 651/33/18 673/33/18
f 649/25/382 623/25/360 626/25/363
f 649/25/382 626/25/363 667/25/396
f 674/33/401 675/33/402 652/34/383
f 674/33/401 652/34/383 671/34/399
f 676/17/403 677/17/404 660/35/389
f 676/17/403 660/35/389 668/35/397
f 678/32/405 679/6/406 600/7/353
f 678/32/405 600/7/353 643/31/378
f 680/27/407 681/12/408 617/21/357
f 680/27/407 617/21/357 637/28/374
f 682/17/409 683/27/410 636/28/373
f 682/17/409 636/28/373 661/35/390
f 677/17/404 682/17/409 661/35/390
f 677/17/404 661/35/390 660/35/389
f 684/33/411 685/32/412 642/31/377
f 684/33/411 642/31/377 653/34/384
f 675/33/402 684/33/411 653/34/384
f 675/33/402 653/34/384 652/34/383
f 685/32/412 678/32/405 643/31/378
f 685/32/412 643/31/378 642/31/377
f 683/27/410 680/27/407 637/28/374
f 683/27/410 637/28/374 636/28/373
f 686/38/413 614/18/356 628/18/365
f 686/38/413 628/18/365 687/38/414
f 681/12/408 688/11/2 618/22/2
f 681/12/408 618/22/2 617/21/357
f 689/9/14 615/19/14 608/13/38
f 689/9/14 608/13/38 606/11/36
f 690/37/24 611/15/24 614/18/356
f 690/37/24 614/18/356 686/38/413
f 606/11/36 608/13/38 610/13/40
f 606/11/36 610/13/40 621/11/45
f 679/6/406 691/5/1 601/8/1
f 679/6/406 601/8/1 600/7/353
