# Blender 5.2.0 LTS
# www.blender.org
mtllib 12_2_BaggageClaimBand_AIRPORT_0.mtl
o 12.2.BaggageClaimBand_AIRPORT_0
v 1.750000 -0.038585 -0.805000
v 1.750000 -0.038585 -0.875000
v 1.750000 0.378986 -0.875000
v 1.750000 0.378987 0.875000
v 1.750000 -0.038584 0.875000
v 1.750000 -0.038584 0.805000
v 1.750000 0.413987 0.840000
v 1.750000 0.403735 0.864748
v 1.750000 0.403735 -0.864749
v 1.750000 0.413986 -0.840000
v -1.750000 -0.038584 0.805000
v -1.750000 -0.038584 0.875000
v -1.750000 0.378987 0.875000
v -1.750000 0.403735 0.864748
v -1.750000 0.413987 0.840000
v -1.750000 0.413986 -0.840000
v -1.750000 0.403735 -0.864749
v -1.750000 0.378986 -0.875000
v -1.750000 -0.038585 -0.875000
v -1.750000 -0.038585 -0.805000
v 1.750000 0.413987 0.840000
v 1.750000 0.413986 -0.840000
v -1.750000 0.413986 -0.840000
v -1.750000 0.413987 0.840000
v 1.750000 -0.456155 -0.805000
v 1.750000 -0.456155 0.805000
v -1.750000 -0.456155 0.805000
v -1.750000 -0.456155 -0.805000
v -1.750000 -0.038585 -0.875000
v 1.750000 -0.038585 -0.875000
v 1.750000 -0.038585 -0.805000
v -1.750000 -0.038585 -0.805000
v 1.750000 0.403735 -0.864749
v -1.750000 0.403735 -0.864749
v -1.750000 0.403735 -0.864749
v 1.750000 0.403735 -0.864749
v 1.750000 0.378986 -0.875000
v -1.750000 0.378986 -0.875000
v -1.750000 0.378987 0.875000
v 1.750000 0.378987 0.875000
v 1.750000 0.403735 0.864748
v -1.750000 0.403735 0.864748
v -1.750000 0.403735 0.864748
v 1.750000 0.403735 0.864748
v 1.750000 -0.038584 0.875000
v -1.750000 -0.038584 0.875000
v -1.356380 0.413987 0.875000
v -0.968544 0.413987 0.875000
v -0.968544 0.434497 0.875000
v -1.260008 0.434497 0.875000
v -0.968544 0.413987 0.875000
v -1.153831 0.413986 -0.875000
v -1.153831 0.434496 -0.875000
v -0.968544 0.434497 0.875000
v -1.153831 0.413986 -0.875000
v -1.356380 0.413986 -0.875000
v -1.260008 0.434496 -0.875000
v -1.153831 0.434496 -0.875000
v -1.646331 0.435645 0.875000
v -1.646331 0.456156 0.875000
v -0.968544 0.434497 0.875000
v -1.153831 0.434496 -0.875000
v -1.260008 0.434496 -0.875000
v -1.260008 0.434497 0.875000
v -1.646331 0.435645 -0.875000
v -1.646331 0.456155 -0.875000
v -1.646331 0.456155 -0.875000
v -1.646331 0.456156 0.875000
v -1.750000 0.435645 -0.765432
v -1.750000 0.435645 0.765432
v -1.750000 0.456155 0.765432
v -1.750000 0.456155 -0.765432
v -1.646331 0.435645 0.875000
v -1.646331 0.456156 0.875000
v -1.686502 0.456156 0.866659
v -1.686502 0.435645 0.866659
v -1.720558 0.456156 0.842908
v -1.720558 0.435645 0.842908
v -1.743312 0.456155 0.807362
v -1.743312 0.435645 0.807362
v -1.646331 0.456155 -0.875000
v -1.646331 0.435645 -0.875000
v -1.686502 0.435645 -0.866659
v -1.686502 0.456155 -0.866659
v -1.720558 0.435645 -0.842908
v -1.720558 0.456155 -0.842908
v -1.743312 0.435645 -0.807362
v -1.743312 0.456155 -0.807362
v -0.871070 0.413987 0.875000
v -0.483235 0.413987 0.875000
v -0.483235 0.434497 0.875000
v -0.774698 0.434497 0.875000
v -0.483235 0.413987 0.875000
v -0.668521 0.413986 -0.875000
v -0.668521 0.434496 -0.875000
v -0.483235 0.434497 0.875000
v -0.668521 0.413986 -0.875000
v -0.871070 0.413986 -0.875000
v -0.774698 0.434496 -0.875000
v -0.668521 0.434496 -0.875000
v -1.161021 0.435645 0.875000
v -1.161021 0.456156 0.875000
v -0.483235 0.434497 0.875000
v -0.668521 0.434496 -0.875000
v -0.774698 0.434496 -0.875000
v -0.774698 0.434497 0.875000
v -1.161021 0.435645 -0.875000
v -1.161021 0.456155 -0.875000
v -1.161021 0.456155 -0.875000
v -1.161021 0.456156 0.875000
v -1.265993 0.435645 -0.765432
v -1.265993 0.435645 0.765432
v -1.265993 0.456155 0.765432
v -1.265993 0.456155 -0.765432
v -1.161021 0.435645 0.875000
v -1.161021 0.456156 0.875000
v -1.201192 0.456156 0.866659
v -1.201192 0.435645 0.866659
v -1.235248 0.456156 0.842908
v -1.235248 0.435645 0.842908
v -1.258002 0.456155 0.807362
v -1.258002 0.435645 0.807362
v -1.161021 0.456155 -0.875000
v -1.161021 0.435645 -0.875000
v -1.201192 0.435645 -0.866659
v -1.201192 0.456155 -0.866659
v -1.235248 0.435645 -0.842908
v -1.235248 0.456155 -0.842908
v -1.258002 0.435645 -0.807362
v -1.258002 0.456155 -0.807362
v -0.385760 0.413987 0.875000
v 0.002075 0.413987 0.875000
v 0.002075 0.434497 0.875000
v -0.289388 0.434497 0.875000
v 0.002075 0.413987 0.875000
v -0.183211 0.413986 -0.875000
v -0.183211 0.434496 -0.875000
v 0.002075 0.434497 0.875000
v -0.183211 0.413986 -0.875000
v -0.385760 0.413986 -0.875000
v -0.289388 0.434496 -0.875000
v -0.183211 0.434496 -0.875000
v -0.675711 0.435645 0.875000
v -0.675711 0.456156 0.875000
v 0.002075 0.434497 0.875000
v -0.183211 0.434496 -0.875000
v -0.289388 0.434496 -0.875000
v -0.289388 0.434497 0.875000
v -0.675712 0.435645 -0.875000
v -0.675712 0.456155 -0.875000
v -0.675712 0.456155 -0.875000
v -0.675711 0.456156 0.875000
v -0.780683 0.435645 -0.765432
v -0.780683 0.435645 0.765432
v -0.780683 0.456155 0.765432
v -0.780683 0.456155 -0.765432
v -0.675711 0.435645 0.875000
v -0.675711 0.456156 0.875000
v -0.715882 0.456156 0.866659
v -0.715882 0.435645 0.866659
v -0.749938 0.456156 0.842908
v -0.749938 0.435645 0.842908
v -0.772692 0.456155 0.807362
v -0.772692 0.435645 0.807362
v -0.675712 0.456155 -0.875000
v -0.675712 0.435645 -0.875000
v -0.715882 0.435645 -0.866659
v -0.715882 0.456155 -0.866659
v -0.749938 0.435645 -0.842908
v -0.749938 0.456155 -0.842908
v -0.772692 0.435645 -0.807362
v -0.772692 0.456155 -0.807362
v 0.099550 0.413987 0.875000
v 0.487385 0.413987 0.875000
v 0.487385 0.434497 0.875000
v 0.195922 0.434497 0.875000
v 0.487385 0.413987 0.875000
v 0.302098 0.413986 -0.875000
v 0.302098 0.434496 -0.875000
v 0.487385 0.434497 0.875000
v 0.302098 0.413986 -0.875000
v 0.099550 0.413986 -0.875000
v 0.195922 0.434496 -0.875000
v 0.302098 0.434496 -0.875000
v -0.190402 0.435645 0.875000
v -0.190402 0.456156 0.875000
v 0.487385 0.434497 0.875000
v 0.302098 0.434496 -0.875000
v 0.195922 0.434496 -0.875000
v 0.195922 0.434497 0.875000
v -0.190402 0.435645 -0.875000
v -0.190402 0.456155 -0.875000
v -0.190402 0.456155 -0.875000
v -0.190402 0.456156 0.875000
v -0.295373 0.435645 -0.765432
v -0.295373 0.435645 0.765432
v -0.295373 0.456155 0.765432
v -0.295373 0.456155 -0.765432
v -0.190402 0.435645 0.875000
v -0.190402 0.456156 0.875000
v -0.230572 0.456156 0.866659
v -0.230572 0.435645 0.866659
v -0.264628 0.456156 0.842908
v -0.264628 0.435645 0.842908
v -0.287382 0.456155 0.807362
v -0.287382 0.435645 0.807362
v -0.190402 0.456155 -0.875000
v -0.190402 0.435645 -0.875000
v -0.230572 0.435645 -0.866659
v -0.230572 0.456155 -0.866659
v -0.264628 0.435645 -0.842908
v -0.264628 0.456155 -0.842908
v -0.287382 0.435645 -0.807362
v -0.287382 0.456155 -0.807362
v 0.584860 0.413987 0.875000
v 0.972695 0.413987 0.875000
v 0.972695 0.434497 0.875000
v 0.681232 0.434497 0.875000
v 0.972695 0.413987 0.875000
v 0.787408 0.413986 -0.875000
v 0.787408 0.434496 -0.875000
v 0.972695 0.434497 0.875000
v 0.787408 0.413986 -0.875000
v 0.584860 0.413986 -0.875000
v 0.681231 0.434496 -0.875000
v 0.787408 0.434496 -0.875000
v 0.294908 0.435645 0.875000
v 0.294908 0.456156 0.875000
v 0.972695 0.434497 0.875000
v 0.787408 0.434496 -0.875000
v 0.681231 0.434496 -0.875000
v 0.681232 0.434497 0.875000
v 0.294908 0.435645 -0.875000
v 0.294908 0.456155 -0.875000
v 0.294908 0.456155 -0.875000
v 0.294908 0.456156 0.875000
v 0.189937 0.435645 -0.765432
v 0.189937 0.435645 0.765432
v 0.189937 0.456155 0.765432
v 0.189937 0.456155 -0.765432
v 0.294908 0.435645 0.875000
v 0.294908 0.456156 0.875000
v 0.254738 0.456156 0.866659
v 0.254738 0.435645 0.866659
v 0.220682 0.456156 0.842908
v 0.220682 0.435645 0.842908
v 0.197927 0.456155 0.807362
v 0.197927 0.435645 0.807362
v 0.294908 0.456155 -0.875000
v 0.294908 0.435645 -0.875000
v 0.254738 0.435645 -0.866659
v 0.254738 0.456155 -0.866659
v 0.220682 0.435645 -0.842908
v 0.220682 0.456155 -0.842908
v 0.197927 0.435645 -0.807362
v 0.197927 0.456155 -0.807362
v 1.070170 0.413987 0.875000
v 1.458005 0.413987 0.875000
v 1.458005 0.434497 0.875000
v 1.166541 0.434497 0.875000
v 1.458005 0.413987 0.875000
v 1.272718 0.413986 -0.875000
v 1.272718 0.434496 -0.875000
v 1.458005 0.434497 0.875000
v 1.272718 0.413986 -0.875000
v 1.070170 0.413986 -0.875000
v 1.166541 0.434496 -0.875000
v 1.272718 0.434496 -0.875000
v 0.780218 0.435645 0.875000
v 0.780218 0.456156 0.875000
v 1.458005 0.434497 0.875000
v 1.272718 0.434496 -0.875000
v 1.166541 0.434496 -0.875000
v 1.166541 0.434497 0.875000
v 0.780218 0.435645 -0.875000
v 0.780218 0.456155 -0.875000
v 0.780218 0.456155 -0.875000
v 0.780218 0.456156 0.875000
v 0.675247 0.435645 -0.765432
v 0.675247 0.435645 0.765432
v 0.675247 0.456155 0.765432
v 0.675247 0.456155 -0.765432
v 0.780218 0.435645 0.875000
v 0.780218 0.456156 0.875000
v 0.740048 0.456156 0.866659
v 0.740048 0.435645 0.866659
v 0.705992 0.456156 0.842908
v 0.705992 0.435645 0.842908
v 0.683237 0.456155 0.807362
v 0.683237 0.435645 0.807362
v 0.780218 0.456155 -0.875000
v 0.780218 0.435645 -0.875000
v 0.740048 0.435645 -0.866659
v 0.740048 0.456155 -0.866659
v 0.705992 0.435645 -0.842909
v 0.705992 0.456155 -0.842909
v 0.683237 0.435645 -0.807362
v 0.683237 0.456155 -0.807362
v 1.555480 0.413987 0.875000
v 1.750000 0.413987 0.875000
v 1.750000 0.434497 0.875000
v 1.651851 0.434497 0.875000
v 1.750000 0.413987 0.875000
v 1.750000 0.413986 -0.875000
v 1.750000 0.434496 -0.875000
v 1.750000 0.434497 0.875000
v 1.750000 0.413986 -0.875000
v 1.555480 0.413986 -0.875000
v 1.651851 0.434496 -0.875000
v 1.750000 0.434496 -0.875000
v 1.265528 0.435645 0.875000
v 1.265528 0.456156 0.875000
v 1.750000 0.434497 0.875000
v 1.750000 0.434496 -0.875000
v 1.651851 0.434496 -0.875000
v 1.651851 0.434497 0.875000
v 1.265528 0.435645 -0.875000
v 1.265528 0.456155 -0.875000
v 1.265528 0.456155 -0.875000
v 1.265528 0.456156 0.875000
v 1.160557 0.435645 -0.765432
v 1.160557 0.435645 0.765432
v 1.160557 0.456155 0.765432
v 1.160557 0.456155 -0.765432
v 1.265528 0.435645 0.875000
v 1.265528 0.456156 0.875000
v 1.225358 0.456156 0.866659
v 1.225358 0.435645 0.866659
v 1.191302 0.456156 0.842908
v 1.191302 0.435645 0.842908
v 1.168547 0.456155 0.807362
v 1.168547 0.435645 0.807362
v 1.265528 0.456155 -0.875000
v 1.265528 0.435645 -0.875000
v 1.225358 0.435645 -0.866659
v 1.225358 0.456155 -0.866659
v 1.191302 0.435645 -0.842909
v 1.191302 0.456155 -0.842909
v 1.168547 0.435645 -0.807362
v 1.168547 0.456155 -0.807362
v -1.750000 0.413987 0.875000
v -1.455217 0.413987 0.875000
v -1.455217 0.434497 0.875000
v -1.750000 0.434497 0.875000
v -1.455217 0.413987 0.875000
v -1.640504 0.413986 -0.875000
v -1.640504 0.434496 -0.875000
v -1.455217 0.434497 0.875000
v -1.640504 0.413986 -0.875000
v -1.750000 0.413986 -0.875000
v -1.750000 0.434496 -0.875000
v -1.640504 0.434496 -0.875000
v -1.455217 0.434497 0.875000
v -1.640504 0.434496 -0.875000
v -1.750000 0.434496 -0.875000
v -1.750000 0.434497 0.875000
v 1.750000 -0.038584 0.875000
v -1.750000 -0.038584 0.875000
v -1.750000 -0.038584 0.805000
v 1.750000 -0.038584 0.805000
v 1.750000 -0.038585 -0.875000
v -1.750000 -0.038585 -0.875000
v 1.750000 -0.456155 0.805000
v 1.750000 -0.038584 0.805000
v -1.750000 -0.038584 0.805000
v -1.750000 -0.456155 0.805000
v 1.750000 -0.038585 -0.805000
v 1.750000 -0.456155 -0.805000
v -1.750000 -0.456155 -0.805000
v -1.750000 -0.038585 -0.805000
v 1.750000 -0.456155 -0.805000
v 1.750000 -0.038585 -0.805000
v 1.750000 -0.038584 0.805000
v 1.750000 -0.456155 0.805000
v -1.750000 -0.456155 0.805000
v -1.750000 -0.038584 0.805000
v -1.750000 -0.038585 -0.805000
v -1.750000 -0.456155 -0.805000
v -1.743312 0.456155 0.807362
v -1.750000 0.456155 -0.765432
v -1.750000 0.456155 0.765432
v -1.743312 0.456155 -0.807362
v -1.720558 0.456156 0.842908
v -1.720558 0.456155 -0.842908
v -1.686502 0.456156 0.866659
v -1.686502 0.456155 -0.866659
v -1.646331 0.456156 0.875000
v -1.646331 0.456155 -0.875000
v -1.743312 0.435645 -0.807362
v -1.750000 0.435645 0.765432
v -1.750000 0.435645 -0.765432
v -1.743312 0.435645 0.807362
v -1.720558 0.435645 -0.842908
v -1.720558 0.435645 0.842908
v -1.686502 0.435645 -0.866659
v -1.686502 0.435645 0.866659
v -1.646331 0.435645 -0.875000
v -1.646331 0.435645 0.875000
v -1.356380 0.413986 -0.875000
v -1.356380 0.413987 0.875000
v -1.153831 0.413986 -0.875000
v -0.968544 0.413987 0.875000
v -1.258002 0.456155 0.807362
v -1.265993 0.456155 -0.765432
v -1.265993 0.456155 0.765432
v -1.258002 0.456155 -0.807362
v -1.235248 0.456156 0.842908
v -1.235248 0.456155 -0.842908
v -1.201192 0.456156 0.866659
v -1.201192 0.456155 -0.866659
v -1.161021 0.456156 0.875000
v -1.161021 0.456155 -0.875000
v -1.258002 0.435645 -0.807362
v -1.265993 0.435645 0.765432
v -1.265993 0.435645 -0.765432
v -1.258002 0.435645 0.807362
v -1.235248 0.435645 -0.842908
v -1.235248 0.435645 0.842908
v -1.201192 0.435645 -0.866659
v -1.201192 0.435645 0.866659
v -1.161021 0.435645 -0.875000
v -1.161021 0.435645 0.875000
v -0.871070 0.413986 -0.875000
v -0.871070 0.413987 0.875000
v -0.668521 0.413986 -0.875000
v -0.483235 0.413987 0.875000
v -0.780683 0.456155 0.765432
v -0.772692 0.456155 -0.807362
v -0.780683 0.456155 -0.765432
v -0.772692 0.456155 0.807362
v -0.749938 0.456155 -0.842908
v -0.749938 0.456156 0.842908
v -0.715882 0.456155 -0.866659
v -0.715882 0.456156 0.866659
v -0.675712 0.456155 -0.875000
v -0.675711 0.456156 0.875000
v -0.772692 0.435645 -0.807362
v -0.780683 0.435645 0.765432
v -0.780683 0.435645 -0.765432
v -0.772692 0.435645 0.807362
v -0.749938 0.435645 -0.842908
v -0.749938 0.435645 0.842908
v -0.715882 0.435645 -0.866659
v -0.715882 0.435645 0.866659
v -0.675712 0.435645 -0.875000
v -0.675711 0.435645 0.875000
v -0.385760 0.413986 -0.875000
v -0.385760 0.413987 0.875000
v -0.183211 0.413986 -0.875000
v 0.002075 0.413987 0.875000
v -0.295373 0.456155 0.765432
v -0.287382 0.456155 -0.807362
v -0.295373 0.456155 -0.765432
v -0.287382 0.456155 0.807362
v -0.264628 0.456155 -0.842908
v -0.264628 0.456156 0.842908
v -0.230572 0.456155 -0.866659
v -0.230572 0.456156 0.866659
v -0.190402 0.456155 -0.875000
v -0.190402 0.456156 0.875000
v -0.287382 0.435645 -0.807362
v -0.295373 0.435645 0.765432
v -0.295373 0.435645 -0.765432
v -0.287382 0.435645 0.807362
v -0.264628 0.435645 -0.842908
v -0.264628 0.435645 0.842908
v -0.230572 0.435645 -0.866659
v -0.230572 0.435645 0.866659
v -0.190402 0.435645 -0.875000
v -0.190402 0.435645 0.875000
v 0.099550 0.413986 -0.875000
v 0.099550 0.413987 0.875000
v 0.302098 0.413986 -0.875000
v 0.487385 0.413987 0.875000
v 0.189937 0.456155 0.765432
v 0.197927 0.456155 -0.807362
v 0.189937 0.456155 -0.765432
v 0.197927 0.456155 0.807362
v 0.220682 0.456155 -0.842908
v 0.220682 0.456156 0.842908
v 0.254738 0.456155 -0.866659
v 0.254738 0.456156 0.866659
v 0.294908 0.456155 -0.875000
v 0.294908 0.456156 0.875000
v 0.197927 0.435645 -0.807362
v 0.189937 0.435645 0.765432
v 0.189937 0.435645 -0.765432
v 0.197927 0.435645 0.807362
v 0.220682 0.435645 -0.842908
v 0.220682 0.435645 0.842908
v 0.254738 0.435645 -0.866659
v 0.254738 0.435645 0.866659
v 0.294908 0.435645 -0.875000
v 0.294908 0.435645 0.875000
v 0.584860 0.413986 -0.875000
v 0.584860 0.413987 0.875000
v 0.787408 0.413986 -0.875000
v 0.972695 0.413987 0.875000
v 0.675247 0.456155 0.765432
v 0.683237 0.456155 -0.807362
v 0.675247 0.456155 -0.765432
v 0.683237 0.456155 0.807362
v 0.705992 0.456155 -0.842909
v 0.705992 0.456156 0.842908
v 0.740048 0.456155 -0.866659
v 0.740048 0.456156 0.866659
v 0.780218 0.456155 -0.875000
v 0.780218 0.456156 0.875000
v 0.683237 0.435645 -0.807362
v 0.675247 0.435645 0.765432
v 0.675247 0.435645 -0.765432
v 0.683237 0.435645 0.807362
v 0.705992 0.435645 -0.842909
v 0.705992 0.435645 0.842908
v 0.740048 0.435645 -0.866659
v 0.740048 0.435645 0.866659
v 0.780218 0.435645 -0.875000
v 0.780218 0.435645 0.875000
v 1.070170 0.413986 -0.875000
v 1.070170 0.413987 0.875000
v 1.272718 0.413986 -0.875000
v 1.458005 0.413987 0.875000
v 1.168547 0.456155 0.807362
v 1.160557 0.456155 -0.765432
v 1.160557 0.456155 0.765432
v 1.168547 0.456155 -0.807362
v 1.191302 0.456156 0.842908
v 1.191302 0.456155 -0.842909
v 1.225358 0.456156 0.866659
v 1.225358 0.456155 -0.866659
v 1.265528 0.456156 0.875000
v 1.265528 0.456155 -0.875000
v 1.168547 0.435645 -0.807362
v 1.160557 0.435645 0.765432
v 1.160557 0.435645 -0.765432
v 1.168547 0.435645 0.807362
v 1.191302 0.435645 -0.842909
v 1.191302 0.435645 0.842908
v 1.225358 0.435645 -0.866659
v 1.225358 0.435645 0.866659
v 1.265528 0.435645 -0.875000
v 1.265528 0.435645 0.875000
v 1.555480 0.413986 -0.875000
v 1.555480 0.413987 0.875000
v 1.750000 0.413986 -0.875000
v 1.750000 0.413987 0.875000
vn 1.0000 -0.0000 -0.0000
vn -1.0000 -0.0000 -0.0000
vn -0.0000 0.9808 0.1951
vn -0.0000 0.9808 -0.1951
vn -0.0000 -1.0000 -0.0000
vn -0.0000 0.9239 -0.3827
vn -0.0000 0.3827 -0.9239
vn -0.0000 0.1951 -0.9808
vn -0.0000 0.1951 0.9808
vn -0.0000 0.3827 0.9239
vn -0.0000 0.9239 0.3827
vn -0.0000 -0.0000 1.0000
vn 0.9944 -0.0000 -0.1053
vn -0.0000 -0.0000 -1.0000
vn -0.0000 1.0000 -0.0000
vn 0.0280 0.9996 -0.0000
vn -0.9969 -0.0000 -0.0790
vn -0.9969 -0.0000 0.0790
vn -0.2033 -0.0000 0.9791
vn -0.3957 -0.0000 0.9184
vn -0.7210 -0.0000 0.6930
vn -0.9346 -0.0000 0.3558
vn -0.2033 -0.0000 -0.9791
vn -0.3957 -0.0000 -0.9184
vn -0.7210 -0.0000 -0.6930
vn -0.9346 -0.0000 -0.3558
vn -0.9956 -0.0000 -0.0940
vn -0.9956 -0.0000 0.0940
vn -0.9291 -0.0000 0.3699
vn -0.9291 -0.0000 -0.3699
vn 0.0140 0.9999 -0.0000
vn -0.0315 -0.9995 -0.0000
vn -0.0316 -0.9995 -0.0000
vn -0.0369 -0.9993 -0.0000
vn -0.0373 -0.9993 -0.0000
vt 0.783533 0.092288
vt 0.783534 0.092288
vt 0.783534 0.092288
vt 0.783533 0.092288
vt 0.783534 0.092288
vt 0.847306 0.090812
vt 0.847304 0.090812
vt 0.092951 0.155113
vt 0.092952 0.155112
vt 0.092952 0.155112
vt 0.847306 0.090815
vt 0.847308 0.090815
vt 0.847308 0.090812
vt 0.847308 0.090812
s 0
usemtl AIRPORT
f 1/1/1 2/1/1 3/2/1
f 4/3/1 5/1/1 6/1/1
f 7/3/1 8/3/1 4/3/1
f 9/2/1 10/2/1 3/2/1
f 1/1/1 3/2/1 10/2/1
f 4/3/1 6/1/1 7/3/1
f 11/4/2 12/4/2 13/5/2
f 13/5/2 14/5/2 15/5/2
f 16/2/2 17/2/2 18/2/2
f 18/2/2 19/1/2 20/1/2
f 18/2/2 20/1/2 16/2/2
f 13/5/2 15/5/2 11/4/2
s 1
f 21/3/3 22/2/4 23/2/4
f 21/3/3 23/2/4 24/3/3
s 0
f 25/6/5 26/7/5 27/7/5
f 25/6/5 27/7/5 28/6/5
f 29/1/5 30/1/5 31/1/5
f 29/1/5 31/1/5 32/1/5
s 1
f 23/2/4 22/2/4 33/2/6
f 23/2/4 33/2/6 34/2/6
f 35/2/7 36/2/7 37/2/8
f 35/2/7 37/2/8 38/2/8
f 39/5/9 40/5/9 41/5/10
f 39/5/9 41/5/10 42/5/10
f 43/3/11 44/3/11 21/3/3
f 43/3/11 21/3/3 24/3/3
f 45/4/12 40/5/9 39/5/9
f 45/4/12 39/5/9 46/4/12
s 0
f 47/8/12 48/8/12 49/8/12
f 47/8/12 49/8/12 50/8/12
f 51/9/13 52/10/13 53/10/13
f 51/9/13 53/10/13 54/9/13
f 55/8/14 56/8/14 57/8/14
f 55/8/14 57/8/14 58/8/14
f 59/8/12 47/8/12 50/8/12
f 59/8/12 50/8/12 60/8/12
s 1
f 61/9/15 62/10/15 63/10/16
f 61/9/15 63/10/16 64/9/16
s 0
f 56/8/14 65/8/14 66/8/14
f 56/8/14 66/8/14 57/8/14
s 1
f 64/9/16 63/10/16 67/10/16
f 64/9/16 67/10/16 68/9/16
f 69/8/17 70/8/18 71/8/18
f 69/8/17 71/8/18 72/8/17
f 73/8/19 74/8/19 75/8/20
f 73/8/19 75/8/20 76/8/20
f 76/8/20 75/8/20 77/8/21
f 76/8/20 77/8/21 78/8/21
f 78/8/21 77/8/21 79/8/22
f 78/8/21 79/8/22 80/8/22
f 80/8/22 79/8/22 71/8/18
f 80/8/22 71/8/18 70/8/18
f 81/8/23 82/8/23 83/8/24
f 81/8/23 83/8/24 84/8/24
f 84/8/24 83/8/24 85/8/25
f 84/8/24 85/8/25 86/8/25
f 86/8/25 85/8/25 87/8/26
f 86/8/25 87/8/26 88/8/26
f 88/8/26 87/8/26 69/8/17
f 88/8/26 69/8/17 72/8/17
s 0
f 89/8/12 90/8/12 91/8/12
f 89/8/12 91/8/12 92/8/12
f 93/9/13 94/10/13 95/10/13
f 93/9/13 95/10/13 96/9/13
f 97/8/14 98/8/14 99/8/14
f 97/8/14 99/8/14 100/8/14
f 101/8/12 89/8/12 92/8/12
f 101/8/12 92/8/12 102/8/12
s 1
f 103/9/15 104/10/15 105/10/16
f 103/9/15 105/10/16 106/9/16
s 0
f 98/8/14 107/8/14 108/8/14
f 98/8/14 108/8/14 99/8/14
s 1
f 106/9/16 105/10/16 109/10/16
f 106/9/16 109/10/16 110/9/16
f 111/8/27 112/8/28 113/8/28
f 111/8/27 113/8/28 114/8/27
f 115/8/19 116/8/19 117/8/20
f 115/8/19 117/8/20 118/8/20
f 118/8/20 117/8/20 119/8/21
f 118/8/20 119/8/21 120/8/21
f 120/8/21 119/8/21 121/8/29
f 120/8/21 121/8/29 122/8/29
f 122/8/29 121/8/29 113/8/28
f 122/8/29 113/8/28 112/8/28
f 123/8/23 124/8/23 125/8/24
f 123/8/23 125/8/24 126/8/24
f 126/8/24 125/8/24 127/8/25
f 126/8/24 127/8/25 128/8/25
f 128/8/25 127/8/25 129/8/30
f 128/8/25 129/8/30 130/8/30
f 130/8/30 129/8/30 111/8/27
f 130/8/30 111/8/27 114/8/27
s 0
f 131/8/12 132/8/12 133/8/12
f 131/8/12 133/8/12 134/8/12
f 135/9/13 136/10/13 137/10/13
f 135/9/13 137/10/13 138/9/13
f 139/8/14 140/8/14 141/8/14
f 139/8/14 141/8/14 142/8/14
f 143/8/12 131/8/12 134/8/12
f 143/8/12 134/8/12 144/8/12
s 1
f 145/9/15 146/10/15 147/10/16
f 145/9/15 147/10/16 148/9/16
s 0
f 140/8/14 149/8/14 150/8/14
f 140/8/14 150/8/14 141/8/14
s 1
f 148/9/16 147/10/16 151/10/16
f 148/9/16 151/10/16 152/9/16
f 153/8/27 154/8/28 155/8/28
f 153/8/27 155/8/28 156/8/27
f 157/8/19 158/8/19 159/8/20
f 157/8/19 159/8/20 160/8/20
f 160/8/20 159/8/20 161/8/21
f 160/8/20 161/8/21 162/8/21
f 162/8/21 161/8/21 163/8/29
f 162/8/21 163/8/29 164/8/29
f 164/8/29 163/8/29 155/8/28
f 164/8/29 155/8/28 154/8/28
f 165/8/23 166/8/23 167/8/24
f 165/8/23 167/8/24 168/8/24
f 168/8/24 167/8/24 169/8/25
f 168/8/24 169/8/25 170/8/25
f 170/8/25 169/8/25 171/8/30
f 170/8/25 171/8/30 172/8/30
f 172/8/30 171/8/30 153/8/27
f 172/8/30 153/8/27 156/8/27
s 0
f 173/8/12 174/8/12 175/8/12
f 173/8/12 175/8/12 176/8/12
f 177/9/13 178/10/13 179/10/13
f 177/9/13 179/10/13 180/9/13
f 181/8/14 182/8/14 183/8/14
f 181/8/14 183/8/14 184/8/14
f 185/8/12 173/8/12 176/8/12
f 185/8/12 176/8/12 186/8/12
s 1
f 187/9/15 188/10/15 189/10/16
f 187/9/15 189/10/16 190/9/16
s 0
f 182/8/14 191/8/14 192/8/14
f 182/8/14 192/8/14 183/8/14
s 1
f 190/9/16 189/10/16 193/10/16
f 190/9/16 193/10/16 194/9/16
f 195/8/27 196/8/28 197/8/28
f 195/8/27 197/8/28 198/8/27
f 199/8/19 200/8/19 201/8/20
f 199/8/19 201/8/20 202/8/20
f 202/8/20 201/8/20 203/8/21
f 202/8/20 203/8/21 204/8/21
f 204/8/21 203/8/21 205/8/29
f 204/8/21 205/8/29 206/8/29
f 206/8/29 205/8/29 197/8/28
f 206/8/29 197/8/28 196/8/28
f 207/8/23 208/8/23 209/8/24
f 207/8/23 209/8/24 210/8/24
f 210/8/24 209/8/24 211/8/25
f 210/8/24 211/8/25 212/8/25
f 212/8/25 211/8/25 213/8/30
f 212/8/25 213/8/30 214/8/30
f 214/8/30 213/8/30 195/8/27
f 214/8/30 195/8/27 198/8/27
s 0
f 215/8/12 216/8/12 217/8/12
f 215/8/12 217/8/12 218/8/12
f 219/9/13 220/10/13 221/10/13
f 219/9/13 221/10/13 222/9/13
f 223/8/14 224/8/14 225/8/14
f 223/8/14 225/8/14 226/8/14
f 227/8/12 215/8/12 218/8/12
f 227/8/12 218/8/12 228/8/12
s 1
f 229/9/15 230/10/15 231/10/16
f 229/9/15 231/10/16 232/9/16
s 0
f 224/8/14 233/8/14 234/8/14
f 224/8/14 234/8/14 225/8/14
s 1
f 232/9/16 231/10/16 235/10/16
f 232/9/16 235/10/16 236/9/16
f 237/8/27 238/8/28 239/8/28
f 237/8/27 239/8/28 240/8/27
f 241/8/19 242/8/19 243/8/20
f 241/8/19 243/8/20 244/8/20
f 244/8/20 243/8/20 245/8/21
f 244/8/20 245/8/21 246/8/21
f 246/8/21 245/8/21 247/8/29
f 246/8/21 247/8/29 248/8/29
f 248/8/29 247/8/29 239/8/28
f 248/8/29 239/8/28 238/8/28
f 249/8/23 250/8/23 251/8/24
f 249/8/23 251/8/24 252/8/24
f 252/8/24 251/8/24 253/8/25
f 252/8/24 253/8/25 254/8/25
f 254/8/25 253/8/25 255/8/30
f 254/8/25 255/8/30 256/8/30
f 256/8/30 255/8/30 237/8/27
f 256/8/30 237/8/27 240/8/27
s 0
f 257/8/12 258/8/12 259/8/12
f 257/8/12 259/8/12 260/8/12
f 261/9/13 262/10/13 263/10/13
f 261/9/13 263/10/13 264/9/13
f 265/8/14 266/8/14 267/8/14
f 265/8/14 267/8/14 268/8/14
f 269/8/12 257/8/12 260/8/12
f 269/8/12 260/8/12 270/8/12
s 1
f 271/9/15 272/10/15 273/10/16
f 271/9/15 273/10/16 274/9/16
s 0
f 266/8/14 275/8/14 276/8/14
f 266/8/14 276/8/14 267/8/14
s 1
f 274/9/16 273/10/16 277/10/16
f 274/9/16 277/10/16 278/9/16
f 279/8/27 280/8/28 281/8/28
f 279/8/27 281/8/28 282/8/27
f 283/8/19 284/8/19 285/8/20
f 283/8/19 285/8/20 286/8/20
f 286/8/20 285/8/20 287/8/21
f 286/8/20 287/8/21 288/8/21
f 288/8/21 287/8/21 289/8/29
f 288/8/21 289/8/29 290/8/29
f 290/8/29 289/8/29 281/8/28
f 290/8/29 281/8/28 280/8/28
f 291/8/23 292/8/23 293/8/24
f 291/8/23 293/8/24 294/8/24
f 294/8/24 293/8/24 295/8/25
f 294/8/24 295/8/25 296/8/25
f 296/8/25 295/8/25 297/8/30
f 296/8/25 297/8/30 298/8/30
f 298/8/30 297/8/30 279/8/27
f 298/8/30 279/8/27 282/8/27
s 0
f 299/8/12 300/8/12 301/8/12
f 299/8/12 301/8/12 302/8/12
f 303/9/1 304/10/1 305/10/1
f 303/9/1 305/10/1 306/9/1
f 307/8/14 308/8/14 309/8/14
f 307/8/14 309/8/14 310/8/14
f 311/8/12 299/8/12 302/8/12
f 311/8/12 302/8/12 312/8/12
s 1
f 313/9/15 314/10/15 315/10/16
f 313/9/15 315/10/16 316/9/16
s 0
f 308/8/14 317/8/14 318/8/14
f 308/8/14 318/8/14 309/8/14
s 1
f 316/9/16 315/10/16 319/10/16
f 316/9/16 319/10/16 320/9/16
f 321/8/27 322/8/28 323/8/28
f 321/8/27 323/8/28 324/8/27
f 325/8/19 326/8/19 327/8/20
f 325/8/19 327/8/20 328/8/20
f 328/8/20 327/8/20 329/8/21
f 328/8/20 329/8/21 330/8/21
f 330/8/21 329/8/21 331/8/29
f 330/8/21 331/8/29 332/8/29
f 332/8/29 331/8/29 323/8/28
f 332/8/29 323/8/28 322/8/28
f 333/8/23 334/8/23 335/8/24
f 333/8/23 335/8/24 336/8/24
f 336/8/24 335/8/24 337/8/25
f 336/8/24 337/8/25 338/8/25
f 338/8/25 337/8/25 339/8/30
f 338/8/25 339/8/30 340/8/30
f 340/8/30 339/8/30 321/8/27
f 340/8/30 321/8/27 324/8/27
s 0
f 341/8/12 342/8/12 343/8/12
f 341/8/12 343/8/12 344/8/12
f 345/9/13 346/10/13 347/10/13
f 345/9/13 347/10/13 348/9/13
f 349/8/14 350/8/14 351/8/14
f 349/8/14 351/8/14 352/8/14
f 353/9/15 354/10/15 355/10/15
f 353/9/15 355/10/15 356/9/15
f 357/4/5 358/4/5 359/4/5
f 357/4/5 359/4/5 360/4/5
s 1
f 37/2/8 361/1/14 362/1/14
f 37/2/8 362/1/14 38/2/8
s 0
f 363/11/12 364/12/12 365/12/12
f 363/11/12 365/12/12 366/11/12
f 367/13/14 368/6/14 369/6/14
f 367/13/14 369/6/14 370/13/14
f 6/1/1 1/1/1 10/2/1
f 6/1/1 10/2/1 7/3/1
f 371/6/1 372/13/1 373/14/1
f 371/6/1 373/14/1 374/7/1
f 16/2/2 20/1/2 11/4/2
f 16/2/2 11/4/2 15/5/2
f 375/11/2 376/12/2 377/13/2
f 375/11/2 377/13/2 378/6/2
f 379/9/15 380/10/15 381/9/15
f 380/10/15 379/9/15 382/10/15
f 382/10/15 379/9/15 383/9/15
f 382/10/15 383/9/15 384/10/15
f 384/10/15 383/9/15 385/9/15
f 384/10/15 385/9/15 386/10/15
s 1
f 386/10/15 385/9/15 387/9/31
f 386/10/15 387/9/31 388/10/31
f 389/8/32 390/8/32 391/8/32
f 390/8/32 389/8/32 392/8/32
f 392/8/32 389/8/32 393/8/32
f 392/8/32 393/8/32 394/8/32
f 394/8/32 393/8/32 395/8/32
f 394/8/32 395/8/32 396/8/32
f 396/8/32 395/8/32 397/8/33
f 396/8/32 397/8/33 398/8/33
f 398/8/33 397/8/33 399/8/33
f 398/8/33 399/8/33 400/8/33
f 400/8/33 399/8/33 401/10/32
f 400/8/33 401/10/32 402/8/32
s 0
f 403/9/15 404/10/15 405/9/15
f 404/10/15 403/9/15 406/10/15
f 406/10/15 403/9/15 407/9/15
f 406/10/15 407/9/15 408/10/15
f 408/10/15 407/9/15 409/9/15
f 408/10/15 409/9/15 410/10/15
s 1
f 410/10/15 409/9/15 411/9/31
f 410/10/15 411/9/31 412/10/31
f 413/8/32 414/8/32 415/8/32
f 414/8/32 413/8/32 416/8/32
f 416/8/32 413/8/32 417/8/32
f 416/8/32 417/8/32 418/8/32
f 418/8/32 417/8/32 419/8/32
f 418/8/32 419/8/32 420/8/32
f 420/8/32 419/8/32 421/8/32
f 420/8/32 421/8/32 422/8/32
f 422/8/32 421/8/32 423/8/32
f 422/8/32 423/8/32 424/8/32
f 424/8/32 423/8/32 425/10/32
f 424/8/32 425/10/32 426/8/32
s 0
f 427/9/15 428/10/15 429/10/15
f 428/10/15 427/9/15 430/9/15
f 428/10/15 430/9/15 431/10/15
f 431/10/15 430/9/15 432/9/15
f 431/10/15 432/9/15 433/10/15
f 433/10/15 432/9/15 434/9/15
s 1
f 433/10/15 434/9/15 435/10/31
f 435/10/31 434/9/15 436/9/31
f 437/8/32 438/8/32 439/8/32
f 438/8/32 437/8/32 440/8/32
f 440/8/32 437/8/32 441/8/32
f 440/8/32 441/8/32 442/8/32
f 442/8/32 441/8/32 443/8/32
f 442/8/32 443/8/32 444/8/32
f 444/8/32 443/8/32 445/8/32
f 444/8/32 445/8/32 446/8/32
f 446/8/32 445/8/32 447/8/32
f 446/8/32 447/8/32 448/8/32
f 448/8/32 447/8/32 449/10/32
f 448/8/32 449/10/32 450/8/32
s 0
f 451/9/15 452/10/15 453/10/15
f 452/10/15 451/9/15 454/9/15
f 452/10/15 454/9/15 455/10/15
f 455/10/15 454/9/15 456/9/15
f 455/10/15 456/9/15 457/10/15
f 457/10/15 456/9/15 458/9/15
s 1
f 457/10/15 458/9/15 459/10/31
f 459/10/31 458/9/15 460/9/31
f 461/8/32 462/8/32 463/8/32
f 462/8/32 461/8/32 464/8/32
f 464/8/32 461/8/32 465/8/32
f 464/8/32 465/8/32 466/8/32
f 466/8/32 465/8/32 467/8/32
f 466/8/32 467/8/32 468/8/32
f 468/8/32 467/8/32 469/8/32
f 468/8/32 469/8/32 470/8/32
f 470/8/32 469/8/32 471/8/32
f 470/8/32 471/8/32 472/8/32
f 472/8/32 471/8/32 473/10/32
f 472/8/32 473/10/32 474/8/32
s 0
f 475/9/15 476/10/15 477/10/15
f 476/10/15 475/9/15 478/9/15
f 476/10/15 478/9/15 479/10/15
f 479/10/15 478/9/15 480/9/15
f 479/10/15 480/9/15 481/10/15
f 481/10/15 480/9/15 482/9/15
s 1
f 481/10/15 482/9/15 483/10/31
f 483/10/31 482/9/15 484/9/31
f 485/8/32 486/8/32 487/8/32
f 486/8/32 485/8/32 488/8/32
f 488/8/32 485/8/32 489/8/32
f 488/8/32 489/8/32 490/8/32
f 490/8/32 489/8/32 491/8/32
f 490/8/32 491/8/32 492/8/32
f 492/8/32 491/8/32 493/8/32
f 492/8/32 493/8/32 494/8/32
f 494/8/32 493/8/32 495/8/32
f 494/8/32 495/8/32 496/8/32
f 496/8/32 495/8/32 497/10/32
f 496/8/32 497/10/32 498/8/32
s 0
f 499/9/15 500/10/15 501/10/15
f 500/10/15 499/9/15 502/9/15
f 500/10/15 502/9/15 503/10/15
f 503/10/15 502/9/15 504/9/15
f 503/10/15 504/9/15 505/10/15
f 505/10/15 504/9/15 506/9/15
s 1
f 505/10/15 506/9/15 507/10/31
f 507/10/31 506/9/15 508/9/31
f 509/8/32 510/8/32 511/8/32
f 510/8/32 509/8/32 512/8/32
f 512/8/32 509/8/32 513/8/32
f 512/8/32 513/8/32 514/8/32
f 514/8/32 513/8/32 515/8/32
f 514/8/32 515/8/32 516/8/32
f 516/8/32 515/8/32 517/8/32
f 516/8/32 517/8/32 518/8/32
f 518/8/32 517/8/32 519/8/32
f 518/8/32 519/8/32 520/8/32
f 520/8/32 519/8/32 521/10/32
f 520/8/32 521/10/32 522/8/32
s 0
f 523/9/15 524/10/15 525/9/15
f 524/10/15 523/9/15 526/10/15
f 526/10/15 523/9/15 527/9/15
f 526/10/15 527/9/15 528/10/15
f 528/10/15 527/9/15 529/9/15
f 528/10/15 529/9/15 530/10/15
s 1
f 530/10/15 529/9/15 531/9/31
f 530/10/15 531/9/31 532/10/31
f 533/8/34 534/8/34 535/8/34
f 534/8/34 533/8/34 536/8/34
f 536/8/34 533/8/34 537/8/34
f 536/8/34 537/8/34 538/8/34
f 538/8/34 537/8/34 539/8/34
f 538/8/34 539/8/34 540/8/34
f 540/8/34 539/8/34 541/8/34
f 540/8/34 541/8/34 542/8/34
f 542/8/34 541/8/34 543/8/35
f 542/8/34 543/8/35 544/8/35
f 544/8/35 543/8/35 545/10/34
f 544/8/35 545/10/34 546/8/34
