# Blender 5.2.0 LTS
# www.blender.org
mtllib 12_3_BaggageClaimBand_AIRPORT_0.mtl
o 12.3.BaggageClaimBand_AIRPORT_0
v 2.776253 0.772152 -0.991913
v 2.776253 0.837148 -0.937214
v 2.776253 0.737260 -0.876416
v 2.156466 -1.506117 -0.858077
v 2.156466 -1.506117 -1.093093
v 2.405289 -1.506117 -1.010251
v -0.168977 1.087186 -1.093094
v -0.082396 -0.843175 -1.093093
v -2.776253 -0.843175 -1.093093
v -2.776253 -0.730134 -0.981809
v -2.776253 -0.843175 -1.093093
v -2.776253 -1.506117 -1.093093
v -0.082024 -1.506117 -0.858077
v 0.005796 1.042854 -0.858077
v -0.084423 1.020612 -0.858077
v -0.168695 0.966917 -0.858077
v 0.005796 1.161443 -1.093094
v -0.084506 1.139694 -1.093094
v -2.776253 -1.506117 -1.093093
v -2.499079 -1.252722 -0.858077
v -2.499079 -1.506117 -0.858077
v 2.776253 0.772153 0.991913
v 2.776253 0.737261 0.876415
v 2.776253 0.837149 0.937214
v 2.156466 -1.506116 0.858078
v 2.405289 -1.506116 1.010252
v 2.156466 -1.506116 1.093094
v -0.168977 1.087187 1.093093
v -2.776253 -0.843174 1.093094
v -0.082396 -0.843174 1.093094
v -2.776253 -0.730133 0.981810
v -2.776253 -1.506116 1.093094
v -2.776253 -0.843174 1.093094
v -0.082024 -1.506116 0.858078
v -0.084423 1.020613 0.858077
v 0.005796 1.042854 0.858077
v -0.168695 0.966917 0.858077
v 0.005796 1.161444 1.093093
v -0.084506 1.139695 1.093093
v -2.776253 -1.506116 1.093094
v -2.499079 -1.506116 0.858078
v -2.499079 -1.252722 0.858078
v 2.752213 -1.506117 -1.010251
v 2.405289 -1.506117 -1.010251
v 2.405289 1.116775 -1.010252
v 2.752213 0.788896 -1.010251
v 2.405289 1.116775 -1.010252
v 2.405289 -1.506117 -1.010251
v 2.405289 -1.506117 -1.328109
v 2.405289 1.280033 -1.328110
v 2.156466 1.042854 -0.858078
v 2.752213 0.714975 -0.858077
v 2.752213 0.714975 -0.000000
v 2.156466 1.042854 -0.000000
v 2.752213 0.852793 -0.947348
v 2.405289 1.180672 -0.947348
v 2.405289 1.180672 -0.000000
v 2.752213 0.852793 -0.000000
v 2.776253 0.837148 -0.937214
v 2.752213 0.852793 -0.947348
v 2.752213 0.852793 -0.000000
v 2.776253 0.837148 -0.000000
v 2.405289 -1.506117 -1.328109
v 2.156466 -1.506117 -1.328109
v 2.156466 1.280033 -1.328110
v 2.405289 1.280033 -1.328110
v 2.405289 1.506116 -1.105542
v 2.156466 1.506116 -1.105542
v 2.156466 1.506116 -0.000000
v 2.405289 1.506116 -0.000000
v 2.156466 1.274485 -0.981810
v 2.156466 1.274485 -0.000000
v 2.156466 1.506116 -0.000000
v 2.156466 1.506116 -1.105542
v 2.156466 1.274485 -0.000000
v 2.156466 1.274485 -0.981810
v 0.005796 1.274485 -0.981810
v 0.005796 1.274485 -0.000000
v 2.405289 1.180672 -0.000000
v 2.405289 1.180672 -0.947348
v 2.405289 1.506116 -1.105542
v 2.405289 1.506116 -0.000000
v 2.156466 1.506116 -1.105542
v 2.405289 1.506116 -1.105542
v 2.405289 1.280033 -1.328110
v 2.156466 1.280033 -1.328110
v 2.752213 0.788896 -1.010251
v 2.776253 0.772152 -0.991913
v 2.156466 -1.506117 -0.858077
v 2.752213 -1.506117 -0.858077
v 2.752213 0.714975 -0.858077
v 2.156466 1.042854 -0.858078
v 2.776253 -1.506117 -0.876415
v 2.776253 -1.506117 -0.991913
v 2.776253 0.837148 -0.000000
v 2.776253 0.737261 -0.000000
v 2.752213 0.714975 -0.858077
v 2.776253 0.737260 -0.876416
v 2.776253 0.737261 -0.000000
v 2.752213 0.714975 -0.000000
v 2.776253 -1.506117 -0.991913
v 2.752213 -1.506117 -1.010251
v 2.752213 -1.506117 -0.858077
v 2.776253 -1.506117 -0.876415
v 2.776253 0.737260 -0.876416
v 2.752213 0.714975 -0.858077
v 2.405289 -1.506117 -1.328109
v 2.156466 -1.506117 -1.328109
v 2.752213 -1.506117 -1.010251
v 2.752213 -1.506117 -0.858077
v 2.776253 -1.506117 -0.991913
v 2.776253 -1.506117 -0.876415
v -0.167567 1.201531 -0.000000
v -0.167951 1.201176 -0.981810
v -2.776253 -0.730134 -0.981809
v -2.776253 -0.730134 0.000000
v 2.156466 1.280033 -1.328110
v 2.156466 1.161443 -1.093094
v 0.005796 1.042854 -0.000000
v 0.005796 1.042854 -0.858077
v -2.499079 -1.506117 -0.858077
v -2.499079 -1.506116 0.000001
v -2.776253 -1.506116 0.000001
v -2.776253 -1.506117 -1.093093
v 2.156466 1.274485 -0.981810
v 2.156466 1.161443 -1.093094
v 0.005796 1.161443 -1.093094
v 0.005796 1.274485 -0.981810
v -0.082070 -1.506117 -1.093093
v -0.082024 -1.506117 -0.858077
v -0.168695 0.966917 -0.858077
v -0.168251 0.967339 -0.000000
v -2.499079 -1.252722 0.000001
v -2.499079 -1.252722 -0.858077
v -0.167951 1.201176 -0.981810
v -0.168977 1.087186 -1.093094
v -2.776253 -0.843175 -1.093093
v -2.776253 -0.730134 -0.981809
v -2.776253 -1.506116 0.000001
v -2.776253 -0.730134 0.000000
v -2.499079 -1.252722 -0.858077
v -2.499079 -1.506117 -0.858077
v -0.084205 1.253013 -0.981810
v -0.084093 1.253117 -0.000000
v -0.084293 1.020736 -0.000000
v -0.084423 1.020612 -0.858077
v -0.084205 1.253013 -0.981810
v -0.084506 1.139694 -1.093094
v 2.156466 1.161443 -1.093094
v 2.156466 -0.843175 -1.093093
v -2.499079 -1.252722 -0.858077
v -2.499079 -1.252722 0.000001
v -2.499079 -1.506116 0.000001
v -2.499079 -1.506117 -0.858077
v -0.082396 -0.843175 -1.093093
v 2.156466 -0.843175 -1.093093
v 2.156466 -1.506117 -1.093093
v -0.082070 -1.506117 -1.093093
v -2.776253 -0.843175 -1.093093
v -2.776253 -1.506117 -1.093093
v 2.752213 -1.506116 1.010252
v 2.752213 0.788897 1.010251
v 2.405289 1.116775 1.010251
v 2.405289 -1.506116 1.010252
v 2.405289 1.116775 1.010251
v 2.405289 1.280034 1.328109
v 2.405289 -1.506116 1.328110
v 2.405289 -1.506116 1.010252
v 2.156466 1.042854 0.858077
v 2.752213 0.714976 0.858077
v 2.752213 0.852794 0.947347
v 2.405289 1.180672 0.947347
v 2.776253 0.837149 0.937214
v 2.752213 0.852794 0.947347
v 2.405289 -1.506116 1.328110
v 2.405289 1.280034 1.328109
v 2.156466 1.280034 1.328109
v 2.156466 -1.506116 1.328110
v 2.405289 1.506117 1.105541
v 2.156466 1.506117 1.105541
v 2.156466 1.274485 0.981809
v 2.156466 1.506117 1.105541
v 0.005796 1.274485 0.981809
v 2.156466 1.274485 0.981809
v 2.405289 1.506117 1.105541
v 2.405289 1.180672 0.947347
v 2.156466 1.506117 1.105541
v 2.156466 1.280034 1.328109
v 2.405289 1.280034 1.328109
v 2.405289 1.506117 1.105541
v 2.752213 0.788897 1.010251
v 2.776253 0.772153 0.991913
v 2.156466 -1.506116 0.858078
v 2.156466 1.042854 0.858077
v 2.752213 0.714976 0.858077
v 2.752213 -1.506116 0.858078
v 2.776253 -1.506116 0.991914
v 2.776253 -1.506116 0.876416
v 2.752213 0.714976 0.858077
v 2.776253 0.737261 0.876415
v 2.752213 -1.506116 1.010252
v 2.776253 -1.506116 0.991914
v 2.752213 -1.506116 0.858078
v 2.752213 0.714976 0.858077
v 2.776253 0.737261 0.876415
v 2.776253 -1.506116 0.876416
v 2.405289 -1.506116 1.328110
v 2.156466 -1.506116 1.328110
v 2.752213 -1.506116 0.858078
v 2.752213 -1.506116 1.010252
v 2.776253 -1.506116 0.876416
v 2.776253 -1.506116 0.991914
v -2.776253 -0.730133 0.981810
v -0.167951 1.201176 0.981809
v 2.156466 1.161444 1.093093
v 2.156466 1.280034 1.328109
v 0.005796 1.042854 0.858077
v -2.499079 -1.506116 0.858078
v -2.776253 -1.506116 1.093094
v 2.156466 1.274485 0.981809
v 0.005796 1.274485 0.981809
v 0.005796 1.161444 1.093093
v 2.156466 1.161444 1.093093
v -0.082070 -1.506116 1.093094
v -0.082024 -1.506116 0.858078
v -0.168695 0.966917 0.858077
v -2.499079 -1.252722 0.858078
v -0.167951 1.201176 0.981809
v -2.776253 -0.730133 0.981810
v -2.776253 -0.843174 1.093094
v -0.168977 1.087187 1.093093
v -2.499079 -1.506116 0.858078
v -2.499079 -1.252722 0.858078
v -0.084205 1.253013 0.981809
v -0.084423 1.020613 0.858077
v -0.084506 1.139695 1.093093
v -0.084205 1.253013 0.981809
v 2.156466 1.161444 1.093093
v 2.156466 -0.843174 1.093094
v -2.499079 -1.252722 0.858078
v -2.499079 -1.506116 0.858078
v -0.082396 -0.843174 1.093094
v -0.082070 -1.506116 1.093094
v 2.156466 -1.506116 1.093094
v 2.156466 -0.843174 1.093094
v -2.776253 -0.843174 1.093094
v -2.776253 -1.506116 1.093094
v 2.575008 0.459254 0.861481
v 2.575008 0.817509 0.861481
v 2.542500 0.817509 0.861481
v 2.542500 0.459289 0.861481
v 2.542500 0.459284 0.718606
v 2.542500 0.817509 0.718606
v 2.542500 0.817509 0.575732
v 2.542500 0.459289 0.575732
v 2.542500 0.459289 0.575732
v 2.542500 0.817509 0.575732
v 2.575008 0.817509 0.575732
v 2.575008 0.459254 0.575732
v 2.575008 0.817509 0.718606
v 2.575008 0.817509 0.861481
v 2.595553 0.798288 0.845868
v 2.595553 0.798288 0.718606
v 2.574912 -0.571714 0.713953
v 2.585051 -0.578254 0.574595
v 2.620655 -0.578150 0.574569
v 2.608284 -0.571589 0.713776
v 2.542500 0.817509 0.718606
v 2.542500 0.817509 0.861481
v 2.595553 0.453238 0.718606
v 2.595553 0.798288 0.718606
v 2.595553 0.798288 0.845868
v 2.595553 0.453238 0.845868
v 2.595553 0.798288 0.591344
v 2.595553 0.453238 0.591344
v 2.592980 -0.438246 0.856071
v 2.594528 -0.566530 0.852661
v 2.616170 -0.546440 0.835525
v 2.614828 -0.422634 0.840908
v 2.644538 -0.558103 0.589901
v 2.629096 -0.552316 0.713723
v 2.575008 0.210992 0.861481
v 2.595553 0.210992 0.845869
v 2.595553 0.453238 0.845868
v 2.581955 -0.050039 0.575732
v 2.575153 0.210992 0.575732
v 2.595700 0.210992 0.591344
v 2.602237 -0.043607 0.591344
v 2.601534 -0.043585 0.718606
v 2.595636 0.210992 0.718606
v 2.595553 0.210992 0.845869
v 2.599756 -0.043585 0.845869
v 2.549344 -0.050036 0.575732
v 2.542635 0.210992 0.575732
v 2.547854 -0.049992 0.718606
v 2.542527 0.210992 0.718606
v 2.542635 0.210992 0.575732
v 2.549344 -0.050036 0.575732
v 2.579005 -0.049992 0.861481
v 2.542500 0.210992 0.861481
v 2.545996 -0.049992 0.861481
v 2.588890 -0.309923 0.859735
v 2.554952 -0.309989 0.859840
v 2.558564 -0.438474 0.856418
v 2.567102 -0.441650 0.715164
v 2.560646 -0.311555 0.717491
v 2.566051 -0.314101 0.575596
v 2.577916 -0.446850 0.574891
v 2.577916 -0.446850 0.574891
v 2.566051 -0.314101 0.575596
v 2.598953 -0.314109 0.575581
v 2.611414 -0.446808 0.574860
v 2.624304 -0.425590 0.715305
v 2.615790 -0.298695 0.717597
v 2.610092 -0.297293 0.844340
v 2.614828 -0.422634 0.840908
v 2.618444 -0.300821 0.591174
v 2.630282 -0.429954 0.590356
v 2.599756 -0.043585 0.845869
v 2.610092 -0.297293 0.844340
v 2.595553 0.798288 0.845868
v 2.620655 -0.578150 0.574569
v 2.644538 -0.558103 0.589901
v 2.629096 -0.552316 0.713723
v 2.616170 -0.546440 0.835525
v 2.585051 -0.578254 0.574595
v 2.574912 -0.571714 0.713953
v 2.585051 -0.578254 0.574595
v 2.561874 -0.567243 0.853717
v 2.561874 -0.567243 0.853717
v 2.558564 -0.438474 0.856418
v 2.644538 -0.558103 0.589901
v 2.630282 -0.429954 0.590356
v 2.542500 0.210992 0.861481
v 2.542500 0.459289 0.861481
v 2.595700 0.210992 0.591344
v 2.595553 0.453238 0.591344
v 2.618444 -0.300821 0.591174
v 2.602237 -0.043607 0.591344
v 2.554952 -0.309989 0.859840
v 2.545996 -0.049992 0.861481
v 2.594528 -0.566530 0.852661
v 2.616170 -0.546440 0.835525
v 2.595553 0.798288 0.591344
v 2.542500 0.817509 0.575732
v 2.561874 -0.567243 0.853717
v 2.542500 0.817509 0.861481
v 2.575008 0.459254 0.575732
v 2.575008 0.817509 0.575732
v 2.542500 0.817509 0.575732
v 2.542500 0.459289 0.575732
v 2.542500 0.459284 0.432857
v 2.542500 0.817509 0.432857
v 2.542500 0.817509 0.289983
v 2.542500 0.459288 0.289983
v 2.542500 0.459288 0.289983
v 2.542500 0.817509 0.289983
v 2.575008 0.817509 0.289983
v 2.575008 0.459254 0.289983
v 2.575008 0.817509 0.432857
v 2.575008 0.817509 0.575732
v 2.595553 0.798288 0.560120
v 2.595553 0.798288 0.432857
v 2.537864 -0.578291 0.432858
v 2.545590 -0.572123 0.289983
v 2.577131 -0.571490 0.289983
v 2.570141 -0.579195 0.432858
v 2.542500 0.817509 0.432857
v 2.542500 0.817509 0.575732
v 2.595553 0.453238 0.432857
v 2.595553 0.798288 0.432857
v 2.595553 0.798288 0.560120
v 2.595553 0.453238 0.560120
v 2.595553 0.798288 0.305595
v 2.595553 0.453238 0.305595
v 2.570112 -0.445489 0.574911
v 2.569395 -0.576497 0.574624
v 2.589794 -0.557815 0.559206
v 2.590468 -0.429501 0.559540
v 2.594608 -0.551882 0.305596
v 2.590615 -0.561168 0.432858
v 2.575008 0.210992 0.575732
v 2.595553 0.210992 0.560120
v 2.595553 0.453238 0.560120
v 2.574811 -0.050039 0.289983
v 2.575008 0.210992 0.289983
v 2.595553 0.210992 0.305595
v 2.595153 -0.043627 0.305595
v 2.594746 -0.043682 0.432858
v 2.595553 0.210992 0.432857
v 2.595553 0.210992 0.560120
v 2.595181 -0.043627 0.560120
v 2.542302 -0.050034 0.289983
v 2.542500 0.210992 0.289983
v 2.541857 -0.050108 0.432858
v 2.542500 0.210992 0.432857
v 2.542500 0.210992 0.289983
v 2.542302 -0.050034 0.289983
v 2.574680 -0.050039 0.575732
v 2.542500 0.210992 0.575732
v 2.542272 -0.050034 0.575732
v 2.571591 -0.313525 0.575595
v 2.539594 -0.313647 0.575619
v 2.538343 -0.445709 0.574986
v 2.540390 -0.446970 0.432858
v 2.540787 -0.313863 0.432858
v 2.545984 -0.311878 0.289983
v 2.546607 -0.442294 0.289983
v 2.546607 -0.442294 0.289983
v 2.545984 -0.311878 0.289983
v 2.578526 -0.311877 0.289983
v 2.579004 -0.442193 0.289983
v 2.591660 -0.429789 0.432858
v 2.592862 -0.300470 0.432858
v 2.592008 -0.300619 0.560069
v 2.590468 -0.429501 0.559540
v 2.597978 -0.299202 0.305596
v 2.598308 -0.426603 0.305596
v 2.595181 -0.043627 0.560120
v 2.592008 -0.300619 0.560069
v 2.595553 0.798288 0.560120
v 2.590615 -0.561168 0.432858
v 2.589794 -0.557815 0.559206
v 2.545590 -0.572123 0.289983
v 2.537864 -0.578291 0.432858
v 2.545590 -0.572123 0.289983
v 2.537009 -0.576388 0.574721
v 2.537009 -0.576388 0.574721
v 2.538343 -0.445709 0.574986
v 2.594608 -0.551882 0.305596
v 2.598308 -0.426603 0.305596
v 2.542500 0.210992 0.575732
v 2.542500 0.459289 0.575732
v 2.595553 0.210992 0.305595
v 2.595553 0.453238 0.305595
v 2.597978 -0.299202 0.305596
v 2.595153 -0.043627 0.305595
v 2.539594 -0.313647 0.575619
v 2.542272 -0.050034 0.575732
v 2.569395 -0.576497 0.574624
v 2.589794 -0.557815 0.559206
v 2.595553 0.798288 0.305595
v 2.542500 0.817509 0.289983
v 2.537009 -0.576388 0.574721
v 2.542500 0.817509 0.575732
v 2.575008 0.459254 0.289983
v 2.575008 0.817509 0.289983
v 2.542500 0.817509 0.289983
v 2.542500 0.459288 0.289983
v 2.542500 0.459284 0.147109
v 2.542500 0.817509 0.147108
v 2.542500 0.817509 0.004234
v 2.542500 0.459288 0.004234
v 2.542500 0.459288 0.004234
v 2.542500 0.817509 0.004234
v 2.575008 0.817509 0.004234
v 2.575008 0.459253 0.004234
v 2.575008 0.817509 0.147108
v 2.575008 0.817509 0.289983
v 2.595553 0.798288 0.274370
v 2.595553 0.798288 0.147108
v 2.594990 -0.574891 0.147109
v 2.607823 -0.572536 0.004234
v 2.643695 -0.572513 0.004234
v 2.630104 -0.574842 0.147109
v 2.542500 0.817509 0.147108
v 2.542500 0.817509 0.289983
v 2.595553 0.453238 0.147109
v 2.595553 0.798288 0.147108
v 2.595553 0.798288 0.274370
v 2.595553 0.453238 0.274371
v 2.595553 0.798288 0.019846
v 2.595553 0.453238 0.019846
v 2.599719 -0.447428 0.289983
v 2.603987 -0.579013 0.289983
v 2.627322 -0.559216 0.274371
v 2.621540 -0.430665 0.274371
v 2.663461 -0.553437 0.019847
v 2.652762 -0.555571 0.147109
v 2.575008 0.210992 0.289983
v 2.595553 0.210992 0.274371
v 2.595553 0.453238 0.274371
v 2.578815 -0.049992 0.004234
v 2.575008 0.210992 0.004234
v 2.595553 0.210992 0.019846
v 2.599042 -0.043585 0.019847
v 2.598066 -0.043585 0.147109
v 2.595553 0.210992 0.147109
v 2.595553 0.210992 0.274371
v 2.596490 -0.043607 0.274371
v 2.546234 -0.049992 0.004234
v 2.542500 0.210992 0.004234
v 2.545184 -0.049992 0.147109
v 2.542500 0.210992 0.147109
v 2.542500 0.210992 0.004234
v 2.546234 -0.049992 0.004234
v 2.575886 -0.050039 0.289983
v 2.542500 0.210992 0.289983
v 2.543348 -0.050035 0.289983
v 2.589774 -0.314214 0.289983
v 2.556531 -0.314174 0.289983
v 2.565821 -0.447390 0.289983
v 2.581851 -0.444007 0.147109
v 2.565161 -0.312319 0.147109
v 2.570995 -0.311111 0.004234
v 2.592069 -0.441932 0.004234
v 2.592069 -0.441932 0.004234
v 2.570995 -0.311111 0.004234
v 2.604445 -0.311111 0.004234
v 2.626622 -0.441921 0.004234
v 2.637444 -0.427813 0.147109
v 2.619605 -0.299380 0.147109
v 2.610666 -0.300948 0.274371
v 2.621540 -0.430665 0.274371
v 2.623295 -0.298332 0.019847
v 2.644623 -0.425993 0.019847
v 2.596490 -0.043607 0.274371
v 2.610666 -0.300948 0.274371
v 2.595553 0.798288 0.274370
v 2.643695 -0.572513 0.004234
v 2.663461 -0.553437 0.019847
v 2.652762 -0.555571 0.147109
v 2.627322 -0.559216 0.274371
v 2.607823 -0.572536 0.004234
v 2.594990 -0.574891 0.147109
v 2.607823 -0.572536 0.004234
v 2.570823 -0.578993 0.289983
v 2.570823 -0.578993 0.289983
v 2.565821 -0.447390 0.289983
v 2.663461 -0.553437 0.019847
v 2.644623 -0.425993 0.019847
v 2.542500 0.210992 0.289983
v 2.542500 0.459288 0.289983
v 2.595553 0.210992 0.019846
v 2.595553 0.453238 0.019846
v 2.623295 -0.298332 0.019847
v 2.599042 -0.043585 0.019847
v 2.556531 -0.314174 0.289983
v 2.543348 -0.050035 0.289983
v 2.603987 -0.579013 0.289983
v 2.627322 -0.559216 0.274371
v 2.595553 0.798288 0.019846
v 2.542500 0.817509 0.004234
v 2.570823 -0.578993 0.289983
v 2.542500 0.817509 0.289983
v 2.575008 0.459253 0.004234
v 2.575008 0.817509 0.004234
v 2.542500 0.817509 0.004234
v 2.542500 0.459288 0.004234
v 2.542500 0.459284 -0.138640
v 2.542500 0.817509 -0.138641
v 2.542500 0.817509 -0.281515
v 2.542500 0.459288 -0.281515
v 2.542500 0.459288 -0.281515
v 2.542500 0.817509 -0.281515
v 2.575008 0.817509 -0.281515
v 2.575008 0.459253 -0.281515
v 2.575008 0.817509 -0.138641
v 2.575008 0.817509 0.004234
v 2.595553 0.798288 -0.011378
v 2.595553 0.798288 -0.138640
v 2.567657 -0.571960 -0.138640
v 2.544195 -0.571960 -0.281515
v 2.574514 -0.571960 -0.281515
v 2.600716 -0.571960 -0.138640
v 2.542500 0.817509 -0.138641
v 2.542500 0.817509 0.004234
v 2.595553 0.453238 -0.138640
v 2.595553 0.798288 -0.138640
v 2.595553 0.798288 -0.011378
v 2.595553 0.453238 -0.011378
v 2.595553 0.798288 -0.265903
v 2.595553 0.453238 -0.265902
v 2.613898 -0.441927 0.004234
v 2.626445 -0.572527 0.004234
v 2.651720 -0.553147 -0.011378
v 2.631681 -0.425747 -0.011378
v 2.593807 -0.552739 -0.265902
v 2.621708 -0.552739 -0.138640
v 2.575008 0.210992 0.004234
v 2.595553 0.210992 -0.011378
v 2.595553 0.453238 -0.011378
v 2.578997 -0.049992 -0.281515
v 2.575048 0.210992 -0.281515
v 2.595574 0.210992 -0.265902
v 2.599228 -0.043585 -0.265902
v 2.599056 -0.043585 -0.138640
v 2.595553 0.210992 -0.138640
v 2.595553 0.210992 -0.011378
v 2.599086 -0.043585 -0.011378
v 2.546417 -0.049992 -0.281515
v 2.542537 0.210992 -0.281515
v 2.546216 -0.049992 -0.138640
v 2.542500 0.210992 -0.138640
v 2.542537 0.210992 -0.281515
v 2.546417 -0.049992 -0.281515
v 2.578815 -0.049992 0.004234
v 2.542500 0.210992 0.004234
v 2.546234 -0.049992 0.004234
v 2.598639 -0.311112 0.004234
v 2.566316 -0.311110 0.004234
v 2.581322 -0.441931 0.004234
v 2.569285 -0.441468 -0.138640
v 2.561633 -0.310976 -0.138640
v 2.553281 -0.310976 -0.281515
v 2.549930 -0.441468 -0.281515
v 2.549930 -0.441468 -0.281515
v 2.553281 -0.310976 -0.281515
v 2.585805 -0.310976 -0.281515
v 2.582086 -0.441468 -0.281515
v 2.618902 -0.425451 -0.138640
v 2.612651 -0.298162 -0.138640
v 2.617581 -0.298217 -0.011378
v 2.631681 -0.425747 -0.011378
v 2.606775 -0.298162 -0.265902
v 2.604498 -0.425451 -0.265902
v 2.599086 -0.043585 -0.011378
v 2.617581 -0.298217 -0.011378
v 2.595553 0.798288 -0.011378
v 2.621708 -0.552739 -0.138640
v 2.651720 -0.553147 -0.011378
v 2.544195 -0.571960 -0.281515
v 2.567657 -0.571960 -0.138640
v 2.544195 -0.571960 -0.281515
v 2.590180 -0.572539 0.004234
v 2.590180 -0.572539 0.004234
v 2.581322 -0.441931 0.004234
v 2.593807 -0.552739 -0.265902
v 2.604498 -0.425451 -0.265902
v 2.542500 0.210992 0.004234
v 2.542500 0.459288 0.004234
v 2.595574 0.210992 -0.265902
v 2.595553 0.453238 -0.265902
v 2.606775 -0.298162 -0.265902
v 2.599228 -0.043585 -0.265902
v 2.566316 -0.311110 0.004234
v 2.546234 -0.049992 0.004234
v 2.626445 -0.572527 0.004234
v 2.651720 -0.553147 -0.011378
v 2.595553 0.798288 -0.265903
v 2.542500 0.817509 -0.281515
v 2.590180 -0.572539 0.004234
v 2.542500 0.817509 0.004234
v 2.575008 0.459253 -0.281515
v 2.575008 0.817509 -0.281515
v 2.542500 0.817509 -0.281515
v 2.542500 0.459288 -0.281515
v 2.542500 0.459284 -0.424389
v 2.542500 0.817509 -0.424389
v 2.542500 0.817509 -0.567264
v 2.542500 0.459288 -0.567264
v 2.542500 0.459288 -0.567264
v 2.542500 0.817509 -0.567264
v 2.575008 0.817509 -0.567264
v 2.575008 0.459253 -0.567264
v 2.575008 0.817509 -0.424389
v 2.575008 0.817509 -0.281515
v 2.595553 0.798288 -0.297127
v 2.595553 0.798288 -0.424389
v 2.521996 -0.571960 -0.424389
v 2.526957 -0.571960 -0.567263
v 2.559483 -0.571960 -0.567263
v 2.554574 -0.571960 -0.424389
v 2.542500 0.817509 -0.424389
v 2.542500 0.817509 -0.281515
v 2.595553 0.453238 -0.424389
v 2.595553 0.798288 -0.424389
v 2.595553 0.798288 -0.297127
v 2.595553 0.453238 -0.297127
v 2.595553 0.798288 -0.551652
v 2.595553 0.453238 -0.551651
v 2.564165 -0.441468 -0.281515
v 2.549745 -0.571960 -0.281515
v 2.573282 -0.552739 -0.297127
v 2.585262 -0.425451 -0.297127
v 2.580200 -0.552739 -0.551651
v 2.575993 -0.552739 -0.424389
v 2.575001 0.210992 -0.281515
v 2.595570 0.210992 -0.297127
v 2.595553 0.453238 -0.297127
v 2.577761 -0.049992 -0.567264
v 2.575470 0.210992 -0.567264
v 2.596016 0.210992 -0.551651
v 2.598000 -0.043585 -0.551651
v 2.595608 -0.043585 -0.424389
v 2.595868 0.210992 -0.424389
v 2.595570 0.210992 -0.297127
v 2.593581 -0.043585 -0.297127
v 2.545342 -0.049992 -0.567264
v 2.542952 0.210992 -0.567264
v 2.542650 -0.049992 -0.424389
v 2.542812 0.210992 -0.424389
v 2.542952 0.210992 -0.567264
v 2.545342 -0.049992 -0.567264
v 2.572900 -0.049992 -0.281515
v 2.542493 0.210992 -0.281515
v 2.540338 -0.049992 -0.281515
v 2.570765 -0.310976 -0.281515
v 2.537976 -0.310976 -0.281515
v 2.531321 -0.441468 -0.281515
v 2.530984 -0.441468 -0.424389
v 2.538807 -0.310976 -0.424389
v 2.543749 -0.310976 -0.567263
v 2.533923 -0.441468 -0.567263
v 2.533923 -0.441468 -0.567263
v 2.543749 -0.310976 -0.567263
v 2.577022 -0.310976 -0.567263
v 2.566575 -0.441468 -0.567263
v 2.584382 -0.425451 -0.424389
v 2.592185 -0.298162 -0.424389
v 2.591394 -0.298162 -0.297127
v 2.585262 -0.425451 -0.297127
v 2.599074 -0.298162 -0.551651
v 2.587534 -0.425451 -0.551651
v 2.593581 -0.043585 -0.297127
v 2.591394 -0.298162 -0.297127
v 2.595553 0.798288 -0.297127
v 2.575993 -0.552739 -0.424389
v 2.573282 -0.552739 -0.297127
v 2.526957 -0.571960 -0.567263
v 2.521996 -0.571960 -0.424389
v 2.526957 -0.571960 -0.567263
v 2.519952 -0.571960 -0.281515
v 2.519952 -0.571960 -0.281515
v 2.531321 -0.441468 -0.281515
v 2.580200 -0.552739 -0.551651
v 2.587534 -0.425451 -0.551651
v 2.542493 0.210992 -0.281515
v 2.542500 0.459288 -0.281515
v 2.596016 0.210992 -0.551651
v 2.595553 0.453238 -0.551651
v 2.599074 -0.298162 -0.551651
v 2.598000 -0.043585 -0.551651
v 2.537976 -0.310976 -0.281515
v 2.540338 -0.049992 -0.281515
v 2.549745 -0.571960 -0.281515
v 2.573282 -0.552739 -0.297127
v 2.595553 0.798288 -0.551652
v 2.542500 0.817509 -0.567264
v 2.519952 -0.571960 -0.281515
v 2.542500 0.817509 -0.281515
v 2.575008 0.459253 -0.567264
v 2.575008 0.817509 -0.567264
v 2.542500 0.817509 -0.567264
v 2.542500 0.459288 -0.567264
v 2.542500 0.459284 -0.710138
v 2.542500 0.817509 -0.710138
v 2.542500 0.817509 -0.853013
v 2.542500 0.459288 -0.853013
v 2.542500 0.459288 -0.853013
v 2.542500 0.817509 -0.853013
v 2.575008 0.817509 -0.853013
v 2.575008 0.459253 -0.853013
v 2.575008 0.817509 -0.710138
v 2.575008 0.817509 -0.567264
v 2.595553 0.798288 -0.582876
v 2.595553 0.798288 -0.710138
v 2.569330 -0.571960 -0.710138
v 2.554119 -0.571960 -0.853012
v 2.586877 -0.571960 -0.853012
v 2.602664 -0.571960 -0.710138
v 2.542500 0.817509 -0.710138
v 2.542500 0.817509 -0.567264
v 2.595553 0.453238 -0.710138
v 2.595553 0.798288 -0.710138
v 2.595553 0.798288 -0.582876
v 2.595553 0.453238 -0.582876
v 2.595553 0.798288 -0.837400
v 2.595553 0.453238 -0.837400
v 2.613842 -0.441468 -0.567263
v 2.618208 -0.571960 -0.567263
v 2.641952 -0.552739 -0.582876
v 2.632812 -0.425451 -0.582876
v 2.608716 -0.552739 -0.837400
v 2.623655 -0.552739 -0.710138
v 2.575470 0.210992 -0.567264
v 2.596007 0.210992 -0.582876
v 2.595553 0.453238 -0.582876
v 2.577826 -0.049992 -0.853012
v 2.575016 0.210992 -0.853012
v 2.595574 0.210992 -0.837400
v 2.598762 -0.043585 -0.837400
v 2.602543 -0.043585 -0.710138
v 2.595810 0.210992 -0.710138
v 2.596007 0.210992 -0.582876
v 2.605034 -0.043585 -0.582876
v 2.544959 -0.049992 -0.853012
v 2.542507 0.210992 -0.853012
v 2.549084 -0.049992 -0.710138
v 2.542751 0.210992 -0.710138
v 2.542507 0.210992 -0.853012
v 2.544959 -0.049992 -0.853012
v 2.585013 -0.049992 -0.567264
v 2.542952 0.210992 -0.567264
v 2.552364 -0.049992 -0.567264
v 2.608517 -0.310976 -0.567263
v 2.575321 -0.310976 -0.567263
v 2.580445 -0.441468 -0.567263
v 2.564068 -0.441468 -0.710138
v 2.561188 -0.310976 -0.710138
v 2.549487 -0.310976 -0.853012
v 2.549236 -0.441468 -0.853012
v 2.549236 -0.441468 -0.853012
v 2.549487 -0.310976 -0.853012
v 2.583181 -0.310976 -0.853012
v 2.582492 -0.441468 -0.853012
v 2.621257 -0.425451 -0.710138
v 2.616298 -0.298162 -0.710138
v 2.626733 -0.298162 -0.582876
v 2.632812 -0.425451 -0.582876
v 2.605118 -0.298162 -0.837400
v 2.605695 -0.425451 -0.837400
v 2.605034 -0.043585 -0.582876
v 2.626733 -0.298162 -0.582876
v 2.595553 0.798288 -0.582876
v 2.623655 -0.552739 -0.710138
v 2.641952 -0.552739 -0.582876
v 2.554119 -0.571960 -0.853012
v 2.569330 -0.571960 -0.710138
v 2.554119 -0.571960 -0.853012
v 2.582923 -0.571960 -0.567263
v 2.582923 -0.571960 -0.567263
v 2.580445 -0.441468 -0.567263
v 2.608716 -0.552739 -0.837400
v 2.605695 -0.425451 -0.837400
v 2.542952 0.210992 -0.567264
v 2.542500 0.459288 -0.567264
v 2.595574 0.210992 -0.837400
v 2.595553 0.453238 -0.837400
v 2.605118 -0.298162 -0.837400
v 2.598762 -0.043585 -0.837400
v 2.575321 -0.310976 -0.567263
v 2.552364 -0.049992 -0.567264
v 2.618208 -0.571960 -0.567263
v 2.641952 -0.552739 -0.582876
v 2.595553 0.798288 -0.837400
v 2.542500 0.817509 -0.853013
v 2.582923 -0.571960 -0.567263
v 2.542500 0.817509 -0.567264
v 2.156466 -0.843175 -1.093093
v 2.156466 -1.506117 -1.093093
v 2.156466 -1.506117 -1.328109
v 2.156466 -1.506116 1.328110
v 2.156466 -1.506116 1.093094
vn 1.0000 -0.0000 -0.0000
vn -0.0000 -1.0000 -0.0000
vn -0.0000 -0.0000 -1.0000
vn -1.0000 -0.0000 -0.0000
vn -0.0000 -0.0000 1.0000
vn 0.6467 -0.0000 -0.7627
vn 0.6467 -0.0000 0.7627
vn 0.4346 0.4598 -0.7744
vn 0.1902 0.2013 -0.9609
vn -0.2489 -0.9685 -0.0000
vn -0.4822 -0.8761 -0.0000
vn 0.6419 0.6791 -0.3560
vn 0.6648 0.7034 -0.2513
vn 0.6869 0.7268 -0.0000
vn 0.6381 0.7176 -0.2791
vn 0.6456 0.6960 -0.3143
vn 0.5454 0.8381 -0.0000
vn -0.0000 1.0000 -0.0000
vn -0.1168 0.9932 -0.0000
vn -0.1165 0.9932 -0.0000
vn -0.0000 0.7015 -0.7126
vn 0.6674 0.3098 -0.6772
vn 0.6575 0.2232 -0.7196
vn 0.6798 -0.7334 -0.0000
vn 0.6065 -0.0000 -0.7951
vn 0.6065 -0.0000 0.7951
vn -0.5609 0.8279 -0.0000
vn -0.5612 0.8277 -0.0000
vn -0.5951 0.8037 -0.0000
vn 0.1201 -0.9928 -0.0000
vn 0.1205 -0.9927 -0.0000
vn -0.0878 0.6988 -0.7099
vn -0.0784 0.6992 -0.7106
vn 0.6164 -0.7874 0.0001
vn 0.6161 -0.7877 -0.0000
vn 0.9191 -0.3939 -0.0000
vn -0.4213 0.6357 -0.6469
vn -0.4381 0.6301 -0.6411
vn -0.4610 0.6225 -0.6324
vn -0.4610 0.6226 -0.6324
vn -0.3838 0.9234 -0.0001
vn -0.3834 0.9236 -0.0000
vn 0.3928 -0.9196 -0.0000
vn 0.3936 -0.9193 0.0001
vn -0.2618 0.6766 -0.6882
vn -0.3038 0.6679 -0.6794
vn 0.9192 -0.3939 -0.0000
vn 0.1902 0.2013 0.9609
vn 0.4346 0.4598 0.7744
vn 0.6419 0.6791 0.3560
vn 0.6648 0.7034 0.2513
vn 0.6381 0.7176 0.2791
vn 0.6456 0.6960 0.3143
vn -0.0000 0.7015 0.7126
vn 0.6674 0.3098 0.6772
vn 0.6576 0.2232 0.7196
vn -0.0784 0.6992 0.7106
vn -0.0874 0.6987 0.7101
vn 0.6164 -0.7874 -0.0001
vn -0.4215 0.6357 0.6467
vn -0.4610 0.6226 0.6324
vn -0.4610 0.6225 0.6324
vn -0.4381 0.6301 0.6411
vn -0.3838 0.9234 0.0001
vn 0.3936 -0.9193 -0.0001
vn -0.3040 0.6679 0.6793
vn -0.2620 0.6766 0.6881
vn 0.3192 -0.0000 0.9477
vn 0.3646 0.6636 0.6533
vn 0.3646 0.6635 -0.6533
vn 0.3192 0.0001 -0.9477
vn 0.3673 0.9301 -0.0000
vn 0.3646 0.6635 0.6533
vn 0.7646 0.4207 0.4882
vn 0.6832 0.7302 -0.0000
vn 0.0086 -0.9991 0.0410
vn 0.0035 -0.9989 0.0473
vn 0.2981 -0.9515 0.0762
vn 0.3635 -0.9284 0.0775
vn 0.7646 0.4207 -0.4882
vn 0.6051 0.0002 -0.7962
vn 0.3234 -0.0209 0.9460
vn 0.3564 -0.6549 0.6664
vn 0.7485 -0.4161 0.5163
vn 0.5893 -0.0088 0.8078
vn 0.6369 -0.7640 0.1032
vn 0.6670 -0.7380 0.1023
vn 0.3170 0.0025 0.9484
vn 0.6037 0.0048 0.7972
vn 0.6051 -0.0000 0.7962
vn 0.3159 0.0152 -0.9487
vn 0.3169 0.0042 -0.9485
vn 0.6050 0.0081 -0.7961
vn 0.6053 0.0258 -0.7955
vn 0.9992 0.0379 0.0130
vn 0.9999 0.0112 0.0027
vn 0.9999 0.0100 0.0038
vn 0.9993 0.0338 0.0184
vn -0.0000 0.0002 -1.0000
vn -0.9993 -0.0343 -0.0155
vn -0.9999 -0.0101 -0.0032
vn -0.9999 -0.0116 -0.0029
vn -0.9991 -0.0395 -0.0146
vn 0.3112 0.0058 0.9503
vn 0.0007 -0.0032 1.0000
vn 0.3082 -0.0062 0.9513
vn 0.0037 -0.0169 0.9998
vn 0.0139 -0.0254 0.9996
vn -0.9967 -0.0513 -0.0631
vn -0.9980 -0.0509 -0.0386
vn -0.9973 -0.0625 -0.0398
vn -0.9960 -0.0625 -0.0640
vn -0.0009 0.0038 -1.0000
vn -0.0005 0.0028 -1.0000
vn 0.3145 0.0292 -0.9488
vn 0.2997 0.0310 -0.9535
vn 0.9963 0.0563 0.0655
vn 0.9977 0.0592 0.0334
vn 0.9978 0.0495 0.0438
vn 0.9966 0.0370 0.0737
vn 0.6029 0.0468 -0.7964
vn 0.5845 0.0578 -0.8093
vn 0.5965 0.0132 0.8025
vn 0.5856 0.0104 0.8105
vn 1.0000 -0.0000 0.0002
vn 1.0000 0.0002 0.0002
vn -1.0000 -0.0001 -0.0000
vn -1.0000 -0.0003 -0.0003
vn 0.2323 0.0234 -0.9724
vn 0.5538 0.0525 -0.8310
vn 0.9951 0.0488 0.0859
vn 0.9958 0.0219 0.0894
vn -0.0008 0.0022 -1.0000
vn -0.9961 -0.0493 -0.0738
vn -0.9958 -0.0565 -0.0722
vn 0.0212 -0.0234 0.9995
vn -0.9963 -0.0416 -0.0753
vn -0.9973 -0.0396 -0.0620
vn 0.9939 0.0735 0.0827
vn 0.9954 0.0762 0.0581
vn -1.0000 -0.0085 -0.0034
vn 0.9999 0.0125 0.0016
vn 1.0000 0.0003 0.0001
vn 0.9973 0.0692 0.0226
vn 0.9991 0.0419 0.0079
vn -0.9985 -0.0397 -0.0376
vn -0.9994 -0.0292 -0.0164
vn 0.3564 -0.6548 0.6665
vn 0.0134 -0.9993 0.0355
vn 0.3192 -0.0000 -0.9477
vn -0.0101 -0.9998 -0.0157
vn -0.0042 -0.9988 -0.0487
vn 0.3770 -0.6500 -0.6598
vn 0.3595 -0.9331 -0.0078
vn 0.6051 -0.0000 -0.7962
vn 0.3205 -0.0056 0.9472
vn 0.3533 -0.6635 0.6596
vn 0.7549 -0.4268 0.4979
vn 0.6076 -0.0090 0.7942
vn 0.7881 -0.3942 -0.4727
vn 0.6905 -0.7234 0.0021
vn 0.3194 -0.0002 0.9476
vn 0.6054 -0.0004 0.7959
vn 0.3218 0.0022 -0.9468
vn 0.3197 -0.0002 -0.9475
vn 0.6059 -0.0003 -0.7955
vn 0.6104 0.0029 -0.7921
vn 1.0000 -0.0032 0.0058
vn 1.0000 -0.0013 0.0002
vn 1.0000 -0.0012 -0.0008
vn 1.0000 -0.0061 -0.0000
vn -1.0000 0.0013 -0.0057
vn -1.0000 0.0007 -0.0002
vn -1.0000 0.0007 -0.0009
vn -0.9999 -0.0017 -0.0106
vn 0.3212 -0.0027 0.9470
vn 0.0004 -0.0002 1.0000
vn 0.3217 -0.0065 0.9468
vn 0.0009 -0.0028 1.0000
vn 0.0024 -0.0035 1.0000
vn -0.9996 0.0086 -0.0275
vn -0.9998 0.0019 -0.0186
vn -0.9996 -0.0029 -0.0298
vn -0.9990 0.0062 -0.0440
vn 0.3306 0.0021 -0.9438
vn 0.3457 -0.0049 -0.9383
vn 0.9996 -0.0098 0.0258
vn 0.9998 -0.0055 0.0195
vn 0.9999 -0.0102 0.0048
vn 0.9999 -0.0087 0.0081
vn 0.6191 0.0057 -0.7853
vn 0.6357 -0.0032 -0.7719
vn 0.6066 -0.0037 0.7950
vn 0.6082 -0.0087 0.7938
vn 0.9996 -0.0125 0.0242
vn 0.9999 -0.0066 0.0081
vn -0.9995 0.0142 -0.0291
vn -0.9987 0.0136 -0.0482
vn 0.0030 -0.0021 1.0000
vn -0.9998 0.0148 -0.0104
vn -0.9999 0.0105 -0.0109
vn 0.9990 -0.0185 0.0409
vn 0.9990 -0.0108 0.0435
vn -1.0000 0.0008 0.0007
vn 1.0000 -0.0012 0.0008
vn 0.9994 -0.0007 0.0339
vn 0.9999 -0.0003 0.0116
vn -1.0000 0.0067 -0.0070
vn -1.0000 0.0044 -0.0006
vn 0.3533 -0.6634 0.6596
vn 0.7549 -0.4268 0.4980
vn -0.0156 -0.9997 0.0161
vn 0.0007 -0.9997 -0.0231
vn 0.0010 -0.9999 -0.0163
vn 0.3070 -0.9516 0.0120
vn 0.3642 -0.9308 0.0315
vn 0.2970 0.0156 0.9547
vn 0.3255 -0.6721 0.6650
vn 0.7200 -0.4293 0.5452
vn 0.5647 0.0371 0.8245
vn 0.6602 -0.7496 0.0470
vn 0.6624 -0.7455 0.0739
vn 0.3186 0.0005 0.9479
vn 0.6047 0.0011 0.7965
vn 0.3124 0.0190 -0.9497
vn 0.3185 0.0022 -0.9479
vn 0.6061 0.0043 -0.7954
vn 0.6066 0.0304 -0.7944
vn 0.9989 0.0444 0.0176
vn 1.0000 0.0047 0.0024
vn 1.0000 0.0034 0.0031
vn 0.9990 0.0381 0.0239
vn -0.9990 -0.0418 -0.0179
vn -1.0000 -0.0047 -0.0025
vn -1.0000 -0.0061 -0.0018
vn -0.9987 -0.0487 -0.0140
vn 0.3100 0.0099 0.9507
vn 0.3009 0.0210 0.9534
vn -0.9903 -0.1044 -0.0917
vn -0.9940 -0.0969 -0.0515
vn -0.9927 -0.1137 -0.0408
vn -0.9896 -0.1259 -0.0693
vn 0.3105 0.0438 -0.9496
vn 0.3150 0.0471 -0.9479
vn 0.9885 0.1187 0.0940
vn 0.9932 0.1051 0.0507
vn 0.9935 0.0898 0.0702
vn 0.9868 0.0954 0.1305
vn 0.6022 0.0745 -0.7949
vn 0.5939 0.0939 -0.7990
vn 0.5988 0.0149 0.8008
vn 0.5831 0.0368 0.8116
vn 0.2575 0.0358 -0.9656
vn 0.5888 0.0820 -0.8041
vn 0.9874 0.1067 0.1170
vn 0.9835 0.0810 0.1618
vn -0.9898 -0.0888 -0.1114
vn -0.9906 -0.1094 -0.0816
vn -0.9877 -0.0682 -0.1407
vn -0.9900 -0.0826 -0.1144
vn 0.9886 0.1322 0.0716
vn 0.9882 0.1417 0.0577
vn -1.0000 -0.0034 -0.0032
vn 1.0000 0.0059 0.0019
vn 0.9923 0.1202 0.0312
vn 0.9987 0.0506 0.0112
vn -0.9948 -0.0802 -0.0623
vn -0.9992 -0.0348 -0.0217
vn 0.3255 -0.6721 0.6651
vn 0.7200 -0.4294 0.5452
vn 0.0003 -0.9996 -0.0289
vn -0.0000 -1.0000 -0.0018
vn 0.3292 -0.6663 -0.6691
vn 0.3580 -0.9307 -0.0745
vn 0.6051 0.0001 -0.7962
vn 0.3006 0.0366 0.9531
vn 0.2407 0.0304 0.9701
vn 0.5476 0.0692 0.8339
vn 0.5913 0.0696 0.8034
vn 0.7487 -0.4066 -0.5236
vn 0.6568 -0.7418 -0.1352
vn 0.3180 0.0022 0.9481
vn 0.6059 0.0043 0.7955
vn 0.3168 0.0070 -0.9485
vn 0.3185 0.0024 -0.9479
vn 0.6062 0.0045 -0.7953
vn 0.6037 0.0123 -0.7971
vn 0.9994 0.0331 -0.0103
vn 1.0000 0.0070 0.0002
vn 1.0000 0.0069 -0.0000
vn 0.9992 0.0384 -0.0098
vn -0.9993 -0.0348 0.0110
vn -1.0000 -0.0072 -0.0001
vn -1.0000 -0.0073 -0.0004
vn -0.9995 -0.0286 0.0138
vn 0.3153 0.0152 0.9489
vn 0.3197 0.0317 0.9470
vn -0.9941 -0.0257 0.1057
vn -0.9973 -0.0533 0.0499
vn -0.9976 -0.0295 0.0626
vn -0.9925 0.0058 0.1225
vn 0.3172 -0.0015 -0.9484
vn 0.3262 -0.0183 -0.9451
vn 0.9921 0.0382 -0.1196
vn 0.9976 0.0498 -0.0476
vn 0.9965 0.0712 -0.0443
vn 0.9895 0.0839 -0.1176
vn 0.5959 0.0059 -0.8030
vn 0.6004 -0.0233 -0.7993
vn 0.6076 0.0245 0.7938
vn 0.6105 0.0543 0.7902
vn -1.0000 -0.0000 -0.0001
vn 0.9859 0.0291 -0.1647
vn 0.9824 0.0881 -0.1649
vn -0.9910 0.0002 0.1341
vn -0.9886 0.0279 0.1481
vn -0.9924 -0.0275 0.1199
vn -0.9944 -0.0567 0.0892
vn 0.9860 -0.0305 -0.1639
vn 0.9925 -0.0076 -0.1219
vn -1.0000 -0.0072 -0.0000
vn 1.0000 0.0072 0.0001
vn 1.0000 0.0001 -0.0000
vn 0.9983 0.0285 -0.0509
vn 0.9996 0.0278 -0.0108
vn -0.9963 -0.0771 0.0373
vn -0.9991 -0.0411 0.0082
vn 0.3062 -0.9496 -0.0668
vn 0.6094 -0.7824 -0.1286
vn 0.0003 -1.0000 -0.0040
vn -1.0000 -0.0004 -0.0002
vn -1.0000 -0.0007 -0.0002
vn 0.3191 0.0003 -0.9477
vn 0.3610 -0.6704 -0.6483
vn 0.3534 -0.9354 0.0109
vn 1.0000 0.0008 0.0001
vn 1.0000 0.0005 0.0004
vn 0.6052 0.0006 -0.7961
vn 0.3259 -0.0280 0.9450
vn 0.3370 -0.6749 0.6564
vn 0.7356 -0.4622 0.4952
vn 0.6099 -0.0399 0.7915
vn 0.7616 -0.4410 -0.4749
vn 0.6615 -0.7497 0.0204
vn 0.3197 -0.0013 0.9475
vn 0.6043 -0.0024 0.7967
vn 0.3170 0.0012 -0.9484
vn 0.3192 0.0016 -0.9477
vn 0.6063 0.0031 -0.7952
vn 0.6017 0.0031 -0.7987
vn 0.9999 -0.0042 0.0167
vn 1.0000 0.0003 0.0052
vn 1.0000 -0.0019 0.0051
vn 0.9999 -0.0077 0.0101
vn -0.9999 0.0056 -0.0142
vn -1.0000 -0.0005 -0.0052
vn -1.0000 -0.0029 -0.0051
vn -0.9998 0.0031 -0.0183
vn 0.3188 -0.0026 0.9478
vn 0.3259 -0.0115 0.9453
vn -0.9977 0.0654 -0.0157
vn -0.9992 0.0363 -0.0167
vn -0.9989 0.0389 -0.0271
vn -0.9976 0.0642 -0.0275
vn 0.3257 -0.0181 -0.9453
vn 0.3229 -0.0210 -0.9462
vn 0.9975 -0.0679 0.0187
vn 0.9991 -0.0366 0.0217
vn 0.9994 -0.0328 0.0054
vn 0.9977 -0.0672 0.0034
vn 0.5994 -0.0176 -0.8003
vn 0.6119 -0.0466 -0.7895
vn 0.6042 -0.0049 0.7968
vn 0.6072 -0.0137 0.7944
vn 0.9973 -0.0707 0.0180
vn 0.9968 -0.0798 0.0072
vn -0.9974 0.0694 -0.0168
vn -0.9978 0.0610 -0.0276
vn -0.9969 0.0779 -0.0058
vn -0.9978 0.0666 -0.0038
vn 0.9977 -0.0616 0.0289
vn 0.9971 -0.0687 0.0341
vn -1.0000 0.0019 -0.0051
vn -1.0000 -0.0002 -0.0004
vn 1.0000 0.0025 0.0053
vn 1.0000 0.0010 -0.0000
vn 0.9985 -0.0401 0.0379
vn 0.9997 -0.0006 0.0232
vn -0.9994 0.0336 -0.0064
vn -0.9999 0.0081 -0.0101
vn 0.3370 -0.6748 0.6565
vn 0.7356 -0.4622 0.4953
vn 0.3191 0.0003 0.9477
vn -1.0000 -0.0006 0.0001
vn -1.0000 -0.0001 0.0007
vn 0.3393 -0.6607 -0.6696
vn 0.3526 -0.9348 -0.0420
vn 1.0000 0.0004 -0.0001
vn 1.0000 0.0007 -0.0002
vn 0.6050 -0.0000 -0.7962
vn 0.3123 0.0155 0.9499
vn 0.2372 0.0124 0.9714
vn 0.5736 0.0301 0.8186
vn 0.6116 0.0286 0.7906
vn 0.7331 -0.4177 -0.5367
vn 0.6564 -0.7503 -0.0785
vn 0.3169 0.0060 0.9485
vn 0.6064 0.0116 0.7950
vn 0.6052 0.0007 0.7961
vn 0.3104 0.0056 -0.9506
vn 0.3170 0.0018 -0.9484
vn 0.6028 0.0035 -0.7979
vn 0.5938 0.0097 -0.8046
vn 0.9986 0.0398 -0.0339
vn 0.9999 0.0131 -0.0070
vn 0.9999 0.0162 -0.0057
vn 0.9983 0.0502 -0.0306
vn -0.9987 -0.0364 0.0359
vn -0.9999 -0.0122 0.0072
vn -0.9999 -0.0087 0.0081
vn -0.9991 -0.0243 0.0353
vn 0.3185 0.0208 0.9477
vn 0.3357 0.0200 0.9418
vn -0.9944 -0.0272 0.1019
vn -0.9963 -0.0348 0.0787
vn -0.9970 -0.0209 0.0739
vn -0.9948 -0.0243 0.0985
vn 0.3036 0.0025 -0.9528
vn 0.2917 0.0055 -0.9565
vn 0.9938 0.0327 -0.1064
vn 0.9962 0.0434 -0.0750
vn 0.9961 0.0562 -0.0684
vn 0.9939 0.0441 -0.1013
vn 0.5791 0.0084 -0.8152
vn 0.5663 0.0053 -0.8242
vn 0.6110 0.0359 0.7908
vn 0.6206 0.0446 0.7829
vn 0.9925 0.0331 -0.1177
vn 0.9922 0.0450 -0.1164
vn -0.9940 -0.0341 0.1044
vn -0.9938 -0.0386 0.1045
vn -0.9941 -0.0295 0.1043
vn -0.9940 -0.0300 0.1052
vn 0.9927 0.0211 -0.1190
vn 0.9935 0.0214 -0.1117
vn -0.9999 -0.0158 0.0064
vn -1.0000 -0.0007 0.0004
vn 0.9999 0.0100 -0.0083
vn 1.0000 0.0003 -0.0004
vn 0.9962 0.0305 -0.0816
vn 0.9989 0.0294 -0.0372
vn -0.9953 -0.0486 0.0836
vn -0.9982 -0.0486 0.0365
vn 0.3011 -0.9528 -0.0377
vn 0.6336 -0.7696 -0.0794
vt 0.781908 0.091037
vt 0.844891 0.091838
vt 0.719549 0.092743
vt 0.719550 0.092743
vt 0.719550 0.092741
vt 0.719549 0.092741
vt 0.719549 0.092739
vt 0.719550 0.092739
vt 0.719550 0.092738
vt 0.719549 0.092738
vt 0.719550 0.092736
vt 0.719549 0.092736
vt 0.719551 0.092736
vt 0.719552 0.092736
vt 0.719546 0.092738
vt 0.719547 0.092738
vt 0.719547 0.092736
vt 0.719546 0.092736
vt 0.719551 0.092738
vt 0.719552 0.092738
vt 0.719549 0.092734
vt 0.719550 0.092734
vt 0.719550 0.092733
vt 0.719549 0.092733
vt 0.719548 0.092743
vt 0.719547 0.092743
vt 0.719549 0.092743
vt 0.719548 0.092736
vt 0.719549 0.092736
vt 0.719548 0.092734
vt 0.719549 0.092734
vt 0.719549 0.092733
vt 0.719548 0.092733
vt 0.719548 0.092738
vt 0.719549 0.092738
vt 0.719548 0.092739
vt 0.719549 0.092739
vt 0.719548 0.092743
vt 0.719549 0.092741
vt 0.719548 0.092741
vt 0.719548 0.092743
vt 0.719548 0.092741
vt 0.719548 0.092741
vt 0.719548 0.092739
vt 0.719548 0.092739
vt 0.719548 0.092738
vt 0.719548 0.092738
vt 0.719548 0.092736
vt 0.719548 0.092736
vt 0.719548 0.092734
vt 0.719548 0.092734
vt 0.719548 0.092733
vt 0.719548 0.092733
vt 0.719547 0.092734
vt 0.719547 0.092733
vt 0.719547 0.092739
vt 0.719547 0.092741
vt 0.719545 0.092736
vt 0.719545 0.092738
s 0
usemtl AIRPORT
f 1/1/1 2/1/1 3/1/1
f 4/2/2 5/2/2 6/2/2
f 7/1/3 8/1/3 9/1/3
f 10/2/4 11/2/4 12/2/4
f 13/1/5 14/1/5 15/1/5
f 13/1/5 15/1/5 16/1/5
f 17/1/3 8/1/3 18/1/3
f 18/1/3 8/1/3 7/1/3
f 19/1/6 20/1/6 21/1/6
f 22/1/1 23/1/1 24/1/1
f 25/2/2 26/2/2 27/2/2
f 28/1/5 29/1/5 30/1/5
f 31/2/4 32/2/4 33/2/4
f 34/1/3 35/1/3 36/1/3
f 34/1/3 37/1/3 35/1/3
f 38/1/5 39/1/5 30/1/5
f 39/1/5 28/1/5 30/1/5
s 1
f 40/1/7 41/1/7 42/1/7
f 43/1/3 44/1/3 45/1/8
f 43/1/3 45/1/8 46/1/9
s 0
f 47/2/1 48/2/1 49/2/1
f 47/2/1 49/2/1 50/2/1
s 1
f 51/1/10 52/1/11 53/1/11
f 51/1/10 53/1/11 54/1/10
f 55/1/12 56/1/13 57/1/14
f 55/1/12 57/1/14 58/1/14
f 59/1/15 60/1/16 61/1/17
f 59/1/15 61/1/17 62/1/17
s 0
f 63/2/3 64/2/3 65/2/3
f 63/2/3 65/2/3 66/2/3
f 67/2/18 68/2/18 69/2/18
f 67/2/18 69/2/18 70/2/18
f 71/1/4 72/1/4 73/1/4
f 71/1/4 73/1/4 74/1/4
s 1
f 75/1/18 76/1/18 77/1/19
f 75/1/18 77/1/19 78/1/20
s 0
f 79/2/1 80/2/1 81/2/1
f 79/2/1 81/2/1 82/2/1
f 50/2/1 81/2/1 80/2/1
f 50/2/1 80/2/1 47/2/1
f 83/2/21 84/2/21 85/2/21
f 83/2/21 85/2/21 86/2/21
s 1
f 87/1/22 60/1/16 59/1/15
f 87/1/22 59/1/15 88/1/23
f 56/1/13 55/1/12 46/1/9
f 56/1/13 46/1/9 45/1/8
s 0
f 89/1/5 90/1/5 91/1/5
f 89/1/5 91/1/5 92/1/5
f 3/1/1 93/1/1 94/1/1
f 3/1/1 94/1/1 1/1/1
f 3/1/1 2/1/1 95/1/1
f 3/1/1 95/1/1 96/1/1
f 97/1/24 98/1/24 99/1/24
f 97/1/24 99/1/24 100/1/24
s 1
f 88/1/23 101/1/25 102/1/25
f 88/1/23 102/1/25 87/1/22
s 0
f 103/1/26 104/1/26 105/1/26
f 103/1/26 105/1/26 106/1/26
f 107/2/2 6/2/2 5/2/2
f 107/2/2 5/2/2 108/2/2
f 6/2/2 109/2/2 110/2/2
f 6/2/2 110/2/2 4/2/2
f 109/2/2 111/2/2 112/2/2
f 109/2/2 112/2/2 110/2/2
s 1
f 113/1/27 114/1/28 115/1/29
f 113/1/27 115/1/29 116/1/29
s 0
f 74/1/4 117/1/4 118/1/4
f 74/1/4 118/1/4 71/1/4
s 1
f 51/1/10 54/1/10 119/1/30
f 51/1/10 119/1/30 120/1/31
s 0
f 121/2/2 122/2/2 123/2/2
f 121/2/2 123/2/2 124/2/2
s 1
f 125/1/21 126/1/21 127/1/32
f 125/1/21 127/1/32 128/1/33
s 0
f 129/2/2 130/2/2 121/2/2
f 129/2/2 121/2/2 124/2/2
s 1
f 131/1/34 132/1/35 133/1/36
f 131/1/34 133/1/36 134/1/36
f 135/1/37 136/1/38 137/1/39
f 135/1/37 137/1/39 138/1/40
s 0
f 12/2/4 139/2/4 140/2/4
f 12/2/4 140/2/4 10/2/4
f 5/2/2 4/2/2 130/2/2
f 5/2/2 130/2/2 129/2/2
f 89/1/5 92/1/5 14/1/5
f 89/1/5 14/1/5 13/1/5
f 13/1/5 16/1/5 141/1/5
f 13/1/5 141/1/5 142/1/5
s 1
f 78/1/20 77/1/19 143/1/41
f 78/1/20 143/1/41 144/1/42
f 144/1/42 143/1/41 114/1/28
f 144/1/42 114/1/28 113/1/27
f 120/1/31 119/1/30 145/1/43
f 120/1/31 145/1/43 146/1/44
f 146/1/44 145/1/43 132/1/35
f 146/1/44 132/1/35 131/1/34
f 136/1/38 135/1/37 147/1/45
f 136/1/38 147/1/45 148/1/46
f 148/1/46 147/1/45 128/1/33
f 148/1/46 128/1/33 127/1/32
s 0
f 149/1/3 150/1/3 8/1/3
f 149/1/3 8/1/3 17/1/3
s 1
f 151/2/47 152/2/47 153/2/1
f 151/2/47 153/2/1 154/2/1
s 0
f 155/2/3 156/2/3 157/2/3
f 155/2/3 157/2/3 158/2/3
f 159/2/3 155/2/3 158/2/3
f 159/2/3 158/2/3 160/2/3
s 1
f 161/1/5 162/1/48 163/1/49
f 161/1/5 163/1/49 164/1/5
s 0
f 165/2/1 166/2/1 167/2/1
f 165/2/1 167/2/1 168/2/1
s 1
f 169/1/10 54/1/10 53/1/11
f 169/1/10 53/1/11 170/1/11
f 171/1/50 58/1/14 57/1/14
f 171/1/50 57/1/14 172/1/51
f 173/1/52 62/1/17 61/1/17
f 173/1/52 61/1/17 174/1/53
s 0
f 175/2/5 176/2/5 177/2/5
f 175/2/5 177/2/5 178/2/5
f 179/2/18 70/2/18 69/2/18
f 179/2/18 69/2/18 180/2/18
f 181/1/4 182/1/4 73/1/4
f 181/1/4 73/1/4 72/1/4
s 1
f 75/1/18 78/1/20 183/1/19
f 75/1/18 183/1/19 184/1/18
s 0
f 79/2/1 82/2/1 185/2/1
f 79/2/1 185/2/1 186/2/1
f 166/2/1 165/2/1 186/2/1
f 166/2/1 186/2/1 185/2/1
f 187/2/54 188/2/54 189/2/54
f 187/2/54 189/2/54 190/2/54
s 1
f 191/1/55 192/1/56 173/1/52
f 191/1/55 173/1/52 174/1/53
f 172/1/51 163/1/49 162/1/48
f 172/1/51 162/1/48 171/1/50
s 0
f 193/1/3 194/1/3 195/1/3
f 193/1/3 195/1/3 196/1/3
f 23/1/1 22/1/1 197/1/1
f 23/1/1 197/1/1 198/1/1
f 23/1/1 96/1/1 95/1/1
f 23/1/1 95/1/1 24/1/1
f 199/1/24 100/1/24 99/1/24
f 199/1/24 99/1/24 200/1/24
s 1
f 192/1/56 191/1/55 201/1/26
f 192/1/56 201/1/26 202/1/26
s 0
f 203/1/25 204/1/25 205/1/25
f 203/1/25 205/1/25 206/1/25
f 207/2/2 208/2/2 27/2/2
f 207/2/2 27/2/2 26/2/2
f 26/2/2 25/2/2 209/2/2
f 26/2/2 209/2/2 210/2/2
f 210/2/2 209/2/2 211/2/2
f 210/2/2 211/2/2 212/2/2
s 1
f 113/1/27 116/1/29 213/1/29
f 113/1/27 213/1/29 214/1/28
s 0
f 182/1/4 181/1/4 215/1/4
f 182/1/4 215/1/4 216/1/4
s 1
f 169/1/10 217/1/31 119/1/30
f 169/1/10 119/1/30 54/1/10
s 0
f 218/2/2 219/2/2 123/2/2
f 218/2/2 123/2/2 122/2/2
s 1
f 220/1/54 221/1/57 222/1/58
f 220/1/54 222/1/58 223/1/54
s 0
f 224/2/2 219/2/2 218/2/2
f 224/2/2 218/2/2 225/2/2
s 1
f 226/1/59 227/1/36 133/1/36
f 226/1/59 133/1/36 132/1/35
f 228/1/60 229/1/61 230/1/62
f 228/1/60 230/1/62 231/1/63
s 0
f 32/2/4 31/2/4 140/2/4
f 32/2/4 140/2/4 139/2/4
f 27/2/2 224/2/2 225/2/2
f 27/2/2 225/2/2 25/2/2
f 193/1/3 34/1/3 36/1/3
f 193/1/3 36/1/3 194/1/3
f 34/1/3 232/1/3 233/1/3
f 34/1/3 233/1/3 37/1/3
s 1
f 78/1/20 144/1/42 234/1/64
f 78/1/20 234/1/64 183/1/19
f 144/1/42 113/1/27 214/1/28
f 144/1/42 214/1/28 234/1/64
f 217/1/31 235/1/65 145/1/43
f 217/1/31 145/1/43 119/1/30
f 235/1/65 226/1/59 132/1/35
f 235/1/65 132/1/35 145/1/43
f 231/1/63 236/1/66 237/1/67
f 231/1/63 237/1/67 228/1/60
f 236/1/66 222/1/58 221/1/57
f 236/1/66 221/1/57 237/1/67
s 0
f 238/1/5 38/1/5 30/1/5
f 238/1/5 30/1/5 239/1/5
s 1
f 240/2/47 241/2/1 153/2/1
f 240/2/47 153/2/1 152/2/47
s 0
f 242/2/5 243/2/5 244/2/5
f 242/2/5 244/2/5 245/2/5
f 246/2/5 247/2/5 243/2/5
f 246/2/5 243/2/5 242/2/5
s 1
f 248/3/68 249/4/69 250/5/5
f 248/3/68 250/5/5 251/6/5
s 0
f 252/7/4 253/8/4 254/9/4
f 252/7/4 254/9/4 255/10/4
s 1
f 256/10/3 257/9/3 258/11/70
f 256/10/3 258/11/70 259/12/71
f 260/13/72 261/14/73 262/14/74
f 260/13/72 262/14/74 263/13/75
f 264/15/76 265/16/77 266/17/78
f 264/15/76 266/17/78 267/18/79
f 268/19/18 269/20/18 261/14/73
f 268/19/18 261/14/73 260/13/72
s 0
f 270/21/1 271/22/1 272/23/1
f 270/21/1 272/23/1 273/24/1
s 1
f 259/12/71 258/11/70 274/11/80
f 259/12/71 274/11/80 275/12/81
f 276/25/82 277/26/83 278/26/84
f 276/25/82 278/26/84 279/25/85
f 267/18/79 266/17/78 280/17/86
f 267/18/79 280/17/86 281/18/87
f 248/3/68 282/27/88 283/27/89
f 248/3/68 283/27/89 284/3/90
f 285/28/91 286/29/92 287/29/93
f 285/28/91 287/29/93 288/28/94
f 289/30/95 290/31/96 291/32/97
f 289/30/95 291/32/97 292/33/98
f 293/34/99 294/35/3 286/29/92
f 293/34/99 286/29/92 285/28/91
f 295/36/100 296/37/101 297/35/102
f 295/36/100 297/35/102 298/34/103
f 299/38/104 282/27/88 300/39/5
f 299/38/104 300/39/5 301/40/105
f 276/25/82 302/41/106 303/42/107
f 276/25/82 303/42/107 304/43/108
f 302/41/106 299/38/104 301/40/105
f 302/41/106 301/40/105 303/42/107
f 305/44/109 306/45/110 307/46/111
f 305/44/109 307/46/111 308/47/112
f 306/45/110 295/36/100 298/34/103
f 306/45/110 298/34/103 307/46/111
f 309/47/113 310/46/114 311/48/115
f 309/47/113 311/48/115 312/49/116
f 310/46/114 293/34/99 285/28/91
f 310/46/114 285/28/91 311/48/115
f 313/50/117 314/51/118 315/52/119
f 313/50/117 315/52/119 316/53/120
f 314/51/118 289/30/95 292/33/98
f 314/51/118 292/33/98 315/52/119
f 312/49/116 311/48/115 317/48/121
f 312/49/116 317/48/121 318/49/122
f 311/48/115 285/28/91 288/28/94
f 311/48/115 288/28/94 317/48/121
f 282/27/88 299/38/104 319/38/123
f 282/27/88 319/38/123 283/27/89
f 299/38/104 302/41/106 320/41/124
f 299/38/104 320/41/124 319/38/123
f 249/4/69 248/3/68 284/3/90
f 249/4/69 284/3/90 321/4/74
f 286/29/92 259/12/71 275/12/81
f 286/29/92 275/12/81 287/29/93
f 290/31/96 270/21/125 273/24/126
f 290/31/96 273/24/126 291/32/97
f 294/35/3 256/10/3 259/12/71
f 294/35/3 259/12/71 286/29/92
f 296/37/101 252/7/127 255/10/128
f 296/37/101 255/10/128 297/35/102
f 282/27/88 248/3/68 251/6/5
f 282/27/88 251/6/5 300/39/5
f 322/17/129 312/49/116 318/49/122
f 322/17/129 318/49/122 323/17/130
f 324/54/131 313/50/117 316/53/120
f 324/54/131 316/53/120 325/55/132
f 326/16/133 309/47/113 312/49/116
f 326/16/133 312/49/116 322/17/129
f 327/56/134 305/44/109 308/47/112
f 327/56/134 308/47/112 328/16/135
f 277/26/83 276/25/82 304/43/108
f 277/26/83 304/43/108 329/57/136
f 302/41/106 276/25/82 279/25/85
f 302/41/106 279/25/85 320/41/124
f 330/57/137 331/43/138 305/44/109
f 330/57/137 305/44/109 327/56/134
f 332/17/139 333/49/140 313/50/117
f 332/17/139 313/50/117 324/54/131
f 334/39/141 335/6/4 252/7/127
f 334/39/141 252/7/127 296/37/101
f 336/29/142 337/12/143 270/21/125
f 336/29/142 270/21/125 290/31/96
f 338/48/144 339/28/145 289/30/95
f 338/48/144 289/30/95 314/51/118
f 333/49/140 338/48/144 314/51/118
f 333/49/140 314/51/118 313/50/117
f 340/42/146 341/40/147 295/36/100
f 340/42/146 295/36/100 306/45/110
f 331/43/138 340/42/146 306/45/110
f 331/43/138 306/45/110 305/44/109
f 341/40/147 334/39/141 296/37/101
f 341/40/147 296/37/101 295/36/100
f 339/28/145 336/29/142 290/31/96
f 339/28/145 290/31/96 289/30/95
f 342/58/148 267/18/79 281/18/87
f 342/58/148 281/18/87 343/58/84
s 0
f 337/12/1 344/11/1 271/22/1
f 337/12/1 271/22/1 270/21/1
s 1
f 345/9/18 268/19/18 260/13/72
f 345/9/18 260/13/72 258/11/70
f 346/59/149 264/15/76 267/18/79
f 346/59/149 267/18/79 342/58/148
f 258/11/70 260/13/72 263/13/75
f 258/11/70 263/13/75 274/11/80
s 0
f 335/6/4 347/5/4 253/8/4
f 335/6/4 253/8/4 252/7/4
s 1
f 348/3/68 349/4/69 350/5/5
f 348/3/68 350/5/5 351/6/5
s 0
f 352/7/4 353/8/4 354/9/4
f 352/7/4 354/9/4 355/10/4
s 1
f 356/10/3 357/9/3 358/11/70
f 356/10/3 358/11/70 359/12/150
f 360/13/72 361/14/73 362/14/74
f 360/13/72 362/14/74 363/13/75
f 364/15/151 365/16/152 366/17/153
f 364/15/151 366/17/153 367/18/154
f 368/19/18 369/20/18 361/14/73
f 368/19/18 361/14/73 360/13/72
s 0
f 370/21/1 371/22/1 372/23/1
f 370/21/1 372/23/1 373/24/1
s 1
f 359/12/150 358/11/70 374/11/80
f 359/12/150 374/11/80 375/12/155
f 376/25/156 377/26/157 378/26/158
f 376/25/156 378/26/158 379/25/159
f 367/18/154 366/17/153 380/17/160
f 367/18/154 380/17/160 381/18/161
f 348/3/68 382/27/162 383/27/163
f 348/3/68 383/27/163 384/3/90
f 385/28/164 386/29/165 387/29/166
f 385/28/164 387/29/166 388/28/167
f 389/30/168 390/31/169 391/32/170
f 389/30/168 391/32/170 392/33/171
f 393/34/3 394/35/3 386/29/165
f 393/34/3 386/29/165 385/28/164
f 395/36/172 396/37/173 397/35/174
f 395/36/172 397/35/174 398/34/175
f 399/38/176 382/27/162 400/39/5
f 399/38/176 400/39/5 401/40/177
f 376/25/156 402/41/178 403/42/179
f 376/25/156 403/42/179 404/43/180
f 402/41/178 399/38/176 401/40/177
f 402/41/178 401/40/177 403/42/179
f 405/44/181 406/45/182 407/46/183
f 405/44/181 407/46/183 408/47/184
f 406/45/182 395/36/172 398/34/175
f 406/45/182 398/34/175 407/46/183
f 409/47/3 410/46/3 411/48/185
f 409/47/3 411/48/185 412/49/186
f 410/46/3 393/34/3 385/28/164
f 410/46/3 385/28/164 411/48/185
f 413/50/187 414/51/188 415/52/189
f 413/50/187 415/52/189 416/53/190
f 414/51/188 389/30/168 392/33/171
f 414/51/188 392/33/171 415/52/189
f 412/49/186 411/48/185 417/48/191
f 412/49/186 417/48/191 418/49/192
f 411/48/185 385/28/164 388/28/167
f 411/48/185 388/28/167 417/48/191
f 382/27/162 399/38/176 419/38/193
f 382/27/162 419/38/193 383/27/163
f 399/38/176 402/41/178 420/41/194
f 399/38/176 420/41/194 419/38/193
f 349/4/69 348/3/68 384/3/90
f 349/4/69 384/3/90 421/4/74
f 386/29/165 359/12/150 375/12/155
f 386/29/165 375/12/155 387/29/166
f 390/31/169 370/21/1 373/24/1
f 390/31/169 373/24/1 391/32/170
f 394/35/3 356/10/3 359/12/150
f 394/35/3 359/12/150 386/29/165
f 396/37/173 352/7/4 355/10/4
f 396/37/173 355/10/4 397/35/174
f 382/27/162 348/3/68 351/6/5
f 382/27/162 351/6/5 400/39/5
f 366/17/153 412/49/186 418/49/192
f 366/17/153 418/49/192 380/17/160
f 422/54/195 413/50/187 416/53/190
f 422/54/195 416/53/190 423/55/196
f 424/16/3 409/47/3 412/49/186
f 424/16/3 412/49/186 366/17/153
f 425/56/197 405/44/181 408/47/184
f 425/56/197 408/47/184 426/16/198
f 377/26/157 376/25/156 404/43/180
f 377/26/157 404/43/180 427/57/199
f 402/41/178 376/25/156 379/25/159
f 402/41/178 379/25/159 420/41/194
f 428/57/200 429/43/201 405/44/181
f 428/57/200 405/44/181 425/56/197
f 430/17/202 431/49/203 413/50/187
f 430/17/202 413/50/187 422/54/195
f 432/39/204 433/6/4 352/7/4
f 432/39/204 352/7/4 396/37/173
f 434/29/205 435/12/1 370/21/1
f 434/29/205 370/21/1 390/31/169
f 436/48/206 437/28/207 389/30/168
f 436/48/206 389/30/168 414/51/188
f 431/49/203 436/48/206 414/51/188
f 431/49/203 414/51/188 413/50/187
f 438/42/208 439/40/209 395/36/172
f 438/42/208 395/36/172 406/45/182
f 429/43/201 438/42/208 406/45/182
f 429/43/201 406/45/182 405/44/181
f 439/40/209 432/39/204 396/37/173
f 439/40/209 396/37/173 395/36/172
f 437/28/207 434/29/205 390/31/169
f 437/28/207 390/31/169 389/30/168
f 440/58/210 367/18/154 381/18/161
f 440/58/210 381/18/161 441/58/211
s 0
f 435/12/1 442/11/1 371/22/1
f 435/12/1 371/22/1 370/21/1
s 1
f 443/9/18 368/19/18 360/13/72
f 443/9/18 360/13/72 358/11/70
f 444/59/212 364/15/151 367/18/154
f 444/59/212 367/18/154 440/58/210
f 358/11/70 360/13/72 363/13/75
f 358/11/70 363/13/75 374/11/80
s 0
f 433/6/4 445/5/4 353/8/4
f 433/6/4 353/8/4 352/7/4
s 1
f 446/3/68 447/4/69 448/5/5
f 446/3/68 448/5/5 449/6/5
s 0
f 450/7/4 451/8/4 452/9/4
f 450/7/4 452/9/4 453/10/4
s 1
f 454/10/3 455/9/3 456/11/70
f 454/10/3 456/11/70 457/12/150
f 458/13/72 459/14/73 460/14/74
f 458/13/72 460/14/74 461/13/75
f 462/15/213 463/16/214 464/17/215
f 462/15/213 464/17/215 465/18/216
f 466/19/18 467/20/18 459/14/73
f 466/19/18 459/14/73 458/13/72
s 0
f 468/21/1 469/22/1 470/23/1
f 468/21/1 470/23/1 471/24/1
s 1
f 457/12/150 456/11/70 472/11/80
f 457/12/150 472/11/80 473/12/155
f 474/25/217 475/26/218 476/26/219
f 474/25/217 476/26/219 477/25/220
f 465/18/216 464/17/215 478/17/221
f 465/18/216 478/17/221 479/18/222
f 446/3/68 480/27/223 481/27/224
f 446/3/68 481/27/224 482/3/90
f 483/28/225 484/29/226 485/29/227
f 483/28/225 485/29/227 486/28/228
f 487/30/229 488/31/230 489/32/231
f 487/30/229 489/32/231 490/33/232
f 491/34/3 492/35/3 484/29/226
f 491/34/3 484/29/226 483/28/225
f 493/36/233 494/37/234 495/35/235
f 493/36/233 495/35/235 496/34/236
f 497/38/237 480/27/223 498/39/5
f 497/38/237 498/39/5 499/40/5
f 474/25/217 500/41/238 501/42/5
f 474/25/217 501/42/5 502/43/5
f 500/41/238 497/38/237 499/40/5
f 500/41/238 499/40/5 501/42/5
f 503/44/239 504/45/240 505/46/241
f 503/44/239 505/46/241 506/47/242
f 504/45/240 493/36/233 496/34/236
f 504/45/240 496/34/236 505/46/241
f 507/47/3 508/46/3 509/48/243
f 507/47/3 509/48/243 510/49/244
f 508/46/3 491/34/3 483/28/225
f 508/46/3 483/28/225 509/48/243
f 511/50/245 512/51/246 513/52/247
f 511/50/245 513/52/247 514/53/248
f 512/51/246 487/30/229 490/33/232
f 512/51/246 490/33/232 513/52/247
f 510/49/244 509/48/243 515/48/249
f 510/49/244 515/48/249 516/49/250
f 509/48/243 483/28/225 486/28/228
f 509/48/243 486/28/228 515/48/249
f 480/27/223 497/38/237 517/38/251
f 480/27/223 517/38/251 481/27/224
f 497/38/237 500/41/238 518/41/252
f 497/38/237 518/41/252 517/38/251
f 447/4/69 446/3/68 482/3/90
f 447/4/69 482/3/90 519/4/74
f 484/29/226 457/12/150 473/12/155
f 484/29/226 473/12/155 485/29/227
f 488/31/230 468/21/1 471/24/1
f 488/31/230 471/24/1 489/32/231
f 492/35/3 454/10/3 457/12/150
f 492/35/3 457/12/150 484/29/226
f 494/37/234 450/7/4 453/10/4
f 494/37/234 453/10/4 495/35/235
f 480/27/223 446/3/68 449/6/5
f 480/27/223 449/6/5 498/39/5
f 520/17/253 510/49/244 516/49/250
f 520/17/253 516/49/250 521/17/254
f 522/54/255 511/50/245 514/53/248
f 522/54/255 514/53/248 523/55/256
f 524/16/3 507/47/3 510/49/244
f 524/16/3 510/49/244 520/17/253
f 525/56/257 503/44/239 506/47/242
f 525/56/257 506/47/242 526/16/258
f 475/26/218 474/25/217 502/43/5
f 475/26/218 502/43/5 527/57/5
f 500/41/238 474/25/217 477/25/220
f 500/41/238 477/25/220 518/41/252
f 528/57/259 529/43/260 503/44/239
f 528/57/259 503/44/239 525/56/257
f 530/17/261 531/49/262 511/50/245
f 530/17/261 511/50/245 522/54/255
f 532/39/263 533/6/4 450/7/4
f 532/39/263 450/7/4 494/37/234
f 534/29/264 535/12/1 468/21/1
f 534/29/264 468/21/1 488/31/230
f 536/48/265 537/28/266 487/30/229
f 536/48/265 487/30/229 512/51/246
f 531/49/262 536/48/265 512/51/246
f 531/49/262 512/51/246 511/50/245
f 538/42/267 539/40/268 493/36/233
f 538/42/267 493/36/233 504/45/240
f 529/43/260 538/42/267 504/45/240
f 529/43/260 504/45/240 503/44/239
f 539/40/268 532/39/263 494/37/234
f 539/40/268 494/37/234 493/36/233
f 537/28/266 534/29/264 488/31/230
f 537/28/266 488/31/230 487/30/229
f 540/58/269 465/18/216 479/18/222
f 540/58/269 479/18/222 541/58/270
s 0
f 535/12/1 542/11/1 469/22/1
f 535/12/1 469/22/1 468/21/1
s 1
f 543/9/18 466/19/18 458/13/72
f 543/9/18 458/13/72 456/11/70
f 544/59/271 462/15/213 465/18/216
f 544/59/271 465/18/216 540/58/269
f 456/11/70 458/13/72 461/13/75
f 456/11/70 461/13/75 472/11/80
s 0
f 533/6/4 545/5/4 451/8/4
f 533/6/4 451/8/4 450/7/4
s 1
f 546/3/68 547/4/69 548/5/5
f 546/3/68 548/5/5 549/6/5
s 0
f 550/7/4 551/8/4 552/9/4
f 550/7/4 552/9/4 553/10/4
s 1
f 554/10/3 555/9/3 556/11/70
f 554/10/3 556/11/70 557/12/150
f 558/13/72 559/14/73 560/14/74
f 558/13/72 560/14/74 561/13/75
f 562/15/272 563/16/2 564/17/273
f 562/15/272 564/17/273 565/18/274
f 566/19/18 567/20/18 559/14/73
f 566/19/18 559/14/73 558/13/72
s 0
f 568/21/1 569/22/1 570/23/1
f 568/21/1 570/23/1 571/24/1
s 1
f 557/12/150 556/11/70 572/11/80
f 557/12/150 572/11/80 573/12/275
f 574/25/276 575/26/277 576/26/278
f 574/25/276 576/26/278 577/25/279
f 565/18/274 564/17/273 578/17/280
f 565/18/274 578/17/280 579/18/281
f 546/3/68 580/27/282 581/27/283
f 546/3/68 581/27/283 582/3/90
f 583/28/284 584/29/285 585/29/286
f 583/28/284 585/29/286 586/28/287
f 587/30/288 588/31/289 589/32/290
f 587/30/288 589/32/290 590/33/291
f 591/34/3 592/35/3 584/29/285
f 591/34/3 584/29/285 583/28/284
f 593/36/292 594/37/293 595/35/294
f 593/36/292 595/35/294 596/34/295
f 597/38/296 580/27/282 598/39/5
f 597/38/296 598/39/5 599/40/5
f 574/25/276 600/41/297 601/42/5
f 574/25/276 601/42/5 602/43/5
f 600/41/297 597/38/296 599/40/5
f 600/41/297 599/40/5 601/42/5
f 603/44/298 604/45/299 605/46/300
f 603/44/298 605/46/300 606/47/301
f 604/45/299 593/36/292 596/34/295
f 604/45/299 596/34/295 605/46/300
f 607/47/3 608/46/3 609/48/302
f 607/47/3 609/48/302 610/49/303
f 608/46/3 591/34/3 583/28/284
f 608/46/3 583/28/284 609/48/302
f 611/50/304 612/51/305 613/52/306
f 611/50/304 613/52/306 614/53/307
f 612/51/305 587/30/288 590/33/291
f 612/51/305 590/33/291 613/52/306
f 610/49/303 609/48/302 615/48/308
f 610/49/303 615/48/308 616/49/309
f 609/48/302 583/28/284 586/28/287
f 609/48/302 586/28/287 615/48/308
f 580/27/282 597/38/296 617/38/310
f 580/27/282 617/38/310 581/27/283
f 597/38/296 600/41/297 618/41/311
f 597/38/296 618/41/311 617/38/310
f 547/4/69 546/3/68 582/3/90
f 547/4/69 582/3/90 619/4/74
f 584/29/285 557/12/150 573/12/275
f 584/29/285 573/12/275 585/29/286
f 588/31/289 568/21/1 571/24/1
f 588/31/289 571/24/1 589/32/290
f 592/35/3 554/10/3 557/12/150
f 592/35/3 557/12/150 584/29/285
f 594/37/293 550/7/4 553/10/312
f 594/37/293 553/10/312 595/35/294
f 580/27/282 546/3/68 549/6/5
f 580/27/282 549/6/5 598/39/5
f 564/17/273 610/49/303 616/49/309
f 564/17/273 616/49/309 578/17/280
f 620/54/313 611/50/304 614/53/307
f 620/54/313 614/53/307 621/55/314
f 622/16/3 607/47/3 610/49/303
f 622/16/3 610/49/303 564/17/273
f 623/56/315 603/44/298 606/47/301
f 623/56/315 606/47/301 624/16/316
f 575/26/277 574/25/276 602/43/5
f 575/26/277 602/43/5 625/57/5
f 600/41/297 574/25/276 577/25/279
f 600/41/297 577/25/279 618/41/311
f 626/57/317 627/43/318 603/44/298
f 626/57/317 603/44/298 623/56/315
f 628/17/319 629/49/320 611/50/304
f 628/17/319 611/50/304 620/54/313
f 630/39/321 631/6/4 550/7/4
f 630/39/321 550/7/4 594/37/293
f 632/29/322 633/12/323 568/21/1
f 632/29/322 568/21/1 588/31/289
f 634/48/324 635/28/325 587/30/288
f 634/48/324 587/30/288 612/51/305
f 629/49/320 634/48/324 612/51/305
f 629/49/320 612/51/305 611/50/304
f 636/42/326 637/40/327 593/36/292
f 636/42/326 593/36/292 604/45/299
f 627/43/318 636/42/326 604/45/299
f 627/43/318 604/45/299 603/44/298
f 637/40/327 630/39/321 594/37/293
f 637/40/327 594/37/293 593/36/292
f 635/28/325 632/29/322 588/31/289
f 635/28/325 588/31/289 587/30/288
f 638/58/328 565/18/274 579/18/281
f 638/58/328 579/18/281 639/58/329
s 0
f 633/12/1 640/11/1 569/22/1
f 633/12/1 569/22/1 568/21/1
s 1
f 641/9/18 566/19/18 558/13/72
f 641/9/18 558/13/72 556/11/70
f 642/59/330 562/15/272 565/18/274
f 642/59/330 565/18/274 638/58/328
f 556/11/70 558/13/72 561/13/75
f 556/11/70 561/13/75 572/11/80
s 0
f 631/6/4 643/5/4 551/8/4
f 631/6/4 551/8/4 550/7/4
s 1
f 644/3/68 645/4/69 646/5/5
f 644/3/68 646/5/5 647/6/5
f 648/7/331 649/8/4 650/9/4
f 648/7/331 650/9/4 651/10/332
f 652/10/3 653/9/3 654/11/70
f 652/10/3 654/11/70 655/12/333
f 656/13/72 657/14/73 658/14/74
f 656/13/72 658/14/74 659/13/75
f 660/15/2 661/16/2 662/17/334
f 660/15/2 662/17/334 663/18/335
f 664/19/18 665/20/18 657/14/73
f 664/19/18 657/14/73 656/13/72
f 666/21/336 667/22/1 668/23/1
f 666/21/336 668/23/1 669/24/337
f 655/12/333 654/11/70 670/11/80
f 655/12/333 670/11/80 671/12/338
f 672/25/339 673/26/340 674/26/341
f 672/25/339 674/26/341 675/25/342
f 663/18/335 662/17/334 676/17/343
f 663/18/335 676/17/343 677/18/344
f 644/3/68 678/27/345 679/27/346
f 644/3/68 679/27/346 680/3/90
f 681/28/347 682/29/348 683/29/349
f 681/28/347 683/29/349 684/28/350
f 685/30/351 686/31/352 687/32/353
f 685/30/351 687/32/353 688/33/354
f 689/34/3 690/35/3 682/29/348
f 689/34/3 682/29/348 681/28/347
f 691/36/355 692/37/356 693/35/357
f 691/36/355 693/35/357 694/34/358
f 695/38/359 678/27/345 696/39/5
f 695/38/359 696/39/5 697/40/5
f 672/25/339 698/41/360 699/42/5
f 672/25/339 699/42/5 700/43/5
f 698/41/360 695/38/359 697/40/5
f 698/41/360 697/40/5 699/42/5
f 701/44/361 702/45/362 703/46/363
f 701/44/361 703/46/363 704/47/364
f 702/45/362 691/36/355 694/34/358
f 702/45/362 694/34/358 703/46/363
f 705/47/3 706/46/3 707/48/365
f 705/47/3 707/48/365 708/49/366
f 706/46/3 689/34/3 681/28/347
f 706/46/3 681/28/347 707/48/365
f 709/50/367 710/51/368 711/52/369
f 709/50/367 711/52/369 712/53/370
f 710/51/368 685/30/351 688/33/354
f 710/51/368 688/33/354 711/52/369
f 708/49/366 707/48/365 713/48/371
f 708/49/366 713/48/371 714/49/372
f 707/48/365 681/28/347 684/28/350
f 707/48/365 684/28/350 713/48/371
f 678/27/345 695/38/359 715/38/373
f 678/27/345 715/38/373 679/27/346
f 695/38/359 698/41/360 716/41/374
f 695/38/359 716/41/374 715/38/373
f 645/4/69 644/3/68 680/3/90
f 645/4/69 680/3/90 717/4/74
f 682/29/348 655/12/333 671/12/338
f 682/29/348 671/12/338 683/29/349
f 686/31/352 666/21/336 669/24/337
f 686/31/352 669/24/337 687/32/353
f 690/35/3 652/10/3 655/12/333
f 690/35/3 655/12/333 682/29/348
f 692/37/356 648/7/331 651/10/332
f 692/37/356 651/10/332 693/35/357
f 678/27/345 644/3/68 647/6/5
f 678/27/345 647/6/5 696/39/5
f 662/17/334 708/49/366 714/49/372
f 662/17/334 714/49/372 676/17/343
f 718/54/375 709/50/367 712/53/370
f 718/54/375 712/53/370 719/55/376
f 720/16/3 705/47/3 708/49/366
f 720/16/3 708/49/366 662/17/334
f 721/56/377 701/44/361 704/47/364
f 721/56/377 704/47/364 722/16/378
f 673/26/340 672/25/339 700/43/5
f 673/26/340 700/43/5 723/57/5
f 698/41/360 672/25/339 675/25/342
f 698/41/360 675/25/342 716/41/374
f 724/57/379 725/43/380 701/44/361
f 724/57/379 701/44/361 721/56/377
f 726/17/381 727/49/382 709/50/367
f 726/17/381 709/50/367 718/54/375
f 728/39/383 729/6/384 648/7/331
f 728/39/383 648/7/331 692/37/356
f 730/29/385 731/12/386 666/21/336
f 730/29/385 666/21/336 686/31/352
f 732/48/387 733/28/388 685/30/351
f 732/48/387 685/30/351 710/51/368
f 727/49/382 732/48/387 710/51/368
f 727/49/382 710/51/368 709/50/367
f 734/42/389 735/40/390 691/36/355
f 734/42/389 691/36/355 702/45/362
f 725/43/380 734/42/389 702/45/362
f 725/43/380 702/45/362 701/44/361
f 735/40/390 728/39/383 692/37/356
f 735/40/390 692/37/356 691/36/355
f 733/28/388 730/29/385 686/31/352
f 733/28/388 686/31/352 685/30/351
f 736/58/391 663/18/335 677/18/344
f 736/58/391 677/18/344 737/58/392
f 731/12/386 738/11/1 667/22/1
f 731/12/386 667/22/1 666/21/336
f 739/9/18 664/19/18 656/13/72
f 739/9/18 656/13/72 654/11/70
f 740/59/2 660/15/2 663/18/335
f 740/59/2 663/18/335 736/58/391
f 654/11/70 656/13/72 659/13/75
f 654/11/70 659/13/75 670/11/80
f 729/6/384 741/5/4 649/8/4
f 729/6/384 649/8/4 648/7/331
f 742/3/393 743/4/69 744/5/5
f 742/3/393 744/5/5 745/6/5
f 746/7/394 747/8/4 748/9/4
f 746/7/394 748/9/4 749/10/395
f 750/10/3 751/9/3 752/11/70
f 750/10/3 752/11/70 753/12/150
f 754/13/72 755/14/73 756/14/74
f 754/13/72 756/14/74 757/13/75
f 758/15/2 759/16/2 760/17/396
f 758/15/2 760/17/396 761/18/397
f 762/19/18 763/20/18 755/14/73
f 762/19/18 755/14/73 754/13/72
f 764/21/398 765/22/1 766/23/1
f 764/21/398 766/23/1 767/24/399
f 753/12/150 752/11/70 768/11/80
f 753/12/150 768/11/80 769/12/400
f 770/25/401 771/26/402 772/26/403
f 770/25/401 772/26/403 773/25/404
f 761/18/397 760/17/396 774/17/405
f 761/18/397 774/17/405 775/18/406
f 742/3/393 776/27/407 777/27/408
f 742/3/393 777/27/408 778/3/409
f 779/28/410 780/29/411 781/29/412
f 779/28/410 781/29/412 782/28/413
f 783/30/414 784/31/415 785/32/416
f 783/30/414 785/32/416 786/33/417
f 787/34/3 788/35/3 780/29/411
f 787/34/3 780/29/411 779/28/410
f 789/36/418 790/37/419 791/35/420
f 789/36/418 791/35/420 792/34/421
f 793/38/422 776/27/407 794/39/5
f 793/38/422 794/39/5 795/40/5
f 770/25/401 796/41/423 797/42/5
f 770/25/401 797/42/5 798/43/5
f 796/41/423 793/38/422 795/40/5
f 796/41/423 795/40/5 797/42/5
f 799/44/424 800/45/425 801/46/426
f 799/44/424 801/46/426 802/47/427
f 800/45/425 789/36/418 792/34/421
f 800/45/425 792/34/421 801/46/426
f 803/47/3 804/46/3 805/48/428
f 803/47/3 805/48/428 806/49/429
f 804/46/3 787/34/3 779/28/410
f 804/46/3 779/28/410 805/48/428
f 807/50/430 808/51/431 809/52/432
f 807/50/430 809/52/432 810/53/433
f 808/51/431 783/30/414 786/33/417
f 808/51/431 786/33/417 809/52/432
f 806/49/429 805/48/428 811/48/434
f 806/49/429 811/48/434 812/49/435
f 805/48/428 779/28/410 782/28/413
f 805/48/428 782/28/413 811/48/434
f 776/27/407 793/38/422 813/38/436
f 776/27/407 813/38/436 777/27/408
f 793/38/422 796/41/423 814/41/437
f 793/38/422 814/41/437 813/38/436
f 743/4/69 742/3/393 778/3/409
f 743/4/69 778/3/409 815/4/74
f 780/29/411 753/12/150 769/12/400
f 780/29/411 769/12/400 781/29/412
f 784/31/415 764/21/398 767/24/399
f 784/31/415 767/24/399 785/32/416
f 788/35/3 750/10/3 753/12/150
f 788/35/3 753/12/150 780/29/411
f 790/37/419 746/7/394 749/10/395
f 790/37/419 749/10/395 791/35/420
f 776/27/407 742/3/393 745/6/5
f 776/27/407 745/6/5 794/39/5
f 760/17/396 806/49/429 812/49/435
f 760/17/396 812/49/435 774/17/405
f 816/54/438 807/50/430 810/53/433
f 816/54/438 810/53/433 817/55/439
f 818/16/3 803/47/3 806/49/429
f 818/16/3 806/49/429 760/17/396
f 819/56/440 799/44/424 802/47/427
f 819/56/440 802/47/427 820/16/441
f 771/26/402 770/25/401 798/43/5
f 771/26/402 798/43/5 821/57/5
f 796/41/423 770/25/401 773/25/404
f 796/41/423 773/25/404 814/41/437
f 822/57/442 823/43/443 799/44/424
f 822/57/442 799/44/424 819/56/440
f 824/17/444 825/49/445 807/50/430
f 824/17/444 807/50/430 816/54/438
f 826/39/446 827/6/447 746/7/394
f 826/39/446 746/7/394 790/37/419
f 828/29/448 829/12/449 764/21/398
f 828/29/448 764/21/398 784/31/415
f 830/48/450 831/28/451 783/30/414
f 830/48/450 783/30/414 808/51/431
f 825/49/445 830/48/450 808/51/431
f 825/49/445 808/51/431 807/50/430
f 832/42/452 833/40/453 789/36/418
f 832/42/452 789/36/418 800/45/425
f 823/43/443 832/42/452 800/45/425
f 823/43/443 800/45/425 799/44/424
f 833/40/453 826/39/446 790/37/419
f 833/40/453 790/37/419 789/36/418
f 831/28/451 828/29/448 784/31/415
f 831/28/451 784/31/415 783/30/414
f 834/58/454 761/18/397 775/18/406
f 834/58/454 775/18/406 835/58/455
f 829/12/449 836/11/1 765/22/1
f 829/12/449 765/22/1 764/21/398
f 837/9/18 762/19/18 754/13/72
f 837/9/18 754/13/72 752/11/70
f 838/59/2 758/15/2 761/18/397
f 838/59/2 761/18/397 834/58/454
f 752/11/70 754/13/72 757/13/75
f 752/11/70 757/13/75 768/11/80
f 827/6/447 839/5/4 747/8/4
f 827/6/447 747/8/4 746/7/394
s 0
f 117/1/4 840/1/4 118/1/4
f 840/1/4 117/1/4 841/1/4
f 841/1/4 117/1/4 842/1/4
f 215/1/4 843/1/4 216/1/4
f 843/1/4 215/1/4 844/1/4
