# Blender 5.2.0 LTS
# www.blender.org
mtllib 12_4_BaggageClaimBand_AIRPORT_0.mtl
o 12.4.BaggageClaimBand_AIRPORT_0
v -1.316346 0.381415 -1.312500
v -1.246346 -0.041014 -1.312498
v -1.316346 -0.041014 -1.312498
v 0.363654 -0.041014 -1.312498
v 0.433654 0.376557 -1.312499
v 0.433654 -0.041014 -1.312498
v 1.308656 -0.038584 1.312500
v 1.308656 -0.038584 1.247757
v 1.308655 0.381416 1.312500
v 1.308655 0.381415 -0.437500
v 1.308655 -0.038585 -0.366052
v 1.308655 -0.038585 -0.437500
v 1.158893 0.416415 -0.420008
v 0.846433 0.416416 1.239376
v 1.308655 0.416416 1.277499
v 1.308655 0.416415 -0.402500
v 0.841376 -0.038584 1.267269
v 0.401621 -0.038584 1.147164
v 0.466782 -0.038584 1.082421
v 0.906537 -0.038584 1.202526
v -1.241798 0.416415 -0.869063
v -1.281346 0.416415 -1.312500
v -1.306095 0.406164 -1.312499
v -1.261555 0.406164 -0.865678
v -1.261555 0.406164 -0.865678
v -1.306095 0.406164 -1.312499
v -1.316346 0.381415 -1.312500
v -1.269738 0.381415 -0.864275
v 0.446314 0.381415 -1.157800
v 0.433654 0.376557 -1.312499
v 0.423403 0.401306 -1.312498
v 0.440251 0.406164 -1.156762
v 0.440251 0.406164 -1.156762
v 0.423403 0.401306 -1.312498
v 0.412575 0.416415 -1.312500
v 0.425615 0.416415 -1.154253
v 1.162639 -0.038585 -0.440671
v 1.162639 0.381415 -0.440671
v 1.308655 0.381415 -0.437500
v 1.308655 -0.038585 -0.437500
v 1.128719 0.416415 -0.445184
v 1.012051 0.416415 -0.475805
v 1.012051 0.436925 -0.475805
v 1.123197 0.436925 -0.442622
v 1.012051 0.416415 -0.475805
v 0.604355 0.416416 1.212805
v 0.604355 0.436926 1.212805
v 1.012051 0.436925 -0.475805
v 0.604355 0.416416 1.212805
v 0.835913 0.416416 1.266272
v 0.725135 0.436926 1.243459
v 0.604355 0.436926 1.212805
v 1.275396 0.438074 -0.421479
v 1.275396 0.458584 -0.421479
v 1.012051 0.436925 -0.475805
v 0.604355 0.436926 1.212805
v 0.725135 0.436926 1.243459
v 1.123197 0.436925 -0.442622
v 1.173689 0.438075 1.305770
v 1.173689 0.458585 1.305770
v 1.173689 0.458585 1.305770
v 1.275396 0.458584 -0.421479
v 1.295734 0.438075 1.220445
v 1.316346 0.438074 -0.354581
v 1.316346 0.458584 -0.354581
v 1.295734 0.458585 1.220445
v 1.275396 0.438074 -0.421479
v 1.275396 0.458584 -0.421479
v 1.291213 0.458584 -0.415801
v 1.291213 0.438074 -0.415801
v 1.304591 0.458584 -0.401203
v 1.304591 0.438074 -0.401203
v 1.313682 0.458584 -0.379756
v 1.313682 0.438074 -0.379756
v 1.173689 0.458585 1.305770
v 1.173689 0.438075 1.305770
v 1.221019 0.438075 1.301013
v 1.221019 0.458585 1.301013
v 1.261221 0.438075 1.282804
v 1.261221 0.458585 1.282804
v 1.287885 0.438075 1.254356
v 1.287885 0.458585 1.254356
v 1.287885 0.458585 1.254356
v 1.287885 0.438075 1.254356
v 0.946609 0.416415 -0.505629
v 0.839590 0.416415 -0.562205
v 0.839590 0.436925 -0.562205
v 0.940939 0.436925 -0.505790
v 0.839590 0.416415 -0.562205
v 0.076693 0.416416 1.001268
v 0.076693 0.436926 1.001268
v 0.839590 0.436925 -0.562205
v 0.076693 0.416416 1.001268
v 0.291227 0.416416 1.103508
v 0.187995 0.436926 1.057296
v 0.076693 0.436926 1.001268
v 1.084974 0.438074 -0.452258
v 1.084974 0.458584 -0.452258
v 0.839590 0.436925 -0.562205
v 0.076693 0.436926 1.001268
v 0.187995 0.436926 1.057296
v 0.940939 0.436925 -0.505790
v 0.612487 0.438075 1.215062
v 0.612487 0.458585 1.215062
v 0.612487 0.458585 1.215062
v 1.084974 0.458584 -0.452258
v 0.751527 0.438075 1.158452
v 1.111043 0.438074 -0.377967
v 1.111043 0.458584 -0.377968
v 0.751527 0.458585 1.158452
v 1.084974 0.438074 -0.452258
v 1.084974 0.458584 -0.452258
v 1.099190 0.458584 -0.443296
v 1.099190 0.438074 -0.443296
v 1.109097 0.458584 -0.426151
v 1.109097 0.438074 -0.426151
v 1.113339 0.458584 -0.403246
v 1.113339 0.438074 -0.403246
v 0.612487 0.458585 1.215062
v 0.612487 0.438075 1.215062
v 0.659727 0.438075 1.220646
v 0.659727 0.458585 1.220646
v 0.702914 0.438075 1.211553
v 0.702914 0.458585 1.211553
v 0.735095 0.438075 1.189540
v 0.735095 0.458585 1.189540
v 0.783981 0.416415 -0.603901
v 0.689874 0.416415 -0.683831
v 0.689874 0.436925 -0.683831
v 0.776637 0.436925 -0.606848
v 0.689874 0.416415 -0.683831
v -0.392791 0.416416 0.680706
v -0.392791 0.436926 0.680706
v 0.689874 0.436925 -0.683831
v -0.392791 0.416416 0.680706
v -0.205419 0.416416 0.826889
v -0.296226 0.436926 0.759462
v -0.392791 0.436926 0.680706
v 0.905702 0.438074 -0.523457
v 0.905702 0.458584 -0.523457
v 0.689874 0.436925 -0.683831
v -0.392791 0.436926 0.680706
v -0.296226 0.436926 0.759462
v 0.776637 0.436925 -0.606848
v 0.084145 0.438075 1.005229
v 0.084145 0.458585 1.005229
v 0.084145 0.458585 1.005229
v 0.905702 0.458584 -0.523457
v 0.232133 0.438075 0.980000
v 0.915102 0.438074 -0.445288
v 0.915102 0.458584 -0.445288
v 0.232133 0.458585 0.980000
v 0.905702 0.438074 -0.523457
v 0.905702 0.458584 -0.523457
v 0.917645 0.458584 -0.511634
v 0.917645 0.438074 -0.511634
v 0.923614 0.458584 -0.492754
v 0.923614 0.438074 -0.492754
v 0.922806 0.458584 -0.469474
v 0.922806 0.438074 -0.469474
v 0.084145 0.458585 1.005229
v 0.084145 0.438075 1.005229
v 0.129062 0.438075 1.020888
v 0.129062 0.458585 1.020888
v 0.173194 0.438075 1.021343
v 0.173194 0.458585 1.021343
v 0.209372 0.438075 1.006803
v 0.209372 0.458585 1.006803
v 0.647190 0.416415 -0.733128
v 0.569977 0.416415 -0.834935
v 0.569977 0.436925 -0.834935
v 0.638055 0.436925 -0.741022
v 0.569977 0.416415 -0.834935
v -0.781914 0.416415 0.266268
v -0.781914 0.436926 0.266268
v 0.569977 0.436925 -0.834935
v -0.781914 0.416415 0.266268
v -0.630557 0.416416 0.449486
v -0.704648 0.436926 0.364030
v -0.781914 0.436926 0.266268
v 0.746050 0.438074 -0.631712
v 0.746050 0.458584 -0.631712
v 0.569977 0.436925 -0.834935
v -0.781914 0.436926 0.266268
v -0.704648 0.436926 0.364030
v 0.638055 0.436925 -0.741022
v -0.386371 0.438074 0.686184
v -0.386371 0.458585 0.686184
v -0.386371 0.458585 0.686184
v 0.746050 0.458584 -0.631712
v -0.236428 0.438074 0.693530
v 0.738337 0.438074 -0.553359
v 0.738337 0.458584 -0.553359
v -0.236428 0.458585 0.693530
v 0.746050 0.438074 -0.631712
v 0.746050 0.458584 -0.631712
v 0.755157 0.458584 -0.617588
v 0.755157 0.438074 -0.617588
v 0.756904 0.458584 -0.597865
v 0.756904 0.438074 -0.597865
v 0.751085 0.458584 -0.575309
v 0.751085 0.438074 -0.575309
v -0.386371 0.458585 0.686184
v -0.386371 0.438074 0.686184
v -0.345899 0.438074 0.711180
v -0.345899 0.458585 0.711180
v -0.302908 0.438074 0.721159
v -0.302908 0.458585 0.721159
v -0.264443 0.438074 0.714781
v -0.264443 0.458585 0.714781
v 0.541286 0.416415 -0.887221
v 0.485564 0.416415 -1.008378
v 0.485564 0.436925 -1.008378
v 0.531741 0.436925 -0.901973
v 0.485564 0.416415 -1.008378
v -1.072287 0.416415 -0.222463
v -1.072287 0.436925 -0.222463
v 0.485564 0.436925 -1.008378
v -1.072287 0.416415 -0.222463
v -0.964098 0.416415 -0.010867
v -1.017972 0.436926 -0.110315
v -1.072287 0.436925 -0.222463
v 0.613563 0.438074 -0.771909
v 0.613563 0.458584 -0.771909
v 0.485564 0.436925 -1.008378
v -1.072287 0.436925 -0.222463
v -1.017972 0.436926 -0.110315
v 0.531741 0.436925 -0.901973
v -0.776829 0.438074 0.273004
v -0.776829 0.458584 0.273004
v -0.776829 0.458584 0.273004
v 0.613563 0.458584 -0.771909
v -0.632016 0.438074 0.312577
v 0.589102 0.438074 -0.697074
v 0.589102 0.458584 -0.697074
v -0.632016 0.458584 0.312577
v 0.613563 0.438074 -0.771909
v 0.613563 0.458584 -0.771909
v 0.619403 0.458584 -0.756151
v 0.619403 0.438074 -0.756151
v 0.616847 0.458584 -0.736515
v 0.616847 0.438074 -0.736515
v 0.606291 0.458584 -0.715750
v 0.606291 0.438074 -0.715750
v -0.776829 0.458584 0.273004
v -0.776829 0.438074 0.273004
v -0.742714 0.438074 0.306155
v -0.742714 0.458584 0.306155
v -0.702896 0.438074 0.325188
v -0.702896 0.458584 0.325188
v -0.663961 0.438074 0.327273
v -0.663961 0.458584 0.327273
v 0.469001 0.416415 -1.064932
v 0.440625 0.416415 -1.195964
v 0.440625 0.436925 -1.195964
v 0.462717 0.436925 -1.082094
v 0.440625 0.416415 -1.195964
v -1.250191 0.416415 -0.762393
v -1.250191 0.436925 -0.762393
v 0.440625 0.436925 -1.195964
v -1.250191 0.416415 -0.762393
v -1.203408 0.416415 -0.582804
v -1.204445 0.439331 -0.593808
v -1.250191 0.436925 -0.762393
v 0.514502 0.438074 -0.937422
v 0.514502 0.458584 -0.937422
v 0.440625 0.436925 -1.195964
v -1.250191 0.436925 -0.762393
v -1.204445 0.439331 -0.593808
v 0.462717 0.436925 -1.082094
v -1.068779 0.438074 -0.214788
v -1.068779 0.458584 -0.214788
v -1.068779 0.458584 -0.214788
v 0.514502 0.458584 -0.937422
v -0.935938 0.438074 -0.144856
v 0.474447 0.438074 -0.869641
v 0.474447 0.458584 -0.869641
v -0.935938 0.458584 -0.144856
v 0.514502 0.438074 -0.937422
v 0.514502 0.458584 -0.937422
v 0.516798 0.458584 -0.920774
v 0.516798 0.438074 -0.920774
v 0.510060 0.458584 -0.902155
v 0.510060 0.438074 -0.902155
v 0.495266 0.458584 -0.884162
v 0.495266 0.438074 -0.884162
v -1.068779 0.458584 -0.214788
v -1.068779 0.438074 -0.214788
v -1.042633 0.438074 -0.175048
v -1.042633 0.458584 -0.175048
v -1.007869 0.438074 -0.147860
v -1.007869 0.458584 -0.147860
v -0.970304 0.438074 -0.137411
v -0.970304 0.458584 -0.137411
v 0.435216 0.418297 -1.269964
v 0.433575 0.416415 -1.312500
v 0.433575 0.436925 -1.312500
v 0.434247 0.439883 -1.272875
v 0.433575 0.416415 -1.312500
v -1.316346 0.416415 -1.312500
v -1.316346 0.436925 -1.312500
v 0.433575 0.436925 -1.312500
v -1.316346 0.416415 -1.312500
v -1.300905 0.416415 -1.121284
v -1.295288 0.440738 -1.124334
v -1.316346 0.436925 -1.312500
v 0.453546 0.438074 -1.120431
v 0.453546 0.458584 -1.120431
v 0.433575 0.436925 -1.312500
v -1.316346 0.436925 -1.312500
v -1.295288 0.440738 -1.124334
v 0.434247 0.439883 -1.272875
v -1.248424 0.438074 -0.754141
v -1.248424 0.458584 -0.754141
v -1.248424 0.458584 -0.754141
v 0.453546 0.458584 -1.120431
v -1.133833 0.438074 -0.657157
v 0.399791 0.438074 -1.062907
v 0.399791 0.458584 -1.062907
v -1.133833 0.458584 -0.657157
v 0.453546 0.438074 -1.120431
v 0.453546 0.458584 -1.120431
v 0.452191 0.458584 -1.103680
v 0.452191 0.438074 -1.103680
v 0.441588 0.458584 -1.086957
v 0.441588 0.438074 -1.086957
v 0.423256 0.458584 -1.072585
v 0.423256 0.438074 -1.072585
v -1.248424 0.458584 -0.754141
v -1.248424 0.438074 -0.754141
v -1.231483 0.438074 -0.709691
v -1.231483 0.458584 -0.709691
v -1.203415 0.438074 -0.675633
v -1.203415 0.458584 -0.675633
v -1.168996 0.438074 -0.657314
v -1.168996 0.458584 -0.657314
v 1.308655 0.416415 -0.437500
v 1.199646 0.416415 -0.428638
v 1.199646 0.436925 -0.428638
v 1.308655 0.436925 -0.437500
v 1.199646 0.416415 -0.428638
v 1.166858 0.416416 1.305410
v 1.166858 0.436926 1.305410
v 1.199646 0.436925 -0.428638
v 1.166858 0.416416 1.305410
v 1.308655 0.416416 1.312500
v 1.308655 0.436926 1.312500
v 1.166858 0.436926 1.305410
v 1.199646 0.436925 -0.428638
v 1.166858 0.436926 1.305410
v 1.308655 0.436926 1.312500
v 1.308655 0.436925 -0.437500
v 0.433654 -0.041014 -1.312498
v 0.446314 -0.038585 -1.157800
v 0.485628 0.381415 -1.008201
v 0.485628 -0.038585 -1.008201
v 0.550322 0.381415 -0.867701
v 0.550322 -0.038585 -0.867701
v 0.638431 0.381415 -0.740570
v 0.638431 -0.038585 -0.740570
v 0.747277 0.381415 -0.630670
v 0.747277 -0.038585 -0.630670
v 0.873555 0.381415 -0.541341
v 0.873555 -0.038585 -0.541341
v 1.013425 0.381415 -0.475296
v 1.013425 -0.038585 -0.475296
v 1.308655 0.406164 -0.427249
v 1.161542 0.406164 -0.434619
v 1.011293 0.406164 -0.469527
v 1.006147 0.416415 -0.455597
v 0.870453 0.406164 -0.536029
v 0.862967 0.416415 -0.523205
v 0.743301 0.406164 -0.625977
v 0.733702 0.416415 -0.614648
v 0.633700 0.406164 -0.736639
v 0.622279 0.416415 -0.727149
v 0.544980 0.406164 -0.864651
v 0.532085 0.416415 -0.857289
v 0.479838 0.406164 -1.006125
v 0.465860 0.416415 -1.001114
v 1.161542 0.406164 -0.434619
v 1.308655 0.406164 -0.427249
v 1.011293 0.406164 -0.469527
v 0.870453 0.406164 -0.536029
v 0.743301 0.406164 -0.625977
v 0.633700 0.406164 -0.736639
v 0.544980 0.406164 -0.864651
v 0.479838 0.406164 -1.006125
v 1.308655 0.406165 1.302248
v 0.842857 0.406165 1.259099
v 0.841376 0.381416 1.267269
v 1.308655 0.381416 1.312500
v 0.404498 0.406165 1.139375
v 0.401621 0.381416 1.147164
v -0.006411 0.406164 0.945351
v -0.010597 0.381416 0.952521
v -0.377386 0.406164 0.682920
v -0.382754 0.381416 0.689255
v -0.697155 0.406164 0.360057
v -0.703541 0.381416 0.365364
v -0.956000 0.406164 -0.013428
v -0.963211 0.381415 -0.009311
v -1.146059 0.406164 -0.426187
v -1.153874 0.381415 -0.423385
v 0.842857 0.406165 1.259099
v 1.308655 0.406165 1.302248
v 0.411445 0.416416 1.120573
v 0.404498 0.406165 1.139375
v 0.003695 0.416416 0.928040
v -0.006411 0.406164 0.945351
v -0.364428 0.416416 0.667628
v -0.377386 0.406164 0.682920
v -0.681738 0.416416 0.347247
v -0.697155 0.406164 0.360057
v -0.938593 0.416415 -0.023366
v -0.956000 0.406164 -0.013428
v -1.127190 0.416415 -0.432951
v -1.146059 0.406164 -0.426187
v -1.269738 -0.038585 -0.864275
v -1.316346 -0.041014 -1.312498
v -1.246346 -0.041014 -1.312498
v -1.204577 -0.038585 -0.929018
v -1.153874 -0.038585 -0.423384
v -1.088713 -0.038585 -0.488127
v -0.963211 -0.038584 -0.009311
v -0.898049 -0.038585 -0.074054
v -0.703541 -0.038584 0.365364
v -0.638379 -0.038584 0.300621
v -0.382754 -0.038584 0.689255
v -0.317592 -0.038584 0.624512
v -0.010597 -0.038584 0.952521
v 0.054564 -0.038584 0.887779
v 0.873555 -0.038585 -0.541341
v 0.838702 -0.038585 -0.480524
v 0.701962 -0.038585 -0.577256
v 0.747277 -0.038585 -0.630670
v 1.162639 -0.038585 -0.440671
v 1.151740 -0.038585 -0.370744
v 0.990162 -0.038585 -0.409007
v 1.013425 -0.038585 -0.475296
v 0.376060 -0.458585 -1.148064
v 0.363654 -0.458585 -1.312498
v 0.361956 -0.038585 -1.312499
v 0.376060 -0.038585 -1.148064
v 0.701962 -0.458585 -0.577255
v 0.584096 -0.458585 -0.696262
v 0.584096 -0.038585 -0.696262
v 0.701962 -0.038585 -0.577256
v 1.308655 -0.458584 -0.366052
v 1.151740 -0.458584 -0.370744
v 1.151740 -0.038585 -0.370744
v 1.308655 -0.038585 -0.366052
v 0.488686 -0.458585 -0.833927
v 0.418631 -0.458585 -0.986069
v 0.418631 -0.038585 -0.986069
v 0.488686 -0.038585 -0.833927
v 0.412575 0.416415 -1.312500
v 0.425615 0.416415 -1.154253
v 0.465860 0.416415 -1.001114
v 0.532085 0.416415 -0.857289
v 0.622279 0.416415 -0.727149
v 0.733702 0.416415 -0.614648
v 0.862967 0.416415 -0.523205
v 1.006147 0.416415 -0.455597
v 0.401621 -0.038584 1.147164
v 0.841376 -0.038584 1.267269
v -0.010597 -0.038584 0.952521
v -0.382754 -0.038584 0.689255
v -0.703541 -0.038584 0.365364
v -0.963211 -0.038584 -0.009311
v -1.153874 -0.038585 -0.423384
v -1.269738 -0.038585 -0.864275
v -1.316346 -0.041014 -1.312498
v 1.308656 -0.038584 1.312500
v 0.990162 -0.458584 -0.409007
v 0.838702 -0.458585 -0.480524
v 0.838702 -0.038585 -0.480524
v 0.990162 -0.038585 -0.409007
v 1.308655 -0.038585 -0.437500
v 1.308655 -0.038585 -0.366052
v 0.638431 -0.038585 -0.740570
v 0.584096 -0.038585 -0.696262
v 0.550322 -0.038585 -0.867701
v 0.488686 -0.038585 -0.833927
v 0.906537 -0.038584 1.202526
v 0.906537 -0.458584 1.202526
v 1.308655 -0.458584 1.241449
v 1.308656 -0.038584 1.247757
v -1.246346 -0.041014 -1.312498
v -1.246346 -0.458585 -1.312498
v -1.204577 -0.458585 -0.929018
v -1.204577 -0.038585 -0.929018
v -1.088713 -0.458585 -0.488127
v -1.088713 -0.038585 -0.488127
v -0.898049 -0.458584 -0.074053
v -0.898049 -0.038585 -0.074054
v -0.638379 -0.458584 0.300621
v -0.638379 -0.038584 0.300621
v -0.317592 -0.458584 0.624512
v -0.317592 -0.038584 0.624512
v 0.054564 -0.458584 0.887779
v 0.054564 -0.038584 0.887779
v 0.466782 -0.458584 1.082421
v 0.466782 -0.038584 1.082421
v 1.308656 -0.038584 1.312500
v 1.308656 -0.038584 1.247757
v 0.418631 -0.038585 -0.986069
v 0.485628 -0.038585 -1.008201
v 0.376060 -0.038585 -1.148064
v 0.446314 -0.038585 -1.157800
v 0.906537 -0.458584 1.202526
v 1.151740 -0.458584 -0.370744
v 1.308655 -0.458584 -0.366052
v 1.308655 -0.458584 1.241449
v 0.466782 -0.458584 1.082421
v 0.990162 -0.458584 -0.409007
v 0.054564 -0.458584 0.887779
v 0.838702 -0.458585 -0.480524
v -0.317592 -0.458584 0.624512
v 0.701962 -0.458585 -0.577255
v -0.638379 -0.458584 0.300621
v 0.584096 -0.458585 -0.696262
v -0.898049 -0.458584 -0.074053
v 0.488686 -0.458585 -0.833927
v -1.088713 -0.458585 -0.488127
v 0.418631 -0.458585 -0.986069
v -1.204577 -0.458585 -0.929018
v 0.376060 -0.458585 -1.148064
v -1.246346 -0.458585 -1.312498
v 0.363654 -0.458585 -1.312498
v -1.246346 -0.041014 -1.312498
v 0.361956 -0.038585 -1.312499
v 0.363654 -0.458585 -1.312498
v -1.246346 -0.458585 -1.312498
v 0.361956 -0.038585 -1.312499
v 0.433654 -0.041014 -1.312498
v -1.306095 0.406164 -1.312499
v 0.423403 0.401306 -1.312498
v -1.281346 0.416415 -1.312500
v 0.412575 0.416415 -1.312500
v 0.423403 0.401306 -1.312498
v 1.308655 -0.038585 -0.366052
v 1.308656 -0.038584 1.247757
v 1.308655 -0.458584 1.241449
v 1.308655 -0.458584 -0.366052
v 1.308655 0.406164 -0.427249
v 1.308655 0.406165 1.302248
v 1.308655 0.416415 -0.402500
v 1.308655 0.416416 1.277499
v 1.308655 0.436926 1.312500
v 1.308655 0.416416 1.312500
v 1.308655 0.416415 -0.437500
v 1.308655 0.436925 -0.437500
v 1.166858 0.416416 1.305410
v 1.199646 0.416415 -0.428638
v 1.308655 0.416415 -0.437500
v 1.308655 0.416416 1.312500
v 1.221019 0.458585 1.301013
v 1.275396 0.458584 -0.421479
v 1.173689 0.458585 1.305770
v 1.261221 0.458585 1.282804
v 1.287885 0.458585 1.254356
v 1.291213 0.458584 -0.415801
v 1.295734 0.458585 1.220445
v 1.304591 0.458584 -0.401203
v 1.316346 0.458584 -0.354581
v 1.313682 0.458584 -0.379756
v 1.012051 0.416415 -0.475805
v 0.835913 0.416416 1.266272
v 0.604355 0.416416 1.212805
v 1.173689 0.438075 1.305770
v 1.128719 0.416415 -0.445184
v 1.275396 0.438074 -0.421479
v 1.221019 0.438075 1.301013
v 1.261221 0.438075 1.282804
v 1.287885 0.438075 1.254356
v 1.291213 0.438074 -0.415801
v 1.295734 0.438075 1.220445
v 1.304591 0.438074 -0.401203
v 1.316346 0.438074 -0.354581
v 1.313682 0.438074 -0.379756
v 0.659727 0.458585 1.220646
v 1.084974 0.458584 -0.452258
v 0.612487 0.458585 1.215062
v 0.702914 0.458585 1.211553
v 0.735095 0.458585 1.189540
v 0.751527 0.458585 1.158452
v 1.111043 0.458584 -0.377968
v 1.099190 0.458584 -0.443296
v 1.109097 0.458584 -0.426151
v 1.113339 0.458584 -0.403246
v 0.839590 0.416415 -0.562205
v 0.291227 0.416416 1.103508
v 0.076693 0.416416 1.001268
v 0.612487 0.438075 1.215062
v 0.659727 0.438075 1.220646
v 0.702914 0.438075 1.211553
v 0.735095 0.438075 1.189540
v 0.751527 0.438075 1.158452
v 1.111043 0.438074 -0.377967
v 0.946609 0.416415 -0.505629
v 1.084974 0.438074 -0.452258
v 1.099190 0.438074 -0.443296
v 1.109097 0.438074 -0.426151
v 1.113339 0.438074 -0.403246
v 0.129062 0.458585 1.020888
v 0.905702 0.458584 -0.523457
v 0.084145 0.458585 1.005229
v 0.173194 0.458585 1.021343
v 0.209372 0.458585 1.006803
v 0.232133 0.458585 0.980000
v 0.915102 0.458584 -0.445288
v 0.917645 0.458584 -0.511634
v 0.922806 0.458584 -0.469474
v 0.923614 0.458584 -0.492754
v 0.689874 0.416415 -0.683831
v -0.205419 0.416416 0.826889
v -0.392791 0.416416 0.680706
v 0.084145 0.438075 1.005229
v 0.129062 0.438075 1.020888
v 0.173194 0.438075 1.021343
v 0.209372 0.438075 1.006803
v 0.232133 0.438075 0.980000
v 0.915102 0.438074 -0.445288
v 0.783981 0.416415 -0.603901
v 0.905702 0.438074 -0.523457
v 0.917645 0.438074 -0.511634
v 0.922806 0.438074 -0.469474
v 0.923614 0.438074 -0.492754
v -0.345899 0.458585 0.711180
v 0.746050 0.458584 -0.631712
v -0.386371 0.458585 0.686184
v -0.302908 0.458585 0.721159
v -0.264443 0.458585 0.714781
v -0.236428 0.458585 0.693530
v 0.738337 0.458584 -0.553359
v 0.751085 0.458584 -0.575309
v 0.755157 0.458584 -0.617588
v 0.756904 0.458584 -0.597865
v 0.569977 0.416415 -0.834935
v -0.630557 0.416416 0.449486
v -0.781914 0.416415 0.266268
v -0.386371 0.438074 0.686184
v -0.345899 0.438074 0.711180
v -0.302908 0.438074 0.721159
v -0.264443 0.438074 0.714781
v -0.236428 0.438074 0.693530
v 0.738337 0.438074 -0.553359
v 0.647190 0.416415 -0.733128
v 0.746050 0.438074 -0.631712
v 0.751085 0.438074 -0.575309
v 0.755157 0.438074 -0.617588
v 0.756904 0.438074 -0.597865
v -0.742714 0.458584 0.306155
v 0.613563 0.458584 -0.771909
v -0.776829 0.458584 0.273004
v -0.702896 0.458584 0.325188
v -0.663961 0.458584 0.327273
v -0.632016 0.458584 0.312577
v 0.589102 0.458584 -0.697074
v 0.606291 0.458584 -0.715750
v 0.616847 0.458584 -0.736515
v 0.619403 0.458584 -0.756151
v 0.485564 0.416415 -1.008378
v -0.964098 0.416415 -0.010867
v -1.072287 0.416415 -0.222463
v -0.776829 0.438074 0.273004
v -0.742714 0.438074 0.306155
v -0.702896 0.438074 0.325188
v -0.663961 0.438074 0.327273
v -0.632016 0.438074 0.312577
v 0.589102 0.438074 -0.697074
v 0.541286 0.416415 -0.887221
v 0.613563 0.438074 -0.771909
v 0.606291 0.438074 -0.715750
v 0.616847 0.438074 -0.736515
v 0.619403 0.438074 -0.756151
v -1.042633 0.458584 -0.175048
v 0.514502 0.458584 -0.937422
v -1.068779 0.458584 -0.214788
v -1.007869 0.458584 -0.147860
v -0.970304 0.458584 -0.137411
v -0.935938 0.458584 -0.144856
v 0.474447 0.458584 -0.869641
v 0.495266 0.458584 -0.884162
v 0.510060 0.458584 -0.902155
v 0.516798 0.458584 -0.920774
v 0.440625 0.416415 -1.195964
v -1.203408 0.416415 -0.582804
v -1.250191 0.416415 -0.762393
v -1.068779 0.438074 -0.214788
v -1.042633 0.438074 -0.175048
v -1.007869 0.438074 -0.147860
v -0.970304 0.438074 -0.137411
v -0.935938 0.438074 -0.144856
v 0.474447 0.438074 -0.869641
v 0.469001 0.416415 -1.064932
v 0.514502 0.438074 -0.937422
v 0.495266 0.438074 -0.884162
v 0.510060 0.438074 -0.902155
v 0.516798 0.438074 -0.920774
v -1.231483 0.458584 -0.709691
v 0.453546 0.458584 -1.120431
v -1.248424 0.458584 -0.754141
v -1.203415 0.458584 -0.675633
v -1.168996 0.458584 -0.657314
v -1.133833 0.458584 -0.657157
v 0.399791 0.458584 -1.062907
v 0.423256 0.458584 -1.072585
v 0.441588 0.458584 -1.086957
v 0.452191 0.458584 -1.103680
v 0.433575 0.416415 -1.312500
v -1.300905 0.416415 -1.121284
v -1.316346 0.416415 -1.312500
v -1.248424 0.438074 -0.754141
v -1.231483 0.438074 -0.709691
v -1.203415 0.438074 -0.675633
v -1.168996 0.438074 -0.657314
v -1.133833 0.438074 -0.657157
v 0.399791 0.438074 -1.062907
v 0.423256 0.438074 -1.072585
v 0.441588 0.438074 -1.086957
v 0.435216 0.418297 -1.269964
v 0.453546 0.438074 -1.120431
v 0.452191 0.438074 -1.103680
vn -0.0000 -0.0000 -1.0000
vn 1.0000 -0.0000 -0.0000
vn 0.0422 0.9660 -0.2551
vn -0.0424 0.9718 0.2320
vn -0.0196 0.9745 0.2236
vn 0.0184 0.9754 -0.2197
vn -0.0000 -1.0000 -0.0000
vn -0.2312 0.9720 0.0419
vn -0.2243 0.9743 0.0212
vn -0.4156 0.9087 0.0393
vn -0.4290 0.9000 0.0775
vn -0.9273 0.3343 0.1686
vn -0.9320 0.3498 0.0949
vn -0.9793 0.1755 0.1008
vn -0.9698 0.1683 0.1764
vn 0.9745 0.1428 -0.1730
vn 0.9833 0.1573 -0.0916
vn 0.8434 0.5295 -0.0909
vn 0.8177 0.5561 -0.1486
vn 0.6997 0.7102 -0.0776
vn 0.6283 0.7699 -0.1117
vn 0.1245 -0.0000 -0.9922
vn 0.1269 0.1417 -0.9817
vn 0.0283 0.1591 -0.9869
vn 0.0217 -0.0000 -0.9998
vn 0.1960 0.0874 -0.9767
vn 0.2684 0.0960 -0.9585
vn 0.2094 0.0890 -0.9738
vn -0.9721 -0.0000 -0.2347
vn -0.2314 -0.0858 0.9691
vn -0.1419 0.1602 0.9768
vn -0.2249 -0.0667 0.9721
vn 0.1366 0.0800 -0.9874
vn -0.0000 1.0000 -0.0000
vn -0.0344 0.9994 -0.0050
vn -0.0356 0.9994 -0.0052
vn -0.1359 0.1752 0.9751
vn -0.0343 0.9994 -0.0050
vn -0.0361 0.9993 -0.0053
vn 0.9928 -0.0000 0.1200
vn 0.9989 -0.0000 -0.0462
vn 0.3379 -0.0000 -0.9412
vn 0.5537 -0.0000 -0.8327
vn 0.8412 -0.0000 -0.5408
vn 0.9681 -0.0000 -0.2505
vn 0.1000 -0.0000 0.9950
vn 0.2597 -0.0000 0.9657
vn 0.5823 -0.0000 0.8130
vn 0.7296 -0.0000 0.6839
vn 0.9742 -0.0000 0.2255
vn 0.4053 0.0525 -0.9127
vn 0.4758 0.0623 -0.8774
vn 0.4197 0.0545 -0.9060
vn -0.8987 -0.0000 -0.4385
vn -0.4353 -0.0858 0.8962
vn -0.3496 0.1602 0.9231
vn -0.4296 -0.0667 0.9005
vn 0.3477 0.0444 -0.9365
vn -0.0325 0.9994 -0.0123
vn -0.0337 0.9994 -0.0128
vn -0.3434 0.1752 0.9227
vn -0.0324 0.9994 -0.0123
vn -0.0341 0.9993 -0.0130
vn 0.9366 -0.0000 0.3504
vn 0.9872 -0.0000 0.1595
vn 0.5333 -0.0000 -0.8459
vn 0.7206 -0.0000 -0.6934
vn 0.9381 -0.0000 -0.3462
vn 0.9382 -0.0000 -0.3462
vn 0.9989 -0.0000 -0.0463
vn -0.1174 -0.0000 0.9931
vn 0.0449 -0.0000 0.9990
vn 0.3928 -0.0000 0.9196
vn 0.7461 -0.0000 0.6658
vn 0.5891 0.0475 -0.8067
vn 0.6540 0.0629 -0.7539
vn 0.6093 0.0523 -0.7912
vn -0.7834 -0.0000 -0.6216
vn -0.6187 -0.0858 0.7809
vn -0.5408 0.1602 0.8257
vn -0.6141 -0.0667 0.7864
vn 0.5421 0.0367 -0.8395
vn -0.0291 0.9994 -0.0190
vn -0.0301 0.9994 -0.0197
vn -0.5347 0.1752 0.8267
vn -0.0290 0.9994 -0.0190
vn -0.0306 0.9993 -0.0200
vn 0.8390 -0.0000 0.5442
vn 0.9295 -0.0000 0.3687
vn 0.9296 -0.0000 0.3687
vn 0.7035 -0.0000 -0.7107
vn 0.8534 -0.0000 -0.5213
vn 0.9908 -0.0000 -0.1353
vn 0.9853 -0.0000 0.1707
vn -0.3292 -0.0000 0.9443
vn -0.1720 -0.0000 0.9851
vn 0.1849 -0.0000 0.9828
vn 0.1848 -0.0000 0.9828
vn 0.5847 -0.0000 0.8113
vn 0.5846 -0.0000 0.8113
vn 0.7445 0.0375 -0.6666
vn 0.8013 0.0639 -0.5948
vn 0.8013 0.0639 -0.5949
vn 0.7706 0.0493 -0.6354
vn -0.6316 -0.0000 -0.7753
vn -0.7728 -0.0858 0.6288
vn -0.7065 0.1602 0.6894
vn -0.7695 -0.0667 0.6351
vn 0.7111 0.0231 -0.7027
vn -0.0244 0.9994 -0.0249
vn -0.0252 0.9994 -0.0257
vn -0.7007 0.1752 0.6916
vn -0.0243 0.9994 -0.0248
vn -0.0256 0.9993 -0.0261
vn 0.7019 -0.0000 0.7122
vn 0.8282 -0.0000 0.5604
vn 0.8404 -0.0000 -0.5419
vn 0.9459 -0.0000 -0.3246
vn 0.9459 -0.0000 -0.3245
vn 0.9966 -0.0000 0.0820
vn 0.9252 -0.0000 0.3796
vn -0.5255 -0.0000 0.8508
vn -0.3808 -0.0000 0.9247
vn -0.3808 -0.0000 0.9246
vn -0.0319 -0.0000 0.9995
vn 0.3955 -0.0000 0.9185
vn 0.8672 0.0229 -0.4974
vn 0.9107 0.0652 -0.4078
vn 0.8932 0.0471 -0.4471
vn -0.4504 -0.0000 -0.8928
vn -0.8904 -0.0858 0.4469
vn -0.8387 0.1602 0.5204
vn -0.8886 -0.0667 0.4539
vn 0.8464 0.0054 -0.5325
vn 0.8464 0.0055 -0.5325
vn -0.0185 0.9994 -0.0295
vn -0.0190 0.9994 -0.0305
vn -0.8336 0.1752 0.5239
vn -0.0184 0.9994 -0.0294
vn -0.0194 0.9993 -0.0310
vn 0.5321 -0.0000 0.8467
vn 0.6881 -0.0000 0.7256
vn 0.5320 -0.0000 0.8467
vn 0.9377 -0.0000 -0.3475
vn 0.9937 -0.0000 -0.1125
vn 0.9554 -0.0000 0.2954
vn 0.8213 -0.0000 0.5705
vn -0.6969 -0.0000 0.7172
vn -0.5716 -0.0000 0.8205
vn -0.2471 -0.0000 0.9690
vn 0.1877 -0.0000 0.9822
vn 0.9540 0.0210 -0.2991
vn 0.9773 0.0654 -0.2014
vn 0.9690 0.0469 -0.2428
vn -0.2484 -0.0000 -0.9687
vn -0.9657 0.0419 0.2563
vn -0.9500 0.0552 0.3074
vn -0.9568 0.0497 0.2864
vn -0.9657 0.0419 0.2564
vn 0.9415 0.0032 -0.3370
vn -0.0015 1.0000 -0.0082
vn -0.0131 0.9992 -0.0382
vn -0.0131 0.9992 -0.0383
vn -0.9396 0.0628 0.3365
vn -0.0121 0.9994 -0.0335
vn -0.0128 0.9993 -0.0354
vn 0.3373 -0.0000 0.9414
vn 0.5157 -0.0000 0.8568
vn 0.9906 -0.0000 -0.1366
vn 0.9945 -0.0000 0.1049
vn 0.8690 -0.0000 0.4949
vn 0.6786 -0.0000 0.7345
vn -0.8354 -0.0000 0.5496
vn -0.7354 -0.0000 0.6776
vn -0.4507 -0.0000 0.8927
vn -0.0290 -0.0000 0.9996
vn 0.9967 0.0175 -0.0790
vn 0.9993 0.0209 -0.0294
vn 0.9993 0.0210 -0.0294
vn 0.9969 0.0177 -0.0763
vn -0.9871 0.1300 0.0937
vn -0.9852 0.1309 0.1103
vn -0.9854 0.1309 0.1089
vn 0.9920 0.0141 -0.1254
vn -0.0010 0.9996 -0.0296
vn -0.0054 0.9988 -0.0487
vn -0.0055 0.9988 -0.0489
vn -0.9833 0.1317 0.1254
vn -0.0049 0.9994 -0.0333
vn -0.0052 0.9994 -0.0352
vn 0.1268 -0.0000 0.9919
vn 0.3192 -0.0000 0.9477
vn 0.9967 -0.0000 0.0806
vn 0.9483 -0.0000 0.3173
vn 0.7415 -0.0000 0.6709
vn 0.5039 -0.0000 0.8638
vn 0.5038 -0.0000 0.8638
vn -0.9344 -0.0000 0.3561
vn -0.8645 -0.0000 0.5027
vn -0.6329 -0.0000 0.7742
vn -0.2443 -0.0000 0.9697
vn -0.0810 -0.0000 -0.9967
vn -0.9998 -0.0000 -0.0189
vn -0.0499 -0.0000 0.9988
vn 0.9967 -0.0000 -0.0816
vn 0.9858 -0.0000 -0.1681
vn 0.9343 0.1223 -0.3350
vn 0.9413 -0.0000 -0.3375
vn 0.8619 0.1223 -0.4921
vn 0.8684 -0.0000 -0.4958
vn 0.7634 0.1223 -0.6343
vn 0.7691 -0.0000 -0.6391
vn 0.6416 0.1223 -0.7572
vn 0.6465 -0.0000 -0.7629
vn 0.5004 0.1223 -0.8571
vn 0.5042 -0.0000 -0.8636
vn 0.3258 0.1225 -0.9375
vn 0.3284 -0.0000 -0.9445
vn 0.0385 0.8873 -0.4596
vn 0.0831 0.8575 -0.5077
vn 0.1860 0.8233 -0.5362
vn 0.1871 0.8232 -0.5360
vn 0.2864 0.8229 -0.4906
vn 0.3673 0.8229 -0.4334
vn 0.4370 0.8229 -0.3631
vn 0.4934 0.8229 -0.2817
vn 0.5348 0.8229 -0.1917
vn 0.1281 0.2779 -0.9520
vn 0.0341 0.3134 -0.9490
vn 0.3190 0.2412 -0.9166
vn 0.4893 0.2412 -0.8381
vn 0.6274 0.2412 -0.7404
vn 0.7464 0.2412 -0.6202
vn 0.8428 0.2412 -0.4812
vn 0.9135 0.2412 -0.3275
vn -0.0883 0.3497 0.9327
vn -0.1697 0.3345 0.9270
vn -0.1777 0.1683 0.9696
vn -0.0939 0.1756 0.9800
vn -0.3285 0.3181 0.8893
vn -0.3421 0.1597 0.9260
vn -0.4780 0.3181 0.8188
vn -0.4977 0.1597 0.8525
vn -0.6129 0.3181 0.7233
vn -0.6382 0.1597 0.7531
vn -0.7292 0.3181 0.6059
vn -0.7593 0.1597 0.6309
vn -0.8233 0.3181 0.4701
vn -0.8573 0.1597 0.4895
vn -0.8924 0.3181 0.3200
vn -0.9292 0.1597 0.3332
vn -0.0785 0.9000 0.4287
vn -0.0364 0.9087 0.4160
vn -0.0854 0.9692 0.2311
vn -0.1578 0.8903 0.4271
vn -0.1242 0.9692 0.2128
vn -0.2296 0.8903 0.3932
vn -0.1593 0.9692 0.1880
vn -0.2944 0.8903 0.3474
vn -0.1895 0.9692 0.1575
vn -0.3502 0.8903 0.2910
vn -0.2140 0.9692 0.1222
vn -0.3954 0.8903 0.2258
vn -0.2319 0.9692 0.0832
vn -0.4286 0.8903 0.1537
vn 0.0009 -1.0000 0.0017
vn 0.0026 -1.0000 0.0056
vn 0.0027 -1.0000 0.0056
vn 0.0019 -1.0000 0.0038
vn 0.9858 0.0010 -0.1679
vn 0.9968 0.0020 -0.0803
vn 0.0299 -0.0000 -0.9996
vn 0.1308 -0.0000 -0.9914
vn -0.3465 -0.0000 0.9380
vn -0.1806 -0.0000 0.9836
vn -0.5042 -0.0000 0.8636
vn -0.6465 -0.0000 0.7629
vn -0.7691 -0.0000 0.6391
vn -0.8684 -0.0000 0.4958
vn -0.9413 -0.0000 0.3375
vn -0.9838 -0.0000 0.1792
vn -0.9946 -0.0000 0.1034
vn -0.0963 -0.0000 0.9953
vn 0.3305 -0.0000 -0.9438
vn -0.1845 -0.0038 0.9828
vn -0.1844 -0.0037 0.9829
vn -0.1039 -0.0073 0.9946
vn -0.1041 -0.0075 0.9945
vn -0.9941 -0.0000 0.1083
vn -0.9834 -0.0000 0.1817
vn -0.9833 -0.0000 0.1819
vn -0.0084 -1.0000 0.0046
vn -0.0081 -1.0000 0.0044
vn -0.0165 -0.9998 0.0090
vn -0.0000 -0.0001 -1.0000
vn 1.0000 -0.0001 -0.0000
vn -0.0181 0.9998 -0.0026
vn -0.0172 0.9998 -0.0025
vn 0.0427 -0.9991 0.0049
vn -0.0171 0.9998 -0.0065
vn -0.0162 0.9998 -0.0062
vn 0.0406 -0.9991 0.0140
vn 0.0405 -0.9991 0.0140
vn 0.0406 -0.9991 0.0139
vn -0.0153 0.9998 -0.0100
vn -0.0145 0.9998 -0.0095
vn 0.0366 -0.9991 0.0224
vn -0.0128 0.9998 -0.0131
vn -0.0121 0.9998 -0.0124
vn 0.0309 -0.9991 0.0298
vn 0.0309 -0.9991 0.0297
vn -0.0097 0.9998 -0.0155
vn -0.0092 0.9998 -0.0147
vn 0.0237 -0.9991 0.0357
vn -0.0064 0.9998 -0.0177
vn -0.0061 0.9998 -0.0168
vn 0.0149 -0.9991 0.0402
vn -0.0026 0.9998 -0.0176
vn -0.0024 0.9999 -0.0166
vn 0.0072 -0.9989 0.0466
vt 0.782597 0.092701
vt 0.782596 0.092701
vt 0.782596 0.092701
vt 0.782596 0.092703
vt 0.782597 0.092703
vt 0.782596 0.092703
vt 0.782596 0.092703
vt 0.782600 0.092701
vt 0.782597 0.092701
vt 0.782597 0.092701
vt 0.782597 0.092703
vt 0.782600 0.092701
vt 0.093746 0.154565
vt 0.093754 0.154560
vt 0.093752 0.154560
vt 0.093746 0.154565
vt 0.093747 0.154564
vt 0.093746 0.154564
vt 0.782592 0.092701
vt 0.845506 0.093035
vt 0.845509 0.093035
vt 0.845508 0.093035
vt 0.845508 0.093035
vt 0.845509 0.093038
vt 0.845509 0.093036
vt 0.093752 0.154560
vt 0.093752 0.154560
vt 0.093754 0.154560
vt 0.093752 0.154560
vt 0.093754 0.154560
vt 0.093754 0.154560
vt 0.093754 0.154560
s 0
usemtl AIRPORT
f 1/1/1 2/2/1 3/3/1
f 4/4/1 5/5/1 6/6/1
f 7/3/2 8/2/2 9/1/2
f 10/5/2 11/7/2 12/6/2
s 1
f 13/8/3 14/9/4 15/9/5
f 13/8/3 15/9/5 16/8/6
s 0
f 17/3/7 18/3/7 19/3/7
f 17/3/7 19/3/7 20/3/7
s 1
f 21/9/8 22/9/9 23/10/10
f 21/9/8 23/10/10 24/10/11
f 25/10/12 26/10/13 27/1/14
f 25/10/12 27/1/14 28/1/15
f 29/5/16 30/5/17 31/11/18
f 29/5/16 31/11/18 32/11/19
f 33/12/19 34/12/18 35/8/20
f 33/12/19 35/8/20 36/8/21
f 37/6/22 38/5/23 39/5/24
f 37/6/22 39/5/24 40/6/25
f 41/13/26 42/13/27 43/13/27
f 41/13/26 43/13/27 44/13/28
s 0
f 45/14/29 46/15/29 47/15/29
f 45/14/29 47/15/29 48/14/29
s 1
f 49/13/30 50/13/31 51/13/32
f 49/13/30 51/13/32 52/13/30
f 53/13/33 41/13/26 44/13/28
f 53/13/33 44/13/28 54/13/33
f 55/14/34 56/15/34 57/15/35
f 55/14/34 57/15/35 58/14/36
f 50/13/31 59/13/37 60/13/37
f 50/13/31 60/13/37 51/13/32
f 58/14/36 57/15/35 61/15/38
f 58/14/36 61/15/38 62/14/39
f 63/13/40 64/13/41 65/13/41
f 63/13/40 65/13/41 66/13/40
f 67/13/42 68/13/42 69/13/43
f 67/13/42 69/13/43 70/13/43
f 70/13/43 69/13/43 71/13/44
f 70/13/43 71/13/44 72/13/44
f 72/13/44 71/13/44 73/13/45
f 72/13/44 73/13/45 74/13/45
f 74/13/45 73/13/45 65/13/41
f 74/13/45 65/13/41 64/13/41
f 75/13/46 76/13/46 77/16/47
f 75/13/46 77/16/47 78/13/47
f 78/13/47 77/16/47 79/16/48
f 78/13/47 79/16/48 80/13/48
f 80/13/48 79/16/48 81/16/49
f 80/13/48 81/16/49 82/13/49
f 83/13/50 84/16/50 63/13/40
f 83/13/50 63/13/40 66/13/40
f 85/13/51 86/13/52 87/13/52
f 85/13/51 87/13/52 88/13/53
s 0
f 89/14/54 90/15/54 91/15/54
f 89/14/54 91/15/54 92/14/54
s 1
f 93/13/55 94/13/56 95/13/57
f 93/13/55 95/13/57 96/13/55
f 97/13/58 85/13/51 88/13/53
f 97/13/58 88/13/53 98/13/58
f 99/14/34 100/15/34 101/15/59
f 99/14/34 101/15/59 102/14/60
f 94/13/56 103/13/61 104/13/61
f 94/13/56 104/13/61 95/13/57
f 102/14/60 101/15/59 105/15/62
f 102/14/60 105/15/62 106/14/63
f 107/13/64 108/13/65 109/13/65
f 107/13/64 109/13/65 110/13/64
f 111/13/66 112/13/66 113/13/67
f 111/13/66 113/13/67 114/13/67
f 114/13/67 113/13/67 115/13/68
f 114/13/67 115/13/68 116/13/69
f 116/13/69 115/13/68 117/13/70
f 116/13/69 117/13/70 118/13/70
f 118/13/70 117/13/70 109/13/65
f 118/13/70 109/13/65 108/13/65
f 119/13/71 120/13/71 121/16/72
f 119/13/71 121/16/72 122/13/72
f 122/13/72 121/16/72 123/16/73
f 122/13/72 123/16/73 124/13/73
f 124/13/73 123/16/73 125/16/74
f 124/13/73 125/16/74 126/13/74
f 126/13/74 125/16/74 107/13/64
f 126/13/74 107/13/64 110/13/64
f 127/13/75 128/13/76 129/13/76
f 127/13/75 129/13/76 130/13/77
s 0
f 131/14/78 132/15/78 133/15/78
f 131/14/78 133/15/78 134/14/78
s 1
f 135/13/79 136/13/80 137/13/81
f 135/13/79 137/13/81 138/13/79
f 139/13/82 127/13/75 130/13/77
f 139/13/82 130/13/77 140/13/82
f 141/14/34 142/15/34 143/15/83
f 141/14/34 143/15/83 144/14/84
f 136/13/80 145/13/85 146/13/85
f 136/13/80 146/13/85 137/13/81
f 144/14/84 143/15/83 147/15/86
f 144/14/84 147/15/86 148/14/87
f 149/13/88 150/13/89 151/13/90
f 149/13/88 151/13/90 152/13/88
f 153/13/91 154/13/91 155/13/92
f 153/13/91 155/13/92 156/13/92
f 156/13/92 155/13/92 157/13/93
f 156/13/92 157/13/93 158/13/93
f 158/13/93 157/13/93 159/13/94
f 158/13/93 159/13/94 160/13/94
f 160/13/94 159/13/94 151/13/90
f 160/13/94 151/13/90 150/13/89
f 161/13/95 162/13/95 163/16/96
f 161/13/95 163/16/96 164/13/96
f 164/13/96 163/16/96 165/16/97
f 164/13/96 165/16/97 166/13/98
f 166/13/98 165/16/97 167/16/99
f 166/13/98 167/16/99 168/13/100
f 168/13/100 167/16/99 149/13/88
f 168/13/100 149/13/88 152/13/88
f 169/13/101 170/13/102 171/13/103
f 169/13/101 171/13/103 172/13/104
s 0
f 173/14/105 174/15/105 175/15/105
f 173/14/105 175/15/105 176/14/105
s 1
f 177/13/106 178/13/107 179/13/108
f 177/13/106 179/13/108 180/13/106
f 181/13/109 169/13/101 172/13/104
f 181/13/109 172/13/104 182/13/109
f 183/14/34 184/15/34 185/15/110
f 183/14/34 185/15/110 186/14/111
f 178/13/107 187/13/112 188/13/112
f 178/13/107 188/13/112 179/13/108
f 186/14/111 185/15/110 189/15/113
f 186/14/111 189/15/113 190/14/114
f 191/13/115 192/13/116 193/13/116
f 191/13/115 193/13/116 194/13/115
f 195/13/117 196/13/117 197/13/118
f 195/13/117 197/13/118 198/13/119
f 198/13/119 197/13/118 199/13/120
f 198/13/119 199/13/120 200/13/120
f 200/13/120 199/13/120 201/13/121
f 200/13/120 201/13/121 202/13/121
f 202/13/121 201/13/121 193/13/116
f 202/13/121 193/13/116 192/13/116
f 203/13/122 204/13/122 205/16/123
f 203/13/122 205/16/123 206/13/124
f 206/13/124 205/16/123 207/16/125
f 206/13/124 207/16/125 208/13/125
f 208/13/125 207/16/125 209/16/126
f 208/13/125 209/16/126 210/13/126
f 210/13/126 209/16/126 191/13/115
f 210/13/126 191/13/115 194/13/115
f 211/13/127 212/13/128 213/13/128
f 211/13/127 213/13/128 214/13/129
s 0
f 215/14/130 216/15/130 217/15/130
f 215/14/130 217/15/130 218/14/130
s 1
f 219/13/131 220/13/132 221/13/133
f 219/13/131 221/13/133 222/13/131
f 223/13/134 211/13/127 214/13/129
f 223/13/134 214/13/129 224/13/135
f 225/14/34 226/15/34 227/15/136
f 225/14/34 227/15/136 228/14/137
f 220/13/132 229/13/138 230/13/138
f 220/13/132 230/13/138 221/13/133
f 228/14/137 227/15/136 231/15/139
f 228/14/137 231/15/139 232/14/140
f 233/13/141 234/13/142 235/13/142
f 233/13/141 235/13/142 236/13/143
f 237/13/144 238/13/144 239/13/145
f 237/13/144 239/13/145 240/13/145
f 240/13/145 239/13/145 241/13/146
f 240/13/145 241/13/146 242/13/146
f 242/13/146 241/13/146 243/13/147
f 242/13/146 243/13/147 244/13/147
f 244/13/147 243/13/147 235/13/142
f 244/13/147 235/13/142 234/13/142
f 245/13/148 246/13/148 247/16/149
f 245/13/148 247/16/149 248/13/149
f 248/13/149 247/16/149 249/16/150
f 248/13/149 249/16/150 250/13/150
f 250/13/150 249/16/150 251/16/151
f 250/13/150 251/16/151 252/13/151
f 252/13/151 251/16/151 233/13/141
f 252/13/151 233/13/141 236/13/143
f 253/13/152 254/13/153 255/13/153
f 253/13/152 255/13/153 256/13/154
s 0
f 257/14/155 258/15/155 259/15/155
f 257/14/155 259/15/155 260/14/155
s 1
f 261/13/156 262/17/157 263/13/158
f 261/13/156 263/13/158 264/13/159
f 265/13/160 253/13/152 256/13/154
f 265/13/160 256/13/154 266/13/160
f 267/14/161 268/15/161 269/15/162
f 267/14/161 269/15/162 270/14/163
f 262/17/157 271/13/164 272/13/164
f 262/17/157 272/13/164 263/13/158
f 270/14/163 269/15/162 273/15/165
f 270/14/163 273/15/165 274/14/166
f 275/13/167 276/13/168 277/13/168
f 275/13/167 277/13/168 278/13/167
f 279/13/169 280/13/169 281/13/170
f 279/13/169 281/13/170 282/13/170
f 282/13/170 281/13/170 283/13/171
f 282/13/170 283/13/171 284/13/171
f 284/13/171 283/13/171 285/13/172
f 284/13/171 285/13/172 286/13/172
f 286/13/172 285/13/172 277/13/168
f 286/13/172 277/13/168 276/13/168
f 287/13/173 288/13/173 289/16/174
f 287/13/173 289/16/174 290/13/174
f 290/13/174 289/16/174 291/16/175
f 290/13/174 291/16/175 292/13/175
f 292/13/175 291/16/175 293/16/176
f 292/13/175 293/16/176 294/13/176
f 294/13/176 293/16/176 275/13/167
f 294/13/176 275/13/167 278/13/167
f 295/13/177 296/13/178 297/13/179
f 295/13/177 297/13/179 298/13/180
s 0
f 299/14/1 300/15/1 301/15/1
f 299/14/1 301/15/1 302/14/1
s 1
f 303/13/181 304/18/182 305/13/183
f 303/13/181 305/13/183 306/13/181
f 307/13/184 295/13/177 298/13/180
f 307/13/184 298/13/180 308/13/184
f 309/14/185 310/15/185 311/15/186
f 309/14/185 311/15/186 312/14/187
f 304/18/182 313/13/188 314/13/188
f 304/18/182 314/13/188 305/13/183
f 312/14/187 311/15/186 315/15/189
f 312/14/187 315/15/189 316/14/190
f 317/13/191 318/13/192 319/13/192
f 317/13/191 319/13/192 320/13/191
f 321/13/193 322/13/193 323/13/194
f 321/13/193 323/13/194 324/13/194
f 324/13/194 323/13/194 325/13/195
f 324/13/194 325/13/195 326/13/195
f 326/13/195 325/13/195 327/13/196
f 326/13/195 327/13/196 328/13/197
f 328/13/197 327/13/196 319/13/192
f 328/13/197 319/13/192 318/13/192
f 329/13/198 330/13/198 331/16/199
f 329/13/198 331/16/199 332/13/199
f 332/13/199 331/16/199 333/16/200
f 332/13/199 333/16/200 334/13/200
f 334/13/200 333/16/200 335/16/201
f 334/13/200 335/16/201 336/13/201
f 336/13/201 335/16/201 317/13/191
f 336/13/201 317/13/191 320/13/191
s 0
f 337/13/202 338/13/202 339/13/202
f 337/13/202 339/13/202 340/13/202
f 341/14/203 342/15/203 343/15/203
f 341/14/203 343/15/203 344/14/203
f 345/13/204 346/13/204 347/13/204
f 345/13/204 347/13/204 348/13/204
f 349/14/34 350/15/34 351/15/34
f 349/14/34 351/15/34 352/14/34
s 1
f 353/6/205 30/5/17 29/5/16
f 353/6/205 29/5/16 354/6/206
f 354/6/206 29/5/16 355/5/207
f 354/6/206 355/5/207 356/6/208
f 356/6/208 355/5/207 357/5/209
f 356/6/208 357/5/209 358/6/210
f 358/6/210 357/5/209 359/5/211
f 358/6/210 359/5/211 360/6/212
f 360/6/212 359/5/211 361/5/213
f 360/6/212 361/5/213 362/6/214
f 362/6/214 361/5/213 363/5/215
f 362/6/214 363/5/215 364/6/216
f 364/6/216 363/5/215 365/5/217
f 364/6/216 365/5/217 366/6/218
f 366/6/218 365/5/217 38/5/23
f 366/6/218 38/5/23 37/6/22
f 367/12/219 368/12/220 13/8/3
f 367/12/219 13/8/3 16/8/6
f 368/12/220 369/12/221 370/8/222
f 368/12/220 370/8/222 13/8/3
f 369/12/221 371/12/223 372/8/223
f 369/12/221 372/8/223 370/8/222
f 371/12/223 373/12/224 374/8/224
f 371/12/223 374/8/224 372/8/223
f 373/12/224 375/12/225 376/8/225
f 373/12/224 376/8/225 374/8/224
f 375/12/225 377/12/226 378/8/226
f 375/12/225 378/8/226 376/8/225
f 377/12/226 379/12/227 380/8/227
f 377/12/226 380/8/227 378/8/226
f 379/12/227 33/12/19 36/8/21
f 379/12/227 36/8/21 380/8/227
f 39/5/24 38/5/23 381/11/228
f 39/5/24 381/11/228 382/11/229
f 38/5/23 365/5/217 383/11/230
f 38/5/23 383/11/230 381/11/228
f 365/5/217 363/5/215 384/11/231
f 365/5/217 384/11/231 383/11/230
f 363/5/215 361/5/213 385/11/232
f 363/5/215 385/11/232 384/11/231
f 361/5/213 359/5/211 386/11/233
f 361/5/213 386/11/233 385/11/232
f 359/5/211 357/5/209 387/11/234
f 359/5/211 387/11/234 386/11/233
f 357/5/209 355/5/207 388/11/235
f 357/5/209 388/11/235 387/11/234
f 355/5/207 29/5/16 32/11/19
f 355/5/207 32/11/19 388/11/235
f 389/10/236 390/10/237 391/1/238
f 389/10/236 391/1/238 392/1/239
f 390/10/237 393/10/240 394/1/241
f 390/10/237 394/1/241 391/1/238
f 393/10/240 395/10/242 396/1/243
f 393/10/240 396/1/243 394/1/241
f 395/10/242 397/10/244 398/1/245
f 395/10/242 398/1/245 396/1/243
f 397/10/244 399/10/246 400/1/247
f 397/10/244 400/1/247 398/1/245
f 399/10/246 401/10/248 402/1/249
f 399/10/246 402/1/249 400/1/247
f 401/10/248 403/10/250 404/1/251
f 401/10/248 404/1/251 402/1/249
f 403/10/250 25/10/12 28/1/15
f 403/10/250 28/1/15 404/1/251
f 15/9/5 14/9/4 405/10/252
f 15/9/5 405/10/252 406/10/253
f 14/9/4 407/9/254 408/10/255
f 14/9/4 408/10/255 405/10/252
f 407/9/254 409/9/256 410/10/257
f 407/9/254 410/10/257 408/10/255
f 409/9/256 411/9/258 412/10/259
f 409/9/256 412/10/259 410/10/257
f 411/9/258 413/9/260 414/10/261
f 411/9/258 414/10/261 412/10/259
f 413/9/260 415/9/262 416/10/263
f 413/9/260 416/10/263 414/10/261
f 415/9/262 417/9/264 418/10/265
f 415/9/262 418/10/265 416/10/263
f 417/9/264 21/9/8 24/10/11
f 417/9/264 24/10/11 418/10/265
f 419/3/266 420/3/267 421/3/268
f 419/3/266 421/3/268 422/3/269
f 423/3/7 419/3/266 422/3/269
f 423/3/7 422/3/269 424/3/7
s 0
f 425/3/7 423/3/7 424/3/7
f 425/3/7 424/3/7 426/3/7
f 427/3/7 425/3/7 426/3/7
f 427/3/7 426/3/7 428/3/7
f 429/3/7 427/3/7 428/3/7
f 429/3/7 428/3/7 430/3/7
f 431/3/7 429/3/7 430/3/7
f 431/3/7 430/3/7 432/3/7
f 433/6/7 434/19/7 435/19/7
f 433/6/7 435/19/7 436/6/7
f 437/6/7 438/19/7 439/19/7
f 437/6/7 439/19/7 440/6/7
s 1
f 441/20/270 442/20/271 443/20/271
f 441/20/270 443/20/271 444/20/270
f 445/20/214 446/20/212 447/20/212
f 445/20/214 447/20/212 448/20/214
f 449/20/272 450/20/273 451/20/273
f 449/20/272 451/20/273 452/20/272
f 453/20/210 454/20/208 455/20/208
f 453/20/210 455/20/208 456/20/210
f 446/20/212 453/20/210 456/20/210
f 446/20/212 456/20/210 447/20/212
f 457/8/34 22/9/9 21/9/8
f 457/8/34 21/9/8 458/8/34
f 458/8/34 21/9/8 417/9/264
f 458/8/34 417/9/264 459/8/34
f 459/8/34 417/9/264 415/9/262
f 459/8/34 415/9/262 460/8/34
f 460/8/34 415/9/262 413/9/260
f 460/8/34 413/9/260 461/8/34
f 461/8/34 413/9/260 411/9/258
f 461/8/34 411/9/258 462/8/34
f 462/8/34 411/9/258 409/9/256
f 462/8/34 409/9/256 463/8/34
f 463/8/34 409/9/256 407/9/254
f 463/8/34 407/9/254 464/8/34
f 464/8/34 407/9/254 14/9/4
f 464/8/34 14/9/4 13/8/3
f 394/1/241 465/3/274 466/3/275
f 394/1/241 466/3/275 391/1/238
f 396/1/243 467/3/276 465/3/274
f 396/1/243 465/3/274 394/1/241
f 398/1/245 468/3/277 467/3/276
f 398/1/245 467/3/276 396/1/243
f 400/1/247 469/3/278 468/3/277
f 400/1/247 468/3/277 398/1/245
f 402/1/249 470/3/279 469/3/278
f 402/1/249 469/3/278 400/1/247
f 404/1/251 471/3/280 470/3/279
f 404/1/251 470/3/279 402/1/249
f 28/1/15 472/3/281 471/3/280
f 28/1/15 471/3/280 404/1/251
f 27/1/14 473/3/282 472/3/281
f 27/1/14 472/3/281 28/1/15
f 391/1/238 466/3/275 474/3/283
f 391/1/238 474/3/283 392/1/239
f 475/20/284 476/20/216 477/20/216
f 475/20/284 477/20/216 478/20/284
f 476/20/216 445/20/214 448/20/214
f 476/20/216 448/20/214 477/20/216
f 454/20/208 441/20/270 444/20/270
f 454/20/208 444/20/270 455/20/208
f 450/20/273 475/20/284 478/20/284
f 450/20/273 478/20/284 451/20/273
s 0
f 438/19/7 437/6/7 479/6/7
f 438/19/7 479/6/7 480/19/7
f 433/6/7 440/6/7 439/19/7
f 433/6/7 439/19/7 434/19/7
f 481/6/7 436/6/7 435/19/7
f 481/6/7 435/19/7 482/19/7
f 483/6/7 481/6/7 482/19/7
f 483/6/7 482/19/7 484/19/7
s 1
f 485/21/285 486/22/286 487/22/287
f 485/21/285 487/22/287 488/21/288
f 489/21/289 490/22/289 491/22/290
f 489/21/289 491/22/290 492/21/291
f 492/21/291 491/22/290 493/22/280
f 492/21/291 493/22/280 494/21/280
f 494/21/280 493/22/280 495/22/279
f 494/21/280 495/22/279 496/21/279
f 496/21/279 495/22/279 497/22/278
f 496/21/279 497/22/278 498/21/278
f 498/21/278 497/22/278 499/22/277
f 498/21/278 499/22/277 500/21/277
f 500/21/277 499/22/277 501/22/276
f 500/21/277 501/22/276 502/21/276
f 502/21/276 501/22/276 503/22/274
f 502/21/276 503/22/274 504/21/274
f 504/21/274 503/22/274 486/22/286
f 504/21/274 486/22/286 485/21/285
s 0
f 505/3/7 17/3/7 20/3/7
f 505/3/7 20/3/7 506/3/7
f 18/3/7 431/3/7 432/3/7
f 18/3/7 432/3/7 19/3/7
f 483/6/7 484/19/7 507/19/7
f 483/6/7 507/19/7 508/6/7
s 1
f 507/19/7 509/19/292 510/6/293
f 507/19/7 510/6/293 508/6/7
s 0
f 5/5/1 4/4/1 2/2/1
f 5/5/1 2/2/1 1/1/1
f 511/22/7 512/20/7 513/20/7
f 511/22/7 513/20/7 514/22/7
f 515/22/7 516/20/7 512/20/7
f 515/22/7 512/20/7 511/22/7
f 517/22/7 518/20/7 516/20/7
f 517/22/7 516/20/7 515/22/7
f 519/22/7 520/20/7 518/20/7
f 519/22/7 518/20/7 517/22/7
f 521/22/7 522/20/7 520/20/7
f 521/22/7 520/20/7 519/22/7
f 523/22/7 524/20/7 522/20/7
f 523/22/7 522/20/7 521/22/7
f 525/22/7 526/20/7 524/20/7
f 525/22/7 524/20/7 523/22/7
f 527/22/7 528/20/7 526/20/7
f 527/22/7 526/20/7 525/22/7
f 529/23/7 530/20/7 528/20/7
f 529/23/7 528/20/7 527/22/7
f 531/21/1 532/20/1 533/20/1
f 531/21/1 533/20/1 534/23/1
s 1
f 509/19/292 535/19/294 536/6/294
f 509/19/292 536/6/294 510/6/293
s 0
f 537/10/1 538/11/1 5/5/1
f 537/10/1 5/5/1 1/1/1
f 539/9/295 540/8/295 541/12/295
f 539/9/1 541/12/1 537/10/1
f 542/24/2 543/25/2 544/22/2
f 542/24/2 544/22/2 545/20/2
f 9/1/2 8/2/2 11/7/2
f 9/1/2 11/7/2 10/5/2
f 9/1/2 10/5/2 546/11/2
f 9/1/2 546/11/2 547/10/2
f 547/10/296 546/11/296 548/8/296
f 547/10/2 548/8/2 549/9/2
f 550/15/2 551/13/2 552/13/2
f 550/15/2 552/13/2 553/14/2
f 554/15/7 555/14/7 556/13/7
f 554/15/7 556/13/7 557/13/7
s 1
f 558/15/34 559/14/297 560/15/298
f 559/14/297 558/15/34 561/26/34
f 559/14/297 561/26/34 562/27/34
f 559/14/297 562/27/34 563/28/34
s 0
f 563/28/34 562/27/34 564/29/34
f 563/28/34 564/29/34 565/30/34
f 565/30/34 564/29/34 566/31/34
f 565/30/34 566/31/34 567/32/34
s 1
f 568/13/299 569/13/299 570/15/299
f 569/13/299 568/13/299 571/13/299
f 571/13/299 568/13/299 572/13/299
f 571/13/299 572/13/299 573/13/299
f 571/13/299 573/13/299 574/16/299
f 574/16/299 573/13/299 575/16/299
f 575/16/299 573/13/299 576/16/299
f 576/16/299 573/13/299 577/13/299
f 576/16/299 577/13/299 578/13/299
f 578/13/299 577/13/299 579/13/299
f 578/13/299 579/13/299 580/13/299
f 580/13/299 579/13/299 581/13/299
f 582/15/34 583/14/300 584/15/301
f 583/14/300 582/15/34 585/26/34
f 583/14/300 585/26/34 586/27/34
f 583/14/300 586/27/34 587/29/34
f 583/14/300 587/29/34 588/31/34
f 583/14/300 588/31/34 589/28/34
s 0
f 589/28/34 588/31/34 590/30/34
f 590/30/34 588/31/34 591/32/34
s 1
f 592/13/302 593/13/302 594/15/302
f 593/13/302 592/13/302 595/13/303
f 595/13/303 592/13/302 596/16/303
f 596/16/303 592/13/302 597/16/303
f 597/16/303 592/13/302 598/16/302
f 598/16/302 592/13/302 599/13/302
f 599/13/302 592/13/302 600/13/302
f 600/13/302 592/13/302 601/13/303
f 600/13/302 601/13/303 602/13/304
f 600/13/302 602/13/304 603/13/302
f 600/13/302 603/13/302 604/13/302
f 600/13/302 604/13/302 605/13/302
f 606/15/34 607/14/305 608/15/306
f 607/14/305 606/15/34 609/26/34
f 607/14/305 609/26/34 610/27/34
f 607/14/305 610/27/34 611/29/34
f 607/14/305 611/29/34 612/31/34
f 607/14/305 612/31/34 613/28/34
s 0
f 613/28/34 612/31/34 614/32/34
f 613/28/34 614/32/34 615/30/34
s 1
f 616/13/307 617/13/307 618/15/307
f 617/13/307 616/13/307 619/13/307
f 619/13/307 616/13/307 620/16/307
f 620/16/307 616/13/307 621/16/307
f 621/16/307 616/13/307 622/16/307
f 622/16/307 616/13/307 623/13/307
f 623/13/307 616/13/307 624/13/307
f 624/13/307 616/13/307 625/13/307
f 624/13/307 625/13/307 626/13/307
f 624/13/307 626/13/307 627/13/307
f 624/13/307 627/13/307 628/13/307
f 628/13/307 627/13/307 629/13/307
f 630/15/34 631/14/308 632/15/309
f 631/14/308 630/15/34 633/26/34
f 631/14/308 633/26/34 634/27/34
f 631/14/308 634/27/34 635/29/34
f 631/14/308 635/29/34 636/31/34
f 631/14/308 636/31/34 637/32/34
f 631/14/308 637/32/34 638/28/34
s 0
f 638/28/34 637/32/34 639/30/34
s 1
f 640/13/310 641/13/310 642/15/310
f 641/13/310 640/13/310 643/13/310
f 643/13/310 640/13/310 644/16/310
f 644/16/310 640/13/310 645/16/311
f 645/16/311 640/13/310 646/16/310
f 646/16/310 640/13/310 647/13/310
f 647/13/310 640/13/310 648/13/310
f 648/13/310 640/13/310 649/13/310
f 648/13/310 649/13/310 650/13/310
f 648/13/310 650/13/310 651/13/310
f 651/13/310 650/13/310 652/13/310
f 651/13/310 652/13/310 653/13/310
f 654/15/34 655/14/312 656/15/313
f 655/14/312 654/15/34 657/26/34
f 655/14/312 657/26/34 658/27/34
f 655/14/312 658/27/34 659/29/34
f 655/14/312 659/29/34 660/31/34
f 655/14/312 660/31/34 661/32/34
f 655/14/312 661/32/34 662/30/34
f 655/14/312 662/30/34 663/28/34
f 664/13/314 665/13/314 666/15/314
f 665/13/314 664/13/314 667/13/314
f 667/13/314 664/13/314 668/16/314
f 668/16/314 664/13/314 669/16/314
f 669/16/314 664/13/314 670/16/314
f 670/16/314 664/13/314 671/13/314
f 671/13/314 664/13/314 672/13/314
f 672/13/314 664/13/314 673/13/314
f 672/13/314 673/13/314 674/13/314
f 672/13/314 674/13/314 675/13/314
f 675/13/314 674/13/314 676/13/314
f 676/13/314 674/13/314 677/13/314
f 678/15/34 679/14/315 680/15/316
f 679/14/315 678/15/34 681/26/34
f 679/14/315 681/26/34 682/27/34
f 679/14/315 682/27/34 683/29/34
f 679/14/315 683/29/34 684/31/34
f 679/14/315 684/31/34 685/32/34
f 679/14/315 685/32/34 686/30/34
f 679/14/315 686/30/34 687/28/34
f 688/13/317 689/17/317 690/15/317
f 689/17/317 688/13/317 691/13/317
f 691/13/317 688/13/317 692/16/317
f 692/16/317 688/13/317 693/16/317
f 693/16/317 688/13/317 694/16/317
f 694/16/317 688/13/317 695/13/317
f 695/13/317 688/13/317 696/13/317
f 696/13/317 688/13/317 697/13/317
f 696/13/317 697/13/317 698/13/317
f 696/13/317 698/13/317 699/13/317
f 699/13/317 698/13/317 700/13/317
f 700/13/317 698/13/317 701/13/317
f 702/15/34 703/14/318 704/15/319
f 703/14/318 702/15/34 705/26/34
f 703/14/318 705/26/34 706/27/34
f 703/14/318 706/27/34 707/29/34
f 703/14/318 707/29/34 708/31/34
f 703/14/318 708/31/34 709/32/34
f 703/14/318 709/32/34 710/30/34
f 703/14/318 710/30/34 711/28/34
f 712/13/320 713/18/320 714/15/320
f 713/18/320 712/13/320 715/13/320
f 715/13/320 712/13/320 716/16/320
f 716/16/320 712/13/320 717/16/320
f 717/16/320 712/13/320 718/16/320
f 718/16/320 712/13/320 719/13/320
f 719/13/320 712/13/320 720/13/320
f 720/13/320 712/13/320 721/13/320
f 721/13/320 712/13/320 722/13/320
f 722/13/320 712/13/320 723/13/320
f 722/13/320 723/13/320 724/13/320
f 722/13/320 724/13/320 725/13/320
