# Blender 5.2.0 LTS
# www.blender.org
mtllib 12_5_BaggageClaimBand_AIRPORT_0.mtl
o 12.5.BaggageClaimBand_AIRPORT_0
v 1.316346 0.381415 -1.312500
v 1.246346 -0.041014 -1.312499
v 1.316346 -0.041014 -1.312499
v -0.363655 -0.041014 -1.312498
v -0.433655 0.376557 -1.312499
v -0.433655 -0.041014 -1.312498
v -1.308654 -0.038584 1.312500
v -1.308654 -0.038584 1.247758
v -1.308654 0.381416 1.312500
v -1.308655 0.381415 -0.437500
v -1.308655 -0.038585 -0.366051
v -1.308655 -0.038585 -0.437499
v -1.158892 0.416415 -0.420007
v -0.846432 0.416416 1.239376
v -1.308654 0.416416 1.277500
v -1.308655 0.416415 -0.402499
v -0.841375 -0.038584 1.267269
v -0.401620 -0.038584 1.147164
v -0.466781 -0.038584 1.082421
v -0.906536 -0.038584 1.202526
v 1.241798 0.416415 -0.869064
v 1.281346 0.416415 -1.312500
v 1.306095 0.406164 -1.312500
v 1.261555 0.406164 -0.865679
v 1.261555 0.406164 -0.865679
v 1.306095 0.406164 -1.312500
v 1.316346 0.381415 -1.312500
v 1.269739 0.381415 -0.864276
v -0.446314 0.381415 -1.157800
v -0.433655 0.376557 -1.312499
v -0.423404 0.401306 -1.312498
v -0.440251 0.406164 -1.156761
v -0.440251 0.406164 -1.156761
v -0.423404 0.401306 -1.312498
v -0.412575 0.416415 -1.312500
v -0.425615 0.416415 -1.154253
v -1.162638 -0.038585 -0.440670
v -1.162638 0.381415 -0.440670
v -1.308655 0.381415 -0.437500
v -1.308655 -0.038585 -0.437499
v -1.128719 0.416415 -0.445184
v -1.012051 0.416415 -0.475804
v -1.012051 0.436925 -0.475804
v -1.123196 0.436925 -0.442622
v -1.012051 0.416415 -0.475804
v -0.604353 0.416416 1.212806
v -0.604353 0.436926 1.212806
v -1.012051 0.436925 -0.475804
v -0.604353 0.416416 1.212806
v -0.835912 0.416416 1.266272
v -0.725133 0.436926 1.243459
v -0.604353 0.436926 1.212806
v -1.275396 0.438074 -0.421479
v -1.275396 0.458584 -0.421479
v -1.012051 0.436925 -0.475804
v -0.604353 0.436926 1.212806
v -0.725133 0.436926 1.243459
v -1.123196 0.436925 -0.442622
v -1.173687 0.438075 1.305771
v -1.173687 0.458585 1.305771
v -1.173687 0.458585 1.305771
v -1.275396 0.458584 -0.421479
v -1.295732 0.438075 1.220446
v -1.316346 0.438074 -0.354580
v -1.316346 0.458584 -0.354580
v -1.295732 0.458585 1.220446
v -1.275396 0.438074 -0.421479
v -1.275396 0.458584 -0.421479
v -1.291213 0.458584 -0.415800
v -1.291213 0.438074 -0.415800
v -1.304590 0.458584 -0.401202
v -1.304590 0.438074 -0.401202
v -1.313681 0.458584 -0.379755
v -1.313681 0.438074 -0.379755
v -1.173687 0.458585 1.305771
v -1.173687 0.438075 1.305771
v -1.221017 0.438075 1.301014
v -1.221017 0.458585 1.301014
v -1.261220 0.438075 1.282804
v -1.261220 0.458585 1.282804
v -1.287884 0.438075 1.254357
v -1.287884 0.458585 1.254357
v -1.287884 0.458585 1.254357
v -1.287884 0.438075 1.254357
v -0.946609 0.416415 -0.505629
v -0.839590 0.416415 -0.562205
v -0.839590 0.436925 -0.562205
v -0.940939 0.436925 -0.505789
v -0.839590 0.416415 -0.562205
v -0.076692 0.416416 1.001267
v -0.076692 0.436926 1.001267
v -0.839590 0.436925 -0.562205
v -0.076692 0.416416 1.001267
v -0.291225 0.416416 1.103508
v -0.187994 0.436926 1.057296
v -0.076692 0.436926 1.001267
v -1.084974 0.438074 -0.452257
v -1.084974 0.458584 -0.452257
v -0.839590 0.436925 -0.562205
v -0.076692 0.436926 1.001267
v -0.187994 0.436926 1.057296
v -0.940939 0.436925 -0.505789
v -0.612486 0.438075 1.215062
v -0.612486 0.458585 1.215062
v -0.612486 0.458585 1.215062
v -1.084974 0.458584 -0.452257
v -0.751526 0.438075 1.158452
v -1.111043 0.438074 -0.377967
v -1.111043 0.458584 -0.377967
v -0.751526 0.458585 1.158452
v -1.084974 0.438074 -0.452257
v -1.084974 0.458584 -0.452257
v -1.099190 0.458584 -0.443295
v -1.099190 0.438074 -0.443295
v -1.109097 0.458584 -0.426151
v -1.109097 0.438074 -0.426151
v -1.113338 0.458584 -0.403246
v -1.113338 0.438074 -0.403246
v -0.612486 0.458585 1.215062
v -0.612486 0.438075 1.215062
v -0.659725 0.438075 1.220646
v -0.659725 0.458585 1.220646
v -0.702913 0.438075 1.211553
v -0.702913 0.458585 1.211553
v -0.735094 0.438075 1.189540
v -0.735094 0.458585 1.189540
v -0.783981 0.416415 -0.603901
v -0.689874 0.416415 -0.683831
v -0.689874 0.436925 -0.683831
v -0.776637 0.436925 -0.606848
v -0.689874 0.416415 -0.683831
v 0.392792 0.416416 0.680706
v 0.392792 0.436926 0.680706
v -0.689874 0.436925 -0.683831
v 0.392792 0.416416 0.680706
v 0.205420 0.416416 0.826889
v 0.296227 0.436926 0.759461
v 0.392792 0.436926 0.680706
v -0.905701 0.438074 -0.523456
v -0.905701 0.458584 -0.523456
v -0.689874 0.436925 -0.683831
v 0.392792 0.436926 0.680706
v 0.296227 0.436926 0.759461
v -0.776637 0.436925 -0.606848
v -0.084144 0.438075 1.005228
v -0.084144 0.458585 1.005228
v -0.084144 0.458585 1.005228
v -0.905701 0.458584 -0.523456
v -0.232132 0.438075 0.980000
v -0.915102 0.438074 -0.445288
v -0.915102 0.458584 -0.445288
v -0.232132 0.458585 0.980000
v -0.905701 0.438074 -0.523456
v -0.905701 0.458584 -0.523456
v -0.917645 0.458584 -0.511634
v -0.917645 0.438074 -0.511634
v -0.923613 0.458584 -0.492754
v -0.923613 0.438074 -0.492754
v -0.922805 0.458584 -0.469474
v -0.922805 0.438074 -0.469474
v -0.084144 0.458585 1.005228
v -0.084144 0.438075 1.005228
v -0.129061 0.438075 1.020888
v -0.129061 0.458585 1.020888
v -0.173193 0.438075 1.021342
v -0.173193 0.458585 1.021342
v -0.209371 0.438075 1.006803
v -0.209371 0.458585 1.006803
v -0.647190 0.416415 -0.733128
v -0.569977 0.416415 -0.834935
v -0.569977 0.436925 -0.834935
v -0.638055 0.436925 -0.741022
v -0.569977 0.416415 -0.834935
v 0.781914 0.416415 0.266268
v 0.781914 0.436926 0.266268
v -0.569977 0.436925 -0.834935
v 0.781914 0.416415 0.266268
v 0.630558 0.416416 0.449486
v 0.704648 0.436926 0.364029
v 0.781914 0.436926 0.266268
v -0.746050 0.438074 -0.631712
v -0.746050 0.458584 -0.631712
v -0.569977 0.436925 -0.834935
v 0.781914 0.436926 0.266268
v 0.704648 0.436926 0.364029
v -0.638055 0.436925 -0.741022
v 0.386372 0.438074 0.686183
v 0.386372 0.458585 0.686183
v 0.386372 0.458585 0.686183
v -0.746050 0.458584 -0.631712
v 0.236429 0.438074 0.693530
v -0.738337 0.438074 -0.553359
v -0.738337 0.458584 -0.553359
v 0.236429 0.458585 0.693530
v -0.746050 0.438074 -0.631712
v -0.746050 0.458584 -0.631712
v -0.755156 0.458584 -0.617588
v -0.755156 0.438074 -0.617588
v -0.756904 0.458584 -0.597864
v -0.756904 0.438074 -0.597864
v -0.751085 0.458584 -0.575309
v -0.751085 0.438074 -0.575309
v 0.386372 0.458585 0.686183
v 0.386372 0.438074 0.686183
v 0.345900 0.438074 0.711179
v 0.345900 0.458585 0.711179
v 0.302909 0.438074 0.721159
v 0.302909 0.458585 0.721159
v 0.264445 0.438074 0.714781
v 0.264445 0.458585 0.714781
v -0.541286 0.416415 -0.887221
v -0.485564 0.416415 -1.008378
v -0.485564 0.436925 -1.008378
v -0.531741 0.436925 -0.901973
v -0.485564 0.416415 -1.008378
v 1.072288 0.416415 -0.222464
v 1.072288 0.436925 -0.222464
v -0.485564 0.436925 -1.008378
v 1.072288 0.416415 -0.222464
v 0.964099 0.416415 -0.010868
v 1.017973 0.436926 -0.110315
v 1.072288 0.436925 -0.222464
v -0.613563 0.438074 -0.771908
v -0.613563 0.458584 -0.771908
v -0.485564 0.436925 -1.008378
v 1.072288 0.436925 -0.222464
v 1.017973 0.436926 -0.110315
v -0.531741 0.436925 -0.901973
v 0.776830 0.438074 0.273003
v 0.776830 0.458584 0.273003
v 0.776830 0.458584 0.273003
v -0.613563 0.458584 -0.771908
v 0.632016 0.438074 0.312577
v -0.589101 0.438074 -0.697073
v -0.589101 0.458584 -0.697073
v 0.632016 0.458584 0.312577
v -0.613563 0.438074 -0.771908
v -0.613563 0.458584 -0.771908
v -0.619403 0.458584 -0.756150
v -0.619403 0.438074 -0.756150
v -0.616847 0.458584 -0.736515
v -0.616847 0.438074 -0.736515
v -0.606291 0.458584 -0.715750
v -0.606291 0.438074 -0.715750
v 0.776830 0.458584 0.273003
v 0.776830 0.438074 0.273003
v 0.742715 0.438074 0.306154
v 0.742715 0.458584 0.306154
v 0.702897 0.438074 0.325188
v 0.702897 0.458584 0.325188
v 0.663962 0.438074 0.327272
v 0.663962 0.458584 0.327272
v -0.469001 0.416415 -1.064932
v -0.440625 0.416415 -1.195964
v -0.440625 0.436925 -1.195964
v -0.462718 0.436925 -1.082094
v -0.440625 0.416415 -1.195964
v 1.250192 0.416415 -0.762394
v 1.250192 0.436925 -0.762394
v -0.440625 0.436925 -1.195964
v 1.250192 0.416415 -0.762394
v 1.203408 0.416415 -0.582805
v 1.204445 0.439331 -0.593809
v 1.250192 0.436925 -0.762394
v -0.514502 0.438074 -0.937422
v -0.514502 0.458584 -0.937422
v -0.440625 0.436925 -1.195964
v 1.250192 0.436925 -0.762394
v 1.204445 0.439331 -0.593809
v -0.462718 0.436925 -1.082094
v 1.068779 0.438074 -0.214788
v 1.068779 0.458584 -0.214788
v 1.068779 0.458584 -0.214788
v -0.514502 0.458584 -0.937422
v 0.935939 0.438074 -0.144857
v -0.474447 0.438074 -0.869641
v -0.474447 0.458584 -0.869641
v 0.935939 0.458584 -0.144857
v -0.514502 0.438074 -0.937422
v -0.514502 0.458584 -0.937422
v -0.516798 0.458584 -0.920774
v -0.516798 0.438074 -0.920774
v -0.510060 0.458584 -0.902155
v -0.510060 0.438074 -0.902155
v -0.495266 0.458584 -0.884161
v -0.495266 0.438074 -0.884161
v 1.068779 0.458584 -0.214788
v 1.068779 0.438074 -0.214788
v 1.042634 0.438074 -0.175049
v 1.042634 0.458584 -0.175049
v 1.007869 0.438074 -0.147861
v 1.007869 0.458584 -0.147861
v 0.970305 0.438074 -0.137412
v 0.970305 0.458584 -0.137412
v -0.435216 0.418297 -1.269964
v -0.433575 0.416415 -1.312500
v -0.433575 0.436925 -1.312500
v -0.434248 0.439883 -1.272875
v -0.433575 0.416415 -1.312500
v 1.316346 0.416415 -1.312500
v 1.316346 0.436925 -1.312500
v -0.433575 0.436925 -1.312500
v 1.316346 0.416415 -1.312500
v 1.300904 0.416415 -1.121285
v 1.295288 0.440738 -1.124335
v 1.316346 0.436925 -1.312500
v -0.453546 0.438074 -1.120431
v -0.453546 0.458584 -1.120431
v -0.433575 0.436925 -1.312500
v 1.316346 0.436925 -1.312500
v 1.295288 0.440738 -1.124335
v -0.434248 0.439883 -1.272875
v 1.248424 0.438074 -0.754142
v 1.248424 0.458584 -0.754142
v 1.248424 0.458584 -0.754142
v -0.453546 0.458584 -1.120431
v 1.133834 0.438074 -0.657158
v -0.399791 0.438074 -1.062907
v -0.399791 0.458584 -1.062907
v 1.133834 0.458584 -0.657158
v -0.453546 0.438074 -1.120431
v -0.453546 0.458584 -1.120431
v -0.452191 0.458584 -1.103680
v -0.452191 0.438074 -1.103680
v -0.441588 0.458584 -1.086957
v -0.441588 0.438074 -1.086957
v -0.423256 0.458584 -1.072585
v -0.423256 0.438074 -1.072585
v 1.248424 0.458584 -0.754142
v 1.248424 0.438074 -0.754142
v 1.231484 0.438074 -0.709692
v 1.231484 0.458584 -0.709692
v 1.203416 0.438074 -0.675634
v 1.203416 0.458584 -0.675634
v 1.168997 0.438074 -0.657315
v 1.168997 0.458584 -0.657315
v -1.308655 0.416415 -0.437500
v -1.199645 0.416415 -0.428638
v -1.199645 0.436925 -0.428638
v -1.308655 0.436925 -0.437500
v -1.199645 0.416415 -0.428638
v -1.166857 0.416416 1.305411
v -1.166857 0.436926 1.305411
v -1.199645 0.436925 -0.428638
v -1.166857 0.416416 1.305411
v -1.308654 0.416416 1.312500
v -1.308654 0.436926 1.312500
v -1.166857 0.436926 1.305411
v -1.199645 0.436925 -0.428638
v -1.166857 0.436926 1.305411
v -1.308654 0.436926 1.312500
v -1.308655 0.436925 -0.437500
v -0.433655 -0.041014 -1.312498
v -0.446314 -0.038585 -1.157800
v -0.485628 0.381415 -1.008201
v -0.485628 -0.038585 -1.008201
v -0.550322 0.381415 -0.867701
v -0.550322 -0.038585 -0.867701
v -0.638431 0.381415 -0.740570
v -0.638431 -0.038585 -0.740570
v -0.747277 0.381415 -0.630670
v -0.747277 -0.038585 -0.630670
v -0.873554 0.381415 -0.541340
v -0.873554 -0.038585 -0.541340
v -1.013425 0.381415 -0.475296
v -1.013425 -0.038585 -0.475296
v -1.308655 0.406164 -0.427248
v -1.161541 0.406164 -0.434618
v -1.011293 0.406164 -0.469526
v -1.006147 0.416415 -0.455597
v -0.870453 0.406164 -0.536028
v -0.862967 0.416415 -0.523205
v -0.743301 0.406164 -0.625977
v -0.733702 0.416415 -0.614648
v -0.633700 0.406164 -0.736639
v -0.622279 0.416415 -0.727149
v -0.544980 0.406164 -0.864651
v -0.532085 0.416415 -0.857289
v -0.479838 0.406164 -1.006125
v -0.465860 0.416415 -1.001114
v -1.161541 0.406164 -0.434618
v -1.308655 0.406164 -0.427248
v -1.011293 0.406164 -0.469526
v -0.870453 0.406164 -0.536028
v -0.743301 0.406164 -0.625977
v -0.633700 0.406164 -0.736639
v -0.544980 0.406164 -0.864651
v -0.479838 0.406164 -1.006125
v -1.308654 0.406165 1.302248
v -0.842856 0.406165 1.259099
v -0.841375 0.381416 1.267269
v -1.308654 0.381416 1.312500
v -0.404497 0.406165 1.139376
v -0.401620 0.381416 1.147164
v 0.006412 0.406164 0.945351
v 0.010598 0.381416 0.952521
v 0.377387 0.406164 0.682920
v 0.382755 0.381416 0.689255
v 0.697155 0.406164 0.360057
v 0.703541 0.381416 0.365363
v 0.956001 0.406164 -0.013428
v 0.963211 0.381415 -0.009311
v 1.146059 0.406164 -0.426187
v 1.153874 0.381415 -0.423385
v -0.842856 0.406165 1.259099
v -1.308654 0.406165 1.302248
v -0.411443 0.416416 1.120573
v -0.404497 0.406165 1.139376
v -0.003694 0.416416 0.928040
v 0.006412 0.406164 0.945351
v 0.364429 0.416416 0.667627
v 0.377387 0.406164 0.682920
v 0.681738 0.416416 0.347246
v 0.697155 0.406164 0.360057
v 0.938594 0.416415 -0.023367
v 0.956001 0.406164 -0.013428
v 1.127190 0.416415 -0.432952
v 1.146059 0.406164 -0.426187
v 1.269739 -0.038585 -0.864276
v 1.316346 -0.041014 -1.312499
v 1.246346 -0.041014 -1.312499
v 1.204577 -0.038585 -0.929019
v 1.153874 -0.038585 -0.423385
v 1.088713 -0.038585 -0.488128
v 0.963211 -0.038584 -0.009311
v 0.898050 -0.038585 -0.074054
v 0.703541 -0.038584 0.365363
v 0.638380 -0.038584 0.300620
v 0.382755 -0.038584 0.689255
v 0.317593 -0.038584 0.624512
v 0.010598 -0.038584 0.952521
v -0.054563 -0.038584 0.887778
v -0.873554 -0.038585 -0.541340
v -0.838702 -0.038585 -0.480524
v -0.701962 -0.038585 -0.577255
v -0.747277 -0.038585 -0.630670
v -1.162638 -0.038585 -0.440670
v -1.151740 -0.038585 -0.370744
v -0.990162 -0.038585 -0.409007
v -1.013425 -0.038585 -0.475296
v -0.376060 -0.458585 -1.148064
v -0.363655 -0.458585 -1.312498
v -0.361956 -0.038585 -1.312499
v -0.376060 -0.038585 -1.148064
v -0.701962 -0.458585 -0.577255
v -0.584096 -0.458585 -0.696261
v -0.584096 -0.038585 -0.696262
v -0.701962 -0.038585 -0.577255
v -1.308655 -0.458584 -0.366051
v -1.151740 -0.458584 -0.370744
v -1.151740 -0.038585 -0.370744
v -1.308655 -0.038585 -0.366051
v -0.488686 -0.458585 -0.833927
v -0.418631 -0.458585 -0.986069
v -0.418631 -0.038585 -0.986069
v -0.488686 -0.038585 -0.833927
v -0.412575 0.416415 -1.312500
v -0.425615 0.416415 -1.154253
v -0.465860 0.416415 -1.001114
v -0.532085 0.416415 -0.857289
v -0.622279 0.416415 -0.727149
v -0.733702 0.416415 -0.614648
v -0.862967 0.416415 -0.523205
v -1.006147 0.416415 -0.455597
v -0.401620 -0.038584 1.147164
v -0.841375 -0.038584 1.267269
v 0.010598 -0.038584 0.952521
v 0.382755 -0.038584 0.689255
v 0.703541 -0.038584 0.365363
v 0.963211 -0.038584 -0.009311
v 1.153874 -0.038585 -0.423385
v 1.269739 -0.038585 -0.864276
v 1.316346 -0.041014 -1.312499
v -1.308654 -0.038584 1.312500
v -0.990162 -0.458584 -0.409007
v -0.838702 -0.458585 -0.480524
v -0.838702 -0.038585 -0.480524
v -0.990162 -0.038585 -0.409007
v -1.308655 -0.038585 -0.437499
v -1.308655 -0.038585 -0.366051
v -0.638431 -0.038585 -0.740570
v -0.584096 -0.038585 -0.696262
v -0.550322 -0.038585 -0.867701
v -0.488686 -0.038585 -0.833927
v -0.906536 -0.038584 1.202526
v -0.906536 -0.458584 1.202526
v -1.308654 -0.458584 1.241450
v -1.308654 -0.038584 1.247758
v 1.246346 -0.041014 -1.312499
v 1.246346 -0.458585 -1.312499
v 1.204577 -0.458585 -0.929019
v 1.204577 -0.038585 -0.929019
v 1.088713 -0.458585 -0.488128
v 1.088713 -0.038585 -0.488128
v 0.898050 -0.458584 -0.074054
v 0.898050 -0.038585 -0.074054
v 0.638380 -0.458584 0.300621
v 0.638380 -0.038584 0.300620
v 0.317593 -0.458584 0.624512
v 0.317593 -0.038584 0.624512
v -0.054563 -0.458584 0.887779
v -0.054563 -0.038584 0.887778
v -0.466781 -0.458584 1.082421
v -0.466781 -0.038584 1.082421
v -1.308654 -0.038584 1.312500
v -1.308654 -0.038584 1.247758
v -0.418631 -0.038585 -0.986069
v -0.485628 -0.038585 -1.008201
v -0.376060 -0.038585 -1.148064
v -0.446314 -0.038585 -1.157800
v -0.906536 -0.458584 1.202526
v -1.151740 -0.458584 -0.370744
v -1.308655 -0.458584 -0.366051
v -1.308654 -0.458584 1.241450
v -0.466781 -0.458584 1.082421
v -0.990162 -0.458584 -0.409007
v -0.054563 -0.458584 0.887779
v -0.838702 -0.458585 -0.480524
v 0.317593 -0.458584 0.624512
v -0.701962 -0.458585 -0.577255
v 0.638380 -0.458584 0.300621
v -0.584096 -0.458585 -0.696261
v 0.898050 -0.458584 -0.074054
v -0.488686 -0.458585 -0.833927
v 1.088713 -0.458585 -0.488128
v -0.418631 -0.458585 -0.986069
v 1.204577 -0.458585 -0.929019
v -0.376060 -0.458585 -1.148064
v 1.246346 -0.458585 -1.312499
v -0.363655 -0.458585 -1.312496
v 1.246346 -0.041014 -1.312499
v -0.361956 -0.038585 -1.312499
v -0.363655 -0.458585 -1.312498
v 1.246346 -0.458585 -1.312499
v -0.361956 -0.038585 -1.312499
v -0.433655 -0.041014 -1.312498
v 1.306095 0.406164 -1.312500
v -0.423404 0.401306 -1.312498
v 1.281346 0.416415 -1.312500
v -0.412575 0.416415 -1.312500
v -0.423404 0.401306 -1.312498
v -1.308655 -0.038585 -0.366051
v -1.308654 -0.038584 1.247758
v -1.308654 -0.458584 1.241450
v -1.308655 -0.458584 -0.366051
v -1.308655 0.406164 -0.427248
v -1.308654 0.406165 1.302248
v -1.308655 0.416415 -0.402499
v -1.308654 0.416416 1.277500
v -1.308654 0.436926 1.312500
v -1.308654 0.416416 1.312500
v -1.308655 0.416415 -0.437500
v -1.308655 0.436925 -0.437500
v -1.166857 0.416416 1.305411
v -1.199645 0.416415 -0.428638
v -1.308655 0.416415 -0.437500
v -1.308654 0.416416 1.312500
v -1.313681 0.458584 -0.379755
v -1.295732 0.458585 1.220446
v -1.316346 0.458584 -0.354580
v -1.304590 0.458584 -0.401202
v -1.291213 0.458584 -0.415800
v -1.287884 0.458585 1.254357
v -1.275396 0.458584 -0.421479
v -1.261220 0.458585 1.282804
v -1.173687 0.458585 1.305771
v -1.221017 0.458585 1.301014
v -1.295732 0.438075 1.220446
v -1.313681 0.438074 -0.379755
v -1.316346 0.438074 -0.354580
v -1.304590 0.438074 -0.401202
v -1.291213 0.438074 -0.415800
v -1.287884 0.438075 1.254357
v -1.275396 0.438074 -0.421479
v -1.261220 0.438075 1.282804
v -1.128719 0.416415 -0.445184
v -1.221017 0.438075 1.301014
v -1.173687 0.438075 1.305771
v -0.835912 0.416416 1.266272
v -1.012051 0.416415 -0.475804
v -0.604353 0.416416 1.212806
v -1.109097 0.458584 -0.426151
v -1.111043 0.458584 -0.377967
v -1.113338 0.458584 -0.403246
v -0.751526 0.458585 1.158452
v -1.099190 0.458584 -0.443295
v -1.084974 0.458584 -0.452257
v -0.612486 0.458585 1.215062
v -0.735094 0.458585 1.189540
v -0.702913 0.458585 1.211553
v -0.659725 0.458585 1.220646
v -1.111043 0.438074 -0.377967
v -1.109097 0.438074 -0.426151
v -1.113338 0.438074 -0.403246
v -0.751526 0.438075 1.158452
v -1.099190 0.438074 -0.443295
v -1.084974 0.438074 -0.452257
v -0.946609 0.416415 -0.505629
v -0.839590 0.416415 -0.562205
v -0.076692 0.416416 1.001267
v -0.735094 0.438075 1.189540
v -0.702913 0.438075 1.211553
v -0.659725 0.438075 1.220646
v -0.612486 0.438075 1.215062
v -0.291225 0.416416 1.103508
v -0.917645 0.458584 -0.511634
v -0.922805 0.458584 -0.469474
v -0.923613 0.458584 -0.492754
v -0.915102 0.458584 -0.445288
v -0.905701 0.458584 -0.523456
v -0.232132 0.458585 0.980000
v -0.084144 0.458585 1.005228
v -0.209371 0.458585 1.006803
v -0.173193 0.458585 1.021342
v -0.129061 0.458585 1.020888
v -0.922805 0.438074 -0.469474
v -0.917645 0.438074 -0.511634
v -0.923613 0.438074 -0.492754
v -0.915102 0.438074 -0.445288
v -0.905701 0.438074 -0.523456
v -0.232132 0.438075 0.980000
v -0.783981 0.416415 -0.603901
v -0.689874 0.416415 -0.683831
v 0.392792 0.416416 0.680706
v -0.209371 0.438075 1.006803
v -0.173193 0.438075 1.021342
v -0.129061 0.438075 1.020888
v -0.084144 0.438075 1.005228
v 0.205420 0.416416 0.826889
v -0.755156 0.458584 -0.617588
v -0.751085 0.458584 -0.575309
v -0.756904 0.458584 -0.597864
v -0.746050 0.458584 -0.631712
v -0.738337 0.458584 -0.553359
v 0.386372 0.458585 0.686183
v 0.236429 0.458585 0.693530
v 0.264445 0.458585 0.714781
v 0.302909 0.458585 0.721159
v 0.345900 0.458585 0.711179
v -0.751085 0.438074 -0.575309
v -0.755156 0.438074 -0.617588
v -0.756904 0.438074 -0.597864
v -0.746050 0.438074 -0.631712
v -0.738337 0.438074 -0.553359
v -0.647190 0.416415 -0.733128
v 0.236429 0.438074 0.693530
v -0.569977 0.416415 -0.834935
v 0.781914 0.416415 0.266268
v 0.264445 0.438074 0.714781
v 0.302909 0.438074 0.721159
v 0.345900 0.438074 0.711179
v 0.386372 0.438074 0.686183
v 0.630558 0.416416 0.449486
v -0.613563 0.458584 -0.771908
v -0.616847 0.458584 -0.736515
v -0.619403 0.458584 -0.756150
v -0.606291 0.458584 -0.715750
v 0.776830 0.458584 0.273003
v -0.589101 0.458584 -0.697073
v 0.632016 0.458584 0.312577
v 0.663962 0.458584 0.327272
v 0.702897 0.458584 0.325188
v 0.742715 0.458584 0.306154
v -0.616847 0.438074 -0.736515
v -0.613563 0.438074 -0.771908
v -0.619403 0.438074 -0.756150
v -0.606291 0.438074 -0.715750
v -0.541286 0.416415 -0.887221
v -0.589101 0.438074 -0.697073
v 0.632016 0.438074 0.312577
v -0.485564 0.416415 -1.008378
v 1.072288 0.416415 -0.222464
v 0.663962 0.438074 0.327272
v 0.702897 0.438074 0.325188
v 0.742715 0.438074 0.306154
v 0.776830 0.438074 0.273003
v 0.964099 0.416415 -0.010868
v -0.514502 0.458584 -0.937422
v -0.510060 0.458584 -0.902155
v -0.516798 0.458584 -0.920774
v 1.068779 0.458584 -0.214788
v -0.495266 0.458584 -0.884161
v -0.474447 0.458584 -0.869641
v 0.935939 0.458584 -0.144857
v 0.970305 0.458584 -0.137412
v 1.007869 0.458584 -0.147861
v 1.042634 0.458584 -0.175049
v -0.510060 0.438074 -0.902155
v -0.514502 0.438074 -0.937422
v -0.516798 0.438074 -0.920774
v -0.469001 0.416415 -1.064932
v -0.495266 0.438074 -0.884161
v -0.474447 0.438074 -0.869641
v 0.935939 0.438074 -0.144857
v -0.440625 0.416415 -1.195964
v 1.250192 0.416415 -0.762394
v 0.970305 0.438074 -0.137412
v 1.007869 0.438074 -0.147861
v 1.042634 0.438074 -0.175049
v 1.068779 0.438074 -0.214788
v 1.203408 0.416415 -0.582805
v 1.248424 0.458584 -0.754142
v -0.452191 0.458584 -1.103680
v -0.453546 0.458584 -1.120431
v -0.441588 0.458584 -1.086957
v -0.423256 0.458584 -1.072585
v -0.399791 0.458584 -1.062907
v 1.133834 0.458584 -0.657158
v 1.168997 0.458584 -0.657315
v 1.203416 0.458584 -0.675634
v 1.231484 0.458584 -0.709692
v -0.452191 0.438074 -1.103680
v -0.435216 0.418297 -1.269964
v -0.453546 0.438074 -1.120431
v -0.441588 0.438074 -1.086957
v -0.423256 0.438074 -1.072585
v -0.433575 0.416415 -1.312500
v 1.316346 0.416415 -1.312500
v -0.399791 0.438074 -1.062907
v 1.133834 0.438074 -0.657158
v 1.168997 0.438074 -0.657315
v 1.203416 0.438074 -0.675634
v 1.231484 0.438074 -0.709692
v 1.248424 0.438074 -0.754142
v 1.300904 0.416415 -1.121285
vn -0.0000 -0.0000 1.0000
vn 1.0000 -0.0000 -0.0000
vn 0.0422 -0.9660 0.2551
vn -0.0424 -0.9718 -0.2320
vn -0.0196 -0.9745 -0.2236
vn 0.0184 -0.9754 0.2197
vn -0.0000 1.0000 -0.0000
vn -0.2312 -0.9720 -0.0419
vn -0.2243 -0.9743 -0.0212
vn -0.4156 -0.9087 -0.0392
vn -0.4290 -0.9000 -0.0775
vn -0.9273 -0.3343 -0.1686
vn -0.9320 -0.3498 -0.0949
vn -0.9793 -0.1755 -0.1008
vn -0.9698 -0.1683 -0.1764
vn 0.9745 -0.1428 0.1730
vn 0.9833 -0.1573 0.0916
vn 0.8434 -0.5295 0.0909
vn 0.8177 -0.5561 0.1486
vn 0.6997 -0.7102 0.0776
vn 0.6283 -0.7699 0.1117
vn 0.1245 -0.0000 0.9922
vn 0.1269 -0.1417 0.9817
vn 0.0283 -0.1591 0.9869
vn 0.0217 -0.0000 0.9998
vn 0.1960 -0.0874 0.9767
vn 0.2684 -0.0960 0.9585
vn 0.2094 -0.0890 0.9738
vn -0.9721 -0.0000 0.2347
vn -0.2314 0.0858 -0.9691
vn -0.1419 -0.1602 -0.9768
vn -0.2249 0.0667 -0.9721
vn 0.1366 -0.0800 0.9874
vn 0.1372 -0.0800 0.9873
vn -0.0000 -1.0000 -0.0000
vn -0.0343 -0.9994 0.0050
vn -0.0357 -0.9994 0.0052
vn -0.1359 -0.1752 -0.9751
vn -0.0344 -0.9994 0.0050
vn -0.0361 -0.9993 0.0053
vn 0.9928 -0.0000 -0.1200
vn 0.9989 -0.0000 0.0462
vn 0.3379 -0.0000 0.9412
vn 0.5537 -0.0000 0.8327
vn 0.8412 -0.0000 0.5408
vn 0.9681 -0.0000 0.2505
vn 0.1000 -0.0000 -0.9950
vn 0.2597 -0.0000 -0.9657
vn 0.5823 -0.0000 -0.8130
vn 0.7296 -0.0000 -0.6839
vn 0.9742 -0.0000 -0.2255
vn 0.4053 -0.0525 0.9127
vn 0.4758 -0.0623 0.8774
vn 0.4197 -0.0545 0.9060
vn -0.8987 -0.0000 0.4385
vn -0.4353 0.0858 -0.8962
vn -0.3496 -0.1602 -0.9231
vn -0.4296 0.0667 -0.9005
vn 0.3477 -0.0444 0.9365
vn 0.3480 -0.0444 0.9364
vn -0.0325 -0.9994 0.0123
vn -0.0337 -0.9994 0.0128
vn -0.3434 -0.1752 -0.9227
vn -0.0342 -0.9993 0.0129
vn 0.9366 -0.0000 -0.3504
vn 0.9872 -0.0000 -0.1595
vn 0.5333 -0.0000 0.8459
vn 0.7206 -0.0000 0.6934
vn 0.9381 -0.0000 0.3462
vn 0.9382 -0.0000 0.3462
vn 0.9989 -0.0000 0.0463
vn -0.1174 -0.0000 -0.9931
vn 0.0449 -0.0000 -0.9990
vn 0.3928 -0.0000 -0.9196
vn 0.7461 -0.0000 -0.6658
vn 0.5891 -0.0475 0.8067
vn 0.6540 -0.0629 0.7539
vn 0.6093 -0.0523 0.7912
vn -0.7834 -0.0000 0.6216
vn -0.6187 0.0859 -0.7809
vn -0.5408 -0.1602 -0.8258
vn -0.6141 0.0667 -0.7864
vn -0.6187 0.0858 -0.7809
vn 0.5421 -0.0367 0.8395
vn 0.5423 -0.0367 0.8394
vn -0.0291 -0.9994 0.0190
vn -0.0301 -0.9994 0.0197
vn -0.5347 -0.1752 -0.8267
vn -0.0306 -0.9993 0.0200
vn 0.8389 -0.0000 -0.5442
vn 0.9295 -0.0000 -0.3687
vn 0.9296 -0.0000 -0.3687
vn 0.7035 -0.0000 0.7107
vn 0.8534 -0.0000 0.5213
vn 0.9908 -0.0000 0.1353
vn 0.9853 -0.0000 -0.1707
vn -0.3292 -0.0000 -0.9443
vn -0.1720 -0.0000 -0.9851
vn 0.1849 -0.0000 -0.9828
vn 0.1848 -0.0000 -0.9828
vn 0.5846 -0.0000 -0.8113
vn 0.7445 -0.0375 0.6666
vn 0.8013 -0.0640 0.5949
vn 0.8013 -0.0639 0.5949
vn 0.7706 -0.0494 0.6354
vn -0.6316 -0.0000 0.7753
vn -0.7728 0.0859 -0.6288
vn -0.7065 -0.1602 -0.6894
vn -0.7695 0.0668 -0.6351
vn -0.7728 0.0858 -0.6288
vn 0.7111 -0.0231 0.7027
vn 0.7112 -0.0231 0.7026
vn -0.0243 -0.9994 0.0249
vn -0.0251 -0.9994 0.0257
vn -0.7007 -0.1752 -0.6916
vn -0.0243 -0.9994 0.0248
vn -0.0256 -0.9993 0.0261
vn 0.7019 -0.0000 -0.7122
vn 0.8282 -0.0000 -0.5604
vn 0.8404 -0.0000 0.5419
vn 0.9459 -0.0000 0.3246
vn 0.9459 -0.0000 0.3245
vn 0.9966 -0.0000 -0.0820
vn 0.9252 -0.0000 -0.3796
vn -0.5255 -0.0000 -0.8508
vn -0.3808 -0.0000 -0.9247
vn -0.3808 -0.0000 -0.9246
vn -0.0319 -0.0000 -0.9995
vn 0.3955 -0.0000 -0.9185
vn 0.8672 -0.0230 0.4974
vn 0.9107 -0.0652 0.4078
vn 0.9107 -0.0653 0.4078
vn 0.8932 -0.0471 0.4471
vn -0.4504 -0.0000 0.8928
vn -0.8904 0.0859 -0.4469
vn -0.8387 -0.1602 -0.5204
vn -0.8886 0.0667 -0.4538
vn -0.8904 0.0858 -0.4469
vn 0.8464 -0.0054 0.5325
vn 0.8464 -0.0055 0.5325
vn -0.0184 -0.9994 0.0295
vn -0.0190 -0.9994 0.0305
vn -0.8336 -0.1752 -0.5239
vn -0.0184 -0.9994 0.0294
vn -0.0194 -0.9993 0.0310
vn 0.5320 -0.0000 -0.8467
vn 0.6881 -0.0000 -0.7256
vn 0.9377 -0.0000 0.3475
vn 0.9937 -0.0000 0.1125
vn 0.9554 -0.0000 -0.2954
vn 0.8213 -0.0000 -0.5705
vn -0.6969 -0.0000 -0.7172
vn -0.5716 -0.0000 -0.8205
vn -0.2471 -0.0000 -0.9690
vn 0.1877 -0.0000 -0.9822
vn 0.9540 -0.0210 0.2991
vn 0.9773 -0.0654 0.2014
vn 0.9690 -0.0469 0.2428
vn -0.2484 -0.0000 0.9687
vn -0.9657 -0.0419 -0.2563
vn -0.9500 -0.0552 -0.3074
vn -0.9568 -0.0497 -0.2864
vn -0.9657 -0.0419 -0.2564
vn 0.9415 -0.0032 0.3370
vn -0.0015 -1.0000 0.0081
vn -0.0015 -1.0000 0.0082
vn -0.0131 -0.9992 0.0382
vn -0.0131 -0.9992 0.0383
vn -0.9396 -0.0628 -0.3365
vn -0.0121 -0.9994 0.0335
vn -0.0128 -0.9993 0.0354
vn 0.3373 -0.0000 -0.9414
vn 0.5157 -0.0000 -0.8568
vn 0.9906 -0.0000 0.1366
vn 0.9945 -0.0000 -0.1049
vn 0.8690 -0.0000 -0.4949
vn 0.6786 -0.0000 -0.7345
vn -0.8354 -0.0000 -0.5496
vn -0.7354 -0.0000 -0.6776
vn -0.4507 -0.0000 -0.8927
vn -0.0290 -0.0000 -0.9996
vn 0.9967 -0.0175 0.0790
vn 0.9993 -0.0209 0.0294
vn 0.9969 -0.0177 0.0763
vn -0.9871 -0.1300 -0.0937
vn -0.9852 -0.1309 -0.1102
vn -0.9854 -0.1309 -0.1089
vn 0.9920 -0.0142 0.1254
vn 0.9920 -0.0141 0.1256
vn -0.0010 -0.9996 0.0296
vn -0.0054 -0.9988 0.0487
vn -0.0055 -0.9988 0.0489
vn -0.9833 -0.1317 -0.1254
vn -0.0049 -0.9994 0.0333
vn -0.0052 -0.9994 0.0352
vn 0.1268 -0.0000 -0.9919
vn 0.3192 -0.0000 -0.9477
vn 0.1267 -0.0000 -0.9919
vn 0.9967 -0.0000 -0.0806
vn 0.9483 -0.0000 -0.3173
vn 0.7415 -0.0000 -0.6709
vn 0.5039 -0.0000 -0.8638
vn 0.5038 -0.0000 -0.8638
vn -0.9344 -0.0000 -0.3561
vn -0.8645 -0.0000 -0.5027
vn -0.6329 -0.0000 -0.7742
vn -0.2443 -0.0000 -0.9697
vn -0.0810 -0.0000 0.9967
vn -0.9998 -0.0000 0.0189
vn -0.0499 -0.0000 -0.9988
vn 0.9967 -0.0000 0.0816
vn 0.9858 -0.0000 0.1681
vn 0.9343 -0.1223 0.3350
vn 0.9413 -0.0000 0.3375
vn 0.8619 -0.1223 0.4921
vn 0.8684 -0.0000 0.4958
vn 0.7634 -0.1223 0.6343
vn 0.7691 -0.0000 0.6391
vn 0.6416 -0.1223 0.7572
vn 0.6465 -0.0000 0.7629
vn 0.5004 -0.1223 0.8571
vn 0.5042 -0.0000 0.8636
vn 0.3258 -0.1228 0.9374
vn 0.3284 -0.0000 0.9445
vn 0.0385 -0.8873 0.4596
vn 0.0831 -0.8575 0.5077
vn 0.1860 -0.8234 0.5362
vn 0.1871 -0.8234 0.5357
vn 0.2864 -0.8229 0.4906
vn 0.3673 -0.8229 0.4334
vn 0.4370 -0.8229 0.3631
vn 0.4934 -0.8229 0.2817
vn 0.5348 -0.8229 0.1917
vn 0.1281 -0.2779 0.9520
vn 0.0341 -0.3134 0.9490
vn 0.3190 -0.2412 0.9165
vn 0.4893 -0.2412 0.8381
vn 0.6274 -0.2412 0.7404
vn 0.7464 -0.2412 0.6202
vn 0.8428 -0.2412 0.4812
vn 0.9135 -0.2412 0.3275
vn -0.0883 -0.3498 -0.9327
vn -0.1697 -0.3345 -0.9270
vn -0.1777 -0.1683 -0.9696
vn -0.0939 -0.1756 -0.9800
vn -0.3285 -0.3181 -0.8893
vn -0.3421 -0.1597 -0.9260
vn -0.4780 -0.3181 -0.8188
vn -0.4977 -0.1597 -0.8525
vn -0.6129 -0.3181 -0.7233
vn -0.6382 -0.1597 -0.7531
vn -0.7292 -0.3181 -0.6059
vn -0.7593 -0.1597 -0.6309
vn -0.8233 -0.3181 -0.4701
vn -0.8573 -0.1597 -0.4895
vn -0.8925 -0.3180 -0.3200
vn -0.9292 -0.1597 -0.3332
vn -0.0785 -0.9000 -0.4287
vn -0.0364 -0.9087 -0.4160
vn -0.0854 -0.9692 -0.2311
vn -0.1578 -0.8903 -0.4271
vn -0.1242 -0.9692 -0.2128
vn -0.2296 -0.8903 -0.3932
vn -0.1593 -0.9692 -0.1880
vn -0.2944 -0.8903 -0.3474
vn -0.1895 -0.9692 -0.1575
vn -0.3502 -0.8903 -0.2910
vn -0.2140 -0.9692 -0.1222
vn -0.3954 -0.8903 -0.2258
vn -0.2319 -0.9692 -0.0832
vn -0.4286 -0.8903 -0.1537
vn 0.0008 1.0000 -0.0017
vn 0.0027 1.0000 -0.0056
vn 0.0026 1.0000 -0.0056
vn 0.0018 1.0000 -0.0038
vn 0.9858 -0.0010 0.1678
vn 0.9968 -0.0020 0.0803
vn 0.9858 -0.0010 0.1679
vn 0.0299 -0.0000 0.9996
vn 0.1308 -0.0000 0.9914
vn -0.3465 -0.0000 -0.9380
vn -0.1806 -0.0000 -0.9836
vn -0.5042 -0.0000 -0.8636
vn -0.6465 -0.0000 -0.7629
vn -0.7691 -0.0000 -0.6391
vn -0.8684 -0.0000 -0.4958
vn -0.9413 -0.0000 -0.3375
vn -0.9838 -0.0000 -0.1792
vn -0.9946 -0.0000 -0.1034
vn -0.0963 -0.0000 -0.9953
vn 0.3305 -0.0000 0.9438
vn -0.1845 0.0038 -0.9828
vn -0.1843 0.0037 -0.9829
vn -0.1039 0.0073 -0.9946
vn -0.1041 0.0075 -0.9945
vn -0.9941 -0.0000 -0.1083
vn -0.9834 -0.0000 -0.1817
vn -0.9833 -0.0000 -0.1819
vn -0.0084 1.0000 -0.0046
vn -0.0081 1.0000 -0.0044
vn -0.0165 0.9998 -0.0090
vn -0.0000 0.0001 1.0000
vn -0.0181 -0.9998 0.0026
vn -0.0172 -0.9998 0.0025
vn 0.0427 0.9991 -0.0049
vn -0.0171 -0.9998 0.0065
vn -0.0162 -0.9998 0.0062
vn 0.0406 0.9991 -0.0140
vn 0.0405 0.9991 -0.0140
vn -0.0153 -0.9998 0.0100
vn -0.0145 -0.9998 0.0095
vn 0.0366 0.9991 -0.0224
vn 0.0367 0.9991 -0.0223
vn 0.0365 0.9991 -0.0224
vn -0.0128 -0.9998 0.0130
vn -0.0121 -0.9998 0.0124
vn 0.0309 0.9991 -0.0298
vn 0.0308 0.9991 -0.0298
vn -0.0097 -0.9998 0.0155
vn -0.0092 -0.9998 0.0147
vn 0.0237 0.9991 -0.0357
vn 0.0238 0.9991 -0.0357
vn 0.0237 0.9991 -0.0358
vn -0.0064 -0.9998 0.0177
vn -0.0061 -0.9998 0.0168
vn 0.0149 0.9991 -0.0402
vn -0.0024 -0.9999 0.0166
vn -0.0026 -0.9998 0.0176
vn 0.0072 0.9989 -0.0466
vt 0.783529 0.091774
vt 0.783528 0.091775
vt 0.783528 0.091774
vt 0.783528 0.091777
vt 0.783529 0.091777
vt 0.783528 0.091777
vt 0.783528 0.091775
vt 0.783528 0.091777
vt 0.783532 0.091774
vt 0.783529 0.091774
vt 0.783529 0.091774
vt 0.783529 0.091777
vt 0.783532 0.091774
vt 0.095083 0.155318
vt 0.095084 0.155318
vt 0.095084 0.155318
vt 0.095083 0.155318
vt 0.095083 0.155318
vt 0.783524 0.091774
vt 0.845880 0.090279
vt 0.845884 0.090279
vt 0.845883 0.090279
vt 0.845883 0.090279
vt 0.845884 0.090281
vt 0.845884 0.090279
vt 0.095084 0.155318
vt 0.095084 0.155318
s 0
usemtl AIRPORT
f 1/1/1 2/2/1 3/3/1
f 4/4/1 5/5/1 6/6/1
f 7/3/2 8/7/2 9/1/2
f 10/5/2 11/8/2 12/6/2
s 1
f 13/9/3 14/10/4 15/10/5
f 13/9/3 15/10/5 16/9/6
s 0
f 17/3/7 18/3/7 19/3/7
f 17/3/7 19/3/7 20/3/7
s 1
f 21/10/8 22/10/9 23/11/10
f 21/10/8 23/11/10 24/11/11
f 25/11/12 26/11/13 27/1/14
f 25/11/12 27/1/14 28/1/15
f 29/5/16 30/5/17 31/12/18
f 29/5/16 31/12/18 32/12/19
f 33/13/19 34/13/18 35/9/20
f 33/13/19 35/9/20 36/9/21
f 37/6/22 38/5/23 39/5/24
f 37/6/22 39/5/24 40/6/25
f 41/14/26 42/14/27 43/14/27
f 41/14/26 43/14/27 44/14/28
s 0
f 45/15/29 46/16/29 47/16/29
f 45/15/29 47/16/29 48/15/29
s 1
f 49/14/30 50/14/31 51/14/32
f 49/14/30 51/14/32 52/14/30
f 53/14/33 41/14/26 44/14/28
f 53/14/33 44/14/28 54/14/34
f 55/15/35 56/16/35 57/16/36
f 55/15/35 57/16/36 58/15/37
f 50/14/31 59/14/38 60/14/38
f 50/14/31 60/14/38 51/14/32
f 58/15/37 57/16/36 61/16/39
f 58/15/37 61/16/39 62/15/40
f 63/14/41 64/14/42 65/14/42
f 63/14/41 65/14/42 66/14/41
f 67/14/43 68/14/43 69/14/44
f 67/14/43 69/14/44 70/14/44
f 70/14/44 69/14/44 71/14/45
f 70/14/44 71/14/45 72/14/45
f 72/14/45 71/14/45 73/14/46
f 72/14/45 73/14/46 74/14/46
f 74/14/46 73/14/46 65/14/42
f 74/14/46 65/14/42 64/14/42
f 75/14/47 76/14/47 77/14/48
f 75/14/47 77/14/48 78/14/48
f 78/14/48 77/14/48 79/14/49
f 78/14/48 79/14/49 80/14/49
f 80/14/49 79/14/49 81/14/50
f 80/14/49 81/14/50 82/14/50
f 83/14/51 84/14/51 63/14/41
f 83/14/51 63/14/41 66/14/41
f 85/14/52 86/14/53 87/14/53
f 85/14/52 87/14/53 88/14/54
s 0
f 89/15/55 90/16/55 91/16/55
f 89/15/55 91/16/55 92/15/55
s 1
f 93/14/56 94/14/57 95/14/58
f 93/14/56 95/14/58 96/14/56
f 97/14/59 85/14/52 88/14/54
f 97/14/59 88/14/54 98/14/60
f 99/15/35 100/16/35 101/16/61
f 99/15/35 101/16/61 102/15/62
f 94/14/57 103/14/63 104/14/63
f 94/14/57 104/14/63 95/14/58
f 102/15/62 101/16/61 105/16/61
f 102/15/62 105/16/61 106/15/64
f 107/14/65 108/14/66 109/14/66
f 107/14/65 109/14/66 110/14/65
f 111/14/67 112/14/67 113/14/68
f 111/14/67 113/14/68 114/14/68
f 114/14/68 113/14/68 115/14/69
f 114/14/68 115/14/69 116/14/70
f 116/14/70 115/14/69 117/14/71
f 116/14/70 117/14/71 118/14/71
f 118/14/71 117/14/71 109/14/66
f 118/14/71 109/14/66 108/14/66
f 119/14/72 120/14/72 121/14/73
f 119/14/72 121/14/73 122/14/73
f 122/14/73 121/14/73 123/14/74
f 122/14/73 123/14/74 124/14/74
f 124/14/74 123/14/74 125/14/75
f 124/14/74 125/14/75 126/14/75
f 126/14/75 125/14/75 107/14/65
f 126/14/75 107/14/65 110/14/65
f 127/14/76 128/14/77 129/14/77
f 127/14/76 129/14/77 130/14/78
s 0
f 131/15/79 132/16/79 133/16/79
f 131/15/79 133/16/79 134/15/79
s 1
f 135/14/80 136/14/81 137/14/82
f 135/14/80 137/14/82 138/14/83
f 139/14/84 127/14/76 130/14/78
f 139/14/84 130/14/78 140/14/85
f 141/15/35 142/16/35 143/16/86
f 141/15/35 143/16/86 144/15/87
f 136/14/81 145/14/88 146/14/88
f 136/14/81 146/14/88 137/14/82
f 144/15/87 143/16/86 147/16/86
f 144/15/87 147/16/86 148/15/89
f 149/14/90 150/14/91 151/14/92
f 149/14/90 151/14/92 152/14/90
f 153/14/93 154/14/93 155/14/94
f 153/14/93 155/14/94 156/14/94
f 156/14/94 155/14/94 157/14/95
f 156/14/94 157/14/95 158/14/95
f 158/14/95 157/14/95 159/14/96
f 158/14/95 159/14/96 160/14/96
f 160/14/96 159/14/96 151/14/92
f 160/14/96 151/14/92 150/14/91
f 161/14/97 162/14/97 163/14/98
f 161/14/97 163/14/98 164/14/98
f 164/14/98 163/14/98 165/14/99
f 164/14/98 165/14/99 166/14/100
f 166/14/100 165/14/99 167/14/101
f 166/14/100 167/14/101 168/14/101
f 168/14/101 167/14/101 149/14/90
f 168/14/101 149/14/90 152/14/90
f 169/14/102 170/14/103 171/14/104
f 169/14/102 171/14/104 172/14/105
s 0
f 173/15/106 174/16/106 175/16/106
f 173/15/106 175/16/106 176/15/106
s 1
f 177/14/107 178/14/108 179/14/109
f 177/14/107 179/14/109 180/14/110
f 181/14/111 169/14/102 172/14/105
f 181/14/111 172/14/105 182/14/112
f 183/15/35 184/16/35 185/16/113
f 183/15/35 185/16/113 186/15/114
f 178/14/108 187/14/115 188/14/115
f 178/14/108 188/14/115 179/14/109
f 186/15/114 185/16/113 189/16/116
f 186/15/114 189/16/116 190/15/117
f 191/14/118 192/14/119 193/14/119
f 191/14/118 193/14/119 194/14/118
f 195/14/120 196/14/120 197/14/121
f 195/14/120 197/14/121 198/14/122
f 198/14/122 197/14/121 199/14/123
f 198/14/122 199/14/123 200/14/123
f 200/14/123 199/14/123 201/14/124
f 200/14/123 201/14/124 202/14/124
f 202/14/124 201/14/124 193/14/119
f 202/14/124 193/14/119 192/14/119
f 203/14/125 204/14/125 205/14/126
f 203/14/125 205/14/126 206/14/127
f 206/14/127 205/14/126 207/14/128
f 206/14/127 207/14/128 208/14/128
f 208/14/128 207/14/128 209/14/129
f 208/14/128 209/14/129 210/14/129
f 210/14/129 209/14/129 191/14/118
f 210/14/129 191/14/118 194/14/118
f 211/14/130 212/14/131 213/14/132
f 211/14/130 213/14/132 214/14/133
s 0
f 215/15/134 216/16/134 217/16/134
f 215/15/134 217/16/134 218/15/134
s 1
f 219/14/135 220/14/136 221/14/137
f 219/14/135 221/14/137 222/14/138
f 223/14/139 211/14/130 214/14/133
f 223/14/139 214/14/133 224/14/140
f 225/15/35 226/16/35 227/16/141
f 225/15/35 227/16/141 228/15/142
f 220/14/136 229/14/143 230/14/143
f 220/14/136 230/14/143 221/14/137
f 228/15/142 227/16/141 231/16/144
f 228/15/142 231/16/144 232/15/145
f 233/14/146 234/14/147 235/14/147
f 233/14/146 235/14/147 236/14/146
f 237/14/148 238/14/148 239/14/149
f 237/14/148 239/14/149 240/14/149
f 240/14/149 239/14/149 241/14/150
f 240/14/149 241/14/150 242/14/150
f 242/14/150 241/14/150 243/14/151
f 242/14/150 243/14/151 244/14/151
f 244/14/151 243/14/151 235/14/147
f 244/14/151 235/14/147 234/14/147
f 245/14/152 246/14/152 247/14/153
f 245/14/152 247/14/153 248/14/153
f 248/14/153 247/14/153 249/14/154
f 248/14/153 249/14/154 250/14/154
f 250/14/154 249/14/154 251/14/155
f 250/14/154 251/14/155 252/14/155
f 252/14/155 251/14/155 233/14/146
f 252/14/155 233/14/146 236/14/146
f 253/14/156 254/14/157 255/14/157
f 253/14/156 255/14/157 256/14/158
s 0
f 257/15/159 258/16/159 259/16/159
f 257/15/159 259/16/159 260/15/159
s 1
f 261/14/160 262/17/161 263/14/162
f 261/14/160 263/14/162 264/14/163
f 265/14/164 253/14/156 256/14/158
f 265/14/164 256/14/158 266/14/164
f 267/15/165 268/16/166 269/16/167
f 267/15/165 269/16/167 270/15/168
f 262/17/161 271/14/169 272/14/169
f 262/17/161 272/14/169 263/14/162
f 270/15/168 269/16/167 273/16/170
f 270/15/168 273/16/170 274/15/171
f 275/14/172 276/14/173 277/14/173
f 275/14/172 277/14/173 278/14/172
f 279/14/174 280/14/174 281/14/175
f 279/14/174 281/14/175 282/14/175
f 282/14/175 281/14/175 283/14/176
f 282/14/175 283/14/176 284/14/176
f 284/14/176 283/14/176 285/14/177
f 284/14/176 285/14/177 286/14/177
f 286/14/177 285/14/177 277/14/173
f 286/14/177 277/14/173 276/14/173
f 287/14/178 288/14/178 289/14/179
f 287/14/178 289/14/179 290/14/179
f 290/14/179 289/14/179 291/14/180
f 290/14/179 291/14/180 292/14/180
f 292/14/180 291/14/180 293/14/181
f 292/14/180 293/14/181 294/14/181
f 294/14/181 293/14/181 275/14/172
f 294/14/181 275/14/172 278/14/172
f 295/14/182 296/14/183 297/14/183
f 295/14/182 297/14/183 298/14/184
s 0
f 299/15/1 300/16/1 301/16/1
f 299/15/1 301/16/1 302/15/1
s 1
f 303/14/185 304/18/186 305/14/187
f 303/14/185 305/14/187 306/14/185
f 307/14/188 295/14/182 298/14/184
f 307/14/188 298/14/184 308/14/189
f 309/15/190 310/16/190 311/16/191
f 309/15/190 311/16/191 312/15/192
f 304/18/186 313/14/193 314/14/193
f 304/18/186 314/14/193 305/14/187
f 312/15/192 311/16/191 315/16/194
f 312/15/192 315/16/194 316/15/195
f 317/14/196 318/14/197 319/14/197
f 317/14/196 319/14/197 320/14/198
f 321/14/199 322/14/199 323/14/200
f 321/14/199 323/14/200 324/14/200
f 324/14/200 323/14/200 325/14/201
f 324/14/200 325/14/201 326/14/201
f 326/14/201 325/14/201 327/14/202
f 326/14/201 327/14/202 328/14/203
f 328/14/203 327/14/202 319/14/197
f 328/14/203 319/14/197 318/14/197
f 329/14/204 330/14/204 331/14/205
f 329/14/204 331/14/205 332/14/205
f 332/14/205 331/14/205 333/14/206
f 332/14/205 333/14/206 334/14/206
f 334/14/206 333/14/206 335/14/207
f 334/14/206 335/14/207 336/14/207
f 336/14/207 335/14/207 317/14/196
f 336/14/207 317/14/196 320/14/198
s 0
f 337/14/208 338/14/208 339/14/208
f 337/14/208 339/14/208 340/14/208
f 341/15/209 342/16/209 343/16/209
f 341/15/209 343/16/209 344/15/209
f 345/14/210 346/14/210 347/14/210
f 345/14/210 347/14/210 348/14/210
f 349/15/35 350/16/35 351/16/35
f 349/15/35 351/16/35 352/15/35
s 1
f 353/6/211 30/5/17 29/5/16
f 353/6/211 29/5/16 354/6/212
f 354/6/212 29/5/16 355/5/213
f 354/6/212 355/5/213 356/6/214
f 356/6/214 355/5/213 357/5/215
f 356/6/214 357/5/215 358/6/216
f 358/6/216 357/5/215 359/5/217
f 358/6/216 359/5/217 360/6/218
f 360/6/218 359/5/217 361/5/219
f 360/6/218 361/5/219 362/6/220
f 362/6/220 361/5/219 363/5/221
f 362/6/220 363/5/221 364/6/222
f 364/6/222 363/5/221 365/5/223
f 364/6/222 365/5/223 366/6/224
f 366/6/224 365/5/223 38/5/23
f 366/6/224 38/5/23 37/6/22
f 367/13/225 368/13/226 13/9/3
f 367/13/225 13/9/3 16/9/6
f 368/13/226 369/13/227 370/9/228
f 368/13/226 370/9/228 13/9/3
f 369/13/227 371/13/229 372/9/229
f 369/13/227 372/9/229 370/9/228
f 371/13/229 373/13/230 374/9/230
f 371/13/229 374/9/230 372/9/229
f 373/13/230 375/13/231 376/9/231
f 373/13/230 376/9/231 374/9/230
f 375/13/231 377/13/232 378/9/232
f 375/13/231 378/9/232 376/9/231
f 377/13/232 379/13/233 380/9/233
f 377/13/232 380/9/233 378/9/232
f 379/13/233 33/13/19 36/9/21
f 379/13/233 36/9/21 380/9/233
f 39/5/24 38/5/23 381/12/234
f 39/5/24 381/12/234 382/12/235
f 38/5/23 365/5/223 383/12/236
f 38/5/23 383/12/236 381/12/234
f 365/5/223 363/5/221 384/12/237
f 365/5/223 384/12/237 383/12/236
f 363/5/221 361/5/219 385/12/238
f 363/5/221 385/12/238 384/12/237
f 361/5/219 359/5/217 386/12/239
f 361/5/219 386/12/239 385/12/238
f 359/5/217 357/5/215 387/12/240
f 359/5/217 387/12/240 386/12/239
f 357/5/215 355/5/213 388/12/241
f 357/5/215 388/12/241 387/12/240
f 355/5/213 29/5/16 32/12/19
f 355/5/213 32/12/19 388/12/241
f 389/11/242 390/11/243 391/1/244
f 389/11/242 391/1/244 392/1/245
f 390/11/243 393/11/246 394/1/247
f 390/11/243 394/1/247 391/1/244
f 393/11/246 395/11/248 396/1/249
f 393/11/246 396/1/249 394/1/247
f 395/11/248 397/11/250 398/1/251
f 395/11/248 398/1/251 396/1/249
f 397/11/250 399/11/252 400/1/253
f 397/11/250 400/1/253 398/1/251
f 399/11/252 401/11/254 402/1/255
f 399/11/252 402/1/255 400/1/253
f 401/11/254 403/11/256 404/1/257
f 401/11/254 404/1/257 402/1/255
f 403/11/256 25/11/12 28/1/15
f 403/11/256 28/1/15 404/1/257
f 15/10/5 14/10/4 405/11/258
f 15/10/5 405/11/258 406/11/259
f 14/10/4 407/10/260 408/11/261
f 14/10/4 408/11/261 405/11/258
f 407/10/260 409/10/262 410/11/263
f 407/10/260 410/11/263 408/11/261
f 409/10/262 411/10/264 412/11/265
f 409/10/262 412/11/265 410/11/263
f 411/10/264 413/10/266 414/11/267
f 411/10/264 414/11/267 412/11/265
f 413/10/266 415/10/268 416/11/269
f 413/10/266 416/11/269 414/11/267
f 415/10/268 417/10/270 418/11/271
f 415/10/268 418/11/271 416/11/269
f 417/10/270 21/10/8 24/11/11
f 417/10/270 24/11/11 418/11/271
f 419/3/272 420/3/273 421/3/274
f 419/3/272 421/3/274 422/3/275
f 423/3/7 419/3/272 422/3/275
f 423/3/7 422/3/275 424/3/7
s 0
f 425/3/7 423/3/7 424/3/7
f 425/3/7 424/3/7 426/3/7
f 427/3/7 425/3/7 426/3/7
f 427/3/7 426/3/7 428/3/7
f 429/3/7 427/3/7 428/3/7
f 429/3/7 428/3/7 430/3/7
f 431/3/7 429/3/7 430/3/7
f 431/3/7 430/3/7 432/3/7
f 433/6/7 434/19/7 435/19/7
f 433/6/7 435/19/7 436/6/7
f 437/6/7 438/19/7 439/19/7
f 437/6/7 439/19/7 440/6/7
s 1
f 441/20/276 442/20/277 443/20/277
f 441/20/276 443/20/277 444/20/278
f 445/20/220 446/20/218 447/20/218
f 445/20/220 447/20/218 448/20/220
f 449/20/279 450/20/280 451/20/280
f 449/20/279 451/20/280 452/20/279
f 453/20/216 454/20/214 455/20/214
f 453/20/216 455/20/214 456/20/216
f 446/20/218 453/20/216 456/20/216
f 446/20/218 456/20/216 447/20/218
f 457/9/35 22/10/9 21/10/8
f 457/9/35 21/10/8 458/9/35
f 458/9/35 21/10/8 417/10/270
f 458/9/35 417/10/270 459/9/35
f 459/9/35 417/10/270 415/10/268
f 459/9/35 415/10/268 460/9/35
f 460/9/35 415/10/268 413/10/266
f 460/9/35 413/10/266 461/9/35
f 461/9/35 413/10/266 411/10/264
f 461/9/35 411/10/264 462/9/35
f 462/9/35 411/10/264 409/10/262
f 462/9/35 409/10/262 463/9/35
f 463/9/35 409/10/262 407/10/260
f 463/9/35 407/10/260 464/9/35
f 464/9/35 407/10/260 14/10/4
f 464/9/35 14/10/4 13/9/3
f 394/1/247 465/3/281 466/3/282
f 394/1/247 466/3/282 391/1/244
f 396/1/249 467/3/283 465/3/281
f 396/1/249 465/3/281 394/1/247
f 398/1/251 468/3/284 467/3/283
f 398/1/251 467/3/283 396/1/249
f 400/1/253 469/3/285 468/3/284
f 400/1/253 468/3/284 398/1/251
f 402/1/255 470/3/286 469/3/285
f 402/1/255 469/3/285 400/1/253
f 404/1/257 471/3/287 470/3/286
f 404/1/257 470/3/286 402/1/255
f 28/1/15 472/3/288 471/3/287
f 28/1/15 471/3/287 404/1/257
f 27/1/14 473/3/289 472/3/288
f 27/1/14 472/3/288 28/1/15
f 391/1/244 466/3/282 474/3/290
f 391/1/244 474/3/290 392/1/245
f 475/20/291 476/20/222 477/20/222
f 475/20/291 477/20/222 478/20/291
f 476/20/222 445/20/220 448/20/220
f 476/20/222 448/20/220 477/20/222
f 454/20/214 441/20/276 444/20/278
f 454/20/214 444/20/278 455/20/214
f 450/20/280 475/20/291 478/20/291
f 450/20/280 478/20/291 451/20/280
s 0
f 438/19/7 437/6/7 479/6/7
f 438/19/7 479/6/7 480/19/7
f 433/6/7 440/6/7 439/19/7
f 433/6/7 439/19/7 434/19/7
f 481/6/7 436/6/7 435/19/7
f 481/6/7 435/19/7 482/19/7
f 483/6/7 481/6/7 482/19/7
f 483/6/7 482/19/7 484/19/7
s 1
f 485/21/292 486/22/293 487/22/294
f 485/21/292 487/22/294 488/21/295
f 489/21/296 490/22/296 491/22/297
f 489/21/296 491/22/297 492/21/298
f 492/21/298 491/22/297 493/22/287
f 492/21/298 493/22/287 494/21/287
f 494/21/287 493/22/287 495/22/286
f 494/21/287 495/22/286 496/21/286
f 496/21/286 495/22/286 497/22/285
f 496/21/286 497/22/285 498/21/285
f 498/21/285 497/22/285 499/22/284
f 498/21/285 499/22/284 500/21/284
f 500/21/284 499/22/284 501/22/283
f 500/21/284 501/22/283 502/21/283
f 502/21/283 501/22/283 503/22/281
f 502/21/283 503/22/281 504/21/281
f 504/21/281 503/22/281 486/22/293
f 504/21/281 486/22/293 485/21/292
s 0
f 505/3/7 17/3/7 20/3/7
f 505/3/7 20/3/7 506/3/7
f 18/3/7 431/3/7 432/3/7
f 18/3/7 432/3/7 19/3/7
f 483/6/7 484/19/7 507/19/7
f 483/6/7 507/19/7 508/6/7
s 1
f 507/19/7 509/19/299 510/6/300
f 507/19/7 510/6/300 508/6/7
s 0
f 5/5/1 4/4/1 2/2/1
f 5/5/1 2/2/1 1/1/1
f 511/22/7 512/20/7 513/20/7
f 511/22/7 513/20/7 514/22/7
f 515/22/7 516/20/7 512/20/7
f 515/22/7 512/20/7 511/22/7
f 517/22/7 518/20/7 516/20/7
f 517/22/7 516/20/7 515/22/7
f 519/22/7 520/20/7 518/20/7
f 519/22/7 518/20/7 517/22/7
f 521/22/7 522/20/7 520/20/7
f 521/22/7 520/20/7 519/22/7
f 523/22/7 524/20/7 522/20/7
f 523/22/7 522/20/7 521/22/7
f 525/22/7 526/20/7 524/20/7
f 525/22/7 524/20/7 523/22/7
f 527/22/7 528/20/7 526/20/7
f 527/22/7 526/20/7 525/22/7
f 529/23/7 530/20/7 528/20/7
f 529/23/7 528/20/7 527/22/7
f 531/21/1 532/20/1 533/20/1
f 531/21/1 533/20/1 534/23/1
s 1
f 509/19/299 535/19/301 536/6/301
f 509/19/299 536/6/301 510/6/300
s 0
f 537/11/1 538/12/1 5/5/1
f 537/11/1 5/5/1 1/1/1
f 539/10/302 540/9/302 541/13/302
f 539/10/1 541/13/1 537/11/1
f 542/24/2 543/25/2 544/22/2
f 542/24/2 544/22/2 545/20/2
f 9/1/2 8/7/2 11/8/2
f 9/1/2 11/8/2 10/5/2
f 9/1/2 10/5/2 546/12/2
f 9/1/2 546/12/2 547/11/2
f 547/11/2 546/12/2 548/9/2
f 547/11/2 548/9/2 549/10/2
f 550/16/2 551/14/2 552/14/2
f 550/16/2 552/14/2 553/15/2
f 554/16/7 555/15/7 556/14/7
f 554/16/7 556/14/7 557/14/7
f 558/26/35 559/27/35 560/26/35
f 559/27/35 558/26/35 561/15/35
f 559/27/35 561/15/35 562/15/35
f 559/27/35 562/15/35 563/27/35
s 1
f 563/27/35 562/15/35 564/15/303
f 563/27/35 564/15/303 565/16/35
f 565/16/35 564/15/303 566/16/304
f 565/16/35 566/16/304 567/16/35
f 568/14/305 569/14/305 570/14/305
f 569/14/305 568/14/305 571/14/305
f 571/14/305 568/14/305 572/14/305
f 572/14/305 568/14/305 573/14/305
f 572/14/305 573/14/305 574/14/305
f 574/14/305 573/14/305 575/14/305
f 574/14/305 575/14/305 576/14/305
f 576/14/305 575/14/305 577/14/305
f 576/14/305 577/14/305 578/14/305
f 576/14/305 578/14/305 579/14/305
f 576/14/305 579/14/305 580/14/305
f 580/14/305 579/14/305 581/16/305
s 0
f 582/15/35 583/26/35 584/26/35
f 583/26/35 582/15/35 585/27/35
f 585/27/35 582/15/35 586/15/35
s 1
f 585/27/35 586/15/35 587/15/306
f 585/27/35 587/15/306 588/16/307
f 585/27/35 588/16/307 589/27/35
f 589/27/35 588/16/307 590/16/35
f 590/16/35 588/16/307 591/16/35
f 592/14/308 593/14/308 594/14/308
f 593/14/308 592/14/308 595/14/309
f 593/14/308 595/14/309 596/14/308
f 596/14/308 595/14/309 597/14/308
f 597/14/308 595/14/309 598/14/309
f 598/14/309 595/14/309 599/14/308
f 599/14/308 595/14/309 600/16/308
f 600/16/308 595/14/309 601/14/308
f 600/16/308 601/14/308 602/14/308
f 600/16/308 602/14/308 603/14/308
f 600/16/308 603/14/308 604/14/308
f 600/16/308 604/14/308 605/14/309
s 0
f 606/15/35 607/26/35 608/15/35
f 607/26/35 606/15/35 609/26/35
s 1
f 609/26/35 606/15/35 610/15/310
f 609/26/35 610/15/310 611/27/35
f 611/27/35 610/15/310 612/16/311
f 611/27/35 612/16/311 613/27/35
f 613/27/35 612/16/311 614/16/35
f 614/16/35 612/16/311 615/16/35
f 616/14/312 617/14/312 618/14/312
f 617/14/312 616/14/312 619/14/312
f 617/14/312 619/14/312 620/14/312
f 620/14/312 619/14/312 621/14/312
f 620/14/312 621/14/312 622/14/313
f 622/14/313 621/14/312 623/14/312
f 623/14/312 621/14/312 624/16/312
f 624/16/312 621/14/312 625/14/312
f 624/16/312 625/14/312 626/14/312
f 624/16/312 626/14/312 627/14/312
f 624/16/312 627/14/312 628/14/312
f 624/16/312 628/14/312 629/14/314
s 0
f 630/15/35 631/26/35 632/15/35
s 1
f 631/26/35 630/15/35 633/15/315
f 631/26/35 633/15/315 634/26/35
f 634/26/35 633/15/315 635/16/316
f 634/26/35 635/16/316 636/27/35
f 636/27/35 635/16/316 637/27/35
f 637/27/35 635/16/316 638/16/35
f 638/16/35 635/16/316 639/16/35
f 640/14/317 641/14/317 642/14/317
f 641/14/317 640/14/317 643/14/317
f 643/14/317 640/14/317 644/14/317
f 643/14/317 644/14/317 645/14/317
f 645/14/317 644/14/317 646/14/317
f 645/14/317 646/14/317 647/14/317
f 647/14/317 646/14/317 648/16/317
f 648/16/317 646/14/317 649/14/317
f 648/16/317 649/14/317 650/14/317
f 648/16/317 650/14/317 651/14/317
f 648/16/317 651/14/317 652/14/317
f 648/16/317 652/14/317 653/14/318
f 654/15/319 655/15/35 656/15/35
f 655/15/35 654/15/319 657/26/35
f 657/26/35 654/15/319 658/16/320
f 657/26/35 658/16/320 659/26/35
f 659/26/35 658/16/320 660/27/35
f 660/27/35 658/16/320 661/27/35
f 661/27/35 658/16/320 662/16/35
f 662/16/35 658/16/320 663/16/35
f 664/14/321 665/14/322 666/14/321
f 665/14/322 664/14/321 667/14/321
f 665/14/322 667/14/321 668/14/321
f 668/14/321 667/14/321 669/14/323
f 668/14/321 669/14/323 670/14/321
f 668/14/321 670/14/321 671/14/321
f 671/14/321 670/14/321 672/16/321
f 672/16/321 670/14/321 673/14/321
f 672/16/321 673/14/321 674/14/321
f 672/16/321 674/14/321 675/14/321
f 672/16/321 675/14/321 676/14/321
f 672/16/321 676/14/321 677/14/321
f 678/15/324 679/15/35 680/15/35
f 679/15/35 678/15/324 681/16/325
f 679/15/35 681/16/325 682/26/35
f 682/26/35 681/16/325 683/26/35
f 683/26/35 681/16/325 684/27/35
f 684/27/35 681/16/325 685/27/35
f 685/27/35 681/16/325 686/16/35
f 686/16/35 681/16/325 687/16/35
f 688/14/326 689/14/326 690/14/326
f 689/14/326 688/14/326 691/14/326
f 691/14/326 688/14/326 692/14/326
f 691/14/326 692/14/326 693/14/326
f 691/14/326 693/14/326 694/14/326
f 691/14/326 694/14/326 695/14/326
f 695/14/326 694/14/326 696/16/326
f 696/16/326 694/14/326 697/14/326
f 696/16/326 697/14/326 698/14/326
f 696/16/326 698/14/326 699/14/326
f 696/16/326 699/14/326 700/14/326
f 696/16/326 700/14/326 701/17/326
f 702/16/327 703/15/35 704/15/328
f 703/15/35 702/16/327 705/15/35
f 705/15/35 702/16/327 706/26/35
f 706/26/35 702/16/327 707/26/35
f 707/26/35 702/16/327 708/27/35
f 708/27/35 702/16/327 709/27/35
f 709/27/35 702/16/327 710/16/35
f 710/16/35 702/16/327 711/16/35
f 712/14/329 713/14/329 714/14/329
f 713/14/329 712/14/329 715/14/329
f 713/14/329 715/14/329 716/14/329
f 713/14/329 716/14/329 717/14/329
f 717/14/329 716/14/329 718/16/329
f 718/16/329 716/14/329 719/14/329
f 718/16/329 719/14/329 720/14/329
f 718/16/329 720/14/329 721/14/329
f 718/16/329 721/14/329 722/14/329
f 718/16/329 722/14/329 723/14/329
f 718/16/329 723/14/329 724/14/329
f 718/16/329 724/14/329 725/18/329
