# Blender 5.2.0 LTS
# www.blender.org
mtllib 14_Trashcan_AIRPORT_0.mtl
o 14.Trashcan_AIRPORT_0
v 0.197837 0.107916 -0.387592
v 0.201366 0.107916 -0.386652
v 0.199876 0.107916 -0.381589
v -0.203102 0.107916 -0.386382
v -0.199628 0.107916 -0.387508
v -0.203009 0.107916 -0.381589
v 0.203941 0.107916 -0.384061
v 0.204895 0.107916 -0.380537
v -0.205385 0.107916 -0.383784
v -0.206066 0.107916 -0.380702
v -0.146938 0.352354 -0.322449
v -0.145629 0.352354 -0.327117
v -0.192690 0.352354 -0.379220
v -0.138150 0.352354 -0.042695
v -0.142295 0.352354 -0.044144
v -0.192690 0.352354 -0.000000
v 0.077889 0.352354 -0.052825
v 0.076417 0.352354 -0.047655
v 0.134112 0.352354 -0.000000
v -0.145688 0.352354 -0.047738
v -0.146981 0.352354 -0.052558
v -0.142264 0.352354 -0.330641
v -0.138128 0.352354 -0.332067
v 0.076337 0.352354 -0.327237
v 0.077828 0.352354 -0.322283
v 0.134112 0.352354 -0.379220
v 0.072491 0.352354 -0.330996
v 0.072530 0.352354 -0.043796
v 0.067240 0.352354 -0.042377
v 0.067254 0.352354 -0.332377
v 0.197837 0.107916 0.387592
v 0.199876 0.107916 0.381589
v 0.201366 0.107916 0.386652
v -0.203102 0.107916 0.386382
v -0.203009 0.107916 0.381589
v -0.199628 0.107916 0.387508
v 0.203941 0.107916 0.384061
v 0.204895 0.107916 0.380537
v -0.205385 0.107916 0.383784
v -0.206066 0.107916 0.380702
v -0.146938 0.352355 0.322449
v -0.192690 0.352355 0.379220
v -0.145629 0.352355 0.327117
v -0.138150 0.352354 0.042695
v -0.192690 0.352354 -0.000000
v -0.142295 0.352354 0.044144
v 0.077889 0.352354 0.052825
v 0.134112 0.352354 -0.000000
v 0.076417 0.352354 0.047655
v -0.145688 0.352354 0.047738
v -0.146981 0.352354 0.052558
v -0.142264 0.352355 0.330640
v -0.138128 0.352355 0.332067
v 0.076337 0.352355 0.327237
v 0.134112 0.352355 0.379220
v 0.077828 0.352355 0.322283
v 0.072491 0.352355 0.330996
v 0.072530 0.352354 0.043796
v 0.067240 0.352354 0.042377
v 0.067254 0.352355 0.332377
v -0.203009 -0.306106 -0.381589
v -0.203009 0.107916 -0.381589
v 0.199876 0.107916 -0.381589
v 0.199876 -0.306106 -0.381589
v -0.203009 -0.306106 0.000000
v -0.203009 0.107916 -0.000000
v -0.203009 0.107916 -0.381589
v -0.203009 -0.306106 -0.381589
v 0.199876 0.107916 -0.000000
v 0.204905 0.107916 -0.000000
v 0.153627 -0.352355 -0.335341
v -0.156760 -0.352355 -0.335341
v -0.169628 -0.334523 -0.348209
v 0.166495 -0.334523 -0.348209
v -0.185177 -0.318974 -0.363758
v 0.182044 -0.318974 -0.363758
v -0.203009 -0.306106 -0.381589
v 0.199876 -0.306106 -0.381589
v 0.153627 -0.352354 0.000000
v 0.153627 -0.352355 -0.335341
v 0.166495 -0.334523 -0.348209
v 0.166495 -0.334523 0.000000
v 0.182044 -0.318974 -0.363758
v 0.182044 -0.318974 0.000000
v 0.199876 -0.306106 -0.381589
v 0.199876 -0.306106 0.000000
v -0.156760 -0.352354 0.000000
v -0.156760 -0.352355 -0.335341
v 0.153627 -0.352355 -0.335341
v 0.153627 -0.352354 0.000000
v 0.163604 0.346488 -0.379220
v 0.163604 0.346488 -0.000000
v 0.188606 0.329782 -0.000000
v 0.188606 0.329782 -0.379220
v -0.211178 0.113946 -0.379220
v -0.211178 0.113947 -0.000000
v -0.211178 0.333866 -0.000000
v -0.211178 0.333866 -0.379220
v 0.195282 0.113946 -0.395116
v 0.195282 0.273723 -0.395116
v 0.203230 0.274506 -0.392986
v 0.203230 0.113946 -0.392986
v -0.208701 0.343110 -0.000000
v -0.208701 0.343110 -0.379220
v 0.205312 0.304781 -0.000000
v 0.205312 0.304780 -0.379220
v 0.211178 0.113947 -0.000000
v 0.211178 0.113946 -0.379220
v 0.211178 0.275289 -0.379220
v 0.211178 0.275289 -0.000000
v -0.185177 -0.318974 -0.363758
v -0.185177 -0.318974 0.000000
v -0.203009 -0.306106 0.000000
v -0.203009 -0.306106 -0.381589
v -0.169628 -0.334523 -0.348209
v -0.169628 -0.334523 0.000000
v -0.156760 -0.352355 -0.335341
v -0.156760 -0.352354 0.000000
v 0.199876 -0.306106 -0.381589
v 0.199876 0.107916 -0.381589
v 0.199876 0.107916 -0.000000
v 0.199876 -0.306106 0.000000
v -0.201934 0.349878 -0.000000
v -0.201934 0.349877 -0.379220
v -0.208701 0.343110 -0.000000
v 0.209048 0.113946 -0.387168
v 0.209048 0.275079 -0.387168
v -0.209049 0.333586 -0.387168
v -0.209049 0.113946 -0.387168
v 0.203230 0.113946 -0.392986
v 0.203230 0.274506 -0.392986
v 0.209048 0.113946 -0.387168
v -0.203230 0.332820 -0.392986
v -0.203230 0.113946 -0.392986
v -0.209049 0.113946 -0.387168
v -0.209049 0.333586 -0.387168
v -0.195282 0.331773 -0.395116
v -0.195282 0.113946 -0.395116
v -0.203230 0.113946 -0.392986
v 0.157402 0.331514 -0.395116
v 0.132547 0.336458 -0.395116
v 0.133330 0.344406 -0.392986
v 0.160503 0.339001 -0.392986
v 0.160503 0.339001 -0.392986
v 0.133330 0.344406 -0.392986
v 0.133903 0.350225 -0.387168
v 0.162773 0.344482 -0.387168
v 0.177146 0.318322 -0.395116
v 0.182876 0.324052 -0.392986
v 0.182876 0.324052 -0.392986
v 0.187071 0.328247 -0.387168
v 0.187071 0.328247 -0.387168
v 0.190338 0.298578 -0.395116
v 0.197825 0.301679 -0.392986
v 0.197825 0.301679 -0.392986
v 0.203306 0.303949 -0.387168
v -0.190597 0.336458 -0.395116
v -0.193706 0.335625 -0.395116
v -0.197820 0.342751 -0.392986
v -0.191644 0.344406 -0.392986
v -0.191644 0.344406 -0.392986
v -0.197820 0.342751 -0.392986
v -0.200832 0.347968 -0.387168
v -0.192410 0.350225 -0.387168
v -0.194449 0.334882 -0.395116
v -0.201575 0.338996 -0.392986
v -0.206792 0.342008 -0.387168
v -0.206792 0.342008 -0.387168
v 0.071084 0.284707 -0.307378
v 0.071084 0.341616 -0.307378
v 0.068511 0.341616 -0.316980
v 0.068511 0.284707 -0.316980
v 0.061482 0.341616 -0.324009
v 0.061482 0.284707 -0.324009
v -0.136160 0.341616 -0.057352
v -0.136160 0.284707 -0.057352
v -0.138733 0.284707 -0.066953
v -0.138733 0.341616 -0.066953
v -0.119529 0.284707 -0.326581
v -0.119529 0.341616 -0.326581
v -0.129131 0.341616 -0.324009
v -0.129131 0.284707 -0.324009
v 0.051880 0.341616 -0.326581
v 0.051880 0.284707 -0.326581
v 0.071084 0.341616 -0.066953
v 0.071084 0.284707 -0.066953
v -0.136160 0.284707 -0.316980
v -0.136160 0.341616 -0.316980
v -0.138733 0.341616 -0.307378
v -0.138733 0.284707 -0.307378
v -0.136160 0.284707 -0.316980
v -0.119529 0.341616 -0.047750
v -0.119529 0.284707 -0.047750
v -0.129131 0.284707 -0.050323
v -0.129131 0.341616 -0.050323
v -0.136160 0.284707 -0.057352
v 0.068511 0.284707 -0.057352
v 0.068511 0.341616 -0.057352
v 0.061482 0.284707 -0.050323
v 0.061482 0.341616 -0.050323
v 0.051880 0.341616 -0.047750
v 0.051880 0.284707 -0.047750
v 0.063977 0.346985 -0.324559
v 0.053940 0.346985 -0.327358
v 0.068007 0.350916 -0.327117
v 0.059567 0.350916 -0.329479
v 0.059567 0.350916 -0.329479
v 0.069271 0.346985 -0.319178
v 0.072136 0.350916 -0.322932
v 0.071987 0.346985 -0.309375
v 0.074456 0.350916 -0.314831
v 0.074456 0.350916 -0.314831
v -0.137248 0.346985 -0.318950
v -0.139832 0.346985 -0.309397
v -0.140713 0.350916 -0.322661
v -0.142835 0.350916 -0.314914
v -0.132169 0.346985 -0.324393
v -0.136976 0.350916 -0.326821
v -0.122021 0.346985 -0.327316
v -0.132169 0.346985 -0.324393
v -0.128829 0.350916 -0.329324
v -0.128829 0.350916 -0.329324
v -0.132253 0.346985 -0.050037
v -0.122024 0.346985 -0.047073
v -0.137072 0.350916 -0.047776
v -0.128839 0.350916 -0.045223
v -0.128839 0.350916 -0.045223
v -0.137285 0.346985 -0.055509
v -0.140773 0.350916 -0.051990
v -0.139838 0.346985 -0.065025
v -0.142857 0.350916 -0.059756
v 0.069317 0.346985 -0.055299
v 0.071996 0.346985 -0.065060
v 0.072211 0.350916 -0.051750
v 0.074486 0.350916 -0.059889
v 0.074486 0.350916 -0.059889
v 0.064058 0.346985 -0.049871
v 0.068101 0.350916 -0.047482
v 0.053938 0.346985 -0.047030
v 0.059560 0.350916 -0.045063
v 0.059560 0.350916 -0.045063
v 0.068511 0.284707 -0.316980
v 0.061482 0.284707 -0.324009
v 0.051880 0.284707 -0.326581
v 0.071084 0.284707 -0.307378
v -0.136160 0.284707 -0.057352
v -0.129131 0.284707 -0.050323
v -0.119529 0.284707 -0.047750
v -0.138733 0.284707 -0.066953
v 0.051880 0.284707 -0.047750
v 0.071084 0.284707 -0.066953
v 0.061482 0.284707 -0.050323
v 0.068511 0.284707 -0.057352
v -0.119529 0.284707 -0.326581
v -0.138733 0.284707 -0.307378
v -0.129131 0.284707 -0.324009
v -0.136160 0.284707 -0.316980
v 0.195282 0.113946 -0.395116
v 0.203230 0.113946 -0.392986
v 0.201366 0.107916 -0.386652
v 0.197837 0.107916 -0.387592
v 0.209048 0.113946 -0.387168
v 0.203941 0.107916 -0.384061
v 0.211178 0.113946 -0.379220
v 0.204895 0.107916 -0.380537
v -0.211178 0.113946 -0.379220
v -0.209049 0.113946 -0.387168
v -0.205385 0.107916 -0.383784
v -0.206066 0.107916 -0.380702
v -0.203230 0.113946 -0.392986
v -0.203102 0.107916 -0.386382
v -0.195282 0.113946 -0.395116
v -0.199628 0.107916 -0.387508
v 0.204905 0.107916 -0.000000
v 0.211178 0.113947 -0.000000
v -0.211178 0.113947 -0.000000
v -0.206030 0.107916 -0.000000
v -0.203009 0.107916 -0.000000
v -0.206030 0.107916 -0.000000
v -0.203009 -0.306106 0.381589
v 0.199876 -0.306106 0.381589
v 0.199876 0.107916 0.381589
v -0.203009 0.107916 0.381589
v -0.203009 -0.306106 0.381589
v -0.203009 0.107916 0.381589
v 0.199876 0.107916 -0.000000
v 0.204905 0.107916 -0.000000
v 0.153627 -0.352354 0.335341
v 0.166495 -0.334523 0.348209
v -0.169628 -0.334523 0.348209
v -0.156760 -0.352354 0.335341
v 0.182044 -0.318974 0.363758
v -0.185177 -0.318974 0.363758
v 0.199876 -0.306106 0.381589
v -0.203009 -0.306106 0.381589
v 0.166495 -0.334523 0.348209
v 0.153627 -0.352354 0.335341
v 0.182044 -0.318974 0.363758
v 0.199876 -0.306106 0.381589
v 0.153627 -0.352354 0.335341
v -0.156760 -0.352354 0.335341
v 0.163604 0.346488 0.379220
v 0.188606 0.329783 0.379220
v 0.188606 0.329782 -0.000000
v 0.163604 0.346488 -0.000000
v -0.211178 0.113947 0.379220
v -0.211178 0.333867 0.379220
v -0.211178 0.333866 -0.000000
v -0.211178 0.113947 -0.000000
v 0.195282 0.113947 0.395116
v 0.203230 0.113947 0.392986
v 0.203230 0.274506 0.392986
v 0.195282 0.273723 0.395116
v -0.208701 0.343110 -0.000000
v -0.208701 0.343111 0.379220
v 0.205312 0.304781 0.379220
v 0.205312 0.304781 -0.000000
v 0.188606 0.329782 -0.000000
v 0.211178 0.113947 -0.000000
v 0.211178 0.275289 -0.000000
v 0.211178 0.275289 0.379220
v 0.211178 0.113947 0.379220
v -0.185177 -0.318974 0.363758
v -0.203009 -0.306106 0.381589
v -0.169628 -0.334523 0.348209
v -0.156760 -0.352354 0.335341
v 0.199876 -0.306106 0.381589
v 0.199876 0.107916 0.381589
v -0.201934 0.349878 -0.000000
v -0.208701 0.343110 -0.000000
v -0.201934 0.349878 0.379220
v -0.201934 0.349878 -0.000000
v 0.209049 0.113947 0.387168
v 0.209048 0.275079 0.387168
v -0.209049 0.333586 0.387168
v -0.209049 0.113947 0.387168
v 0.203230 0.113947 0.392986
v 0.209049 0.113947 0.387168
v 0.203230 0.274506 0.392986
v -0.203230 0.332820 0.392986
v -0.209049 0.333586 0.387168
v -0.209049 0.113947 0.387168
v -0.203230 0.113947 0.392986
v -0.195282 0.331774 0.395116
v -0.203230 0.113947 0.392986
v -0.195282 0.113947 0.395116
v 0.157402 0.331515 0.395116
v 0.160503 0.339001 0.392986
v 0.133330 0.344406 0.392986
v 0.132547 0.336458 0.395116
v 0.160503 0.339001 0.392986
v 0.162773 0.344482 0.387168
v 0.133903 0.350225 0.387168
v 0.133330 0.344406 0.392986
v 0.177146 0.318322 0.395116
v 0.182876 0.324052 0.392986
v 0.182876 0.324052 0.392986
v 0.187071 0.328247 0.387168
v 0.187071 0.328247 0.387168
v 0.190338 0.298578 0.395116
v 0.197825 0.301679 0.392986
v 0.197825 0.301679 0.392986
v 0.203306 0.303950 0.387168
v -0.190597 0.336458 0.395116
v -0.191644 0.344406 0.392986
v -0.197820 0.342752 0.392986
v -0.193706 0.335626 0.395116
v -0.191644 0.344406 0.392986
v -0.192410 0.350225 0.387168
v -0.200832 0.347968 0.387168
v -0.197820 0.342752 0.392986
v -0.201575 0.338996 0.392986
v -0.194449 0.334882 0.395116
v -0.206792 0.342008 0.387168
v -0.206792 0.342008 0.387168
v 0.071084 0.284707 0.307378
v 0.068511 0.284707 0.316980
v 0.068511 0.341616 0.316980
v 0.071084 0.341616 0.307378
v 0.061482 0.284707 0.324008
v 0.061482 0.341616 0.324008
v -0.136160 0.341616 0.057351
v -0.138733 0.341616 0.066953
v -0.138733 0.284707 0.066953
v -0.136160 0.284707 0.057351
v -0.119529 0.284707 0.326581
v -0.129131 0.284707 0.324008
v -0.129131 0.341616 0.324008
v -0.119529 0.341616 0.326581
v 0.051880 0.284707 0.326581
v 0.051880 0.341616 0.326581
v 0.071084 0.341616 0.066953
v 0.071084 0.284707 0.066953
v -0.136160 0.284707 0.316980
v -0.138733 0.284707 0.307378
v -0.138733 0.341616 0.307378
v -0.136160 0.341616 0.316980
v -0.136160 0.284707 0.316980
v -0.119529 0.341616 0.047750
v -0.129131 0.341616 0.050322
v -0.129131 0.284707 0.050322
v -0.119529 0.284707 0.047750
v -0.136160 0.284707 0.057351
v 0.068511 0.341616 0.057351
v 0.068511 0.284707 0.057351
v 0.061482 0.341616 0.050322
v 0.061482 0.284707 0.050322
v 0.051880 0.284707 0.047750
v 0.051880 0.341616 0.047750
v 0.053940 0.346985 0.327358
v 0.063977 0.346985 0.324559
v 0.059567 0.350916 0.329479
v 0.068007 0.350916 0.327117
v 0.059567 0.350916 0.329479
v 0.069271 0.346985 0.319177
v 0.072136 0.350916 0.322932
v 0.071987 0.346985 0.309375
v 0.074456 0.350916 0.314830
v 0.074456 0.350916 0.314830
v -0.139832 0.346985 0.309397
v -0.137248 0.346985 0.318950
v -0.142835 0.350916 0.314913
v -0.140713 0.350916 0.322661
v -0.132169 0.346985 0.324393
v -0.136976 0.350916 0.326820
v -0.132169 0.346985 0.324393
v -0.122021 0.346985 0.327316
v -0.128829 0.350916 0.329324
v -0.128829 0.350916 0.329324
v -0.122024 0.346985 0.047072
v -0.132253 0.346985 0.050037
v -0.128839 0.350916 0.045222
v -0.137072 0.350916 0.047776
v -0.128839 0.350916 0.045222
v -0.137285 0.346985 0.055509
v -0.140773 0.350916 0.051990
v -0.139838 0.346985 0.065024
v -0.142857 0.350916 0.059756
v 0.071996 0.346985 0.065060
v 0.069317 0.346985 0.055299
v 0.074486 0.350916 0.059889
v 0.072211 0.350916 0.051750
v 0.074486 0.350916 0.059889
v 0.064058 0.346985 0.049871
v 0.068101 0.350916 0.047482
v 0.053938 0.346985 0.047030
v 0.059560 0.350916 0.045063
v 0.059560 0.350916 0.045063
v 0.068511 0.284707 0.316980
v 0.071084 0.284707 0.307378
v 0.051880 0.284707 0.326581
v 0.061482 0.284707 0.324008
v -0.136160 0.284707 0.057351
v -0.138733 0.284707 0.066953
v -0.119529 0.284707 0.047750
v -0.129131 0.284707 0.050322
v 0.071084 0.284707 0.066953
v 0.051880 0.284707 0.047750
v 0.061482 0.284707 0.050322
v 0.068511 0.284707 0.057351
v -0.138733 0.284707 0.307378
v -0.119529 0.284707 0.326581
v -0.129131 0.284707 0.324008
v -0.136160 0.284707 0.316980
v 0.195282 0.113947 0.395116
v 0.197837 0.107916 0.387592
v 0.201366 0.107916 0.386652
v 0.203230 0.113947 0.392986
v 0.203941 0.107916 0.384061
v 0.209049 0.113947 0.387168
v 0.204895 0.107916 0.380537
v 0.211178 0.113947 0.379220
v -0.211178 0.113947 0.379220
v -0.206066 0.107916 0.380702
v -0.205385 0.107916 0.383784
v -0.209049 0.113947 0.387168
v -0.203102 0.107916 0.386382
v -0.203230 0.113947 0.392986
v -0.199628 0.107916 0.387508
v -0.195282 0.113947 0.395116
v 0.204905 0.107916 -0.000000
v 0.211178 0.113947 -0.000000
v -0.211178 0.113947 -0.000000
v -0.206030 0.107916 -0.000000
v -0.206030 0.107916 -0.000000
v -0.203009 0.107916 -0.000000
vn -0.0000 -1.0000 -0.0000
vn 0.1131 0.9933 0.0237
vn 0.0795 0.9957 0.0472
vn -0.1294 0.9830 -0.1302
vn 0.0335 0.9913 -0.1270
vn 0.0572 0.9952 -0.0798
vn -0.1305 0.9914 -0.0000
vn -0.1294 0.9912 -0.0280
vn -0.0876 0.9947 -0.0547
vn 0.0980 0.9952 -0.0000
vn 0.0814 0.9956 -0.0474
vn 0.1155 0.9930 -0.0233
vn 0.0554 0.9954 0.0782
vn 0.0319 0.9919 0.1231
vn -0.0853 0.9948 0.0550
vn -0.1261 0.9916 0.0283
vn 0.0972 0.9867 -0.1301
vn -0.0556 0.9946 0.0874
vn -0.0575 0.9944 -0.0891
vn -0.0318 0.9891 -0.1439
vn -0.0300 0.9898 0.1389
vn 0.1130 0.9933 -0.0237
vn -0.1294 0.9830 0.1302
vn 0.0794 0.9957 -0.0472
vn 0.0335 0.9913 0.1270
vn 0.0572 0.9952 0.0799
vn -0.1294 0.9912 0.0280
vn -0.0876 0.9947 0.0547
vn 0.0814 0.9956 0.0469
vn 0.1155 0.9930 0.0233
vn 0.0551 0.9954 -0.0783
vn 0.0320 0.9919 -0.1231
vn -0.0853 0.9949 -0.0546
vn 0.0972 0.9867 0.1301
vn -0.1261 0.9916 -0.0283
vn -0.0556 0.9946 -0.0873
vn -0.0575 0.9944 0.0891
vn -0.0318 0.9891 0.1440
vn -0.0301 0.9899 -0.1388
vn -0.0000 -0.0000 -1.0000
vn -1.0000 -0.0000 -0.0000
vn -0.0000 -0.5852 -0.8109
vn -0.0000 -0.6697 -0.7427
vn -0.0000 -0.7821 -0.6232
vn -0.0000 -0.8109 -0.5852
vn 0.8109 -0.5852 -0.0000
vn 0.7427 -0.6697 -0.0000
vn 0.7614 -0.6482 -0.0000
vn 0.6232 -0.7821 -0.0000
vn 0.6482 -0.7614 -0.0000
vn 0.5852 -0.8109 -0.0000
vn 0.3794 0.9159 -0.1308
vn 0.3827 0.9239 -0.0000
vn 0.7071 0.7071 -0.0000
vn 0.7010 0.7010 -0.1308
vn -0.9914 -0.0000 -0.1305
vn -0.9914 0.1305 -0.0000
vn -0.9830 0.1294 -0.1302
vn 0.1305 -0.0000 -0.9914
vn 0.1372 0.0135 -0.9904
vn 0.2564 0.0253 -0.9662
vn 0.2588 -0.0000 -0.9659
vn -0.9659 0.2588 -0.0000
vn -0.8584 0.4956 -0.1320
vn 0.9239 0.3827 -0.0000
vn 0.9159 0.3794 -0.1308
vn 1.0000 -0.0000 -0.0000
vn 0.9914 -0.0000 -0.1305
vn 0.9867 0.0972 -0.1301
vn 0.9952 0.0980 -0.0000
vn -0.6232 -0.7821 -0.0000
vn -0.6482 -0.7614 -0.0000
vn -0.5852 -0.8109 -0.0000
vn -0.7427 -0.6697 -0.0000
vn -0.7614 -0.6482 -0.0000
vn -0.8109 -0.5852 -0.0000
vn -0.5000 0.8660 -0.0000
vn -0.4956 0.8584 -0.1320
vn -0.7071 0.7071 -0.0000
vn 0.9659 -0.0000 -0.2588
vn 0.8649 0.0852 -0.4947
vn -0.9571 0.1260 -0.2609
vn -0.9659 -0.0000 -0.2588
vn 0.7071 -0.0000 -0.7071
vn 0.7020 0.0691 -0.7088
vn -0.5086 0.0670 -0.8584
vn -0.7071 -0.0000 -0.7071
vn -0.6980 0.0919 -0.7101
vn -0.1388 0.0183 -0.9901
vn -0.1305 -0.0000 -0.9914
vn -0.2588 -0.0000 -0.9659
vn 0.0550 0.1329 -0.9896
vn 0.0135 0.1372 -0.9904
vn 0.0253 0.2564 -0.9662
vn 0.0973 0.2348 -0.9672
vn 0.2680 0.6469 -0.7139
vn 0.0691 0.7020 -0.7088
vn 0.0852 0.8649 -0.4947
vn 0.3330 0.8040 -0.4926
vn 0.1017 0.1017 -0.9896
vn 0.1797 0.1797 -0.9672
vn 0.4951 0.4951 -0.7139
vn 0.6821 0.6821 -0.2635
vn 0.1329 0.0550 -0.9896
vn 0.2348 0.0973 -0.9672
vn 0.6469 0.2680 -0.7139
vn 0.8040 0.3330 -0.4926
vn -0.0183 0.1388 -0.9901
vn -0.0734 0.1272 -0.9892
vn -0.1253 0.2170 -0.9681
vn -0.0335 0.2546 -0.9665
vn -0.0919 0.6980 -0.7101
vn -0.3474 0.6017 -0.7193
vn -0.4350 0.7534 -0.4931
vn -0.1135 0.8622 -0.4936
vn -0.1272 0.0734 -0.9892
vn -0.4500 0.2598 -0.8544
vn -0.6017 0.3474 -0.7193
vn -0.8345 0.4818 -0.2673
vn -0.9914 -0.0000 0.1305
vn -0.9880 0.1011 0.1170
vn -0.8661 0.1591 0.4740
vn -0.8660 -0.0000 0.5000
vn -0.4717 0.1516 0.8686
vn -0.5000 -0.0000 0.8660
vn 0.8623 0.1769 -0.4745
vn 0.9859 0.1197 -0.1166
vn 0.1305 -0.0000 0.9914
vn 0.1147 0.0888 0.9894
vn 0.4682 0.1578 0.8694
vn 0.5000 -0.0000 0.8660
vn -0.1167 0.0885 0.9892
vn -0.1305 -0.0000 0.9914
vn -0.9879 0.1012 -0.1175
vn 0.9659 -0.0000 0.2588
vn 0.8625 0.1783 0.4737
vn 0.9860 0.1196 0.1163
vn 0.9914 -0.0000 0.1305
vn 0.7071 -0.0000 0.7071
vn 0.1153 0.0833 -0.9898
vn 0.5000 -0.0000 -0.8660
vn 0.4680 0.1526 -0.8705
vn -0.8660 -0.0000 -0.5000
vn -0.8658 0.1576 -0.4748
vn -0.5000 -0.0000 -0.8660
vn -0.4715 0.1462 -0.8697
vn -0.1169 0.0829 -0.9897
vn -0.4155 0.5555 0.7202
vn -0.1042 0.3693 0.9234
vn -0.2284 0.8959 0.3809
vn -0.1561 0.6305 0.7604
vn -0.0140 0.9070 0.4208
vn -0.7146 0.5673 0.4093
vn -0.3736 0.9002 0.2239
vn -0.9044 0.4139 0.1040
vn -0.7336 0.6630 0.1491
vn -0.3624 0.9319 0.0157
vn 0.6969 0.6037 0.3872
vn 0.8767 0.4703 0.1008
vn 0.3533 0.9140 0.1993
vn 0.4976 0.8644 0.0718
vn 0.4397 0.6405 0.6296
vn 0.2262 0.9101 0.3473
vn 0.1062 0.3724 0.9220
vn 0.2608 0.2320 0.9371
vn 0.1670 0.6554 0.7365
vn 0.0144 0.9076 0.4196
vn 0.4230 0.5721 -0.7027
vn 0.1069 0.3529 -0.9295
vn 0.2327 0.9064 -0.3524
vn 0.1720 0.6397 -0.7491
vn 0.0146 0.8948 -0.4463
vn 0.7019 0.5985 -0.3862
vn 0.3602 0.9113 -0.1995
vn 0.8770 0.4698 -0.1006
vn 0.5007 0.8627 -0.0709
vn -0.7202 0.5608 -0.4084
vn -0.9048 0.4131 -0.1036
vn -0.3822 0.8965 -0.2242
vn -0.7392 0.6574 -0.1464
vn -0.3627 0.9318 -0.0158
vn -0.4217 0.5445 -0.7251
vn -0.2358 0.8912 -0.3875
vn -0.1049 0.3498 -0.9309
vn -0.1610 0.6129 -0.7736
vn -0.0142 0.8942 -0.4475
vn -0.0000 1.0000 -0.0000
vn 0.0661 -0.7685 -0.6365
vn 0.3269 -0.7309 -0.5992
vn 0.3648 -0.7259 -0.5831
vn 0.1061 -0.7585 -0.6430
vn 0.6144 -0.7037 -0.3568
vn 0.6165 -0.7035 -0.3535
vn 0.6989 -0.7109 -0.0788
vn 0.6997 -0.7061 -0.1085
vn -0.7721 -0.6302 -0.0817
vn -0.6733 -0.6253 -0.3946
vn -0.6949 -0.6225 -0.3601
vn -0.7748 -0.6217 -0.1149
vn -0.3349 -0.6982 -0.6328
vn -0.4268 -0.6750 -0.6019
vn -0.0619 -0.7654 -0.6405
vn -0.1260 -0.7446 -0.6555
vn 0.6927 -0.7213 -0.0000
vn 0.6930 -0.7209 -0.0000
vn -0.7617 -0.6480 -0.0000
vn -0.0000 -0.0000 1.0000
vn -0.0000 -0.5852 0.8109
vn -0.0000 -0.6697 0.7427
vn -0.0000 -0.7821 0.6232
vn -0.0000 -0.8109 0.5852
vn 0.3794 0.9159 0.1308
vn 0.7010 0.7010 0.1308
vn -0.9830 0.1294 0.1302
vn 0.2588 -0.0000 0.9659
vn 0.2564 0.0253 0.9662
vn 0.1372 0.0135 0.9904
vn -0.8584 0.4956 0.1320
vn 0.9159 0.3794 0.1308
vn 0.9867 0.0972 0.1301
vn -0.4956 0.8584 0.1320
vn -0.5000 0.8661 -0.0000
vn 0.8649 0.0852 0.4947
vn -0.9571 0.1260 0.2609
vn -0.9659 -0.0000 0.2588
vn 0.7020 0.0691 0.7088
vn -0.5086 0.0670 0.8584
vn -0.6980 0.0919 0.7101
vn -0.7071 -0.0000 0.7071
vn -0.1388 0.0183 0.9901
vn -0.2588 -0.0000 0.9659
vn 0.0550 0.1329 0.9896
vn 0.0973 0.2348 0.9672
vn 0.0253 0.2564 0.9662
vn 0.0135 0.1372 0.9904
vn 0.2680 0.6469 0.7139
vn 0.3330 0.8040 0.4926
vn 0.0852 0.8649 0.4947
vn 0.0691 0.7020 0.7088
vn 0.1017 0.1017 0.9896
vn 0.1797 0.1797 0.9672
vn 0.4951 0.4951 0.7139
vn 0.6821 0.6821 0.2635
vn 0.1329 0.0550 0.9896
vn 0.2348 0.0973 0.9672
vn 0.6469 0.2680 0.7139
vn 0.8040 0.3330 0.4926
vn -0.0183 0.1388 0.9901
vn -0.0335 0.2546 0.9665
vn -0.1253 0.2170 0.9681
vn -0.0734 0.1272 0.9892
vn -0.0919 0.6980 0.7101
vn -0.1135 0.8622 0.4936
vn -0.4350 0.7534 0.4931
vn -0.3474 0.6017 0.7193
vn -0.4500 0.2598 0.8544
vn -0.1272 0.0734 0.9892
vn -0.6017 0.3474 0.7193
vn -0.8345 0.4818 0.2673
vn -0.8661 0.1590 -0.4740
vn -0.9880 0.1011 -0.1170
vn -0.4717 0.1516 -0.8687
vn 0.8623 0.1770 0.4744
vn 0.9859 0.1197 0.1166
vn 0.4682 0.1579 -0.8694
vn 0.1147 0.0888 -0.9894
vn -0.1167 0.0884 -0.9892
vn -0.9879 0.1012 0.1175
vn 0.9860 0.1196 -0.1163
vn 0.8625 0.1782 -0.4737
vn 0.1153 0.0833 0.9898
vn 0.4680 0.1526 0.8705
vn -0.8658 0.1576 0.4749
vn -0.4714 0.1463 0.8697
vn -0.1169 0.0829 0.9897
vn -0.1042 0.3693 -0.9234
vn -0.4155 0.5555 -0.7202
vn -0.1561 0.6304 -0.7604
vn -0.2284 0.8959 -0.3809
vn -0.0140 0.9070 -0.4208
vn -0.7146 0.5673 -0.4093
vn -0.3739 0.9000 -0.2240
vn -0.9044 0.4139 -0.1039
vn -0.7336 0.6630 -0.1493
vn -0.3624 0.9319 -0.0157
vn 0.8765 0.4707 -0.1013
vn 0.6969 0.6037 -0.3871
vn 0.4976 0.8644 -0.0718
vn 0.3532 0.9141 -0.1993
vn 0.4397 0.6406 -0.6296
vn 0.2262 0.9101 -0.3472
vn 0.2608 0.2320 -0.9371
vn 0.1062 0.3724 -0.9220
vn 0.1670 0.6554 -0.7365
vn 0.0144 0.9076 -0.4196
vn 0.1069 0.3529 0.9295
vn 0.4230 0.5720 0.7028
vn 0.1720 0.6397 0.7491
vn 0.2322 0.9067 0.3522
vn 0.0146 0.8948 0.4463
vn 0.7019 0.5985 0.3862
vn 0.3602 0.9113 0.1995
vn 0.8769 0.4701 0.1006
vn 0.5007 0.8627 0.0709
vn -0.9048 0.4130 0.1036
vn -0.7202 0.5608 0.4084
vn -0.7392 0.6574 0.1464
vn -0.3822 0.8965 0.2242
vn -0.3627 0.9318 0.0158
vn -0.4217 0.5445 0.7251
vn -0.2359 0.8912 0.3875
vn -0.1049 0.3498 0.9309
vn -0.1610 0.6129 0.7736
vn -0.0142 0.8942 0.4475
vn 0.0661 -0.7685 0.6365
vn 0.1062 -0.7585 0.6429
vn 0.3647 -0.7259 0.5831
vn 0.3269 -0.7309 0.5992
vn 0.6165 -0.7035 0.3535
vn 0.6144 -0.7037 0.3568
vn 0.7000 -0.7059 0.1084
vn 0.6989 -0.7109 0.0788
vn -0.7721 -0.6302 0.0817
vn -0.7748 -0.6217 0.1150
vn -0.6949 -0.6225 0.3601
vn -0.6733 -0.6253 0.3946
vn -0.4268 -0.6750 0.6019
vn -0.3349 -0.6982 0.6328
vn -0.1261 -0.7446 0.6555
vn -0.0619 -0.7654 0.6405
vn -0.7616 -0.6480 -0.0000
vt 0.218740 0.215453
vt 0.032629 0.215298
vt 0.032629 0.215298
vt 0.032629 0.215298
vt 0.032629 0.215298
vt 0.032629 0.215298
vt 0.032629 0.215298
vt 0.032629 0.215298
vt 0.094905 0.216022
vt 0.094905 0.216022
vt 0.094905 0.216022
vt 0.094905 0.216022
vt 0.094905 0.216022
vt 0.094905 0.216022
vt 0.281835 0.216329
vt 0.281835 0.216329
vt 0.281835 0.216329
vt 0.281835 0.216329
vt 0.281835 0.216329
vt 0.281835 0.216329
vt 0.281834 0.216329
vt 0.281835 0.216329
vt 0.281834 0.216329
vt 0.281835 0.216329
vt 0.281835 0.216329
vt 0.094905 0.216021
vt 0.094905 0.216021
vt 0.156715 0.216280
vt 0.032629 0.215297
vt 0.032629 0.215298
vt 0.032629 0.215298
s 0
usemtl AIRPORT
f 1/1/1 2/1/1 3/1/1
f 4/1/1 5/1/1 6/1/1
f 2/1/1 7/1/1 3/1/1
f 7/1/1 8/1/1 3/1/1
f 9/1/1 4/1/1 6/1/1
f 10/1/1 9/1/1 6/1/1
s 1
f 11/1/2 12/1/3 13/1/4
f 14/1/5 15/1/6 16/1/7
f 17/1/8 18/1/9 19/1/10
f 15/1/6 20/1/11 16/1/7
f 20/1/11 21/1/12 16/1/7
f 22/1/13 23/1/14 13/1/4
f 12/1/3 22/1/13 13/1/4
f 24/1/15 25/1/16 26/1/17
f 27/1/18 24/1/15 26/1/17
f 18/1/9 28/1/19 19/1/10
f 28/1/19 29/1/20 19/1/10
f 30/1/21 27/1/18 26/1/17
s 0
f 31/2/1 32/2/1 33/2/1
f 34/3/1 35/3/1 36/3/1
f 33/2/1 32/2/1 37/2/1
f 37/2/1 32/2/1 38/2/1
f 39/3/1 35/3/1 34/3/1
f 40/3/1 35/3/1 39/3/1
s 1
f 41/4/22 42/3/23 43/4/24
f 44/5/25 45/6/7 46/5/26
f 47/7/27 48/7/10 49/7/28
f 46/5/26 45/6/7 50/5/29
f 50/5/29 45/6/7 51/5/30
f 52/4/31 42/3/23 53/4/32
f 43/4/24 42/3/23 52/4/31
f 54/8/33 55/8/34 56/8/35
f 57/8/36 55/8/34 54/8/33
f 49/7/28 48/7/10 58/7/37
f 58/7/37 48/7/10 59/7/38
f 60/8/39 55/8/34 57/8/36
s 0
f 61/9/40 62/10/40 63/11/40
f 61/9/40 63/11/40 64/12/40
f 65/13/41 66/14/41 67/10/41
f 65/13/41 67/10/41 68/9/41
f 69/1/1 3/1/1 8/1/1
f 69/1/1 8/1/1 70/1/1
s 1
f 71/15/42 72/16/42 73/16/43
f 71/15/42 73/16/43 74/15/43
f 74/15/43 73/16/43 75/17/44
f 74/15/43 75/17/44 76/18/44
f 76/18/44 75/17/44 77/19/45
f 76/18/44 77/19/45 78/20/45
f 79/21/46 80/15/46 81/15/47
f 79/21/46 81/15/47 82/21/48
f 82/21/48 81/15/47 83/15/49
f 82/21/48 83/15/49 84/21/50
f 84/21/50 83/15/49 85/20/51
f 84/21/50 85/20/51 86/22/51
s 0
f 87/23/1 88/16/1 89/15/1
f 87/23/1 89/15/1 90/21/1
s 1
f 91/1/52 92/1/53 93/1/54
f 91/1/52 93/1/54 94/1/55
f 95/1/56 96/1/41 97/1/57
f 95/1/56 97/1/57 98/1/58
f 99/1/59 100/1/60 101/1/61
f 99/1/59 101/1/61 102/1/62
f 103/1/63 104/1/64 98/1/58
f 103/1/63 98/1/58 97/1/57
f 94/1/55 93/1/54 105/1/65
f 94/1/55 105/1/65 106/1/66
f 19/1/10 29/1/20 14/1/5
f 19/1/10 14/1/5 16/1/7
f 26/1/17 19/1/10 92/1/53
f 26/1/17 92/1/53 91/1/52
f 107/1/67 108/1/68 109/1/69
f 107/1/67 109/1/69 110/1/70
f 111/17/71 112/24/72 113/25/73
f 111/17/71 113/25/73 114/19/73
f 115/16/74 116/23/75 112/24/72
f 115/16/74 112/24/72 111/17/71
f 117/16/76 118/23/76 116/23/75
f 117/16/76 116/23/75 115/16/74
s 0
f 119/12/67 120/11/67 121/26/67
f 119/12/67 121/26/67 122/27/67
s 1
f 123/1/77 124/1/78 104/1/64
f 123/1/77 104/1/64 125/1/79
f 16/1/7 13/1/4 124/1/78
f 16/1/7 124/1/78 123/1/77
f 106/1/66 105/1/65 110/1/70
f 106/1/66 110/1/70 109/1/69
f 126/1/80 127/1/81 109/1/69
f 126/1/80 109/1/69 108/1/68
f 128/1/82 129/1/83 95/1/56
f 128/1/82 95/1/56 98/1/58
f 130/1/84 131/1/85 127/1/81
f 130/1/84 127/1/81 132/1/84
f 133/1/86 134/1/87 135/1/87
f 133/1/86 135/1/87 136/1/88
f 137/1/89 138/1/90 139/1/91
f 137/1/89 139/1/91 133/1/86
f 140/1/92 141/1/93 142/1/94
f 140/1/92 142/1/94 143/1/95
f 144/1/96 145/1/97 146/1/98
f 144/1/96 146/1/98 147/1/99
f 147/1/99 146/1/98 26/1/17
f 147/1/99 26/1/17 91/1/52
f 148/1/100 140/1/92 143/1/95
f 148/1/100 143/1/95 149/1/101
f 150/1/102 144/1/96 147/1/99
f 150/1/102 147/1/99 151/1/102
f 152/1/103 147/1/99 91/1/52
f 152/1/103 91/1/52 94/1/55
f 153/1/104 148/1/100 149/1/101
f 153/1/104 149/1/101 154/1/105
f 155/1/106 150/1/102 151/1/102
f 155/1/106 151/1/102 156/1/107
f 156/1/107 152/1/103 94/1/55
f 156/1/107 94/1/55 106/1/66
f 100/1/60 153/1/104 154/1/105
f 100/1/60 154/1/105 101/1/61
f 131/1/85 155/1/106 156/1/107
f 131/1/85 156/1/107 127/1/81
f 127/1/81 156/1/107 106/1/66
f 127/1/81 106/1/66 109/1/69
f 157/1/108 158/1/109 159/1/110
f 157/1/108 159/1/110 160/1/111
f 161/1/112 162/1/113 163/1/114
f 161/1/112 163/1/114 164/1/115
f 164/1/115 163/1/114 124/1/78
f 164/1/115 124/1/78 13/1/4
f 158/1/109 165/1/116 166/1/117
f 158/1/109 166/1/117 159/1/110
f 162/1/113 166/1/117 167/1/118
f 162/1/113 167/1/118 163/1/114
f 163/1/114 168/1/119 104/1/64
f 163/1/114 104/1/64 124/1/78
f 165/1/116 137/1/89 133/1/86
f 165/1/116 133/1/86 166/1/117
f 166/1/117 133/1/86 136/1/88
f 166/1/117 136/1/88 167/1/118
f 168/1/119 128/1/82 98/1/58
f 168/1/119 98/1/58 104/1/64
f 141/1/93 157/1/108 160/1/111
f 141/1/93 160/1/111 142/1/94
f 145/1/97 161/1/112 164/1/115
f 145/1/97 164/1/115 146/1/98
f 146/1/98 164/1/115 13/1/4
f 146/1/98 13/1/4 26/1/17
s 0
f 3/1/1 6/1/1 5/1/1
f 3/1/1 5/1/1 1/1/1
s 1
f 26/1/17 25/1/16 17/1/8
f 26/1/17 17/1/8 19/1/10
f 169/1/120 170/1/121 171/1/122
f 169/1/120 171/1/122 172/1/123
f 16/1/7 21/1/12 11/1/2
f 16/1/7 11/1/2 13/1/4
f 172/1/123 171/1/122 173/1/124
f 172/1/123 173/1/124 174/1/125
f 175/1/126 176/1/80 177/1/68
f 175/1/126 177/1/68 178/1/127
f 179/1/128 180/1/129 181/1/130
f 179/1/128 181/1/130 182/1/131
f 174/1/125 173/1/124 183/1/132
f 174/1/125 183/1/132 184/1/133
f 185/1/134 170/1/121 169/1/120
f 185/1/134 169/1/120 186/1/56
f 187/1/135 188/1/136 189/1/137
f 187/1/135 189/1/137 190/1/138
f 182/1/131 181/1/130 188/1/136
f 182/1/131 188/1/136 191/1/139
f 192/1/140 193/1/59 194/1/141
f 192/1/140 194/1/141 195/1/142
f 195/1/142 194/1/141 196/1/84
f 195/1/142 196/1/84 175/1/126
f 185/1/134 186/1/56 197/1/143
f 185/1/134 197/1/143 198/1/144
f 198/1/144 197/1/143 199/1/145
f 198/1/144 199/1/145 200/1/146
f 192/1/140 201/1/147 202/1/90
f 192/1/140 202/1/90 193/1/59
f 189/1/137 178/1/127 177/1/68
f 189/1/137 177/1/68 190/1/138
f 183/1/132 180/1/129 179/1/128
f 183/1/132 179/1/128 184/1/133
f 200/1/146 199/1/145 202/1/90
f 200/1/146 202/1/90 201/1/147
f 13/1/4 23/1/14 30/1/21
f 13/1/4 30/1/21 26/1/17
f 183/1/132 173/1/124 203/1/148
f 183/1/132 203/1/148 204/1/149
f 204/1/149 203/1/148 205/1/150
f 204/1/149 205/1/150 206/1/151
f 207/1/152 205/1/150 27/1/18
f 207/1/152 27/1/18 30/1/21
f 173/1/124 171/1/122 208/1/153
f 173/1/124 208/1/153 203/1/148
f 203/1/148 208/1/153 209/1/154
f 203/1/148 209/1/154 205/1/150
f 205/1/150 209/1/154 24/1/15
f 205/1/150 24/1/15 27/1/18
f 171/1/122 170/1/121 210/1/155
f 171/1/122 210/1/155 208/1/153
f 208/1/153 210/1/155 211/1/156
f 208/1/153 211/1/156 209/1/154
f 209/1/154 212/1/157 25/1/16
f 209/1/154 25/1/16 24/1/15
f 189/1/137 188/1/136 213/1/158
f 189/1/137 213/1/158 214/1/159
f 214/1/159 213/1/158 215/1/160
f 214/1/159 215/1/160 216/1/161
f 216/1/161 215/1/160 12/1/3
f 216/1/161 12/1/3 11/1/2
f 188/1/136 181/1/130 217/1/162
f 188/1/136 217/1/162 213/1/158
f 213/1/158 217/1/162 218/1/163
f 213/1/158 218/1/163 215/1/160
f 215/1/160 218/1/163 22/1/13
f 215/1/160 22/1/13 12/1/3
f 181/1/130 180/1/129 219/1/164
f 181/1/130 219/1/164 220/1/165
f 217/1/162 219/1/164 221/1/166
f 217/1/162 221/1/166 218/1/163
f 218/1/163 222/1/167 23/1/14
f 218/1/163 23/1/14 22/1/13
f 192/1/140 195/1/142 223/1/168
f 192/1/140 223/1/168 224/1/169
f 224/1/169 223/1/168 225/1/170
f 224/1/169 225/1/170 226/1/171
f 227/1/172 225/1/170 15/1/6
f 227/1/172 15/1/6 14/1/5
f 195/1/142 175/1/126 228/1/173
f 195/1/142 228/1/173 223/1/168
f 223/1/168 228/1/173 229/1/174
f 223/1/168 229/1/174 225/1/170
f 225/1/170 229/1/174 20/1/11
f 225/1/170 20/1/11 15/1/6
f 175/1/126 178/1/127 230/1/175
f 175/1/126 230/1/175 228/1/173
f 228/1/173 230/1/175 231/1/176
f 228/1/173 231/1/176 229/1/174
f 229/1/174 231/1/176 21/1/12
f 229/1/174 21/1/12 20/1/11
f 185/1/134 198/1/144 232/1/177
f 185/1/134 232/1/177 233/1/178
f 233/1/178 232/1/177 234/1/179
f 233/1/178 234/1/179 235/1/180
f 236/1/181 234/1/179 18/1/9
f 236/1/181 18/1/9 17/1/8
f 198/1/144 200/1/146 237/1/182
f 198/1/144 237/1/182 232/1/177
f 232/1/177 237/1/182 238/1/183
f 232/1/177 238/1/183 234/1/179
f 234/1/179 238/1/183 28/1/19
f 234/1/179 28/1/19 18/1/9
f 200/1/146 201/1/147 239/1/184
f 200/1/146 239/1/184 237/1/182
f 237/1/182 239/1/184 240/1/185
f 237/1/182 240/1/185 238/1/183
f 238/1/183 241/1/186 29/1/20
f 238/1/183 29/1/20 28/1/19
f 30/1/21 23/1/14 222/1/167
f 30/1/21 222/1/167 207/1/152
f 206/1/151 221/1/166 219/1/164
f 206/1/151 219/1/164 204/1/149
f 204/1/149 219/1/164 180/1/129
f 204/1/149 180/1/129 183/1/132
f 170/1/121 185/1/134 233/1/178
f 170/1/121 233/1/178 210/1/155
f 210/1/155 233/1/178 235/1/180
f 210/1/155 235/1/180 211/1/156
f 212/1/157 236/1/181 17/1/8
f 212/1/157 17/1/8 25/1/16
f 178/1/127 189/1/137 214/1/159
f 178/1/127 214/1/159 230/1/175
f 230/1/175 214/1/159 216/1/161
f 230/1/175 216/1/161 231/1/176
f 231/1/176 216/1/161 11/1/2
f 231/1/176 11/1/2 21/1/12
f 14/1/5 29/1/20 241/1/186
f 14/1/5 241/1/186 227/1/172
f 226/1/171 240/1/185 239/1/184
f 226/1/171 239/1/184 224/1/169
f 224/1/169 239/1/184 201/1/147
f 224/1/169 201/1/147 192/1/140
s 0
f 242/28/187 243/28/187 244/28/187
f 242/28/187 244/28/187 245/28/187
f 246/28/187 247/28/187 248/28/187
f 246/28/187 248/28/187 249/28/187
f 249/28/187 248/28/187 250/28/187
f 249/28/187 250/28/187 251/28/187
f 252/28/187 253/28/187 251/28/187
f 252/28/187 251/28/187 250/28/187
f 245/28/187 244/28/187 254/28/187
f 245/28/187 254/28/187 255/28/187
f 256/28/187 257/28/187 255/28/187
f 256/28/187 255/28/187 254/28/187
f 251/28/187 245/28/187 255/28/187
f 251/28/187 255/28/187 249/28/187
s 1
f 258/1/188 259/1/189 260/1/190
f 258/1/188 260/1/190 261/1/191
f 259/1/189 262/1/192 263/1/193
f 259/1/189 263/1/193 260/1/190
f 262/1/192 264/1/194 265/1/195
f 262/1/192 265/1/195 263/1/193
f 266/1/196 267/1/197 268/1/198
f 266/1/196 268/1/198 269/1/199
f 267/1/197 270/1/200 271/1/201
f 267/1/197 271/1/201 268/1/198
f 270/1/200 272/1/202 273/1/203
f 270/1/200 273/1/203 271/1/201
f 261/1/191 273/1/203 272/1/202
f 261/1/191 272/1/202 258/1/188
f 274/1/204 265/1/195 264/1/194
f 274/1/204 264/1/194 275/1/205
f 276/1/206 266/1/196 269/1/199
f 276/1/206 269/1/199 277/1/206
s 0
f 6/1/1 278/1/1 279/1/1
f 6/1/1 279/1/1 10/1/1
f 280/9/207 281/12/207 282/11/207
f 280/9/207 282/11/207 283/10/207
f 65/13/41 284/9/41 285/10/41
f 65/13/41 285/10/41 66/14/41
f 286/29/1 287/29/1 38/2/1
f 286/29/1 38/2/1 32/2/1
s 1
f 288/15/208 289/15/209 290/16/209
f 288/15/208 290/16/209 291/16/208
f 289/15/209 292/18/210 293/17/210
f 289/15/209 293/17/210 290/16/209
f 292/18/210 294/20/211 295/19/211
f 292/18/210 295/19/211 293/17/210
f 79/21/46 82/21/48 296/15/47
f 79/21/46 296/15/47 297/15/46
f 82/21/48 84/21/50 298/15/49
f 82/21/48 298/15/49 296/15/47
f 84/21/50 86/22/51 299/20/51
f 84/21/50 299/20/51 298/15/49
s 0
f 87/23/1 90/21/1 300/15/1
f 87/23/1 300/15/1 301/16/1
s 1
f 302/2/212 303/2/213 304/30/54
f 302/2/212 304/30/54 305/30/53
f 306/3/120 307/3/214 308/31/57
f 306/3/120 308/31/57 309/31/41
f 310/2/128 311/2/215 312/2/216
f 310/2/128 312/2/216 313/2/217
f 314/31/63 308/31/57 307/3/214
f 314/31/63 307/3/214 315/3/218
f 303/2/213 316/2/219 317/29/65
f 303/2/213 317/29/65 318/29/54
f 48/7/10 45/6/7 44/5/25
f 48/7/10 44/5/25 59/7/38
f 55/8/34 302/2/212 305/30/53
f 55/8/34 305/30/53 48/7/10
f 319/29/67 320/29/70 321/2/220
f 319/29/67 321/2/220 322/2/138
f 323/17/71 324/19/73 113/25/73
f 323/17/71 113/25/73 112/24/72
f 325/16/74 323/17/71 112/24/72
f 325/16/74 112/24/72 116/23/75
f 326/16/76 325/16/74 116/23/75
f 326/16/76 116/23/75 118/23/76
s 0
f 327/12/67 122/27/67 121/26/67
f 327/12/67 121/26/67 328/11/67
s 1
f 329/31/77 330/31/79 315/3/218
f 329/31/77 315/3/218 331/3/221
f 45/6/7 332/6/222 331/3/221
f 45/6/7 331/3/221 42/3/23
f 316/2/219 321/2/220 320/29/70
f 316/2/219 320/29/70 317/29/65
f 333/2/135 322/2/138 321/2/220
f 333/2/135 321/2/220 334/2/223
f 335/3/224 307/3/214 306/3/120
f 335/3/224 306/3/120 336/3/225
f 337/2/139 338/2/139 334/2/223
f 337/2/139 334/2/223 339/2/226
f 340/3/227 341/3/228 342/3/229
f 340/3/227 342/3/229 343/3/229
f 344/3/230 340/3/227 345/3/231
f 344/3/230 345/3/231 346/3/133
f 347/2/232 348/2/233 349/8/234
f 347/2/232 349/8/234 350/8/235
f 351/2/236 352/2/237 353/8/238
f 351/2/236 353/8/238 354/8/239
f 352/2/237 302/2/212 55/8/34
f 352/2/237 55/8/34 353/8/238
f 355/2/240 356/2/241 348/2/233
f 355/2/240 348/2/233 347/2/232
f 357/2/242 358/2/242 352/2/237
f 357/2/242 352/2/237 351/2/236
f 359/2/243 303/2/213 302/2/212
f 359/2/243 302/2/212 352/2/237
f 360/2/244 361/2/245 356/2/241
f 360/2/244 356/2/241 355/2/240
f 362/2/246 363/2/247 358/2/242
f 362/2/246 358/2/242 357/2/242
f 363/2/247 316/2/219 303/2/213
f 363/2/247 303/2/213 359/2/243
f 313/2/217 312/2/216 361/2/245
f 313/2/217 361/2/245 360/2/244
f 339/2/226 334/2/223 363/2/247
f 339/2/226 363/2/247 362/2/246
f 334/2/223 321/2/220 316/2/219
f 334/2/223 316/2/219 363/2/247
f 364/3/248 365/3/249 366/3/250
f 364/3/248 366/3/250 367/3/251
f 368/3/252 369/3/253 370/3/254
f 368/3/252 370/3/254 371/3/255
f 369/3/253 42/3/23 331/3/221
f 369/3/253 331/3/221 370/3/254
f 367/3/251 366/3/250 372/3/256
f 367/3/251 372/3/256 373/3/257
f 371/3/255 370/3/254 374/3/258
f 371/3/255 374/3/258 372/3/256
f 370/3/254 331/3/221 315/3/218
f 370/3/254 315/3/218 375/3/259
f 373/3/257 372/3/256 340/3/227
f 373/3/257 340/3/227 344/3/230
f 372/3/256 374/3/258 341/3/228
f 372/3/256 341/3/228 340/3/227
f 375/3/259 315/3/218 307/3/214
f 375/3/259 307/3/214 335/3/224
f 350/8/235 349/8/234 365/3/249
f 350/8/235 365/3/249 364/3/248
f 354/8/239 353/8/238 369/3/253
f 354/8/239 369/3/253 368/3/252
f 353/8/238 55/8/34 42/3/23
f 353/8/238 42/3/23 369/3/253
s 0
f 32/2/1 31/2/1 36/3/1
f 32/2/1 36/3/1 35/3/1
s 1
f 55/8/34 48/7/10 47/7/27
f 55/8/34 47/7/27 56/8/35
f 376/8/56 377/8/143 378/8/260
f 376/8/56 378/8/260 379/8/261
f 45/6/7 42/3/23 41/4/22
f 45/6/7 41/4/22 51/5/30
f 377/8/143 380/8/145 381/8/262
f 377/8/143 381/8/262 378/8/260
f 382/5/263 383/5/264 384/5/138
f 382/5/263 384/5/138 385/5/135
f 386/4/59 387/4/141 388/4/265
f 386/4/59 388/4/265 389/4/266
f 380/8/145 390/8/90 391/8/267
f 380/8/145 391/8/267 381/8/262
f 392/7/268 393/7/120 376/8/56
f 392/7/268 376/8/56 379/8/261
f 394/4/80 395/4/68 396/4/269
f 394/4/80 396/4/269 397/4/270
f 387/4/141 398/4/84 397/4/270
f 387/4/141 397/4/270 388/4/265
f 399/5/271 400/5/272 401/5/131
f 399/5/271 401/5/131 402/5/128
f 400/5/272 382/5/263 403/5/139
f 400/5/272 403/5/139 401/5/131
f 392/7/268 404/7/273 405/7/123
f 392/7/268 405/7/123 393/7/120
f 404/7/273 406/7/274 407/7/125
f 404/7/273 407/7/125 405/7/123
f 399/5/271 402/5/128 408/7/133
f 399/5/271 408/7/133 409/7/275
f 396/4/269 395/4/68 384/5/138
f 396/4/269 384/5/138 383/5/264
f 391/8/267 390/8/90 386/4/59
f 391/8/267 386/4/59 389/4/266
f 406/7/274 409/7/275 408/7/133
f 406/7/274 408/7/133 407/7/125
f 42/3/23 55/8/34 60/8/39
f 42/3/23 60/8/39 53/4/32
f 391/8/267 410/8/276 411/8/277
f 391/8/267 411/8/277 381/8/262
f 410/8/276 412/8/278 413/8/279
f 410/8/276 413/8/279 411/8/277
f 414/8/280 60/8/39 57/8/36
f 414/8/280 57/8/36 413/8/279
f 381/8/262 411/8/277 415/8/281
f 381/8/262 415/8/281 378/8/260
f 411/8/277 413/8/279 416/8/282
f 411/8/277 416/8/282 415/8/281
f 413/8/279 57/8/36 54/8/33
f 413/8/279 54/8/33 416/8/282
f 378/8/260 415/8/281 417/8/283
f 378/8/260 417/8/283 379/8/261
f 415/8/281 416/8/282 418/8/284
f 415/8/281 418/8/284 417/8/283
f 416/8/282 54/8/33 56/8/35
f 416/8/282 56/8/35 419/8/285
f 396/4/269 420/4/286 421/4/287
f 396/4/269 421/4/287 397/4/270
f 420/4/286 422/4/288 423/4/289
f 420/4/286 423/4/289 421/4/287
f 422/4/288 41/4/22 43/4/24
f 422/4/288 43/4/24 423/4/289
f 397/4/270 421/4/287 424/4/290
f 397/4/270 424/4/290 388/4/265
f 421/4/287 423/4/289 425/4/291
f 421/4/287 425/4/291 424/4/290
f 423/4/289 43/4/24 52/4/31
f 423/4/289 52/4/31 425/4/291
f 388/4/265 426/4/292 427/4/293
f 388/4/265 427/4/293 389/4/266
f 424/4/290 425/4/291 428/4/294
f 424/4/290 428/4/294 427/4/293
f 425/4/291 52/4/31 53/4/32
f 425/4/291 53/4/32 429/4/295
f 399/5/271 430/5/296 431/5/297
f 399/5/271 431/5/297 400/5/272
f 430/5/296 432/5/298 433/5/299
f 430/5/296 433/5/299 431/5/297
f 434/5/300 44/5/25 46/5/26
f 434/5/300 46/5/26 433/5/299
f 400/5/272 431/5/297 435/5/301
f 400/5/272 435/5/301 382/5/263
f 431/5/297 433/5/299 436/5/302
f 431/5/297 436/5/302 435/5/301
f 433/5/299 46/5/26 50/5/29
f 433/5/299 50/5/29 436/5/302
f 382/5/263 435/5/301 437/5/303
f 382/5/263 437/5/303 383/5/264
f 435/5/301 436/5/302 438/5/304
f 435/5/301 438/5/304 437/5/303
f 436/5/302 50/5/29 51/5/30
f 436/5/302 51/5/30 438/5/304
f 392/7/268 439/7/305 440/7/306
f 392/7/268 440/7/306 404/7/273
f 439/7/305 441/7/307 442/7/308
f 439/7/305 442/7/308 440/7/306
f 443/7/309 47/7/27 49/7/28
f 443/7/309 49/7/28 442/7/308
f 404/7/273 440/7/306 444/7/310
f 404/7/273 444/7/310 406/7/274
f 440/7/306 442/7/308 445/7/311
f 440/7/306 445/7/311 444/7/310
f 442/7/308 49/7/28 58/7/37
f 442/7/308 58/7/37 445/7/311
f 406/7/274 444/7/310 446/7/312
f 406/7/274 446/7/312 409/7/275
f 444/7/310 445/7/311 447/7/313
f 444/7/310 447/7/313 446/7/312
f 445/7/311 58/7/37 59/7/38
f 445/7/311 59/7/38 448/7/314
f 60/8/39 414/8/280 429/4/295
f 60/8/39 429/4/295 53/4/32
f 412/8/278 410/8/276 427/4/293
f 412/8/278 427/4/293 428/4/294
f 410/8/276 391/8/267 389/4/266
f 410/8/276 389/4/266 427/4/293
f 379/8/261 417/8/283 439/7/305
f 379/8/261 439/7/305 392/7/268
f 417/8/283 418/8/284 441/7/307
f 417/8/283 441/7/307 439/7/305
f 419/8/285 56/8/35 47/7/27
f 419/8/285 47/7/27 443/7/309
f 383/5/264 437/5/303 420/4/286
f 383/5/264 420/4/286 396/4/269
f 437/5/303 438/5/304 422/4/288
f 437/5/303 422/4/288 420/4/286
f 438/5/304 51/5/30 41/4/22
f 438/5/304 41/4/22 422/4/288
f 44/5/25 434/5/300 448/7/314
f 44/5/25 448/7/314 59/7/38
f 432/5/298 430/5/296 446/7/312
f 432/5/298 446/7/312 447/7/313
f 430/5/296 399/5/271 409/7/275
f 430/5/296 409/7/275 446/7/312
s 0
f 449/28/187 450/28/187 451/28/187
f 449/28/187 451/28/187 452/28/187
f 453/28/187 454/28/187 455/28/187
f 453/28/187 455/28/187 456/28/187
f 454/28/187 457/28/187 458/28/187
f 454/28/187 458/28/187 455/28/187
f 459/28/187 458/28/187 457/28/187
f 459/28/187 457/28/187 460/28/187
f 450/28/187 461/28/187 462/28/187
f 450/28/187 462/28/187 451/28/187
f 463/28/187 462/28/187 461/28/187
f 463/28/187 461/28/187 464/28/187
f 457/28/187 454/28/187 461/28/187
f 457/28/187 461/28/187 450/28/187
s 1
f 465/2/315 466/2/316 467/2/317
f 465/2/315 467/2/317 468/2/318
f 468/2/318 467/2/317 469/2/319
f 468/2/318 469/2/319 470/2/320
f 470/2/320 469/2/319 471/2/321
f 470/2/320 471/2/321 472/2/322
f 473/3/323 474/3/324 475/3/325
f 473/3/323 475/3/325 476/3/326
f 476/3/326 475/3/325 477/3/327
f 476/3/326 477/3/327 478/3/328
f 478/3/328 477/3/327 479/3/329
f 478/3/328 479/3/329 480/3/330
f 466/2/316 465/2/315 480/3/330
f 466/2/316 480/3/330 479/3/329
f 481/29/204 482/29/204 472/2/322
f 481/29/204 472/2/322 471/2/321
f 483/31/331 484/31/206 474/3/324
f 483/31/331 474/3/324 473/3/323
s 0
f 35/3/1 40/3/1 485/31/1
f 35/3/1 485/31/1 486/31/1
s 1
f 137/1/89 99/1/59 138/1/90
f 99/1/59 137/1/89 100/1/60
f 100/1/60 137/1/89 153/1/104
f 153/1/104 137/1/89 148/1/100
f 148/1/100 137/1/89 140/1/92
f 140/1/92 137/1/89 141/1/93
f 141/1/93 137/1/89 165/1/116
f 141/1/93 165/1/116 158/1/109
f 141/1/93 158/1/109 157/1/108
f 313/2/217 346/3/133 310/2/128
f 346/3/133 313/2/217 344/3/230
f 344/3/230 313/2/217 360/2/244
f 344/3/230 360/2/244 355/2/240
f 344/3/230 355/2/240 347/2/232
f 344/3/230 347/2/232 350/8/235
f 344/3/230 350/8/235 373/3/257
f 373/3/257 350/8/235 367/3/251
f 367/3/251 350/8/235 364/3/248
