# Blender 5.2.0 LTS
# www.blender.org
mtllib 16_DepartureSign_AIRPORT_0.mtl
o 16.DepartureSign_AIRPORT_0
v 0.075198 0.168050 0.830182
v 0.075198 0.164092 0.864995
v 0.075198 0.153290 0.844943
v 0.075198 0.148329 0.858465
v 0.075198 0.117877 0.818779
v 0.075198 0.138656 0.830308
v 0.075198 0.124406 0.834542
v 0.075198 0.134793 0.848079
v 0.075198 0.108063 -0.111126
v 0.075198 0.134792 -0.111126
v 0.075198 0.108063 -0.024082
v 0.075198 0.227224 -0.111126
v 0.075198 0.254307 -0.111126
v 0.075198 0.254307 -0.024082
v 0.075198 0.179785 -0.173926
v 0.075198 0.165223 -0.159220
v 0.075198 0.165223 -0.173926
v 0.075198 0.207194 -0.173926
v 0.075198 0.194488 -0.159222
v 0.075198 0.179785 -0.173926
v 0.075198 0.237611 -0.190021
v 0.075198 0.207194 -0.194912
v 0.075198 0.227224 -0.203557
v 0.075198 0.213688 -0.213944
v 0.075198 0.179785 -0.194912
v 0.075198 0.197924 -0.220473
v 0.075198 0.181008 -0.222700
v 0.075198 0.165223 -0.194912
v 0.075198 0.164092 -0.220473
v 0.075198 0.148329 -0.213944
v 0.075198 0.144237 -0.194912
v 0.075198 0.134792 -0.203557
v 0.075198 0.124406 -0.190021
v 0.075198 0.144237 -0.173926
v 0.075198 0.117876 -0.174258
v 0.075198 0.115649 -0.157341
v 0.075198 0.144237 -0.159220
v 0.075198 0.117876 -0.140425
v 0.075198 0.124406 -0.124662
v 0.075198 0.144237 -0.131955
v 0.075198 0.134792 -0.111126
v 0.075198 0.148329 -0.100739
v 0.075198 0.165223 -0.131955
v 0.075198 0.164092 -0.094210
v 0.075198 0.165223 -0.159220
v 0.075198 0.179854 -0.144588
v 0.075198 0.194693 -0.129749
v 0.075198 0.181008 -0.091983
v 0.075198 0.244140 -0.174258
v 0.075198 0.246367 -0.157342
v 0.075198 0.209327 -0.144383
v 0.075198 0.244140 -0.140425
v 0.075198 0.197924 -0.094210
v 0.075198 0.209453 -0.114989
v 0.075198 0.224088 -0.129623
v 0.075198 0.237611 -0.124662
v 0.075198 0.213688 -0.100739
v 0.075198 0.227224 -0.111126
v 0.075198 0.209304 -0.380543
v 0.075198 0.227224 -0.203557
v 0.075198 0.213688 -0.213944
v 0.075198 0.134792 -0.203557
v 0.075198 0.153025 -0.380543
v 0.075198 0.148329 -0.213944
v 0.075198 0.197924 -0.220473
v 0.075198 0.164092 -0.220473
v 0.075198 0.181008 -0.222700
v 0.075198 0.148329 -0.100739
v 0.075198 0.213688 -0.100739
v 0.075198 0.164092 -0.094210
v 0.075198 0.197924 -0.094210
v 0.075198 0.181008 -0.091983
v 0.075198 0.181009 0.867222
v 0.075198 0.108063 0.935123
v 0.075198 0.164092 0.864995
v 0.075198 0.213688 0.858465
v 0.075198 0.254307 0.935123
v 0.075198 0.197925 0.864995
v 0.075198 0.148329 0.858465
v 0.075198 0.227224 0.848079
v 0.075198 0.134793 0.848079
v 0.075198 0.181008 0.736504
v 0.075198 0.164092 0.738731
v 0.075198 0.153026 0.578662
v 0.075198 0.117877 0.784947
v 0.075198 0.153416 0.815548
v 0.075198 0.115650 0.801863
v 0.075198 0.148329 0.745260
v 0.075198 0.213688 0.745260
v 0.075198 0.197925 0.738731
v 0.075198 0.209304 0.578662
v 0.075198 0.197925 0.864995
v 0.075198 0.181009 0.867222
v 0.075198 0.134793 0.755647
v 0.075198 0.227224 0.755647
v 0.075198 0.254307 0.848079
v 0.075198 0.108063 0.848079
v 0.075198 0.155622 0.786077
v 0.075198 0.182886 0.786077
v 0.075198 0.168255 0.800709
v 0.075198 0.124406 0.769184
v 0.075198 0.148329 0.745260
v 0.075198 0.155622 0.765092
v 0.075198 0.134793 0.755647
v 0.075198 0.181008 0.736504
v 0.075198 0.182886 0.765092
v 0.075198 0.164092 0.738731
v 0.075198 0.213688 0.745260
v 0.075198 0.197593 0.765092
v 0.075198 0.197925 0.738731
v 0.075198 0.237611 0.769184
v 0.075198 0.218579 0.765092
v 0.075198 0.227224 0.755647
v 0.075198 0.246367 0.801863
v 0.075198 0.218579 0.786077
v 0.075198 0.244140 0.784947
v 0.075198 0.237611 0.834543
v 0.075198 0.218579 0.800640
v 0.075198 0.244140 0.818779
v 0.075198 0.213688 0.858465
v 0.075198 0.218579 0.828049
v 0.075198 0.227224 0.848079
v 0.075198 0.197593 0.828049
v 0.075198 0.182889 0.815343
v 0.075198 0.197593 0.800640
v 0.075198 0.197593 0.800640
v 0.075198 0.182886 0.786077
v 0.075198 0.197593 0.786077
v -0.075198 0.203191 -0.000000
v -0.075198 0.278389 -0.000000
v -0.075198 0.278389 -0.959204
v -0.075198 0.203191 -0.959204
v 0.031873 -0.787299 -0.920509
v 0.031873 -0.780384 -0.927424
v 0.025631 -0.780384 -0.927424
v 0.025631 -0.787299 -0.920509
v 0.058330 0.278389 -0.959204
v 0.058330 0.278389 -0.000000
v 0.075198 0.278389 -0.000000
v 0.075198 0.278389 -0.959204
v 0.075198 0.153025 -0.866234
v 0.075198 0.209304 -0.866234
v 0.075198 0.209304 -0.380543
v 0.075198 0.153025 -0.380543
v -0.075198 0.278389 -0.959204
v -0.075198 0.278389 -0.000000
v 0.058330 0.083981 -0.000000
v 0.058330 0.083981 -0.959204
v 0.075198 0.083981 -0.959204
v 0.075198 0.083981 -0.000000
v 0.058330 0.083981 -0.959204
v 0.058330 0.278389 -0.959204
v 0.075198 0.278389 -0.959204
v 0.075198 0.083981 -0.959204
v -0.075198 -0.819078 0.000000
v -0.075198 -0.819079 -0.911063
v 0.031873 -0.819079 -0.911063
v 0.031873 -0.819078 0.000000
v -0.075198 -0.812629 -0.935133
v 0.031873 -0.812629 -0.935133
v -0.075198 -0.795008 -0.952754
v 0.031873 -0.795008 -0.952754
v -0.075198 -0.770938 -0.959204
v 0.031873 -0.770938 -0.959204
v 0.045102 0.080436 -0.959204
v -0.075198 0.278389 -0.959204
v 0.045102 0.080437 -0.000000
v 0.045102 0.080436 -0.959204
v 0.035418 0.070752 -0.000000
v 0.035417 0.070752 -0.959204
v 0.035417 0.070752 -0.959204
v 0.035418 0.070752 -0.000000
v 0.031873 0.057524 -0.000000
v 0.031873 0.057523 -0.959204
v -0.075198 0.083981 -0.959204
v 0.031873 0.057523 -0.959204
v -0.075198 0.203191 -0.959204
v 0.035417 0.070752 -0.959204
v -0.075198 0.083981 -0.000000
v -0.075198 0.083981 -0.959204
v 0.075198 0.254307 -0.935122
v 0.075198 0.108063 -0.935122
v 0.075198 0.083981 -0.959204
v 0.075198 0.278389 -0.959204
v 0.075198 0.108063 -0.024082
v 0.075198 0.254307 -0.024082
v 0.075198 0.278389 -0.000000
v 0.075198 0.083981 -0.000000
v 0.075198 0.209304 -0.866234
v 0.075198 0.153025 -0.866234
v 0.075198 0.108063 -0.935122
v 0.075198 0.254307 -0.935122
v 0.031873 -0.787299 -0.920509
v 0.031873 -0.790827 -0.907344
v 0.031873 -0.819079 -0.911063
v 0.031873 -0.812629 -0.935133
v 0.031873 -0.780384 -0.927424
v 0.031873 -0.795008 -0.952754
v 0.031873 -0.767218 -0.930952
v 0.031873 -0.770938 -0.959204
v 0.031873 -0.790827 -0.028252
v 0.031873 -0.819078 0.000000
v 0.031873 0.029272 -0.028252
v 0.031873 0.029272 -0.930952
v 0.031873 0.029272 -0.930952
v 0.031873 0.029272 -0.028252
v 0.025631 0.029272 -0.028252
v 0.025631 0.029272 -0.930952
v 0.031873 -0.780384 -0.927424
v 0.031873 -0.767218 -0.930952
v 0.025631 -0.767218 -0.930952
v 0.025631 -0.780384 -0.927424
v 0.031873 -0.790827 -0.907344
v 0.031873 -0.787299 -0.920509
v 0.025631 -0.787299 -0.920509
v 0.025631 -0.790827 -0.907344
v 0.031873 0.029272 -0.930952
v 0.025631 0.029272 -0.930952
v 0.031873 -0.790827 -0.028252
v 0.025631 -0.790827 -0.028252
v 0.031873 0.029272 -0.028252
v 0.031873 -0.790827 -0.028252
v 0.025631 -0.790827 -0.028252
v 0.025631 0.029272 -0.028252
v 0.075198 0.246367 -0.157342
v 0.075198 0.254307 -0.157342
v 0.075198 0.254307 -0.140425
v 0.075198 0.244140 -0.140425
v 0.075198 0.108063 -0.157341
v 0.075198 0.115649 -0.157341
v 0.075198 0.117876 -0.140425
v 0.075198 0.108063 -0.140425
v 0.075198 0.244140 -0.174258
v 0.075198 0.254307 -0.174258
v 0.075198 0.108063 -0.174258
v 0.075198 0.117876 -0.174258
v 0.075198 0.108063 -0.190021
v 0.075198 0.124406 -0.190021
v 0.075198 0.237611 -0.190021
v 0.075198 0.254307 -0.190021
v 0.075198 0.108063 -0.203557
v 0.075198 0.254307 -0.203557
v 0.075198 0.254307 -0.124662
v 0.075198 0.237611 -0.124662
v 0.075198 0.124406 -0.124662
v 0.075198 0.108063 -0.124662
v 0.075198 0.179785 -0.194912
v 0.075198 0.207194 -0.194912
v 0.075198 0.207194 -0.173926
v 0.075198 0.144237 -0.159220
v 0.075198 0.144237 -0.173926
v 0.075198 0.144237 -0.131955
v 0.075198 0.165223 -0.131955
v 0.075198 0.144237 -0.194912
v 0.075198 0.165223 -0.194912
v 0.075198 0.194693 -0.129749
v 0.075198 0.209327 -0.144383
v 0.075198 0.224088 -0.129623
v 0.075198 0.209453 -0.114989
v 0.075198 0.179854 -0.144588
v 0.075198 0.194488 -0.159222
v -0.075198 0.203191 0.959204
v -0.075198 0.278389 0.959204
v 0.031873 -0.787299 0.920510
v 0.025631 -0.787299 0.920510
v 0.025631 -0.780383 0.927425
v 0.031873 -0.780383 0.927425
v 0.058330 0.278389 0.959204
v 0.075198 0.278389 0.959204
v -0.075198 0.278389 0.959204
v 0.075198 0.083982 0.959204
v 0.058330 0.083982 0.959204
v 0.058330 0.083982 0.959204
v 0.075198 0.083982 0.959204
v 0.075198 0.278389 0.959204
v 0.058330 0.278389 0.959204
v 0.031873 -0.819078 0.911063
v -0.075198 -0.819078 0.911063
v 0.031873 -0.812628 0.935134
v -0.075198 -0.812628 0.935134
v 0.031873 -0.795008 0.952755
v -0.075198 -0.795008 0.952755
v 0.031873 -0.770937 0.959204
v -0.075198 -0.770937 0.959204
v -0.075198 0.278389 0.959204
v 0.045102 0.080437 0.959204
v 0.045102 0.080437 0.959204
v 0.035418 0.070753 0.959204
v 0.035418 0.070753 0.959204
v 0.031873 0.057524 0.959204
v -0.075198 0.083982 0.959204
v 0.031873 0.057524 0.959204
v -0.075198 0.203191 0.959204
v 0.035418 0.070753 0.959204
v -0.075198 0.083982 0.959204
v 0.075198 0.254307 0.935123
v 0.075198 0.278389 0.959204
v 0.075198 0.083982 0.959204
v 0.075198 0.108063 0.935123
v 0.075198 0.108063 0.024082
v 0.075198 0.254307 0.024082
v 0.031873 -0.787299 0.920510
v 0.031873 -0.812628 0.935134
v 0.031873 -0.819078 0.911063
v 0.031873 -0.790826 0.907344
v 0.031873 -0.780383 0.927425
v 0.031873 -0.795008 0.952755
v 0.031873 -0.767218 0.930953
v 0.031873 -0.770937 0.959204
v 0.031873 -0.790827 0.028252
v 0.031873 0.029272 0.028252
v 0.031873 0.029272 0.930952
v 0.031873 0.029272 0.930952
v 0.025631 0.029272 0.930952
v 0.025631 0.029272 0.028252
v 0.031873 0.029272 0.028252
v 0.031873 -0.780383 0.927425
v 0.025631 -0.780383 0.927425
v 0.025631 -0.767218 0.930953
v 0.031873 -0.767218 0.930953
v 0.031873 -0.790826 0.907344
v 0.025631 -0.790826 0.907344
v 0.025631 -0.787299 0.920510
v 0.031873 -0.787299 0.920510
v 0.025631 0.029272 0.930952
v 0.031873 0.029272 0.930952
v 0.031873 -0.790827 0.028252
v 0.025631 -0.790827 0.028252
v 0.031873 0.029272 0.028252
v 0.025631 0.029272 0.028252
v 0.025631 -0.790827 0.028252
v 0.031873 -0.790827 0.028252
v 0.075198 0.108063 0.834542
v 0.075198 0.124406 0.834542
v 0.075198 0.237611 0.834543
v 0.075198 0.254307 0.834542
v 0.075198 0.108063 0.818779
v 0.075198 0.117877 0.818779
v 0.075198 0.244140 0.818779
v 0.075198 0.254307 0.818779
v 0.075198 0.254307 0.755647
v 0.075198 0.254307 0.769184
v 0.075198 0.237611 0.769184
v 0.075198 0.108063 0.755647
v 0.075198 0.124406 0.769184
v 0.075198 0.108063 0.769184
v 0.075198 0.254307 0.784947
v 0.075198 0.244140 0.784947
v 0.075198 0.117877 0.784947
v 0.075198 0.108063 0.784947
v 0.075198 0.115650 0.801863
v 0.075198 0.108063 0.801863
v 0.075198 0.254307 0.801863
v 0.075198 0.246367 0.801863
v 0.075198 0.209304 0.092970
v 0.075198 0.153026 0.092970
v 0.075198 0.108063 0.024082
v 0.075198 0.254307 0.024082
v 0.075198 0.153026 0.092970
v 0.075198 0.209304 0.092970
v 0.075198 0.209304 0.578662
v 0.075198 0.153026 0.578662
v 0.075198 0.153416 0.815548
v 0.075198 0.168255 0.800709
v 0.075198 0.182889 0.815343
v 0.075198 0.168050 0.830182
v 0.075198 0.153290 0.844943
v 0.075198 0.138656 0.830308
v 0.075198 0.218579 0.786077
v 0.075198 0.218579 0.800640
v 0.075198 0.197593 0.765092
v 0.075198 0.218579 0.765092
v 0.075198 0.155622 0.765092
v 0.075198 0.182886 0.765092
v 0.075198 0.155622 0.786077
v 0.075198 0.218579 0.828049
v 0.075198 0.197593 0.828049
v 0.025631 -0.740486 -0.077738
v 0.025631 -0.740486 -0.028252
v 0.025631 -0.792867 -0.028252
v 0.025631 -0.792867 -0.077737
v 0.025631 0.031547 -0.077738
v 0.025631 0.031547 -0.028252
v 0.025631 -0.017151 -0.028252
v 0.025631 -0.017151 -0.077738
v 0.025631 -0.740486 -0.523621
v 0.025631 -0.740486 -0.274843
v 0.025631 -0.792867 -0.274843
v 0.025631 -0.792867 -0.609133
v 0.025631 -0.017151 -0.077738
v 0.025631 -0.017151 -0.028252
v 0.025631 -0.065373 -0.028252
v 0.025631 -0.065373 -0.077738
v 0.025631 -0.113595 -0.028252
v 0.025631 -0.113595 -0.077738
v 0.025631 -0.113595 -0.077738
v 0.025631 -0.113595 -0.028252
v 0.025631 -0.161818 -0.028252
v 0.025631 -0.161818 -0.077738
v 0.025631 -0.161818 -0.077738
v 0.025631 -0.161818 -0.028252
v 0.025631 -0.210040 -0.028252
v 0.025631 -0.210040 -0.077738
v 0.025631 -0.210040 -0.077738
v 0.025631 -0.210040 -0.028252
v 0.025631 -0.258262 -0.028252
v 0.025631 -0.258262 -0.077738
v 0.025631 -0.258262 -0.077738
v 0.025631 -0.258262 -0.028252
v 0.025631 -0.306485 -0.028252
v 0.025631 -0.306485 -0.077738
v 0.025631 -0.306485 -0.077738
v 0.025631 -0.306485 -0.028252
v 0.025631 -0.354707 -0.028252
v 0.025631 -0.354707 -0.077738
v 0.025631 -0.402930 -0.028252
v 0.025631 -0.402930 -0.077738
v 0.025631 -0.402930 -0.077738
v 0.025631 -0.402930 -0.028252
v 0.025631 -0.451152 -0.028252
v 0.025631 -0.451152 -0.077738
v 0.025631 -0.451152 -0.077738
v 0.025631 -0.451152 -0.028252
v 0.025631 -0.499374 -0.028252
v 0.025631 -0.499374 -0.077738
v 0.025631 -0.499374 -0.077738
v 0.025631 -0.499374 -0.028252
v 0.025631 -0.547597 -0.028252
v 0.025631 -0.547597 -0.077738
v 0.025631 -0.547597 -0.077738
v 0.025631 -0.547597 -0.028252
v 0.025631 -0.595819 -0.028252
v 0.025631 -0.595819 -0.077738
v 0.025631 -0.595819 -0.077738
v 0.025631 -0.595819 -0.028252
v 0.025631 -0.644041 -0.028252
v 0.025631 -0.644041 -0.077738
v 0.025631 -0.644041 -0.077738
v 0.025631 -0.644041 -0.028252
v 0.025631 -0.692264 -0.028252
v 0.025631 -0.692264 -0.077738
v 0.025631 -0.692264 -0.077738
v 0.025631 -0.692264 -0.028252
v 0.025631 -0.740486 -0.028252
v 0.025631 -0.740486 -0.077738
v 0.025631 -0.692264 -0.930952
v 0.025631 -0.692264 -0.881450
v 0.025631 -0.740486 -0.881450
v 0.025631 -0.740486 -0.930952
v 0.025631 -0.692264 -0.523621
v 0.025631 -0.692264 -0.274844
v 0.025631 -0.740486 -0.274843
v 0.025631 -0.740486 -0.523621
v 0.025631 -0.644042 -0.930952
v 0.025631 -0.644042 -0.881450
v 0.025631 -0.692264 -0.881450
v 0.025631 -0.692264 -0.930952
v 0.025631 -0.644042 -0.573337
v 0.025631 -0.644042 -0.274844
v 0.025631 -0.692264 -0.274844
v 0.025631 -0.692264 -0.523621
v 0.025631 -0.595819 -0.930952
v 0.025631 -0.595819 -0.881450
v 0.025631 -0.644042 -0.881450
v 0.025631 -0.644042 -0.930952
v 0.025631 -0.595819 -0.573337
v 0.025631 -0.595819 -0.274844
v 0.025631 -0.644042 -0.274844
v 0.025631 -0.644042 -0.573337
v 0.025631 -0.547597 -0.930952
v 0.025631 -0.547597 -0.881450
v 0.025631 -0.595819 -0.881450
v 0.025631 -0.595819 -0.930952
v 0.025631 -0.547597 -0.469928
v 0.025631 -0.547597 -0.274844
v 0.025631 -0.595819 -0.274844
v 0.025631 -0.595819 -0.573337
v 0.025631 -0.499375 -0.930952
v 0.025631 -0.499375 -0.881450
v 0.025631 -0.547597 -0.881450
v 0.025631 -0.547597 -0.930952
v 0.025631 -0.499374 -0.469928
v 0.025631 -0.499374 -0.274844
v 0.025631 -0.547597 -0.274844
v 0.025631 -0.547597 -0.469928
v 0.025631 -0.451152 -0.930952
v 0.025631 -0.451152 -0.881450
v 0.025631 -0.499375 -0.881450
v 0.025631 -0.499375 -0.930952
v 0.025631 -0.451152 -0.573337
v 0.025631 -0.451152 -0.274844
v 0.025631 -0.499374 -0.274844
v 0.025631 -0.499374 -0.469928
v 0.025631 -0.402930 -0.930952
v 0.025631 -0.402930 -0.881450
v 0.025631 -0.451152 -0.881450
v 0.025631 -0.451152 -0.930952
v 0.025631 -0.402930 -0.573337
v 0.025631 -0.402930 -0.274844
v 0.025631 -0.451152 -0.274844
v 0.025631 -0.451152 -0.573337
v 0.025631 -0.354707 -0.930952
v 0.025631 -0.354707 -0.881450
v 0.025631 -0.402930 -0.881450
v 0.025631 -0.402930 -0.930952
v 0.025631 -0.354707 -0.543508
v 0.025631 -0.354707 -0.274844
v 0.025631 -0.402930 -0.274844
v 0.025631 -0.402930 -0.573337
v 0.025631 -0.306485 -0.930952
v 0.025631 -0.306485 -0.881450
v 0.025631 -0.354707 -0.881450
v 0.025631 -0.354707 -0.930952
v 0.025631 -0.306485 -0.543508
v 0.025631 -0.306485 -0.274844
v 0.025631 -0.354707 -0.274844
v 0.025631 -0.354707 -0.543508
v 0.025631 -0.258263 -0.930952
v 0.025631 -0.258263 -0.881451
v 0.025631 -0.306485 -0.881450
v 0.025631 -0.306485 -0.930952
v 0.025631 -0.258263 -0.589247
v 0.025631 -0.258263 -0.274844
v 0.025631 -0.306485 -0.274844
v 0.025631 -0.306485 -0.543508
v 0.025631 -0.210040 -0.930952
v 0.025631 -0.210040 -0.881451
v 0.025631 -0.258263 -0.881451
v 0.025631 -0.258263 -0.930952
v 0.025631 -0.210040 -0.589247
v 0.025631 -0.210040 -0.274844
v 0.025631 -0.258263 -0.274844
v 0.025631 -0.258263 -0.589247
v 0.025631 -0.161818 -0.930952
v 0.025631 -0.161818 -0.881451
v 0.025631 -0.210040 -0.881451
v 0.025631 -0.210040 -0.930952
v 0.025631 -0.161818 -0.609133
v 0.025631 -0.161818 -0.274844
v 0.025631 -0.210040 -0.274844
v 0.025631 -0.210040 -0.589247
v 0.025631 -0.113596 -0.930952
v 0.025631 -0.113596 -0.881451
v 0.025631 -0.161818 -0.881451
v 0.025631 -0.161818 -0.930952
v 0.025631 -0.113595 -0.609133
v 0.025631 -0.113595 -0.274844
v 0.025631 -0.161818 -0.274844
v 0.025631 -0.161818 -0.609133
v 0.025631 -0.065373 -0.930952
v 0.025631 -0.065373 -0.881451
v 0.025631 -0.113596 -0.881451
v 0.025631 -0.113596 -0.930952
v 0.025631 -0.065373 -0.517655
v 0.025631 -0.065373 -0.274844
v 0.025631 -0.113595 -0.274844
v 0.025631 -0.113595 -0.609133
v 0.025631 -0.017151 -0.930952
v 0.025631 -0.017151 -0.881451
v 0.025631 -0.065373 -0.881451
v 0.025631 -0.065373 -0.930952
v 0.025631 -0.017151 -0.517655
v 0.025631 -0.017151 -0.274844
v 0.025631 -0.065373 -0.274844
v 0.025631 -0.065373 -0.517655
v 0.025631 0.031547 -0.930952
v 0.025631 0.031547 -0.881451
v 0.025631 -0.017151 -0.881451
v 0.025631 -0.017151 -0.930952
v 0.025631 0.031547 -0.609133
v 0.025631 0.031547 -0.274844
v 0.025631 -0.017151 -0.274844
v 0.025631 -0.017151 -0.517655
v 0.025631 -0.740486 -0.930952
v 0.025631 -0.740486 -0.881450
v 0.025631 -0.792867 -0.881450
v 0.025631 -0.792867 -0.930952
v 0.025631 -0.017151 -0.185909
v 0.025631 -0.017151 -0.077738
v 0.025631 -0.065373 -0.077738
v 0.025631 -0.065373 -0.185909
v 0.025631 -0.740486 -0.185909
v 0.025631 -0.740486 -0.077738
v 0.025631 -0.792867 -0.077737
v 0.025631 -0.792867 -0.185909
v 0.025631 -0.740486 -0.881450
v 0.025631 -0.740486 -0.746299
v 0.025631 -0.792867 -0.746299
v 0.025631 -0.792867 -0.881450
v 0.025631 0.031547 -0.881451
v 0.025631 0.031547 -0.746300
v 0.025631 -0.017151 -0.746300
v 0.025631 -0.017151 -0.881451
v 0.025631 -0.065373 -0.185909
v 0.025631 -0.065373 -0.077738
v 0.025631 -0.113595 -0.077738
v 0.025631 -0.113595 -0.185909
v 0.025631 -0.017151 -0.881451
v 0.025631 -0.017151 -0.746300
v 0.025631 -0.065373 -0.746300
v 0.025631 -0.065373 -0.881451
v 0.025631 -0.113595 -0.185909
v 0.025631 -0.113595 -0.077738
v 0.025631 -0.161818 -0.077738
v 0.025631 -0.161818 -0.185909
v 0.025631 -0.065373 -0.881451
v 0.025631 -0.065373 -0.746300
v 0.025631 -0.113595 -0.746300
v 0.025631 -0.113596 -0.881451
v 0.025631 -0.161818 -0.185909
v 0.025631 -0.161818 -0.077738
v 0.025631 -0.210040 -0.077738
v 0.025631 -0.210040 -0.185909
v 0.025631 -0.113596 -0.881451
v 0.025631 -0.113595 -0.746300
v 0.025631 -0.161818 -0.746300
v 0.025631 -0.161818 -0.881451
v 0.025631 -0.210040 -0.185909
v 0.025631 -0.210040 -0.077738
v 0.025631 -0.258262 -0.077738
v 0.025631 -0.258263 -0.185909
v 0.025631 -0.161818 -0.881451
v 0.025631 -0.161818 -0.746300
v 0.025631 -0.210040 -0.746300
v 0.025631 -0.210040 -0.881451
v 0.025631 -0.258263 -0.185909
v 0.025631 -0.258262 -0.077738
v 0.025631 -0.306485 -0.077738
v 0.025631 -0.306485 -0.185909
v 0.025631 -0.210040 -0.881451
v 0.025631 -0.210040 -0.746300
v 0.025631 -0.258263 -0.746300
v 0.025631 -0.258263 -0.881451
v 0.025631 -0.306485 -0.185909
v 0.025631 -0.306485 -0.077738
v 0.025631 -0.354707 -0.077738
v 0.025631 -0.354707 -0.185909
v 0.025631 -0.258263 -0.881451
v 0.025631 -0.258263 -0.746300
v 0.025631 -0.306485 -0.746300
v 0.025631 -0.306485 -0.881450
v 0.025631 -0.354707 -0.185909
v 0.025631 -0.354707 -0.077738
v 0.025631 -0.402930 -0.077738
v 0.025631 -0.402930 -0.185909
v 0.025631 -0.306485 -0.881450
v 0.025631 -0.306485 -0.746300
v 0.025631 -0.354707 -0.746300
v 0.025631 -0.354707 -0.881450
v 0.025631 -0.402930 -0.185909
v 0.025631 -0.402930 -0.077738
v 0.025631 -0.451152 -0.077738
v 0.025631 -0.451152 -0.185909
v 0.025631 -0.354707 -0.881450
v 0.025631 -0.354707 -0.746300
v 0.025631 -0.402930 -0.746300
v 0.025631 -0.402930 -0.881450
v 0.025631 -0.451152 -0.185909
v 0.025631 -0.451152 -0.077738
v 0.025631 -0.499374 -0.077738
v 0.025631 -0.499374 -0.185909
v 0.025631 -0.402930 -0.881450
v 0.025631 -0.402930 -0.746300
v 0.025631 -0.451152 -0.746300
v 0.025631 -0.451152 -0.881450
v 0.025631 -0.499374 -0.185909
v 0.025631 -0.499374 -0.077738
v 0.025631 -0.547597 -0.077738
v 0.025631 -0.547597 -0.185909
v 0.025631 -0.451152 -0.881450
v 0.025631 -0.451152 -0.746300
v 0.025631 -0.499375 -0.746300
v 0.025631 -0.499375 -0.881450
v 0.025631 -0.547597 -0.185909
v 0.025631 -0.547597 -0.077738
v 0.025631 -0.595819 -0.077738
v 0.025631 -0.595819 -0.185909
v 0.025631 -0.499375 -0.881450
v 0.025631 -0.499375 -0.746300
v 0.025631 -0.547597 -0.746300
v 0.025631 -0.547597 -0.881450
v 0.025631 -0.595819 -0.185909
v 0.025631 -0.595819 -0.077738
v 0.025631 -0.644041 -0.077738
v 0.025631 -0.644042 -0.185909
v 0.025631 -0.547597 -0.881450
v 0.025631 -0.547597 -0.746300
v 0.025631 -0.595819 -0.746300
v 0.025631 -0.595819 -0.881450
v 0.025631 -0.644042 -0.185909
v 0.025631 -0.644041 -0.077738
v 0.025631 -0.692264 -0.077738
v 0.025631 -0.692264 -0.185909
v 0.025631 -0.595819 -0.881450
v 0.025631 -0.595819 -0.746300
v 0.025631 -0.644042 -0.746300
v 0.025631 -0.644042 -0.881450
v 0.025631 -0.692264 -0.185909
v 0.025631 -0.692264 -0.077738
v 0.025631 -0.740486 -0.077738
v 0.025631 -0.740486 -0.185909
v 0.025631 -0.644042 -0.881450
v 0.025631 -0.644042 -0.746300
v 0.025631 -0.692264 -0.746299
v 0.025631 -0.692264 -0.881450
v 0.025631 -0.692264 -0.881450
v 0.025631 -0.692264 -0.746299
v 0.025631 -0.740486 -0.746299
v 0.025631 -0.740486 -0.881450
v 0.025631 -0.740486 -0.523621
v 0.025631 -0.792867 -0.609133
v 0.025631 -0.792867 -0.746299
v 0.025631 -0.740486 -0.746299
v 0.025631 -0.740486 -0.185909
v 0.025631 -0.792867 -0.185909
v 0.025631 -0.792867 -0.274843
v 0.025631 -0.740486 -0.274843
v 0.025631 0.031547 -0.609133
v 0.025631 -0.017151 -0.517655
v 0.025631 -0.017151 -0.746300
v 0.025631 0.031547 -0.746300
v 0.025631 0.031547 -0.185909
v 0.025631 -0.017151 -0.185909
v 0.025631 -0.017151 -0.274844
v 0.025631 0.031547 -0.274844
v 0.025631 -0.017151 -0.517655
v 0.025631 -0.065373 -0.517655
v 0.025631 -0.065373 -0.746300
v 0.025631 -0.017151 -0.746300
v 0.025631 -0.017151 -0.185909
v 0.025631 -0.065373 -0.185909
v 0.025631 -0.065373 -0.274844
v 0.025631 -0.017151 -0.274844
v 0.025631 -0.065373 -0.517655
v 0.025631 -0.113595 -0.609133
v 0.025631 -0.113595 -0.746300
v 0.025631 -0.065373 -0.746300
v 0.025631 -0.065373 -0.185909
v 0.025631 -0.113595 -0.185909
v 0.025631 -0.113595 -0.274844
v 0.025631 -0.065373 -0.274844
v 0.025631 -0.113595 -0.609133
v 0.025631 -0.161818 -0.609133
v 0.025631 -0.161818 -0.746300
v 0.025631 -0.113595 -0.746300
v 0.025631 -0.113595 -0.185909
v 0.025631 -0.161818 -0.185909
v 0.025631 -0.161818 -0.274844
v 0.025631 -0.113595 -0.274844
v 0.025631 -0.161818 -0.609133
v 0.025631 -0.210040 -0.589247
v 0.025631 -0.210040 -0.746300
v 0.025631 -0.161818 -0.746300
v 0.025631 -0.161818 -0.185909
v 0.025631 -0.210040 -0.185909
v 0.025631 -0.210040 -0.274844
v 0.025631 -0.161818 -0.274844
v 0.025631 -0.210040 -0.589247
v 0.025631 -0.258263 -0.589247
v 0.025631 -0.258263 -0.746300
v 0.025631 -0.210040 -0.746300
v 0.025631 -0.210040 -0.185909
v 0.025631 -0.258263 -0.185909
v 0.025631 -0.258263 -0.274844
v 0.025631 -0.210040 -0.274844
v 0.025631 -0.258263 -0.589247
v 0.025631 -0.306485 -0.543508
v 0.025631 -0.306485 -0.746300
v 0.025631 -0.258263 -0.746300
v 0.025631 -0.258263 -0.185909
v 0.025631 -0.306485 -0.185909
v 0.025631 -0.306485 -0.274844
v 0.025631 -0.258263 -0.274844
v 0.025631 -0.306485 -0.543508
v 0.025631 -0.354707 -0.543508
v 0.025631 -0.354707 -0.746300
v 0.025631 -0.306485 -0.746300
v 0.025631 -0.306485 -0.185909
v 0.025631 -0.354707 -0.185909
v 0.025631 -0.354707 -0.274844
v 0.025631 -0.306485 -0.274844
v 0.025631 -0.354707 -0.543508
v 0.025631 -0.402930 -0.573337
v 0.025631 -0.402930 -0.746300
v 0.025631 -0.354707 -0.746300
v 0.025631 -0.354707 -0.185909
v 0.025631 -0.402930 -0.185909
v 0.025631 -0.402930 -0.274844
v 0.025631 -0.354707 -0.274844
v 0.025631 -0.402930 -0.573337
v 0.025631 -0.451152 -0.573337
v 0.025631 -0.451152 -0.746300
v 0.025631 -0.402930 -0.746300
v 0.025631 -0.402930 -0.185909
v 0.025631 -0.451152 -0.185909
v 0.025631 -0.451152 -0.274844
v 0.025631 -0.402930 -0.274844
v 0.025631 -0.451152 -0.573337
v 0.025631 -0.499374 -0.469928
v 0.025631 -0.499375 -0.746300
v 0.025631 -0.451152 -0.746300
v 0.025631 -0.451152 -0.185909
v 0.025631 -0.499374 -0.185909
v 0.025631 -0.499374 -0.274844
v 0.025631 -0.451152 -0.274844
v 0.025631 -0.499374 -0.469928
v 0.025631 -0.547597 -0.469928
v 0.025631 -0.547597 -0.746300
v 0.025631 -0.499375 -0.746300
v 0.025631 -0.499374 -0.185909
v 0.025631 -0.547597 -0.185909
v 0.025631 -0.547597 -0.274844
v 0.025631 -0.499374 -0.274844
v 0.025631 -0.547597 -0.469928
v 0.025631 -0.595819 -0.573337
v 0.025631 -0.595819 -0.746300
v 0.025631 -0.547597 -0.746300
v 0.025631 -0.547597 -0.185909
v 0.025631 -0.595819 -0.185909
v 0.025631 -0.595819 -0.274844
v 0.025631 -0.547597 -0.274844
v 0.025631 -0.595819 -0.573337
v 0.025631 -0.644042 -0.573337
v 0.025631 -0.644042 -0.746300
v 0.025631 -0.595819 -0.746300
v 0.025631 -0.595819 -0.185909
v 0.025631 -0.644042 -0.185909
v 0.025631 -0.644042 -0.274844
v 0.025631 -0.595819 -0.274844
v 0.025631 -0.644042 -0.573337
v 0.025631 -0.692264 -0.523621
v 0.025631 -0.692264 -0.746299
v 0.025631 -0.644042 -0.746300
v 0.025631 -0.644042 -0.185909
v 0.025631 -0.692264 -0.185909
v 0.025631 -0.692264 -0.274844
v 0.025631 -0.644042 -0.274844
v 0.025631 -0.692264 -0.523621
v 0.025631 -0.740486 -0.523621
v 0.025631 -0.740486 -0.746299
v 0.025631 -0.692264 -0.746299
v 0.025631 -0.692264 -0.185909
v 0.025631 -0.740486 -0.185909
v 0.025631 -0.740486 -0.274843
v 0.025631 -0.692264 -0.274844
v 0.025631 0.031547 -0.185909
v 0.025631 0.031547 -0.077738
v 0.025631 -0.017151 -0.077738
v 0.025631 -0.017151 -0.185909
v 0.025631 -0.740486 0.881472
v 0.025631 -0.740486 0.930958
v 0.025631 -0.792866 0.930958
v 0.025631 -0.792866 0.881472
v 0.025631 0.031548 0.881472
v 0.025631 0.031548 0.930958
v 0.025631 -0.017150 0.930958
v 0.025631 -0.017150 0.881472
v 0.025631 -0.740486 0.435588
v 0.025631 -0.740486 0.684366
v 0.025631 -0.792866 0.684366
v 0.025631 -0.792866 0.350077
v 0.025631 -0.017150 0.881472
v 0.025631 -0.017150 0.930958
v 0.025631 -0.065373 0.930958
v 0.025631 -0.065373 0.881472
v 0.025631 -0.113595 0.930958
v 0.025631 -0.113595 0.881472
v 0.025631 -0.161817 0.930958
v 0.025631 -0.161817 0.881472
v 0.025631 -0.210040 0.930958
v 0.025631 -0.210040 0.881472
v 0.025631 -0.210040 0.881472
v 0.025631 -0.210040 0.930958
v 0.025631 -0.258262 0.930958
v 0.025631 -0.258262 0.881472
v 0.025631 -0.258262 0.881472
v 0.025631 -0.258262 0.930958
v 0.025631 -0.306485 0.930958
v 0.025631 -0.306485 0.881472
v 0.025631 -0.354707 0.930958
v 0.025631 -0.354707 0.881472
v 0.025631 -0.402929 0.930958
v 0.025631 -0.402929 0.881472
v 0.025631 -0.402929 0.881472
v 0.025631 -0.402929 0.930958
v 0.025631 -0.451152 0.930958
v 0.025631 -0.451152 0.881472
v 0.025631 -0.451152 0.881472
v 0.025631 -0.451152 0.930958
v 0.025631 -0.499374 0.930958
v 0.025631 -0.499374 0.881472
v 0.025631 -0.547596 0.930958
v 0.025631 -0.547596 0.881472
v 0.025631 -0.595819 0.930958
v 0.025631 -0.595819 0.881472
v 0.025631 -0.644041 0.930958
v 0.025631 -0.644041 0.881472
v 0.025631 -0.644041 0.881472
v 0.025631 -0.644041 0.930958
v 0.025631 -0.692264 0.930958
v 0.025631 -0.692264 0.881472
v 0.025631 -0.692264 0.881472
v 0.025631 -0.692264 0.930958
v 0.025631 -0.740486 0.930958
v 0.025631 -0.740486 0.881472
v 0.025631 -0.692264 0.028258
v 0.025631 -0.692264 0.077759
v 0.025631 -0.740486 0.077759
v 0.025631 -0.740486 0.028258
v 0.025631 -0.692264 0.435588
v 0.025631 -0.692263 0.684366
v 0.025631 -0.740486 0.684366
v 0.025631 -0.740486 0.435588
v 0.025631 -0.644041 0.028258
v 0.025631 -0.644041 0.077759
v 0.025631 -0.692264 0.077759
v 0.025631 -0.692264 0.028258
v 0.025631 -0.644041 0.385872
v 0.025631 -0.644041 0.684366
v 0.025631 -0.692263 0.684366
v 0.025631 -0.692264 0.435588
v 0.025631 -0.595819 0.028258
v 0.025631 -0.595819 0.077759
v 0.025631 -0.644041 0.077759
v 0.025631 -0.644041 0.028258
v 0.025631 -0.595819 0.385872
v 0.025631 -0.595819 0.684366
v 0.025631 -0.644041 0.684366
v 0.025631 -0.644041 0.385872
v 0.025631 -0.547597 0.028258
v 0.025631 -0.547597 0.077759
v 0.025631 -0.595819 0.077759
v 0.025631 -0.595819 0.028258
v 0.025631 -0.547597 0.489282
v 0.025631 -0.547596 0.684366
v 0.025631 -0.595819 0.684366
v 0.025631 -0.595819 0.385872
v 0.025631 -0.499374 0.028258
v 0.025631 -0.499374 0.077759
v 0.025631 -0.547597 0.077759
v 0.025631 -0.547597 0.028258
v 0.025631 -0.499374 0.489282
v 0.025631 -0.499374 0.684366
v 0.025631 -0.547596 0.684366
v 0.025631 -0.547597 0.489282
v 0.025631 -0.451152 0.028257
v 0.025631 -0.451152 0.077759
v 0.025631 -0.499374 0.077759
v 0.025631 -0.499374 0.028258
v 0.025631 -0.451152 0.385872
v 0.025631 -0.451152 0.684366
v 0.025631 -0.499374 0.684366
v 0.025631 -0.499374 0.489282
v 0.025631 -0.402930 0.028257
v 0.025631 -0.402930 0.077759
v 0.025631 -0.451152 0.077759
v 0.025631 -0.451152 0.028257
v 0.025631 -0.402929 0.385872
v 0.025631 -0.402929 0.684366
v 0.025631 -0.451152 0.684366
v 0.025631 -0.451152 0.385872
v 0.025631 -0.354707 0.028257
v 0.025631 -0.354707 0.077759
v 0.025631 -0.402930 0.077759
v 0.025631 -0.402930 0.028257
v 0.025631 -0.354707 0.415702
v 0.025631 -0.354707 0.684366
v 0.025631 -0.402929 0.684366
v 0.025631 -0.402929 0.385872
v 0.025631 -0.306485 0.028257
v 0.025631 -0.306485 0.077759
v 0.025631 -0.354707 0.077759
v 0.025631 -0.354707 0.028257
v 0.025631 -0.306485 0.415702
v 0.025631 -0.306485 0.684366
v 0.025631 -0.354707 0.684366
v 0.025631 -0.354707 0.415702
v 0.025631 -0.258262 0.028257
v 0.025631 -0.258262 0.077759
v 0.025631 -0.306485 0.077759
v 0.025631 -0.306485 0.028257
v 0.025631 -0.258262 0.369963
v 0.025631 -0.258262 0.684366
v 0.025631 -0.306485 0.684366
v 0.025631 -0.306485 0.415702
v 0.025631 -0.210040 0.028257
v 0.025631 -0.210040 0.077759
v 0.025631 -0.258262 0.077759
v 0.025631 -0.258262 0.028257
v 0.025631 -0.210040 0.369963
v 0.025631 -0.210040 0.684366
v 0.025631 -0.258262 0.684366
v 0.025631 -0.258262 0.369963
v 0.025631 -0.161818 0.028257
v 0.025631 -0.161818 0.077759
v 0.025631 -0.210040 0.077759
v 0.025631 -0.210040 0.028257
v 0.025631 -0.161817 0.350077
v 0.025631 -0.161817 0.684366
v 0.025631 -0.210040 0.684366
v 0.025631 -0.210040 0.369963
v 0.025631 -0.113595 0.028257
v 0.025631 -0.113595 0.077759
v 0.025631 -0.161818 0.077759
v 0.025631 -0.161818 0.028257
v 0.025631 -0.113595 0.350077
v 0.025631 -0.113595 0.684366
v 0.025631 -0.161817 0.684366
v 0.025631 -0.161817 0.350077
v 0.025631 -0.065373 0.028257
v 0.025631 -0.065373 0.077759
v 0.025631 -0.113595 0.077759
v 0.025631 -0.113595 0.028257
v 0.025631 -0.065373 0.441554
v 0.025631 -0.065373 0.684366
v 0.025631 -0.113595 0.684366
v 0.025631 -0.113595 0.350077
v 0.025631 -0.017151 0.028257
v 0.025631 -0.017150 0.077759
v 0.025631 -0.065373 0.077759
v 0.025631 -0.065373 0.028257
v 0.025631 -0.017150 0.441554
v 0.025631 -0.017150 0.684366
v 0.025631 -0.065373 0.684366
v 0.025631 -0.065373 0.441554
v 0.025631 0.031547 0.028257
v 0.025631 0.031547 0.077759
v 0.025631 -0.017150 0.077759
v 0.025631 -0.017151 0.028257
v 0.025631 0.031548 0.350077
v 0.025631 0.031548 0.684366
v 0.025631 -0.017150 0.684366
v 0.025631 -0.017150 0.441554
v 0.025631 -0.740486 0.028258
v 0.025631 -0.740486 0.077759
v 0.025631 -0.792867 0.077759
v 0.025631 -0.792867 0.028258
v 0.025631 -0.017150 0.773301
v 0.025631 -0.017150 0.881472
v 0.025631 -0.065373 0.881472
v 0.025631 -0.065373 0.773301
v 0.025631 -0.740486 0.773301
v 0.025631 -0.740486 0.881472
v 0.025631 -0.792866 0.881472
v 0.025631 -0.792866 0.773301
v 0.025631 -0.740486 0.077759
v 0.025631 -0.740486 0.212910
v 0.025631 -0.792867 0.212910
v 0.025631 -0.792867 0.077759
v 0.025631 0.031547 0.077759
v 0.025631 0.031547 0.212910
v 0.025631 -0.017150 0.212910
v 0.025631 -0.017150 0.077759
v 0.025631 -0.065373 0.773301
v 0.025631 -0.065373 0.881472
v 0.025631 -0.113595 0.881472
v 0.025631 -0.113595 0.773301
v 0.025631 -0.017150 0.077759
v 0.025631 -0.017150 0.212910
v 0.025631 -0.065373 0.212910
v 0.025631 -0.065373 0.077759
v 0.025631 -0.113595 0.773301
v 0.025631 -0.113595 0.881472
v 0.025631 -0.161817 0.881472
v 0.025631 -0.161817 0.773301
v 0.025631 -0.065373 0.077759
v 0.025631 -0.065373 0.212910
v 0.025631 -0.113595 0.212910
v 0.025631 -0.113595 0.077759
v 0.025631 -0.161817 0.773301
v 0.025631 -0.161817 0.881472
v 0.025631 -0.210040 0.881472
v 0.025631 -0.210040 0.773301
v 0.025631 -0.113595 0.077759
v 0.025631 -0.113595 0.212910
v 0.025631 -0.161818 0.212910
v 0.025631 -0.161818 0.077759
v 0.025631 -0.210040 0.773301
v 0.025631 -0.210040 0.881472
v 0.025631 -0.258262 0.881472
v 0.025631 -0.258262 0.773301
v 0.025631 -0.161818 0.077759
v 0.025631 -0.161818 0.212910
v 0.025631 -0.210040 0.212910
v 0.025631 -0.210040 0.077759
v 0.025631 -0.258262 0.773301
v 0.025631 -0.258262 0.881472
v 0.025631 -0.306485 0.881472
v 0.025631 -0.306485 0.773301
v 0.025631 -0.210040 0.077759
v 0.025631 -0.210040 0.212910
v 0.025631 -0.258262 0.212910
v 0.025631 -0.258262 0.077759
v 0.025631 -0.306485 0.773301
v 0.025631 -0.306485 0.881472
v 0.025631 -0.354707 0.881472
v 0.025631 -0.354707 0.773301
v 0.025631 -0.258262 0.077759
v 0.025631 -0.258262 0.212910
v 0.025631 -0.306485 0.212910
v 0.025631 -0.306485 0.077759
v 0.025631 -0.354707 0.773301
v 0.025631 -0.354707 0.881472
v 0.025631 -0.402929 0.881472
v 0.025631 -0.402929 0.773301
v 0.025631 -0.306485 0.077759
v 0.025631 -0.306485 0.212910
v 0.025631 -0.354707 0.212910
v 0.025631 -0.354707 0.077759
v 0.025631 -0.402929 0.773301
v 0.025631 -0.402929 0.881472
v 0.025631 -0.451152 0.881472
v 0.025631 -0.451152 0.773301
v 0.025631 -0.354707 0.077759
v 0.025631 -0.354707 0.212910
v 0.025631 -0.402930 0.212910
v 0.025631 -0.402930 0.077759
v 0.025631 -0.451152 0.773301
v 0.025631 -0.451152 0.881472
v 0.025631 -0.499374 0.881472
v 0.025631 -0.499374 0.773301
v 0.025631 -0.402930 0.077759
v 0.025631 -0.402930 0.212910
v 0.025631 -0.451152 0.212910
v 0.025631 -0.451152 0.077759
v 0.025631 -0.499374 0.773301
v 0.025631 -0.499374 0.881472
v 0.025631 -0.547596 0.881472
v 0.025631 -0.547596 0.773301
v 0.025631 -0.451152 0.077759
v 0.025631 -0.451152 0.212910
v 0.025631 -0.499374 0.212910
v 0.025631 -0.499374 0.077759
v 0.025631 -0.547596 0.773301
v 0.025631 -0.547596 0.881472
v 0.025631 -0.595819 0.881472
v 0.025631 -0.595819 0.773301
v 0.025631 -0.499374 0.077759
v 0.025631 -0.499374 0.212910
v 0.025631 -0.547597 0.212910
v 0.025631 -0.547597 0.077759
v 0.025631 -0.595819 0.773301
v 0.025631 -0.595819 0.881472
v 0.025631 -0.644041 0.881472
v 0.025631 -0.644041 0.773301
v 0.025631 -0.547597 0.077759
v 0.025631 -0.547597 0.212910
v 0.025631 -0.595819 0.212910
v 0.025631 -0.595819 0.077759
v 0.025631 -0.644041 0.773301
v 0.025631 -0.644041 0.881472
v 0.025631 -0.692264 0.881472
v 0.025631 -0.692263 0.773301
v 0.025631 -0.595819 0.077759
v 0.025631 -0.595819 0.212910
v 0.025631 -0.644041 0.212910
v 0.025631 -0.644041 0.077759
v 0.025631 -0.692263 0.773301
v 0.025631 -0.692264 0.881472
v 0.025631 -0.740486 0.881472
v 0.025631 -0.740486 0.773301
v 0.025631 -0.644041 0.077759
v 0.025631 -0.644041 0.212910
v 0.025631 -0.692264 0.212910
v 0.025631 -0.692264 0.077759
v 0.025631 -0.692264 0.077759
v 0.025631 -0.692264 0.212910
v 0.025631 -0.740486 0.212910
v 0.025631 -0.740486 0.077759
v 0.025631 -0.740486 0.435588
v 0.025631 -0.792866 0.350077
v 0.025631 -0.792867 0.212910
v 0.025631 -0.740486 0.212910
v 0.025631 -0.740486 0.773301
v 0.025631 -0.792866 0.773301
v 0.025631 -0.792866 0.684366
v 0.025631 -0.740486 0.684366
v 0.025631 0.031548 0.350077
v 0.025631 -0.017150 0.441554
v 0.025631 -0.017150 0.212910
v 0.025631 0.031547 0.212910
v 0.025631 0.031548 0.773301
v 0.025631 -0.017150 0.773301
v 0.025631 -0.017150 0.684366
v 0.025631 0.031548 0.684366
v 0.025631 -0.017150 0.441554
v 0.025631 -0.065373 0.441554
v 0.025631 -0.065373 0.212910
v 0.025631 -0.017150 0.212910
v 0.025631 -0.017150 0.773301
v 0.025631 -0.065373 0.773301
v 0.025631 -0.065373 0.684366
v 0.025631 -0.017150 0.684366
v 0.025631 -0.065373 0.441554
v 0.025631 -0.113595 0.350077
v 0.025631 -0.113595 0.212910
v 0.025631 -0.065373 0.212910
v 0.025631 -0.065373 0.773301
v 0.025631 -0.113595 0.773301
v 0.025631 -0.113595 0.684366
v 0.025631 -0.065373 0.684366
v 0.025631 -0.113595 0.350077
v 0.025631 -0.161817 0.350077
v 0.025631 -0.161818 0.212910
v 0.025631 -0.113595 0.212910
v 0.025631 -0.113595 0.773301
v 0.025631 -0.161817 0.773301
v 0.025631 -0.161817 0.684366
v 0.025631 -0.113595 0.684366
v 0.025631 -0.161817 0.350077
v 0.025631 -0.210040 0.369963
v 0.025631 -0.210040 0.212910
v 0.025631 -0.161818 0.212910
v 0.025631 -0.161817 0.773301
v 0.025631 -0.210040 0.773301
v 0.025631 -0.210040 0.684366
v 0.025631 -0.161817 0.684366
v 0.025631 -0.210040 0.369963
v 0.025631 -0.258262 0.369963
v 0.025631 -0.258262 0.212910
v 0.025631 -0.210040 0.212910
v 0.025631 -0.210040 0.773301
v 0.025631 -0.258262 0.773301
v 0.025631 -0.258262 0.684366
v 0.025631 -0.210040 0.684366
v 0.025631 -0.258262 0.369963
v 0.025631 -0.306485 0.415702
v 0.025631 -0.306485 0.212910
v 0.025631 -0.258262 0.212910
v 0.025631 -0.258262 0.773301
v 0.025631 -0.306485 0.773301
v 0.025631 -0.306485 0.684366
v 0.025631 -0.258262 0.684366
v 0.025631 -0.306485 0.415702
v 0.025631 -0.354707 0.415702
v 0.025631 -0.354707 0.212910
v 0.025631 -0.306485 0.212910
v 0.025631 -0.306485 0.773301
v 0.025631 -0.354707 0.773301
v 0.025631 -0.354707 0.684366
v 0.025631 -0.306485 0.684366
v 0.025631 -0.354707 0.415702
v 0.025631 -0.402929 0.385872
v 0.025631 -0.402930 0.212910
v 0.025631 -0.354707 0.212910
v 0.025631 -0.354707 0.773301
v 0.025631 -0.402929 0.773301
v 0.025631 -0.402929 0.684366
v 0.025631 -0.354707 0.684366
v 0.025631 -0.402929 0.385872
v 0.025631 -0.451152 0.385872
v 0.025631 -0.451152 0.212910
v 0.025631 -0.402930 0.212910
v 0.025631 -0.402929 0.773301
v 0.025631 -0.451152 0.773301
v 0.025631 -0.451152 0.684366
v 0.025631 -0.402929 0.684366
v 0.025631 -0.451152 0.385872
v 0.025631 -0.499374 0.489282
v 0.025631 -0.499374 0.212910
v 0.025631 -0.451152 0.212910
v 0.025631 -0.451152 0.773301
v 0.025631 -0.499374 0.773301
v 0.025631 -0.499374 0.684366
v 0.025631 -0.451152 0.684366
v 0.025631 -0.499374 0.489282
v 0.025631 -0.547597 0.489282
v 0.025631 -0.547597 0.212910
v 0.025631 -0.499374 0.212910
v 0.025631 -0.499374 0.773301
v 0.025631 -0.547596 0.773301
v 0.025631 -0.547596 0.684366
v 0.025631 -0.499374 0.684366
v 0.025631 -0.547597 0.489282
v 0.025631 -0.595819 0.385872
v 0.025631 -0.595819 0.212910
v 0.025631 -0.547597 0.212910
v 0.025631 -0.547596 0.773301
v 0.025631 -0.595819 0.773301
v 0.025631 -0.595819 0.684366
v 0.025631 -0.547596 0.684366
v 0.025631 -0.595819 0.385872
v 0.025631 -0.644041 0.385872
v 0.025631 -0.644041 0.212910
v 0.025631 -0.595819 0.212910
v 0.025631 -0.595819 0.773301
v 0.025631 -0.644041 0.773301
v 0.025631 -0.644041 0.684366
v 0.025631 -0.595819 0.684366
v 0.025631 -0.644041 0.385872
v 0.025631 -0.692264 0.435588
v 0.025631 -0.692264 0.212910
v 0.025631 -0.644041 0.212910
v 0.025631 -0.644041 0.773301
v 0.025631 -0.692263 0.773301
v 0.025631 -0.692263 0.684366
v 0.025631 -0.644041 0.684366
v 0.025631 -0.692264 0.435588
v 0.025631 -0.740486 0.435588
v 0.025631 -0.740486 0.212910
v 0.025631 -0.692264 0.212910
v 0.025631 -0.692263 0.773301
v 0.025631 -0.740486 0.773301
v 0.025631 -0.740486 0.684366
v 0.025631 -0.692263 0.684366
v 0.025631 0.031548 0.773301
v 0.025631 0.031548 0.881472
v 0.025631 -0.017150 0.881472
v 0.025631 -0.017150 0.773301
v 0.057009 0.278147 -0.715162
v 0.057009 0.294141 -0.715162
v -0.060834 0.294141 -0.715162
v -0.060834 0.278147 -0.715162
v -0.060834 0.278147 -0.715162
v -0.060834 0.294141 -0.715162
v -0.060834 0.294141 -0.833004
v -0.060834 0.278147 -0.833004
v -0.060834 0.278147 -0.833004
v -0.060834 0.294141 -0.833004
v 0.057009 0.294141 -0.833004
v 0.057009 0.278147 -0.833004
v 0.057009 0.278147 -0.833004
v 0.057009 0.294141 -0.833004
v 0.057009 0.294141 -0.715162
v 0.057009 0.278147 -0.715162
v -0.060834 0.278147 -0.715162
v -0.060834 0.278147 -0.833004
v 0.057009 0.278147 -0.833004
v 0.057009 0.278147 -0.715162
v -0.060834 0.294141 -0.833004
v -0.060834 0.294141 -0.715162
v 0.057009 0.294141 -0.715162
v 0.057009 0.294141 -0.833004
v 0.057009 0.278148 0.715162
v -0.060834 0.278148 0.715162
v -0.060834 0.294141 0.715162
v 0.057009 0.294141 0.715162
v -0.060834 0.278148 0.715162
v -0.060834 0.278148 0.833004
v -0.060834 0.294141 0.833004
v -0.060834 0.294141 0.715162
v -0.060834 0.278148 0.833004
v 0.057009 0.278148 0.833004
v 0.057009 0.294141 0.833004
v -0.060834 0.294141 0.833004
v 0.057009 0.278148 0.833004
v 0.057009 0.278148 0.715162
v 0.057009 0.294141 0.715162
v 0.057009 0.294141 0.833004
v -0.060834 0.278148 0.715162
v 0.057009 0.278148 0.715162
v 0.057009 0.278148 0.833004
v -0.060834 0.278148 0.833004
v -0.060834 0.294141 0.833004
v 0.057009 0.294141 0.833004
v 0.057009 0.294141 0.715162
v -0.060834 0.294141 0.715162
v -0.034688 0.743931 -0.774083
v -0.034688 0.791704 -0.774083
v -0.033571 0.791704 -0.782566
v -0.033571 0.743931 -0.782566
v -0.030297 0.791704 -0.790471
v -0.030297 0.743931 -0.790471
v -0.025088 0.791704 -0.797259
v -0.025088 0.743931 -0.797259
v -0.018300 0.791704 -0.802468
v -0.018300 0.743931 -0.802468
v -0.010395 0.791704 -0.805742
v -0.010395 0.743931 -0.805742
v -0.001912 0.791704 -0.806859
v -0.001912 0.743931 -0.806859
v 0.006571 0.791704 -0.805742
v 0.006571 0.743931 -0.805742
v 0.014475 0.791704 -0.802468
v 0.014475 0.743931 -0.802468
v 0.021263 0.791704 -0.797259
v 0.021263 0.743931 -0.797259
v 0.026472 0.791704 -0.790471
v 0.026472 0.743931 -0.790471
v 0.029746 0.791704 -0.782566
v 0.029746 0.743931 -0.782566
v 0.030863 0.791704 -0.774083
v 0.030863 0.743931 -0.774083
v 0.029746 0.791704 -0.765600
v 0.029746 0.743931 -0.765600
v 0.026472 0.791704 -0.757696
v 0.026472 0.743931 -0.757696
v 0.021263 0.791704 -0.750908
v 0.021263 0.743931 -0.750908
v 0.014475 0.791704 -0.745699
v 0.014475 0.743931 -0.745699
v 0.006571 0.791704 -0.742425
v 0.006571 0.743931 -0.742425
v -0.001912 0.791704 -0.741308
v -0.001912 0.743931 -0.741308
v -0.010395 0.791704 -0.742425
v -0.010395 0.743931 -0.742425
v -0.018300 0.791704 -0.745699
v -0.018300 0.743931 -0.745699
v -0.025088 0.791704 -0.750908
v -0.025088 0.743931 -0.750908
v -0.030297 0.791704 -0.757696
v -0.030297 0.743931 -0.757696
v -0.033571 0.791704 -0.765600
v -0.033571 0.743931 -0.765600
v -0.033571 0.289172 -0.765600
v -0.033571 0.336945 -0.765600
v -0.034688 0.336945 -0.774083
v -0.034688 0.289172 -0.774083
v -0.030297 0.289172 -0.757695
v -0.030297 0.336945 -0.757695
v -0.025088 0.289172 -0.750907
v -0.025088 0.336945 -0.750907
v -0.018300 0.289172 -0.745699
v -0.018300 0.336945 -0.745699
v -0.010395 0.289172 -0.742424
v -0.010395 0.336945 -0.742425
v -0.001912 0.289172 -0.741308
v -0.001912 0.336945 -0.741308
v 0.006571 0.289172 -0.742424
v 0.006571 0.336945 -0.742425
v 0.014475 0.289172 -0.745699
v 0.014475 0.336945 -0.745699
v 0.021263 0.289172 -0.750907
v 0.021263 0.336945 -0.750907
v 0.026472 0.289172 -0.757695
v 0.026472 0.336945 -0.757695
v 0.029746 0.289172 -0.765600
v 0.029746 0.336945 -0.765600
v 0.030863 0.289172 -0.774083
v 0.030863 0.336945 -0.774083
v 0.029746 0.289172 -0.782566
v 0.029746 0.336945 -0.782566
v 0.026472 0.289172 -0.790471
v 0.026472 0.336945 -0.790471
v 0.021263 0.289172 -0.797259
v 0.021263 0.336945 -0.797259
v 0.014475 0.289172 -0.802467
v 0.014475 0.336945 -0.802467
v 0.006571 0.289172 -0.805742
v 0.006571 0.336945 -0.805742
v -0.001912 0.289172 -0.806859
v -0.001912 0.336945 -0.806859
v -0.010395 0.289172 -0.805742
v -0.010395 0.336945 -0.805742
v -0.018300 0.289172 -0.802467
v -0.018300 0.336945 -0.802467
v -0.025088 0.289172 -0.797259
v -0.025088 0.336945 -0.797259
v -0.030297 0.289172 -0.790471
v -0.030297 0.336945 -0.790471
v -0.033571 0.289172 -0.782566
v -0.033571 0.336945 -0.782566
v -0.034688 0.743931 0.774083
v -0.033571 0.743931 0.782566
v -0.033571 0.791705 0.782566
v -0.034688 0.791705 0.774083
v -0.030296 0.743931 0.790471
v -0.030296 0.791705 0.790471
v -0.025088 0.743931 0.797259
v -0.025088 0.791705 0.797259
v -0.018300 0.743931 0.802467
v -0.018300 0.791705 0.802467
v -0.010395 0.743931 0.805742
v -0.010395 0.791705 0.805742
v -0.001912 0.743931 0.806858
v -0.001912 0.791705 0.806858
v 0.006571 0.743931 0.805742
v 0.006571 0.791705 0.805742
v 0.014476 0.743931 0.802467
v 0.014476 0.791705 0.802467
v 0.021264 0.743931 0.797259
v 0.021264 0.791705 0.797259
v 0.026472 0.743931 0.790471
v 0.026472 0.791705 0.790471
v 0.029746 0.743931 0.782566
v 0.029746 0.791705 0.782566
v 0.030863 0.743931 0.774083
v 0.030863 0.791705 0.774083
v 0.029746 0.743931 0.765600
v 0.029746 0.791705 0.765600
v 0.026472 0.743931 0.757695
v 0.026472 0.791705 0.757695
v 0.021264 0.743931 0.750907
v 0.021264 0.791705 0.750907
v 0.014476 0.743931 0.745699
v 0.014476 0.791705 0.745699
v 0.006571 0.743931 0.742424
v 0.006571 0.791705 0.742424
v -0.001912 0.743931 0.741308
v -0.001912 0.791705 0.741308
v -0.010395 0.743931 0.742424
v -0.010395 0.791705 0.742424
v -0.018300 0.743931 0.745699
v -0.018300 0.791705 0.745699
v -0.025088 0.743931 0.750907
v -0.025088 0.791705 0.750907
v -0.030296 0.743931 0.757695
v -0.030296 0.791705 0.757695
v -0.033571 0.743931 0.765600
v -0.033571 0.791705 0.765600
v -0.033571 0.289172 0.765600
v -0.034688 0.289172 0.774083
v -0.034688 0.336945 0.774083
v -0.033571 0.336945 0.765600
v -0.030296 0.289172 0.757695
v -0.030296 0.336945 0.757695
v -0.025088 0.289172 0.750907
v -0.025088 0.336945 0.750907
v -0.018300 0.289172 0.745699
v -0.018300 0.336945 0.745699
v -0.010395 0.289172 0.742424
v -0.010395 0.336945 0.742424
v -0.001912 0.289172 0.741308
v -0.001912 0.336945 0.741308
v 0.006571 0.289172 0.742424
v 0.006571 0.336945 0.742424
v 0.014476 0.289172 0.745699
v 0.014476 0.336945 0.745699
v 0.021264 0.289172 0.750907
v 0.021264 0.336945 0.750907
v 0.026472 0.289172 0.757695
v 0.026472 0.336945 0.757695
v 0.029746 0.289172 0.765600
v 0.029746 0.336945 0.765600
v 0.030863 0.289172 0.774083
v 0.030863 0.336945 0.774083
v 0.029746 0.289172 0.782566
v 0.029746 0.336945 0.782566
v 0.026472 0.289172 0.790471
v 0.026472 0.336945 0.790471
v 0.021264 0.289172 0.797259
v 0.021264 0.336945 0.797259
v 0.014476 0.289172 0.802467
v 0.014476 0.336945 0.802467
v 0.006571 0.289172 0.805742
v 0.006571 0.336945 0.805742
v -0.001912 0.289172 0.806859
v -0.001912 0.336945 0.806858
v -0.010395 0.289172 0.805742
v -0.010395 0.336945 0.805742
v -0.018300 0.289172 0.802467
v -0.018300 0.336945 0.802467
v -0.025088 0.289172 0.797259
v -0.025088 0.336945 0.797259
v -0.030296 0.289172 0.790471
v -0.030296 0.336945 0.790471
v -0.033571 0.289172 0.782566
v -0.033571 0.336945 0.782566
v 0.057009 0.786735 -0.715162
v 0.057009 0.819078 -0.715162
v -0.060834 0.819078 -0.715162
v -0.060834 0.786735 -0.715162
v -0.060834 0.786735 -0.715162
v -0.060834 0.819078 -0.715162
v -0.060834 0.819078 -0.833005
v -0.060834 0.786735 -0.833005
v -0.060834 0.786735 -0.833005
v -0.060834 0.819078 -0.833005
v 0.057009 0.819078 -0.833005
v 0.057009 0.786735 -0.833005
v 0.057009 0.786735 -0.833005
v 0.057009 0.819078 -0.833005
v 0.057009 0.819078 -0.715162
v 0.057009 0.786735 -0.715162
v -0.060834 0.786735 -0.715162
v -0.060834 0.786735 -0.833005
v 0.057009 0.786735 -0.833005
v 0.057009 0.786735 -0.715162
v -0.060834 0.819078 -0.833005
v -0.060834 0.819078 -0.715162
v 0.057009 0.819078 -0.715162
v 0.057009 0.819078 -0.833005
v 0.057009 0.786735 0.715161
v -0.060834 0.786735 0.715161
v -0.060834 0.819079 0.715161
v 0.057009 0.819079 0.715161
v -0.060834 0.786735 0.715161
v -0.060834 0.786735 0.833004
v -0.060834 0.819079 0.833004
v -0.060834 0.819079 0.715161
v -0.060834 0.786735 0.833004
v 0.057009 0.786735 0.833004
v 0.057009 0.819079 0.833004
v -0.060834 0.819079 0.833004
v 0.057009 0.786735 0.833004
v 0.057009 0.786735 0.715161
v 0.057009 0.819079 0.715161
v 0.057009 0.819079 0.833004
v -0.060834 0.786735 0.715161
v 0.057009 0.786735 0.715161
v 0.057009 0.786735 0.833004
v -0.060834 0.786735 0.833004
v -0.060834 0.819079 0.833004
v 0.057009 0.819079 0.833004
v 0.057009 0.819079 0.715161
v -0.060834 0.819079 0.715161
v -0.075198 -0.770938 -0.959204
v -0.075198 -0.795008 -0.952754
v -0.075198 -0.812629 -0.935133
v -0.075198 -0.819079 -0.911063
v -0.075198 -0.819078 0.000000
v 0.075198 0.108063 -0.203557
v 0.075198 0.108063 -0.190021
v 0.075198 0.108063 -0.174258
v 0.075198 0.108063 -0.157341
v 0.075198 0.108063 -0.140425
v 0.075198 0.108063 -0.124662
v 0.075198 0.108063 -0.111126
v 0.075198 0.254307 -0.111126
v 0.075198 0.254307 -0.124662
v 0.075198 0.254307 -0.140425
v 0.075198 0.254307 -0.157342
v 0.075198 0.254307 -0.174258
v 0.075198 0.254307 -0.190021
v 0.075198 0.254307 -0.203557
v -0.075198 -0.819078 0.911063
v -0.075198 -0.812628 0.935134
v -0.075198 -0.795008 0.952755
v -0.075198 -0.770937 0.959204
v 0.075198 0.108063 0.111126
v 0.075198 0.108063 0.124662
v 0.075198 0.108063 0.140425
v 0.075198 0.108063 0.157341
v 0.075198 0.108063 0.174258
v 0.075198 0.108063 0.190021
v 0.075198 0.108063 0.203557
v 0.075198 0.254307 0.203557
v 0.075198 0.254307 0.190021
v 0.075198 0.254307 0.174258
v 0.075198 0.254307 0.157341
v 0.075198 0.254307 0.140425
v 0.075198 0.254307 0.124662
v 0.075198 0.254307 0.111126
v -0.033571 0.791704 -0.782566
v -0.034688 0.791704 -0.774083
v -0.033571 0.791704 -0.765600
v -0.030297 0.791704 -0.757696
v -0.025088 0.791704 -0.750908
v -0.018300 0.791704 -0.745699
v -0.010395 0.791704 -0.742425
v -0.001912 0.791704 -0.741308
v 0.006571 0.791704 -0.742425
v 0.014475 0.791704 -0.745699
v 0.021263 0.791704 -0.750908
v 0.026472 0.791704 -0.757696
v 0.029746 0.791704 -0.765600
v 0.030863 0.791704 -0.774083
v 0.029746 0.791704 -0.782566
v 0.026472 0.791704 -0.790471
v 0.021263 0.791704 -0.797259
v 0.014475 0.791704 -0.802468
v 0.006571 0.791704 -0.805742
v -0.001912 0.791704 -0.806859
v -0.010395 0.791704 -0.805742
v -0.018300 0.791704 -0.802468
v -0.025088 0.791704 -0.797259
v -0.030297 0.791704 -0.790471
v -0.034688 0.289172 -0.774083
v -0.033571 0.289172 -0.782566
v -0.030297 0.289172 -0.790471
v -0.025088 0.289172 -0.797259
v -0.018300 0.289172 -0.802467
v -0.010395 0.289172 -0.805742
v -0.001912 0.289172 -0.806859
v 0.006571 0.289172 -0.805742
v 0.014475 0.289172 -0.802467
v 0.021263 0.289172 -0.797259
v 0.026472 0.289172 -0.790471
v 0.029746 0.289172 -0.782566
v 0.030863 0.289172 -0.774083
v 0.029746 0.289172 -0.765600
v 0.026472 0.289172 -0.757695
v 0.021263 0.289172 -0.750907
v 0.014475 0.289172 -0.745699
v 0.006571 0.289172 -0.742424
v -0.001912 0.289172 -0.741308
v -0.010395 0.289172 -0.742424
v -0.018300 0.289172 -0.745699
v -0.025088 0.289172 -0.750907
v -0.030297 0.289172 -0.757695
v -0.033571 0.289172 -0.765600
v -0.033571 0.791705 0.782566
v -0.030296 0.791705 0.790471
v -0.025088 0.791705 0.797259
v -0.018300 0.791705 0.802467
v -0.010395 0.791705 0.805742
v -0.001912 0.791705 0.806858
v 0.006571 0.791705 0.805742
v 0.014476 0.791705 0.802467
v 0.021264 0.791705 0.797259
v 0.026472 0.791705 0.790471
v 0.029746 0.791705 0.782566
v 0.030863 0.791705 0.774083
v 0.029746 0.791705 0.765600
v 0.026472 0.791705 0.757695
v 0.021264 0.791705 0.750907
v 0.014476 0.791705 0.745699
v 0.006571 0.791705 0.742424
v -0.001912 0.791705 0.741308
v -0.010395 0.791705 0.742424
v -0.018300 0.791705 0.745699
v -0.025088 0.791705 0.750907
v -0.030296 0.791705 0.757695
v -0.033571 0.791705 0.765600
v -0.034688 0.791705 0.774083
v -0.034688 0.289172 0.774083
v -0.033571 0.289172 0.765600
v -0.030296 0.289172 0.757695
v -0.025088 0.289172 0.750907
v -0.018300 0.289172 0.745699
v -0.010395 0.289172 0.742424
v -0.001912 0.289172 0.741308
v 0.006571 0.289172 0.742424
v 0.014476 0.289172 0.745699
v 0.021264 0.289172 0.750907
v 0.026472 0.289172 0.757695
v 0.029746 0.289172 0.765600
v 0.030863 0.289172 0.774083
v 0.029746 0.289172 0.782566
v 0.026472 0.289172 0.790471
v 0.021264 0.289172 0.797259
v 0.014476 0.289172 0.802467
v 0.006571 0.289172 0.805742
v -0.001912 0.289172 0.806859
v -0.010395 0.289172 0.805742
v -0.018300 0.289172 0.802467
v -0.025088 0.289172 0.797259
v -0.030296 0.289172 0.790471
v -0.033571 0.289172 0.782566
vn 1.0000 -0.0000 -0.0000
vn -1.0000 -0.0000 -0.0000
vn -0.0000 0.7071 0.7071
vn -0.0000 1.0000 -0.0000
vn 0.1305 -0.9914 -0.0000
vn -0.0000 -1.0000 -0.0000
vn -0.0000 -0.0000 -1.0000
vn -0.0000 -0.9914 -0.1305
vn -0.0000 -0.8660 -0.5000
vn -0.0000 -0.5000 -0.8660
vn -0.0000 -0.1305 -0.9914
vn 0.5000 -0.8660 -0.0000
vn 0.7071 -0.7071 -0.0000
vn 0.9659 -0.2588 -0.0000
vn 0.9914 -0.1305 -0.0000
vn -0.0000 0.2588 0.9659
vn -0.0000 0.1305 0.9914
vn -0.0000 0.9914 0.1305
vn -0.0000 0.9659 0.2588
vn -0.0000 -0.0000 1.0000
vn -0.0000 0.7071 -0.7071
vn -0.0000 -0.9914 0.1305
vn -0.0000 -0.8660 0.5000
vn -0.0000 -0.5000 0.8660
vn -0.0000 -0.1305 0.9914
vn -0.0000 0.2588 -0.9659
vn -0.0000 0.1305 -0.9914
vn -0.0000 0.9914 -0.1305
vn -0.0000 0.9659 -0.2588
vn -0.9659 -0.0000 -0.2588
vn -0.8660 -0.0000 -0.5000
vn -0.7071 -0.0000 -0.7071
vn -0.5000 -0.0000 -0.8660
vn -0.2588 -0.0000 -0.9659
vn 0.2588 -0.0000 -0.9659
vn 0.5000 -0.0000 -0.8660
vn 0.7071 -0.0000 -0.7071
vn 0.8660 -0.0000 -0.5000
vn 0.9659 -0.0000 -0.2588
vn 0.9659 -0.0000 0.2588
vn 0.8660 -0.0000 0.5000
vn 0.7071 -0.0000 0.7071
vn 0.5000 -0.0000 0.8660
vn 0.2588 -0.0000 0.9659
vn -0.2588 -0.0000 0.9659
vn -0.5000 -0.0000 0.8660
vn -0.7071 -0.0000 0.7071
vn -0.8660 -0.0000 0.5000
vn -0.9659 -0.0000 0.2588
vt 0.345410 0.277759
vt 0.345410 0.277759
vt 0.345410 0.277759
vt 0.157517 0.278666
vt 0.157517 0.278666
vt 0.157517 0.278666
vt 0.345411 0.277759
vt 0.345411 0.277759
vt 0.345411 0.277759
vt 0.345411 0.277759
vt 0.345411 0.277759
vt 0.345411 0.277759
vt 0.157516 0.278666
vt 0.096334 0.282000
vt 0.157517 0.278666
vt 0.157517 0.278666
vt 0.157517 0.278666
vt 0.157516 0.278666
vt 0.157516 0.278666
vt 0.157516 0.278666
vt 0.156725 0.280800
vt 0.344525 0.280800
vt 0.218718 0.280638
vt 0.095201 0.281298
vt 0.095786 0.280492
vt 0.095786 0.280492
vt 0.095786 0.280492
vt 0.095152 0.279711
s 0
usemtl AIRPORT
f 1/1/1 2/2/1 3/1/1
f 2/2/1 4/2/1 3/1/1
f 5/2/1 6/3/1 7/2/1
f 8/2/1 7/2/1 6/3/1
f 4/2/1 8/2/1 3/1/1
f 3/1/1 8/2/1 6/3/1
f 9/4/1 10/4/1 11/4/1
f 12/4/1 13/4/1 14/4/1
f 15/5/1 16/6/1 17/6/1
f 18/7/1 19/7/1 20/7/1
f 21/2/1 22/8/1 23/2/1
f 24/2/1 25/8/1 26/2/1
f 27/2/1 28/9/1 29/2/1
f 30/2/1 31/10/1 32/2/1
f 33/2/1 34/11/1 35/2/1
f 36/2/1 37/11/1 38/2/1
f 39/2/1 40/2/1 41/2/1
f 42/2/1 43/3/1 44/2/1
f 43/3/1 45/12/1 46/12/1
f 44/2/1 47/3/1 48/2/1
f 49/2/1 50/2/1 51/1/1
f 50/2/1 52/2/1 51/1/1
f 53/2/1 48/2/1 47/3/1
f 47/3/1 54/3/1 53/2/1
f 51/1/1 52/2/1 55/1/1
f 52/2/1 56/2/1 55/1/1
f 53/2/1 54/3/1 57/2/1
f 58/2/1 57/2/1 54/3/1
f 56/2/1 58/2/1 55/1/1
f 55/1/1 58/2/1 54/3/1
f 59/4/1 60/4/1 61/13/1
f 62/4/1 63/4/1 64/13/1
f 61/13/1 65/13/1 59/4/1
f 64/13/1 63/4/1 66/13/1
f 67/13/1 66/13/1 63/4/1
f 11/4/1 10/4/1 68/13/1
f 12/4/1 14/4/1 69/13/1
f 68/13/1 70/13/1 11/4/1
f 69/13/1 14/4/1 71/13/1
f 72/13/1 11/4/1 70/13/1
f 73/13/1 74/4/1 75/13/1
f 76/13/1 77/4/1 78/13/1
f 79/13/1 75/13/1 74/4/1
f 80/4/1 77/4/1 76/13/1
f 74/4/1 81/13/1 79/13/1
f 82/13/1 83/13/1 84/4/1
f 85/2/1 86/3/1 87/2/1
f 88/13/1 84/4/1 83/13/1
f 89/13/1 90/13/1 91/4/1
f 92/2/1 93/2/1 1/1/1
f 94/4/1 84/4/1 88/13/1
f 91/4/1 95/13/1 89/13/1
f 93/2/1 2/2/1 1/1/1
f 5/2/1 87/2/1 86/3/1
f 86/3/1 6/3/1 5/2/1
f 80/4/1 96/4/1 77/4/1
f 97/4/1 81/13/1 74/4/1
f 98/3/1 99/12/1 100/12/1
f 101/2/1 98/3/1 85/2/1
f 102/2/1 103/2/1 104/2/1
f 105/2/1 106/11/1 107/2/1
f 108/2/1 109/11/1 110/2/1
f 111/2/1 112/10/1 113/2/1
f 114/2/1 115/9/1 116/2/1
f 117/2/1 118/8/1 119/2/1
f 120/2/1 121/8/1 122/2/1
f 123/7/1 124/7/1 125/7/1
f 126/5/1 127/6/1 128/6/1
f 129/14/2 130/14/2 131/14/2
f 129/14/2 131/14/2 132/14/2
f 133/14/3 134/14/3 135/14/3
f 133/14/3 135/14/3 136/14/3
f 137/14/4 138/14/4 139/14/4
f 137/14/4 139/14/4 140/14/4
f 141/7/1 142/7/1 143/7/1
f 141/7/1 143/7/1 144/7/1
f 145/14/4 146/14/4 138/14/4
f 145/14/4 138/14/4 137/14/4
s 1
f 147/14/5 148/14/5 149/14/6
f 147/14/5 149/14/6 150/14/6
s 0
f 151/14/7 152/14/7 153/14/7
f 151/14/7 153/14/7 154/14/7
s 1
f 155/14/6 156/14/8 157/14/8
f 155/14/6 157/14/8 158/14/6
f 157/14/8 156/14/8 159/14/9
f 157/14/8 159/14/9 160/14/9
f 160/14/9 159/14/9 161/14/10
f 160/14/9 161/14/10 162/14/10
f 162/14/10 161/14/10 163/14/11
f 162/14/10 163/14/11 164/14/11
s 0
f 151/14/7 165/14/7 166/14/7
f 151/14/7 166/14/7 152/14/7
s 1
f 148/14/5 147/14/5 167/14/12
f 148/14/5 167/14/12 168/14/12
f 168/14/12 167/14/12 169/14/13
f 168/14/12 169/14/13 170/14/13
f 171/14/14 172/14/14 173/14/15
f 171/14/14 173/14/15 174/14/15
f 175/14/7 176/14/7 164/14/11
f 175/14/7 164/14/11 163/14/11
s 0
f 177/14/7 178/14/7 176/14/7
f 177/14/7 176/14/7 175/14/7
f 166/14/7 165/14/7 178/14/7
f 166/14/7 178/14/7 177/14/7
f 179/14/2 129/14/2 132/14/2
f 179/14/2 132/14/2 180/14/2
f 181/14/1 182/14/1 183/14/1
f 181/14/1 183/14/1 184/14/1
f 185/14/1 186/14/1 187/14/1
f 185/14/1 187/14/1 188/14/1
f 189/5/1 190/5/1 191/5/1
f 189/5/1 191/5/1 192/5/1
f 193/14/1 194/14/1 195/14/1
f 193/14/1 195/14/1 196/14/1
f 197/14/1 193/14/1 196/14/1
f 197/14/1 196/14/1 198/14/1
f 199/14/1 197/14/1 198/14/1
f 199/14/1 198/14/1 200/14/1
f 194/14/1 201/14/1 202/14/1
f 194/14/1 202/14/1 195/14/1
s 1
f 203/14/1 204/14/1 174/14/15
f 203/14/1 174/14/15 173/14/15
s 0
f 204/14/1 199/14/1 200/14/1
s 1
f 204/14/1 200/14/1 174/14/15
f 201/14/1 203/14/1 173/14/15
f 201/14/1 173/14/15 202/14/1
s 0
f 205/14/6 206/14/6 207/14/6
f 205/14/6 207/14/6 208/14/6
s 1
f 209/14/16 210/14/17 211/14/17
f 209/14/16 211/14/17 212/14/16
f 213/14/18 214/14/19 215/14/19
f 213/14/18 215/14/19 216/14/18
f 210/14/17 217/14/20 218/14/20
f 210/14/17 218/14/20 211/14/17
f 219/14/4 213/14/18 216/14/18
f 219/14/4 216/14/18 220/14/4
s 0
f 221/14/7 222/14/7 223/14/7
f 221/14/7 223/14/7 224/14/7
f 225/4/1 226/4/1 227/4/1
f 225/4/1 227/4/1 228/4/1
f 229/4/1 230/4/1 231/4/1
f 229/4/1 231/4/1 232/4/1
f 233/4/1 234/4/1 226/4/1
f 233/4/1 226/4/1 225/4/1
f 235/4/1 236/4/1 230/4/1
f 235/4/1 230/4/1 229/4/1
f 237/4/1 238/4/1 236/4/1
f 237/4/1 236/4/1 235/4/1
f 239/4/1 240/4/1 234/4/1
f 239/4/1 234/4/1 233/4/1
f 241/4/1 62/4/1 238/4/1
f 241/4/1 238/4/1 237/4/1
f 60/4/1 242/4/1 240/4/1
f 60/4/1 240/4/1 239/4/1
f 228/4/1 227/4/1 243/4/1
f 228/4/1 243/4/1 244/4/1
f 232/4/1 231/4/1 245/4/1
f 232/4/1 245/4/1 246/4/1
f 244/4/1 243/4/1 13/4/1
f 244/4/1 13/4/1 12/4/1
f 246/4/1 245/4/1 10/4/1
f 246/4/1 10/4/1 9/4/1
f 15/5/1 247/15/1 248/16/1
f 15/5/1 248/16/1 249/4/1
f 250/6/1 251/6/1 17/6/1
f 250/6/1 17/6/1 16/6/1
f 252/13/1 250/6/1 16/6/1
f 252/13/1 16/6/1 253/13/1
f 251/6/1 254/17/1 255/17/1
f 251/6/1 255/17/1 17/6/1
f 17/6/1 255/17/1 247/15/1
f 17/6/1 247/15/1 15/5/1
f 256/13/1 257/18/1 258/18/1
f 256/13/1 258/18/1 259/13/1
f 260/19/1 16/6/1 15/5/1
f 260/19/1 15/5/1 261/20/1
f 256/13/1 260/19/1 261/20/1
f 256/13/1 261/20/1 257/18/1
f 22/8/1 21/2/1 49/2/1
f 22/8/1 49/2/1 18/7/1
f 25/8/1 24/2/1 23/2/1
f 25/8/1 23/2/1 22/8/1
f 28/9/1 27/2/1 26/2/1
f 28/9/1 26/2/1 25/8/1
f 31/10/1 30/2/1 29/2/1
f 31/10/1 29/2/1 28/9/1
f 34/11/1 33/2/1 32/2/1
f 34/11/1 32/2/1 31/10/1
f 37/11/1 36/2/1 35/2/1
f 37/11/1 35/2/1 34/11/1
f 40/2/1 39/2/1 38/2/1
f 40/2/1 38/2/1 37/11/1
f 43/3/1 42/2/1 41/2/1
f 43/3/1 41/2/1 40/2/1
f 51/1/1 19/7/1 18/7/1
f 51/1/1 18/7/1 49/2/1
f 46/12/1 47/3/1 44/2/1
f 46/12/1 44/2/1 43/3/1
f 63/4/1 59/4/1 65/13/1
f 63/4/1 65/13/1 67/13/1
f 14/4/1 11/4/1 72/13/1
f 14/4/1 72/13/1 71/13/1
f 129/14/2 262/14/2 263/14/2
f 129/14/2 263/14/2 130/14/2
f 264/14/21 265/14/21 266/14/21
f 264/14/21 266/14/21 267/14/21
f 268/14/4 269/14/4 139/14/4
f 268/14/4 139/14/4 138/14/4
f 270/14/4 268/14/4 138/14/4
f 270/14/4 138/14/4 146/14/4
s 1
f 147/14/5 150/14/6 271/14/6
f 147/14/5 271/14/6 272/14/5
s 0
f 273/14/20 274/14/20 275/14/20
f 273/14/20 275/14/20 276/14/20
s 1
f 155/14/6 158/14/6 277/14/22
f 155/14/6 277/14/22 278/14/22
f 277/14/22 279/14/23 280/14/23
f 277/14/22 280/14/23 278/14/22
f 279/14/23 281/14/24 282/14/24
f 279/14/23 282/14/24 280/14/23
f 281/14/24 283/14/25 284/14/25
f 281/14/24 284/14/25 282/14/24
s 0
f 273/14/20 276/14/20 285/14/20
f 273/14/20 285/14/20 286/14/20
s 1
f 272/14/5 287/14/12 167/14/12
f 272/14/5 167/14/12 147/14/5
f 287/14/12 288/14/13 169/14/13
f 287/14/12 169/14/13 167/14/12
f 289/14/14 290/14/15 173/14/15
f 289/14/14 173/14/15 172/14/14
f 291/14/20 284/14/25 283/14/25
f 291/14/20 283/14/25 292/14/20
s 0
f 293/14/20 291/14/20 292/14/20
f 293/14/20 292/14/20 294/14/20
f 285/14/20 293/14/20 294/14/20
f 285/14/20 294/14/20 286/14/20
f 179/14/2 295/14/2 262/14/2
f 179/14/2 262/14/2 129/14/2
f 296/14/1 297/14/1 298/14/1
f 296/14/1 298/14/1 299/14/1
f 300/14/1 188/14/1 187/14/1
f 300/14/1 187/14/1 301/14/1
f 77/4/1 74/4/1 73/13/1
f 77/4/1 73/13/1 78/13/1
f 302/14/1 303/14/1 304/14/1
f 302/14/1 304/14/1 305/14/1
f 306/14/1 307/14/1 303/14/1
f 306/14/1 303/14/1 302/14/1
f 308/14/1 309/14/1 307/14/1
f 308/14/1 307/14/1 306/14/1
f 305/14/1 304/14/1 202/14/1
f 305/14/1 202/14/1 310/14/1
s 1
f 311/14/1 173/14/15 290/14/15
f 311/14/1 290/14/15 312/14/1
f 312/14/1 290/14/15 309/14/1
s 0
f 312/14/1 309/14/1 308/14/1
s 1
f 310/14/1 202/14/1 173/14/15
f 310/14/1 173/14/15 311/14/1
s 0
f 313/14/6 314/14/6 315/14/6
f 313/14/6 315/14/6 316/14/6
s 1
f 317/14/26 318/14/26 319/14/27
f 317/14/26 319/14/27 320/14/27
f 321/14/28 322/14/28 323/14/29
f 321/14/28 323/14/29 324/14/29
f 320/14/27 319/14/27 325/14/7
f 320/14/27 325/14/7 326/14/7
f 327/14/4 328/14/4 322/14/28
f 327/14/4 322/14/28 321/14/28
s 0
f 329/14/20 330/14/20 331/14/20
f 329/14/20 331/14/20 332/14/20
f 100/12/1 86/3/1 85/2/1
f 100/12/1 85/2/1 98/3/1
f 84/4/1 91/4/1 90/13/1
f 84/4/1 90/13/1 82/13/1
f 333/4/1 334/4/1 81/13/1
f 333/4/1 81/13/1 97/4/1
f 335/4/1 336/4/1 96/4/1
f 335/4/1 96/4/1 80/4/1
f 337/4/1 338/4/1 334/4/1
f 337/4/1 334/4/1 333/4/1
f 339/4/1 340/4/1 336/4/1
f 339/4/1 336/4/1 335/4/1
f 95/13/1 341/4/1 342/4/1
f 95/13/1 342/4/1 343/4/1
f 344/4/1 94/4/1 345/4/1
f 344/4/1 345/4/1 346/4/1
f 343/4/1 342/4/1 347/4/1
f 343/4/1 347/4/1 348/4/1
f 346/4/1 345/4/1 349/4/1
f 346/4/1 349/4/1 350/4/1
f 350/4/1 349/4/1 351/4/1
f 350/4/1 351/4/1 352/4/1
f 348/4/1 347/4/1 353/4/1
f 348/4/1 353/4/1 354/4/1
f 352/4/1 351/4/1 338/4/1
f 352/4/1 338/4/1 337/4/1
f 354/4/1 353/4/1 340/4/1
f 354/4/1 340/4/1 339/4/1
f 355/5/1 356/5/1 357/5/1
f 355/5/1 357/5/1 358/5/1
f 359/7/1 360/7/1 361/7/1
f 359/7/1 361/7/1 362/7/1
f 1/1/1 124/7/1 123/7/1
f 1/1/1 123/7/1 92/2/1
f 98/3/1 101/2/1 104/2/1
f 98/3/1 104/2/1 103/2/1
f 103/2/1 102/2/1 107/2/1
f 103/2/1 107/2/1 106/11/1
f 106/11/1 105/2/1 110/2/1
f 106/11/1 110/2/1 109/11/1
f 109/11/1 108/2/1 113/2/1
f 109/11/1 113/2/1 112/10/1
f 112/10/1 111/2/1 116/2/1
f 112/10/1 116/2/1 115/9/1
f 115/9/1 114/2/1 119/2/1
f 115/9/1 119/2/1 118/8/1
f 118/8/1 117/2/1 122/2/1
f 118/8/1 122/2/1 121/8/1
f 121/8/1 120/2/1 92/2/1
f 121/8/1 92/2/1 123/7/1
f 363/13/1 364/19/1 365/20/1
f 363/13/1 365/20/1 366/18/1
f 364/19/1 127/6/1 126/5/1
f 364/19/1 126/5/1 365/20/1
f 363/13/1 366/18/1 367/18/1
f 363/13/1 367/18/1 368/13/1
f 128/6/1 369/17/1 370/15/1
f 128/6/1 370/15/1 126/5/1
f 371/6/1 372/17/1 369/17/1
f 371/6/1 369/17/1 128/6/1
f 373/13/1 374/6/1 127/6/1
f 373/13/1 127/6/1 375/13/1
f 374/6/1 371/6/1 128/6/1
f 374/6/1 128/6/1 127/6/1
f 126/5/1 370/15/1 376/16/1
f 126/5/1 376/16/1 377/4/1
f 378/21/1 379/21/1 380/21/1
f 378/21/1 380/21/1 381/21/1
f 382/21/1 383/21/1 384/21/1
f 382/21/1 384/21/1 385/21/1
f 386/21/1 387/21/1 388/21/1
f 386/21/1 388/21/1 389/21/1
f 390/21/1 391/21/1 392/21/1
f 390/21/1 392/21/1 393/21/1
f 393/21/1 392/21/1 394/21/1
f 393/21/1 394/21/1 395/21/1
f 396/21/1 397/21/1 398/21/1
f 396/21/1 398/21/1 399/21/1
f 400/21/1 401/21/1 402/21/1
f 400/21/1 402/21/1 403/21/1
f 404/21/1 405/21/1 406/21/1
f 404/21/1 406/21/1 407/21/1
f 408/21/1 409/21/1 410/21/1
f 408/21/1 410/21/1 411/21/1
f 412/21/1 413/21/1 414/21/1
f 412/21/1 414/21/1 415/21/1
f 415/21/1 414/21/1 416/21/1
f 415/21/1 416/21/1 417/21/1
f 418/21/1 419/21/1 420/21/1
f 418/21/1 420/21/1 421/21/1
f 422/21/1 423/21/1 424/21/1
f 422/21/1 424/21/1 425/21/1
f 426/21/1 427/21/1 428/21/1
f 426/21/1 428/21/1 429/21/1
f 430/21/1 431/21/1 432/21/1
f 430/21/1 432/21/1 433/21/1
f 434/21/1 435/21/1 436/21/1
f 434/21/1 436/21/1 437/21/1
f 438/21/1 439/21/1 440/21/1
f 438/21/1 440/21/1 441/21/1
f 442/21/1 443/21/1 444/21/1
f 442/21/1 444/21/1 445/21/1
f 446/21/1 447/21/1 448/21/1
f 446/21/1 448/21/1 449/21/1
f 450/22/1 451/22/1 452/22/1
f 450/22/1 452/22/1 453/22/1
f 454/21/1 455/21/1 456/21/1
f 454/21/1 456/21/1 457/21/1
f 458/21/1 459/21/1 460/21/1
f 458/21/1 460/21/1 461/21/1
f 462/21/1 463/21/1 464/21/1
f 462/21/1 464/21/1 465/21/1
f 466/22/1 467/22/1 468/22/1
f 466/22/1 468/22/1 469/22/1
f 470/21/1 471/21/1 472/21/1
f 470/21/1 472/21/1 473/21/1
f 474/21/1 475/21/1 476/21/1
f 474/21/1 476/21/1 477/21/1
f 478/21/1 479/21/1 480/21/1
f 478/21/1 480/21/1 481/21/1
f 482/22/1 483/22/1 484/22/1
f 482/22/1 484/22/1 485/22/1
f 486/21/1 487/21/1 488/21/1
f 486/21/1 488/21/1 489/21/1
f 490/21/1 491/21/1 492/21/1
f 490/21/1 492/21/1 493/21/1
f 494/21/1 495/21/1 496/21/1
f 494/21/1 496/21/1 497/21/1
f 498/22/1 499/22/1 500/22/1
f 498/22/1 500/22/1 501/22/1
f 502/21/1 503/21/1 504/21/1
f 502/21/1 504/21/1 505/21/1
f 506/21/1 507/21/1 508/21/1
f 506/21/1 508/21/1 509/21/1
f 510/21/1 511/21/1 512/21/1
f 510/21/1 512/21/1 513/21/1
f 514/22/1 515/22/1 516/22/1
f 514/22/1 516/22/1 517/22/1
f 518/21/1 519/21/1 520/21/1
f 518/21/1 520/21/1 521/21/1
f 522/21/1 523/21/1 524/21/1
f 522/21/1 524/21/1 525/21/1
f 526/21/1 527/21/1 528/21/1
f 526/21/1 528/21/1 529/21/1
f 530/22/1 531/22/1 532/22/1
f 530/22/1 532/22/1 533/22/1
f 534/21/1 535/21/1 536/21/1
f 534/21/1 536/21/1 537/21/1
f 538/21/1 539/21/1 540/21/1
f 538/21/1 540/21/1 541/21/1
f 542/21/1 543/21/1 544/21/1
f 542/21/1 544/21/1 545/21/1
f 546/22/1 547/22/1 548/22/1
f 546/22/1 548/22/1 549/22/1
f 550/21/1 551/21/1 552/21/1
f 550/21/1 552/21/1 553/21/1
f 554/21/1 555/21/1 556/21/1
f 554/21/1 556/21/1 557/21/1
f 558/21/1 559/21/1 560/21/1
f 558/21/1 560/21/1 561/21/1
f 562/22/1 563/22/1 564/22/1
f 562/22/1 564/22/1 565/22/1
f 566/21/1 567/21/1 568/21/1
f 566/21/1 568/21/1 569/21/1
f 570/21/1 571/21/1 572/21/1
f 570/21/1 572/21/1 573/21/1
f 574/21/1 575/21/1 576/21/1
f 574/21/1 576/21/1 577/21/1
f 578/22/1 579/22/1 580/22/1
f 578/22/1 580/22/1 581/22/1
f 582/21/1 583/21/1 584/21/1
f 582/21/1 584/21/1 585/21/1
f 586/21/1 587/21/1 588/21/1
f 586/21/1 588/21/1 589/21/1
f 590/21/1 591/21/1 592/21/1
f 590/21/1 592/21/1 593/21/1
f 594/21/1 595/21/1 596/21/1
f 594/21/1 596/21/1 597/21/1
f 598/22/1 599/22/1 600/22/1
f 598/22/1 600/22/1 601/22/1
f 602/22/1 603/22/1 604/22/1
f 602/22/1 604/22/1 605/22/1
f 606/21/1 607/21/1 608/21/1
f 606/21/1 608/21/1 609/21/1
f 610/21/1 611/21/1 612/21/1
f 610/21/1 612/21/1 613/21/1
f 614/22/1 615/22/1 616/22/1
f 614/22/1 616/22/1 617/22/1
f 618/22/1 619/22/1 620/22/1
f 618/22/1 620/22/1 621/22/1
f 622/21/1 623/21/1 624/21/1
f 622/21/1 624/21/1 625/21/1
f 626/21/1 627/21/1 628/21/1
f 626/21/1 628/21/1 629/21/1
f 630/22/1 631/22/1 632/22/1
f 630/22/1 632/22/1 633/22/1
f 634/22/1 635/22/1 636/22/1
f 634/22/1 636/22/1 637/22/1
f 638/21/1 639/21/1 640/21/1
f 638/21/1 640/21/1 641/21/1
f 642/21/1 643/21/1 644/21/1
f 642/21/1 644/21/1 645/21/1
f 646/22/1 647/22/1 648/22/1
f 646/22/1 648/22/1 649/22/1
f 650/22/1 651/22/1 652/22/1
f 650/22/1 652/22/1 653/22/1
f 654/21/1 655/21/1 656/21/1
f 654/21/1 656/21/1 657/21/1
f 658/21/1 659/21/1 660/21/1
f 658/21/1 660/21/1 661/21/1
f 662/22/1 663/22/1 664/22/1
f 662/22/1 664/22/1 665/22/1
f 666/22/1 667/22/1 668/22/1
f 666/22/1 668/22/1 669/22/1
f 670/21/1 671/21/1 672/21/1
f 670/21/1 672/21/1 673/21/1
f 674/21/1 675/21/1 676/21/1
f 674/21/1 676/21/1 677/21/1
f 678/22/1 679/22/1 680/22/1
f 678/22/1 680/22/1 681/22/1
f 682/22/1 683/22/1 684/22/1
f 682/22/1 684/22/1 685/22/1
f 686/21/1 687/21/1 688/21/1
f 686/21/1 688/21/1 689/21/1
f 690/21/1 691/21/1 692/21/1
f 690/21/1 692/21/1 693/21/1
f 694/22/1 695/22/1 696/22/1
f 694/22/1 696/22/1 697/22/1
f 698/22/1 699/22/1 700/22/1
f 698/22/1 700/22/1 701/22/1
f 702/21/1 703/21/1 704/21/1
f 702/21/1 704/21/1 705/21/1
f 706/22/1 707/22/1 708/22/1
f 706/22/1 708/22/1 709/22/1
f 710/21/1 711/21/1 712/21/1
f 710/21/1 712/21/1 713/21/1
f 714/21/1 715/21/1 716/21/1
f 714/21/1 716/21/1 717/21/1
f 718/21/1 719/21/1 720/21/1
f 718/21/1 720/21/1 721/21/1
f 722/21/1 723/21/1 724/21/1
f 722/21/1 724/21/1 725/21/1
f 726/23/1 727/23/1 728/23/1
f 726/23/1 728/23/1 729/23/1
f 730/23/1 731/23/1 732/23/1
f 730/23/1 732/23/1 733/23/1
f 734/21/1 735/21/1 736/21/1
f 734/21/1 736/21/1 737/21/1
f 738/21/1 739/21/1 740/21/1
f 738/21/1 740/21/1 741/21/1
f 742/23/1 743/23/1 744/23/1
f 742/23/1 744/23/1 745/23/1
f 746/23/1 747/23/1 748/23/1
f 746/23/1 748/23/1 749/23/1
f 750/21/1 751/21/1 752/21/1
f 750/21/1 752/21/1 753/21/1
f 754/21/1 755/21/1 756/21/1
f 754/21/1 756/21/1 757/21/1
f 758/23/1 759/23/1 760/23/1
f 758/23/1 760/23/1 761/23/1
f 762/23/1 763/23/1 764/23/1
f 762/23/1 764/23/1 765/23/1
f 766/21/1 767/21/1 768/21/1
f 766/21/1 768/21/1 769/21/1
f 770/21/1 771/21/1 772/21/1
f 770/21/1 772/21/1 773/21/1
f 774/23/1 775/23/1 776/23/1
f 774/23/1 776/23/1 777/23/1
f 778/23/1 779/23/1 780/23/1
f 778/23/1 780/23/1 781/23/1
f 782/21/1 783/21/1 784/21/1
f 782/21/1 784/21/1 785/21/1
f 786/21/1 787/21/1 788/21/1
f 786/21/1 788/21/1 789/21/1
f 790/23/1 791/23/1 792/23/1
f 790/23/1 792/23/1 793/23/1
f 794/23/1 795/23/1 796/23/1
f 794/23/1 796/23/1 797/23/1
f 798/21/1 799/21/1 800/21/1
f 798/21/1 800/21/1 801/21/1
f 802/21/1 803/21/1 804/21/1
f 802/21/1 804/21/1 805/21/1
f 806/23/1 807/23/1 808/23/1
f 806/23/1 808/23/1 809/23/1
f 810/23/1 811/23/1 812/23/1
f 810/23/1 812/23/1 813/23/1
f 814/21/1 815/21/1 816/21/1
f 814/21/1 816/21/1 817/21/1
f 818/21/1 819/21/1 820/21/1
f 818/21/1 820/21/1 821/21/1
f 822/23/1 823/23/1 824/23/1
f 822/23/1 824/23/1 825/23/1
f 826/23/1 827/23/1 828/23/1
f 826/23/1 828/23/1 829/23/1
f 830/21/1 831/21/1 832/21/1
f 830/21/1 832/21/1 833/21/1
f 834/21/1 835/21/1 836/21/1
f 834/21/1 836/21/1 837/21/1
f 838/23/1 839/23/1 840/23/1
f 838/23/1 840/23/1 841/23/1
f 842/23/1 843/23/1 844/23/1
f 842/23/1 844/23/1 845/23/1
f 846/21/1 847/21/1 848/21/1
f 846/21/1 848/21/1 849/21/1
f 850/21/1 851/21/1 852/21/1
f 850/21/1 852/21/1 853/21/1
f 854/21/1 855/21/1 856/21/1
f 854/21/1 856/21/1 857/21/1
f 858/21/1 859/21/1 860/21/1
f 858/21/1 860/21/1 861/21/1
f 862/21/1 863/21/1 864/21/1
f 862/21/1 864/21/1 865/21/1
f 865/21/1 864/21/1 866/21/1
f 865/21/1 866/21/1 867/21/1
f 867/21/1 866/21/1 868/21/1
f 867/21/1 868/21/1 869/21/1
f 869/21/1 868/21/1 870/21/1
f 869/21/1 870/21/1 871/21/1
f 872/21/1 873/21/1 874/21/1
f 872/21/1 874/21/1 875/21/1
f 876/21/1 877/21/1 878/21/1
f 876/21/1 878/21/1 879/21/1
f 879/21/1 878/21/1 880/21/1
f 879/21/1 880/21/1 881/21/1
f 881/21/1 880/21/1 882/21/1
f 881/21/1 882/21/1 883/21/1
f 884/21/1 885/21/1 886/21/1
f 884/21/1 886/21/1 887/21/1
f 888/21/1 889/21/1 890/21/1
f 888/21/1 890/21/1 891/21/1
f 891/21/1 890/21/1 892/21/1
f 891/21/1 892/21/1 893/21/1
f 893/21/1 892/21/1 894/21/1
f 893/21/1 894/21/1 895/21/1
f 895/21/1 894/21/1 896/21/1
f 895/21/1 896/21/1 897/21/1
f 898/21/1 899/21/1 900/21/1
f 898/21/1 900/21/1 901/21/1
f 902/21/1 903/21/1 904/21/1
f 902/21/1 904/21/1 905/21/1
f 906/21/1 907/21/1 908/21/1
f 906/21/1 908/21/1 909/21/1
f 910/22/1 911/22/1 912/22/1
f 910/22/1 912/22/1 913/22/1
f 914/21/1 915/21/1 916/21/1
f 914/21/1 916/21/1 917/21/1
f 918/21/1 919/21/1 920/21/1
f 918/21/1 920/21/1 921/21/1
f 922/21/1 923/21/1 924/21/1
f 922/21/1 924/21/1 925/21/1
f 926/22/1 927/22/1 928/22/1
f 926/22/1 928/22/1 929/22/1
f 930/21/1 931/21/1 932/21/1
f 930/21/1 932/21/1 933/21/1
f 934/21/1 935/21/1 936/21/1
f 934/21/1 936/21/1 937/21/1
f 938/21/1 939/21/1 940/21/1
f 938/21/1 940/21/1 941/21/1
f 942/22/1 943/22/1 944/22/1
f 942/22/1 944/22/1 945/22/1
f 946/21/1 947/21/1 948/21/1
f 946/21/1 948/21/1 949/21/1
f 950/21/1 951/21/1 952/21/1
f 950/21/1 952/21/1 953/21/1
f 954/21/1 955/21/1 956/21/1
f 954/21/1 956/21/1 957/21/1
f 958/22/1 959/22/1 960/22/1
f 958/22/1 960/22/1 961/22/1
f 962/21/1 963/21/1 964/21/1
f 962/21/1 964/21/1 965/21/1
f 966/21/1 967/21/1 968/21/1
f 966/21/1 968/21/1 969/21/1
f 970/21/1 971/21/1 972/21/1
f 970/21/1 972/21/1 973/21/1
f 974/22/1 975/22/1 976/22/1
f 974/22/1 976/22/1 977/22/1
f 978/21/1 979/21/1 980/21/1
f 978/21/1 980/21/1 981/21/1
f 982/21/1 983/21/1 984/21/1
f 982/21/1 984/21/1 985/21/1
f 986/21/1 987/21/1 988/21/1
f 986/21/1 988/21/1 989/21/1
f 990/22/1 991/22/1 992/22/1
f 990/22/1 992/22/1 993/22/1
f 994/21/1 995/21/1 996/21/1
f 994/21/1 996/21/1 997/21/1
f 998/21/1 999/21/1 1000/21/1
f 998/21/1 1000/21/1 1001/21/1
f 1002/21/1 1003/21/1 1004/21/1
f 1002/21/1 1004/21/1 1005/21/1
f 1006/22/1 1007/22/1 1008/22/1
f 1006/22/1 1008/22/1 1009/22/1
f 1010/21/1 1011/21/1 1012/21/1
f 1010/21/1 1012/21/1 1013/21/1
f 1014/21/1 1015/21/1 1016/21/1
f 1014/21/1 1016/21/1 1017/21/1
f 1018/21/1 1019/21/1 1020/21/1
f 1018/21/1 1020/21/1 1021/21/1
f 1022/22/1 1023/22/1 1024/22/1
f 1022/22/1 1024/22/1 1025/22/1
f 1026/21/1 1027/21/1 1028/21/1
f 1026/21/1 1028/21/1 1029/21/1
f 1030/21/1 1031/21/1 1032/21/1
f 1030/21/1 1032/21/1 1033/21/1
f 1034/21/1 1035/21/1 1036/21/1
f 1034/21/1 1036/21/1 1037/21/1
f 1038/22/1 1039/22/1 1040/22/1
f 1038/22/1 1040/22/1 1041/22/1
f 1042/21/1 1043/21/1 1044/21/1
f 1042/21/1 1044/21/1 1045/21/1
f 1046/21/1 1047/21/1 1048/21/1
f 1046/21/1 1048/21/1 1049/21/1
f 1050/21/1 1051/21/1 1052/21/1
f 1050/21/1 1052/21/1 1053/21/1
f 1054/21/1 1055/21/1 1056/21/1
f 1054/21/1 1056/21/1 1057/21/1
f 1058/22/1 1059/22/1 1060/22/1
f 1058/22/1 1060/22/1 1061/22/1
f 1062/22/1 1063/22/1 1064/22/1
f 1062/22/1 1064/22/1 1065/22/1
f 1066/21/1 1067/21/1 1068/21/1
f 1066/21/1 1068/21/1 1069/21/1
f 1070/21/1 1071/21/1 1072/21/1
f 1070/21/1 1072/21/1 1073/21/1
f 1074/22/1 1075/22/1 1076/22/1
f 1074/22/1 1076/22/1 1077/22/1
f 1078/22/1 1079/22/1 1080/22/1
f 1078/22/1 1080/22/1 1081/22/1
f 1082/21/1 1083/21/1 1084/21/1
f 1082/21/1 1084/21/1 1085/21/1
f 1086/21/1 1087/21/1 1088/21/1
f 1086/21/1 1088/21/1 1089/21/1
f 1090/22/1 1091/22/1 1092/22/1
f 1090/22/1 1092/22/1 1093/22/1
f 1094/22/1 1095/22/1 1096/22/1
f 1094/22/1 1096/22/1 1097/22/1
f 1098/21/1 1099/21/1 1100/21/1
f 1098/21/1 1100/21/1 1101/21/1
f 1102/21/1 1103/21/1 1104/21/1
f 1102/21/1 1104/21/1 1105/21/1
f 1106/22/1 1107/22/1 1108/22/1
f 1106/22/1 1108/22/1 1109/22/1
f 1110/22/1 1111/22/1 1112/22/1
f 1110/22/1 1112/22/1 1113/22/1
f 1114/21/1 1115/21/1 1116/21/1
f 1114/21/1 1116/21/1 1117/21/1
f 1118/21/1 1119/21/1 1120/21/1
f 1118/21/1 1120/21/1 1121/21/1
f 1122/22/1 1123/22/1 1124/22/1
f 1122/22/1 1124/22/1 1125/22/1
f 1126/22/1 1127/22/1 1128/22/1
f 1126/22/1 1128/22/1 1129/22/1
f 1130/21/1 1131/21/1 1132/21/1
f 1130/21/1 1132/21/1 1133/21/1
f 1134/21/1 1135/21/1 1136/21/1
f 1134/21/1 1136/21/1 1137/21/1
f 1138/22/1 1139/22/1 1140/22/1
f 1138/22/1 1140/22/1 1141/22/1
f 1142/22/1 1143/22/1 1144/22/1
f 1142/22/1 1144/22/1 1145/22/1
f 1146/21/1 1147/21/1 1148/21/1
f 1146/21/1 1148/21/1 1149/21/1
f 1150/21/1 1151/21/1 1152/21/1
f 1150/21/1 1152/21/1 1153/21/1
f 1154/22/1 1155/22/1 1156/22/1
f 1154/22/1 1156/22/1 1157/22/1
f 1158/22/1 1159/22/1 1160/22/1
f 1158/22/1 1160/22/1 1161/22/1
f 1162/21/1 1163/21/1 1164/21/1
f 1162/21/1 1164/21/1 1165/21/1
f 1166/22/1 1167/22/1 1168/22/1
f 1166/22/1 1168/22/1 1169/22/1
f 1170/21/1 1171/21/1 1172/21/1
f 1170/21/1 1172/21/1 1173/21/1
f 1174/21/1 1175/21/1 1176/21/1
f 1174/21/1 1176/21/1 1177/21/1
f 1178/21/1 1179/21/1 1180/21/1
f 1178/21/1 1180/21/1 1181/21/1
f 1182/21/1 1183/21/1 1184/21/1
f 1182/21/1 1184/21/1 1185/21/1
f 1186/23/1 1187/23/1 1188/23/1
f 1186/23/1 1188/23/1 1189/23/1
f 1190/23/1 1191/23/1 1192/23/1
f 1190/23/1 1192/23/1 1193/23/1
f 1194/21/1 1195/21/1 1196/21/1
f 1194/21/1 1196/21/1 1197/21/1
f 1198/21/1 1199/21/1 1200/21/1
f 1198/21/1 1200/21/1 1201/21/1
f 1202/23/1 1203/23/1 1204/23/1
f 1202/23/1 1204/23/1 1205/23/1
f 1206/23/1 1207/23/1 1208/23/1
f 1206/23/1 1208/23/1 1209/23/1
f 1210/21/1 1211/21/1 1212/21/1
f 1210/21/1 1212/21/1 1213/21/1
f 1214/21/1 1215/21/1 1216/21/1
f 1214/21/1 1216/21/1 1217/21/1
f 1218/23/1 1219/23/1 1220/23/1
f 1218/23/1 1220/23/1 1221/23/1
f 1222/23/1 1223/23/1 1224/23/1
f 1222/23/1 1224/23/1 1225/23/1
f 1226/21/1 1227/21/1 1228/21/1
f 1226/21/1 1228/21/1 1229/21/1
f 1230/21/1 1231/21/1 1232/21/1
f 1230/21/1 1232/21/1 1233/21/1
f 1234/23/1 1235/23/1 1236/23/1
f 1234/23/1 1236/23/1 1237/23/1
f 1238/23/1 1239/23/1 1240/23/1
f 1238/23/1 1240/23/1 1241/23/1
f 1242/21/1 1243/21/1 1244/21/1
f 1242/21/1 1244/21/1 1245/21/1
f 1246/21/1 1247/21/1 1248/21/1
f 1246/21/1 1248/21/1 1249/21/1
f 1250/23/1 1251/23/1 1252/23/1
f 1250/23/1 1252/23/1 1253/23/1
f 1254/23/1 1255/23/1 1256/23/1
f 1254/23/1 1256/23/1 1257/23/1
f 1258/21/1 1259/21/1 1260/21/1
f 1258/21/1 1260/21/1 1261/21/1
f 1262/21/1 1263/21/1 1264/21/1
f 1262/21/1 1264/21/1 1265/21/1
f 1266/23/1 1267/23/1 1268/23/1
f 1266/23/1 1268/23/1 1269/23/1
f 1270/23/1 1271/23/1 1272/23/1
f 1270/23/1 1272/23/1 1273/23/1
f 1274/21/1 1275/21/1 1276/21/1
f 1274/21/1 1276/21/1 1277/21/1
f 1278/21/1 1279/21/1 1280/21/1
f 1278/21/1 1280/21/1 1281/21/1
f 1282/23/1 1283/23/1 1284/23/1
f 1282/23/1 1284/23/1 1285/23/1
f 1286/23/1 1287/23/1 1288/23/1
f 1286/23/1 1288/23/1 1289/23/1
f 1290/21/1 1291/21/1 1292/21/1
f 1290/21/1 1292/21/1 1293/21/1
f 1294/21/1 1295/21/1 1296/21/1
f 1294/21/1 1296/21/1 1297/21/1
f 1298/23/1 1299/23/1 1300/23/1
f 1298/23/1 1300/23/1 1301/23/1
f 1302/23/1 1303/23/1 1304/23/1
f 1302/23/1 1304/23/1 1305/23/1
f 1306/21/1 1307/21/1 1308/21/1
f 1306/21/1 1308/21/1 1309/21/1
f 1310/24/20 1311/24/20 1312/24/20
f 1310/24/20 1312/24/20 1313/24/20
f 1314/24/2 1315/24/2 1316/24/2
f 1314/24/2 1316/24/2 1317/24/2
f 1318/24/7 1319/24/7 1320/24/7
f 1318/24/7 1320/24/7 1321/24/7
f 1322/24/1 1323/24/1 1324/24/1
f 1322/24/1 1324/24/1 1325/24/1
f 1326/24/6 1327/24/6 1328/24/6
f 1326/24/6 1328/24/6 1329/24/6
f 1330/24/4 1331/24/4 1332/24/4
f 1330/24/4 1332/24/4 1333/24/4
f 1334/24/7 1335/24/7 1336/24/7
f 1334/24/7 1336/24/7 1337/24/7
f 1338/24/2 1339/24/2 1340/24/2
f 1338/24/2 1340/24/2 1341/24/2
f 1342/24/20 1343/24/20 1344/24/20
f 1342/24/20 1344/24/20 1345/24/20
f 1346/24/1 1347/24/1 1348/24/1
f 1346/24/1 1348/24/1 1349/24/1
f 1350/24/6 1351/24/6 1352/24/6
f 1350/24/6 1352/24/6 1353/24/6
f 1354/24/4 1355/24/4 1356/24/4
f 1354/24/4 1356/24/4 1357/24/4
s 1
f 1358/25/2 1359/25/2 1360/26/30
f 1358/25/2 1360/26/30 1361/26/30
f 1361/26/30 1360/26/30 1362/26/31
f 1361/26/30 1362/26/31 1363/26/31
f 1363/26/31 1362/26/31 1364/26/32
f 1363/26/31 1364/26/32 1365/26/32
f 1365/26/32 1364/26/32 1366/26/33
f 1365/26/32 1366/26/33 1367/26/33
f 1367/26/33 1366/26/33 1368/26/34
f 1367/26/33 1368/26/34 1369/26/34
f 1369/26/34 1368/26/34 1370/26/7
f 1369/26/34 1370/26/7 1371/26/7
f 1371/26/7 1370/26/7 1372/26/35
f 1371/26/7 1372/26/35 1373/26/35
f 1373/26/35 1372/26/35 1374/26/36
f 1373/26/35 1374/26/36 1375/26/36
f 1375/26/36 1374/26/36 1376/26/37
f 1375/26/36 1376/26/37 1377/26/37
f 1377/26/37 1376/26/37 1378/26/38
f 1377/26/37 1378/26/38 1379/26/38
f 1379/26/38 1378/26/38 1380/26/39
f 1379/26/38 1380/26/39 1381/26/39
f 1381/26/39 1380/26/39 1382/26/1
f 1381/26/39 1382/26/1 1383/26/1
f 1383/26/1 1382/26/1 1384/26/40
f 1383/26/1 1384/26/40 1385/26/40
f 1385/26/40 1384/26/40 1386/26/41
f 1385/26/40 1386/26/41 1387/26/41
f 1387/26/41 1386/26/41 1388/26/42
f 1387/26/41 1388/26/42 1389/26/42
f 1389/26/42 1388/26/42 1390/26/43
f 1389/26/42 1390/26/43 1391/26/43
f 1391/26/43 1390/26/43 1392/26/44
f 1391/26/43 1392/26/44 1393/26/44
f 1393/26/44 1392/26/44 1394/25/20
f 1393/26/44 1394/25/20 1395/25/20
f 1395/25/20 1394/25/20 1396/26/45
f 1395/25/20 1396/26/45 1397/25/45
f 1397/25/45 1396/26/45 1398/27/46
f 1397/25/45 1398/27/46 1399/26/46
f 1399/26/46 1398/27/46 1400/26/47
f 1399/26/46 1400/26/47 1401/26/47
f 1401/26/47 1400/26/47 1402/25/48
f 1401/26/47 1402/25/48 1403/25/48
f 1403/25/48 1402/25/48 1404/26/49
f 1403/25/48 1404/26/49 1405/26/49
f 1405/26/49 1404/26/49 1359/25/2
f 1405/26/49 1359/25/2 1358/25/2
f 1406/26/49 1407/26/49 1408/27/2
f 1406/26/49 1408/27/2 1409/26/2
f 1407/26/49 1405/26/49 1358/25/2
f 1407/26/49 1358/25/2 1408/27/2
f 1410/26/48 1411/25/48 1407/26/49
f 1410/26/48 1407/26/49 1406/26/49
f 1411/25/48 1403/25/48 1405/26/49
f 1411/25/48 1405/26/49 1407/26/49
f 1412/26/47 1413/26/47 1411/25/48
f 1412/26/47 1411/25/48 1410/26/48
f 1413/26/47 1401/26/47 1403/25/48
f 1413/26/47 1403/25/48 1411/25/48
f 1414/26/46 1415/26/46 1413/26/47
f 1414/26/46 1413/26/47 1412/26/47
f 1415/26/46 1399/26/46 1401/26/47
f 1415/26/46 1401/26/47 1413/26/47
f 1416/26/45 1417/26/45 1415/26/46
f 1416/26/45 1415/26/46 1414/26/46
f 1417/26/45 1397/25/45 1399/26/46
f 1417/26/45 1399/26/46 1415/26/46
f 1418/26/20 1419/25/20 1417/26/45
f 1418/26/20 1417/26/45 1416/26/45
f 1419/25/20 1395/25/20 1397/25/45
f 1419/25/20 1397/25/45 1417/26/45
f 1420/26/44 1421/26/44 1419/25/20
f 1420/26/44 1419/25/20 1418/26/20
f 1421/26/44 1393/26/44 1395/25/20
f 1421/26/44 1395/25/20 1419/25/20
f 1422/26/43 1423/26/43 1421/26/44
f 1422/26/43 1421/26/44 1420/26/44
f 1423/26/43 1391/26/43 1393/26/44
f 1423/26/43 1393/26/44 1421/26/44
f 1424/26/42 1425/26/42 1423/26/43
f 1424/26/42 1423/26/43 1422/26/43
f 1425/26/42 1389/26/42 1391/26/43
f 1425/26/42 1391/26/43 1423/26/43
f 1426/26/41 1427/26/41 1425/26/42
f 1426/26/41 1425/26/42 1424/26/42
f 1427/26/41 1387/26/41 1389/26/42
f 1427/26/41 1389/26/42 1425/26/42
f 1428/26/40 1429/26/40 1427/26/41
f 1428/26/40 1427/26/41 1426/26/41
f 1429/26/40 1385/26/40 1387/26/41
f 1429/26/40 1387/26/41 1427/26/41
f 1430/26/1 1431/26/1 1429/26/40
f 1430/26/1 1429/26/40 1428/26/40
f 1431/26/1 1383/26/1 1385/26/40
f 1431/26/1 1385/26/40 1429/26/40
f 1432/26/39 1433/26/39 1431/26/1
f 1432/26/39 1431/26/1 1430/26/1
f 1433/26/39 1381/26/39 1383/26/1
f 1433/26/39 1383/26/1 1431/26/1
f 1434/26/38 1435/26/38 1433/26/39
f 1434/26/38 1433/26/39 1432/26/39
f 1435/26/38 1379/26/38 1381/26/39
f 1435/26/38 1381/26/39 1433/26/39
f 1436/26/37 1437/26/37 1435/26/38
f 1436/26/37 1435/26/38 1434/26/38
f 1437/26/37 1377/26/37 1379/26/38
f 1437/26/37 1379/26/38 1435/26/38
f 1438/26/36 1439/26/36 1437/26/37
f 1438/26/36 1437/26/37 1436/26/37
f 1439/26/36 1375/26/36 1377/26/37
f 1439/26/36 1377/26/37 1437/26/37
f 1440/26/35 1441/26/35 1439/26/36
f 1440/26/35 1439/26/36 1438/26/36
f 1441/26/35 1373/26/35 1375/26/36
f 1441/26/35 1375/26/36 1439/26/36
f 1442/26/7 1443/26/7 1441/26/35
f 1442/26/7 1441/26/35 1440/26/35
f 1443/26/7 1371/26/7 1373/26/35
f 1443/26/7 1373/26/35 1441/26/35
f 1444/26/34 1445/26/34 1443/26/7
f 1444/26/34 1443/26/7 1442/26/7
f 1445/26/34 1369/26/34 1371/26/7
f 1445/26/34 1371/26/7 1443/26/7
f 1446/26/33 1447/26/33 1445/26/34
f 1446/26/33 1445/26/34 1444/26/34
f 1447/26/33 1367/26/33 1369/26/34
f 1447/26/33 1369/26/34 1445/26/34
f 1448/26/32 1449/26/32 1447/26/33
f 1448/26/32 1447/26/33 1446/26/33
f 1449/26/32 1365/26/32 1367/26/33
f 1449/26/32 1367/26/33 1447/26/33
f 1450/26/31 1451/26/31 1449/26/32
f 1450/26/31 1449/26/32 1448/26/32
f 1451/26/31 1363/26/31 1365/26/32
f 1451/26/31 1365/26/32 1449/26/32
f 1452/26/30 1453/26/30 1451/26/31
f 1452/26/30 1451/26/31 1450/26/31
f 1453/26/30 1361/26/30 1363/26/31
f 1453/26/30 1363/26/31 1451/26/31
f 1409/26/2 1408/27/2 1453/26/30
f 1409/26/2 1453/26/30 1452/26/30
f 1408/27/2 1358/25/2 1361/26/30
f 1408/27/2 1361/26/30 1453/26/30
f 1454/25/2 1455/26/49 1456/26/49
f 1454/25/2 1456/26/49 1457/25/2
f 1455/26/49 1458/26/48 1459/26/48
f 1455/26/49 1459/26/48 1456/26/49
f 1458/26/48 1460/26/47 1461/26/47
f 1458/26/48 1461/26/47 1459/26/48
f 1460/26/47 1462/26/46 1463/26/46
f 1460/26/47 1463/26/46 1461/26/47
f 1462/26/46 1464/26/45 1465/26/45
f 1462/26/46 1465/26/45 1463/26/46
f 1464/26/45 1466/26/20 1467/26/20
f 1464/26/45 1467/26/20 1465/26/45
f 1466/26/20 1468/26/44 1469/26/44
f 1466/26/20 1469/26/44 1467/26/20
f 1468/26/44 1470/26/43 1471/26/43
f 1468/26/44 1471/26/43 1469/26/44
f 1470/26/43 1472/26/42 1473/26/42
f 1470/26/43 1473/26/42 1471/26/43
f 1472/26/42 1474/26/41 1475/26/41
f 1472/26/42 1475/26/41 1473/26/42
f 1474/26/41 1476/26/40 1477/26/40
f 1474/26/41 1477/26/40 1475/26/41
f 1476/26/40 1478/26/1 1479/26/1
f 1476/26/40 1479/26/1 1477/26/40
f 1478/26/1 1480/26/39 1481/26/39
f 1478/26/1 1481/26/39 1479/26/1
f 1480/26/39 1482/26/38 1483/26/38
f 1480/26/39 1483/26/38 1481/26/39
f 1482/26/38 1484/26/37 1485/26/37
f 1482/26/38 1485/26/37 1483/26/38
f 1484/26/37 1486/26/36 1487/26/36
f 1484/26/37 1487/26/36 1485/26/37
f 1486/26/36 1488/26/35 1489/26/35
f 1486/26/36 1489/26/35 1487/26/36
f 1488/26/35 1490/25/7 1491/25/7
f 1488/26/35 1491/25/7 1489/26/35
f 1490/25/7 1492/25/34 1493/26/34
f 1490/25/7 1493/26/34 1491/25/7
f 1492/25/34 1494/26/33 1495/27/33
f 1492/25/34 1495/27/33 1493/26/34
f 1494/26/33 1496/26/32 1497/26/32
f 1494/26/33 1497/26/32 1495/27/33
f 1496/26/32 1498/25/31 1499/25/31
f 1496/26/32 1499/25/31 1497/26/32
f 1498/25/31 1500/26/30 1501/26/30
f 1498/25/31 1501/26/30 1499/25/31
f 1500/26/30 1454/25/2 1457/25/2
f 1500/26/30 1457/25/2 1501/26/30
f 1502/26/30 1503/26/2 1504/27/2
f 1502/26/30 1504/27/2 1505/26/30
f 1505/26/30 1504/27/2 1454/25/2
f 1505/26/30 1454/25/2 1500/26/30
f 1506/26/31 1502/26/30 1505/26/30
f 1506/26/31 1505/26/30 1507/25/31
f 1507/25/31 1505/26/30 1500/26/30
f 1507/25/31 1500/26/30 1498/25/31
f 1508/26/32 1506/26/31 1507/25/31
f 1508/26/32 1507/25/31 1509/26/32
f 1509/26/32 1507/25/31 1498/25/31
f 1509/26/32 1498/25/31 1496/26/32
f 1510/26/33 1508/26/32 1509/26/32
f 1510/26/33 1509/26/32 1511/26/33
f 1511/26/33 1509/26/32 1496/26/32
f 1511/26/33 1496/26/32 1494/26/33
f 1512/26/34 1510/26/33 1511/26/33
f 1512/26/34 1511/26/33 1513/26/34
f 1513/26/34 1511/26/33 1494/26/33
f 1513/26/34 1494/26/33 1492/25/34
f 1514/26/7 1512/26/34 1513/26/34
f 1514/26/7 1513/26/34 1515/25/7
f 1515/25/7 1513/26/34 1492/25/34
f 1515/25/7 1492/25/34 1490/25/7
f 1516/26/35 1514/26/7 1515/25/7
f 1516/26/35 1515/25/7 1517/26/35
f 1517/26/35 1515/25/7 1490/25/7
f 1517/26/35 1490/25/7 1488/26/35
f 1518/26/36 1516/26/35 1517/26/35
f 1518/26/36 1517/26/35 1519/26/36
f 1519/26/36 1517/26/35 1488/26/35
f 1519/26/36 1488/26/35 1486/26/36
f 1520/26/37 1518/26/36 1519/26/36
f 1520/26/37 1519/26/36 1521/26/37
f 1521/26/37 1519/26/36 1486/26/36
f 1521/26/37 1486/26/36 1484/26/37
f 1522/26/38 1520/26/37 1521/26/37
f 1522/26/38 1521/26/37 1523/26/38
f 1523/26/38 1521/26/37 1484/26/37
f 1523/26/38 1484/26/37 1482/26/38
f 1524/26/39 1522/26/38 1523/26/38
f 1524/26/39 1523/26/38 1525/26/39
f 1525/26/39 1523/26/38 1482/26/38
f 1525/26/39 1482/26/38 1480/26/39
f 1526/26/1 1524/26/39 1525/26/39
f 1526/26/1 1525/26/39 1527/26/1
f 1527/26/1 1525/26/39 1480/26/39
f 1527/26/1 1480/26/39 1478/26/1
f 1528/26/40 1526/26/1 1527/26/1
f 1528/26/40 1527/26/1 1529/26/40
f 1529/26/40 1527/26/1 1478/26/1
f 1529/26/40 1478/26/1 1476/26/40
f 1530/26/41 1528/26/40 1529/26/40
f 1530/26/41 1529/26/40 1531/26/41
f 1531/26/41 1529/26/40 1476/26/40
f 1531/26/41 1476/26/40 1474/26/41
f 1532/26/42 1530/26/41 1531/26/41
f 1532/26/42 1531/26/41 1533/26/42
f 1533/26/42 1531/26/41 1474/26/41
f 1533/26/42 1474/26/41 1472/26/42
f 1534/26/43 1532/26/42 1533/26/42
f 1534/26/43 1533/26/42 1535/26/43
f 1535/26/43 1533/26/42 1472/26/42
f 1535/26/43 1472/26/42 1470/26/43
f 1536/26/44 1534/26/43 1535/26/43
f 1536/26/44 1535/26/43 1537/26/44
f 1537/26/44 1535/26/43 1470/26/43
f 1537/26/44 1470/26/43 1468/26/44
f 1538/26/20 1536/26/44 1537/26/44
f 1538/26/20 1537/26/44 1539/26/20
f 1539/26/20 1537/26/44 1468/26/44
f 1539/26/20 1468/26/44 1466/26/20
f 1540/26/45 1538/26/20 1539/26/20
f 1540/26/45 1539/26/20 1541/26/45
f 1541/26/45 1539/26/20 1466/26/20
f 1541/26/45 1466/26/20 1464/26/45
f 1542/26/46 1540/26/45 1541/26/45
f 1542/26/46 1541/26/45 1543/26/46
f 1543/26/46 1541/26/45 1464/26/45
f 1543/26/46 1464/26/45 1462/26/46
f 1544/26/47 1542/26/46 1543/26/46
f 1544/26/47 1543/26/46 1545/26/47
f 1545/26/47 1543/26/46 1462/26/46
f 1545/26/47 1462/26/46 1460/26/47
f 1546/26/48 1544/26/47 1545/26/47
f 1546/26/48 1545/26/47 1547/26/48
f 1547/26/48 1545/26/47 1460/26/47
f 1547/26/48 1460/26/47 1458/26/48
f 1548/26/49 1546/26/48 1547/26/48
f 1548/26/49 1547/26/48 1549/26/49
f 1549/26/49 1547/26/48 1458/26/48
f 1549/26/49 1458/26/48 1455/26/49
f 1503/26/2 1548/26/49 1549/26/49
f 1503/26/2 1549/26/49 1504/27/2
f 1504/27/2 1549/26/49 1455/26/49
f 1504/27/2 1455/26/49 1454/25/2
s 0
f 1550/28/20 1551/28/20 1552/28/20
f 1550/28/20 1552/28/20 1553/28/20
f 1554/28/2 1555/28/2 1556/28/2
f 1554/28/2 1556/28/2 1557/28/2
f 1558/28/7 1559/28/7 1560/28/7
f 1558/28/7 1560/28/7 1561/28/7
f 1562/28/1 1563/28/1 1564/28/1
f 1562/28/1 1564/28/1 1565/28/1
f 1566/28/6 1567/28/6 1568/28/6
f 1566/28/6 1568/28/6 1569/28/6
f 1570/28/4 1571/28/4 1572/28/4
f 1570/28/4 1572/28/4 1573/28/4
f 1574/28/7 1575/28/7 1576/28/7
f 1574/28/7 1576/28/7 1577/28/7
f 1578/28/2 1579/28/2 1580/28/2
f 1578/28/2 1580/28/2 1581/28/2
f 1582/28/20 1583/28/20 1584/28/20
f 1582/28/20 1584/28/20 1585/28/20
f 1586/28/1 1587/28/1 1588/28/1
f 1586/28/1 1588/28/1 1589/28/1
f 1590/28/6 1591/28/6 1592/28/6
f 1590/28/6 1592/28/6 1593/28/6
f 1594/28/4 1595/28/4 1596/28/4
f 1594/28/4 1596/28/4 1597/28/4
f 180/14/2 1602/14/2 179/14/2
f 1602/14/2 180/14/2 1601/14/2
f 1601/14/2 180/14/2 1600/14/2
f 1600/14/2 180/14/2 1599/14/2
f 1599/14/2 180/14/2 1598/14/2
f 183/14/1 185/14/1 188/14/1
f 185/14/1 183/14/1 1609/14/1
f 1609/14/1 183/14/1 1608/14/1
f 1608/14/1 183/14/1 1607/14/1
f 1607/14/1 183/14/1 1606/14/1
f 1606/14/1 183/14/1 1605/14/1
f 1605/14/1 183/14/1 1604/14/1
f 1604/14/1 183/14/1 1603/14/1
f 1603/14/1 183/14/1 182/14/1
f 186/14/1 184/14/1 187/14/1
f 184/14/1 186/14/1 1610/14/1
f 184/14/1 1610/14/1 1611/14/1
f 184/14/1 1611/14/1 1612/14/1
f 184/14/1 1612/14/1 1613/14/1
f 184/14/1 1613/14/1 1614/14/1
f 184/14/1 1614/14/1 1615/14/1
f 184/14/1 1615/14/1 1616/14/1
f 184/14/1 1616/14/1 181/14/1
f 191/5/1 62/4/1 241/4/1
f 62/4/1 191/5/1 63/4/1
f 63/4/1 191/5/1 190/5/1
f 59/4/1 242/4/1 60/4/1
f 242/4/1 59/4/1 192/5/1
f 192/5/1 59/4/1 189/5/1
f 179/14/2 1620/14/2 295/14/2
f 1620/14/2 179/14/2 1619/14/2
f 1619/14/2 179/14/2 1618/14/2
f 1618/14/2 179/14/2 1617/14/2
f 1617/14/2 179/14/2 1602/14/2
f 188/14/1 299/14/1 298/14/1
f 299/14/1 188/14/1 1627/14/1
f 1627/14/1 188/14/1 1626/14/1
f 1626/14/1 188/14/1 1625/14/1
f 1625/14/1 188/14/1 1624/14/1
f 1624/14/1 188/14/1 1623/14/1
f 1623/14/1 188/14/1 1622/14/1
f 1622/14/1 188/14/1 1621/14/1
f 1621/14/1 188/14/1 300/14/1
f 296/14/1 187/14/1 297/14/1
f 187/14/1 296/14/1 1628/14/1
f 187/14/1 1628/14/1 1629/14/1
f 187/14/1 1629/14/1 1630/14/1
f 187/14/1 1630/14/1 1631/14/1
f 187/14/1 1631/14/1 1632/14/1
f 187/14/1 1632/14/1 1633/14/1
f 187/14/1 1633/14/1 1634/14/1
f 187/14/1 1634/14/1 301/14/1
f 91/4/1 341/4/1 95/13/1
f 341/4/1 91/4/1 358/5/1
f 358/5/1 91/4/1 355/5/1
f 357/5/1 94/4/1 344/4/1
f 94/4/1 357/5/1 84/4/1
f 84/4/1 357/5/1 356/5/1
f 1637/26/4 1635/26/4 1636/25/4
f 1635/26/4 1637/26/4 1658/26/4
f 1658/26/4 1637/26/4 1638/25/4
f 1658/26/4 1638/25/4 1657/26/4
f 1657/26/4 1638/25/4 1639/26/4
f 1657/26/4 1639/26/4 1656/26/4
f 1656/26/4 1639/26/4 1640/27/4
f 1656/26/4 1640/27/4 1655/26/4
f 1655/26/4 1640/27/4 1641/26/4
f 1655/26/4 1641/26/4 1654/26/4
f 1654/26/4 1641/26/4 1642/25/4
f 1654/26/4 1642/25/4 1653/26/4
f 1653/26/4 1642/25/4 1643/26/4
f 1653/26/4 1643/26/4 1652/26/4
f 1652/26/4 1643/26/4 1644/26/4
f 1652/26/4 1644/26/4 1645/26/4
f 1652/26/4 1645/26/4 1651/26/4
f 1651/26/4 1645/26/4 1646/26/4
f 1651/26/4 1646/26/4 1650/26/4
f 1650/26/4 1646/26/4 1647/26/4
f 1650/26/4 1647/26/4 1649/26/4
f 1649/26/4 1647/26/4 1648/26/4
f 1660/26/6 1682/26/6 1659/26/6
f 1682/26/6 1660/26/6 1661/26/6
f 1682/26/6 1661/26/6 1681/26/6
f 1681/26/6 1661/26/6 1662/26/6
f 1681/26/6 1662/26/6 1680/26/6
f 1680/26/6 1662/26/6 1663/26/6
f 1680/26/6 1663/26/6 1679/26/6
f 1679/26/6 1663/26/6 1664/26/6
f 1679/26/6 1664/26/6 1678/26/6
f 1678/26/6 1664/26/6 1665/26/6
f 1678/26/6 1665/26/6 1677/26/6
f 1677/26/6 1665/26/6 1666/26/6
f 1677/26/6 1666/26/6 1676/26/6
f 1676/26/6 1666/26/6 1667/26/6
f 1676/26/6 1667/26/6 1675/26/6
f 1675/26/6 1667/26/6 1668/26/6
f 1675/26/6 1668/26/6 1674/26/6
f 1674/26/6 1668/26/6 1669/26/6
f 1674/26/6 1669/26/6 1673/26/6
f 1673/26/6 1669/26/6 1670/26/6
f 1673/26/6 1670/26/6 1672/26/6
f 1672/26/6 1670/26/6 1671/26/6
f 1683/26/4 1705/26/4 1706/25/4
f 1705/26/4 1683/26/4 1704/25/4
f 1704/25/4 1683/26/4 1684/26/4
f 1704/25/4 1684/26/4 1703/26/4
f 1703/26/4 1684/26/4 1685/26/4
f 1703/26/4 1685/26/4 1702/27/4
f 1702/27/4 1685/26/4 1686/26/4
f 1702/27/4 1686/26/4 1701/26/4
f 1701/26/4 1686/26/4 1687/26/4
f 1701/26/4 1687/26/4 1700/25/4
f 1700/25/4 1687/26/4 1688/26/4
f 1700/25/4 1688/26/4 1699/26/4
f 1699/26/4 1688/26/4 1689/26/4
f 1699/26/4 1689/26/4 1698/26/4
f 1698/26/4 1689/26/4 1690/26/4
f 1698/26/4 1690/26/4 1691/26/4
f 1698/26/4 1691/26/4 1697/26/4
f 1697/26/4 1691/26/4 1692/26/4
f 1697/26/4 1692/26/4 1696/26/4
f 1696/26/4 1692/26/4 1693/26/4
f 1696/26/4 1693/26/4 1695/26/4
f 1695/26/4 1693/26/4 1694/26/4
f 1708/26/6 1730/26/6 1707/26/6
f 1730/26/6 1708/26/6 1709/26/6
f 1730/26/6 1709/26/6 1729/26/6
f 1729/26/6 1709/26/6 1710/26/6
f 1729/26/6 1710/26/6 1728/26/6
f 1728/26/6 1710/26/6 1711/26/6
f 1728/26/6 1711/26/6 1727/26/6
f 1727/26/6 1711/26/6 1712/26/6
f 1727/26/6 1712/26/6 1726/26/6
f 1726/26/6 1712/26/6 1713/26/6
f 1726/26/6 1713/26/6 1725/26/6
f 1725/26/6 1713/26/6 1714/26/6
f 1725/26/6 1714/26/6 1724/26/6
f 1724/26/6 1714/26/6 1715/26/6
f 1724/26/6 1715/26/6 1723/26/6
f 1723/26/6 1715/26/6 1716/26/6
f 1723/26/6 1716/26/6 1722/26/6
f 1722/26/6 1716/26/6 1717/26/6
f 1722/26/6 1717/26/6 1721/26/6
f 1721/26/6 1717/26/6 1718/26/6
f 1721/26/6 1718/26/6 1720/26/6
f 1720/26/6 1718/26/6 1719/26/6
