# Blender 5.2.0 LTS
# www.blender.org
mtllib 17_1_Model_AIRPORT_0.mtl
o 17.1.Model_AIRPORT_0
v 0.091221 -0.013739 -0.467992
v 0.091221 0.027181 -0.079816
v 0.091221 -0.017962 -0.435915
v 0.091221 -0.301856 -0.079816
v 0.091221 -0.261607 -0.467991
v 0.091221 -0.257384 -0.435915
v 0.091221 -0.301856 -0.759962
v 0.091221 -0.245003 -0.529958
v 0.091221 -0.257384 -0.500068
v 0.091221 -0.030343 -0.529959
v 0.091221 0.027181 -0.759962
v 0.091221 -0.017962 -0.500068
v 0.091221 -0.225308 -0.555626
v 0.091221 -0.050039 -0.555626
v 0.091221 -0.030343 -0.406025
v 0.091221 -0.245003 -0.406025
v 0.091221 -0.050039 -0.380357
v 0.091221 -0.225308 -0.380357
v 0.091221 -0.139993 -0.499439
v 0.091221 -0.167606 -0.471553
v 0.091221 -0.167606 -0.499439
v 0.091221 -0.088020 -0.499439
v 0.091221 -0.112112 -0.471558
v 0.091221 -0.139993 -0.499439
v 0.091221 -0.030343 -0.529959
v 0.091221 -0.088020 -0.539232
v 0.091221 -0.050039 -0.555626
v 0.091221 -0.075706 -0.575321
v 0.091221 -0.139993 -0.539232
v 0.091221 -0.105597 -0.587702
v 0.091221 -0.137673 -0.591925
v 0.091221 -0.167606 -0.539232
v 0.091221 -0.169750 -0.587702
v 0.091221 -0.199640 -0.575321
v 0.091221 -0.207399 -0.539232
v 0.091221 -0.225308 -0.555626
v 0.091221 -0.245003 -0.529958
v 0.091221 -0.207399 -0.499439
v 0.091221 -0.257384 -0.500068
v 0.091221 -0.261607 -0.467991
v 0.091221 -0.207399 -0.471553
v 0.091221 -0.257384 -0.435915
v 0.091221 -0.245003 -0.406025
v 0.091221 -0.207399 -0.419853
v 0.091221 -0.225308 -0.380357
v 0.091221 -0.199640 -0.360662
v 0.091221 -0.167606 -0.419853
v 0.091221 -0.169749 -0.348281
v 0.091221 -0.167606 -0.471553
v 0.091221 -0.139862 -0.443808
v 0.091221 -0.111724 -0.415670
v 0.091221 -0.137673 -0.344058
v 0.091221 -0.017962 -0.500068
v 0.091221 -0.013739 -0.467992
v 0.091221 -0.083974 -0.443420
v 0.091221 -0.017962 -0.435915
v 0.091221 -0.105597 -0.348281
v 0.091221 -0.083735 -0.387682
v 0.091221 -0.055985 -0.415432
v 0.091221 -0.030343 -0.406025
v 0.091221 -0.075706 -0.360662
v 0.091221 -0.050039 -0.380357
v 0.091221 -0.075706 -0.575321
v 0.091221 -0.199640 -0.575321
v 0.091221 -0.105597 -0.587702
v 0.091221 -0.137673 -0.591925
v 0.091221 -0.169750 -0.587702
v 0.091221 -0.199640 -0.360662
v 0.091221 -0.075706 -0.360662
v 0.091221 -0.169749 -0.348281
v 0.091221 -0.105597 -0.348281
v 0.091221 -0.137673 -0.344058
v 0.091221 0.040212 -0.760728
v 0.091221 0.038646 -0.768597
v 0.091221 0.024008 -0.776744
v 0.091221 0.032100 -0.775155
v 0.091221 0.036010 -0.772542
v 0.091221 0.040212 0.760728
v 0.091221 0.038647 0.768597
v 0.091221 0.027181 0.759962
v 0.091221 0.024008 0.776744
v 0.091221 0.032100 0.775155
v 0.091221 0.036011 0.772542
v 0.091221 -0.314887 0.760729
v 0.091221 -0.301856 0.759962
v 0.091221 -0.313321 0.768597
v 0.091221 -0.298871 0.776744
v 0.091221 -0.306740 0.775179
v 0.091221 -0.310685 0.772542
v 0.091221 -0.298683 -0.776743
v 0.091221 -0.306775 -0.775155
v 0.091221 -0.314887 -0.760728
v 0.091221 -0.313322 -0.768597
v 0.091221 -0.310686 -0.772542
v 0.091221 -0.513122 -0.467991
v 0.091221 -0.472202 -0.079816
v 0.091221 -0.517345 -0.435915
v 0.091221 -0.801239 -0.079816
v 0.091221 -0.760990 -0.467991
v 0.091221 -0.756767 -0.435915
v 0.091221 -0.801239 -0.759961
v 0.091221 -0.744386 -0.529958
v 0.091221 -0.756767 -0.500068
v 0.091221 -0.529726 -0.529958
v 0.091221 -0.472202 -0.759962
v 0.091221 -0.517345 -0.500068
v 0.091221 -0.724691 -0.555626
v 0.091221 -0.549422 -0.555626
v 0.091221 -0.529726 -0.406024
v 0.091221 -0.744386 -0.406024
v 0.091221 -0.549422 -0.380357
v 0.091221 -0.724691 -0.380357
v 0.091221 -0.575089 -0.575321
v 0.091221 -0.699023 -0.575321
v 0.091221 -0.604980 -0.587702
v 0.091221 -0.637056 -0.591925
v 0.091221 -0.669133 -0.587702
v 0.091221 -0.699023 -0.360661
v 0.091221 -0.575089 -0.360662
v 0.091221 -0.669133 -0.348280
v 0.091221 -0.604980 -0.348280
v 0.091221 -0.637056 -0.344057
v 0.091221 -0.459172 -0.760728
v 0.091221 -0.460737 -0.768597
v 0.091221 -0.475375 -0.776743
v 0.091221 -0.467283 -0.775155
v 0.091221 -0.463373 -0.772542
v 0.091221 -0.459171 0.760729
v 0.091221 -0.460736 0.768597
v 0.091221 -0.472202 0.759962
v 0.091221 -0.475375 0.776744
v 0.091221 -0.467283 0.775155
v 0.091221 -0.463372 0.772542
v 0.091221 -0.814270 0.760729
v 0.091221 -0.801239 0.759962
v 0.091221 -0.812705 0.768597
v 0.091221 -0.798254 0.776744
v 0.091221 -0.806123 0.775179
v 0.091221 -0.810068 0.772542
v 0.091221 -0.798066 -0.776743
v 0.091221 -0.806158 -0.775155
v 0.091221 -0.814270 -0.760728
v 0.091221 -0.812705 -0.768596
v 0.091221 -0.810069 -0.772542
v 0.091221 -0.668504 -0.465671
v 0.091221 -0.640617 -0.438059
v 0.091221 -0.668504 -0.438059
v 0.091221 -0.668504 -0.517645
v 0.091221 -0.640623 -0.493552
v 0.091221 -0.668504 -0.465671
v 0.091221 -0.699023 -0.575321
v 0.091221 -0.708297 -0.517645
v 0.091221 -0.724691 -0.555626
v 0.091221 -0.744386 -0.529958
v 0.091221 -0.708297 -0.465671
v 0.091221 -0.756767 -0.500068
v 0.091221 -0.760990 -0.467991
v 0.091221 -0.708297 -0.438059
v 0.091221 -0.756767 -0.435915
v 0.091221 -0.744386 -0.406024
v 0.091221 -0.708297 -0.398265
v 0.091221 -0.724691 -0.380357
v 0.091221 -0.699023 -0.360661
v 0.091221 -0.668504 -0.398265
v 0.091221 -0.669133 -0.348280
v 0.091221 -0.637056 -0.344057
v 0.091221 -0.640617 -0.398265
v 0.091221 -0.604980 -0.348280
v 0.091221 -0.575089 -0.360662
v 0.091221 -0.588917 -0.398265
v 0.091221 -0.549422 -0.380357
v 0.091221 -0.529726 -0.406024
v 0.091221 -0.588917 -0.438059
v 0.091221 -0.517345 -0.435915
v 0.091221 -0.640617 -0.438059
v 0.091221 -0.612873 -0.465803
v 0.091221 -0.584735 -0.493941
v 0.091221 -0.513122 -0.467991
v 0.091221 -0.669133 -0.587702
v 0.091221 -0.637056 -0.591925
v 0.091221 -0.612485 -0.521690
v 0.091221 -0.604980 -0.587702
v 0.091221 -0.517345 -0.500068
v 0.091221 -0.556747 -0.521929
v 0.091221 -0.584496 -0.549679
v 0.091221 -0.575089 -0.575321
v 0.091221 -0.529726 -0.529958
v 0.091221 -0.549422 -0.555626
v -0.083970 -0.013739 -0.467992
v -0.083970 -0.017962 -0.435915
v -0.083970 0.027181 -0.079816
v -0.083970 -0.301856 -0.079816
v -0.083970 -0.257384 -0.435915
v -0.083970 -0.261607 -0.467991
v -0.083970 -0.301856 -0.759962
v -0.083970 -0.257384 -0.500068
v -0.083970 -0.245003 -0.529958
v -0.083970 -0.030343 -0.529959
v -0.083970 -0.017962 -0.500068
v -0.083970 0.027181 -0.759962
v -0.083970 -0.225308 -0.555626
v -0.083970 -0.050039 -0.555626
v -0.083970 -0.030343 -0.406025
v -0.083970 -0.245003 -0.406025
v -0.083970 -0.050039 -0.380357
v -0.083970 -0.225308 -0.380357
v -0.083970 -0.139993 -0.499439
v -0.083970 -0.167606 -0.499439
v -0.083970 -0.167606 -0.471553
v -0.083970 -0.088020 -0.499439
v -0.083970 -0.139993 -0.499439
v -0.083970 -0.112112 -0.471558
v -0.083970 -0.030343 -0.529959
v -0.083970 -0.050039 -0.555626
v -0.083970 -0.088020 -0.539232
v -0.083970 -0.075706 -0.575321
v -0.083970 -0.105597 -0.587702
v -0.083970 -0.139993 -0.539232
v -0.083970 -0.137673 -0.591925
v -0.083970 -0.169750 -0.587702
v -0.083970 -0.167606 -0.539232
v -0.083970 -0.199640 -0.575321
v -0.083970 -0.225308 -0.555626
v -0.083970 -0.207399 -0.539232
v -0.083970 -0.245003 -0.529958
v -0.083970 -0.257384 -0.500068
v -0.083970 -0.207399 -0.499439
v -0.083970 -0.261607 -0.467991
v -0.083970 -0.257384 -0.435915
v -0.083970 -0.207399 -0.471553
v -0.083970 -0.245003 -0.406025
v -0.083970 -0.225308 -0.380357
v -0.083970 -0.207399 -0.419853
v -0.083970 -0.199640 -0.360662
v -0.083970 -0.169749 -0.348281
v -0.083970 -0.167606 -0.419853
v -0.083970 -0.139862 -0.443808
v -0.083970 -0.167606 -0.471553
v -0.083970 -0.137673 -0.344058
v -0.083970 -0.111724 -0.415670
v -0.083970 -0.017962 -0.500068
v -0.083970 -0.083974 -0.443420
v -0.083970 -0.013739 -0.467992
v -0.083970 -0.017962 -0.435915
v -0.083970 -0.105597 -0.348281
v -0.083970 -0.083735 -0.387682
v -0.083970 -0.055985 -0.415432
v -0.083970 -0.030343 -0.406025
v -0.083970 -0.075706 -0.360662
v -0.083970 -0.050039 -0.380357
v -0.083970 -0.075706 -0.575321
v -0.083970 -0.199640 -0.575321
v -0.083970 -0.105597 -0.587702
v -0.083970 -0.137673 -0.591925
v -0.083970 -0.169750 -0.587702
v -0.083970 -0.199640 -0.360662
v -0.083970 -0.075706 -0.360662
v -0.083970 -0.169749 -0.348281
v -0.083970 -0.105597 -0.348281
v -0.083970 -0.137673 -0.344058
v -0.083970 0.040212 -0.760728
v -0.083970 0.038646 -0.768597
v -0.083970 0.024008 -0.776744
v -0.083970 0.032100 -0.775155
v -0.083970 0.036010 -0.772542
v -0.083970 0.040212 0.760728
v -0.083970 0.027181 0.759962
v -0.083970 0.038647 0.768597
v -0.083970 0.024008 0.776744
v -0.083970 0.032100 0.775155
v -0.083970 0.036011 0.772542
v -0.083970 -0.314887 0.760729
v -0.083970 -0.313321 0.768597
v -0.083970 -0.301856 0.759962
v -0.083970 -0.298871 0.776744
v -0.083970 -0.306740 0.775179
v -0.083970 -0.310685 0.772542
v -0.083970 -0.298683 -0.776743
v -0.083970 -0.306775 -0.775155
v -0.083970 -0.314887 -0.760728
v -0.083970 -0.313322 -0.768597
v -0.083970 -0.310686 -0.772542
v -0.083970 -0.513122 -0.467991
v -0.083970 -0.517345 -0.435915
v -0.083970 -0.472202 -0.079816
v -0.083970 -0.801239 -0.079816
v -0.083970 -0.756767 -0.435915
v -0.083970 -0.760990 -0.467991
v -0.083970 -0.801239 -0.759961
v -0.083970 -0.756767 -0.500068
v -0.083970 -0.744386 -0.529958
v -0.083970 -0.529726 -0.529958
v -0.083970 -0.517345 -0.500068
v -0.083970 -0.472202 -0.759962
v -0.083970 -0.724691 -0.555626
v -0.083970 -0.549422 -0.555626
v -0.083970 -0.529726 -0.406024
v -0.083970 -0.744386 -0.406024
v -0.083970 -0.549422 -0.380357
v -0.083970 -0.724691 -0.380357
v -0.083970 -0.575089 -0.575321
v -0.083970 -0.699023 -0.575321
v -0.083970 -0.604980 -0.587702
v -0.083970 -0.637056 -0.591925
v -0.083970 -0.669133 -0.587702
v -0.083970 -0.699023 -0.360661
v -0.083970 -0.575089 -0.360662
v -0.083970 -0.669133 -0.348280
v -0.083970 -0.604980 -0.348280
v -0.083970 -0.637056 -0.344057
v -0.083970 -0.459172 -0.760728
v -0.083970 -0.460737 -0.768597
v -0.083970 -0.475375 -0.776743
v -0.083970 -0.467283 -0.775155
v -0.083970 -0.463373 -0.772542
v -0.083970 -0.459171 0.760729
v -0.083970 -0.472202 0.759962
v -0.083970 -0.460736 0.768597
v -0.083970 -0.475375 0.776744
v -0.083970 -0.467283 0.775155
v -0.083970 -0.463372 0.772542
v -0.083970 -0.814270 0.760729
v -0.083970 -0.812705 0.768597
v -0.083970 -0.801239 0.759962
v -0.083970 -0.798254 0.776744
v -0.083970 -0.806123 0.775179
v -0.083970 -0.810068 0.772542
v -0.083970 -0.798066 -0.776743
v -0.083970 -0.806158 -0.775155
v -0.083970 -0.814270 -0.760728
v -0.083970 -0.812705 -0.768596
v -0.083970 -0.810069 -0.772542
v -0.083970 -0.668504 -0.465671
v -0.083970 -0.668504 -0.438059
v -0.083970 -0.640617 -0.438059
v -0.083970 -0.668504 -0.517645
v -0.083970 -0.668504 -0.465671
v -0.083970 -0.640623 -0.493552
v -0.083970 -0.699023 -0.575321
v -0.083970 -0.724691 -0.555626
v -0.083970 -0.708297 -0.517645
v -0.083970 -0.744386 -0.529958
v -0.083970 -0.756767 -0.500068
v -0.083970 -0.708297 -0.465671
v -0.083970 -0.760990 -0.467991
v -0.083970 -0.756767 -0.435915
v -0.083970 -0.708297 -0.438059
v -0.083970 -0.744386 -0.406024
v -0.083970 -0.724691 -0.380357
v -0.083970 -0.708297 -0.398265
v -0.083970 -0.699023 -0.360661
v -0.083970 -0.669133 -0.348280
v -0.083970 -0.668504 -0.398265
v -0.083970 -0.637056 -0.344057
v -0.083970 -0.604980 -0.348280
v -0.083970 -0.640617 -0.398265
v -0.083970 -0.575089 -0.360662
v -0.083970 -0.549422 -0.380357
v -0.083970 -0.588917 -0.398265
v -0.083970 -0.529726 -0.406024
v -0.083970 -0.517345 -0.435915
v -0.083970 -0.588917 -0.438059
v -0.083970 -0.612873 -0.465803
v -0.083970 -0.640617 -0.438059
v -0.083970 -0.513122 -0.467991
v -0.083970 -0.584735 -0.493941
v -0.083970 -0.669133 -0.587702
v -0.083970 -0.612485 -0.521690
v -0.083970 -0.637056 -0.591925
v -0.083970 -0.604980 -0.587702
v -0.083970 -0.517345 -0.500068
v -0.083970 -0.556747 -0.521929
v -0.083970 -0.584496 -0.549679
v -0.083970 -0.575089 -0.575321
v -0.083970 -0.529726 -0.529958
v -0.083970 -0.549422 -0.555626
v 0.091221 -0.139993 -0.539232
v 0.091221 -0.088020 -0.539232
v 0.091221 -0.088020 -0.499439
v 0.091221 -0.207399 -0.471553
v 0.091221 -0.207399 -0.499439
v 0.091221 -0.207399 -0.419853
v 0.091221 -0.167606 -0.419853
v 0.091221 -0.207399 -0.539232
v 0.091221 -0.167606 -0.539232
v 0.091221 -0.111724 -0.415670
v 0.091221 -0.083974 -0.443420
v 0.091221 -0.055985 -0.415432
v 0.091221 -0.083735 -0.387682
v 0.091221 -0.139862 -0.443808
v 0.091221 -0.112112 -0.471558
v 0.091221 -0.199295 0.622768
v 0.091221 -0.076272 0.622768
v 0.091221 -0.076272 -0.055642
v 0.091221 -0.199295 -0.055642
v 0.091221 -0.199295 -0.055642
v 0.091221 -0.076272 -0.055642
v 0.091221 -0.076272 0.622768
v 0.091221 -0.199295 0.622768
v 0.003626 0.072845 -0.763943
v 0.003626 0.072845 -0.079816
v 0.091221 0.072845 -0.079816
v 0.091221 0.072845 -0.763943
v 0.091221 0.027181 0.809377
v 0.003626 0.027181 0.809377
v 0.003626 -0.302085 0.809377
v 0.091221 -0.302085 0.809377
v 0.091221 -0.301856 -0.809377
v 0.003626 -0.301856 -0.809377
v 0.003626 0.027181 -0.809377
v 0.091221 0.027181 -0.809377
v 0.091221 -0.347520 -0.763942
v 0.091221 -0.347520 -0.079816
v 0.003626 -0.347520 -0.079816
v 0.003626 -0.347520 -0.763942
v 0.091221 -0.347520 0.763943
v 0.003626 -0.347520 0.763943
v 0.003626 0.072845 0.763943
v 0.091221 0.072845 0.763943
v 0.091221 0.069386 -0.781330
v 0.003626 0.069386 -0.781330
v 0.091221 0.059537 -0.796069
v 0.003626 0.059537 -0.796069
v 0.091221 0.044797 -0.805918
v 0.003626 0.044797 -0.805918
v 0.003626 -0.344062 -0.781329
v 0.091221 -0.344062 -0.781329
v 0.003626 -0.334213 -0.796069
v 0.091221 -0.334213 -0.796069
v 0.003626 -0.319473 -0.805918
v 0.091221 -0.319473 -0.805918
v 0.003626 0.069387 0.781330
v 0.091221 0.069387 0.781330
v 0.003626 0.059538 0.796069
v 0.091221 0.059538 0.796069
v 0.003626 0.044798 0.805918
v 0.091221 0.044798 0.805918
v 0.003626 -0.319472 0.805918
v 0.091221 -0.319472 0.805918
v 0.003626 -0.334212 0.796070
v 0.091221 -0.334212 0.796070
v 0.003626 -0.344061 0.781330
v 0.091221 -0.344061 0.781330
v 0.091221 -0.314887 -0.079816
v 0.091221 -0.314887 0.760729
v 0.091221 -0.347520 0.763943
v 0.091221 -0.347520 -0.079816
v 0.091221 0.040212 -0.079816
v 0.091221 0.040212 -0.760728
v 0.091221 0.072845 -0.763943
v 0.091221 0.072845 -0.079816
v 0.091221 -0.314887 -0.760728
v 0.091221 -0.347520 -0.763942
v 0.091221 0.040212 0.760728
v 0.091221 0.072845 0.763943
v 0.091221 0.024008 -0.776744
v 0.091221 -0.298683 -0.776743
v 0.091221 -0.301856 -0.809377
v 0.091221 0.027181 -0.809377
v 0.091221 0.024008 0.776744
v 0.091221 0.032100 0.775155
v 0.091221 0.044798 0.805918
v 0.091221 0.027181 0.809377
v 0.091221 -0.306775 -0.775155
v 0.091221 -0.319473 -0.805918
v 0.091221 0.032100 -0.775155
v 0.091221 0.044797 -0.805918
v 0.091221 -0.298871 0.776744
v 0.091221 -0.302085 0.809377
v 0.091221 0.038646 -0.768597
v 0.091221 0.036010 -0.772542
v 0.091221 0.059537 -0.796069
v 0.091221 0.069386 -0.781330
v 0.091221 -0.310686 -0.772542
v 0.091221 -0.313322 -0.768597
v 0.091221 -0.344062 -0.781329
v 0.091221 -0.334213 -0.796069
v 0.091221 0.036011 0.772542
v 0.091221 0.038647 0.768597
v 0.091221 0.069387 0.781330
v 0.091221 0.059538 0.796069
v 0.091221 -0.306740 0.775179
v 0.091221 -0.319472 0.805918
v 0.091221 -0.310685 0.772542
v 0.091221 -0.334212 0.796070
v 0.091221 -0.313321 0.768597
v 0.091221 -0.344061 0.781330
v 0.091221 0.040212 -0.079816
v 0.091221 -0.314887 -0.079816
v 0.091221 -0.698678 0.622768
v 0.091221 -0.575655 0.622768
v 0.091221 -0.575655 -0.055642
v 0.091221 -0.698678 -0.055642
v 0.091221 -0.698678 -0.055642
v 0.091221 -0.575655 -0.055642
v 0.091221 -0.575655 0.622768
v 0.091221 -0.698678 0.622768
v 0.003626 -0.426538 -0.763942
v 0.003626 -0.426538 -0.079816
v 0.091221 -0.426538 -0.079816
v 0.091221 -0.426538 -0.763942
v 0.091221 -0.472202 0.809377
v 0.003626 -0.472202 0.809377
v 0.003626 -0.801468 0.809377
v 0.091221 -0.801468 0.809377
v 0.091221 -0.801239 -0.809377
v 0.003626 -0.801239 -0.809377
v 0.003626 -0.472202 -0.809377
v 0.091221 -0.472202 -0.809377
v 0.091221 -0.846903 -0.763942
v 0.091221 -0.846903 -0.079816
v 0.003626 -0.846903 -0.079816
v 0.003626 -0.846903 -0.763942
v 0.091221 -0.846903 0.763943
v 0.003626 -0.846903 0.763943
v 0.003626 -0.426538 0.763943
v 0.091221 -0.426538 0.763943
v 0.091221 -0.429997 -0.781329
v 0.003626 -0.429997 -0.781329
v 0.091221 -0.439846 -0.796069
v 0.003626 -0.439846 -0.796069
v 0.091221 -0.454586 -0.805918
v 0.003626 -0.454586 -0.805918
v 0.003626 -0.843445 -0.781329
v 0.091221 -0.843445 -0.781329
v 0.003626 -0.833596 -0.796069
v 0.091221 -0.833596 -0.796069
v 0.003626 -0.818856 -0.805918
v 0.091221 -0.818856 -0.805918
v 0.003626 -0.429996 0.781330
v 0.091221 -0.429996 0.781330
v 0.003626 -0.439845 0.796070
v 0.091221 -0.439845 0.796070
v 0.003626 -0.454585 0.805918
v 0.091221 -0.454585 0.805918
v 0.003626 -0.818855 0.805919
v 0.091221 -0.818855 0.805919
v 0.003626 -0.833595 0.796070
v 0.091221 -0.833595 0.796070
v 0.003626 -0.843444 0.781330
v 0.091221 -0.843444 0.781330
v 0.091221 -0.814270 -0.079816
v 0.091221 -0.814270 0.760729
v 0.091221 -0.846903 0.763943
v 0.091221 -0.846903 -0.079816
v 0.091221 -0.459171 -0.079816
v 0.091221 -0.459172 -0.760728
v 0.091221 -0.426538 -0.763942
v 0.091221 -0.426538 -0.079816
v 0.091221 -0.814270 -0.760728
v 0.091221 -0.846903 -0.763942
v 0.091221 -0.459171 0.760729
v 0.091221 -0.426538 0.763943
v 0.091221 -0.475375 -0.776743
v 0.091221 -0.798066 -0.776743
v 0.091221 -0.801239 -0.809377
v 0.091221 -0.472202 -0.809377
v 0.091221 -0.475375 0.776744
v 0.091221 -0.467283 0.775155
v 0.091221 -0.454585 0.805918
v 0.091221 -0.472202 0.809377
v 0.091221 -0.806158 -0.775155
v 0.091221 -0.818856 -0.805918
v 0.091221 -0.467283 -0.775155
v 0.091221 -0.454586 -0.805918
v 0.091221 -0.798254 0.776744
v 0.091221 -0.801468 0.809377
v 0.091221 -0.460737 -0.768597
v 0.091221 -0.463373 -0.772542
v 0.091221 -0.439846 -0.796069
v 0.091221 -0.429997 -0.781329
v 0.091221 -0.810069 -0.772542
v 0.091221 -0.812705 -0.768596
v 0.091221 -0.843445 -0.781329
v 0.091221 -0.833596 -0.796069
v 0.091221 -0.463372 0.772542
v 0.091221 -0.460736 0.768597
v 0.091221 -0.429996 0.781330
v 0.091221 -0.439845 0.796070
v 0.091221 -0.806123 0.775179
v 0.091221 -0.818855 0.805919
v 0.091221 -0.810068 0.772542
v 0.091221 -0.833595 0.796070
v 0.091221 -0.812705 0.768597
v 0.091221 -0.843444 0.781330
v 0.091221 -0.459171 -0.079816
v 0.091221 -0.814270 -0.079816
v 0.091221 -0.708297 -0.465671
v 0.091221 -0.708297 -0.517645
v 0.091221 -0.668504 -0.517645
v 0.091221 -0.640617 -0.398265
v 0.091221 -0.668504 -0.398265
v 0.091221 -0.588917 -0.398265
v 0.091221 -0.588917 -0.438059
v 0.091221 -0.708297 -0.398265
v 0.091221 -0.708297 -0.438059
v 0.091221 -0.584735 -0.493941
v 0.091221 -0.612485 -0.521690
v 0.091221 -0.584496 -0.549679
v 0.091221 -0.556747 -0.521929
v 0.091221 -0.612873 -0.465803
v 0.091221 -0.640623 -0.493552
v -0.083970 -0.088020 -0.499439
v -0.083970 -0.088020 -0.539232
v -0.083970 -0.139993 -0.539232
v -0.083970 -0.207399 -0.471553
v -0.083970 -0.207399 -0.499439
v -0.083970 -0.207399 -0.419853
v -0.083970 -0.167606 -0.419853
v -0.083970 -0.167606 -0.539232
v -0.083970 -0.207399 -0.539232
v -0.083970 -0.111724 -0.415670
v -0.083970 -0.083735 -0.387682
v -0.083970 -0.055985 -0.415432
v -0.083970 -0.083974 -0.443420
v -0.083970 -0.139862 -0.443808
v -0.083970 -0.112112 -0.471558
v -0.083970 -0.076272 0.622768
v -0.083970 -0.199295 0.622768
v -0.083970 -0.076272 -0.055642
v -0.083970 -0.199295 -0.055642
v -0.083970 -0.199295 -0.055642
v -0.083970 -0.199295 0.622768
v -0.083970 -0.076272 0.622768
v -0.083970 -0.076272 -0.055642
v -0.083970 0.072845 -0.763943
v -0.083970 0.072845 -0.079816
v -0.083970 0.027181 0.809377
v -0.083970 -0.302085 0.809377
v -0.083970 -0.301856 -0.809377
v -0.083970 0.027181 -0.809377
v -0.083970 -0.347520 -0.763942
v -0.083970 -0.347520 -0.079816
v -0.083970 -0.347520 0.763943
v -0.083970 0.072845 0.763943
v -0.083970 0.069386 -0.781330
v -0.083970 0.059537 -0.796069
v -0.083970 0.044797 -0.805918
v -0.083970 -0.344062 -0.781329
v -0.083970 -0.334213 -0.796069
v -0.083970 -0.319473 -0.805918
v -0.083970 0.069387 0.781330
v -0.083970 0.059538 0.796069
v -0.083970 0.044798 0.805918
v -0.083970 -0.319472 0.805918
v -0.083970 -0.334212 0.796070
v -0.083970 -0.344061 0.781330
v -0.083970 -0.314887 -0.079816
v -0.083970 -0.347520 -0.079816
v -0.083970 -0.347520 0.763943
v -0.083970 -0.314887 0.760729
v -0.083970 0.040212 -0.079816
v -0.083970 0.072845 -0.079816
v -0.083970 0.072845 -0.763943
v -0.083970 0.040212 -0.760728
v -0.083970 -0.314887 -0.760728
v -0.083970 -0.347520 -0.763942
v -0.083970 0.040212 0.760728
v -0.083970 0.072845 0.763943
v -0.083970 0.024008 -0.776744
v -0.083970 0.027181 -0.809377
v -0.083970 -0.301856 -0.809377
v -0.083970 -0.298683 -0.776743
v -0.083970 0.024008 0.776744
v -0.083970 0.027181 0.809377
v -0.083970 0.044798 0.805918
v -0.083970 0.032100 0.775155
v -0.083970 -0.319473 -0.805918
v -0.083970 -0.306775 -0.775155
v -0.083970 0.032100 -0.775155
v -0.083970 0.044797 -0.805918
v -0.083970 -0.298871 0.776744
v -0.083970 -0.302085 0.809377
v -0.083970 0.038646 -0.768597
v -0.083970 0.069386 -0.781330
v -0.083970 0.059537 -0.796069
v -0.083970 0.036010 -0.772542
v -0.083970 -0.310686 -0.772542
v -0.083970 -0.334213 -0.796069
v -0.083970 -0.344062 -0.781329
v -0.083970 -0.313322 -0.768597
v -0.083970 0.036011 0.772542
v -0.083970 0.059538 0.796069
v -0.083970 0.069387 0.781330
v -0.083970 0.038647 0.768597
v -0.083970 -0.306740 0.775179
v -0.083970 -0.319472 0.805918
v -0.083970 -0.310685 0.772542
v -0.083970 -0.334212 0.796070
v -0.083970 -0.313321 0.768597
v -0.083970 -0.344061 0.781330
v -0.083970 0.040212 -0.079816
v -0.083970 -0.314887 -0.079816
v -0.083970 -0.575655 0.622768
v -0.083970 -0.698678 0.622768
v -0.083970 -0.575655 -0.055642
v -0.083970 -0.698678 -0.055642
v -0.083970 -0.698678 -0.055642
v -0.083970 -0.698678 0.622768
v -0.083970 -0.575655 0.622768
v -0.083970 -0.575655 -0.055642
v -0.083970 -0.426538 -0.763942
v -0.083970 -0.426538 -0.079816
v -0.083970 -0.472202 0.809377
v -0.083970 -0.801468 0.809377
v -0.083970 -0.801239 -0.809377
v -0.083970 -0.472202 -0.809377
v -0.083970 -0.846903 -0.763942
v -0.083970 -0.846903 -0.079816
v -0.083970 -0.846903 0.763943
v -0.083970 -0.426538 0.763943
v -0.083970 -0.429997 -0.781329
v -0.083970 -0.439846 -0.796069
v -0.083970 -0.454586 -0.805918
v -0.083970 -0.843445 -0.781329
v -0.083970 -0.833596 -0.796069
v -0.083970 -0.818856 -0.805918
v -0.083970 -0.429996 0.781330
v -0.083970 -0.439845 0.796070
v -0.083970 -0.454585 0.805918
v -0.083970 -0.818855 0.805919
v -0.083970 -0.833595 0.796070
v -0.083970 -0.843444 0.781330
v -0.083970 -0.814270 -0.079816
v -0.083970 -0.846903 -0.079816
v -0.083970 -0.846903 0.763943
v -0.083970 -0.814270 0.760729
v -0.083970 -0.459171 -0.079816
v -0.083970 -0.426538 -0.079816
v -0.083970 -0.426538 -0.763942
v -0.083970 -0.459172 -0.760728
v -0.083970 -0.814270 -0.760728
v -0.083970 -0.846903 -0.763942
v -0.083970 -0.459171 0.760729
v -0.083970 -0.426538 0.763943
v -0.083970 -0.475375 -0.776743
v -0.083970 -0.472202 -0.809377
v -0.083970 -0.801239 -0.809377
v -0.083970 -0.798066 -0.776743
v -0.083970 -0.475375 0.776744
v -0.083970 -0.472202 0.809377
v -0.083970 -0.454585 0.805918
v -0.083970 -0.467283 0.775155
v -0.083970 -0.818856 -0.805918
v -0.083970 -0.806158 -0.775155
v -0.083970 -0.467283 -0.775155
v -0.083970 -0.454586 -0.805918
v -0.083970 -0.798254 0.776744
v -0.083970 -0.801468 0.809377
v -0.083970 -0.460737 -0.768597
v -0.083970 -0.429997 -0.781329
v -0.083970 -0.439846 -0.796069
v -0.083970 -0.463373 -0.772542
v -0.083970 -0.810069 -0.772542
v -0.083970 -0.833596 -0.796069
v -0.083970 -0.843445 -0.781329
v -0.083970 -0.812705 -0.768596
v -0.083970 -0.463372 0.772542
v -0.083970 -0.439845 0.796070
v -0.083970 -0.429996 0.781330
v -0.083970 -0.460736 0.768597
v -0.083970 -0.806123 0.775179
v -0.083970 -0.818855 0.805919
v -0.083970 -0.810068 0.772542
v -0.083970 -0.833595 0.796070
v -0.083970 -0.812705 0.768597
v -0.083970 -0.843444 0.781330
v -0.083970 -0.459171 -0.079816
v -0.083970 -0.814270 -0.079816
v -0.083970 -0.668504 -0.517645
v -0.083970 -0.708297 -0.517645
v -0.083970 -0.708297 -0.465671
v -0.083970 -0.640617 -0.398265
v -0.083970 -0.668504 -0.398265
v -0.083970 -0.588917 -0.398265
v -0.083970 -0.588917 -0.438059
v -0.083970 -0.708297 -0.438059
v -0.083970 -0.708297 -0.398265
v -0.083970 -0.584735 -0.493941
v -0.083970 -0.556747 -0.521929
v -0.083970 -0.584496 -0.549679
v -0.083970 -0.612485 -0.521690
v -0.083970 -0.612873 -0.465803
v -0.083970 -0.640623 -0.493552
v -0.031758 0.719743 -0.621578
v -0.031758 0.810331 -0.621578
v -0.030676 0.810331 -0.629797
v -0.030676 0.719743 -0.629797
v -0.027503 0.810331 -0.637457
v -0.027503 0.719743 -0.637457
v -0.022456 0.810331 -0.644034
v -0.022456 0.719743 -0.644034
v -0.015879 0.810331 -0.649081
v -0.015879 0.719743 -0.649081
v -0.008220 0.810331 -0.652254
v -0.008220 0.719743 -0.652254
v -0.000000 0.810331 -0.653336
v -0.000000 0.719743 -0.653336
v 0.008220 0.810331 -0.652254
v 0.008220 0.719743 -0.652254
v 0.015879 0.810331 -0.649081
v 0.015879 0.719743 -0.649081
v 0.022456 0.810331 -0.644034
v 0.022456 0.719743 -0.644034
v 0.027503 0.810331 -0.637457
v 0.027503 0.719743 -0.637457
v 0.030676 0.810331 -0.629797
v 0.030676 0.719743 -0.629797
v 0.031758 0.810331 -0.621578
v 0.031758 0.719743 -0.621578
v 0.030676 0.810331 -0.613358
v 0.030676 0.719743 -0.613358
v 0.027503 0.810331 -0.605698
v 0.027503 0.719743 -0.605698
v 0.022456 0.810331 -0.599121
v 0.022456 0.719743 -0.599121
v 0.015879 0.810331 -0.594074
v 0.015879 0.719743 -0.594074
v 0.008220 0.810331 -0.590901
v 0.008220 0.719743 -0.590901
v -0.000000 0.810331 -0.589819
v -0.000000 0.719743 -0.589819
v -0.008220 0.810331 -0.590901
v -0.008220 0.719743 -0.590901
v -0.015879 0.810331 -0.594074
v -0.015879 0.719743 -0.594074
v -0.022456 0.810331 -0.599121
v -0.022456 0.719743 -0.599121
v -0.027503 0.810331 -0.605698
v -0.027503 0.719743 -0.605698
v -0.030676 0.810331 -0.613358
v -0.030676 0.719743 -0.613358
v -0.031758 0.810331 -0.621578
v -0.031758 0.719743 -0.621578
v -0.030676 -0.431703 -0.613357
v -0.030676 0.158015 -0.613358
v -0.031758 0.158015 -0.621577
v -0.031758 -0.431703 -0.621577
v -0.027503 -0.431703 -0.605698
v -0.027503 0.158015 -0.605698
v -0.022456 -0.431703 -0.599121
v -0.022456 0.158015 -0.599121
v -0.015879 -0.431703 -0.594074
v -0.015879 0.158015 -0.594074
v -0.008220 -0.431703 -0.590901
v -0.008220 0.158015 -0.590901
v -0.000000 -0.431703 -0.589819
v -0.000000 0.158015 -0.589819
v 0.008220 -0.431703 -0.590901
v 0.008220 0.158015 -0.590901
v 0.015879 -0.431703 -0.594074
v 0.015879 0.158015 -0.594074
v 0.022456 -0.431703 -0.599121
v 0.022456 0.158015 -0.599121
v 0.027503 -0.431703 -0.605698
v 0.027503 0.158015 -0.605698
v 0.030676 -0.431703 -0.613357
v 0.030676 0.158015 -0.613358
v 0.031758 -0.431703 -0.621577
v 0.031758 0.158015 -0.621577
v 0.030676 -0.431703 -0.629797
v 0.030676 0.158015 -0.629797
v 0.027503 -0.431703 -0.637456
v 0.027503 0.158015 -0.637456
v 0.022456 -0.431703 -0.644034
v 0.022456 0.158015 -0.644034
v 0.015879 -0.431703 -0.649081
v 0.015879 0.158015 -0.649081
v 0.008220 -0.431703 -0.652253
v 0.008220 0.158015 -0.652253
v -0.000000 -0.431703 -0.653335
v -0.000000 0.158015 -0.653336
v -0.008220 -0.431703 -0.652253
v -0.008220 0.158015 -0.652253
v -0.015879 -0.431703 -0.649081
v -0.015879 0.158015 -0.649081
v -0.022456 -0.431703 -0.644034
v -0.022456 0.158015 -0.644034
v -0.027503 -0.431703 -0.637456
v -0.027503 0.158015 -0.637456
v -0.030676 -0.431703 -0.629797
v -0.030676 0.158015 -0.629797
v -0.031758 -0.431703 -0.621577
v -0.031758 0.158015 -0.621577
v -0.031758 0.719743 0.621577
v -0.030676 0.719743 0.629797
v -0.030676 0.810331 0.629797
v -0.031758 0.810331 0.621577
v -0.027503 0.719743 0.637456
v -0.027503 0.810331 0.637456
v -0.022456 0.719743 0.644034
v -0.022456 0.810331 0.644034
v -0.015879 0.719743 0.649080
v -0.015879 0.810331 0.649080
v -0.008220 0.719743 0.652253
v -0.008220 0.810331 0.652253
v 0.000000 0.719743 0.653335
v 0.000000 0.810331 0.653335
v 0.008220 0.719743 0.652253
v 0.008220 0.810331 0.652253
v 0.015879 0.719743 0.649080
v 0.015879 0.810331 0.649080
v 0.022456 0.719743 0.644034
v 0.022456 0.810331 0.644034
v 0.027503 0.719743 0.637456
v 0.027503 0.810331 0.637456
v 0.030676 0.719743 0.629797
v 0.030676 0.810331 0.629797
v 0.031758 0.719743 0.621577
v 0.031758 0.810331 0.621577
v 0.030676 0.719743 0.613357
v 0.030676 0.810331 0.613357
v 0.027503 0.719743 0.605698
v 0.027503 0.810331 0.605698
v 0.022456 0.719743 0.599121
v 0.022456 0.810331 0.599121
v 0.015879 0.719743 0.594074
v 0.015879 0.810331 0.594074
v 0.008220 0.719743 0.590901
v 0.008220 0.810331 0.590901
v 0.000000 0.719743 0.589819
v 0.000000 0.810331 0.589819
v -0.008220 0.719743 0.590901
v -0.008220 0.810331 0.590901
v -0.015879 0.719743 0.594074
v -0.015879 0.810331 0.594074
v -0.022456 0.719743 0.599121
v -0.022456 0.810331 0.599121
v -0.027503 0.719743 0.605698
v -0.027503 0.810331 0.605698
v -0.030676 0.719743 0.613357
v -0.030676 0.810331 0.613357
v -0.031758 0.719743 0.621577
v -0.031758 0.810331 0.621577
v -0.030676 -0.431702 0.613358
v -0.031758 -0.431702 0.621577
v -0.031758 0.158015 0.621577
v -0.030676 0.158015 0.613358
v -0.027503 -0.431702 0.605698
v -0.027503 0.158015 0.605698
v -0.022456 -0.431702 0.599121
v -0.022456 0.158015 0.599121
v -0.015879 -0.431702 0.594074
v -0.015879 0.158015 0.594074
v -0.008220 -0.431702 0.590901
v -0.008220 0.158015 0.590901
v 0.000000 -0.431702 0.589819
v 0.000000 0.158015 0.589819
v 0.008220 -0.431702 0.590901
v 0.008220 0.158015 0.590901
v 0.015879 -0.431702 0.594074
v 0.015879 0.158015 0.594074
v 0.022456 -0.431702 0.599121
v 0.022456 0.158015 0.599121
v 0.027503 -0.431702 0.605698
v 0.027503 0.158015 0.605698
v 0.030676 -0.431702 0.613358
v 0.030676 0.158015 0.613358
v 0.031758 -0.431702 0.621577
v 0.031758 0.158015 0.621577
v 0.030676 -0.431702 0.629797
v 0.030676 0.158015 0.629797
v 0.027503 -0.431702 0.637457
v 0.027503 0.158015 0.637456
v 0.022456 -0.431702 0.644034
v 0.022456 0.158015 0.644034
v 0.015879 -0.431702 0.649081
v 0.015879 0.158015 0.649081
v 0.008220 -0.431702 0.652254
v 0.008220 0.158015 0.652253
v 0.000000 -0.431702 0.653336
v 0.000000 0.158015 0.653335
v -0.008220 -0.431702 0.652254
v -0.008220 0.158015 0.652253
v -0.015879 -0.431702 0.649081
v -0.015879 0.158015 0.649081
v -0.022456 -0.431702 0.644034
v -0.022456 0.158015 0.644034
v -0.027503 -0.431702 0.637457
v -0.027503 0.158015 0.637456
v -0.030676 -0.431702 0.629797
v -0.030676 0.158015 0.629797
v -0.031758 -0.431702 0.621577
v -0.031758 0.158015 0.621577
v 0.106537 0.805945 -0.515040
v 0.106537 0.846903 -0.515040
v -0.106537 0.846903 -0.515040
v -0.106537 0.805945 -0.515040
v -0.106537 0.805945 -0.515040
v -0.106537 0.846903 -0.515040
v -0.106537 0.846903 -0.728115
v -0.106537 0.805945 -0.728115
v -0.106537 0.805945 -0.728115
v -0.106537 0.846903 -0.728115
v 0.106537 0.846903 -0.728115
v 0.106537 0.805945 -0.728115
v 0.106537 0.805945 -0.728115
v 0.106537 0.846903 -0.728115
v 0.106537 0.846903 -0.515040
v 0.106537 0.805945 -0.515040
v -0.106537 0.805945 -0.515040
v -0.106537 0.805945 -0.728115
v 0.106537 0.805945 -0.728115
v 0.106537 0.805945 -0.515040
v -0.106537 0.846903 -0.728115
v -0.106537 0.846903 -0.515040
v 0.106537 0.846903 -0.515040
v 0.106537 0.846903 -0.728115
v 0.106537 0.805945 0.515040
v -0.106537 0.805945 0.515040
v -0.106537 0.846903 0.515040
v 0.106537 0.846903 0.515040
v -0.106537 0.805945 0.515040
v -0.106537 0.805945 0.728114
v -0.106537 0.846903 0.728114
v -0.106537 0.846903 0.515040
v -0.106537 0.805945 0.728114
v 0.106537 0.805945 0.728114
v 0.106537 0.846903 0.728114
v -0.106537 0.846903 0.728114
v 0.106537 0.805945 0.728114
v 0.106537 0.805945 0.515040
v 0.106537 0.846903 0.515040
v 0.106537 0.846903 0.728114
v -0.106537 0.805945 0.515040
v 0.106537 0.805945 0.515040
v 0.106537 0.805945 0.728114
v -0.106537 0.805945 0.728114
v -0.106537 0.846903 0.728114
v 0.106537 0.846903 0.728114
v 0.106537 0.846903 0.515040
v -0.106537 0.846903 0.515040
v -0.030676 0.810331 -0.629797
v -0.031758 0.810331 -0.621578
v -0.030676 0.810331 -0.613358
v -0.027503 0.810331 -0.605698
v -0.022456 0.810331 -0.599121
v -0.015879 0.810331 -0.594074
v -0.008220 0.810331 -0.590901
v -0.000000 0.810331 -0.589819
v 0.008220 0.810331 -0.590901
v 0.015879 0.810331 -0.594074
v 0.022456 0.810331 -0.599121
v 0.027503 0.810331 -0.605698
v 0.030676 0.810331 -0.613358
v 0.031758 0.810331 -0.621578
v 0.030676 0.810331 -0.629797
v 0.027503 0.810331 -0.637457
v 0.022456 0.810331 -0.644034
v 0.015879 0.810331 -0.649081
v 0.008220 0.810331 -0.652254
v -0.000000 0.810331 -0.653336
v -0.008220 0.810331 -0.652254
v -0.015879 0.810331 -0.649081
v -0.022456 0.810331 -0.644034
v -0.027503 0.810331 -0.637457
v -0.031758 -0.431703 -0.621577
v -0.030676 -0.431703 -0.629797
v -0.027503 -0.431703 -0.637456
v -0.022456 -0.431703 -0.644034
v -0.015879 -0.431703 -0.649081
v -0.008220 -0.431703 -0.652253
v -0.000000 -0.431703 -0.653335
v 0.008220 -0.431703 -0.652253
v 0.015879 -0.431703 -0.649081
v 0.022456 -0.431703 -0.644034
v 0.027503 -0.431703 -0.637456
v 0.030676 -0.431703 -0.629797
v 0.031758 -0.431703 -0.621577
v 0.030676 -0.431703 -0.613357
v 0.027503 -0.431703 -0.605698
v 0.022456 -0.431703 -0.599121
v 0.015879 -0.431703 -0.594074
v 0.008220 -0.431703 -0.590901
v -0.000000 -0.431703 -0.589819
v -0.008220 -0.431703 -0.590901
v -0.015879 -0.431703 -0.594074
v -0.022456 -0.431703 -0.599121
v -0.027503 -0.431703 -0.605698
v -0.030676 -0.431703 -0.613357
v -0.030676 0.810331 0.629797
v -0.027503 0.810331 0.637456
v -0.022456 0.810331 0.644034
v -0.015879 0.810331 0.649080
v -0.008220 0.810331 0.652253
v 0.000000 0.810331 0.653335
v 0.008220 0.810331 0.652253
v 0.015879 0.810331 0.649080
v 0.022456 0.810331 0.644034
v 0.027503 0.810331 0.637456
v 0.030676 0.810331 0.629797
v 0.031758 0.810331 0.621577
v 0.030676 0.810331 0.613357
v 0.027503 0.810331 0.605698
v 0.022456 0.810331 0.599121
v 0.015879 0.810331 0.594074
v 0.008220 0.810331 0.590901
v 0.000000 0.810331 0.589819
v -0.008220 0.810331 0.590901
v -0.015879 0.810331 0.594074
v -0.022456 0.810331 0.599121
v -0.027503 0.810331 0.605698
v -0.030676 0.810331 0.613357
v -0.031758 0.810331 0.621577
v -0.031758 -0.431702 0.621577
v -0.030676 -0.431702 0.613358
v -0.027503 -0.431702 0.605698
v -0.022456 -0.431702 0.599121
v -0.015879 -0.431702 0.594074
v -0.008220 -0.431702 0.590901
v 0.000000 -0.431702 0.589819
v 0.008220 -0.431702 0.590901
v 0.015879 -0.431702 0.594074
v 0.022456 -0.431702 0.599121
v 0.027503 -0.431702 0.605698
v 0.030676 -0.431702 0.613358
v 0.031758 -0.431702 0.621577
v 0.030676 -0.431702 0.629797
v 0.027503 -0.431702 0.637457
v 0.022456 -0.431702 0.644034
v 0.015879 -0.431702 0.649081
v 0.008220 -0.431702 0.652254
v 0.000000 -0.431702 0.653336
v -0.008220 -0.431702 0.652254
v -0.015879 -0.431702 0.649081
v -0.022456 -0.431702 0.644034
v -0.027503 -0.431702 0.637457
v -0.030676 -0.431702 0.629797
vn 1.0000 -0.0000 -0.0000
vn -1.0000 -0.0000 -0.0000
vn -0.0000 0.9952 -0.0980
vn -0.0000 1.0000 -0.0000
vn -0.0000 0.0968 0.9953
vn -0.0000 -0.0980 0.9952
vn -0.0000 -0.0968 -0.9953
vn -0.0000 0.0968 -0.9953
vn -0.0000 -0.9952 -0.0980
vn -0.0000 -1.0000 -0.0000
vn -0.0000 -0.9952 0.0980
vn -0.0000 0.9952 0.0980
vn -0.0000 0.9239 -0.3827
vn -0.0000 0.7071 -0.7071
vn -0.0000 0.3815 -0.9244
vn -0.0000 -0.9239 -0.3827
vn -0.0000 -0.7071 -0.7071
vn -0.0000 -0.3815 -0.9244
vn -0.0000 0.9239 0.3827
vn -0.0000 0.7071 0.7071
vn -0.0000 0.3815 0.9244
vn -0.0000 -0.3827 0.9239
vn -0.0000 -0.7071 0.7071
vn -0.0000 -0.9239 0.3827
vn -1.0000 0.0003 -0.0000
vn -0.9659 -0.0000 -0.2588
vn -0.8660 -0.0000 -0.5000
vn -0.7071 -0.0000 -0.7071
vn -0.5000 -0.0000 -0.8660
vn -0.2588 -0.0000 -0.9659
vn -0.0000 -0.0000 -1.0000
vn 0.2588 -0.0000 -0.9659
vn 0.5000 -0.0000 -0.8660
vn 0.7071 -0.0000 -0.7071
vn 0.8660 -0.0000 -0.5000
vn 0.9659 -0.0000 -0.2588
vn 0.9659 -0.0000 0.2588
vn 0.8660 -0.0000 0.5000
vn 0.7071 -0.0000 0.7071
vn 0.5000 -0.0000 0.8660
vn 0.2588 -0.0000 0.9659
vn -0.0000 -0.0000 1.0000
vn -0.2588 -0.0000 0.9659
vn -0.5000 -0.0000 0.8660
vn -0.7071 -0.0000 0.7071
vn -0.8660 -0.0000 0.5000
vn -0.9659 -0.0000 0.2588
vt 0.158275 0.280473
vt 0.345660 0.279514
vt 0.095447 0.281143
vt 0.095447 0.281143
vt 0.094842 0.279994
vt 0.094842 0.279992
vt 0.094841 0.279992
vt 0.094841 0.279994
vt 0.094841 0.279992
vt 0.094841 0.279994
vt 0.094840 0.279992
vt 0.094840 0.279994
vt 0.094840 0.279992
vt 0.094840 0.279994
vt 0.094840 0.279992
vt 0.094840 0.279994
vt 0.094839 0.279992
vt 0.094839 0.279994
vt 0.094839 0.279992
vt 0.094839 0.279994
vt 0.094838 0.279992
vt 0.094838 0.279994
vt 0.094838 0.279992
vt 0.094838 0.279994
vt 0.094837 0.279992
vt 0.094837 0.279994
vt 0.094837 0.279992
vt 0.094837 0.279994
vt 0.094837 0.279992
vt 0.094837 0.279994
vt 0.094836 0.279992
vt 0.094836 0.279994
vt 0.094836 0.279992
vt 0.094836 0.279994
vt 0.094835 0.279992
vt 0.094835 0.279994
vt 0.094835 0.279992
vt 0.094835 0.279994
vt 0.094835 0.279992
vt 0.094835 0.279994
vt 0.094834 0.279992
vt 0.094834 0.279994
vt 0.094834 0.279992
vt 0.094834 0.279994
vt 0.094833 0.279992
vt 0.094833 0.279994
vt 0.094833 0.279992
vt 0.094833 0.279994
vt 0.094832 0.279992
vt 0.094832 0.279994
vt 0.094832 0.279992
vt 0.094832 0.279994
vt 0.094832 0.279992
vt 0.094832 0.279994
vt 0.094832 0.279997
vt 0.094832 0.279996
vt 0.094832 0.279996
vt 0.094832 0.279997
vt 0.094832 0.279997
vt 0.094832 0.279996
vt 0.094833 0.279997
vt 0.094833 0.279996
vt 0.094833 0.279997
vt 0.094833 0.279996
vt 0.094834 0.279997
vt 0.094834 0.279996
vt 0.094834 0.279997
vt 0.094834 0.279996
vt 0.094835 0.279997
vt 0.094835 0.279996
vt 0.094835 0.279997
vt 0.094835 0.279996
vt 0.094835 0.279997
vt 0.094835 0.279996
vt 0.094836 0.279997
vt 0.094836 0.279996
vt 0.094836 0.279997
vt 0.094836 0.279996
vt 0.094837 0.279997
vt 0.094837 0.279996
vt 0.094837 0.279997
vt 0.094837 0.279996
vt 0.094837 0.279997
vt 0.094837 0.279996
vt 0.094838 0.279997
vt 0.094838 0.279996
vt 0.094838 0.279997
vt 0.094838 0.279996
vt 0.094839 0.279997
vt 0.094839 0.279996
vt 0.094839 0.279997
vt 0.094839 0.279996
vt 0.094840 0.279997
vt 0.094840 0.279996
vt 0.094840 0.279997
vt 0.094840 0.279996
vt 0.094840 0.279997
vt 0.094840 0.279996
vt 0.094841 0.279997
vt 0.094841 0.279996
vt 0.094841 0.279997
vt 0.094841 0.279996
vt 0.094842 0.279997
vt 0.094842 0.279996
vt 0.095625 0.278750
vt 0.095625 0.278750
vt 0.095625 0.278750
vt 0.094834 0.279997
vt 0.094835 0.279997
vt 0.094834 0.279997
vt 0.094833 0.279998
vt 0.094835 0.279998
vt 0.094836 0.279998
vt 0.094832 0.279998
vt 0.094836 0.279999
vt 0.094832 0.279999
vt 0.094836 0.279999
vt 0.094832 0.279999
vt 0.094837 0.280000
vt 0.094832 0.280000
vt 0.094836 0.280000
vt 0.094832 0.280000
vt 0.094836 0.280001
vt 0.094832 0.280001
vt 0.094836 0.280001
vt 0.094832 0.280001
vt 0.094835 0.280002
vt 0.094833 0.280002
vt 0.094835 0.280002
vt 0.094834 0.280002
vt 0.094834 0.280002
vt 0.094840 0.279997
vt 0.094839 0.279997
vt 0.094839 0.279997
vt 0.094840 0.279998
vt 0.094838 0.279998
vt 0.094841 0.279998
vt 0.094837 0.279998
vt 0.094841 0.279999
vt 0.094837 0.279999
vt 0.094841 0.279999
vt 0.094837 0.279999
vt 0.094842 0.280000
vt 0.094837 0.280000
vt 0.094841 0.280000
vt 0.094837 0.280000
vt 0.094841 0.280001
vt 0.094837 0.280001
vt 0.094841 0.280001
vt 0.094837 0.280001
vt 0.094840 0.280002
vt 0.094838 0.280002
vt 0.094840 0.280002
vt 0.094839 0.280002
vt 0.094839 0.280002
s 0
usemtl AIRPORT
f 1/1/1 2/1/1 3/1/1
f 4/1/1 5/1/1 6/1/1
f 7/1/1 8/1/1 9/1/1
f 10/1/1 11/1/1 12/1/1
f 7/1/1 13/1/1 8/1/1
f 14/1/1 11/1/1 10/1/1
f 3/1/1 2/1/1 15/1/1
f 4/1/1 6/1/1 16/1/1
f 15/1/1 2/1/1 17/1/1
f 4/1/1 16/1/1 18/1/1
f 19/1/1 20/1/1 21/1/1
f 22/2/1 23/2/1 24/2/1
f 25/2/1 26/2/1 27/2/1
f 28/2/1 29/2/1 30/2/1
f 31/2/1 32/2/1 33/2/1
f 34/2/1 35/2/1 36/2/1
f 37/2/1 38/2/1 39/2/1
f 40/2/1 41/2/1 42/2/1
f 43/2/1 44/2/1 45/2/1
f 46/2/1 47/2/1 48/2/1
f 47/2/1 49/2/1 50/2/1
f 48/2/1 51/2/1 52/2/1
f 53/2/1 54/2/1 55/2/1
f 54/2/1 56/2/1 55/2/1
f 57/2/1 52/2/1 51/2/1
f 51/2/1 58/2/1 57/2/1
f 55/2/1 56/2/1 59/2/1
f 56/2/1 60/2/1 59/2/1
f 57/2/1 58/2/1 61/2/1
f 62/2/1 61/2/1 58/2/1
f 60/2/1 62/2/1 59/2/1
f 59/2/1 62/2/1 58/2/1
f 14/1/1 63/1/1 11/1/1
f 7/1/1 64/1/1 13/1/1
f 65/1/1 66/1/1 11/1/1
f 63/1/1 65/1/1 11/1/1
f 7/1/1 67/1/1 64/1/1
f 4/1/1 18/1/1 68/1/1
f 17/1/1 2/1/1 69/1/1
f 68/1/1 70/1/1 4/1/1
f 69/1/1 2/1/1 71/1/1
f 72/1/1 4/1/1 70/1/1
f 73/1/1 11/1/1 74/1/1
f 75/1/1 76/1/1 11/1/1
f 76/1/1 77/1/1 11/1/1
f 77/1/1 74/1/1 11/1/1
f 78/1/1 79/1/1 80/1/1
f 81/1/1 80/1/1 82/1/1
f 83/1/1 82/1/1 80/1/1
f 79/1/1 83/1/1 80/1/1
f 84/1/1 85/1/1 86/1/1
f 87/1/1 88/1/1 85/1/1
f 88/1/1 89/1/1 85/1/1
f 89/1/1 86/1/1 85/1/1
f 90/1/1 7/1/1 91/1/1
f 92/1/1 93/1/1 7/1/1
f 93/1/1 94/1/1 7/1/1
f 94/1/1 91/1/1 7/1/1
f 95/1/1 96/1/1 97/1/1
f 98/1/1 99/1/1 100/1/1
f 101/1/1 102/1/1 103/1/1
f 104/1/1 105/1/1 106/1/1
f 101/1/1 107/1/1 102/1/1
f 108/1/1 105/1/1 104/1/1
f 97/1/1 96/1/1 109/1/1
f 98/1/1 100/1/1 110/1/1
f 109/1/1 96/1/1 111/1/1
f 98/1/1 110/1/1 112/1/1
f 108/1/1 113/1/1 105/1/1
f 101/1/1 114/1/1 107/1/1
f 115/1/1 116/1/1 105/1/1
f 113/1/1 115/1/1 105/1/1
f 101/1/1 117/1/1 114/1/1
f 98/1/1 112/1/1 118/1/1
f 111/1/1 96/1/1 119/1/1
f 118/1/1 120/1/1 98/1/1
f 119/1/1 96/1/1 121/1/1
f 122/1/1 98/1/1 120/1/1
f 123/1/1 105/1/1 124/1/1
f 125/1/1 126/1/1 105/1/1
f 126/1/1 127/1/1 105/1/1
f 127/1/1 124/1/1 105/1/1
f 128/1/1 129/1/1 130/1/1
f 131/1/1 130/1/1 132/1/1
f 133/1/1 132/1/1 130/1/1
f 129/1/1 133/1/1 130/1/1
f 134/1/1 135/1/1 136/1/1
f 137/1/1 138/1/1 135/1/1
f 138/1/1 139/1/1 135/1/1
f 139/1/1 136/1/1 135/1/1
f 140/1/1 101/1/1 141/1/1
f 142/1/1 143/1/1 101/1/1
f 143/1/1 144/1/1 101/1/1
f 144/1/1 141/1/1 101/1/1
f 145/1/1 146/1/1 147/1/1
f 148/2/1 149/2/1 150/2/1
f 151/2/1 152/2/1 153/2/1
f 154/2/1 155/2/1 156/2/1
f 157/2/1 158/2/1 159/2/1
f 160/2/1 161/2/1 162/2/1
f 163/2/1 164/2/1 165/2/1
f 166/2/1 167/2/1 168/2/1
f 169/2/1 170/2/1 171/2/1
f 172/2/1 173/2/1 174/2/1
f 173/2/1 175/2/1 176/2/1
f 174/2/1 177/2/1 178/2/1
f 179/2/1 180/2/1 181/2/1
f 180/2/1 182/2/1 181/2/1
f 183/2/1 178/2/1 177/2/1
f 177/2/1 184/2/1 183/2/1
f 181/2/1 182/2/1 185/2/1
f 182/2/1 186/2/1 185/2/1
f 183/2/1 184/2/1 187/2/1
f 188/2/1 187/2/1 184/2/1
f 186/2/1 188/2/1 185/2/1
f 185/2/1 188/2/1 184/2/1
f 189/1/2 190/1/2 191/1/2
f 192/1/2 193/1/2 194/1/2
f 195/1/2 196/1/2 197/1/2
f 198/1/2 199/1/2 200/1/2
f 195/1/2 197/1/2 201/1/2
f 202/1/2 198/1/2 200/1/2
f 190/1/2 203/1/2 191/1/2
f 192/1/2 204/1/2 193/1/2
f 203/1/2 205/1/2 191/1/2
f 192/1/2 206/1/2 204/1/2
f 207/1/2 208/1/2 209/1/2
f 210/2/2 211/2/2 212/2/2
f 213/2/2 214/2/2 215/2/2
f 216/2/2 217/2/2 218/2/2
f 219/2/2 220/2/2 221/2/2
f 222/2/2 223/2/2 224/2/2
f 225/2/2 226/2/2 227/2/2
f 228/2/2 229/2/2 230/2/2
f 231/2/2 232/2/2 233/2/2
f 234/2/2 235/2/2 236/2/2
f 236/2/2 237/2/2 238/2/2
f 235/2/2 239/2/2 240/2/2
f 241/2/2 242/2/2 243/2/2
f 243/2/2 242/2/2 244/2/2
f 245/2/2 240/2/2 239/2/2
f 240/2/2 245/2/2 246/2/2
f 242/2/2 247/2/2 244/2/2
f 244/2/2 247/2/2 248/2/2
f 245/2/2 249/2/2 246/2/2
f 250/2/2 246/2/2 249/2/2
f 248/2/2 247/2/2 250/2/2
f 247/2/2 246/2/2 250/2/2
f 202/1/2 200/1/2 251/1/2
f 195/1/2 201/1/2 252/1/2
f 253/1/2 200/1/2 254/1/2
f 251/1/2 200/1/2 253/1/2
f 195/1/2 252/1/2 255/1/2
f 192/1/2 256/1/2 206/1/2
f 205/1/2 257/1/2 191/1/2
f 256/1/2 192/1/2 258/1/2
f 257/1/2 259/1/2 191/1/2
f 260/1/2 258/1/2 192/1/2
f 261/1/2 262/1/2 200/1/2
f 263/1/2 200/1/2 264/1/2
f 264/1/2 200/1/2 265/1/2
f 265/1/2 200/1/2 262/1/2
f 266/1/2 267/1/2 268/1/2
f 269/1/2 270/1/2 267/1/2
f 271/1/2 267/1/2 270/1/2
f 268/1/2 267/1/2 271/1/2
f 272/1/2 273/1/2 274/1/2
f 275/1/2 274/1/2 276/1/2
f 276/1/2 274/1/2 277/1/2
f 277/1/2 274/1/2 273/1/2
f 278/1/2 279/1/2 195/1/2
f 280/1/2 195/1/2 281/1/2
f 281/1/2 195/1/2 282/1/2
f 282/1/2 195/1/2 279/1/2
f 283/1/2 284/1/2 285/1/2
f 286/1/2 287/1/2 288/1/2
f 289/1/2 290/1/2 291/1/2
f 292/1/2 293/1/2 294/1/2
f 289/1/2 291/1/2 295/1/2
f 296/1/2 292/1/2 294/1/2
f 284/1/2 297/1/2 285/1/2
f 286/1/2 298/1/2 287/1/2
f 297/1/2 299/1/2 285/1/2
f 286/1/2 300/1/2 298/1/2
f 296/1/2 294/1/2 301/1/2
f 289/1/2 295/1/2 302/1/2
f 303/1/2 294/1/2 304/1/2
f 301/1/2 294/1/2 303/1/2
f 289/1/2 302/1/2 305/1/2
f 286/1/2 306/1/2 300/1/2
f 299/1/2 307/1/2 285/1/2
f 306/1/2 286/1/2 308/1/2
f 307/1/2 309/1/2 285/1/2
f 310/1/2 308/1/2 286/1/2
f 311/1/2 312/1/2 294/1/2
f 313/1/2 294/1/2 314/1/2
f 314/1/2 294/1/2 315/1/2
f 315/1/2 294/1/2 312/1/2
f 316/1/2 317/1/2 318/1/2
f 319/1/2 320/1/2 317/1/2
f 321/1/2 317/1/2 320/1/2
f 318/1/2 317/1/2 321/1/2
f 322/1/2 323/1/2 324/1/2
f 325/1/2 324/1/2 326/1/2
f 326/1/2 324/1/2 327/1/2
f 327/1/2 324/1/2 323/1/2
f 328/1/2 329/1/2 289/1/2
f 330/1/2 289/1/2 331/1/2
f 331/1/2 289/1/2 332/1/2
f 332/1/2 289/1/2 329/1/2
f 333/1/2 334/1/2 335/1/2
f 336/2/2 337/2/2 338/2/2
f 339/2/2 340/2/2 341/2/2
f 342/2/2 343/2/2 344/2/2
f 345/2/2 346/2/2 347/2/2
f 348/2/2 349/2/2 350/2/2
f 351/2/2 352/2/2 353/2/2
f 354/2/2 355/2/2 356/2/2
f 357/2/2 358/2/2 359/2/2
f 360/2/2 361/2/2 362/2/2
f 362/2/2 363/2/2 364/2/2
f 361/2/2 365/2/2 366/2/2
f 367/2/2 368/2/2 369/2/2
f 369/2/2 368/2/2 370/2/2
f 371/2/2 366/2/2 365/2/2
f 366/2/2 371/2/2 372/2/2
f 368/2/2 373/2/2 370/2/2
f 370/2/2 373/2/2 374/2/2
f 371/2/2 375/2/2 372/2/2
f 376/2/2 372/2/2 375/2/2
f 374/2/2 373/2/2 376/2/2
f 373/2/2 372/2/2 376/2/2
f 12/1/1 11/1/1 2/1/1
s 1
f 12/1/1 2/1/1 1/1/1
s 0
f 7/1/1 9/1/1 5/1/1
f 7/1/1 5/1/1 4/1/1
f 19/1/1 377/1/1 378/1/1
f 19/1/1 378/1/1 379/1/1
f 380/1/1 381/1/1 21/1/1
f 380/1/1 21/1/1 20/1/1
f 382/1/1 380/1/1 20/1/1
f 382/1/1 20/1/1 383/1/1
f 381/1/1 384/1/1 385/1/1
f 381/1/1 385/1/1 21/1/1
f 21/1/1 385/1/1 377/1/1
f 21/1/1 377/1/1 19/1/1
f 386/1/1 387/1/1 388/1/1
f 386/1/1 388/1/1 389/1/1
f 390/1/1 20/1/1 19/1/1
f 390/1/1 19/1/1 391/1/1
f 386/1/1 390/1/1 391/1/1
f 386/1/1 391/1/1 387/1/1
f 26/2/1 25/2/1 53/2/1
f 26/2/1 53/2/1 22/2/1
f 29/2/1 28/2/1 27/2/1
f 29/2/1 27/2/1 26/2/1
f 32/2/1 31/2/1 30/2/1
f 32/2/1 30/2/1 29/2/1
f 35/2/1 34/2/1 33/2/1
f 35/2/1 33/2/1 32/2/1
f 38/2/1 37/2/1 36/2/1
f 38/2/1 36/2/1 35/2/1
f 41/2/1 40/2/1 39/2/1
f 41/2/1 39/2/1 38/2/1
f 44/2/1 43/2/1 42/2/1
f 44/2/1 42/2/1 41/2/1
f 47/2/1 46/2/1 45/2/1
f 47/2/1 45/2/1 44/2/1
f 55/2/1 23/2/1 22/2/1
f 55/2/1 22/2/1 53/2/1
f 50/2/1 51/2/1 48/2/1
f 50/2/1 48/2/1 47/2/1
f 7/1/1 11/1/1 66/1/1
f 7/1/1 66/1/1 67/1/1
f 2/1/1 4/1/1 72/1/1
f 2/1/1 72/1/1 71/1/1
f 85/1/1 392/1/1 393/1/1
f 85/1/1 393/1/1 80/1/1
f 393/1/1 394/1/1 2/1/1
f 393/1/1 2/1/1 80/1/1
f 4/1/1 395/1/1 392/1/1
f 4/1/1 392/1/1 85/1/1
f 394/1/1 395/1/1 4/1/1
f 394/1/1 4/1/1 2/1/1
f 396/2/1 397/2/1 398/2/1
f 396/2/1 398/2/1 399/2/1
s 1
f 400/3/3 401/3/4 402/3/4
f 400/3/3 402/3/4 403/3/3
f 404/3/5 405/3/5 406/3/6
f 404/3/5 406/3/6 407/3/6
f 408/3/7 409/3/7 410/3/8
f 408/3/7 410/3/8 411/3/8
f 412/4/9 413/4/10 414/4/10
f 412/4/9 414/4/10 415/3/9
f 416/4/11 417/3/11 414/4/10
f 416/4/11 414/4/10 413/4/10
f 402/3/4 401/3/4 418/3/12
f 402/3/4 418/3/12 419/3/12
f 400/3/3 403/3/3 420/3/13
f 400/3/3 420/3/13 421/3/13
f 421/3/13 420/3/13 422/3/14
f 421/3/13 422/3/14 423/3/14
f 423/3/14 422/3/14 424/3/15
f 423/3/14 424/3/15 425/3/15
f 425/3/15 424/3/15 411/3/8
f 425/3/15 411/3/8 410/3/8
f 412/4/9 415/3/9 426/3/16
f 412/4/9 426/3/16 427/4/16
f 427/4/16 426/3/16 428/3/17
f 427/4/16 428/3/17 429/4/17
f 429/4/17 428/3/17 430/3/18
f 429/4/17 430/3/18 431/3/18
f 431/3/18 430/3/18 409/3/7
f 431/3/18 409/3/7 408/3/7
f 419/3/12 418/3/12 432/3/19
f 419/3/12 432/3/19 433/3/19
f 433/3/19 432/3/19 434/3/20
f 433/3/19 434/3/20 435/3/20
f 435/3/20 434/3/20 436/3/21
f 435/3/20 436/3/21 437/3/21
f 437/3/21 436/3/21 405/3/5
f 437/3/21 405/3/5 404/3/5
f 407/3/6 406/3/6 438/3/22
f 407/3/6 438/3/22 439/3/22
f 439/3/22 438/3/22 440/3/23
f 439/3/22 440/3/23 441/3/23
f 441/3/23 440/3/23 442/3/24
f 441/3/23 442/3/24 443/4/24
f 443/4/24 442/3/24 417/3/11
f 443/4/24 417/3/11 416/4/11
s 0
f 444/3/1 445/3/1 446/3/1
f 444/3/1 446/3/1 447/3/1
f 448/3/1 449/3/1 450/3/1
f 448/3/1 450/3/1 451/3/1
f 452/3/1 444/3/1 447/3/1
f 452/3/1 447/3/1 453/3/1
f 454/3/1 448/3/1 451/3/1
f 454/3/1 451/3/1 455/3/1
f 456/3/1 457/3/1 458/3/1
f 456/3/1 458/3/1 459/3/1
f 460/3/1 461/3/1 462/3/1
f 460/3/1 462/3/1 463/3/1
f 457/3/1 464/3/1 465/3/1
f 457/3/1 465/3/1 458/3/1
f 466/3/1 456/3/1 459/3/1
f 466/3/1 459/3/1 467/3/1
f 468/3/1 460/3/1 463/3/1
f 468/3/1 463/3/1 469/3/1
f 470/3/1 471/3/1 472/3/1
f 470/3/1 472/3/1 473/3/1
f 471/3/1 466/3/1 467/3/1
f 471/3/1 467/3/1 472/3/1
f 474/3/1 475/3/1 476/3/1
f 474/3/1 476/3/1 477/3/1
f 464/3/1 474/3/1 477/3/1
f 464/3/1 477/3/1 465/3/1
f 478/3/1 479/3/1 480/3/1
f 478/3/1 480/3/1 481/3/1
f 461/3/1 478/3/1 481/3/1
f 461/3/1 481/3/1 462/3/1
f 482/3/1 468/3/1 469/3/1
f 482/3/1 469/3/1 483/3/1
f 484/3/1 482/3/1 483/3/1
f 484/3/1 483/3/1 485/3/1
f 486/3/1 484/3/1 485/3/1
f 486/3/1 485/3/1 487/3/1
f 445/3/1 486/3/1 487/3/1
f 445/3/1 487/3/1 446/3/1
f 449/3/1 470/3/1 473/3/1
f 449/3/1 473/3/1 450/3/1
f 475/3/1 452/3/1 453/3/1
f 475/3/1 453/3/1 476/3/1
f 479/3/1 454/3/1 455/3/1
f 479/3/1 455/3/1 480/3/1
f 11/1/1 73/1/1 488/1/1
f 11/1/1 488/1/1 2/1/1
f 7/1/1 90/1/1 75/1/1
f 7/1/1 75/1/1 11/1/1
f 7/1/1 4/1/1 489/1/1
f 7/1/1 489/1/1 92/1/1
f 85/1/1 84/1/1 489/1/1
f 85/1/1 489/1/1 4/1/1
f 78/1/1 80/1/1 2/1/1
f 78/1/1 2/1/1 488/1/1
f 80/1/1 81/1/1 87/1/1
f 80/1/1 87/1/1 85/1/1
f 106/1/1 105/1/1 96/1/1
s 1
f 106/1/1 96/1/1 95/1/1
s 0
f 101/1/1 103/1/1 99/1/1
f 101/1/1 99/1/1 98/1/1
f 101/1/1 105/1/1 116/1/1
f 101/1/1 116/1/1 117/1/1
f 96/1/1 98/1/1 122/1/1
f 96/1/1 122/1/1 121/1/1
f 135/1/1 490/1/1 491/1/1
f 135/1/1 491/1/1 130/1/1
f 491/1/1 492/1/1 96/1/1
f 491/1/1 96/1/1 130/1/1
f 98/1/1 493/1/1 490/1/1
f 98/1/1 490/1/1 135/1/1
f 492/1/1 493/1/1 98/1/1
f 492/1/1 98/1/1 96/1/1
f 494/2/1 495/2/1 496/2/1
f 494/2/1 496/2/1 497/2/1
s 1
f 498/3/3 499/3/4 500/3/4
f 498/3/3 500/3/4 501/3/3
f 502/3/5 503/3/5 504/3/6
f 502/3/5 504/3/6 505/3/6
f 506/3/7 507/3/7 508/3/8
f 506/3/7 508/3/8 509/3/8
f 510/4/9 511/4/10 512/4/10
f 510/4/9 512/4/10 513/3/9
f 514/4/11 515/3/11 512/4/10
f 514/4/11 512/4/10 511/4/10
f 500/3/4 499/3/4 516/3/12
f 500/3/4 516/3/12 517/3/12
f 498/3/3 501/3/3 518/3/13
f 498/3/3 518/3/13 519/3/13
f 519/3/13 518/3/13 520/3/14
f 519/3/13 520/3/14 521/3/14
f 521/3/14 520/3/14 522/3/15
f 521/3/14 522/3/15 523/3/15
f 523/3/15 522/3/15 509/3/8
f 523/3/15 509/3/8 508/3/8
f 510/4/9 513/3/9 524/3/16
f 510/4/9 524/3/16 525/4/16
f 525/4/16 524/3/16 526/3/17
f 525/4/16 526/3/17 527/4/17
f 527/4/17 526/3/17 528/3/18
f 527/4/17 528/3/18 529/3/18
f 529/3/18 528/3/18 507/3/7
f 529/3/18 507/3/7 506/3/7
f 517/3/12 516/3/12 530/3/19
f 517/3/12 530/3/19 531/3/19
f 531/3/19 530/3/19 532/3/20
f 531/3/19 532/3/20 533/3/20
f 533/3/20 532/3/20 534/3/21
f 533/3/20 534/3/21 535/3/21
f 535/3/21 534/3/21 503/3/5
f 535/3/21 503/3/5 502/3/5
f 505/3/6 504/3/6 536/3/22
f 505/3/6 536/3/22 537/3/22
f 537/3/22 536/3/22 538/3/23
f 537/3/22 538/3/23 539/3/23
f 539/3/23 538/3/23 540/3/24
f 539/3/23 540/3/24 541/4/24
f 541/4/24 540/3/24 515/3/11
f 541/4/24 515/3/11 514/4/11
s 0
f 542/3/1 543/3/1 544/3/1
f 542/3/1 544/3/1 545/3/1
f 546/3/1 547/3/1 548/3/1
f 546/3/1 548/3/1 549/3/1
f 550/3/1 542/3/1 545/3/1
f 550/3/1 545/3/1 551/3/1
f 552/3/1 546/3/1 549/3/1
f 552/3/1 549/3/1 553/3/1
f 554/3/1 555/3/1 556/3/1
f 554/3/1 556/3/1 557/3/1
f 558/3/1 559/3/1 560/3/1
f 558/3/1 560/3/1 561/3/1
f 555/3/1 562/3/1 563/3/1
f 555/3/1 563/3/1 556/3/1
f 564/3/1 554/3/1 557/3/1
f 564/3/1 557/3/1 565/3/1
f 566/3/1 558/3/1 561/3/1
f 566/3/1 561/3/1 567/3/1
f 568/3/1 569/3/1 570/3/1
f 568/3/1 570/3/1 571/3/1
f 569/3/1 564/3/1 565/3/1
f 569/3/1 565/3/1 570/3/1
f 572/3/1 573/3/1 574/3/1
f 572/3/1 574/3/1 575/3/1
f 562/3/1 572/3/1 575/3/1
f 562/3/1 575/3/1 563/3/1
f 576/3/1 577/3/1 578/3/1
f 576/3/1 578/3/1 579/3/1
f 559/3/1 576/3/1 579/3/1
f 559/3/1 579/3/1 560/3/1
f 580/3/1 566/3/1 567/3/1
f 580/3/1 567/3/1 581/3/1
f 582/3/1 580/3/1 581/3/1
f 582/3/1 581/3/1 583/3/1
f 584/3/1 582/3/1 583/3/1
f 584/3/1 583/3/1 585/3/1
f 543/3/1 584/3/1 585/3/1
f 543/3/1 585/3/1 544/3/1
f 547/3/1 568/3/1 571/3/1
f 547/3/1 571/3/1 548/3/1
f 573/3/1 550/3/1 551/3/1
f 573/3/1 551/3/1 574/3/1
f 577/3/1 552/3/1 553/3/1
f 577/3/1 553/3/1 578/3/1
f 105/1/1 123/1/1 586/1/1
f 105/1/1 586/1/1 96/1/1
f 101/1/1 140/1/1 125/1/1
f 101/1/1 125/1/1 105/1/1
f 101/1/1 98/1/1 587/1/1
f 101/1/1 587/1/1 142/1/1
f 135/1/1 134/1/1 587/1/1
f 135/1/1 587/1/1 98/1/1
f 128/1/1 130/1/1 96/1/1
f 128/1/1 96/1/1 586/1/1
f 130/1/1 131/1/1 137/1/1
f 130/1/1 137/1/1 135/1/1
f 145/1/1 588/1/1 589/1/1
f 145/1/1 589/1/1 590/1/1
f 591/1/1 592/1/1 147/1/1
f 591/1/1 147/1/1 146/1/1
f 593/1/1 591/1/1 146/1/1
f 593/1/1 146/1/1 594/1/1
f 592/1/1 595/1/1 596/1/1
f 592/1/1 596/1/1 147/1/1
f 147/1/1 596/1/1 588/1/1
f 147/1/1 588/1/1 145/1/1
f 597/1/1 598/1/1 599/1/1
f 597/1/1 599/1/1 600/1/1
f 601/1/1 146/1/1 145/1/1
f 601/1/1 145/1/1 602/1/1
f 597/1/1 601/1/1 602/1/1
f 597/1/1 602/1/1 598/1/1
f 152/2/1 151/2/1 179/2/1
f 152/2/1 179/2/1 148/2/1
f 155/2/1 154/2/1 153/2/1
f 155/2/1 153/2/1 152/2/1
f 158/2/1 157/2/1 156/2/1
f 158/2/1 156/2/1 155/2/1
f 161/2/1 160/2/1 159/2/1
f 161/2/1 159/2/1 158/2/1
f 164/2/1 163/2/1 162/2/1
f 164/2/1 162/2/1 161/2/1
f 167/2/1 166/2/1 165/2/1
f 167/2/1 165/2/1 164/2/1
f 170/2/1 169/2/1 168/2/1
f 170/2/1 168/2/1 167/2/1
f 173/2/1 172/2/1 171/2/1
f 173/2/1 171/2/1 170/2/1
f 181/2/1 149/2/1 148/2/1
f 181/2/1 148/2/1 179/2/1
f 176/2/1 177/2/1 174/2/1
f 176/2/1 174/2/1 173/2/1
s 1
f 199/1/2 189/1/2 191/1/2
s 0
f 199/1/2 191/1/2 200/1/2
f 195/1/2 192/1/2 194/1/2
f 195/1/2 194/1/2 196/1/2
f 207/1/2 603/1/2 604/1/2
f 207/1/2 604/1/2 605/1/2
f 606/1/2 209/1/2 208/1/2
f 606/1/2 208/1/2 607/1/2
f 608/1/2 609/1/2 209/1/2
f 608/1/2 209/1/2 606/1/2
f 607/1/2 208/1/2 610/1/2
f 607/1/2 610/1/2 611/1/2
f 208/1/2 207/1/2 605/1/2
f 208/1/2 605/1/2 610/1/2
f 612/1/2 613/1/2 614/1/2
f 612/1/2 614/1/2 615/1/2
f 616/1/2 617/1/2 207/1/2
f 616/1/2 207/1/2 209/1/2
f 612/1/2 615/1/2 617/1/2
f 612/1/2 617/1/2 616/1/2
f 215/2/2 210/2/2 241/2/2
f 215/2/2 241/2/2 213/2/2
f 218/2/2 215/2/2 214/2/2
f 218/2/2 214/2/2 216/2/2
f 221/2/2 218/2/2 217/2/2
f 221/2/2 217/2/2 219/2/2
f 224/2/2 221/2/2 220/2/2
f 224/2/2 220/2/2 222/2/2
f 227/2/2 224/2/2 223/2/2
f 227/2/2 223/2/2 225/2/2
f 230/2/2 227/2/2 226/2/2
f 230/2/2 226/2/2 228/2/2
f 233/2/2 230/2/2 229/2/2
f 233/2/2 229/2/2 231/2/2
f 236/2/2 233/2/2 232/2/2
f 236/2/2 232/2/2 234/2/2
f 242/2/2 241/2/2 210/2/2
f 242/2/2 210/2/2 212/2/2
f 237/2/2 236/2/2 235/2/2
f 237/2/2 235/2/2 240/2/2
f 195/1/2 255/1/2 254/1/2
f 195/1/2 254/1/2 200/1/2
f 191/1/2 259/1/2 260/1/2
f 191/1/2 260/1/2 192/1/2
f 274/1/2 267/1/2 618/1/2
f 274/1/2 618/1/2 619/1/2
f 618/1/2 267/1/2 191/1/2
f 618/1/2 191/1/2 620/1/2
f 192/1/2 274/1/2 619/1/2
f 192/1/2 619/1/2 621/1/2
f 620/1/2 191/1/2 192/1/2
f 620/1/2 192/1/2 621/1/2
f 622/2/2 623/2/2 624/2/2
f 622/2/2 624/2/2 625/2/2
s 1
f 400/3/3 626/3/3 627/3/4
f 400/3/3 627/3/4 401/3/4
f 628/3/5 629/3/6 406/3/6
f 628/3/5 406/3/6 405/3/5
f 630/3/7 631/3/8 410/3/8
f 630/3/7 410/3/8 409/3/7
f 632/4/9 415/3/9 414/4/10
f 632/4/9 414/4/10 633/4/10
f 634/4/11 633/4/10 414/4/10
f 634/4/11 414/4/10 417/3/11
f 627/3/4 635/3/12 418/3/12
f 627/3/4 418/3/12 401/3/4
f 400/3/3 421/3/13 636/3/13
f 400/3/3 636/3/13 626/3/3
f 421/3/13 423/3/14 637/3/14
f 421/3/13 637/3/14 636/3/13
f 423/3/14 425/3/15 638/3/15
f 423/3/14 638/3/15 637/3/14
f 425/3/15 410/3/8 631/3/8
f 425/3/15 631/3/8 638/3/15
f 632/4/9 639/4/16 426/3/16
f 632/4/9 426/3/16 415/3/9
f 639/4/16 640/4/17 428/3/17
f 639/4/16 428/3/17 426/3/16
f 640/4/17 641/3/18 430/3/18
f 640/4/17 430/3/18 428/3/17
f 641/3/18 630/3/7 409/3/7
f 641/3/18 409/3/7 430/3/18
f 635/3/12 642/3/19 432/3/19
f 635/3/12 432/3/19 418/3/12
f 642/3/19 643/3/20 434/3/20
f 642/3/19 434/3/20 432/3/19
f 643/3/20 644/3/21 436/3/21
f 643/3/20 436/3/21 434/3/20
f 644/3/21 628/3/5 405/3/5
f 644/3/21 405/3/5 436/3/21
f 629/3/6 645/3/22 438/3/22
f 629/3/6 438/3/22 406/3/6
f 645/3/22 646/3/23 440/3/23
f 645/3/22 440/3/23 438/3/22
f 646/3/23 647/4/24 442/3/24
f 646/3/23 442/3/24 440/3/23
f 647/4/24 634/4/11 417/3/11
f 647/4/24 417/3/11 442/3/24
s 0
f 648/3/2 649/3/2 650/3/2
f 648/3/2 650/3/2 651/3/2
f 652/3/2 653/3/2 654/3/2
f 652/3/2 654/3/2 655/3/2
f 656/3/2 657/3/2 649/3/2
f 656/3/2 649/3/2 648/3/2
f 658/3/2 659/3/2 653/3/2
f 658/3/2 653/3/2 652/3/2
f 660/3/2 661/3/2 662/3/2
f 660/3/2 662/3/2 663/3/2
f 664/3/2 665/3/2 666/3/2
f 664/3/2 666/3/2 667/3/2
f 663/3/2 662/3/2 668/3/2
f 663/3/2 668/3/2 669/3/2
f 670/3/2 671/3/2 661/3/2
f 670/3/2 661/3/2 660/3/2
f 672/3/2 673/3/2 665/3/2
f 672/3/2 665/3/2 664/3/2
f 674/3/2 675/3/2 676/3/2
f 674/3/2 676/3/2 677/3/2
f 677/3/2 676/3/2 671/3/2
f 677/3/2 671/3/2 670/3/2
f 678/3/2 679/3/2 680/3/2
f 678/3/2 680/3/2 681/3/2
f 669/3/2 668/3/2 679/3/2
f 669/3/2 679/3/2 678/3/2
f 682/3/2 683/3/2 684/3/2
f 682/3/2 684/3/2 685/3/2
f 667/3/2 666/3/2 683/3/2
f 667/3/2 683/3/2 682/3/2
f 686/3/2 687/3/2 673/3/2
f 686/3/2 673/3/2 672/3/2
f 688/3/2 689/3/2 687/3/2
f 688/3/2 687/3/2 686/3/2
f 690/3/2 691/3/2 689/3/2
f 690/3/2 689/3/2 688/3/2
f 651/3/2 650/3/2 691/3/2
f 651/3/2 691/3/2 690/3/2
f 655/3/2 654/3/2 675/3/2
f 655/3/2 675/3/2 674/3/2
f 681/3/2 680/3/2 657/3/2
f 681/3/2 657/3/2 656/3/2
f 685/3/2 684/3/2 659/3/2
f 685/3/2 659/3/2 658/3/2
f 200/1/2 191/1/2 692/1/2
f 200/1/2 692/1/2 261/1/2
f 195/1/2 200/1/2 263/1/2
f 195/1/2 263/1/2 278/1/2
f 195/1/2 280/1/2 693/1/2
f 195/1/2 693/1/2 192/1/2
f 274/1/2 192/1/2 693/1/2
f 274/1/2 693/1/2 272/1/2
f 266/1/2 692/1/2 191/1/2
f 266/1/2 191/1/2 267/1/2
f 267/1/2 274/1/2 275/1/2
f 267/1/2 275/1/2 269/1/2
s 1
f 293/1/25 283/1/25 285/1/25
s 0
f 293/1/2 285/1/2 294/1/2
f 289/1/2 286/1/2 288/1/2
f 289/1/2 288/1/2 290/1/2
f 289/1/2 305/1/2 304/1/2
f 289/1/2 304/1/2 294/1/2
f 285/1/2 309/1/2 310/1/2
f 285/1/2 310/1/2 286/1/2
f 324/1/2 317/1/2 694/1/2
f 324/1/2 694/1/2 695/1/2
f 694/1/2 317/1/2 285/1/2
f 694/1/2 285/1/2 696/1/2
f 286/1/2 324/1/2 695/1/2
f 286/1/2 695/1/2 697/1/2
f 696/1/2 285/1/2 286/1/2
f 696/1/2 286/1/2 697/1/2
f 698/2/2 699/2/2 700/2/2
f 698/2/2 700/2/2 701/2/2
s 1
f 498/3/3 702/3/3 703/3/4
f 498/3/3 703/3/4 499/3/4
f 704/3/5 705/3/6 504/3/6
f 704/3/5 504/3/6 503/3/5
f 706/3/7 707/3/8 508/3/8
f 706/3/7 508/3/8 507/3/7
f 708/4/9 513/3/9 512/4/10
f 708/4/9 512/4/10 709/4/10
f 710/4/11 709/4/10 512/4/10
f 710/4/11 512/4/10 515/3/11
f 703/3/4 711/3/12 516/3/12
f 703/3/4 516/3/12 499/3/4
f 498/3/3 519/3/13 712/3/13
f 498/3/3 712/3/13 702/3/3
f 519/3/13 521/3/14 713/3/14
f 519/3/13 713/3/14 712/3/13
f 521/3/14 523/3/15 714/3/15
f 521/3/14 714/3/15 713/3/14
f 523/3/15 508/3/8 707/3/8
f 523/3/15 707/3/8 714/3/15
f 708/4/9 715/4/16 524/3/16
f 708/4/9 524/3/16 513/3/9
f 715/4/16 716/4/17 526/3/17
f 715/4/16 526/3/17 524/3/16
f 716/4/17 717/3/18 528/3/18
f 716/4/17 528/3/18 526/3/17
f 717/3/18 706/3/7 507/3/7
f 717/3/18 507/3/7 528/3/18
f 711/3/12 718/3/19 530/3/19
f 711/3/12 530/3/19 516/3/12
f 718/3/19 719/3/20 532/3/20
f 718/3/19 532/3/20 530/3/19
f 719/3/20 720/3/21 534/3/21
f 719/3/20 534/3/21 532/3/20
f 720/3/21 704/3/5 503/3/5
f 720/3/21 503/3/5 534/3/21
f 705/3/6 721/3/22 536/3/22
f 705/3/6 536/3/22 504/3/6
f 721/3/22 722/3/23 538/3/23
f 721/3/22 538/3/23 536/3/22
f 722/3/23 723/4/24 540/3/24
f 722/3/23 540/3/24 538/3/23
f 723/4/24 710/4/11 515/3/11
f 723/4/24 515/3/11 540/3/24
s 0
f 724/3/2 725/3/2 726/3/2
f 724/3/2 726/3/2 727/3/2
f 728/3/2 729/3/2 730/3/2
f 728/3/2 730/3/2 731/3/2
f 732/3/2 733/3/2 725/3/2
f 732/3/2 725/3/2 724/3/2
f 734/3/2 735/3/2 729/3/2
f 734/3/2 729/3/2 728/3/2
f 736/3/2 737/3/2 738/3/2
f 736/3/2 738/3/2 739/3/2
f 740/3/2 741/3/2 742/3/2
f 740/3/2 742/3/2 743/3/2
f 739/3/2 738/3/2 744/3/2
f 739/3/2 744/3/2 745/3/2
f 746/3/2 747/3/2 737/3/2
f 746/3/2 737/3/2 736/3/2
f 748/3/2 749/3/2 741/3/2
f 748/3/2 741/3/2 740/3/2
f 750/3/2 751/3/2 752/3/2
f 750/3/2 752/3/2 753/3/2
f 753/3/2 752/3/2 747/3/2
f 753/3/2 747/3/2 746/3/2
f 754/3/2 755/3/2 756/3/2
f 754/3/2 756/3/2 757/3/2
f 745/3/2 744/3/2 755/3/2
f 745/3/2 755/3/2 754/3/2
f 758/3/2 759/3/2 760/3/2
f 758/3/2 760/3/2 761/3/2
f 743/3/2 742/3/2 759/3/2
f 743/3/2 759/3/2 758/3/2
f 762/3/2 763/3/2 749/3/2
f 762/3/2 749/3/2 748/3/2
f 764/3/2 765/3/2 763/3/2
f 764/3/2 763/3/2 762/3/2
f 766/3/2 767/3/2 765/3/2
f 766/3/2 765/3/2 764/3/2
f 727/3/2 726/3/2 767/3/2
f 727/3/2 767/3/2 766/3/2
f 731/3/2 730/3/2 751/3/2
f 731/3/2 751/3/2 750/3/2
f 757/3/2 756/3/2 733/3/2
f 757/3/2 733/3/2 732/3/2
f 761/3/2 760/3/2 735/3/2
f 761/3/2 735/3/2 734/3/2
f 294/1/2 285/1/2 768/1/2
f 294/1/2 768/1/2 311/1/2
f 289/1/2 294/1/2 313/1/2
f 289/1/2 313/1/2 328/1/2
f 289/1/2 330/1/2 769/1/2
f 289/1/2 769/1/2 286/1/2
f 324/1/2 286/1/2 769/1/2
f 324/1/2 769/1/2 322/1/2
f 316/1/2 768/1/2 285/1/2
f 316/1/2 285/1/2 317/1/2
f 317/1/2 324/1/2 325/1/2
f 317/1/2 325/1/2 319/1/2
f 333/1/2 770/1/2 771/1/2
f 333/1/2 771/1/2 772/1/2
f 773/1/2 335/1/2 334/1/2
f 773/1/2 334/1/2 774/1/2
f 775/1/2 776/1/2 335/1/2
f 775/1/2 335/1/2 773/1/2
f 774/1/2 334/1/2 777/1/2
f 774/1/2 777/1/2 778/1/2
f 334/1/2 333/1/2 772/1/2
f 334/1/2 772/1/2 777/1/2
f 779/1/2 780/1/2 781/1/2
f 779/1/2 781/1/2 782/1/2
f 783/1/2 784/1/2 333/1/2
f 783/1/2 333/1/2 335/1/2
f 779/1/2 782/1/2 784/1/2
f 779/1/2 784/1/2 783/1/2
f 341/2/2 336/2/2 367/2/2
f 341/2/2 367/2/2 339/2/2
f 344/2/2 341/2/2 340/2/2
f 344/2/2 340/2/2 342/2/2
f 347/2/2 344/2/2 343/2/2
f 347/2/2 343/2/2 345/2/2
f 350/2/2 347/2/2 346/2/2
f 350/2/2 346/2/2 348/2/2
f 353/2/2 350/2/2 349/2/2
f 353/2/2 349/2/2 351/2/2
f 356/2/2 353/2/2 352/2/2
f 356/2/2 352/2/2 354/2/2
f 359/2/2 356/2/2 355/2/2
f 359/2/2 355/2/2 357/2/2
f 362/2/2 359/2/2 358/2/2
f 362/2/2 358/2/2 360/2/2
f 368/2/2 367/2/2 336/2/2
f 368/2/2 336/2/2 338/2/2
f 363/2/2 362/2/2 361/2/2
f 363/2/2 361/2/2 366/2/2
s 1
f 785/5/2 786/6/2 787/7/26
f 785/5/2 787/7/26 788/8/26
f 788/8/26 787/7/26 789/9/27
f 788/8/26 789/9/27 790/10/27
f 790/10/27 789/9/27 791/11/28
f 790/10/27 791/11/28 792/12/28
f 792/12/28 791/11/28 793/13/29
f 792/12/28 793/13/29 794/14/29
f 794/14/29 793/13/29 795/15/30
f 794/14/29 795/15/30 796/16/30
f 796/16/30 795/15/30 797/17/31
f 796/16/30 797/17/31 798/18/31
f 798/18/31 797/17/31 799/19/32
f 798/18/31 799/19/32 800/20/32
f 800/20/32 799/19/32 801/21/33
f 800/20/32 801/21/33 802/22/33
f 802/22/33 801/21/33 803/23/34
f 802/22/33 803/23/34 804/24/34
f 804/24/34 803/23/34 805/25/35
f 804/24/34 805/25/35 806/26/35
f 806/26/35 805/25/35 807/27/36
f 806/26/35 807/27/36 808/28/36
f 808/28/36 807/27/36 809/29/1
f 808/28/36 809/29/1 810/30/1
f 810/30/1 809/29/1 811/31/37
f 810/30/1 811/31/37 812/32/37
f 812/32/37 811/31/37 813/33/38
f 812/32/37 813/33/38 814/34/38
f 814/34/38 813/33/38 815/35/39
f 814/34/38 815/35/39 816/36/39
f 816/36/39 815/35/39 817/37/40
f 816/36/39 817/37/40 818/38/40
f 818/38/40 817/37/40 819/39/41
f 818/38/40 819/39/41 820/40/41
f 820/40/41 819/39/41 821/41/42
f 820/40/41 821/41/42 822/42/42
f 822/42/42 821/41/42 823/43/43
f 822/42/42 823/43/43 824/44/43
f 824/44/43 823/43/43 825/45/44
f 824/44/43 825/45/44 826/46/44
f 826/46/44 825/45/44 827/47/45
f 826/46/44 827/47/45 828/48/45
f 828/48/45 827/47/45 829/49/46
f 828/48/45 829/49/46 830/50/46
f 830/50/46 829/49/46 831/51/47
f 830/50/46 831/51/47 832/52/47
f 832/52/47 831/51/47 833/53/2
f 832/52/47 833/53/2 834/54/2
f 835/55/47 836/56/47 837/57/2
f 835/55/47 837/57/2 838/58/2
f 836/56/47 832/52/47 834/54/2
f 836/56/47 834/54/2 837/57/2
f 839/59/46 840/60/46 836/56/47
f 839/59/46 836/56/47 835/55/47
f 840/60/46 830/50/46 832/52/47
f 840/60/46 832/52/47 836/56/47
f 841/61/45 842/62/45 840/60/46
f 841/61/45 840/60/46 839/59/46
f 842/62/45 828/48/45 830/50/46
f 842/62/45 830/50/46 840/60/46
f 843/63/44 844/64/44 842/62/45
f 843/63/44 842/62/45 841/61/45
f 844/64/44 826/46/44 828/48/45
f 844/64/44 828/48/45 842/62/45
f 845/65/43 846/66/43 844/64/44
f 845/65/43 844/64/44 843/63/44
f 846/66/43 824/44/43 826/46/44
f 846/66/43 826/46/44 844/64/44
f 847/67/42 848/68/42 846/66/43
f 847/67/42 846/66/43 845/65/43
f 848/68/42 822/42/42 824/44/43
f 848/68/42 824/44/43 846/66/43
f 849/69/41 850/70/41 848/68/42
f 849/69/41 848/68/42 847/67/42
f 850/70/41 820/40/41 822/42/42
f 850/70/41 822/42/42 848/68/42
f 851/71/40 852/72/40 850/70/41
f 851/71/40 850/70/41 849/69/41
f 852/72/40 818/38/40 820/40/41
f 852/72/40 820/40/41 850/70/41
f 853/73/39 854/74/39 852/72/40
f 853/73/39 852/72/40 851/71/40
f 854/74/39 816/36/39 818/38/40
f 854/74/39 818/38/40 852/72/40
f 855/75/38 856/76/38 854/74/39
f 855/75/38 854/74/39 853/73/39
f 856/76/38 814/34/38 816/36/39
f 856/76/38 816/36/39 854/74/39
f 857/77/37 858/78/37 856/76/38
f 857/77/37 856/76/38 855/75/38
f 858/78/37 812/32/37 814/34/38
f 858/78/37 814/34/38 856/76/38
f 859/79/1 860/80/1 858/78/37
f 859/79/1 858/78/37 857/77/37
f 860/80/1 810/30/1 812/32/37
f 860/80/1 812/32/37 858/78/37
f 861/81/36 862/82/36 860/80/1
f 861/81/36 860/80/1 859/79/1
f 862/82/36 808/28/36 810/30/1
f 862/82/36 810/30/1 860/80/1
f 863/83/35 864/84/35 862/82/36
f 863/83/35 862/82/36 861/81/36
f 864/84/35 806/26/35 808/28/36
f 864/84/35 808/28/36 862/82/36
f 865/85/34 866/86/34 864/84/35
f 865/85/34 864/84/35 863/83/35
f 866/86/34 804/24/34 806/26/35
f 866/86/34 806/26/35 864/84/35
f 867/87/33 868/88/33 866/86/34
f 867/87/33 866/86/34 865/85/34
f 868/88/33 802/22/33 804/24/34
f 868/88/33 804/24/34 866/86/34
f 869/89/32 870/90/32 868/88/33
f 869/89/32 868/88/33 867/87/33
f 870/90/32 800/20/32 802/22/33
f 870/90/32 802/22/33 868/88/33
f 871/91/31 872/92/31 870/90/32
f 871/91/31 870/90/32 869/89/32
f 872/92/31 798/18/31 800/20/32
f 872/92/31 800/20/32 870/90/32
f 873/93/30 874/94/30 872/92/31
f 873/93/30 872/92/31 871/91/31
f 874/94/30 796/16/30 798/18/31
f 874/94/30 798/18/31 872/92/31
f 875/95/29 876/96/29 874/94/30
f 875/95/29 874/94/30 873/93/30
f 876/96/29 794/14/29 796/16/30
f 876/96/29 796/16/30 874/94/30
f 877/97/28 878/98/28 876/96/29
f 877/97/28 876/96/29 875/95/29
f 878/98/28 792/12/28 794/14/29
f 878/98/28 794/14/29 876/96/29
f 879/99/27 880/100/27 878/98/28
f 879/99/27 878/98/28 877/97/28
f 880/100/27 790/10/27 792/12/28
f 880/100/27 792/12/28 878/98/28
f 881/101/26 882/102/26 880/100/27
f 881/101/26 880/100/27 879/99/27
f 882/102/26 788/8/26 790/10/27
f 882/102/26 790/10/27 880/100/27
f 883/103/2 884/104/2 882/102/26
f 883/103/2 882/102/26 881/101/26
f 884/104/2 785/5/2 788/8/26
f 884/104/2 788/8/26 882/102/26
f 885/5/2 886/8/47 887/7/47
f 885/5/2 887/7/47 888/6/2
f 886/8/47 889/10/46 890/9/46
f 886/8/47 890/9/46 887/7/47
f 889/10/46 891/12/45 892/11/45
f 889/10/46 892/11/45 890/9/46
f 891/12/45 893/14/44 894/13/44
f 891/12/45 894/13/44 892/11/45
f 893/14/44 895/16/43 896/15/43
f 893/14/44 896/15/43 894/13/44
f 895/16/43 897/18/42 898/17/42
f 895/16/43 898/17/42 896/15/43
f 897/18/42 899/20/41 900/19/41
f 897/18/42 900/19/41 898/17/42
f 899/20/41 901/22/40 902/21/40
f 899/20/41 902/21/40 900/19/41
f 901/22/40 903/24/39 904/23/39
f 901/22/40 904/23/39 902/21/40
f 903/24/39 905/26/38 906/25/38
f 903/24/39 906/25/38 904/23/39
f 905/26/38 907/28/37 908/27/37
f 905/26/38 908/27/37 906/25/38
f 907/28/37 909/30/1 910/29/1
f 907/28/37 910/29/1 908/27/37
f 909/30/1 911/32/36 912/31/36
f 909/30/1 912/31/36 910/29/1
f 911/32/36 913/34/35 914/33/35
f 911/32/36 914/33/35 912/31/36
f 913/34/35 915/36/34 916/35/34
f 913/34/35 916/35/34 914/33/35
f 915/36/34 917/38/33 918/37/33
f 915/36/34 918/37/33 916/35/34
f 917/38/33 919/40/32 920/39/32
f 917/38/33 920/39/32 918/37/33
f 919/40/32 921/42/31 922/41/31
f 919/40/32 922/41/31 920/39/32
f 921/42/31 923/44/30 924/43/30
f 921/42/31 924/43/30 922/41/31
f 923/44/30 925/46/29 926/45/29
f 923/44/30 926/45/29 924/43/30
f 925/46/29 927/48/28 928/47/28
f 925/46/29 928/47/28 926/45/29
f 927/48/28 929/50/27 930/49/27
f 927/48/28 930/49/27 928/47/28
f 929/50/27 931/52/26 932/51/26
f 929/50/27 932/51/26 930/49/27
f 931/52/26 933/54/2 934/53/2
f 931/52/26 934/53/2 932/51/26
f 935/55/26 936/58/2 937/57/2
f 935/55/26 937/57/2 938/56/26
f 938/56/26 937/57/2 933/54/2
f 938/56/26 933/54/2 931/52/26
f 939/59/27 935/55/26 938/56/26
f 939/59/27 938/56/26 940/60/27
f 940/60/27 938/56/26 931/52/26
f 940/60/27 931/52/26 929/50/27
f 941/61/28 939/59/27 940/60/27
f 941/61/28 940/60/27 942/62/28
f 942/62/28 940/60/27 929/50/27
f 942/62/28 929/50/27 927/48/28
f 943/63/29 941/61/28 942/62/28
f 943/63/29 942/62/28 944/64/29
f 944/64/29 942/62/28 927/48/28
f 944/64/29 927/48/28 925/46/29
f 945/65/30 943/63/29 944/64/29
f 945/65/30 944/64/29 946/66/30
f 946/66/30 944/64/29 925/46/29
f 946/66/30 925/46/29 923/44/30
f 947/67/31 945/65/30 946/66/30
f 947/67/31 946/66/30 948/68/31
f 948/68/31 946/66/30 923/44/30
f 948/68/31 923/44/30 921/42/31
f 949/69/32 947/67/31 948/68/31
f 949/69/32 948/68/31 950/70/32
f 950/70/32 948/68/31 921/42/31
f 950/70/32 921/42/31 919/40/32
f 951/71/33 949/69/32 950/70/32
f 951/71/33 950/70/32 952/72/33
f 952/72/33 950/70/32 919/40/32
f 952/72/33 919/40/32 917/38/33
f 953/73/34 951/71/33 952/72/33
f 953/73/34 952/72/33 954/74/34
f 954/74/34 952/72/33 917/38/33
f 954/74/34 917/38/33 915/36/34
f 955/75/35 953/73/34 954/74/34
f 955/75/35 954/74/34 956/76/35
f 956/76/35 954/74/34 915/36/34
f 956/76/35 915/36/34 913/34/35
f 957/77/36 955/75/35 956/76/35
f 957/77/36 956/76/35 958/78/36
f 958/78/36 956/76/35 913/34/35
f 958/78/36 913/34/35 911/32/36
f 959/79/1 957/77/36 958/78/36
f 959/79/1 958/78/36 960/80/1
f 960/80/1 958/78/36 911/32/36
f 960/80/1 911/32/36 909/30/1
f 961/81/37 959/79/1 960/80/1
f 961/81/37 960/80/1 962/82/37
f 962/82/37 960/80/1 909/30/1
f 962/82/37 909/30/1 907/28/37
f 963/83/38 961/81/37 962/82/37
f 963/83/38 962/82/37 964/84/38
f 964/84/38 962/82/37 907/28/37
f 964/84/38 907/28/37 905/26/38
f 965/85/39 963/83/38 964/84/38
f 965/85/39 964/84/38 966/86/39
f 966/86/39 964/84/38 905/26/38
f 966/86/39 905/26/38 903/24/39
f 967/87/40 965/85/39 966/86/39
f 967/87/40 966/86/39 968/88/40
f 968/88/40 966/86/39 903/24/39
f 968/88/40 903/24/39 901/22/40
f 969/89/41 967/87/40 968/88/40
f 969/89/41 968/88/40 970/90/41
f 970/90/41 968/88/40 901/22/40
f 970/90/41 901/22/40 899/20/41
f 971/91/42 969/89/41 970/90/41
f 971/91/42 970/90/41 972/92/42
f 972/92/42 970/90/41 899/20/41
f 972/92/42 899/20/41 897/18/42
f 973/93/43 971/91/42 972/92/42
f 973/93/43 972/92/42 974/94/43
f 974/94/43 972/92/42 897/18/42
f 974/94/43 897/18/42 895/16/43
f 975/95/44 973/93/43 974/94/43
f 975/95/44 974/94/43 976/96/44
f 976/96/44 974/94/43 895/16/43
f 976/96/44 895/16/43 893/14/44
f 977/97/45 975/95/44 976/96/44
f 977/97/45 976/96/44 978/98/45
f 978/98/45 976/96/44 893/14/44
f 978/98/45 893/14/44 891/12/45
f 979/99/46 977/97/45 978/98/45
f 979/99/46 978/98/45 980/100/46
f 980/100/46 978/98/45 891/12/45
f 980/100/46 891/12/45 889/10/46
f 981/101/47 979/99/46 980/100/46
f 981/101/47 980/100/46 982/102/47
f 982/102/47 980/100/46 889/10/46
f 982/102/47 889/10/46 886/8/47
f 983/103/2 981/101/47 982/102/47
f 983/103/2 982/102/47 984/104/2
f 984/104/2 982/102/47 886/8/47
f 984/104/2 886/8/47 885/5/2
s 0
f 985/105/42 986/105/42 987/106/42
f 985/105/42 987/106/42 988/106/42
f 989/106/2 990/106/2 991/107/2
f 989/106/2 991/107/2 992/107/2
f 993/107/31 994/107/31 995/107/31
f 993/107/31 995/107/31 996/107/31
f 997/107/1 998/107/1 999/105/1
f 997/107/1 999/105/1 1000/105/1
f 1001/106/10 1002/107/10 1003/107/10
f 1001/106/10 1003/107/10 1004/105/10
f 1005/107/4 1006/106/4 1007/105/4
f 1005/107/4 1007/105/4 1008/107/4
f 1009/105/31 1010/106/31 1011/106/31
f 1009/105/31 1011/106/31 1012/105/31
f 1013/106/2 1014/107/2 1015/107/2
f 1013/106/2 1015/107/2 1016/106/2
f 1017/107/42 1018/107/42 1019/107/42
f 1017/107/42 1019/107/42 1020/107/42
f 1021/107/1 1022/105/1 1023/105/1
f 1021/107/1 1023/105/1 1024/107/1
f 1025/106/10 1026/105/10 1027/107/10
f 1025/106/10 1027/107/10 1028/107/10
f 1029/107/4 1030/107/4 1031/105/4
f 1029/107/4 1031/105/4 1032/106/4
f 1035/108/4 1033/109/4 1034/110/4
f 1033/109/4 1035/108/4 1036/111/4
f 1033/109/4 1036/111/4 1056/112/4
f 1056/112/4 1036/111/4 1055/113/4
f 1055/113/4 1036/111/4 1037/114/4
f 1055/113/4 1037/114/4 1054/115/4
f 1054/115/4 1037/114/4 1038/116/4
f 1054/115/4 1038/116/4 1053/117/4
f 1053/117/4 1038/116/4 1039/118/4
f 1053/117/4 1039/118/4 1052/119/4
f 1052/119/4 1039/118/4 1040/120/4
f 1052/119/4 1040/120/4 1051/121/4
f 1051/121/4 1040/120/4 1041/122/4
f 1051/121/4 1041/122/4 1050/123/4
f 1050/123/4 1041/122/4 1042/124/4
f 1050/123/4 1042/124/4 1049/125/4
f 1049/125/4 1042/124/4 1043/126/4
f 1049/125/4 1043/126/4 1048/127/4
f 1048/127/4 1043/126/4 1044/128/4
f 1048/127/4 1044/128/4 1047/129/4
f 1047/129/4 1044/128/4 1045/130/4
f 1047/129/4 1045/130/4 1046/131/4
f 1058/132/10 1080/133/10 1057/134/10
f 1080/133/10 1058/132/10 1059/135/10
f 1080/133/10 1059/135/10 1079/136/10
f 1079/136/10 1059/135/10 1060/137/10
f 1079/136/10 1060/137/10 1078/138/10
f 1078/138/10 1060/137/10 1061/139/10
f 1078/138/10 1061/139/10 1077/140/10
f 1077/140/10 1061/139/10 1062/141/10
f 1077/140/10 1062/141/10 1076/142/10
f 1076/142/10 1062/141/10 1063/143/10
f 1076/142/10 1063/143/10 1075/144/10
f 1075/144/10 1063/143/10 1064/145/10
f 1075/144/10 1064/145/10 1074/146/10
f 1074/146/10 1064/145/10 1065/147/10
f 1074/146/10 1065/147/10 1073/148/10
f 1073/148/10 1065/147/10 1066/149/10
f 1073/148/10 1066/149/10 1072/150/10
f 1072/150/10 1066/149/10 1067/151/10
f 1072/150/10 1067/151/10 1071/152/10
f 1071/152/10 1067/151/10 1068/153/10
f 1071/152/10 1068/153/10 1070/154/10
f 1070/154/10 1068/153/10 1069/155/10
f 1081/109/4 1103/108/4 1104/110/4
f 1103/108/4 1081/109/4 1082/112/4
f 1103/108/4 1082/112/4 1102/111/4
f 1102/111/4 1082/112/4 1101/114/4
f 1101/114/4 1082/112/4 1083/113/4
f 1101/114/4 1083/113/4 1100/116/4
f 1100/116/4 1083/113/4 1084/115/4
f 1100/116/4 1084/115/4 1099/118/4
f 1099/118/4 1084/115/4 1085/117/4
f 1099/118/4 1085/117/4 1098/120/4
f 1098/120/4 1085/117/4 1086/119/4
f 1098/120/4 1086/119/4 1097/122/4
f 1097/122/4 1086/119/4 1087/121/4
f 1097/122/4 1087/121/4 1096/124/4
f 1096/124/4 1087/121/4 1088/123/4
f 1096/124/4 1088/123/4 1095/126/4
f 1095/126/4 1088/123/4 1089/125/4
f 1095/126/4 1089/125/4 1094/128/4
f 1094/128/4 1089/125/4 1090/127/4
f 1094/128/4 1090/127/4 1093/130/4
f 1093/130/4 1090/127/4 1091/129/4
f 1093/130/4 1091/129/4 1092/131/4
f 1106/133/10 1128/132/10 1105/134/10
f 1128/132/10 1106/133/10 1107/136/10
f 1128/132/10 1107/136/10 1127/135/10
f 1127/135/10 1107/136/10 1108/138/10
f 1127/135/10 1108/138/10 1126/137/10
f 1126/137/10 1108/138/10 1109/140/10
f 1126/137/10 1109/140/10 1125/139/10
f 1125/139/10 1109/140/10 1110/142/10
f 1125/139/10 1110/142/10 1124/141/10
f 1124/141/10 1110/142/10 1111/144/10
f 1124/141/10 1111/144/10 1123/143/10
f 1123/143/10 1111/144/10 1112/146/10
f 1123/143/10 1112/146/10 1122/145/10
f 1122/145/10 1112/146/10 1113/148/10
f 1122/145/10 1113/148/10 1121/147/10
f 1121/147/10 1113/148/10 1114/150/10
f 1121/147/10 1114/150/10 1120/149/10
f 1120/149/10 1114/150/10 1115/152/10
f 1120/149/10 1115/152/10 1119/151/10
f 1119/151/10 1115/152/10 1116/154/10
f 1119/151/10 1116/154/10 1118/153/10
f 1118/153/10 1116/154/10 1117/155/10
