# Blender 5.2.0 LTS
# www.blender.org
mtllib 17_4_Model_AIRPORT_0.mtl
o 17.4.Model_AIRPORT_0
v 0.020971 0.786751 0.353730
v -0.031417 0.875853 0.353730
v -0.200172 0.875853 0.353730
v -0.200172 0.875852 -0.353731
v -0.031417 0.875852 -0.353731
v 0.020971 0.786750 -0.353731
v 0.066650 0.697648 0.293585
v 0.105621 0.608546 0.293585
v -0.130993 0.713077 0.246598
v 0.198385 0.158213 -0.293585
v 0.196635 0.146975 -0.353730
v 0.194422 0.252138 -0.353731
v 0.199892 -0.007754 0.353730
v 0.196635 0.146975 0.353730
v 0.194422 0.252138 0.353730
v 0.182284 0.341240 0.293585
v 0.182284 0.341240 0.353730
v 0.182284 0.341240 -0.353731
v 0.194422 0.252138 -0.353731
v 0.163438 0.430342 -0.353731
v 0.137883 0.519444 -0.353731
v 0.105621 0.608546 -0.353731
v 0.066650 0.697648 -0.353731
v 0.194422 0.252138 0.353730
v 0.182284 0.341240 0.353730
v 0.163438 0.430342 0.353730
v 0.137883 0.519444 0.353730
v 0.105621 0.608546 0.353730
v 0.066650 0.697648 0.353730
v 0.012839 0.800580 0.293585
v 0.020971 0.786751 0.293585
v 0.020971 0.786751 -0.293585
v 0.012839 0.800580 -0.293585
v -0.130993 0.713077 -0.248796
v 0.105621 0.608546 -0.293585
v 0.066650 0.697648 -0.293585
v 0.182426 0.340196 -0.293585
v 0.163438 0.430342 -0.293585
v -0.022261 0.382051 -0.252059
v 0.196635 0.146975 -0.353730
v 0.199892 -0.007754 -0.353730
v 0.198385 0.158213 0.293585
v 0.196635 0.146975 0.353730
v 0.182426 0.340196 -0.293585
v 0.182284 0.341240 -0.353731
v 0.194422 0.252138 0.293585
v 0.194422 0.252138 -0.293585
v 0.193869 0.140112 0.179920
v 0.192862 0.176170 0.179920
v 0.193623 0.158148 0.293585
v 0.192862 0.176170 -0.179920
v 0.193869 0.140112 -0.179920
v 0.193623 0.158148 -0.293585
v 0.190419 0.149041 0.150625
v 0.190305 0.153104 0.151441
v 0.190671 0.140022 0.179920
v 0.190305 0.153104 -0.151442
v 0.190001 0.164004 -0.151442
v 0.164422 0.157887 -0.151442
v 0.163438 0.430342 0.293585
v 0.182284 0.341240 0.293585
v -0.021330 0.385531 0.252433
v -0.071426 0.449489 -0.021700
v -0.067471 0.436637 0.013926
v -0.067471 0.436637 -0.057326
v -0.054510 0.394519 0.013926
v -0.050556 0.381667 -0.021700
v -0.054510 0.394519 -0.057326
v 0.190447 0.148035 0.148653
v 0.189888 0.168065 0.150625
v 0.189664 0.176080 0.179920
v 0.190001 0.164004 0.151441
v 0.190001 0.164004 0.151441
v 0.190305 0.153104 0.151441
v 0.164422 0.157887 0.151441
v 0.189860 0.169069 0.148653
v -0.016920 0.844280 -0.001971
v -0.017453 0.845261 -0.003642
v -0.018716 0.848707 -0.000000
v -0.017453 0.845261 0.003642
v -0.016920 0.844280 0.001971
v -0.018716 0.848707 -0.000000
v -0.019192 0.848462 0.005151
v -0.018251 0.846730 0.004758
v -0.020133 0.850195 -0.004759
v -0.020931 0.851664 -0.003642
v -0.018251 0.846730 -0.004759
v -0.021651 0.852990 -0.000000
v -0.021464 0.852645 0.001971
v -0.019192 0.848462 -0.005151
v -0.020931 0.851664 0.003642
v -0.021464 0.852645 -0.001971
v -0.016733 0.843935 -0.000000
v -0.016733 0.843935 -0.000000
v -0.020133 0.850195 0.004758
v -0.050556 0.381667 -0.190439
v -0.052015 0.386410 -0.206233
v -0.054510 0.394519 -0.208581
v -0.056003 0.399370 -0.217795
v -0.061451 0.417072 -0.222027
v -0.061447 0.417062 0.222027
v -0.056002 0.399364 0.217795
v -0.054510 0.394519 0.208581
v -0.052015 0.386409 0.206233
v -0.050556 0.381667 0.190439
v -0.067332 0.441404 -0.228573
v -0.068084 0.438629 -0.215084
v -0.068084 0.438628 0.215083
v -0.067329 0.441406 0.228560
v 0.181788 -0.794175 0.353731
v -0.200172 -0.794175 0.353731
v -0.200172 -0.875852 0.353731
v 0.181788 -0.875852 0.353731
v -0.200172 0.875852 -0.353731
v -0.200172 0.875853 0.353730
v -0.031417 0.875853 0.353730
v -0.031417 0.875852 -0.353731
v 0.199873 0.049075 0.293585
v 0.199892 -0.007754 0.353730
v -0.054614 0.404890 0.234647
v -0.065961 0.441836 0.234648
v -0.055496 0.435442 0.245244
v -0.042976 0.394468 0.245239
v 0.186304 0.311733 -0.263032
v 0.186304 0.311733 0.263032
v -0.137875 0.710799 -0.245790
v -0.055520 0.435427 -0.245345
v -0.042883 0.431991 -0.251177
v -0.065967 0.441832 -0.234675
v -0.054617 0.404887 -0.234660
v -0.042982 0.394445 -0.245286
v -0.031417 0.875852 -0.353731
v 0.012839 0.800580 -0.293585
v 0.020971 0.786751 -0.293585
v 0.020971 0.786750 -0.353731
v 0.186304 0.311733 0.263032
v 0.186304 0.311733 -0.263032
v -0.019104 0.353832 -0.220292
v -0.019104 0.353832 0.220291
v 0.163438 0.430342 0.293585
v 0.163438 0.430342 0.353730
v 0.137883 0.519444 0.293585
v 0.137883 0.519444 0.353730
v 0.105621 0.608546 0.293585
v 0.105621 0.608546 0.353730
v 0.066650 0.697648 0.293585
v 0.066650 0.697648 0.353730
v 0.020971 0.786751 0.293585
v 0.020971 0.786751 0.353730
v 0.066650 0.697648 -0.293585
v 0.066650 0.697648 -0.353731
v 0.105621 0.608546 -0.293585
v 0.105621 0.608546 -0.353731
v 0.137883 0.519444 -0.293585
v 0.163438 0.430342 -0.293585
v 0.163438 0.430342 -0.353731
v 0.137883 0.519444 -0.353731
v 0.137883 0.519444 0.293585
v -0.042835 0.432021 0.250976
v 0.012839 0.800580 0.293585
v -0.031417 0.875853 0.353730
v -0.143428 0.699939 -0.234794
v -0.136486 0.746803 -0.219999
v -0.136257 0.746946 0.219188
v -0.146691 0.740762 0.213016
v -0.146804 0.740691 -0.213229
v -0.137728 0.710785 0.245282
v -0.152476 0.730099 -0.201623
v -0.152445 0.730118 0.201843
v -0.151980 0.717866 0.188974
v -0.151980 0.717866 -0.188607
v -0.083761 0.490583 0.222027
v -0.142839 0.687410 0.222027
v -0.143363 0.699851 0.234658
v -0.064103 0.412237 0.188824
v -0.064103 0.412237 0.033683
v -0.071983 0.410593 0.033683
v -0.071983 0.410593 0.188824
v -0.200172 -0.794175 0.353731
v -0.200172 0.875853 0.353730
v -0.200172 0.875852 -0.353731
v -0.200172 -0.794175 -0.353730
v 0.200172 -0.794175 -0.353730
v 0.199892 -0.007754 -0.353730
v 0.200172 -0.794175 0.353731
v 0.194422 0.252138 0.293585
v 0.198385 0.158213 0.293585
v 0.193623 0.158148 0.293585
v 0.189659 0.252073 0.293585
v 0.199873 0.049075 -0.293585
v 0.199873 0.049075 0.293585
v 0.199873 0.049075 -0.293585
v 0.195110 0.049010 -0.293585
v 0.195110 0.049010 0.293585
v 0.194934 0.061980 -0.179920
v 0.195110 0.049010 -0.293585
v 0.190206 0.239114 0.179920
v 0.189659 0.252073 0.293585
v 0.199873 0.049075 -0.293585
v 0.198385 0.158213 -0.293585
v 0.193623 0.158148 -0.293585
v 0.195110 0.049010 -0.293585
v 0.194422 0.252138 -0.293585
v 0.194422 0.252138 0.293585
v 0.189659 0.252073 0.293585
v 0.189659 0.252073 -0.293585
v 0.199873 0.049075 0.293585
v 0.195110 0.049010 0.293585
v 0.194422 0.252138 -0.293585
v 0.189659 0.252073 -0.293585
v 0.192862 0.176170 0.179920
v 0.192862 0.176170 -0.179920
v 0.190206 0.239114 -0.179920
v 0.190206 0.239114 0.179920
v 0.194934 0.061980 0.179920
v 0.195110 0.049010 0.293585
v 0.190206 0.239114 -0.179920
v 0.192862 0.176170 -0.179920
v 0.193623 0.158148 -0.293585
v 0.189659 0.252073 -0.293585
v 0.190206 0.239114 -0.179920
v 0.189659 0.252073 -0.293585
v 0.189860 0.169069 -0.148653
v 0.189860 0.169069 0.148653
v 0.164133 0.161359 0.148653
v 0.164133 0.161359 -0.148653
v 0.189664 0.176080 -0.179920
v 0.189860 0.169069 -0.148653
v 0.192862 0.176170 -0.179920
v 0.192862 0.176170 0.179920
v 0.189664 0.176080 0.179920
v 0.189664 0.176080 -0.179920
v 0.194934 0.061980 -0.179920
v 0.193869 0.140112 -0.179920
v 0.193869 0.140112 0.179920
v 0.194934 0.061980 0.179920
v 0.193869 0.140112 -0.179920
v 0.192862 0.176170 -0.179920
v 0.189664 0.176080 -0.179920
v 0.190661 0.140035 -0.179920
v 0.190447 0.148035 0.148653
v 0.190447 0.148035 -0.148653
v 0.164720 0.154309 -0.148653
v 0.164720 0.154309 0.148653
v 0.193869 0.140112 0.179920
v 0.193869 0.140112 -0.179920
v 0.190661 0.140035 -0.179920
v 0.190671 0.140022 0.179920
v 0.190661 0.140035 -0.179920
v 0.190447 0.148035 -0.148653
v 0.192862 0.176170 0.179920
v 0.193869 0.140112 0.179920
v 0.190671 0.140022 0.179920
v 0.189664 0.176080 0.179920
v -0.200172 -0.875852 0.353731
v -0.200172 -0.875853 -0.353730
v 0.181788 -0.875853 -0.353730
v 0.181788 -0.875852 0.353731
v 0.200172 -0.794175 -0.353730
v 0.200172 -0.794175 0.353731
v 0.181788 -0.794175 0.353731
v 0.181788 -0.794175 -0.353730
v -0.200172 -0.794175 0.353731
v -0.200172 -0.794175 -0.353730
v -0.200172 -0.875853 -0.353730
v -0.200172 -0.875852 0.353731
v 0.181788 -0.794175 -0.353730
v 0.181788 -0.794175 0.353731
v 0.181788 -0.875852 0.353731
v 0.181788 -0.875853 -0.353730
v -0.200172 -0.794175 -0.353730
v 0.181788 -0.794175 -0.353730
v 0.181788 -0.875853 -0.353730
v -0.200172 -0.875853 -0.353730
v 0.137883 0.519444 -0.293585
v -0.032258 0.359393 -0.214256
v -0.032258 0.359394 0.214256
v -0.067471 0.436637 0.208581
v -0.071426 0.449489 0.179121
v -0.043771 0.369582 -0.203264
v -0.043771 0.369582 0.203263
v -0.067471 0.436637 -0.057326
v -0.054510 0.394519 -0.057326
v -0.058292 0.393355 -0.057326
v -0.071253 0.435473 -0.057326
v -0.142875 0.687531 -0.222027
v -0.083761 0.490583 -0.222027
v -0.067471 0.436637 -0.208581
v -0.071426 0.449489 -0.179122
v -0.054510 0.394519 0.208581
v -0.054510 0.394519 0.013926
v -0.058292 0.393355 0.013926
v -0.058292 0.393355 0.208581
v -0.065442 0.416591 -0.077083
v -0.064103 0.412237 -0.077083
v -0.071983 0.410593 -0.077083
v -0.073322 0.413385 -0.077083
v -0.054510 0.394519 -0.057326
v -0.054510 0.394519 -0.208581
v -0.058292 0.393355 -0.208581
v -0.058292 0.393355 -0.057326
v -0.054510 0.394519 0.013926
v -0.067471 0.436637 0.013926
v -0.071253 0.435473 0.013926
v -0.058292 0.393355 0.013926
v -0.067471 0.436637 -0.208581
v -0.067471 0.436637 -0.057326
v -0.071253 0.435473 -0.057326
v -0.071253 0.435473 -0.208581
v -0.067471 0.436637 0.013926
v -0.067471 0.436637 0.208581
v -0.071253 0.435473 0.208581
v -0.071253 0.435473 0.013926
v -0.067471 0.436637 0.208581
v -0.054510 0.394519 0.208581
v -0.058292 0.393355 0.208581
v -0.071253 0.435473 0.208581
v -0.054510 0.394519 -0.208581
v -0.067471 0.436637 -0.208581
v -0.071253 0.435473 -0.208581
v -0.058292 0.393355 -0.208581
v -0.064103 0.412237 0.188824
v -0.065442 0.416591 0.188824
v -0.071253 0.435473 0.208581
v -0.058292 0.393355 0.208581
v -0.065442 0.416591 -0.077083
v -0.065442 0.416591 -0.188825
v -0.071253 0.435473 -0.208581
v -0.071253 0.435473 -0.057326
v -0.064103 0.412237 0.033683
v -0.058292 0.393355 0.013926
v -0.065442 0.416591 0.033683
v -0.071253 0.435473 0.013926
v -0.064103 0.412237 -0.077083
v -0.058292 0.393355 -0.057326
v -0.064103 0.412237 -0.188825
v -0.058292 0.393355 -0.208581
v -0.071983 0.410593 -0.188825
v -0.073322 0.413385 -0.188825
v -0.073322 0.413385 -0.077083
v -0.071983 0.410593 -0.077083
v -0.071983 0.410593 0.033683
v -0.073322 0.413385 0.033683
v -0.073322 0.413386 0.188824
v -0.071983 0.410593 0.188824
v -0.065442 0.416591 0.188824
v -0.064103 0.412237 0.188824
v -0.071983 0.410593 0.188824
v -0.073322 0.413386 0.188824
v -0.064103 0.412237 0.033683
v -0.065442 0.416591 0.033683
v -0.073322 0.413385 0.033683
v -0.071983 0.410593 0.033683
v -0.064103 0.412237 -0.188825
v -0.065442 0.416591 -0.188825
v -0.073322 0.413385 -0.188825
v -0.071983 0.410593 -0.188825
v -0.065442 0.416591 0.033683
v -0.065442 0.416591 0.188824
v -0.073322 0.413386 0.188824
v -0.073322 0.413385 0.033683
v -0.065442 0.416591 -0.188825
v -0.065442 0.416591 -0.077083
v -0.073322 0.413385 -0.077083
v -0.073322 0.413385 -0.188825
v -0.064103 0.412237 -0.077083
v -0.064103 0.412237 -0.188825
v -0.071983 0.410593 -0.188825
v -0.071983 0.410593 -0.077083
v 0.189888 0.168065 -0.150625
v 0.190001 0.164004 -0.151442
v 0.190305 0.153104 -0.151442
v 0.190419 0.149041 -0.150625
v 0.164215 0.160371 -0.150625
v 0.189888 0.168065 -0.150625
v 0.189888 0.168065 -0.150625
v 0.164215 0.160371 -0.150625
v 0.190419 0.149041 -0.150625
v 0.164635 0.155328 -0.150625
v 0.164635 0.155328 -0.150625
v 0.190419 0.149041 -0.150625
v 0.190419 0.149041 0.150625
v 0.164635 0.155329 0.150625
v 0.164635 0.155329 0.150625
v 0.190419 0.149041 0.150625
v 0.189888 0.168065 0.150625
v 0.164215 0.160371 0.150625
v 0.164215 0.160371 0.150625
v 0.189888 0.168065 0.150625
v -0.005626 0.831986 -0.008607
v -0.015805 0.831032 -0.007037
v -0.015137 0.829801 -0.000000
v -0.004756 0.830508 -0.000000
v -0.008101 0.836196 -0.015904
v -0.017708 0.834536 -0.013003
v -0.011805 0.842496 -0.020779
v -0.020556 0.839780 -0.016990
v -0.016175 0.849928 -0.022491
v -0.023916 0.845966 -0.018389
v -0.020545 0.857360 -0.020779
v -0.027276 0.852152 -0.016990
v -0.024249 0.863661 -0.015904
v -0.030124 0.857396 -0.013003
v -0.026724 0.867871 -0.008607
v -0.032028 0.860900 -0.007038
v -0.027594 0.869350 -0.000000
v -0.032696 0.862130 -0.000000
v -0.026724 0.867871 0.008607
v -0.032028 0.860900 0.007037
v -0.024249 0.863661 0.015903
v -0.030124 0.857396 0.013003
v -0.020545 0.857360 0.020778
v -0.027276 0.852152 0.016989
v -0.016175 0.849928 0.022490
v -0.023916 0.845966 0.018389
v -0.011805 0.842496 0.020778
v -0.020556 0.839780 0.016989
v -0.008101 0.836196 0.015903
v -0.017708 0.834536 0.013003
v -0.020556 0.839780 -0.016990
v -0.023916 0.845966 -0.018389
v -0.020757 0.847682 -0.012884
v -0.018403 0.843347 -0.011904
v -0.005626 0.831986 0.008607
v -0.015805 0.831032 0.007037
v -0.004756 0.830508 -0.000000
v -0.015137 0.829801 -0.000000
v -0.027276 0.852152 -0.016990
v -0.030124 0.857396 -0.013003
v -0.025107 0.855690 -0.009111
v -0.023111 0.852015 -0.011904
v -0.015805 0.831032 0.007037
v -0.015137 0.829801 -0.000000
v -0.014606 0.836356 -0.000000
v -0.015074 0.837218 0.004930
v -0.032696 0.862130 -0.000000
v -0.032028 0.860900 0.007037
v -0.026440 0.858145 0.004930
v -0.026908 0.859007 -0.000000
v -0.032028 0.860900 -0.007038
v -0.026440 0.858145 -0.004931
v -0.027276 0.852152 0.016989
v -0.023916 0.845966 0.018389
v -0.020757 0.847682 0.012884
v -0.023111 0.852015 0.011903
v -0.017708 0.834536 0.013003
v -0.016408 0.839673 0.009110
v -0.030124 0.857396 0.013003
v -0.025107 0.855690 0.009110
v -0.015137 0.829801 -0.000000
v -0.015805 0.831032 -0.007037
v -0.015074 0.837218 -0.004931
v -0.014606 0.836356 -0.000000
v -0.020556 0.839780 0.016989
v -0.018403 0.843347 0.011903
v -0.017708 0.834536 -0.013003
v -0.016408 0.839673 -0.009111
v -0.142206 0.725775 0.240961
v -0.136224 0.731324 0.244559
v -0.136224 0.731324 0.244559
v -0.142206 0.725775 0.240961
v -0.145487 0.736748 0.229150
v -0.136244 0.742763 0.234526
v -0.147953 0.715019 -0.230355
v -0.147428 0.702698 -0.217550
v -0.151264 0.726057 -0.218213
v -0.150761 0.713802 -0.205317
v -0.019402 0.358079 0.235822
v 0.185784 0.315547 0.278309
v -0.020217 0.369682 0.247587
v 0.184365 0.325965 0.289492
v -0.142343 0.725743 -0.241445
v -0.145611 0.736684 -0.229527
v -0.151228 0.726063 0.218251
v -0.150756 0.713785 0.205501
v -0.147903 0.714985 0.230262
v -0.147410 0.702638 0.217599
v -0.136037 0.742376 -0.235630
v -0.134793 0.730291 -0.246171
v -0.033694 0.364093 0.229746
v -0.037617 0.376931 0.241086
v -0.037620 0.376919 -0.241110
v -0.020682 0.367941 -0.247400
v -0.033695 0.364089 -0.229752
v -0.019527 0.357612 -0.235772
v -0.000933 0.824004 -0.261571
v 0.000912 0.820866 -0.277578
v 0.005953 0.812292 -0.289296
v 0.005953 0.812292 -0.289296
v 0.005953 0.812293 0.289334
v 0.005953 0.812293 0.289334
v 0.000912 0.820866 0.277723
v -0.000933 0.824005 0.261860
v -0.049192 0.387236 0.230442
v -0.045223 0.374312 0.218955
v -0.045224 0.374312 -0.218957
v -0.049194 0.387235 -0.230449
v 0.184365 0.325964 -0.289492
v 0.185784 0.315546 -0.278309
v -0.077706 0.470413 -0.215661
v -0.073256 0.455586 -0.200181
v -0.073256 0.455586 0.200181
v -0.077706 0.470413 0.215661
v 0.146884 0.322677 0.007152
v 0.151218 0.318862 0.011497
v 0.151218 0.318862 -0.197675
v 0.146884 0.322677 -0.193330
v 0.140088 0.324070 -0.199584
v 0.144422 0.320255 -0.203929
v 0.007981 0.348225 -0.203929
v 0.013466 0.350028 -0.199584
v 0.006670 0.351421 -0.193330
v 0.001185 0.349618 -0.197675
v 0.001185 0.349619 0.011497
v 0.006670 0.351421 0.007152
v 0.140088 0.324070 -0.199584
v 0.143486 0.323374 -0.198746
v 0.147820 0.319558 -0.203091
v 0.144422 0.320255 -0.203929
v 0.143486 0.323374 -0.198746
v 0.145973 0.322864 -0.196457
v 0.150307 0.319048 -0.200802
v 0.147820 0.319558 -0.203091
v 0.145973 0.322864 -0.196457
v 0.146884 0.322677 -0.193330
v 0.151218 0.318862 -0.197675
v 0.150307 0.319048 -0.200802
v 0.144422 0.320255 0.017751
v 0.147820 0.319559 0.016913
v 0.143486 0.323374 0.012568
v 0.140088 0.324070 0.013406
v 0.147820 0.319559 0.016913
v 0.150307 0.319049 0.014624
v 0.145973 0.322864 0.010279
v 0.143486 0.323374 0.012568
v 0.150307 0.319049 0.014624
v 0.151218 0.318862 0.011497
v 0.146884 0.322677 0.007152
v 0.145973 0.322864 0.010279
v 0.006670 0.351421 -0.193330
v 0.007581 0.351234 -0.196457
v 0.002095 0.349432 -0.200802
v 0.001185 0.349618 -0.197675
v 0.007581 0.351234 -0.196457
v 0.010068 0.350724 -0.198746
v 0.004583 0.348922 -0.203091
v 0.002095 0.349432 -0.200802
v 0.010068 0.350724 -0.198746
v 0.013466 0.350028 -0.199584
v 0.007981 0.348225 -0.203929
v 0.004583 0.348922 -0.203091
v 0.001185 0.349619 0.011497
v 0.002095 0.349432 0.014624
v 0.007581 0.351234 0.010279
v 0.006670 0.351421 0.007152
v 0.002095 0.349432 0.014624
v 0.004583 0.348922 0.016913
v 0.010068 0.350724 0.012568
v 0.007581 0.351234 0.010279
v 0.004583 0.348922 0.016913
v 0.007981 0.348225 0.017751
v 0.013466 0.350028 0.013406
v 0.010068 0.350724 0.012568
v 0.013466 0.350028 0.013406
v 0.007981 0.348225 0.017751
v 0.144422 0.320255 0.017751
v 0.140088 0.324070 0.013406
v 0.045552 0.345932 -0.009809
v 0.026532 0.349831 -0.009809
v 0.025065 0.347650 -0.008912
v 0.046043 0.343349 -0.008912
v 0.046043 0.343349 -0.040381
v 0.025065 0.347650 -0.040381
v 0.026532 0.349831 -0.039485
v 0.045552 0.345932 -0.039485
v 0.045552 0.345932 -0.039485
v 0.026532 0.349831 -0.039485
v 0.026532 0.349831 -0.009809
v 0.045552 0.345932 -0.009809
v 0.046043 0.343349 -0.008912
v 0.046043 0.343349 -0.040381
v 0.045552 0.345932 -0.039485
v 0.045552 0.345932 -0.009809
v 0.025065 0.347650 -0.040381
v 0.025065 0.347650 -0.008912
v 0.026532 0.349831 -0.009809
v 0.026532 0.349831 -0.039485
v 0.073034 0.340298 -0.009809
v 0.054014 0.344197 -0.009809
v 0.052547 0.342016 -0.008912
v 0.073525 0.337716 -0.008912
v 0.073525 0.337716 -0.040381
v 0.052547 0.342016 -0.040381
v 0.054014 0.344197 -0.039485
v 0.073034 0.340298 -0.039485
v 0.073034 0.340298 -0.039485
v 0.054014 0.344197 -0.039485
v 0.054014 0.344197 -0.009809
v 0.073034 0.340298 -0.009809
v 0.073525 0.337716 -0.008912
v 0.073525 0.337716 -0.040381
v 0.073034 0.340298 -0.039485
v 0.073034 0.340298 -0.009809
v 0.052547 0.342016 -0.040381
v 0.052547 0.342016 -0.008912
v 0.054014 0.344197 -0.009809
v 0.054014 0.344197 -0.039485
v 0.100516 0.334665 -0.009809
v 0.081497 0.338564 -0.009809
v 0.080029 0.336382 -0.008912
v 0.101007 0.332082 -0.008912
v 0.101007 0.332082 -0.040381
v 0.080029 0.336382 -0.040381
v 0.081497 0.338564 -0.039485
v 0.100516 0.334665 -0.039485
v 0.100516 0.334665 -0.039485
v 0.081497 0.338564 -0.039485
v 0.081497 0.338564 -0.009809
v 0.100516 0.334665 -0.009809
v 0.101007 0.332082 -0.008912
v 0.101007 0.332082 -0.040381
v 0.100516 0.334665 -0.039485
v 0.100516 0.334665 -0.009809
v 0.080029 0.336382 -0.040381
v 0.080029 0.336382 -0.008912
v 0.081497 0.338564 -0.009809
v 0.081497 0.338564 -0.039485
v 0.127998 0.329031 -0.009809
v 0.108979 0.332930 -0.009809
v 0.107511 0.330749 -0.008912
v 0.128489 0.326448 -0.008912
v 0.128489 0.326448 -0.040381
v 0.107511 0.330749 -0.040381
v 0.108979 0.332930 -0.039485
v 0.127998 0.329031 -0.039485
v 0.127998 0.329031 -0.039485
v 0.108979 0.332930 -0.039485
v 0.108979 0.332930 -0.009809
v 0.127998 0.329031 -0.009809
v 0.128489 0.326448 -0.008912
v 0.128489 0.326448 -0.040381
v 0.127998 0.329031 -0.039485
v 0.127998 0.329031 -0.009809
v 0.107511 0.330749 -0.040381
v 0.107511 0.330749 -0.008912
v 0.108979 0.332930 -0.009809
v 0.108979 0.332930 -0.039485
v 0.045552 0.345932 -0.050404
v 0.026532 0.349831 -0.050404
v 0.025065 0.347650 -0.049507
v 0.046043 0.343349 -0.049507
v 0.046043 0.343349 -0.080976
v 0.025065 0.347650 -0.080976
v 0.026532 0.349831 -0.080080
v 0.045552 0.345932 -0.080080
v 0.045552 0.345932 -0.080080
v 0.026532 0.349831 -0.080080
v 0.026532 0.349831 -0.050404
v 0.045552 0.345932 -0.050404
v 0.046043 0.343349 -0.049507
v 0.046043 0.343349 -0.080976
v 0.045552 0.345932 -0.080080
v 0.045552 0.345932 -0.050404
v 0.025065 0.347650 -0.080976
v 0.025065 0.347650 -0.049507
v 0.026532 0.349831 -0.050404
v 0.026532 0.349831 -0.080080
v 0.073034 0.340298 -0.050404
v 0.054014 0.344197 -0.050404
v 0.052547 0.342016 -0.049507
v 0.073525 0.337716 -0.049507
v 0.073525 0.337716 -0.080976
v 0.052547 0.342016 -0.080976
v 0.054014 0.344197 -0.080080
v 0.073034 0.340298 -0.080080
v 0.073034 0.340298 -0.080080
v 0.054014 0.344197 -0.080080
v 0.054014 0.344197 -0.050404
v 0.073034 0.340298 -0.050404
v 0.073525 0.337716 -0.049507
v 0.073525 0.337716 -0.080976
v 0.073034 0.340298 -0.080080
v 0.073034 0.340298 -0.050404
v 0.052547 0.342016 -0.080976
v 0.052547 0.342016 -0.049507
v 0.054014 0.344197 -0.050404
v 0.054014 0.344197 -0.080080
v 0.100516 0.334665 -0.050404
v 0.081497 0.338564 -0.050404
v 0.080029 0.336382 -0.049507
v 0.101007 0.332082 -0.049507
v 0.101007 0.332082 -0.080976
v 0.080029 0.336382 -0.080976
v 0.081497 0.338564 -0.080080
v 0.100516 0.334665 -0.080080
v 0.100516 0.334665 -0.080080
v 0.081497 0.338564 -0.080080
v 0.081497 0.338564 -0.050404
v 0.100516 0.334665 -0.050404
v 0.101007 0.332082 -0.049507
v 0.101007 0.332082 -0.080976
v 0.100516 0.334665 -0.080080
v 0.100516 0.334665 -0.050404
v 0.080029 0.336382 -0.080976
v 0.080029 0.336382 -0.049507
v 0.081497 0.338564 -0.050404
v 0.081497 0.338564 -0.080080
v 0.127998 0.329031 -0.050404
v 0.108979 0.332930 -0.050404
v 0.107511 0.330749 -0.049507
v 0.128489 0.326448 -0.049507
v 0.128489 0.326448 -0.080976
v 0.107511 0.330749 -0.080976
v 0.108979 0.332930 -0.080080
v 0.127998 0.329031 -0.080080
v 0.127998 0.329031 -0.080080
v 0.108979 0.332930 -0.080080
v 0.108979 0.332930 -0.050404
v 0.127998 0.329031 -0.050404
v 0.128489 0.326448 -0.049507
v 0.128489 0.326448 -0.080976
v 0.127998 0.329031 -0.080080
v 0.127998 0.329031 -0.050404
v 0.107511 0.330749 -0.080976
v 0.107511 0.330749 -0.049507
v 0.108979 0.332930 -0.050404
v 0.108979 0.332930 -0.080080
v 0.045552 0.345932 -0.090999
v 0.026532 0.349831 -0.090999
v 0.025065 0.347650 -0.090102
v 0.046043 0.343349 -0.090102
v 0.046043 0.343349 -0.121571
v 0.025065 0.347650 -0.121571
v 0.026532 0.349831 -0.120675
v 0.045552 0.345932 -0.120675
v 0.045552 0.345932 -0.120675
v 0.026532 0.349831 -0.120675
v 0.026532 0.349831 -0.090999
v 0.045552 0.345932 -0.090999
v 0.046043 0.343349 -0.090102
v 0.046043 0.343349 -0.121571
v 0.045552 0.345932 -0.120675
v 0.045552 0.345932 -0.090999
v 0.025065 0.347650 -0.121571
v 0.025065 0.347650 -0.090102
v 0.026532 0.349831 -0.090999
v 0.026532 0.349831 -0.120675
v 0.073034 0.340298 -0.090999
v 0.054014 0.344197 -0.090999
v 0.052547 0.342016 -0.090102
v 0.073525 0.337716 -0.090102
v 0.073525 0.337716 -0.121571
v 0.052547 0.342016 -0.121571
v 0.054014 0.344197 -0.120675
v 0.073034 0.340298 -0.120675
v 0.073034 0.340298 -0.120675
v 0.054014 0.344197 -0.120675
v 0.054014 0.344197 -0.090999
v 0.073034 0.340298 -0.090999
v 0.073525 0.337716 -0.090102
v 0.073525 0.337716 -0.121571
v 0.073034 0.340298 -0.120675
v 0.073034 0.340298 -0.090999
v 0.052547 0.342016 -0.121571
v 0.052547 0.342016 -0.090102
v 0.054014 0.344197 -0.090999
v 0.054014 0.344197 -0.120675
v 0.100516 0.334665 -0.090999
v 0.081497 0.338564 -0.090999
v 0.080029 0.336382 -0.090102
v 0.101007 0.332082 -0.090102
v 0.101007 0.332082 -0.121571
v 0.080029 0.336382 -0.121571
v 0.081497 0.338564 -0.120675
v 0.100516 0.334665 -0.120675
v 0.100516 0.334665 -0.120675
v 0.081497 0.338564 -0.120675
v 0.081497 0.338564 -0.090999
v 0.100516 0.334665 -0.090999
v 0.101007 0.332082 -0.090102
v 0.101007 0.332082 -0.121571
v 0.100516 0.334665 -0.120675
v 0.100516 0.334665 -0.090999
v 0.080029 0.336382 -0.121571
v 0.080029 0.336382 -0.090102
v 0.081497 0.338564 -0.090999
v 0.081497 0.338564 -0.120675
v 0.127998 0.329031 -0.090999
v 0.108979 0.332930 -0.090999
v 0.107511 0.330749 -0.090102
v 0.128489 0.326448 -0.090102
v 0.128489 0.326448 -0.121571
v 0.107511 0.330749 -0.121571
v 0.108979 0.332930 -0.120675
v 0.127998 0.329031 -0.120675
v 0.127998 0.329031 -0.120675
v 0.108979 0.332930 -0.120675
v 0.108979 0.332930 -0.090999
v 0.127998 0.329031 -0.090999
v 0.128489 0.326448 -0.090102
v 0.128489 0.326448 -0.121571
v 0.127998 0.329031 -0.120675
v 0.127998 0.329031 -0.090999
v 0.107511 0.330749 -0.121571
v 0.107511 0.330749 -0.090102
v 0.108979 0.332930 -0.090999
v 0.108979 0.332930 -0.120675
v 0.045552 0.345932 -0.146693
v 0.026532 0.349831 -0.146693
v 0.025065 0.347650 -0.145797
v 0.046043 0.343349 -0.145797
v 0.046043 0.343349 -0.177266
v 0.025065 0.347650 -0.177266
v 0.026532 0.349831 -0.176369
v 0.045552 0.345932 -0.176369
v 0.045552 0.345932 -0.176369
v 0.026532 0.349831 -0.176369
v 0.026532 0.349831 -0.146693
v 0.045552 0.345932 -0.146693
v 0.046043 0.343349 -0.145797
v 0.046043 0.343349 -0.177266
v 0.045552 0.345932 -0.176369
v 0.045552 0.345932 -0.146693
v 0.025065 0.347650 -0.177266
v 0.025065 0.347650 -0.145797
v 0.026532 0.349831 -0.146693
v 0.026532 0.349831 -0.176369
v 0.073034 0.340298 -0.146693
v 0.054014 0.344197 -0.146693
v 0.052547 0.342016 -0.145797
v 0.073525 0.337716 -0.145797
v 0.073525 0.337715 -0.177266
v 0.052547 0.342016 -0.177266
v 0.054014 0.344197 -0.176369
v 0.073034 0.340298 -0.176369
v 0.073034 0.340298 -0.176369
v 0.054014 0.344197 -0.176369
v 0.054014 0.344197 -0.146693
v 0.073034 0.340298 -0.146693
v 0.073525 0.337716 -0.145797
v 0.073525 0.337715 -0.177266
v 0.073034 0.340298 -0.176369
v 0.073034 0.340298 -0.146693
v 0.052547 0.342016 -0.177266
v 0.052547 0.342016 -0.145797
v 0.054014 0.344197 -0.146693
v 0.054014 0.344197 -0.176369
v 0.100516 0.334665 -0.146693
v 0.081497 0.338564 -0.146693
v 0.080029 0.336382 -0.145797
v 0.101007 0.332082 -0.145797
v 0.101007 0.332082 -0.177266
v 0.080029 0.336382 -0.177266
v 0.081497 0.338564 -0.176369
v 0.100516 0.334665 -0.176369
v 0.100516 0.334665 -0.176369
v 0.081497 0.338564 -0.176369
v 0.081497 0.338564 -0.146693
v 0.100516 0.334665 -0.146693
v 0.101007 0.332082 -0.145797
v 0.101007 0.332082 -0.177266
v 0.100516 0.334665 -0.176369
v 0.100516 0.334665 -0.146693
v 0.080029 0.336382 -0.177266
v 0.080029 0.336382 -0.145797
v 0.081497 0.338564 -0.146693
v 0.081497 0.338564 -0.176369
v 0.127998 0.329031 -0.146693
v 0.108979 0.332930 -0.146693
v 0.107511 0.330749 -0.145797
v 0.128489 0.326448 -0.145797
v 0.128489 0.326448 -0.177266
v 0.107511 0.330749 -0.177266
v 0.108979 0.332930 -0.176369
v 0.127998 0.329031 -0.176369
v 0.127998 0.329031 -0.176369
v 0.108979 0.332930 -0.176369
v 0.108979 0.332930 -0.146693
v 0.127998 0.329031 -0.146693
v 0.128489 0.326448 -0.145797
v 0.128489 0.326448 -0.177266
v 0.127998 0.329031 -0.176369
v 0.127998 0.329031 -0.146693
v 0.107511 0.330749 -0.177266
v 0.107511 0.330749 -0.145797
v 0.108979 0.332930 -0.146693
v 0.108979 0.332930 -0.176369
v -0.016175 0.849928 0.022490
v -0.000933 0.824005 0.261860
v -0.000933 0.824004 -0.261571
v -0.016175 0.849928 -0.022491
v -0.011805 0.842496 -0.020779
v -0.008101 0.836196 -0.015904
v -0.005626 0.831986 -0.008607
v -0.004756 0.830508 -0.000000
v -0.005626 0.831986 0.008607
v -0.008101 0.836196 0.015903
v -0.011805 0.842496 0.020778
v -0.071426 0.449489 -0.021700
v -0.071426 0.449489 -0.179122
v -0.073256 0.455586 -0.200181
v -0.077706 0.470413 -0.215661
v -0.083761 0.490583 -0.222027
v -0.142875 0.687531 -0.222027
v -0.147428 0.702698 -0.217550
v -0.150761 0.713802 -0.205317
v -0.151980 0.717866 -0.188607
v -0.151980 0.717866 0.188974
v -0.150756 0.713785 0.205501
v -0.147410 0.702638 0.217599
v -0.142839 0.687410 0.222027
v -0.083761 0.490583 0.222027
v -0.077706 0.470413 0.215661
v -0.073256 0.455586 0.200181
v -0.071426 0.449489 0.179121
v -0.020545 0.857360 0.020778
v -0.024249 0.863661 0.015903
v -0.026724 0.867871 0.008607
v -0.027594 0.869350 -0.000000
v -0.026724 0.867871 -0.008607
v -0.024249 0.863661 -0.015904
v -0.020545 0.857360 -0.020779
v 0.181788 -0.794175 0.353731
v 0.200172 -0.794175 0.353731
v -0.200172 -0.794175 0.353731
v 0.181788 -0.794175 -0.353730
v -0.200172 -0.794175 -0.353730
v 0.200172 -0.794175 -0.353730
v 0.164133 0.161359 0.148653
v 0.164215 0.160371 0.150625
v 0.164422 0.157887 0.151441
v 0.164635 0.155329 0.150625
v 0.164720 0.154309 0.148653
v 0.164720 0.154309 -0.148653
v 0.164635 0.155328 -0.150625
v 0.164422 0.157887 -0.151442
v 0.164215 0.160371 -0.150625
v 0.164133 0.161359 -0.148653
v 0.005953 0.812293 0.289334
v 0.000912 0.820866 0.277723
v 0.000912 0.820866 -0.277578
v 0.005953 0.812292 -0.289296
v 0.185784 0.315547 0.278309
v 0.184365 0.325965 0.289492
v 0.184365 0.325964 -0.289492
v 0.185784 0.315546 -0.278309
v 0.146884 0.322677 0.007152
v 0.146884 0.322677 -0.193330
v 0.145973 0.322864 -0.196457
v 0.143486 0.323374 -0.198746
v 0.140088 0.324070 -0.199584
v 0.013466 0.350028 -0.199584
v 0.010068 0.350724 -0.198746
v 0.007581 0.351234 -0.196457
v 0.006670 0.351421 -0.193330
v 0.006670 0.351421 0.007152
v 0.007581 0.351234 0.010279
v 0.010068 0.350724 0.012568
v 0.013466 0.350028 0.013406
v 0.140088 0.324070 0.013406
v 0.143486 0.323374 0.012568
v 0.145973 0.322864 0.010279
vn -0.0000 -0.0000 1.0000
vn -0.0000 -0.0000 -1.0000
vn 0.2380 0.1101 -0.9650
vn 0.2182 0.0689 -0.9735
vn 0.3228 0.0212 -0.9462
vn 0.9995 0.0235 -0.0233
vn 0.9994 0.0193 -0.0283
vn 0.9964 0.0849 -0.0060
vn 0.9964 0.0849 0.0060
vn 0.9857 0.1683 -0.0000
vn 0.9853 0.1711 -0.0000
vn 0.2854 0.0396 -0.9576
vn 0.2353 0.1291 -0.9633
vn 0.2250 0.1234 0.9665
vn 0.2849 0.0193 0.9584
vn 0.3680 0.0209 0.9296
vn 0.2117 0.0704 0.9748
vn 0.2276 0.1053 0.9680
vn 0.2362 0.2106 0.9486
vn 0.2043 0.0522 0.9775
vn 0.3300 0.2159 0.9190
vn 0.9995 0.0235 0.0233
vn 0.9994 0.0193 0.0283
vn 0.9859 0.1676 0.0003
vn 0.9852 0.1712 0.0004
vn 0.9946 0.1041 -0.0000
vn 0.9998 0.0179 -0.0007
vn 0.9993 0.0378 -0.0007
vn 0.9996 0.0279 -0.0002
vn 0.9993 0.0379 0.0007
vn 0.9998 0.0179 0.0007
vn 0.9996 0.0279 0.0002
vn 0.9996 0.0279 -0.0000
vn 0.0295 0.1379 0.9900
vn 0.0366 -0.1359 0.9900
vn 0.0519 -0.0072 0.9986
vn 0.2047 0.0518 -0.9775
vn 0.2357 0.1974 -0.9516
vn 0.3091 0.1977 -0.9302
vn 0.9568 0.2909 -0.0000
vn 0.9558 0.2941 -0.0000
vn 0.9191 0.3941 -0.0000
vn 0.9996 0.0275 -0.0000
vn 0.0366 -0.1360 -0.9900
vn 0.0295 0.1379 -0.9900
vn 0.0519 -0.0072 -0.9986
vn 0.9410 0.3320 -0.0652
vn 0.9234 0.3646 -0.1203
vn 0.8789 0.4771 -0.0000
vn 0.9234 0.3646 0.1203
vn 0.9410 0.3320 0.0652
vn 0.8661 0.4703 0.1694
vn 0.8971 0.4132 0.1568
vn 0.8353 0.5271 -0.1562
vn 0.8093 0.5752 -0.1193
vn 0.8971 0.4132 -0.1568
vn 0.7859 0.6184 -0.0000
vn 0.7919 0.6072 0.0645
vn 0.8661 0.4703 -0.1694
vn 0.8093 0.5752 0.1193
vn 0.7919 0.6072 -0.0645
vn 0.9472 0.3206 -0.0000
vn 0.8353 0.5271 0.1562
vn 0.9184 0.3956 0.0093
vn 0.9279 0.3696 0.0488
vn 0.9398 0.3292 0.0914
vn 0.9483 0.2955 0.1157
vn 0.9483 0.2954 -0.1161
vn 0.9399 0.3292 -0.0913
vn 0.9279 0.3695 -0.0487
vn 0.9184 0.3956 -0.0093
vn 0.9477 0.2866 0.1404
vn 0.9576 0.2849 0.0430
vn 0.9576 0.2849 -0.0432
vn 0.9476 0.2866 -0.1409
vn -0.0000 1.0000 -0.0000
vn 0.9999 0.0091 0.0121
vn 1.0000 0.0049 0.0063
vn 0.8623 0.2990 -0.4087
vn 0.8702 0.2665 -0.4144
vn 0.5794 0.1772 -0.7955
vn 0.6059 0.2668 -0.7495
vn 0.9908 0.1350 -0.0000
vn 0.6497 0.0872 0.7552
vn 0.6040 0.1862 0.7749
vn 0.3119 0.0996 0.9449
vn 0.8724 0.2675 0.4092
vn 0.8628 0.2997 0.4070
vn 0.6166 0.2666 0.7408
vn 0.8620 0.5068 -0.0000
vn 0.8763 0.4817 -0.0000
vn 0.2260 0.9650 -0.1331
vn 0.2241 0.9665 0.1254
vn 0.3293 0.9372 0.1151
vn 0.3273 0.9369 -0.1229
vn 0.9704 0.2415 -0.0000
vn 0.9513 0.3082 -0.0000
vn 0.9287 0.3708 -0.0000
vn 0.9035 0.4287 -0.0000
vn 0.9704 0.2413 0.0002
vn 0.9705 0.2413 0.0003
vn 0.2075 0.0585 -0.9765
vn 0.2968 0.0935 -0.9503
vn 0.8847 0.2162 0.4131
vn 0.5451 -0.8287 0.1266
vn 0.5442 -0.8304 -0.1194
vn 0.7590 -0.6433 -0.1003
vn 0.7606 -0.6415 0.0999
vn 0.6066 0.0800 -0.7909
vn 0.9785 -0.2018 0.0426
vn 0.9781 -0.2033 -0.0443
vn 0.9866 0.1630 -0.0083
vn 0.9865 0.1634 0.0080
vn 0.9504 0.2864 -0.1210
vn 0.9534 0.2766 -0.1204
vn 0.8809 0.2143 -0.4219
vn -0.2043 0.9789 -0.0000
vn -1.0000 -0.0000 -0.0000
vn 1.0000 0.0004 -0.0000
vn 1.0000 0.0049 -0.0064
vn 0.9999 0.0090 -0.0121
vn -0.0136 0.9999 -0.0000
vn 0.9999 0.0136 -0.0000
vn 0.9991 0.0422 -0.0000
vn 0.0136 -0.9999 -0.0000
vn 0.9993 0.0379 -0.0007
vn 0.2802 -0.9349 0.2178
vn 0.2802 -0.9349 -0.2178
vn 0.2791 -0.9315 -0.2332
vn 0.2791 -0.9315 0.2332
vn 0.0279 -0.9996 -0.0000
vn 0.2312 0.9482 -0.2176
vn 0.2312 0.9482 0.2176
vn 0.2302 0.9439 0.2367
vn 0.2302 0.9439 -0.2367
vn -0.0259 0.9997 -0.0000
vn 0.9996 0.0276 -0.0001
vn 0.9996 0.0273 -0.0001
vn 0.9996 0.0278 -0.0000
vn -0.0000 -1.0000 -0.0000
vn 1.0000 -0.0000 -0.0000
vn 0.2042 0.0608 0.9770
vn 0.5643 0.8207 0.0898
vn 0.5625 0.8215 -0.0932
vn 0.9561 0.2929 -0.0003
vn 0.9568 0.2909 -0.0001
vn 0.7895 0.6122 0.0440
vn 0.7895 0.6122 -0.0439
vn 0.9536 0.2767 0.1185
vn 0.9506 0.2865 0.1194
vn 0.9561 0.2929 0.0004
vn 0.9568 0.2908 0.0001
vn -0.2941 0.9558 -0.0000
vn 0.2941 -0.9558 -0.0000
vn 0.9016 0.4325 -0.0000
vn 0.3768 -0.9263 -0.0000
vn 0.9996 0.0277 -0.0003
vn 0.9996 0.0274 -0.0001
vn 0.9996 0.0275 -0.0001
vn 0.2576 -0.8595 0.4416
vn 0.2576 -0.8595 0.4415
vn 0.0643 -0.2387 0.9690
vn 0.2126 0.8717 0.4415
vn 0.0518 0.2416 0.9690
vn 0.0518 0.2415 0.9690
vn 0.0517 0.2415 -0.9690
vn 0.0518 0.2416 -0.9690
vn 0.2126 0.8717 -0.4415
vn 0.2576 -0.8595 -0.4415
vn 0.2576 -0.8595 -0.4416
vn 0.0643 -0.2387 -0.9690
vn -0.0342 0.9388 0.3429
vn -0.0336 0.9376 0.3460
vn -0.0669 0.9978 -0.0000
vn -0.0669 0.9978 0.0001
vn 0.0593 0.7703 0.6350
vn 0.0614 0.7665 0.6394
vn 0.2003 0.5169 0.8323
vn 0.2039 0.5104 0.8354
vn 0.3683 0.2162 0.9042
vn 0.3725 0.2086 0.9043
vn 0.5381 -0.0865 0.8385
vn 0.5417 -0.0929 0.8354
vn 0.6835 -0.3444 0.6436
vn 0.6856 -0.3481 0.6394
vn 0.7814 -0.5174 0.3489
vn 0.7820 -0.5185 0.3460
vn 0.8159 -0.5782 -0.0000
vn 0.8159 -0.5782 -0.0001
vn 0.7813 -0.5174 -0.3490
vn 0.7819 -0.5186 -0.3459
vn 0.6835 -0.3444 -0.6436
vn 0.6856 -0.3481 -0.6394
vn 0.5381 -0.0865 -0.8384
vn 0.5417 -0.0928 -0.8354
vn 0.3683 0.2162 -0.9042
vn 0.3725 0.2086 -0.9043
vn 0.2003 0.5169 -0.8323
vn 0.2039 0.5104 -0.8354
vn 0.0593 0.7703 -0.6349
vn 0.0614 0.7664 -0.6394
vn 0.8356 0.2158 -0.5052
vn 0.7358 0.3996 -0.5468
vn 0.8022 0.4358 -0.4082
vn 0.8766 0.2984 -0.3774
vn -0.0342 0.9388 -0.3429
vn -0.0336 0.9376 -0.3460
vn -0.0669 0.9978 -0.0001
vn 0.6359 0.5835 -0.5051
vn 0.5513 0.7393 -0.3866
vn 0.6648 0.6892 -0.2883
vn 0.7278 0.5730 -0.3769
vn 0.9769 -0.0441 0.2092
vn 0.9967 -0.0807 -0.0000
vn 0.9971 0.0763 -0.0000
vn 0.9822 0.1037 0.1565
vn 0.4749 0.8800 -0.0000
vn 0.4948 0.8435 0.2092
vn 0.6228 0.7667 0.1560
vn 0.6080 0.7939 -0.0000
vn 0.4948 0.8435 -0.2092
vn 0.6228 0.7667 -0.1560
vn 0.6359 0.5835 0.5051
vn 0.7358 0.3996 0.5468
vn 0.8022 0.4358 0.4082
vn 0.7278 0.5730 0.3769
vn 0.9203 0.0600 0.3866
vn 0.9399 0.1817 0.2891
vn 0.5513 0.7393 0.3866
vn 0.6648 0.6892 0.2883
vn 0.9769 -0.0441 -0.2092
vn 0.9822 0.1037 -0.1565
vn 0.8356 0.2158 0.5052
vn 0.8766 0.2984 0.3774
vn 0.9203 0.0600 -0.3866
vn 0.9399 0.1817 -0.2891
vn 0.3923 -0.0610 -0.9178
vn 0.3596 -0.0609 -0.9311
vn 0.6155 -0.5050 -0.6051
vn 0.8387 -0.1901 -0.5103
vn 0.8103 -0.4681 -0.3525
vn 0.6003 -0.6687 -0.4387
vn 0.9414 0.0824 0.3270
vn 0.9669 0.2386 0.0910
vn 0.9803 -0.0854 0.1778
vn 0.9802 0.1927 0.0455
vn 0.3762 0.8143 -0.4420
vn 0.2708 0.8456 -0.4601
vn 0.3728 0.5079 -0.7766
vn 0.2770 0.5403 -0.7945
vn 0.7551 -0.1646 0.6346
vn 0.8075 -0.4687 0.3581
vn 0.9789 -0.0898 -0.1837
vn 0.9803 0.1918 -0.0468
vn 0.9382 0.0788 -0.3371
vn 0.9667 0.2382 -0.0931
vn 0.5940 -0.6609 0.4587
vn 0.5164 -0.2963 0.8035
vn 0.6169 0.7076 -0.3445
vn 0.6273 0.4745 -0.6175
vn 0.6464 0.4762 0.5962
vn 0.3921 0.5315 0.7508
vn 0.6282 0.7060 0.3270
vn 0.3852 0.8227 0.4181
vn 0.5222 -0.8418 0.1366
vn 0.5422 -0.6819 0.4910
vn 0.5182 -0.5490 0.6558
vn 0.3454 -0.0956 0.9336
vn 0.3372 -0.0608 -0.9395
vn 0.5221 -0.5620 -0.6416
vn 0.5435 -0.6895 -0.4788
vn 0.5215 -0.8430 -0.1315
vn 0.8559 0.4085 -0.3171
vn 0.8274 0.5342 -0.1734
vn 0.8273 0.5343 0.1735
vn 0.8561 0.4089 0.3162
vn 0.2750 0.5614 0.7805
vn 0.2667 0.8566 0.4416
vn 0.9542 0.2925 0.0635
vn 0.9570 0.2896 0.0146
vn 0.9570 0.2896 -0.0146
vn 0.9541 0.2925 -0.0637
vn 0.9996 0.0281 -0.0002
vn 0.9996 0.0280 -0.0001
vn 0.9996 0.0279 -0.0003
vn 0.6607 0.7506 -0.0000
vn 0.1676 0.8176 -0.5508
vn -0.3121 0.9501 -0.0000
vn 0.2852 0.8431 -0.4558
vn 0.4461 0.8444 -0.2966
vn 0.4460 0.8444 -0.2966
vn 0.5840 0.8025 -0.1221
vn 0.2852 0.8431 0.4558
vn 0.4460 0.8444 0.2966
vn 0.5840 0.8025 0.1221
vn -0.2211 0.9676 -0.1221
vn -0.0778 0.9518 -0.2966
vn 0.0695 0.8873 -0.4558
vn 0.0695 0.8874 -0.4558
vn -0.2211 0.9676 0.1222
vn -0.2211 0.9676 0.1221
vn -0.0778 0.9518 0.2966
vn 0.0695 0.8874 0.4558
vn 0.0695 0.8873 0.4558
vn 0.1676 0.8176 0.5508
vn 0.0695 0.3389 0.9382
vn 0.0695 0.3389 -0.9382
vn 0.2008 0.9796 -0.0000
vn 0.9824 0.1868 -0.0000
vn -0.8297 0.5583 -0.0000
vn -0.8296 0.5583 -0.0000
vn 0.8620 0.5069 -0.0000
vn 0.9541 0.2925 -0.0636
vn 0.9504 0.2864 -0.1209
vn 0.9667 0.2383 -0.0931
vn 0.9866 0.1631 -0.0083
vn 0.9568 0.2908 -0.0001
vn 0.9568 0.2908 -0.0000
vn 0.9542 0.2925 0.0634
vn 0.9669 0.2386 0.0909
vn 0.8621 0.5068 -0.0000
vn 0.9966 0.0830 -0.0000
vn 0.2007 0.9796 -0.0000
vn 0.2010 0.9796 -0.0000
vt 0.846002 0.282665
vt 0.846002 0.282665
vt 0.846002 0.282665
vt 0.846002 0.282664
vt 0.846002 0.282664
vt 0.846001 0.282664
vt 0.846001 0.282664
vt 0.846001 0.282664
vt 0.846001 0.282665
vt 0.846001 0.282664
vt 0.846001 0.282665
vt 0.846002 0.282664
vt 0.846001 0.282664
vt 0.846001 0.282664
vt 0.908100 0.281261
vt 0.908100 0.281261
vt 0.095443 0.341327
vt 0.846001 0.282664
vt 0.846001 0.282664
vt 0.971006 0.280977
vt 0.971006 0.280977
vt 0.971005 0.280977
vt 0.971005 0.280977
vt 0.971005 0.280977
vt 0.971006 0.280977
vt 0.971006 0.280977
vt 0.971005 0.280977
vt 0.971005 0.280977
vt 0.971005 0.280977
vt 0.846002 0.282665
vt 0.846002 0.282664
vt 0.846001 0.282665
vt 0.846001 0.282665
vt 0.846001 0.282665
vt 0.846001 0.282665
vt 0.846001 0.282664
vt 0.846001 0.282664
vt 0.908613 0.279340
vt 0.971006 0.280977
vt 0.908613 0.279340
vt 0.908613 0.279340
vt 0.908613 0.279340
vt 0.908612 0.279340
vt 0.908612 0.279340
vt 0.908612 0.279340
vt 0.908612 0.279340
vt 0.908612 0.279340
vt 0.908612 0.279340
vt 0.908612 0.279340
vt 0.908612 0.279340
vt 0.908612 0.279340
vt 0.908612 0.279340
vt 0.908612 0.279340
vt 0.908612 0.279340
vt 0.908612 0.279340
vt 0.908612 0.279340
vt 0.908612 0.279340
vt 0.908612 0.279340
vt 0.908612 0.279340
vt 0.908612 0.279340
vt 0.908612 0.279340
vt 0.908490 0.280683
vt 0.844250 0.279711
vt 0.844250 0.279711
vt 0.844250 0.279711
vt 0.844250 0.279711
vt 0.281706 0.342495
vt 0.157025 0.341843
vt 0.157025 0.341843
vt 0.157025 0.341843
vt 0.157025 0.341843
vt 0.157025 0.341843
vt 0.220190 0.343043
vt 0.846002 0.282664
vt 0.032557 0.342311
vt 0.846001 0.282665
vt 0.971005 0.280977
vt 0.971005 0.280977
s 0
usemtl AIRPORT
f 1/1/1 2/1/1 3/2/1
f 4/3/2 5/4/2 6/4/2
s 1
f 7/5/3 8/6/4 9/5/5
f 10/7/6 11/8/7 12/8/8
s 0
f 13/9/1 14/9/1 3/2/1
s 1
f 15/6/9 16/6/10 17/6/11
s 0
f 4/3/2 18/10/2 19/8/2
f 4/3/2 20/10/2 18/10/2
f 4/3/2 21/10/2 20/10/2
f 4/3/2 22/10/2 21/10/2
f 4/3/2 23/4/2 22/10/2
f 4/3/2 6/4/2 23/4/2
f 24/9/1 25/11/1 3/2/1
f 25/11/1 26/11/1 3/2/1
f 26/11/1 27/11/1 3/2/1
f 27/11/1 28/11/1 3/2/1
f 28/11/1 29/1/1 3/2/1
f 29/1/1 1/1/1 3/2/1
s 1
f 30/5/12 31/5/13 9/5/5
f 32/12/14 33/12/15 34/12/16
f 35/13/17 36/12/18 34/12/16
f 31/5/13 7/5/3 9/5/5
f 37/13/19 38/13/20 39/13/21
s 0
f 4/3/2 40/8/2 41/8/2
s 1
f 42/14/22 15/6/9 43/14/23
s 0
f 14/9/1 24/9/1 3/2/1
f 4/3/2 19/8/2 40/8/2
s 1
f 44/13/24 12/8/8 45/10/25
f 46/14/26 15/6/9 42/14/22
f 47/13/26 10/7/6 12/8/8
f 48/15/27 49/15/28 50/15/29
f 51/16/30 52/16/31 53/16/32
s 0
f 54/17/33 55/17/33 56/17/33
s 1
f 57/7/34 58/7/35 59/7/36
f 36/12/18 32/12/14 34/12/16
f 60/6/37 61/6/38 62/6/39
f 63/18/40 64/18/41 65/19/41
f 66/18/41 67/19/42 68/19/41
s 0
f 54/17/33 56/17/33 69/17/43
f 70/17/33 71/17/33 72/17/33
s 1
f 73/14/44 74/14/45 75/14/46
s 0
f 70/17/33 76/17/33 71/17/33
s 1
f 77/20/47 78/21/48 79/20/49
f 80/22/50 81/23/51 82/23/49
f 83/24/52 84/24/53 79/20/49
f 85/25/54 86/26/55 79/20/49
f 78/21/48 87/21/56 79/20/49
f 88/27/57 89/27/58 79/20/49
f 87/21/56 90/25/59 79/20/49
f 89/27/58 91/28/60 79/20/49
f 86/26/55 92/26/61 79/20/49
f 93/20/62 77/20/47 79/20/49
f 92/26/61 88/27/57 79/20/49
f 81/23/51 94/29/62 82/23/49
f 84/24/53 80/22/50 79/20/49
f 90/25/59 85/25/54 79/20/49
f 91/28/60 95/28/63 79/20/49
f 95/28/63 83/24/52 79/20/49
f 96/13/64 97/13/65 98/13/41
f 97/13/65 99/13/66 98/13/41
f 99/13/66 100/13/67 98/13/41
f 101/6/68 102/6/69 103/6/41
f 102/6/69 104/6/70 103/6/41
f 104/6/70 105/6/71 103/6/41
f 100/13/67 106/13/72 107/13/73
f 101/6/68 108/6/74 109/6/75
s 0
f 110/16/1 111/16/1 112/16/1
f 110/16/1 112/16/1 113/16/1
f 114/3/76 115/30/76 116/31/76
f 114/3/76 116/31/76 117/4/76
s 1
f 118/14/77 42/14/22 43/14/23
f 118/14/77 43/14/23 119/14/78
f 120/6/79 121/6/80 122/6/81
f 120/6/79 122/6/81 123/6/82
f 47/13/26 124/13/83 125/6/83
f 47/13/26 125/6/83 46/14/26
f 126/12/84 127/13/85 128/13/86
f 126/12/84 128/13/86 34/12/16
f 129/13/87 130/13/88 131/13/89
f 129/13/87 131/13/89 127/13/85
f 132/4/90 133/12/90 134/12/91
f 132/4/90 134/12/91 135/4/91
f 136/6/92 137/13/93 138/13/94
f 136/6/92 138/13/94 139/6/95
f 16/6/10 140/6/96 141/6/96
f 16/6/10 141/6/96 17/6/11
f 140/6/96 142/6/97 143/6/97
f 140/6/96 143/6/97 141/6/96
f 142/6/97 144/6/98 145/6/98
f 142/6/97 145/6/98 143/6/97
f 144/6/98 146/5/99 147/5/99
f 144/6/98 147/5/99 145/6/98
f 146/5/99 148/5/91 149/5/91
f 146/5/99 149/5/91 147/5/99
f 134/12/91 150/12/99 151/4/99
f 134/12/91 151/4/99 135/4/91
f 150/12/99 152/13/98 153/10/98
f 150/12/99 153/10/98 151/4/99
f 154/13/97 155/13/100 156/10/101
f 154/13/97 156/10/101 157/10/97
f 155/13/100 44/13/24 45/10/25
f 155/13/100 45/10/25 156/10/101
f 8/6/4 158/6/102 159/6/103
f 8/6/4 159/6/103 9/5/5
f 148/5/91 160/5/90 161/5/90
f 148/5/91 161/5/90 149/5/91
f 127/13/85 131/13/89 39/13/21
f 127/13/85 39/13/21 128/13/86
f 162/12/104 129/13/87 127/13/85
f 162/12/104 127/13/85 126/12/84
f 163/12/105 164/5/106 165/5/107
f 163/12/105 165/5/107 166/12/108
f 122/6/81 167/5/109 9/5/5
f 122/6/81 9/5/5 159/6/103
f 129/13/87 106/13/72 100/13/67
f 129/13/87 100/13/67 130/13/88
f 168/12/110 169/5/111 170/5/112
f 168/12/110 170/5/112 171/12/113
f 166/12/108 165/5/107 169/5/111
f 166/12/108 169/5/111 168/12/110
f 98/13/41 68/19/41 67/19/42
f 98/13/41 67/19/42 96/13/64
f 121/6/80 172/6/114 173/5/115
f 121/6/80 173/5/115 174/5/116
s 0
f 175/6/117 176/18/117 177/18/117
f 175/6/117 177/18/117 178/6/117
s 1
f 123/6/82 122/6/81 159/6/103
f 123/6/82 159/6/103 62/6/39
s 0
f 179/32/118 180/33/118 181/34/118
f 179/32/118 181/34/118 182/35/118
s 1
f 183/36/119 184/8/120 119/14/78
f 183/36/119 119/14/78 185/37/119
s 0
f 186/14/2 187/14/2 188/14/2
f 186/14/2 188/14/2 189/14/2
s 1
f 10/7/6 190/7/121 184/8/120
f 10/7/6 184/8/120 11/8/7
f 190/7/121 118/14/77 119/14/78
f 190/7/121 119/14/78 184/8/120
s 0
f 191/14/122 192/7/122 193/7/122
f 191/14/122 193/7/122 194/14/122
s 1
f 53/16/32 52/16/31 195/16/123
f 53/16/32 195/16/123 196/16/123
f 50/15/29 49/15/28 197/15/124
f 50/15/29 197/15/124 198/15/124
s 0
f 199/7/1 200/7/1 201/7/1
f 199/7/1 201/7/1 202/7/1
f 203/7/125 204/14/125 205/14/125
f 203/7/125 205/14/125 206/7/125
f 187/14/2 207/14/2 208/14/2
f 187/14/2 208/14/2 188/14/2
f 200/7/1 209/7/1 210/7/1
f 200/7/1 210/7/1 201/7/1
s 1
f 211/14/126 212/7/30 213/7/124
f 211/14/126 213/7/124 214/14/124
f 195/16/123 215/15/123 216/15/123
s 0
f 195/16/123 216/15/123 196/16/123
s 1
f 217/38/124 218/38/30 219/38/32
f 217/38/124 219/38/32 220/38/124
s 0
f 197/15/124 221/16/124 222/16/124
f 197/15/124 222/16/124 198/15/124
s 1
f 215/15/123 48/15/27 50/15/29
f 215/15/123 50/15/29 216/15/123
f 223/7/127 224/14/128 225/14/129
f 223/7/127 225/14/129 226/7/130
s 0
f 227/17/33 71/17/33 76/17/33
f 227/17/33 76/17/33 228/17/33
f 229/7/131 230/14/131 231/14/131
f 229/7/131 231/14/131 232/7/131
s 1
f 233/7/123 234/7/31 235/14/27
f 233/7/123 235/14/27 236/14/123
s 0
f 237/16/1 238/16/1 239/16/1
f 237/16/1 239/16/1 240/16/1
s 1
f 241/14/132 242/7/133 243/7/134
f 241/14/132 243/7/134 244/14/135
f 245/14/136 246/7/136 247/7/136
f 245/14/136 247/7/136 248/14/136
f 249/17/137 250/17/138 69/17/43
f 249/17/137 69/17/43 56/17/139
s 0
f 251/15/2 252/15/2 253/15/2
f 251/15/2 253/15/2 254/15/2
f 255/16/140 256/16/140 257/16/140
f 255/16/140 257/16/140 258/16/140
f 259/36/140 260/37/140 261/37/140
f 259/36/140 261/37/140 262/36/140
f 263/16/118 264/16/118 265/16/118
f 263/16/118 265/16/118 266/16/118
f 267/16/141 268/15/141 269/15/141
f 267/16/141 269/15/141 270/16/141
f 271/16/2 272/16/2 273/16/2
f 271/16/2 273/16/2 274/16/2
s 1
f 275/13/142 35/13/17 34/12/16
f 275/13/142 34/12/16 128/13/86
f 276/13/143 277/6/144 139/6/95
f 276/13/143 139/6/95 138/13/94
f 158/6/102 60/6/37 62/6/39
f 158/6/102 62/6/39 159/6/103
f 278/6/145 64/18/41 63/18/40
f 278/6/145 63/18/40 279/6/146
f 280/13/147 281/6/148 277/6/144
f 280/13/147 277/6/144 276/13/143
f 103/6/41 278/6/145 108/6/74
f 103/6/41 108/6/74 101/6/68
f 121/6/80 174/5/116 167/5/109
f 121/6/80 167/5/109 122/6/81
f 152/13/98 154/13/97 157/10/97
f 152/13/98 157/10/97 153/10/98
f 101/6/68 109/6/75 121/6/80
f 101/6/68 121/6/80 120/6/79
f 275/13/142 128/13/86 39/13/21
f 275/13/142 39/13/21 38/13/20
f 67/19/42 66/18/41 103/6/41
f 67/19/42 103/6/41 105/6/71
s 0
f 282/19/2 283/19/2 284/19/2
f 282/19/2 284/19/2 285/19/2
s 1
f 286/12/149 287/13/150 129/13/87
f 286/12/149 129/13/87 162/12/104
f 63/18/40 65/19/41 288/13/151
f 63/18/40 288/13/151 289/13/152
s 0
f 64/18/41 66/18/41 68/19/41
f 64/18/41 68/19/41 65/19/41
f 290/6/153 291/18/153 292/18/153
f 290/6/153 292/18/153 293/6/153
f 294/19/2 295/19/2 296/19/2
f 294/19/2 296/19/2 297/19/2
f 298/19/153 299/13/153 300/13/153
f 298/19/153 300/13/153 301/19/153
f 302/18/1 303/18/1 304/18/1
f 302/18/1 304/18/1 305/18/1
s 1
f 306/13/154 307/19/154 308/19/154
s 0
f 306/13/154 308/19/154 309/13/154
f 310/18/154 311/6/154 312/6/154
f 310/18/154 312/6/154 313/18/154
f 314/6/2 315/6/2 316/6/2
f 314/6/2 316/6/2 317/6/2
f 318/13/1 319/13/1 320/13/1
f 318/13/1 320/13/1 321/13/1
f 322/15/41 323/15/41 324/15/41
f 322/15/41 324/15/41 325/15/41
f 326/15/41 327/16/41 328/16/41
f 326/15/41 328/16/41 329/15/41
f 330/15/41 322/15/41 325/15/41
f 330/15/41 325/15/41 331/15/41
f 323/15/41 332/15/41 333/15/41
f 323/15/41 333/15/41 324/15/41
f 334/15/41 326/15/41 329/15/41
f 334/15/41 329/15/41 335/15/41
f 327/16/41 336/16/41 337/16/41
f 327/16/41 337/16/41 328/16/41
f 336/16/41 334/15/41 335/15/41
f 336/16/41 335/15/41 337/16/41
f 332/15/41 330/15/41 331/15/41
f 332/15/41 331/15/41 333/15/41
f 338/26/155 339/26/155 340/26/155
f 338/26/155 340/26/155 341/26/155
f 342/39/155 343/39/155 344/39/155
f 342/39/155 344/39/155 345/39/155
f 346/6/2 347/6/2 348/6/2
f 346/6/2 348/6/2 349/6/2
f 350/18/1 351/18/1 352/18/1
f 350/18/1 352/18/1 353/18/1
f 354/13/1 355/13/1 356/13/1
f 354/13/1 356/13/1 357/13/1
f 358/18/156 359/6/156 360/6/156
f 358/18/156 360/6/156 361/18/156
f 362/13/156 363/19/156 364/19/156
f 362/13/156 364/19/156 365/13/156
f 366/19/117 367/13/117 368/13/117
f 366/19/117 368/13/117 369/19/117
s 1
f 228/17/139 370/17/139 371/17/139
s 0
f 228/17/33 371/17/33 227/17/33
s 1
f 372/17/33 373/17/157 250/17/158
s 0
f 372/17/157 250/17/159 249/17/157
s 1
f 223/7/127 226/7/130 374/7/160
f 223/7/127 374/7/160 375/7/161
f 376/7/162 377/7/162 59/7/36
f 376/7/162 59/7/36 58/7/35
f 243/7/134 242/7/133 378/7/163
f 243/7/134 378/7/163 379/7/163
f 380/7/164 381/7/165 57/7/34
f 380/7/164 57/7/34 59/7/36
f 75/14/46 74/14/45 382/14/166
f 75/14/46 382/14/166 383/14/167
f 384/14/168 385/14/168 241/14/132
f 384/14/168 241/14/132 244/14/135
f 225/14/129 224/14/128 386/14/169
f 225/14/129 386/14/169 387/14/170
f 388/14/171 389/14/171 73/14/44
f 388/14/171 73/14/44 75/14/46
f 390/38/172 391/40/173 392/41/174
f 390/38/172 392/41/174 393/42/175
f 394/38/176 395/40/177 391/40/173
f 394/38/176 391/40/173 390/38/172
f 396/43/178 397/44/179 395/40/177
f 396/43/178 395/40/177 394/38/176
f 398/43/180 399/44/181 397/44/179
f 398/43/180 397/44/179 396/43/178
f 400/45/182 401/46/183 399/44/181
f 400/45/182 399/44/181 398/43/180
f 402/45/184 403/46/185 401/46/183
f 402/45/184 401/46/183 400/45/182
f 404/47/186 405/48/187 403/46/185
f 404/47/186 403/46/185 402/45/184
f 406/47/188 407/48/189 405/48/187
f 406/47/188 405/48/187 404/47/186
f 408/49/190 409/50/191 407/48/189
f 408/49/190 407/48/189 406/47/188
f 410/49/192 411/50/193 409/50/191
f 410/49/192 409/50/191 408/49/190
f 412/51/194 413/52/195 411/50/193
f 412/51/194 411/50/193 410/49/192
f 414/53/196 415/52/197 413/52/195
f 414/53/196 413/52/195 412/51/194
f 416/54/198 417/55/199 415/52/197
f 416/54/198 415/52/197 414/53/196
f 418/56/200 419/57/201 417/55/199
f 418/56/200 417/55/199 416/54/198
f 420/21/202 421/25/203 422/25/204
f 420/21/202 422/25/204 423/21/205
f 424/58/206 425/59/207 419/57/201
f 424/58/206 419/57/201 418/56/200
f 426/60/208 427/61/174 425/59/207
f 426/60/208 425/59/207 424/58/206
f 423/21/205 422/25/204 90/25/59
f 423/21/205 90/25/59 87/21/56
f 428/25/209 429/26/210 430/26/211
f 428/25/209 430/26/211 431/25/212
f 432/23/213 433/29/214 434/29/215
f 432/23/213 434/29/215 435/23/216
f 436/27/217 437/27/218 438/27/219
f 436/27/217 438/27/219 439/27/220
f 429/26/210 440/26/221 441/26/222
f 429/26/210 441/26/222 430/26/211
f 442/28/223 443/24/224 444/24/225
f 442/28/223 444/24/225 445/28/226
f 446/22/227 432/23/213 435/23/216
f 446/22/227 435/23/216 447/22/228
f 437/27/218 448/28/229 449/28/230
f 437/27/218 449/28/230 438/27/219
f 440/26/221 436/27/217 439/27/220
f 440/26/221 439/27/220 441/26/222
f 450/20/214 451/20/231 452/20/232
f 450/20/214 452/20/232 453/20/215
f 443/24/224 454/24/233 455/24/234
f 443/24/224 455/24/234 444/24/225
f 451/20/231 456/21/235 457/21/236
f 451/20/231 457/21/236 452/20/232
f 454/24/233 446/22/227 447/22/228
f 454/24/233 447/22/228 455/24/234
f 448/28/229 442/28/223 445/28/226
f 448/28/229 445/28/226 449/28/230
f 421/25/203 428/25/209 431/25/212
f 421/25/203 431/25/212 422/25/204
f 456/21/235 420/21/202 423/21/205
f 456/21/235 423/21/205 457/21/236
f 438/27/219 449/28/230 91/28/60
f 438/27/219 91/28/60 89/27/58
f 430/26/211 441/26/222 92/26/61
f 430/26/211 92/26/61 86/26/55
f 453/20/215 452/20/232 77/20/47
f 453/20/215 77/20/47 93/20/62
f 441/26/222 439/27/220 88/27/57
f 441/26/222 88/27/57 92/26/61
f 435/23/216 434/29/215 94/29/62
f 435/23/216 94/29/62 81/23/51
f 455/24/234 447/22/228 80/22/50
f 455/24/234 80/22/50 84/24/53
f 422/25/204 431/25/212 85/25/54
f 422/25/204 85/25/54 90/25/59
f 449/28/230 445/28/226 95/28/63
f 449/28/230 95/28/63 91/28/60
f 445/28/226 444/24/225 83/24/52
f 445/28/226 83/24/52 95/28/63
f 452/20/232 457/21/236 78/21/48
f 452/20/232 78/21/48 77/20/47
f 447/22/228 435/23/216 81/23/51
f 447/22/228 81/23/51 80/22/50
f 444/24/225 455/24/234 84/24/53
f 444/24/225 84/24/53 83/24/52
f 431/25/212 430/26/211 86/26/55
f 431/25/212 86/26/55 85/25/54
f 457/21/236 423/21/205 87/21/56
f 457/21/236 87/21/56 78/21/48
f 439/27/220 438/27/219 89/27/58
f 439/27/220 89/27/58 88/27/57
f 9/5/5 167/5/109 458/5/237
f 9/5/5 458/5/237 459/5/238
f 460/5/239 461/5/240 462/5/241
f 460/5/239 462/5/241 463/5/242
f 463/5/242 462/5/241 165/5/107
f 463/5/242 165/5/107 164/5/106
f 286/12/149 162/12/104 464/12/243
f 286/12/149 464/12/243 465/12/244
f 465/12/244 464/12/243 466/12/245
f 465/12/244 466/12/245 467/12/246
f 467/12/246 466/12/245 168/12/110
f 467/12/246 168/12/110 171/12/113
f 136/6/92 139/6/95 468/6/247
f 136/6/92 468/6/247 469/6/248
f 469/6/248 468/6/247 470/6/249
f 469/6/248 470/6/249 471/6/250
f 471/6/250 470/6/249 62/6/39
f 471/6/250 62/6/39 61/6/38
f 162/12/104 126/12/84 472/12/251
f 162/12/104 472/12/251 464/12/243
f 464/12/243 472/12/251 473/12/252
f 464/12/243 473/12/252 466/12/245
f 466/12/245 473/12/252 166/12/108
f 466/12/245 166/12/108 168/12/110
f 170/5/112 169/5/111 474/5/253
f 170/5/112 474/5/253 475/5/254
f 475/5/254 474/5/253 476/5/255
f 475/5/254 476/5/255 477/5/256
f 477/5/256 476/5/255 174/5/116
f 477/5/256 174/5/116 173/5/115
f 163/12/105 166/12/108 473/12/252
f 163/12/105 473/12/252 478/12/257
f 478/12/257 473/12/252 472/12/251
f 478/12/257 472/12/251 479/12/258
f 479/12/258 472/12/251 126/12/84
f 479/12/258 126/12/84 34/12/16
f 139/6/95 277/6/144 480/6/259
f 139/6/95 480/6/259 468/6/247
f 468/6/247 480/6/259 481/6/260
f 468/6/247 481/6/260 470/6/249
f 470/6/249 481/6/260 123/6/82
f 470/6/249 123/6/82 62/6/39
f 39/13/21 131/13/89 482/13/261
f 39/13/21 482/13/261 483/13/262
f 483/13/262 482/13/261 484/13/263
f 483/13/262 484/13/263 485/13/264
f 485/13/264 484/13/263 276/13/143
f 485/13/264 276/13/143 138/13/94
f 486/12/265 163/12/105 478/12/257
f 486/12/265 478/12/257 487/12/266
f 487/12/266 478/12/257 479/12/258
f 487/12/266 479/12/258 488/12/267
f 489/12/268 479/12/258 34/12/16
f 489/12/268 34/12/16 33/12/15
f 30/5/12 9/5/5 459/5/238
f 30/5/12 459/5/238 490/5/269
f 491/5/270 460/5/239 463/5/242
f 491/5/270 463/5/242 492/5/271
f 492/5/271 463/5/242 164/5/106
f 492/5/271 164/5/106 493/5/272
f 167/5/109 174/5/116 476/5/255
f 167/5/109 476/5/255 461/5/240
f 461/5/240 476/5/255 474/5/253
f 461/5/240 474/5/253 462/5/241
f 462/5/241 474/5/253 169/5/111
f 462/5/241 169/5/111 165/5/107
f 120/6/79 123/6/82 481/6/260
f 120/6/79 481/6/260 494/6/273
f 494/6/273 481/6/260 480/6/259
f 494/6/273 480/6/259 495/6/274
f 495/6/274 480/6/259 277/6/144
f 495/6/274 277/6/144 281/6/148
f 280/13/147 276/13/143 484/13/263
f 280/13/147 484/13/263 496/13/275
f 496/13/275 484/13/263 482/13/261
f 496/13/275 482/13/261 497/13/276
f 497/13/276 482/13/261 131/13/89
f 497/13/276 131/13/89 130/13/88
f 281/6/148 105/6/71 104/6/70
f 281/6/148 104/6/70 495/6/274
f 495/6/274 104/6/70 102/6/69
f 495/6/274 102/6/69 494/6/273
f 494/6/273 102/6/69 101/6/68
f 494/6/273 101/6/68 120/6/79
f 37/13/19 39/13/21 483/13/262
f 37/13/19 483/13/262 498/13/277
f 498/13/277 483/13/262 485/13/264
f 498/13/277 485/13/264 499/13/278
f 499/13/278 485/13/264 138/13/94
f 499/13/278 138/13/94 137/13/93
f 130/13/88 100/13/67 99/13/66
f 130/13/88 99/13/66 497/13/276
f 497/13/276 99/13/66 97/13/65
f 497/13/276 97/13/65 496/13/275
f 496/13/275 97/13/65 96/13/64
f 496/13/275 96/13/64 280/13/147
f 486/12/265 493/5/272 164/5/106
f 486/12/265 164/5/106 163/12/105
f 129/13/87 287/13/150 500/13/279
f 129/13/87 500/13/279 106/13/72
f 289/13/152 288/13/151 107/13/73
f 289/13/152 107/13/73 501/13/280
f 106/13/72 500/13/279 501/13/280
f 106/13/72 501/13/280 107/13/73
f 278/6/145 279/6/146 502/6/281
f 278/6/145 502/6/281 108/6/74
f 172/6/114 121/6/80 109/6/75
f 172/6/114 109/6/75 503/6/282
f 109/6/75 108/6/74 502/6/281
f 109/6/75 502/6/281 503/6/282
f 288/13/151 98/13/41 100/13/67
f 288/13/151 100/13/67 107/13/73
s 0
f 71/17/33 56/17/33 55/17/33
f 71/17/33 55/17/33 72/17/33
s 1
f 249/17/137 227/17/283 371/17/284
s 0
f 249/17/137 371/17/285 372/17/285
f 504/62/286 505/62/286 506/62/286
f 504/62/286 506/62/286 507/62/286
f 508/62/287 509/62/287 510/62/287
f 508/62/287 510/62/287 511/62/287
f 512/62/288 513/62/288 514/62/288
f 512/62/288 514/62/288 515/62/288
f 516/62/289 517/62/289 518/62/289
f 516/62/289 518/62/289 519/62/289
f 520/62/290 521/62/290 522/62/290
f 520/62/291 522/62/291 523/62/291
f 524/62/292 525/62/292 526/62/292
f 524/62/292 526/62/292 527/62/292
f 528/62/293 529/62/293 530/62/293
f 528/62/293 530/62/293 531/62/293
f 532/62/294 533/62/294 534/62/294
f 532/62/294 534/62/294 535/62/294
f 536/62/295 537/62/295 538/62/295
f 536/62/295 538/62/295 539/62/295
f 540/62/296 541/62/296 542/62/296
f 540/62/296 542/62/296 543/62/296
f 544/62/297 545/62/297 546/62/297
f 544/62/297 546/62/297 547/62/297
f 548/62/298 549/62/298 550/62/298
f 548/62/299 550/62/299 551/62/299
f 552/62/300 553/62/300 554/62/300
f 552/62/301 554/62/301 555/62/301
f 556/62/302 557/62/302 558/62/302
f 556/62/302 558/62/302 559/62/302
f 560/62/303 561/62/303 562/62/303
f 560/62/304 562/62/304 563/62/304
f 564/62/305 565/62/305 566/62/305
f 564/62/305 566/62/305 567/62/305
f 568/63/306 569/63/306 570/64/306
f 568/63/306 570/64/306 571/64/306
f 572/64/307 573/64/307 574/64/307
f 572/64/307 574/64/307 575/64/307
f 576/64/308 577/64/308 578/65/308
f 576/64/308 578/65/308 579/65/308
f 580/66/309 581/64/309 582/64/309
f 580/66/309 582/64/309 583/66/309
f 584/64/310 585/64/310 586/64/310
f 584/64/310 586/64/310 587/64/310
f 588/63/306 589/63/306 590/64/306
f 588/63/306 590/64/306 591/64/306
f 592/64/307 593/64/307 594/64/307
f 592/64/307 594/64/307 595/64/307
f 596/64/308 597/64/308 598/65/308
f 596/64/308 598/65/308 599/65/308
f 600/66/309 601/64/309 602/64/309
f 600/66/309 602/64/309 603/66/309
f 604/64/311 605/64/311 606/64/311
f 604/64/311 606/64/311 607/64/311
f 608/63/306 609/63/306 610/64/306
f 608/63/306 610/64/306 611/64/306
f 612/64/307 613/64/307 614/64/307
f 612/64/307 614/64/307 615/64/307
f 616/64/308 617/64/308 618/65/308
f 616/64/308 618/65/308 619/65/308
f 620/66/309 621/64/309 622/64/309
f 620/66/309 622/64/309 623/66/309
f 624/64/310 625/64/310 626/64/310
f 624/64/310 626/64/310 627/64/310
f 628/63/306 629/63/306 630/64/306
f 628/63/306 630/64/306 631/64/306
f 632/64/307 633/64/307 634/64/307
f 632/64/307 634/64/307 635/64/307
f 636/64/308 637/64/308 638/65/308
f 636/64/308 638/65/308 639/65/308
f 640/66/309 641/64/309 642/64/309
f 640/66/309 642/64/309 643/66/309
f 644/64/310 645/64/310 646/64/310
f 644/64/311 646/64/311 647/64/311
f 648/63/306 649/63/306 650/64/306
f 648/63/306 650/64/306 651/64/306
f 652/64/307 653/64/307 654/64/307
s 1
f 652/64/307 654/64/307 655/64/307
s 0
f 656/64/308 657/64/308 658/65/308
f 656/64/308 658/65/308 659/65/308
f 660/66/309 661/64/309 662/64/309
f 660/66/309 662/64/309 663/66/309
f 664/64/310 665/64/310 666/64/310
f 664/64/310 666/64/310 667/64/310
f 668/63/306 669/63/306 670/64/306
f 668/63/306 670/64/306 671/64/306
f 672/64/307 673/64/307 674/64/307
f 672/64/307 674/64/307 675/64/307
f 676/64/308 677/64/308 678/65/308
f 676/64/308 678/65/308 679/65/308
f 680/66/309 681/64/309 682/64/309
f 680/66/309 682/64/309 683/66/309
f 684/64/311 685/64/311 686/64/311
f 684/64/311 686/64/311 687/64/311
f 688/63/306 689/63/306 690/64/306
f 688/63/306 690/64/306 691/64/306
f 692/64/307 693/64/307 694/64/307
f 692/64/307 694/64/307 695/64/307
f 696/64/308 697/64/308 698/65/308
f 696/64/308 698/65/308 699/65/308
f 700/66/309 701/64/309 702/64/309
f 700/66/309 702/64/309 703/66/309
f 704/64/310 705/64/310 706/64/310
f 704/64/310 706/64/310 707/64/310
f 708/63/306 709/63/306 710/64/306
f 708/63/306 710/64/306 711/64/306
f 712/64/307 713/64/307 714/64/307
f 712/64/307 714/64/307 715/64/307
f 716/64/308 717/64/308 718/65/308
f 716/64/308 718/65/308 719/65/308
f 720/66/309 721/64/309 722/64/309
f 720/66/309 722/64/309 723/66/309
f 724/64/310 725/64/310 726/64/310
f 724/64/311 726/64/311 727/64/311
f 728/63/306 729/63/306 730/64/306
f 728/63/306 730/64/306 731/64/306
f 732/64/307 733/64/307 734/64/307
f 732/64/307 734/64/307 735/64/307
f 736/64/308 737/64/308 738/65/308
f 736/64/308 738/65/308 739/65/308
f 740/66/309 741/64/309 742/64/309
f 740/66/309 742/64/309 743/66/309
f 744/64/310 745/64/310 746/64/310
f 744/64/310 746/64/310 747/64/310
f 748/63/306 749/63/306 750/64/306
f 748/63/306 750/64/306 751/64/306
f 752/64/307 753/64/307 754/64/307
f 752/64/307 754/64/307 755/64/307
f 756/64/308 757/64/308 758/65/308
f 756/64/308 758/65/308 759/65/308
f 760/66/309 761/64/309 762/64/309
f 760/66/309 762/64/309 763/66/309
f 764/64/311 765/64/311 766/64/311
f 764/64/310 766/64/310 767/64/310
f 768/63/306 769/63/306 770/64/306
f 768/63/306 770/64/306 771/64/306
f 772/64/307 773/64/307 774/64/307
f 772/64/307 774/64/307 775/64/307
f 776/64/308 777/64/308 778/65/308
f 776/64/308 778/65/308 779/65/308
f 780/66/309 781/64/309 782/64/309
f 780/66/309 782/64/309 783/66/309
f 784/64/310 785/64/310 786/64/310
f 784/64/310 786/64/310 787/64/310
f 788/63/306 789/63/306 790/64/306
f 788/63/306 790/64/306 791/64/306
f 792/64/307 793/64/307 794/64/307
f 792/64/307 794/64/307 795/64/307
f 796/64/308 797/64/308 798/65/308
f 796/64/308 798/65/308 799/65/308
f 800/66/309 801/64/309 802/64/309
f 800/66/309 802/64/309 803/66/309
f 804/64/311 805/64/311 806/64/311
f 804/64/310 806/64/310 807/64/310
f 808/67/306 809/67/306 810/67/306
f 808/67/306 810/67/306 811/67/306
f 812/67/307 813/67/307 814/67/307
f 812/67/307 814/67/307 815/67/307
f 816/67/308 817/67/308 818/67/308
f 816/67/308 818/67/308 819/67/308
f 820/67/309 821/67/309 822/67/309
f 820/67/309 822/67/309 823/67/309
f 824/67/310 825/67/310 826/67/310
f 824/67/310 826/67/310 827/67/310
f 828/68/306 829/68/306 830/68/306
f 828/68/306 830/68/306 831/68/306
f 832/69/307 833/69/307 834/69/307
f 832/69/307 834/69/307 835/69/307
f 836/69/308 837/69/308 838/70/308
f 836/69/308 838/70/308 839/70/308
f 840/71/309 841/69/309 842/69/309
f 840/71/309 842/69/309 843/71/309
f 844/69/311 845/72/311 846/72/311
f 844/69/310 846/72/310 847/69/310
f 848/73/306 849/73/306 850/73/306
f 848/73/306 850/73/306 851/73/306
f 852/73/307 853/73/307 854/73/307
f 852/73/307 854/73/307 855/73/307
f 856/73/308 857/73/308 858/73/308
f 856/73/308 858/73/308 859/73/308
f 860/73/309 861/73/309 862/73/309
f 860/73/309 862/73/309 863/73/309
f 864/73/310 865/73/310 866/73/310
f 864/73/310 866/73/310 867/73/310
f 868/63/306 869/63/306 870/64/306
f 868/63/306 870/64/306 871/64/306
f 872/64/307 873/64/307 874/64/307
f 872/64/307 874/64/307 875/64/307
f 876/64/308 877/64/308 878/65/308
f 876/64/308 878/65/308 879/65/308
f 880/66/309 881/64/309 882/64/309
f 880/66/309 882/64/309 883/66/309
f 884/64/311 885/64/311 886/64/311
f 884/64/310 886/64/310 887/64/310
f 889/5/90 898/74/90 888/74/90
f 898/74/312 889/5/312 897/74/312
f 897/74/90 889/5/90 896/74/90
f 896/74/90 889/5/90 895/74/90
f 895/74/90 889/5/90 890/12/90
f 895/74/90 890/12/90 894/74/90
f 894/74/90 890/12/90 893/74/90
f 893/74/312 890/12/312 892/74/312
f 892/74/90 890/12/90 891/74/90
s 1
f 913/75/313 911/75/115 912/75/314
f 911/75/115 913/75/313 910/75/315
f 910/75/315 913/75/313 909/75/254
f 909/75/254 913/75/313 914/75/281
f 909/75/254 914/75/281 908/75/316
f 908/75/316 914/75/281 915/75/317
f 908/75/316 915/75/317 907/75/113
f 907/75/113 915/75/317 899/75/318
f 907/75/113 899/75/318 900/75/152
f 907/75/113 900/75/152 901/75/280
f 907/75/113 901/75/280 906/75/246
f 906/75/246 901/75/280 902/75/319
f 906/75/246 902/75/319 905/75/320
f 905/75/320 902/75/319 903/75/150
f 905/75/320 903/75/150 904/75/149
f 280/13/147 105/6/71 281/6/148
f 105/6/71 280/13/147 67/19/42
f 67/19/42 280/13/147 96/13/64
s 0
f 161/5/90 919/74/90 132/4/90
f 919/74/321 161/5/321 918/74/321
f 918/74/90 161/5/90 889/5/90
f 918/74/90 889/5/90 917/74/90
f 917/74/90 889/5/90 916/74/90
f 916/74/90 889/5/90 888/74/90
f 132/4/321 919/74/321 920/74/321
f 132/4/90 920/74/90 921/74/90
f 132/4/90 921/74/90 922/74/90
f 132/4/90 922/74/90 891/74/90
f 132/4/90 891/74/90 890/12/90
f 13/9/1 923/76/1 924/76/1
f 923/76/1 13/9/1 925/32/1
f 925/32/1 13/9/1 3/2/1
f 4/3/2 926/36/2 927/35/2
f 926/36/2 4/3/2 928/36/2
f 928/36/2 4/3/2 41/8/2
s 1
f 932/77/322 930/77/322 931/77/322
s 0
f 930/77/322 932/77/322 933/77/322
f 930/77/322 933/77/322 929/77/322
s 1
f 929/77/322 933/77/322 934/78/322
f 929/77/322 934/78/322 938/78/322
f 938/78/322 934/78/322 935/78/322
s 0
f 938/78/322 935/78/322 937/78/322
s 1
f 937/78/322 935/78/322 936/78/322
s 0
f 161/5/90 940/5/90 889/5/90
f 940/5/90 161/5/90 939/5/90
s 1
f 939/5/90 161/5/90 160/5/90
s 0
f 941/12/90 132/4/90 890/12/90
f 132/4/90 941/12/90 942/12/90
s 1
f 132/4/90 942/12/90 133/12/90
f 46/14/26 16/6/10 15/6/9
f 16/6/10 46/14/26 944/6/83
f 944/6/83 46/14/26 943/6/83
f 943/6/83 46/14/26 125/6/83
f 47/13/26 946/13/83 124/13/83
f 946/13/83 47/13/26 945/13/83
f 945/13/83 47/13/26 44/13/24
f 44/13/24 47/13/26 12/8/8
s 0
f 956/62/323 954/62/323 955/62/323
f 954/62/323 956/62/323 957/62/323
f 954/62/308 957/62/308 953/62/308
f 953/62/308 957/62/308 958/62/308
f 953/62/308 958/62/308 952/62/308
f 952/62/308 958/62/308 959/62/308
f 952/62/308 959/62/308 951/62/308
f 951/62/308 959/62/308 960/62/308
f 951/62/308 960/62/308 950/62/308
f 950/62/308 960/62/308 961/62/308
f 950/62/308 961/62/308 949/62/308
f 949/62/308 961/62/308 962/62/308
f 949/62/324 962/62/324 948/62/324
f 948/62/324 962/62/324 947/62/324
