# Blender 5.2.0 LTS
# www.blender.org
mtllib 17_9_2_Model_AIRPORT_0.mtl
o 17.9.2.Model_AIRPORT_0
v 0.000000 -0.456947 0.000000
v -0.099085 -0.456947 -0.057206
v -0.080902 -0.456947 -0.080902
v 0.080902 -0.456947 0.080902
v 0.057207 -0.456947 0.099085
v -0.110515 -0.456947 -0.029612
v 0.099085 -0.456947 0.057207
v -0.114413 -0.456947 0.000000
v 0.110515 -0.456947 0.029612
v 0.114413 -0.456947 0.000000
v 0.110515 -0.456947 -0.029612
v 0.099085 -0.456947 -0.057206
v -0.110515 -0.456947 0.029612
v 0.080902 -0.456947 -0.080902
v -0.099085 -0.456947 0.057207
v 0.029612 -0.456947 0.110515
v -0.057207 -0.456947 -0.099084
v 0.000000 -0.456947 0.114413
v -0.029612 -0.456947 -0.110514
v -0.029612 -0.456947 0.110515
v -0.000000 -0.456947 -0.114413
v -0.057207 -0.456947 0.099085
v 0.029612 -0.456947 -0.110514
v -0.080902 -0.456947 0.080902
v 0.057207 -0.456947 -0.099084
v -0.040787 -0.444913 0.000000
v -0.040787 0.438217 -0.000000
v -0.039397 0.438217 -0.010557
v -0.039397 -0.444913 -0.010556
v -0.035323 0.438217 -0.020394
v -0.035323 -0.444913 -0.020393
v -0.028841 0.438217 -0.028841
v -0.028841 -0.444913 -0.028841
v -0.020394 0.438217 -0.035323
v -0.020394 -0.444913 -0.035323
v -0.010556 0.438217 -0.039397
v -0.010556 -0.444913 -0.039397
v -0.000000 0.438217 -0.040787
v -0.000000 -0.444913 -0.040787
v 0.010556 0.438217 -0.039397
v 0.010556 -0.444913 -0.039397
v 0.020394 0.438217 -0.035323
v 0.020394 -0.444913 -0.035323
v 0.028841 0.438217 -0.028841
v 0.028841 -0.444913 -0.028841
v 0.035323 0.438217 -0.020394
v 0.035323 -0.444913 -0.020393
v 0.039397 0.438217 -0.010557
v 0.039397 -0.444913 -0.010556
v 0.040787 0.438217 -0.000000
v 0.040787 -0.444913 0.000000
v 0.039397 0.438217 0.010556
v 0.039397 -0.444913 0.010557
v 0.035323 0.438217 0.020393
v 0.035323 -0.444913 0.020394
v 0.028841 0.438217 0.028841
v 0.028841 -0.444913 0.028841
v 0.020394 0.438217 0.035323
v 0.020394 -0.444913 0.035323
v 0.010556 0.438217 0.039397
v 0.010556 -0.444913 0.039397
v 0.000000 0.438217 0.040787
v 0.000000 -0.444913 0.040787
v -0.010556 0.438217 0.039397
v -0.010556 -0.444913 0.039397
v -0.020394 0.438217 0.035323
v -0.020394 -0.444913 0.035323
v -0.028841 0.438217 0.028841
v -0.028841 -0.444913 0.028841
v -0.035323 0.438217 0.020393
v -0.035323 -0.444913 0.020394
v -0.039397 0.438217 0.010556
v -0.035323 0.438217 0.020393
v -0.035323 0.455392 0.020393
v -0.039397 0.455392 0.010556
v -0.039397 0.438217 0.010556
v -0.039397 -0.444913 0.010557
v -0.040787 0.438217 -0.000000
v -0.040787 -0.444913 0.000000
v -0.040787 0.438217 -0.000000
v -0.040787 0.455392 -0.000000
v -0.000000 0.438217 -0.040787
v -0.010556 0.438217 -0.039397
v -0.010556 0.455392 -0.039397
v -0.000000 0.455392 -0.040787
v 0.039397 0.438217 -0.010557
v 0.035323 0.438217 -0.020394
v 0.035323 0.455392 -0.020394
v 0.039397 0.455392 -0.010557
v 0.020394 0.438217 0.035323
v 0.028841 0.438217 0.028841
v 0.028841 0.455392 0.028841
v 0.020394 0.455392 0.035323
v -0.028841 0.438217 0.028841
v -0.020394 0.438217 0.035323
v -0.020394 0.455392 0.035323
v -0.028841 0.455392 0.028841
v -0.020394 0.438217 -0.035323
v -0.028841 0.438217 -0.028841
v -0.028841 0.455392 -0.028841
v -0.020394 0.455392 -0.035323
v 0.028841 0.438217 -0.028841
v 0.020394 0.438217 -0.035323
v 0.020394 0.455392 -0.035323
v 0.028841 0.455392 -0.028841
v 0.035323 0.438217 0.020393
v 0.039397 0.438217 0.010556
v 0.039397 0.455392 0.010556
v 0.035323 0.455392 0.020393
v -0.010556 0.438217 0.039397
v 0.000000 0.438217 0.040787
v 0.000000 0.455392 0.040787
v -0.010556 0.455392 0.039397
v 0.010556 0.438217 -0.039397
v 0.010556 0.455392 -0.039397
v 0.040787 0.438217 -0.000000
v 0.040787 0.455392 -0.000000
v 0.010556 0.438217 0.039397
v 0.010556 0.455392 0.039397
v -0.035323 0.455392 0.020393
v -0.035323 0.438217 -0.020394
v -0.039397 0.438217 -0.010557
v -0.039397 0.455392 -0.010557
v -0.035323 0.455392 -0.020394
v 0.080902 -0.449746 -0.080902
v 0.099085 -0.449746 -0.057206
v 0.099085 -0.456947 -0.057206
v 0.080902 -0.456947 -0.080902
v -0.039397 -0.444913 -0.010556
v -0.035323 -0.444913 -0.020393
v -0.094863 -0.444913 -0.054769
v -0.105806 -0.444913 -0.028350
v -0.099085 -0.449746 0.057207
v -0.110515 -0.449746 0.029612
v -0.110515 -0.456947 0.029612
v -0.099085 -0.456947 0.057207
v 0.110515 -0.449746 0.029612
v 0.099085 -0.449746 0.057207
v 0.099085 -0.456947 0.057207
v 0.110515 -0.456947 0.029612
v -0.057207 -0.449746 -0.099084
v -0.029612 -0.449746 -0.110514
v -0.029612 -0.456947 -0.110514
v -0.057207 -0.456947 -0.099084
v 0.029612 -0.449746 0.110515
v 0.000000 -0.449746 0.114413
v 0.000000 -0.456947 0.114413
v 0.029612 -0.456947 0.110515
v 0.057207 -0.449746 -0.099084
v 0.057207 -0.456947 -0.099084
v -0.080902 -0.449746 0.080902
v -0.080902 -0.456947 0.080902
v 0.114413 -0.449746 0.000000
v 0.114413 -0.456947 0.000000
v -0.080902 -0.449746 -0.080902
v -0.080902 -0.456947 -0.080902
v 0.057207 -0.449746 0.099085
v 0.057207 -0.456947 0.099085
v 0.029612 -0.449746 -0.110514
v 0.029612 -0.456947 -0.110514
v 0.035323 -0.444913 -0.020393
v 0.039397 -0.444913 -0.010556
v 0.105806 -0.444913 -0.028350
v 0.094863 -0.444913 -0.054769
v 0.028841 -0.444913 0.028841
v 0.020394 -0.444913 0.035323
v 0.054769 -0.444913 0.094863
v 0.077455 -0.444913 0.077455
v -0.020394 -0.444913 0.035323
v -0.028841 -0.444913 0.028841
v -0.077455 -0.444913 0.077455
v -0.054769 -0.444913 0.094863
v -0.028841 -0.444913 -0.028841
v -0.020394 -0.444913 -0.035323
v -0.054769 -0.444913 -0.094863
v -0.077455 -0.444913 -0.077455
v 0.020394 -0.444913 -0.035323
v 0.028841 -0.444913 -0.028841
v 0.077455 -0.444913 -0.077455
v 0.054769 -0.444913 -0.094863
v -0.039397 -0.444913 0.010557
v -0.040787 -0.444913 0.000000
v -0.109538 -0.444913 0.000000
v -0.105806 -0.444913 0.028351
v 0.039397 -0.444913 0.010557
v 0.035323 -0.444913 0.020394
v 0.094863 -0.444913 0.054769
v 0.105806 -0.444913 0.028351
v 0.000000 -0.444913 0.040787
v -0.010556 -0.444913 0.039397
v -0.028351 -0.444913 0.105806
v 0.000000 -0.444913 0.109539
v -0.000000 -0.444913 -0.040787
v 0.010556 -0.444913 -0.039397
v 0.028351 -0.444913 -0.105806
v -0.000000 -0.444913 -0.109538
v 0.040787 -0.444913 0.000000
v 0.109538 -0.444913 0.000000
v 0.010556 -0.444913 0.039397
v 0.028351 -0.444913 0.105806
v -0.035323 -0.444913 0.020394
v -0.094863 -0.444913 0.054769
v -0.010556 -0.444913 -0.039397
v -0.028351 -0.444913 -0.105806
v -0.040787 -0.444913 0.000000
v -0.109538 -0.444913 0.000000
v -0.029612 -0.449746 0.110515
v -0.029612 -0.456947 0.110515
v -0.000000 -0.449746 -0.114413
v -0.000000 -0.456947 -0.114413
v 0.080902 -0.449746 0.080902
v 0.080902 -0.456947 0.080902
v -0.114413 -0.449746 0.000000
v -0.114413 -0.456947 0.000000
v -0.110515 -0.449746 -0.029612
v -0.099085 -0.449746 -0.057206
v -0.099085 -0.456947 -0.057206
v -0.110515 -0.456947 -0.029612
v 0.110515 -0.449746 -0.029612
v 0.110515 -0.456947 -0.029612
v -0.057207 -0.449746 0.099085
v -0.057207 -0.456947 0.099085
v -0.039397 0.455392 -0.010557
v -0.040787 0.455392 -0.000000
v -0.039219 0.456947 -0.000000
v -0.037882 0.456947 -0.010151
v -0.035323 0.455392 -0.020394
v -0.033964 0.456947 -0.019609
v -0.028841 0.455392 -0.028841
v -0.027732 0.456947 -0.027732
v -0.020394 0.455392 -0.035323
v -0.019609 0.456947 -0.033965
v -0.010556 0.455392 -0.039397
v -0.010151 0.456947 -0.037883
v -0.000000 0.455392 -0.040787
v -0.000000 0.456947 -0.039219
v 0.010556 0.455392 -0.039397
v 0.010151 0.456947 -0.037883
v 0.020394 0.455392 -0.035323
v 0.019609 0.456947 -0.033965
v 0.028841 0.455392 -0.028841
v 0.027732 0.456947 -0.027732
v 0.035323 0.455392 -0.020394
v 0.033964 0.456947 -0.019609
v 0.039397 0.455392 -0.010557
v 0.037882 0.456947 -0.010151
v 0.040787 0.455392 -0.000000
v 0.039219 0.456947 -0.000000
v 0.039397 0.455392 0.010556
v 0.037882 0.456947 0.010150
v 0.035323 0.455392 0.020393
v 0.033964 0.456947 0.019609
v 0.028841 0.455392 0.028841
v 0.027732 0.456947 0.027732
v 0.020394 0.455392 0.035323
v 0.019609 0.456947 0.033964
v 0.010556 0.455392 0.039397
v 0.010151 0.456947 0.037882
v 0.000000 0.455392 0.040787
v 0.000000 0.456947 0.039219
v -0.010556 0.455392 0.039397
v -0.010151 0.456947 0.037882
v -0.020394 0.455392 0.035323
v -0.019609 0.456947 0.033964
v -0.028841 0.455392 0.028841
v -0.027732 0.456947 0.027732
v -0.035323 0.455392 0.020393
v -0.033964 0.456947 0.019609
v -0.039397 0.455392 0.010556
v -0.035323 0.455392 0.020393
v -0.037882 0.456947 0.010150
v -0.039397 0.455392 0.010556
v -0.040787 0.438217 -0.000000
v -0.040787 0.455392 -0.000000
v -0.109538 -0.444913 0.000000
v -0.105806 -0.444913 -0.028350
v -0.110515 -0.449746 -0.029612
v -0.114413 -0.449746 0.000000
v -0.094863 -0.444913 -0.054769
v -0.099085 -0.449746 -0.057206
v -0.077455 -0.444913 -0.077455
v -0.080902 -0.449746 -0.080902
v -0.054769 -0.444913 -0.094863
v -0.057207 -0.449746 -0.099084
v -0.028351 -0.444913 -0.105806
v -0.029612 -0.449746 -0.110514
v -0.000000 -0.444913 -0.109538
v -0.000000 -0.449746 -0.114413
v 0.028351 -0.444913 -0.105806
v 0.029612 -0.449746 -0.110514
v 0.054769 -0.444913 -0.094863
v 0.057207 -0.449746 -0.099084
v 0.077455 -0.444913 -0.077455
v 0.080902 -0.449746 -0.080902
v 0.094863 -0.444913 -0.054769
v 0.099085 -0.449746 -0.057206
v 0.105806 -0.444913 -0.028350
v 0.110515 -0.449746 -0.029612
v 0.109538 -0.444913 0.000000
v 0.114413 -0.449746 0.000000
v 0.105806 -0.444913 0.028351
v 0.110515 -0.449746 0.029612
v 0.094863 -0.444913 0.054769
v 0.099085 -0.449746 0.057207
v 0.077455 -0.444913 0.077455
v 0.080902 -0.449746 0.080902
v 0.054769 -0.444913 0.094863
v 0.057207 -0.449746 0.099085
v 0.028351 -0.444913 0.105806
v 0.029612 -0.449746 0.110515
v 0.000000 -0.444913 0.109539
v 0.000000 -0.449746 0.114413
v -0.028351 -0.444913 0.105806
v -0.029612 -0.449746 0.110515
v -0.054769 -0.444913 0.094863
v -0.057207 -0.449746 0.099085
v -0.077455 -0.444913 0.077455
v -0.080902 -0.449746 0.080902
v -0.094863 -0.444913 0.054769
v -0.099085 -0.449746 0.057207
v -0.105806 -0.444913 0.028351
v -0.110515 -0.449746 0.029612
v -0.109538 -0.444913 0.000000
v -0.114413 -0.449746 0.000000
v -0.114413 -0.449746 0.000000
v -0.114413 -0.456947 0.000000
v -0.037882 0.456947 -0.010151
v -0.039219 0.456947 -0.000000
v -0.037882 0.456947 0.010150
v -0.033964 0.456947 0.019609
v -0.027732 0.456947 0.027732
v -0.019609 0.456947 0.033964
v -0.010151 0.456947 0.037882
v 0.000000 0.456947 0.039219
v 0.010151 0.456947 0.037882
v 0.019609 0.456947 0.033964
v 0.027732 0.456947 0.027732
v 0.033964 0.456947 0.019609
v 0.037882 0.456947 0.010150
v 0.039219 0.456947 -0.000000
v 0.037882 0.456947 -0.010151
v 0.033964 0.456947 -0.019609
v 0.027732 0.456947 -0.027732
v 0.019609 0.456947 -0.033965
v 0.010151 0.456947 -0.037883
v -0.000000 0.456947 -0.039219
v -0.010151 0.456947 -0.037883
v -0.019609 0.456947 -0.033965
v -0.027732 0.456947 -0.027732
v -0.033964 0.456947 -0.019609
vn -0.0000 -1.0000 -0.0000
vn -1.0000 -0.0000 -0.0000
vn -0.9659 -0.0000 -0.2588
vn -0.8660 -0.0000 -0.5000
vn -0.7071 -0.0000 -0.7071
vn -0.5000 -0.0000 -0.8660
vn -0.2588 -0.0000 -0.9659
vn -0.0000 -0.0000 -1.0000
vn 0.2588 -0.0000 -0.9659
vn 0.5000 -0.0000 -0.8660
vn 0.7071 -0.0000 -0.7071
vn 0.8660 -0.0000 -0.5000
vn 0.9659 -0.0000 -0.2588
vn 1.0000 -0.0000 -0.0000
vn 0.9659 -0.0000 0.2588
vn 0.8660 -0.0000 0.5000
vn 0.7071 -0.0000 0.7071
vn 0.5000 -0.0000 0.8660
vn 0.2588 -0.0000 0.9659
vn -0.0000 -0.0000 1.0000
vn -0.2588 -0.0000 0.9659
vn -0.5000 -0.0000 0.8660
vn -0.7071 -0.0000 0.7071
vn -0.8660 -0.0000 0.5000
vn -0.9659 -0.0000 0.2588
vn -0.0000 1.0000 -0.0000
vn -0.6801 0.7101 -0.1822
vn -0.7041 0.7101 -0.0000
vn -0.6097 0.7101 -0.3520
vn -0.4978 0.7101 -0.4979
vn -0.4978 0.7101 -0.4978
vn -0.3520 0.7101 -0.6097
vn -0.1822 0.7101 -0.6801
vn -0.0000 0.7101 -0.7041
vn 0.1822 0.7101 -0.6801
vn 0.3520 0.7101 -0.6097
vn 0.4978 0.7101 -0.4978
vn 0.6097 0.7101 -0.3520
vn 0.6801 0.7101 -0.1822
vn 0.7041 0.7101 -0.0000
vn 0.6801 0.7101 0.1822
vn 0.6097 0.7101 0.3520
vn 0.4978 0.7101 0.4979
vn 0.4978 0.7101 0.4978
vn 0.3520 0.7101 0.6097
vn 0.1822 0.7101 0.6801
vn -0.0000 0.7101 0.7041
vn -0.1822 0.7101 0.6801
vn -0.3520 0.7101 0.6097
vn -0.4979 0.7101 0.4978
vn -0.4978 0.7101 0.4978
vn -0.6097 0.7101 0.3521
vn -0.6801 0.7101 0.1823
vn -0.6098 0.7101 0.3520
vn -0.6097 0.7101 0.3520
vn -0.6801 0.7101 0.1822
vn 0.4979 0.7101 -0.4978
vt 0.722084 0.405709
vt 0.722083 0.405709
vt 0.782525 0.404615
vt 0.782524 0.404615
s 0
usemtl AIRPORT
f 1/1/1 2/1/1 3/1/1
f 1/1/1 4/1/1 5/1/1
f 1/1/1 6/1/1 2/1/1
f 1/1/1 7/1/1 4/1/1
f 1/1/1 8/1/1 6/1/1
f 1/1/1 9/1/1 7/1/1
f 1/1/1 10/1/1 9/1/1
f 1/1/1 11/1/1 10/1/1
f 1/1/1 12/1/1 11/1/1
f 1/1/1 13/1/1 8/1/1
f 1/1/1 14/1/1 12/1/1
f 1/1/1 15/1/1 13/1/1
f 1/1/1 5/1/1 16/1/1
f 1/1/1 3/1/1 17/1/1
f 1/1/1 16/1/1 18/1/1
f 1/1/1 17/1/1 19/1/1
f 1/1/1 18/1/1 20/1/1
f 1/1/1 19/1/1 21/1/1
f 1/1/1 20/1/1 22/1/1
f 1/1/1 21/1/1 23/1/1
f 1/1/1 22/1/1 24/1/1
f 1/1/1 23/1/1 25/1/1
f 1/1/1 24/1/1 15/1/1
f 1/1/1 25/1/1 14/1/1
s 1
f 26/2/2 27/2/2 28/1/3
f 26/2/2 28/1/3 29/1/3
f 29/1/3 28/1/3 30/1/4
f 29/1/3 30/1/4 31/1/4
f 31/1/4 30/1/4 32/1/5
f 31/1/4 32/1/5 33/1/5
f 33/1/5 32/1/5 34/1/6
f 33/1/5 34/1/6 35/1/6
f 35/1/6 34/1/6 36/1/7
f 35/1/6 36/1/7 37/1/7
f 37/1/7 36/1/7 38/1/8
f 37/1/7 38/1/8 39/1/8
f 39/1/8 38/1/8 40/1/9
f 39/1/8 40/1/9 41/1/9
f 41/1/9 40/1/9 42/1/10
f 41/1/9 42/1/10 43/1/10
f 43/1/10 42/1/10 44/1/11
f 43/1/10 44/1/11 45/1/11
f 45/1/11 44/1/11 46/1/12
f 45/1/11 46/1/12 47/1/12
f 47/1/12 46/1/12 48/1/13
f 47/1/12 48/1/13 49/1/13
f 49/1/13 48/1/13 50/1/14
f 49/1/13 50/1/14 51/1/14
f 51/1/14 50/1/14 52/1/15
f 51/1/14 52/1/15 53/1/15
f 53/1/15 52/1/15 54/1/16
f 53/1/15 54/1/16 55/1/16
f 55/1/16 54/1/16 56/1/17
f 55/1/16 56/1/17 57/1/17
f 57/1/17 56/1/17 58/1/18
f 57/1/17 58/1/18 59/1/18
f 59/1/18 58/1/18 60/1/19
f 59/1/18 60/1/19 61/1/19
f 61/1/19 60/1/19 62/2/20
f 61/1/19 62/2/20 63/2/20
f 63/2/20 62/2/20 64/1/21
f 63/2/20 64/1/21 65/1/21
f 65/1/21 64/1/21 66/1/22
f 65/1/21 66/1/22 67/1/22
f 67/1/22 66/1/22 68/1/23
f 67/1/22 68/1/23 69/1/23
f 69/1/23 68/1/23 70/2/24
f 69/1/23 70/2/24 71/2/24
f 72/3/25 73/4/24 74/4/24
f 72/3/25 74/4/24 75/3/25
f 71/2/24 70/2/24 76/1/25
f 71/2/24 76/1/25 77/1/25
f 77/1/25 76/1/25 78/1/2
f 77/1/25 78/1/2 79/1/2
f 80/3/2 72/3/25 75/3/25
f 80/3/2 75/3/25 81/3/2
f 82/3/8 83/3/7 84/3/7
f 82/3/8 84/3/7 85/3/8
f 86/3/13 87/3/12 88/3/12
f 86/3/13 88/3/12 89/3/13
f 90/3/18 91/3/17 92/3/17
f 90/3/18 92/3/17 93/3/18
f 94/3/23 95/3/22 96/3/22
f 94/3/23 96/3/22 97/3/23
f 98/3/6 99/3/5 100/3/5
f 98/3/6 100/3/5 101/3/6
f 102/3/11 103/3/10 104/3/10
f 102/3/11 104/3/10 105/3/11
f 106/3/16 107/3/15 108/3/15
f 106/3/16 108/3/15 109/3/16
f 110/3/21 111/4/20 112/4/20
f 110/3/21 112/4/20 113/3/21
f 114/3/9 82/3/8 85/3/8
f 114/3/9 85/3/8 115/3/9
f 116/3/14 86/3/13 89/3/13
f 116/3/14 89/3/13 117/3/14
f 118/3/19 90/3/18 93/3/18
f 118/3/19 93/3/18 119/3/19
f 73/4/24 94/3/23 97/3/23
f 73/4/24 97/3/23 120/3/24
f 83/3/7 98/3/6 101/3/6
f 83/3/7 101/3/6 84/3/7
f 87/3/12 102/3/11 105/3/11
f 87/3/12 105/3/11 88/3/12
f 91/3/17 106/3/16 109/3/16
f 91/3/17 109/3/16 92/3/17
f 95/3/22 110/3/21 113/3/21
f 95/3/22 113/3/21 96/3/22
f 121/3/4 122/3/3 123/3/3
f 121/3/4 123/3/3 124/3/4
f 99/3/5 121/3/4 124/3/4
f 99/3/5 124/3/4 100/3/5
f 103/3/10 114/3/9 115/3/9
f 103/3/10 115/3/9 104/3/10
f 107/3/15 116/3/14 117/3/14
f 107/3/15 117/3/14 108/3/15
f 111/4/20 118/3/19 119/3/19
f 111/4/20 119/3/19 112/4/20
f 125/1/11 126/1/12 127/1/12
f 125/1/11 127/1/12 128/1/11
s 0
f 129/1/26 130/1/26 131/1/26
f 129/1/26 131/1/26 132/1/26
s 1
f 133/2/24 134/1/25 135/1/25
f 133/2/24 135/1/25 136/2/24
f 137/1/15 138/1/16 139/1/16
f 137/1/15 139/1/16 140/1/15
f 141/1/6 142/1/7 143/1/7
f 141/1/6 143/1/7 144/1/6
f 145/1/19 146/1/20 147/2/20
f 145/1/19 147/2/20 148/1/19
f 149/1/10 125/1/11 128/1/11
f 149/1/10 128/1/11 150/1/10
f 151/1/23 133/2/24 136/2/24
f 151/1/23 136/2/24 152/1/23
f 153/1/14 137/1/15 140/1/15
f 153/1/14 140/1/15 154/1/14
f 155/1/5 141/1/6 144/1/6
f 155/1/5 144/1/6 156/1/5
f 157/1/18 145/1/19 148/1/19
f 157/1/18 148/1/19 158/1/18
f 159/1/9 149/1/10 150/1/10
f 159/1/9 150/1/10 160/1/9
s 0
f 161/1/26 162/1/26 163/1/26
f 161/1/26 163/1/26 164/1/26
f 165/1/26 166/1/26 167/1/26
f 165/1/26 167/1/26 168/1/26
f 169/1/26 170/1/26 171/1/26
f 169/1/26 171/1/26 172/1/26
f 173/1/26 174/1/26 175/1/26
f 173/1/26 175/1/26 176/1/26
f 177/1/26 178/1/26 179/1/26
f 177/1/26 179/1/26 180/1/26
f 181/1/26 182/1/26 183/1/26
f 181/1/26 183/1/26 184/1/26
f 185/1/26 186/1/26 187/1/26
f 185/1/26 187/1/26 188/1/26
f 189/2/26 190/1/26 191/1/26
f 189/2/26 191/1/26 192/2/26
f 193/1/26 194/1/26 195/1/26
f 193/1/26 195/1/26 196/1/26
f 162/1/26 197/1/26 198/1/26
f 162/1/26 198/1/26 163/1/26
f 166/1/26 199/1/26 200/1/26
f 166/1/26 200/1/26 167/1/26
f 170/1/26 201/2/26 202/2/26
f 170/1/26 202/2/26 171/1/26
f 174/1/26 203/1/26 204/1/26
f 174/1/26 204/1/26 175/1/26
f 178/1/26 161/1/26 164/1/26
f 178/1/26 164/1/26 179/1/26
f 186/1/26 165/1/26 168/1/26
f 186/1/26 168/1/26 187/1/26
f 190/1/26 169/1/26 172/1/26
f 190/1/26 172/1/26 191/1/26
f 205/2/26 129/1/26 132/1/26
f 205/2/26 132/1/26 206/2/26
f 130/1/26 173/1/26 176/1/26
f 130/1/26 176/1/26 131/1/26
f 194/1/26 177/1/26 180/1/26
f 194/1/26 180/1/26 195/1/26
f 197/1/26 185/1/26 188/1/26
f 197/1/26 188/1/26 198/1/26
f 199/1/26 189/2/26 192/2/26
f 199/1/26 192/2/26 200/1/26
f 201/2/26 181/1/26 184/1/26
f 201/2/26 184/1/26 202/2/26
f 203/1/26 193/1/26 196/1/26
f 203/1/26 196/1/26 204/1/26
s 1
f 146/1/20 207/1/21 208/1/21
f 146/1/20 208/1/21 147/2/20
f 142/1/7 209/1/8 210/1/8
f 142/1/7 210/1/8 143/1/7
f 138/1/16 211/1/17 212/1/17
f 138/1/16 212/1/17 139/1/16
f 134/1/25 213/1/2 214/1/2
f 134/1/25 214/1/2 135/1/25
f 215/1/3 216/1/4 217/1/4
f 215/1/3 217/1/4 218/1/3
f 126/1/12 219/1/13 220/1/13
f 126/1/12 220/1/13 127/1/12
f 207/1/21 221/1/22 222/1/22
f 207/1/21 222/1/22 208/1/21
f 209/1/8 159/1/9 160/1/9
f 209/1/8 160/1/9 210/1/8
f 211/1/17 157/1/18 158/1/18
f 211/1/17 158/1/18 212/1/17
f 216/1/4 155/1/5 156/1/5
f 216/1/4 156/1/5 217/1/4
f 219/1/13 153/1/14 154/1/14
f 219/1/13 154/1/14 220/1/13
f 221/1/22 151/1/23 152/1/23
f 221/1/22 152/1/23 222/1/22
f 223/3/27 224/3/28 225/3/28
f 223/3/27 225/3/28 226/3/27
f 227/3/29 223/3/27 226/3/27
f 227/3/29 226/3/27 228/3/29
f 229/3/30 227/3/29 228/3/29
f 229/3/30 228/3/29 230/3/31
f 231/3/32 229/3/30 230/3/31
f 231/3/32 230/3/31 232/3/32
f 233/3/33 231/3/32 232/3/32
f 233/3/33 232/3/32 234/3/33
f 235/3/34 233/3/33 234/3/33
f 235/3/34 234/3/33 236/3/34
f 237/3/35 235/3/34 236/3/34
f 237/3/35 236/3/34 238/3/35
f 239/3/36 237/3/35 238/3/35
f 239/3/36 238/3/35 240/3/36
f 241/3/37 239/3/36 240/3/36
f 241/3/37 240/3/36 242/3/37
f 243/3/38 241/3/37 242/3/37
f 243/3/38 242/3/37 244/3/38
f 245/3/39 243/3/38 244/3/38
f 245/3/39 244/3/38 246/3/39
f 247/3/40 245/3/39 246/3/39
f 247/3/40 246/3/39 248/3/40
f 249/3/41 247/3/40 248/3/40
f 249/3/41 248/3/40 250/3/41
f 251/3/42 249/3/41 250/3/41
f 251/3/42 250/3/41 252/3/42
f 253/4/43 251/3/42 252/3/42
f 253/4/43 252/3/42 254/3/44
f 255/4/45 253/4/43 254/3/44
f 255/4/45 254/3/44 256/3/45
f 257/3/46 255/4/45 256/3/45
f 257/3/46 256/3/45 258/3/46
f 259/4/47 257/3/46 258/3/46
f 259/4/47 258/3/46 260/3/47
f 261/3/48 259/4/47 260/3/47
f 261/3/48 260/3/47 262/4/48
f 263/4/49 261/3/48 262/4/48
f 263/4/49 262/4/48 264/3/49
f 265/4/50 263/4/49 264/3/49
f 265/4/50 264/3/49 266/3/51
f 267/3/52 265/4/50 266/3/51
f 267/3/52 266/3/51 268/3/52
f 269/3/53 270/4/54 268/3/55
f 269/3/53 268/3/55 271/3/53
f 224/3/28 272/4/56 271/3/56
f 224/3/28 271/3/56 225/3/28
f 122/3/3 273/4/2 274/4/2
f 122/3/3 274/4/2 123/3/3
f 275/2/28 276/1/27 277/1/27
f 275/2/28 277/1/27 278/2/28
f 276/1/27 279/1/29 280/1/29
f 276/1/27 280/1/29 277/1/27
f 279/1/29 281/1/31 282/1/30
f 279/1/29 282/1/30 280/1/29
f 281/1/31 283/1/32 284/1/32
f 281/1/31 284/1/32 282/1/30
f 283/1/32 285/1/33 286/1/33
f 283/1/32 286/1/33 284/1/32
f 285/1/33 287/1/34 288/1/34
f 285/1/33 288/1/34 286/1/33
f 287/1/34 289/1/35 290/1/35
f 287/1/34 290/1/35 288/1/34
f 289/1/35 291/1/36 292/1/36
f 289/1/35 292/1/36 290/1/35
f 291/1/36 293/1/37 294/1/57
f 291/1/36 294/1/57 292/1/36
f 293/1/37 295/1/38 296/1/38
f 293/1/37 296/1/38 294/1/57
f 295/1/38 297/1/39 298/1/39
f 295/1/38 298/1/39 296/1/38
f 297/1/39 299/1/40 300/1/40
f 297/1/39 300/1/40 298/1/39
f 299/1/40 301/1/41 302/1/41
f 299/1/40 302/1/41 300/1/40
f 301/1/41 303/1/42 304/1/42
f 301/1/41 304/1/42 302/1/41
f 303/1/42 305/1/44 306/1/43
f 303/1/42 306/1/43 304/1/42
f 305/1/44 307/1/45 308/1/45
f 305/1/44 308/1/45 306/1/43
f 307/1/45 309/1/46 310/1/46
f 307/1/45 310/1/46 308/1/45
f 309/1/46 311/2/47 312/1/47
f 309/1/46 312/1/47 310/1/46
f 311/2/47 313/1/48 314/1/48
f 311/2/47 314/1/48 312/1/47
f 313/1/48 315/1/49 316/1/49
f 313/1/48 316/1/49 314/1/48
f 315/1/49 317/1/51 318/1/50
f 315/1/49 318/1/50 316/1/49
f 317/1/51 319/2/55 320/2/55
f 317/1/51 320/2/55 318/1/50
f 319/2/55 321/1/56 322/1/56
f 319/2/55 322/1/56 320/2/55
f 321/1/56 323/1/28 324/1/28
f 321/1/56 324/1/28 322/1/56
f 325/2/2 215/1/3 218/1/3
f 325/2/2 218/1/3 326/2/2
s 0
f 329/3/26 327/3/26 328/3/26
f 327/3/26 329/3/26 330/3/26
f 327/3/26 330/3/26 350/3/26
f 350/3/26 330/3/26 331/3/26
f 350/3/26 331/3/26 349/3/26
f 349/3/26 331/3/26 348/3/26
f 348/3/26 331/3/26 332/3/26
f 348/3/26 332/3/26 347/3/26
f 347/3/26 332/3/26 333/4/26
f 347/3/26 333/4/26 346/3/26
f 346/3/26 333/4/26 334/3/26
f 346/3/26 334/3/26 345/3/26
f 345/3/26 334/3/26 335/3/26
f 345/3/26 335/3/26 344/3/26
f 344/3/26 335/3/26 336/3/26
f 344/3/26 336/3/26 343/3/26
f 343/3/26 336/3/26 337/3/26
f 343/3/26 337/3/26 342/3/26
f 342/3/26 337/3/26 338/3/26
f 342/3/26 338/3/26 339/3/26
f 342/3/26 339/3/26 341/3/26
f 341/3/26 339/3/26 340/3/26
