# Blender 5.2.0 LTS
# www.blender.org
mtllib 17_9_1_Model_AIRPORT_0.mtl
o 17.9.1.Model_AIRPORT_0
v 0.000000 -0.456946 0.651277
v -0.099085 -0.456946 0.594071
v -0.080902 -0.456946 0.570375
v 0.080902 -0.456946 0.732179
v 0.057207 -0.456946 0.750362
v -0.110515 -0.456946 0.621665
v 0.099085 -0.456946 0.708484
v -0.114413 -0.456946 0.651277
v 0.110515 -0.456946 0.680889
v 0.114413 -0.456946 0.651277
v 0.110515 -0.456946 0.621665
v 0.099085 -0.456946 0.594071
v -0.110515 -0.456946 0.680889
v 0.080902 -0.456946 0.570375
v -0.099085 -0.456946 0.708484
v 0.029612 -0.456946 0.761792
v -0.057207 -0.456946 0.552193
v 0.000000 -0.456946 0.765690
v -0.029612 -0.456946 0.540763
v -0.029612 -0.456946 0.761792
v -0.000000 -0.456946 0.536864
v -0.057207 -0.456946 0.750362
v 0.029612 -0.456946 0.540763
v -0.080902 -0.456946 0.732179
v 0.057207 -0.456946 0.552193
v -0.040787 -0.444912 0.651277
v -0.040787 0.438217 0.651277
v -0.039397 0.438217 0.640720
v -0.039397 -0.444912 0.640721
v -0.035323 0.438217 0.630883
v -0.035323 -0.444913 0.630884
v -0.028841 0.438217 0.622436
v -0.028841 -0.444913 0.622436
v -0.020394 0.438217 0.615954
v -0.020394 -0.444913 0.615954
v -0.010556 0.438217 0.611880
v -0.010556 -0.444913 0.611880
v -0.000000 0.438217 0.610490
v -0.000000 -0.444913 0.610490
v 0.010556 0.438217 0.611880
v 0.010556 -0.444913 0.611880
v 0.020394 0.438217 0.615954
v 0.020394 -0.444913 0.615954
v 0.028841 0.438217 0.622436
v 0.028841 -0.444913 0.622436
v 0.035323 0.438217 0.630883
v 0.035323 -0.444913 0.630884
v 0.039397 0.438217 0.640720
v 0.039397 -0.444912 0.640721
v 0.040787 0.438217 0.651277
v 0.040787 -0.444912 0.651277
v 0.039397 0.438217 0.661833
v 0.039397 -0.444912 0.661834
v 0.035323 0.438217 0.671670
v 0.035323 -0.444912 0.671671
v 0.028841 0.438217 0.680118
v 0.028841 -0.444912 0.680118
v 0.020394 0.438217 0.686600
v 0.020394 -0.444912 0.686600
v 0.010556 0.438217 0.690674
v 0.010556 -0.444912 0.690674
v 0.000000 0.438217 0.692064
v 0.000000 -0.444912 0.692064
v -0.010556 0.438217 0.690674
v -0.010556 -0.444912 0.690674
v -0.020394 0.438217 0.686600
v -0.020394 -0.444912 0.686600
v -0.028841 0.438217 0.680118
v -0.028841 -0.444912 0.680118
v -0.035323 0.438217 0.671670
v -0.035323 -0.444912 0.671671
v -0.039397 0.438217 0.661833
v -0.035323 0.438217 0.671670
v -0.035323 0.455392 0.671670
v -0.039397 0.455392 0.661833
v -0.039397 0.438217 0.661833
v -0.039397 -0.444912 0.661834
v -0.040787 0.438217 0.651277
v -0.040787 -0.444912 0.651277
v -0.040787 0.438217 0.651277
v -0.040787 0.455392 0.651277
v -0.000000 0.438217 0.610490
v -0.010556 0.438217 0.611880
v -0.010556 0.455392 0.611880
v -0.000000 0.455392 0.610490
v 0.039397 0.438217 0.640720
v 0.035323 0.438217 0.630883
v 0.035323 0.455392 0.630883
v 0.039397 0.455392 0.640720
v 0.020394 0.438217 0.686600
v 0.028841 0.438217 0.680118
v 0.028841 0.455392 0.680118
v 0.020394 0.455392 0.686600
v -0.028841 0.438217 0.680118
v -0.020394 0.438217 0.686600
v -0.020394 0.455392 0.686600
v -0.028841 0.455392 0.680118
v -0.020394 0.438217 0.615954
v -0.028841 0.438217 0.622436
v -0.028841 0.455392 0.622436
v -0.020394 0.455392 0.615954
v 0.028841 0.438217 0.622436
v 0.020394 0.438217 0.615954
v 0.020394 0.455392 0.615954
v 0.028841 0.455392 0.622436
v 0.035323 0.438217 0.671670
v 0.039397 0.438217 0.661833
v 0.039397 0.455392 0.661833
v 0.035323 0.455392 0.671670
v -0.010556 0.438217 0.690674
v 0.000000 0.438217 0.692064
v 0.000000 0.455392 0.692064
v -0.010556 0.455392 0.690674
v 0.010556 0.438217 0.611880
v 0.010556 0.455392 0.611880
v 0.040787 0.438217 0.651277
v 0.040787 0.455392 0.651277
v 0.010556 0.438217 0.690674
v 0.010556 0.455392 0.690674
v -0.035323 0.455392 0.671670
v -0.035323 0.438217 0.630883
v -0.039397 0.438217 0.640720
v -0.039397 0.455392 0.640720
v -0.035323 0.455392 0.630883
v 0.080902 -0.449745 0.570375
v 0.099085 -0.449745 0.594071
v 0.099085 -0.456946 0.594071
v 0.080902 -0.456946 0.570375
v -0.039397 -0.444912 0.640721
v -0.035323 -0.444913 0.630884
v -0.094863 -0.444913 0.596508
v -0.105806 -0.444913 0.622927
v -0.099085 -0.449745 0.708484
v -0.110515 -0.449745 0.680889
v -0.110515 -0.456946 0.680889
v -0.099085 -0.456946 0.708484
v 0.110515 -0.449745 0.680889
v 0.099085 -0.449745 0.708484
v 0.099085 -0.456946 0.708484
v 0.110515 -0.456946 0.680889
v -0.057207 -0.449745 0.552193
v -0.029612 -0.449745 0.540763
v -0.029612 -0.456946 0.540763
v -0.057207 -0.456946 0.552193
v 0.029612 -0.449745 0.761792
v 0.000000 -0.449745 0.765690
v 0.000000 -0.456946 0.765690
v 0.029612 -0.456946 0.761792
v 0.057207 -0.449745 0.552193
v 0.057207 -0.456946 0.552193
v -0.080902 -0.449745 0.732179
v -0.080902 -0.456946 0.732179
v 0.114413 -0.449745 0.651277
v 0.114413 -0.456946 0.651277
v -0.080902 -0.449745 0.570375
v -0.080902 -0.456946 0.570375
v 0.057207 -0.449745 0.750362
v 0.057207 -0.456946 0.750362
v 0.029612 -0.449745 0.540763
v 0.029612 -0.456946 0.540763
v 0.035323 -0.444913 0.630884
v 0.039397 -0.444912 0.640721
v 0.105806 -0.444913 0.622927
v 0.094863 -0.444913 0.596508
v 0.028841 -0.444912 0.680118
v 0.020394 -0.444912 0.686600
v 0.054769 -0.444912 0.746140
v 0.077455 -0.444912 0.728732
v -0.020394 -0.444912 0.686600
v -0.028841 -0.444912 0.680118
v -0.077455 -0.444912 0.728732
v -0.054769 -0.444912 0.746140
v -0.028841 -0.444913 0.622436
v -0.020394 -0.444913 0.615954
v -0.054769 -0.444913 0.556414
v -0.077455 -0.444913 0.573822
v 0.020394 -0.444913 0.615954
v 0.028841 -0.444913 0.622436
v 0.077455 -0.444913 0.573822
v 0.054769 -0.444913 0.556414
v -0.039397 -0.444912 0.661834
v -0.040787 -0.444912 0.651277
v -0.109538 -0.444912 0.651277
v -0.105806 -0.444912 0.679628
v 0.039397 -0.444912 0.661834
v 0.035323 -0.444912 0.671671
v 0.094863 -0.444912 0.706046
v 0.105806 -0.444912 0.679628
v 0.000000 -0.444912 0.692064
v -0.010556 -0.444912 0.690674
v -0.028351 -0.444912 0.757083
v 0.000000 -0.444912 0.760816
v -0.000000 -0.444913 0.610490
v 0.010556 -0.444913 0.611880
v 0.028351 -0.444913 0.545471
v -0.000000 -0.444913 0.541739
v 0.040787 -0.444912 0.651277
v 0.109538 -0.444912 0.651277
v 0.010556 -0.444912 0.690674
v 0.028351 -0.444912 0.757083
v -0.035323 -0.444912 0.671671
v -0.094863 -0.444912 0.706046
v -0.010556 -0.444913 0.611880
v -0.028351 -0.444913 0.545471
v -0.040787 -0.444912 0.651277
v -0.109538 -0.444912 0.651277
v -0.029612 -0.449745 0.761792
v -0.029612 -0.456946 0.761792
v -0.000000 -0.449745 0.536864
v -0.000000 -0.456946 0.536864
v 0.080902 -0.449745 0.732179
v 0.080902 -0.456946 0.732179
v -0.114413 -0.449745 0.651277
v -0.114413 -0.456946 0.651277
v -0.110515 -0.449745 0.621665
v -0.099085 -0.449745 0.594071
v -0.099085 -0.456946 0.594071
v -0.110515 -0.456946 0.621665
v 0.110515 -0.449745 0.621665
v 0.110515 -0.456946 0.621665
v -0.057207 -0.449745 0.750362
v -0.057207 -0.456946 0.750362
v -0.039397 0.455392 0.640720
v -0.040787 0.455392 0.651277
v -0.039219 0.456947 0.651277
v -0.037882 0.456947 0.641126
v -0.035323 0.455392 0.630883
v -0.033964 0.456947 0.631668
v -0.028841 0.455392 0.622436
v -0.027732 0.456947 0.623545
v -0.020394 0.455392 0.615954
v -0.019609 0.456947 0.617312
v -0.010556 0.455392 0.611880
v -0.010151 0.456947 0.613394
v -0.000000 0.455392 0.610490
v -0.000000 0.456947 0.612058
v 0.010556 0.455392 0.611880
v 0.010151 0.456947 0.613394
v 0.020394 0.455392 0.615954
v 0.019609 0.456947 0.617312
v 0.028841 0.455392 0.622436
v 0.027732 0.456947 0.623545
v 0.035323 0.455392 0.630883
v 0.033964 0.456947 0.631668
v 0.039397 0.455392 0.640720
v 0.037882 0.456947 0.641126
v 0.040787 0.455392 0.651277
v 0.039219 0.456947 0.651277
v 0.039397 0.455392 0.661833
v 0.037882 0.456947 0.661428
v 0.035323 0.455392 0.671670
v 0.033964 0.456947 0.670886
v 0.028841 0.455392 0.680118
v 0.027732 0.456947 0.679009
v 0.020394 0.455392 0.686600
v 0.019609 0.456947 0.685241
v 0.010556 0.455392 0.690674
v 0.010151 0.456947 0.689159
v 0.000000 0.455392 0.692064
v 0.000000 0.456947 0.690496
v -0.010556 0.455392 0.690674
v -0.010151 0.456947 0.689159
v -0.020394 0.455392 0.686600
v -0.019609 0.456947 0.685241
v -0.028841 0.455392 0.680118
v -0.027732 0.456947 0.679009
v -0.035323 0.455392 0.671670
v -0.033964 0.456947 0.670886
v -0.039397 0.455392 0.661833
v -0.035323 0.455392 0.671670
v -0.037882 0.456947 0.661428
v -0.039397 0.455392 0.661833
v -0.040787 0.438217 0.651277
v -0.040787 0.455392 0.651277
v -0.109538 -0.444912 0.651277
v -0.105806 -0.444913 0.622927
v -0.110515 -0.449745 0.621665
v -0.114413 -0.449745 0.651277
v -0.094863 -0.444913 0.596508
v -0.099085 -0.449745 0.594071
v -0.077455 -0.444913 0.573822
v -0.080902 -0.449745 0.570375
v -0.054769 -0.444913 0.556414
v -0.057207 -0.449745 0.552193
v -0.028351 -0.444913 0.545471
v -0.029612 -0.449745 0.540763
v -0.000000 -0.444913 0.541739
v -0.000000 -0.449745 0.536864
v 0.028351 -0.444913 0.545471
v 0.029612 -0.449745 0.540763
v 0.054769 -0.444913 0.556414
v 0.057207 -0.449745 0.552193
v 0.077455 -0.444913 0.573822
v 0.080902 -0.449745 0.570375
v 0.094863 -0.444913 0.596508
v 0.099085 -0.449745 0.594071
v 0.105806 -0.444913 0.622927
v 0.110515 -0.449745 0.621665
v 0.109538 -0.444912 0.651277
v 0.114413 -0.449745 0.651277
v 0.105806 -0.444912 0.679628
v 0.110515 -0.449745 0.680889
v 0.094863 -0.444912 0.706046
v 0.099085 -0.449745 0.708484
v 0.077455 -0.444912 0.728732
v 0.080902 -0.449745 0.732179
v 0.054769 -0.444912 0.746140
v 0.057207 -0.449745 0.750362
v 0.028351 -0.444912 0.757083
v 0.029612 -0.449745 0.761792
v 0.000000 -0.444912 0.760816
v 0.000000 -0.449745 0.765690
v -0.028351 -0.444912 0.757083
v -0.029612 -0.449745 0.761792
v -0.054769 -0.444912 0.746140
v -0.057207 -0.449745 0.750362
v -0.077455 -0.444912 0.728732
v -0.080902 -0.449745 0.732179
v -0.094863 -0.444912 0.706046
v -0.099085 -0.449745 0.708484
v -0.105806 -0.444912 0.679628
v -0.110515 -0.449745 0.680889
v -0.109538 -0.444912 0.651277
v -0.114413 -0.449745 0.651277
v -0.114413 -0.449745 0.651277
v -0.114413 -0.456946 0.651277
v -0.015566 0.336510 0.613133
v -0.015566 0.416417 0.613133
v -0.015566 0.416417 0.588515
v -0.015566 0.336510 0.588515
v -0.015566 0.336510 0.613133
v -0.015566 0.336510 0.588515
v 0.015566 0.336510 0.588515
v 0.015566 0.336510 0.613133
v -0.015566 0.416417 0.588515
v -0.015566 0.416417 0.613133
v 0.015566 0.416417 0.613133
v 0.015566 0.416417 0.588515
v 0.015566 0.336510 0.588515
v 0.015566 0.416417 0.588515
v 0.015566 0.416417 0.613133
v 0.015566 0.336510 0.613133
v 0.015566 0.416417 0.613133
v -0.015566 0.416417 0.613133
v -0.015566 0.336510 0.613133
v 0.015566 0.336510 0.613133
v -0.003259 0.407480 0.588515
v -0.003259 0.344177 0.588515
v -0.015566 0.336510 0.588515
v -0.015566 0.416417 0.588515
v 0.003259 0.344177 0.588515
v 0.015566 0.336510 0.588515
v 0.003259 0.407480 0.588515
v 0.015566 0.416417 0.588515
v 0.003259 0.318593 -0.009799
v -0.003259 0.318593 -0.009799
v -0.003259 0.318156 -0.076279
v 0.003259 0.318156 -0.076279
v 0.003259 0.381896 -0.009799
v 0.003259 0.318593 -0.009799
v 0.003259 0.318156 -0.076279
v 0.003259 0.381459 -0.076279
v -0.003259 0.318593 -0.009799
v -0.003259 0.381896 -0.009799
v -0.003259 0.381459 -0.076279
v -0.003259 0.318156 -0.076279
v -0.003259 0.381896 -0.009799
v 0.003259 0.381896 -0.009799
v 0.003259 0.381459 -0.076279
v -0.003259 0.381459 -0.076279
v -0.003259 0.407480 0.588515
v 0.003259 0.407480 0.588515
v 0.003259 0.400626 0.455557
v -0.003259 0.400626 0.455557
v -0.003259 0.400626 0.455557
v 0.003259 0.400626 0.455557
v 0.003259 0.393654 0.322598
v -0.003259 0.393654 0.322598
v -0.003259 0.393654 0.322598
v 0.003259 0.393654 0.322598
v 0.003259 0.387508 0.189639
v -0.003259 0.387508 0.189639
v -0.003259 0.387508 0.189639
v 0.003259 0.387508 0.189639
v 0.003259 0.383128 0.056680
v -0.003259 0.383128 0.056680
v -0.003259 0.344177 0.588515
v -0.003259 0.407480 0.588515
v -0.003259 0.400626 0.455557
v -0.003259 0.337323 0.455557
v -0.003259 0.337323 0.455557
v -0.003259 0.400626 0.455557
v -0.003259 0.393654 0.322598
v -0.003259 0.330352 0.322598
v -0.003259 0.330352 0.322598
v -0.003259 0.393654 0.322598
v -0.003259 0.387508 0.189639
v -0.003259 0.324205 0.189639
v -0.003259 0.324205 0.189639
v -0.003259 0.387508 0.189639
v -0.003259 0.383128 0.056680
v -0.003259 0.319825 0.056680
v 0.003259 0.407480 0.588515
v 0.003259 0.344177 0.588515
v 0.003259 0.337323 0.455557
v 0.003259 0.400626 0.455557
v 0.003259 0.400626 0.455557
v 0.003259 0.337323 0.455557
v 0.003259 0.330352 0.322598
v 0.003259 0.393654 0.322598
v 0.003259 0.393654 0.322598
v 0.003259 0.330352 0.322598
v 0.003259 0.324205 0.189639
v 0.003259 0.387508 0.189639
v 0.003259 0.387508 0.189639
v 0.003259 0.324205 0.189639
v 0.003259 0.319825 0.056680
v 0.003259 0.383128 0.056680
v 0.003259 0.344177 0.588515
v -0.003259 0.344177 0.588515
v -0.003259 0.337323 0.455557
v 0.003259 0.337323 0.455557
v 0.003259 0.337323 0.455557
v -0.003259 0.337323 0.455557
v -0.003259 0.330352 0.322598
v 0.003259 0.330352 0.322598
v 0.003259 0.330352 0.322598
v -0.003259 0.330352 0.322598
v -0.003259 0.324205 0.189639
v 0.003259 0.324205 0.189639
v 0.003259 0.324205 0.189639
v -0.003259 0.324205 0.189639
v -0.003259 0.319825 0.056680
v 0.003259 0.319825 0.056680
v -0.003259 0.383128 0.056680
v 0.003259 0.383128 0.056680
v 0.003259 0.381896 -0.009799
v -0.003259 0.381896 -0.009799
v -0.003259 0.319825 0.056680
v -0.003259 0.383128 0.056680
v -0.003259 0.381896 -0.009799
v -0.003259 0.318593 -0.009799
v 0.003259 0.383128 0.056680
v 0.003259 0.319825 0.056680
v 0.003259 0.318593 -0.009799
v 0.003259 0.381896 -0.009799
v 0.003259 0.319825 0.056680
v -0.003259 0.319825 0.056680
v -0.003259 0.318593 -0.009799
v 0.003259 0.318593 -0.009799
v -0.015566 0.336510 -0.765690
v -0.015566 0.336510 -0.741073
v -0.015566 0.416416 -0.741073
v -0.015566 0.416416 -0.765690
v -0.015566 0.336510 -0.765690
v 0.015566 0.336510 -0.765690
v 0.015566 0.336510 -0.741073
v -0.015566 0.336510 -0.741073
v -0.015566 0.416416 -0.741073
v 0.015566 0.416416 -0.741073
v 0.015566 0.416416 -0.765690
v -0.015566 0.416416 -0.765690
v 0.015566 0.336510 -0.741073
v 0.015566 0.336510 -0.765690
v 0.015566 0.416416 -0.765690
v 0.015566 0.416416 -0.741073
v 0.015566 0.416416 -0.765690
v 0.015566 0.336510 -0.765690
v -0.015566 0.336510 -0.765690
v -0.015566 0.416416 -0.765690
v -0.003259 0.407480 -0.741073
v -0.015566 0.416416 -0.741073
v -0.015566 0.336510 -0.741073
v -0.003259 0.344177 -0.741073
v 0.015566 0.336510 -0.741073
v 0.003259 0.344177 -0.741073
v 0.003259 0.407480 -0.741073
v 0.015566 0.416416 -0.741073
v 0.003259 0.318593 -0.142758
v 0.003259 0.318156 -0.076279
v -0.003259 0.318156 -0.076279
v -0.003259 0.318593 -0.142758
v 0.003259 0.381896 -0.142758
v 0.003259 0.381459 -0.076279
v 0.003259 0.318156 -0.076279
v 0.003259 0.318593 -0.142758
v -0.003259 0.318593 -0.142758
v -0.003259 0.318156 -0.076279
v -0.003259 0.381459 -0.076279
v -0.003259 0.381896 -0.142758
v -0.003259 0.381896 -0.142758
v -0.003259 0.381459 -0.076279
v 0.003259 0.381459 -0.076279
v 0.003259 0.381896 -0.142758
v -0.003259 0.407480 -0.741073
v -0.003259 0.400626 -0.608114
v 0.003259 0.400626 -0.608114
v 0.003259 0.407480 -0.741073
v -0.003259 0.400626 -0.608114
v -0.003259 0.393654 -0.475155
v 0.003259 0.393654 -0.475155
v 0.003259 0.400626 -0.608114
v -0.003259 0.393654 -0.475155
v -0.003259 0.387507 -0.342196
v 0.003259 0.387507 -0.342196
v 0.003259 0.393654 -0.475155
v -0.003259 0.387507 -0.342196
v -0.003259 0.383128 -0.209238
v 0.003259 0.383128 -0.209238
v 0.003259 0.387507 -0.342196
v -0.003259 0.344177 -0.741073
v -0.003259 0.337323 -0.608114
v -0.003259 0.400626 -0.608114
v -0.003259 0.407480 -0.741073
v -0.003259 0.337323 -0.608114
v -0.003259 0.330351 -0.475155
v -0.003259 0.393654 -0.475155
v -0.003259 0.400626 -0.608114
v -0.003259 0.330351 -0.475155
v -0.003259 0.324205 -0.342196
v -0.003259 0.387507 -0.342196
v -0.003259 0.393654 -0.475155
v -0.003259 0.324205 -0.342196
v -0.003259 0.319825 -0.209238
v -0.003259 0.383128 -0.209238
v -0.003259 0.387507 -0.342196
v 0.003259 0.407480 -0.741073
v 0.003259 0.400626 -0.608114
v 0.003259 0.337323 -0.608114
v 0.003259 0.344177 -0.741073
v 0.003259 0.400626 -0.608114
v 0.003259 0.393654 -0.475155
v 0.003259 0.330351 -0.475155
v 0.003259 0.337323 -0.608114
v 0.003259 0.393654 -0.475155
v 0.003259 0.387507 -0.342196
v 0.003259 0.324205 -0.342196
v 0.003259 0.330351 -0.475155
v 0.003259 0.387507 -0.342196
v 0.003259 0.383128 -0.209238
v 0.003259 0.319825 -0.209238
v 0.003259 0.324205 -0.342196
v 0.003259 0.344177 -0.741073
v 0.003259 0.337323 -0.608114
v -0.003259 0.337323 -0.608114
v -0.003259 0.344177 -0.741073
v 0.003259 0.337323 -0.608114
v 0.003259 0.330351 -0.475155
v -0.003259 0.330351 -0.475155
v -0.003259 0.337323 -0.608114
v 0.003259 0.330351 -0.475155
v 0.003259 0.324205 -0.342196
v -0.003259 0.324205 -0.342196
v -0.003259 0.330351 -0.475155
v 0.003259 0.324205 -0.342196
v 0.003259 0.319825 -0.209238
v -0.003259 0.319825 -0.209238
v -0.003259 0.324205 -0.342196
v -0.003259 0.383128 -0.209238
v -0.003259 0.381896 -0.142758
v 0.003259 0.381896 -0.142758
v 0.003259 0.383128 -0.209238
v -0.003259 0.319825 -0.209238
v -0.003259 0.318593 -0.142758
v -0.003259 0.381896 -0.142758
v -0.003259 0.383128 -0.209238
v 0.003259 0.383128 -0.209238
v 0.003259 0.381896 -0.142758
v 0.003259 0.318593 -0.142758
v 0.003259 0.319825 -0.209238
v 0.003259 0.319825 -0.209238
v 0.003259 0.318593 -0.142758
v -0.003259 0.318593 -0.142758
v -0.003259 0.319825 -0.209238
v -0.037882 0.456947 0.641126
v -0.039219 0.456947 0.651277
v -0.037882 0.456947 0.661428
v -0.033964 0.456947 0.670886
v -0.027732 0.456947 0.679009
v -0.019609 0.456947 0.685241
v -0.010151 0.456947 0.689159
v 0.000000 0.456947 0.690496
v 0.010151 0.456947 0.689159
v 0.019609 0.456947 0.685241
v 0.027732 0.456947 0.679009
v 0.033964 0.456947 0.670886
v 0.037882 0.456947 0.661428
v 0.039219 0.456947 0.651277
v 0.037882 0.456947 0.641126
v 0.033964 0.456947 0.631668
v 0.027732 0.456947 0.623545
v 0.019609 0.456947 0.617312
v 0.010151 0.456947 0.613394
v -0.000000 0.456947 0.612058
v -0.010151 0.456947 0.613394
v -0.019609 0.456947 0.617312
v -0.027732 0.456947 0.623545
v -0.033964 0.456947 0.631668
vn -0.0000 -1.0000 -0.0000
vn -1.0000 -0.0000 -0.0000
vn -0.9659 -0.0000 -0.2588
vn -0.8660 -0.0000 -0.5000
vn -0.7071 -0.0000 -0.7071
vn -0.5000 -0.0000 -0.8660
vn -0.2588 -0.0000 -0.9659
vn -0.0000 -0.0000 -1.0000
vn 0.2588 -0.0000 -0.9659
vn 0.5000 -0.0000 -0.8660
vn 0.7071 -0.0000 -0.7071
vn 0.8660 -0.0000 -0.5000
vn 0.9659 -0.0000 -0.2588
vn 1.0000 -0.0000 -0.0000
vn 0.9659 -0.0000 0.2588
vn 0.8660 -0.0000 0.5000
vn 0.7071 -0.0000 0.7071
vn 0.5000 -0.0000 0.8660
vn 0.2588 -0.0000 0.9659
vn -0.0000 -0.0000 1.0000
vn -0.2588 -0.0000 0.9659
vn -0.5000 -0.0000 0.8660
vn -0.7071 -0.0000 0.7071
vn -0.8660 -0.0000 0.5000
vn -0.9659 -0.0000 0.2588
vn -0.0000 1.0000 -0.0000
vn -0.6801 0.7101 -0.1822
vn -0.7041 0.7101 -0.0000
vn -0.6097 0.7101 -0.3520
vn -0.4978 0.7101 -0.4978
vn -0.3520 0.7102 -0.6097
vn -0.3520 0.7101 -0.6097
vn -0.1822 0.7101 -0.6801
vn -0.0000 0.7101 -0.7041
vn 0.1822 0.7101 -0.6801
vn 0.3520 0.7101 -0.6097
vn 0.4978 0.7101 -0.4978
vn 0.6097 0.7101 -0.3520
vn 0.6801 0.7101 -0.1822
vn 0.7041 0.7101 -0.0000
vn 0.6801 0.7101 0.1822
vn 0.6097 0.7101 0.3520
vn 0.4978 0.7101 0.4978
vn 0.3520 0.7101 0.6097
vn 0.1822 0.7101 0.6801
vn -0.0000 0.7102 0.7040
vn -0.1822 0.7101 0.6801
vn -0.3520 0.7101 0.6097
vn -0.4978 0.7101 0.4978
vn -0.6097 0.7101 0.3521
vn -0.6801 0.7101 0.1823
vn -0.6098 0.7101 0.3520
vn -0.6801 0.7101 0.1822
vn -0.4978 0.7101 -0.4979
vn 0.4978 0.7101 -0.4979
vn 0.4979 0.7101 -0.4979
vn 0.4978 0.7101 0.4979
vn -0.0000 0.7101 0.7041
vn -0.6097 0.7101 0.3520
vn -0.0000 -1.0000 0.0066
vn -0.0000 1.0000 -0.0066
vn -0.0000 0.9987 -0.0515
vn -0.0000 0.9986 -0.0524
vn -0.0000 0.9989 -0.0462
vn -0.0000 0.9995 -0.0329
vn -0.0000 -0.9987 0.0515
vn -0.0000 -0.9986 0.0524
vn -0.0000 -0.9989 0.0462
vn -0.0000 -0.9995 0.0329
vn -0.0000 0.9998 -0.0185
vn -0.0000 -0.9998 0.0185
vn -0.0000 -1.0000 -0.0066
vn -0.0000 1.0000 0.0066
vn -0.0000 0.9987 0.0515
vn -0.0000 0.9986 0.0524
vn -0.0000 0.9989 0.0462
vn -0.0000 0.9995 0.0329
vn -0.0000 -0.9987 -0.0515
vn -0.0000 -0.9986 -0.0524
vn -0.0000 -0.9989 -0.0462
vn -0.0000 -0.9995 -0.0329
vn -0.0000 0.9998 0.0185
vn -0.0000 -0.9998 -0.0185
vt 0.722084 0.405709
vt 0.722083 0.405709
vt 0.782525 0.404615
vt 0.782524 0.404615
vt 0.781665 0.404681
vt 0.781665 0.404681
vt 0.843094 0.404998
s 0
usemtl AIRPORT
f 1/1/1 2/1/1 3/1/1
f 1/1/1 4/1/1 5/1/1
f 1/1/1 6/1/1 2/1/1
f 1/1/1 7/1/1 4/1/1
f 1/1/1 8/1/1 6/1/1
f 1/1/1 9/1/1 7/1/1
f 1/1/1 10/1/1 9/1/1
f 1/1/1 11/1/1 10/1/1
f 1/1/1 12/1/1 11/1/1
f 1/1/1 13/1/1 8/1/1
f 1/1/1 14/1/1 12/1/1
f 1/1/1 15/1/1 13/1/1
f 1/1/1 5/1/1 16/1/1
f 1/1/1 3/1/1 17/1/1
f 1/1/1 16/1/1 18/1/1
f 1/1/1 17/1/1 19/1/1
f 1/1/1 18/1/1 20/1/1
f 1/1/1 19/1/1 21/1/1
f 1/1/1 20/1/1 22/1/1
f 1/1/1 21/1/1 23/1/1
f 1/1/1 22/1/1 24/1/1
f 1/1/1 23/1/1 25/1/1
f 1/1/1 24/1/1 15/1/1
f 1/1/1 25/1/1 14/1/1
s 1
f 26/2/2 27/2/2 28/1/3
f 26/2/2 28/1/3 29/1/3
f 29/1/3 28/1/3 30/1/4
f 29/1/3 30/1/4 31/1/4
f 31/1/4 30/1/4 32/1/5
f 31/1/4 32/1/5 33/1/5
f 33/1/5 32/1/5 34/1/6
f 33/1/5 34/1/6 35/1/6
f 35/1/6 34/1/6 36/1/7
f 35/1/6 36/1/7 37/1/7
f 37/1/7 36/1/7 38/1/8
f 37/1/7 38/1/8 39/1/8
f 39/1/8 38/1/8 40/1/9
f 39/1/8 40/1/9 41/1/9
f 41/1/9 40/1/9 42/1/10
f 41/1/9 42/1/10 43/1/10
f 43/1/10 42/1/10 44/1/11
f 43/1/10 44/1/11 45/1/11
f 45/1/11 44/1/11 46/1/12
f 45/1/11 46/1/12 47/1/12
f 47/1/12 46/1/12 48/1/13
f 47/1/12 48/1/13 49/1/13
f 49/1/13 48/1/13 50/1/14
f 49/1/13 50/1/14 51/1/14
f 51/1/14 50/1/14 52/1/15
f 51/1/14 52/1/15 53/1/15
f 53/1/15 52/1/15 54/1/16
f 53/1/15 54/1/16 55/1/16
f 55/1/16 54/1/16 56/1/17
f 55/1/16 56/1/17 57/1/17
f 57/1/17 56/1/17 58/1/18
f 57/1/17 58/1/18 59/1/18
f 59/1/18 58/1/18 60/1/19
f 59/1/18 60/1/19 61/1/19
f 61/1/19 60/1/19 62/2/20
f 61/1/19 62/2/20 63/2/20
f 63/2/20 62/2/20 64/1/21
f 63/2/20 64/1/21 65/1/21
f 65/1/21 64/1/21 66/1/22
f 65/1/21 66/1/22 67/1/22
f 67/1/22 66/1/22 68/1/23
f 67/1/22 68/1/23 69/1/23
f 69/1/23 68/1/23 70/2/24
f 69/1/23 70/2/24 71/2/24
f 72/3/25 73/4/24 74/4/24
f 72/3/25 74/4/24 75/3/25
f 71/2/24 70/2/24 76/1/25
f 71/2/24 76/1/25 77/1/25
f 77/1/25 76/1/25 78/1/2
f 77/1/25 78/1/2 79/1/2
f 80/3/2 72/3/25 75/3/25
f 80/3/2 75/3/25 81/3/2
f 82/3/8 83/3/7 84/3/7
f 82/3/8 84/3/7 85/3/8
f 86/3/13 87/3/12 88/3/12
f 86/3/13 88/3/12 89/3/13
f 90/3/18 91/3/17 92/3/17
f 90/3/18 92/3/17 93/3/18
f 94/3/23 95/3/22 96/3/22
f 94/3/23 96/3/22 97/3/23
f 98/3/6 99/3/5 100/3/5
f 98/3/6 100/3/5 101/3/6
f 102/3/11 103/3/10 104/3/10
f 102/3/11 104/3/10 105/3/11
f 106/3/16 107/3/15 108/3/15
f 106/3/16 108/3/15 109/3/16
f 110/3/21 111/4/20 112/4/20
f 110/3/21 112/4/20 113/3/21
f 114/3/9 82/3/8 85/3/8
f 114/3/9 85/3/8 115/3/9
f 116/3/14 86/3/13 89/3/13
f 116/3/14 89/3/13 117/3/14
f 118/3/19 90/3/18 93/3/18
f 118/3/19 93/3/18 119/3/19
f 73/4/24 94/3/23 97/3/23
f 73/4/24 97/3/23 120/3/24
f 83/3/7 98/3/6 101/3/6
f 83/3/7 101/3/6 84/3/7
f 87/3/12 102/3/11 105/3/11
f 87/3/12 105/3/11 88/3/12
f 91/3/17 106/3/16 109/3/16
f 91/3/17 109/3/16 92/3/17
f 95/3/22 110/3/21 113/3/21
f 95/3/22 113/3/21 96/3/22
f 121/3/4 122/3/3 123/3/3
f 121/3/4 123/3/3 124/3/4
f 99/3/5 121/3/4 124/3/4
f 99/3/5 124/3/4 100/3/5
f 103/3/10 114/3/9 115/3/9
f 103/3/10 115/3/9 104/3/10
f 107/3/15 116/3/14 117/3/14
f 107/3/15 117/3/14 108/3/15
f 111/4/20 118/3/19 119/3/19
f 111/4/20 119/3/19 112/4/20
f 125/1/11 126/1/12 127/1/12
f 125/1/11 127/1/12 128/1/11
s 0
f 129/1/26 130/1/26 131/1/26
f 129/1/26 131/1/26 132/1/26
s 1
f 133/2/24 134/1/25 135/1/25
f 133/2/24 135/1/25 136/2/24
f 137/1/15 138/1/16 139/1/16
f 137/1/15 139/1/16 140/1/15
f 141/1/6 142/1/7 143/1/7
f 141/1/6 143/1/7 144/1/6
f 145/1/19 146/1/20 147/2/20
f 145/1/19 147/2/20 148/1/19
f 149/1/10 125/1/11 128/1/11
f 149/1/10 128/1/11 150/1/10
f 151/1/23 133/2/24 136/2/24
f 151/1/23 136/2/24 152/1/23
f 153/1/14 137/1/15 140/1/15
f 153/1/14 140/1/15 154/1/14
f 155/1/5 141/1/6 144/1/6
f 155/1/5 144/1/6 156/1/5
f 157/1/18 145/1/19 148/1/19
f 157/1/18 148/1/19 158/1/18
f 159/1/9 149/1/10 150/1/10
f 159/1/9 150/1/10 160/1/9
s 0
f 161/1/26 162/1/26 163/1/26
f 161/1/26 163/1/26 164/1/26
f 165/1/26 166/1/26 167/1/26
f 165/1/26 167/1/26 168/1/26
f 169/1/26 170/1/26 171/1/26
f 169/1/26 171/1/26 172/1/26
f 173/1/26 174/1/26 175/1/26
f 173/1/26 175/1/26 176/1/26
f 177/1/26 178/1/26 179/1/26
f 177/1/26 179/1/26 180/1/26
f 181/1/26 182/1/26 183/1/26
f 181/1/26 183/1/26 184/1/26
f 185/1/26 186/1/26 187/1/26
f 185/1/26 187/1/26 188/1/26
f 189/2/26 190/1/26 191/1/26
f 189/2/26 191/1/26 192/2/26
f 193/1/26 194/1/26 195/1/26
f 193/1/26 195/1/26 196/1/26
f 162/1/26 197/1/26 198/1/26
f 162/1/26 198/1/26 163/1/26
f 166/1/26 199/1/26 200/1/26
f 166/1/26 200/1/26 167/1/26
f 170/1/26 201/2/26 202/2/26
f 170/1/26 202/2/26 171/1/26
f 174/1/26 203/1/26 204/1/26
f 174/1/26 204/1/26 175/1/26
f 178/1/26 161/1/26 164/1/26
f 178/1/26 164/1/26 179/1/26
f 186/1/26 165/1/26 168/1/26
f 186/1/26 168/1/26 187/1/26
f 190/1/26 169/1/26 172/1/26
f 190/1/26 172/1/26 191/1/26
f 205/2/26 129/1/26 132/1/26
f 205/2/26 132/1/26 206/2/26
f 130/1/26 173/1/26 176/1/26
f 130/1/26 176/1/26 131/1/26
f 194/1/26 177/1/26 180/1/26
f 194/1/26 180/1/26 195/1/26
f 197/1/26 185/1/26 188/1/26
f 197/1/26 188/1/26 198/1/26
f 199/1/26 189/2/26 192/2/26
f 199/1/26 192/2/26 200/1/26
f 201/2/26 181/1/26 184/1/26
f 201/2/26 184/1/26 202/2/26
f 203/1/26 193/1/26 196/1/26
f 203/1/26 196/1/26 204/1/26
s 1
f 146/1/20 207/1/21 208/1/21
f 146/1/20 208/1/21 147/2/20
f 142/1/7 209/1/8 210/1/8
f 142/1/7 210/1/8 143/1/7
f 138/1/16 211/1/17 212/1/17
f 138/1/16 212/1/17 139/1/16
f 134/1/25 213/1/2 214/1/2
f 134/1/25 214/1/2 135/1/25
f 215/1/3 216/1/4 217/1/4
f 215/1/3 217/1/4 218/1/3
f 126/1/12 219/1/13 220/1/13
f 126/1/12 220/1/13 127/1/12
f 207/1/21 221/1/22 222/1/22
f 207/1/21 222/1/22 208/1/21
f 209/1/8 159/1/9 160/1/9
f 209/1/8 160/1/9 210/1/8
f 211/1/17 157/1/18 158/1/18
f 211/1/17 158/1/18 212/1/17
f 216/1/4 155/1/5 156/1/5
f 216/1/4 156/1/5 217/1/4
f 219/1/13 153/1/14 154/1/14
f 219/1/13 154/1/14 220/1/13
f 221/1/22 151/1/23 152/1/23
f 221/1/22 152/1/23 222/1/22
f 223/3/27 224/3/28 225/3/28
f 223/3/27 225/3/28 226/3/27
f 227/3/29 223/3/27 226/3/27
f 227/3/29 226/3/27 228/3/29
f 229/3/30 227/3/29 228/3/29
f 229/3/30 228/3/29 230/3/30
f 231/3/31 229/3/30 230/3/30
f 231/3/31 230/3/30 232/3/32
f 233/3/33 231/3/31 232/3/32
f 233/3/33 232/3/32 234/3/33
f 235/3/34 233/3/33 234/3/33
f 235/3/34 234/3/33 236/3/34
f 237/3/35 235/3/34 236/3/34
f 237/3/35 236/3/34 238/3/35
f 239/3/36 237/3/35 238/3/35
f 239/3/36 238/3/35 240/3/36
f 241/3/37 239/3/36 240/3/36
f 241/3/37 240/3/36 242/3/37
f 243/3/38 241/3/37 242/3/37
f 243/3/38 242/3/37 244/3/38
f 245/3/39 243/3/38 244/3/38
f 245/3/39 244/3/38 246/3/39
f 247/3/40 245/3/39 246/3/39
f 247/3/40 246/3/39 248/3/40
f 249/3/41 247/3/40 248/3/40
f 249/3/41 248/3/40 250/3/41
f 251/3/42 249/3/41 250/3/41
f 251/3/42 250/3/41 252/3/42
f 253/4/43 251/3/42 252/3/42
f 253/4/43 252/3/42 254/3/43
f 255/4/44 253/4/43 254/3/43
f 255/4/44 254/3/43 256/3/44
f 257/3/45 255/4/44 256/3/44
f 257/3/45 256/3/44 258/3/45
f 259/4/46 257/3/45 258/3/45
f 259/4/46 258/3/45 260/3/46
f 261/3/47 259/4/46 260/3/46
f 261/3/47 260/3/46 262/4/47
f 263/4/48 261/3/47 262/4/47
f 263/4/48 262/4/47 264/3/48
f 265/4/49 263/4/48 264/3/48
f 265/4/49 264/3/48 266/3/49
f 267/3/50 265/4/49 266/3/49
f 267/3/50 266/3/49 268/3/50
f 269/3/51 270/4/52 268/3/52
f 269/3/51 268/3/52 271/3/51
f 224/3/28 272/4/53 271/3/53
f 224/3/28 271/3/53 225/3/28
f 122/3/3 273/4/2 274/4/2
f 122/3/3 274/4/2 123/3/3
f 275/2/28 276/1/27 277/1/27
f 275/2/28 277/1/27 278/2/28
f 276/1/27 279/1/29 280/1/29
f 276/1/27 280/1/29 277/1/27
f 279/1/29 281/1/54 282/1/54
f 279/1/29 282/1/54 280/1/29
f 281/1/54 283/1/32 284/1/32
f 281/1/54 284/1/32 282/1/54
f 283/1/32 285/1/33 286/1/33
f 283/1/32 286/1/33 284/1/32
f 285/1/33 287/1/34 288/1/34
f 285/1/33 288/1/34 286/1/33
f 287/1/34 289/1/35 290/1/35
f 287/1/34 290/1/35 288/1/34
f 289/1/35 291/1/36 292/1/36
f 289/1/35 292/1/36 290/1/35
f 291/1/36 293/1/55 294/1/56
f 291/1/36 294/1/56 292/1/36
f 293/1/55 295/1/38 296/1/38
f 293/1/55 296/1/38 294/1/56
f 295/1/38 297/1/39 298/1/39
f 295/1/38 298/1/39 296/1/38
f 297/1/39 299/1/40 300/1/40
f 297/1/39 300/1/40 298/1/39
f 299/1/40 301/1/41 302/1/41
f 299/1/40 302/1/41 300/1/40
f 301/1/41 303/1/42 304/1/42
f 301/1/41 304/1/42 302/1/41
f 303/1/42 305/1/43 306/1/57
f 303/1/42 306/1/57 304/1/42
f 305/1/43 307/1/44 308/1/44
f 305/1/43 308/1/44 306/1/57
f 307/1/44 309/1/45 310/1/45
f 307/1/44 310/1/45 308/1/44
f 309/1/45 311/2/58 312/1/58
f 309/1/45 312/1/58 310/1/45
f 311/2/58 313/1/47 314/1/47
f 311/2/58 314/1/47 312/1/58
f 313/1/47 315/1/48 316/1/48
f 313/1/47 316/1/48 314/1/47
f 315/1/48 317/1/49 318/1/49
f 315/1/48 318/1/49 316/1/48
f 317/1/49 319/2/59 320/2/59
f 317/1/49 320/2/59 318/1/49
f 319/2/59 321/1/53 322/1/53
f 319/2/59 322/1/53 320/2/59
f 321/1/53 323/1/28 324/1/28
f 321/1/53 324/1/28 322/1/53
f 325/2/2 215/1/3 218/1/3
f 325/2/2 218/1/3 326/2/2
s 0
f 327/5/2 328/5/2 329/5/2
f 327/5/2 329/5/2 330/5/2
f 331/6/1 332/5/1 333/5/1
f 331/6/1 333/5/1 334/6/1
f 335/5/26 336/5/26 337/5/26
f 335/5/26 337/5/26 338/5/26
f 339/5/14 340/5/14 341/5/14
f 339/5/14 341/5/14 342/5/14
f 343/5/20 344/5/20 345/6/20
f 343/5/20 345/6/20 346/5/20
f 347/5/8 348/5/8 349/5/8
f 347/5/8 349/5/8 350/5/8
f 348/5/8 351/5/8 352/5/8
f 348/5/8 352/5/8 349/5/8
f 353/5/8 347/5/8 350/5/8
f 353/5/8 350/5/8 354/5/8
f 351/5/8 353/5/8 354/5/8
f 351/5/8 354/5/8 352/5/8
f 355/7/60 356/7/60 357/7/60
f 355/7/60 357/7/60 358/7/60
f 359/7/14 360/7/14 361/7/14
f 359/7/14 361/7/14 362/7/14
f 363/7/2 364/7/2 365/7/2
f 363/7/2 365/7/2 366/7/2
f 367/7/61 368/7/61 369/7/61
f 367/7/61 369/7/61 370/7/61
f 371/7/62 372/7/62 373/7/62
f 371/7/62 373/7/62 374/7/62
f 375/7/63 376/7/63 377/7/63
f 375/7/63 377/7/63 378/7/63
f 379/7/64 380/7/64 381/7/64
f 379/7/64 381/7/64 382/7/64
f 383/7/65 384/7/65 385/7/65
f 383/7/65 385/7/65 386/7/65
f 387/7/2 388/7/2 389/7/2
f 387/7/2 389/7/2 390/7/2
f 391/7/2 392/7/2 393/7/2
f 391/7/2 393/7/2 394/7/2
f 395/7/2 396/7/2 397/7/2
f 395/7/2 397/7/2 398/7/2
f 399/7/2 400/7/2 401/7/2
f 399/7/2 401/7/2 402/7/2
f 403/7/14 404/7/14 405/7/14
f 403/7/14 405/7/14 406/7/14
f 407/7/14 408/7/14 409/7/14
f 407/7/14 409/7/14 410/7/14
f 411/7/14 412/7/14 413/7/14
f 411/7/14 413/7/14 414/7/14
f 415/7/14 416/7/14 417/7/14
f 415/7/14 417/7/14 418/7/14
f 419/7/66 420/7/66 421/7/66
f 419/7/66 421/7/66 422/7/66
f 423/7/67 424/7/67 425/7/67
f 423/7/67 425/7/67 426/7/67
f 427/7/68 428/7/68 429/7/68
f 427/7/68 429/7/68 430/7/68
f 431/7/69 432/7/69 433/7/69
f 431/7/69 433/7/69 434/7/69
f 435/7/70 436/7/70 437/7/70
f 435/7/70 437/7/70 438/7/70
f 439/7/2 440/7/2 441/7/2
f 439/7/2 441/7/2 442/7/2
f 443/7/14 444/7/14 445/7/14
f 443/7/14 445/7/14 446/7/14
f 447/7/71 448/7/71 449/7/71
f 447/7/71 449/7/71 450/7/71
f 451/5/2 452/5/2 453/5/2
f 451/5/2 453/5/2 454/5/2
f 455/6/1 456/6/1 457/5/1
f 455/6/1 457/5/1 458/5/1
f 459/5/26 460/5/26 461/5/26
f 459/5/26 461/5/26 462/5/26
f 463/5/14 464/5/14 465/5/14
f 463/5/14 465/5/14 466/5/14
f 467/5/8 468/5/8 469/6/8
f 467/5/8 469/6/8 470/5/8
f 471/5/20 472/5/20 473/5/20
f 471/5/20 473/5/20 474/5/20
f 474/5/20 473/5/20 475/5/20
f 474/5/20 475/5/20 476/5/20
f 477/5/20 478/5/20 472/5/20
f 477/5/20 472/5/20 471/5/20
f 476/5/20 475/5/20 478/5/20
f 476/5/20 478/5/20 477/5/20
f 479/7/72 480/7/72 481/7/72
f 479/7/72 481/7/72 482/7/72
f 483/7/14 484/7/14 485/7/14
f 483/7/14 485/7/14 486/7/14
f 487/7/2 488/7/2 489/7/2
f 487/7/2 489/7/2 490/7/2
f 491/7/73 492/7/73 493/7/73
f 491/7/73 493/7/73 494/7/73
f 495/7/74 496/7/74 497/7/74
f 495/7/74 497/7/74 498/7/74
f 499/7/75 500/7/75 501/7/75
f 499/7/75 501/7/75 502/7/75
f 503/7/76 504/7/76 505/7/76
f 503/7/76 505/7/76 506/7/76
f 507/7/77 508/7/77 509/7/77
f 507/7/77 509/7/77 510/7/77
f 511/7/2 512/7/2 513/7/2
f 511/7/2 513/7/2 514/7/2
f 515/7/2 516/7/2 517/7/2
f 515/7/2 517/7/2 518/7/2
f 519/7/2 520/7/2 521/7/2
f 519/7/2 521/7/2 522/7/2
f 523/7/2 524/7/2 525/7/2
f 523/7/2 525/7/2 526/7/2
f 527/7/14 528/7/14 529/7/14
f 527/7/14 529/7/14 530/7/14
f 531/7/14 532/7/14 533/7/14
f 531/7/14 533/7/14 534/7/14
f 535/7/14 536/7/14 537/7/14
f 535/7/14 537/7/14 538/7/14
f 539/7/14 540/7/14 541/7/14
f 539/7/14 541/7/14 542/7/14
f 543/7/78 544/7/78 545/7/78
f 543/7/78 545/7/78 546/7/78
f 547/7/79 548/7/79 549/7/79
f 547/7/79 549/7/79 550/7/79
f 551/7/80 552/7/80 553/7/80
f 551/7/80 553/7/80 554/7/80
f 555/7/81 556/7/81 557/7/81
f 555/7/81 557/7/81 558/7/81
f 559/7/82 560/7/82 561/7/82
f 559/7/82 561/7/82 562/7/82
f 563/7/2 564/7/2 565/7/2
f 563/7/2 565/7/2 566/7/2
f 567/7/14 568/7/14 569/7/14
f 567/7/14 569/7/14 570/7/14
f 571/7/83 572/7/83 573/7/83
f 571/7/83 573/7/83 574/7/83
f 577/3/26 575/3/26 576/3/26
f 575/3/26 577/3/26 578/3/26
f 575/3/26 578/3/26 598/3/26
f 598/3/26 578/3/26 579/3/26
f 598/3/26 579/3/26 597/3/26
f 597/3/26 579/3/26 596/3/26
f 596/3/26 579/3/26 580/3/26
f 596/3/26 580/3/26 595/3/26
f 595/3/26 580/3/26 581/4/26
f 595/3/26 581/4/26 594/3/26
f 594/3/26 581/4/26 582/3/26
f 594/3/26 582/3/26 593/3/26
f 593/3/26 582/3/26 583/3/26
f 593/3/26 583/3/26 592/3/26
f 592/3/26 583/3/26 584/3/26
f 592/3/26 584/3/26 591/3/26
f 591/3/26 584/3/26 585/3/26
f 591/3/26 585/3/26 590/3/26
f 590/3/26 585/3/26 586/3/26
f 590/3/26 586/3/26 587/3/26
f 590/3/26 587/3/26 589/3/26
f 589/3/26 587/3/26 588/3/26
