# Blender 5.2.0 LTS
# www.blender.org
mtllib LandingTrack4Curve3_AIRPORT_0.mtl
o LandingTrack4Curve3_AIRPORT_0
v -22.784096 -0.349981 62.096039
v -19.546616 -0.349986 45.856300
v -19.508095 -0.349981 62.096039
v 45.856323 -0.350006 -19.546612
v 62.096054 -0.350007 -22.784082
v 62.096066 -0.350006 -19.508083
v -22.784096 -0.349981 62.096039
v -22.784096 0.350019 62.096039
v -62.096085 0.350019 62.096039
v -62.096085 -0.349981 62.096039
v -22.784096 0.350019 62.096039
v -22.784096 -0.349981 62.096039
v -19.508095 -0.349981 62.096039
v -19.508095 0.350019 62.096039
v 19.803902 -0.349981 62.096031
v 19.803902 0.350019 62.096031
v -19.508095 0.350019 62.096039
v -19.508095 -0.349981 62.096039
v 20.616535 -0.349984 53.845242
v 23.023201 -0.349986 45.911530
v 23.023201 0.350014 45.911530
v 20.616535 0.350016 53.845242
v -62.096085 0.350019 62.096039
v -59.709763 0.350011 37.867359
v -59.709763 -0.349988 37.867359
v -62.096085 -0.349981 62.096039
v -62.096085 -0.349981 62.096039
v -59.709763 -0.349988 37.867359
v -19.508095 0.350019 62.096039
v -17.940094 0.350014 46.175858
v -21.153145 0.350014 45.536743
v -22.784096 0.350019 62.096039
v -22.784096 0.350019 62.096039
v -21.153145 0.350014 45.536743
v -59.709763 0.350011 37.867359
v -62.096085 0.350019 62.096039
v 20.616535 -0.349984 53.845242
v 19.803902 -0.349981 62.096031
v 19.803902 -0.349981 62.096031
v 20.616535 -0.349984 53.845242
v 20.616535 0.350016 53.845242
v 19.803902 0.350019 62.096031
v 19.803902 0.350019 62.096031
v 20.616535 0.350016 53.845242
v -17.940094 0.350014 46.175858
v -19.508095 0.350019 62.096039
v -52.642517 0.350004 14.569781
v -41.165924 0.349998 -6.901385
v -41.165924 -0.350002 -6.901385
v -52.642517 -0.349996 14.569781
v 23.023201 0.350014 45.911530
v 26.931416 0.350012 38.599773
v -5.755318 0.350005 16.759214
v -13.296356 0.350009 30.867489
v 23.023201 -0.349986 45.911530
v 26.931416 -0.349988 38.599773
v 26.931416 0.350012 38.599773
v 23.023201 0.350014 45.911530
v 20.616535 0.350016 53.845242
v -17.940094 0.350014 46.175858
v -59.709763 0.350011 37.867359
v -52.642517 0.350004 14.569781
v -52.642517 -0.349996 14.569781
v -59.709763 -0.349988 37.867359
v -52.642517 -0.349996 14.569781
v -14.809669 -0.349991 30.240654
v -13.296356 0.350009 30.867489
v -16.322975 0.350009 29.613823
v -21.153145 0.350014 45.536743
v -16.322975 0.350009 29.613823
v -52.642517 0.350004 14.569781
v -59.709763 0.350011 37.867359
v 23.023201 -0.349986 45.911530
v -7.117256 -0.349995 15.849192
v 3.234970 -0.349999 3.234971
v 32.190990 -0.349990 32.190964
v 26.931416 -0.349988 38.599773
v -41.165924 -0.350002 -6.901385
v -13.296356 0.350009 30.867489
v -5.755318 0.350005 16.759214
v -8.479202 0.350004 14.939170
v -16.322975 0.350009 29.613823
v -16.322975 0.350009 29.613823
v -8.479202 0.350004 14.939170
v -41.165924 0.349998 -6.901385
v -52.642517 0.350004 14.569781
v 15.849197 -0.350002 -7.117259
v 38.599792 -0.349992 26.931393
v 2.076733 0.350001 2.076734
v 14.939175 0.349997 -8.479204
v -6.901390 0.349987 -41.165920
v -25.721039 0.349992 -25.721033
v 4.393208 0.350001 4.393208
v 16.759220 0.349998 -5.755321
v 14.939175 0.349997 -8.479204
v 2.076733 0.350001 2.076734
v 26.931416 -0.349988 38.599773
v 32.190990 -0.349990 32.190964
v 32.190990 0.350010 32.190964
v 26.931416 0.350012 38.599773
v 32.190990 0.350010 32.190964
v 4.393208 0.350001 4.393208
v -41.165924 0.349998 -6.901385
v -25.721039 0.349992 -25.721033
v -25.721039 -0.350008 -25.721033
v -41.165924 -0.350002 -6.901385
v -25.721039 -0.350008 -25.721033
v -5.755318 0.350005 16.759214
v -8.479202 0.350004 14.939170
v -8.479202 0.350004 14.939170
v 2.076733 0.350001 2.076734
v -25.721039 0.349992 -25.721033
v -41.165924 0.349998 -6.901385
v 16.759220 0.349998 -5.755321
v 30.867502 0.349996 -13.296340
v 29.613834 0.349995 -16.322966
v 14.939175 0.349997 -8.479204
v -6.901390 -0.350012 -41.165920
v 14.569805 -0.350016 -52.642498
v 30.240667 -0.350004 -14.809653
v -6.901390 0.349987 -41.165920
v 14.569805 0.349984 -52.642498
v 14.569805 -0.350016 -52.642498
v -6.901390 -0.350012 -41.165920
v 32.190990 -0.349990 32.190964
v 38.599792 -0.349992 26.931393
v 38.599792 0.350008 26.931393
v 32.190990 0.350010 32.190964
v 38.599792 0.350008 26.931393
v 16.759220 0.349998 -5.755321
v -25.721039 0.349992 -25.721033
v -6.901390 0.349987 -41.165920
v -6.901390 -0.350012 -41.165920
v -25.721039 -0.350008 -25.721033
v 45.911552 -0.349993 23.023176
v 53.845268 -0.349994 20.616508
v 53.845268 0.350006 20.616508
v 45.911552 0.350007 23.023176
v 14.939175 0.349997 -8.479204
v 29.613834 0.349995 -16.322966
v 14.569805 0.349984 -52.642498
v -6.901390 0.349987 -41.165920
v 45.911552 -0.349993 23.023176
v 38.599792 -0.349992 26.931393
v 45.911552 -0.349993 23.023176
v 45.911552 0.350007 23.023176
v 38.599792 0.350008 26.931393
v 38.599792 0.350008 26.931393
v 45.911552 0.350007 23.023176
v 30.867502 0.349996 -13.296340
v 16.759220 0.349998 -5.755321
v 62.096069 -0.349994 19.803875
v 53.845268 -0.349994 20.616508
v 45.536758 0.349994 -21.153133
v 62.096054 0.349993 -22.784082
v 62.096085 0.349981 -62.096039
v 37.867393 0.349982 -59.709736
v 46.175880 0.349995 -17.940092
v 62.096066 0.349994 -19.508083
v 62.096054 0.349993 -22.784082
v 45.536758 0.349994 -21.153133
v 45.911552 0.350007 23.023176
v 53.845268 0.350006 20.616508
v 46.175880 0.349995 -17.940092
v 30.867502 0.349996 -13.296340
v 14.569805 0.349984 -52.642498
v 37.867393 0.349982 -59.709736
v 37.867393 -0.350018 -59.709736
v 14.569805 -0.350016 -52.642498
v 37.867393 -0.350018 -59.709736
v 30.867502 0.349996 -13.296340
v 29.613834 0.349995 -16.322966
v 29.613834 0.349995 -16.322966
v 45.536758 0.349994 -21.153133
v 37.867393 0.349982 -59.709736
v 14.569805 0.349984 -52.642498
v 62.096054 -0.350007 -22.784082
v 62.096085 -0.350019 -62.096039
v 62.096085 0.349981 -62.096039
v 62.096054 0.349993 -22.784082
v 62.096054 0.349993 -22.784082
v 62.096066 0.349994 -19.508083
v 62.096066 -0.350006 -19.508083
v 62.096054 -0.350007 -22.784082
v 62.096069 -0.349994 19.803875
v 62.096066 -0.350006 -19.508083
v 62.096066 0.349994 -19.508083
v 62.096069 0.350006 19.803875
v 53.845268 -0.349994 20.616508
v 62.096069 -0.349994 19.803875
v 62.096069 0.350006 19.803875
v 53.845268 0.350006 20.616508
v 53.845268 0.350006 20.616508
v 62.096069 0.350006 19.803875
v 62.096066 0.349994 -19.508083
v 46.175880 0.349995 -17.940092
v 37.867393 0.349982 -59.709736
v 62.096085 0.349981 -62.096039
v 62.096085 -0.350019 -62.096039
v 37.867393 -0.350018 -59.709736
v 62.096085 -0.350019 -62.096039
vn -0.0000 -1.0000 -0.0000
vn -0.0000 -0.0000 1.0000
vn 0.9569 -0.0000 0.2903
vn -0.9952 -0.0000 -0.0980
vn -0.0000 1.0000 -0.0000
vn 0.9952 -0.0000 0.0980
vn -0.8819 -0.0000 -0.4714
vn 0.8819 -0.0000 0.4714
vn -0.9569 -0.0000 -0.2903
vn 0.7730 -0.0000 0.6344
vn -0.7730 -0.0000 -0.6344
vn -0.4714 -0.0000 -0.8819
vn 0.6344 -0.0000 0.7730
vn -0.6344 -0.0000 -0.7730
vn 0.2903 -0.0000 0.9569
vn 0.4714 -0.0000 0.8819
vn -0.2903 -0.0000 -0.9569
vn 1.0000 -0.0000 -0.0000
vn 0.0980 -0.0000 0.9952
vn -0.0980 -0.0000 -0.9952
vt 0.031465 0.029274
vt 0.095283 0.029698
s 0
usemtl AIRPORT
f 1/1/1 2/1/1 3/1/1
f 4/1/1 5/1/1 6/1/1
f 7/1/2 8/1/2 9/1/2
f 7/1/2 9/1/2 10/1/2
f 11/1/2 12/1/2 13/1/2
f 11/1/2 13/1/2 14/1/2
f 15/1/2 16/1/2 17/1/2
f 15/1/2 17/1/2 18/1/2
f 19/1/3 20/1/3 21/1/3
f 19/1/3 21/1/3 22/1/3
f 23/1/4 24/1/4 25/1/4
f 23/1/4 25/1/4 26/1/4
f 27/1/1 28/1/1 2/1/1
f 27/1/1 2/1/1 1/1/1
f 29/2/5 30/2/5 31/2/5
f 29/2/5 31/2/5 32/2/5
f 33/1/5 34/1/5 35/1/5
f 33/1/5 35/1/5 36/1/5
f 3/1/1 2/1/1 37/1/1
f 3/1/1 37/1/1 38/1/1
f 39/1/6 40/1/6 41/1/6
f 39/1/6 41/1/6 42/1/6
f 43/1/5 44/1/5 45/1/5
f 43/1/5 45/1/5 46/1/5
f 47/1/7 48/1/7 49/1/7
f 47/1/7 49/1/7 50/1/7
f 51/1/5 52/1/5 53/1/5
f 51/1/5 53/1/5 54/1/5
f 55/1/8 56/1/8 57/1/8
f 55/1/8 57/1/8 58/1/8
f 59/1/5 51/1/5 54/1/5
f 59/1/5 54/1/5 60/1/5
f 61/1/9 62/1/9 63/1/9
f 61/1/9 63/1/9 64/1/9
f 28/1/1 65/1/1 66/1/1
f 28/1/1 66/1/1 2/1/1
f 30/2/5 67/2/5 68/2/5
f 30/2/5 68/2/5 31/2/5
f 69/1/5 70/1/5 71/1/5
f 69/1/5 71/1/5 72/1/5
f 2/1/1 66/1/1 73/1/1
f 2/1/1 73/1/1 37/1/1
f 74/1/1 75/1/1 76/1/1
f 74/1/1 76/1/1 77/1/1
f 65/1/1 78/1/1 74/1/1
f 65/1/1 74/1/1 66/1/1
f 79/2/5 80/2/5 81/2/5
f 79/2/5 81/2/5 82/2/5
f 83/1/5 84/1/5 85/1/5
f 83/1/5 85/1/5 86/1/5
f 66/1/1 74/1/1 77/1/1
f 66/1/1 77/1/1 73/1/1
f 75/1/1 87/1/1 88/1/1
f 75/1/1 88/1/1 76/1/1
f 89/1/5 90/1/5 91/1/5
f 89/1/5 91/1/5 92/1/5
f 93/2/5 94/2/5 95/2/5
f 93/2/5 95/2/5 96/2/5
f 97/1/10 98/1/10 99/1/10
f 97/1/10 99/1/10 100/1/10
f 52/1/5 101/1/5 102/1/5
f 52/1/5 102/1/5 53/1/5
f 103/1/11 104/1/11 105/1/11
f 103/1/11 105/1/11 106/1/11
f 78/1/1 107/1/1 75/1/1
f 78/1/1 75/1/1 74/1/1
f 108/2/5 93/2/5 96/2/5
f 108/2/5 96/2/5 109/2/5
f 110/1/5 111/1/5 112/1/5
f 110/1/5 112/1/5 113/1/5
f 114/2/5 115/2/5 116/2/5
f 114/2/5 116/2/5 117/2/5
f 118/1/1 119/1/1 120/1/1
f 118/1/1 120/1/1 87/1/1
f 121/1/12 122/1/12 123/1/12
f 121/1/12 123/1/12 124/1/12
f 125/1/13 126/1/13 127/1/13
f 125/1/13 127/1/13 128/1/13
f 101/1/5 129/1/5 130/1/5
f 101/1/5 130/1/5 102/1/5
f 131/1/14 132/1/14 133/1/14
f 131/1/14 133/1/14 134/1/14
f 107/1/1 118/1/1 87/1/1
f 107/1/1 87/1/1 75/1/1
f 135/1/15 136/1/15 137/1/15
f 135/1/15 137/1/15 138/1/15
f 139/1/5 140/1/5 141/1/5
f 139/1/5 141/1/5 142/1/5
f 87/1/1 120/1/1 143/1/1
f 87/1/1 143/1/1 88/1/1
f 144/1/16 145/1/16 146/1/16
f 144/1/16 146/1/16 147/1/16
f 148/1/5 149/1/5 150/1/5
f 148/1/5 150/1/5 151/1/5
f 4/1/1 6/1/1 152/1/1
f 4/1/1 152/1/1 153/1/1
f 154/1/5 155/1/5 156/1/5
f 154/1/5 156/1/5 157/1/5
f 158/2/5 159/2/5 160/2/5
f 158/2/5 160/2/5 161/2/5
f 162/1/5 163/1/5 164/1/5
f 162/1/5 164/1/5 165/1/5
f 166/1/17 167/1/17 168/1/17
s 1
f 166/1/17 168/1/17 169/1/17
s 0
f 119/1/1 170/1/1 4/1/1
f 119/1/1 4/1/1 120/1/1
f 171/2/5 158/2/5 161/2/5
f 171/2/5 161/2/5 172/2/5
f 173/1/5 174/1/5 175/1/5
f 173/1/5 175/1/5 176/1/5
f 120/1/1 4/1/1 153/1/1
f 120/1/1 153/1/1 143/1/1
f 177/1/18 178/1/18 179/1/18
f 177/1/18 179/1/18 180/1/18
f 181/1/18 182/1/18 183/1/18
f 181/1/18 183/1/18 184/1/18
f 185/1/18 186/1/18 187/1/18
f 185/1/18 187/1/18 188/1/18
f 189/1/19 190/1/19 191/1/19
f 189/1/19 191/1/19 192/1/19
f 193/1/5 194/1/5 195/1/5
f 193/1/5 195/1/5 196/1/5
f 197/1/20 198/1/20 199/1/20
f 197/1/20 199/1/20 200/1/20
f 170/1/1 201/1/1 5/1/1
f 170/1/1 5/1/1 4/1/1
