# Blender 5.2.0 LTS
# www.blender.org
mtllib LandingTrack2Curve_AIRPORT_0.mtl
o LandingTrack2Curve_AIRPORT_0
v 137.975006 -0.349981 61.084286
v 138.052399 -0.349986 45.239311
v 141.251007 -0.349981 61.084286
v -137.975006 -0.349981 61.084301
v -141.251007 -0.349981 61.084301
v -138.052399 -0.349986 45.239326
v 137.975006 -0.349981 61.084286
v 137.975006 0.350018 61.084286
v 98.663010 0.350018 61.084290
v 98.663010 -0.349981 61.084290
v 137.975006 0.350018 61.084286
v 137.975006 -0.349981 61.084286
v 141.251007 -0.349981 61.084286
v 141.251007 0.350018 61.084286
v 180.562988 -0.349981 61.084286
v 180.562988 0.350018 61.084286
v 141.251007 0.350018 61.084286
v 141.251007 -0.349981 61.084286
v 178.215546 -0.349989 37.250370
v 171.263458 -0.349996 14.332376
v 171.263458 0.350004 14.332376
v 178.215546 0.350011 37.250370
v 180.562988 0.350018 61.084286
v 178.215546 0.350011 37.250370
v 139.658936 0.350014 44.919754
v 141.251007 0.350018 61.084286
v 98.663010 0.350018 61.084290
v 97.889259 0.350016 53.228260
v 97.889259 -0.349984 53.228260
v 98.663010 -0.349981 61.084290
v 98.663010 -0.349981 61.084290
v 97.889259 -0.349984 53.228260
v 138.052399 -0.349986 45.239311
v 137.975006 -0.349981 61.084286
v 141.251007 0.350018 61.084286
v 139.658936 0.350014 44.919754
v 136.445862 0.350014 45.558868
v 137.975006 0.350018 61.084286
v 137.975006 0.350018 61.084286
v 136.445862 0.350014 45.558868
v 97.889259 0.350016 53.228260
v 98.663010 0.350018 61.084290
v 141.251007 -0.349981 61.084286
v 138.052399 -0.349986 45.239311
v 178.215546 -0.349989 37.250370
v 180.562988 -0.349981 61.084286
v 180.562988 -0.349981 61.084286
v 178.215546 -0.349989 37.250370
v 178.215546 0.350011 37.250370
v 180.562988 0.350018 61.084286
v 171.263458 0.350004 14.332376
v 159.973846 0.349998 -6.788971
v 127.287117 0.350004 15.051598
v 134.943909 0.350009 29.376421
v 171.263458 -0.349996 14.332376
v 159.973846 -0.350002 -6.788971
v 159.973846 0.349998 -6.788971
v 171.263458 0.350004 14.332376
v 178.215546 0.350011 37.250370
v 171.263458 0.350004 14.332376
v 134.943909 0.350009 29.376421
v 139.658936 0.350014 44.919754
v 97.889259 0.350016 53.228260
v 95.597733 0.350014 45.674133
v 95.597733 -0.349986 45.674133
v 97.889259 -0.349984 53.228260
v 97.889259 -0.349984 53.228260
v 95.597733 -0.349986 45.674133
v 133.430573 -0.349991 30.003252
v 138.052399 -0.349986 45.239311
v 134.943909 0.350009 29.376421
v 131.917267 0.350009 30.630087
v 136.445862 0.350014 45.558868
v 131.917267 0.350009 30.630087
v 95.597733 0.350014 45.674133
v 97.889259 0.350016 53.228260
v 133.430573 -0.349991 30.003252
v 171.263458 -0.349996 14.332376
v 178.215546 -0.349989 37.250370
v 125.925179 -0.349995 15.961624
v 115.824585 -0.349999 3.654032
v 144.780609 -0.350008 -25.301971
v 159.973846 -0.350002 -6.788971
v 124.563232 0.350005 16.871647
v 114.666351 0.350001 4.812269
v 86.868576 0.350010 32.610031
v 91.876511 0.350012 38.712208
v 95.597733 0.350014 45.674133
v 91.876511 0.350012 38.712208
v 91.876511 -0.349988 38.712208
v 95.597733 -0.349986 45.674133
v 95.597733 -0.349986 45.674133
v 91.876511 -0.349988 38.712208
v 125.925179 -0.349995 15.961624
v 133.430573 -0.349991 30.003252
v 127.287117 0.350004 15.051598
v 124.563232 0.350005 16.871647
v 131.917267 0.350009 30.630087
v 124.563232 0.350005 16.871647
v 91.876511 0.350012 38.712208
v 95.597733 0.350014 45.674133
v 133.430573 -0.349991 30.003252
v 125.925179 -0.349995 15.961624
v 159.973846 -0.350002 -6.788971
v 171.263458 -0.349996 14.332376
v 114.666351 0.350001 4.812269
v 102.606964 0.349998 -5.084611
v 80.766396 0.350008 27.602106
v 86.868576 0.350010 32.610031
v 116.982826 0.350001 2.495787
v 104.427010 0.349998 -7.808502
v 102.606964 0.349998 -5.084611
v 114.666351 0.350001 4.812269
v 86.868576 -0.349990 32.610031
v 80.766396 -0.349992 27.602106
v 103.516983 -0.350002 -6.446557
v 115.824585 -0.349999 3.654032
v 159.973846 -0.350002 -6.788971
v 144.780609 -0.350008 -25.301971
v 144.780609 0.349992 -25.301971
v 159.973846 0.349998 -6.788971
v 159.973846 0.349998 -6.788971
v 144.780609 0.349992 -25.301971
v 116.982826 0.350001 2.495787
v 127.287117 0.350004 15.051598
v 91.876511 0.350012 38.712208
v 86.868576 0.350010 32.610031
v 86.868576 -0.349990 32.610031
v 91.876511 -0.349988 38.712208
v 91.876511 -0.349988 38.712208
v 86.868576 -0.349990 32.610031
v 116.982826 0.350001 2.495787
v 114.666351 0.350001 4.812269
v 80.766396 -0.349992 27.602106
v 73.804466 -0.349993 23.880878
v 89.475342 -0.350004 -13.951962
v 103.516983 -0.350002 -6.446557
v 80.766396 0.350008 27.602106
v 73.804466 0.350007 23.880878
v 73.804466 -0.349993 23.880878
v 80.766396 -0.349992 27.602106
v 126.267563 0.349988 -40.495209
v 105.146210 0.349984 -51.784786
v 90.102180 0.349995 -15.465275
v 104.427010 0.349998 -7.808502
v 103.516983 -0.350002 -6.446557
v 126.267563 -0.350012 -40.495209
v 144.780609 -0.350008 -25.301971
v 126.267563 -0.350012 -40.495209
v 126.267563 0.349988 -40.495209
v 144.780609 0.349992 -25.301971
v 144.780609 0.349992 -25.301971
v 126.267563 0.349988 -40.495209
v 104.427010 0.349998 -7.808502
v 116.982826 0.350001 2.495787
v 86.868576 0.350010 32.610031
v 80.766396 0.350008 27.602106
v 80.766396 -0.349992 27.602106
v 86.868576 -0.349990 32.610031
v 89.475342 -0.350004 -13.951962
v 74.239273 -0.350006 -18.573755
v 82.228218 -0.350018 -58.736870
v 105.146210 -0.350016 -51.784786
v 104.427010 0.349998 -7.808502
v 90.102180 0.349995 -15.465275
v 88.848511 0.349996 -12.438650
v 102.606964 0.349998 -5.084611
v 102.606964 0.349998 -5.084611
v 88.848511 0.349996 -12.438650
v 73.804466 0.350007 23.880878
v 80.766396 0.350008 27.602106
v 103.516983 -0.350002 -6.446557
v 89.475342 -0.350004 -13.951962
v 105.146210 -0.350016 -51.784786
v 126.267563 -0.350012 -40.495209
v 126.267563 -0.350012 -40.495209
v 105.146210 -0.350016 -51.784786
v 105.146210 0.349984 -51.784786
v 126.267563 0.349988 -40.495209
v 74.239273 -0.350006 -18.573755
v 58.394295 -0.350006 -20.134356
v 58.394291 -0.350018 -61.084301
v 82.228218 -0.350018 -58.736870
v 73.919716 0.349995 -16.967236
v 58.394295 0.349994 -18.496355
v 58.394302 0.350006 20.815611
v 66.250336 0.350006 21.589365
v 74.558838 0.349994 -20.180285
v 58.394295 0.349993 -21.772348
v 58.394295 0.349994 -18.496355
v 73.919716 0.349995 -16.967236
v 105.146210 -0.350016 -51.784786
v 82.228218 -0.350018 -58.736870
v 82.228218 0.349982 -58.736870
v 105.146210 0.349984 -51.784786
v 105.146210 0.349984 -51.784786
v 82.228218 0.349982 -58.736870
v 74.558838 0.349994 -20.180285
v 90.102180 0.349995 -15.465275
v 73.804466 0.350007 23.880878
v 66.250336 0.350006 21.589365
v 66.250336 -0.349993 21.589365
v 73.804466 -0.349993 23.880878
v 73.804466 -0.349993 23.880878
v 66.250336 -0.349993 21.589365
v 74.239273 -0.350006 -18.573755
v 89.475342 -0.350004 -13.951962
v 74.558838 0.349994 -20.180285
v 73.919716 0.349995 -16.967236
v 88.848511 0.349996 -12.438650
v 73.919716 0.349995 -16.967236
v 66.250336 0.350006 21.589365
v 73.804466 0.350007 23.880878
v -58.394299 -0.349994 20.815619
v -58.394302 -0.350006 -20.134356
v 58.394295 -0.350006 -20.134356
v 58.394302 -0.349994 20.815611
v -58.394299 0.350006 20.815619
v -58.394299 -0.349994 20.815619
v 58.394302 -0.349994 20.815611
v 58.394302 0.350006 20.815611
v 82.228218 -0.350018 -58.736870
v 58.394291 -0.350018 -61.084301
v 58.394291 0.349981 -61.084301
v 82.228218 0.349982 -58.736870
v 82.228218 0.349982 -58.736870
v 58.394291 0.349981 -61.084301
v 58.394295 0.349993 -21.772348
v 74.558838 0.349994 -20.180285
v 66.250336 0.350006 21.589365
v 58.394302 0.350006 20.815611
v 58.394302 -0.349994 20.815611
v 66.250336 -0.349993 21.589365
v 66.250336 -0.349993 21.589365
v 58.394302 -0.349994 20.815611
v 58.394295 -0.350006 -20.134356
v 74.239273 -0.350006 -18.573755
v -137.975006 -0.349981 61.084301
v -98.663002 -0.349981 61.084297
v -98.663002 0.350018 61.084297
v -137.975006 0.350018 61.084301
v -137.975006 0.350018 61.084301
v -141.251007 0.350018 61.084301
v -141.251007 -0.349981 61.084301
v -137.975006 -0.349981 61.084301
v -180.562988 -0.349981 61.084301
v -141.251007 -0.349981 61.084301
v -141.251007 0.350018 61.084301
v -180.562988 0.350018 61.084301
v -178.215546 -0.349989 37.250385
v -178.215546 0.350011 37.250385
v -171.263458 0.350004 14.332391
v -171.263458 -0.349996 14.332391
v -180.562988 0.350018 61.084301
v -141.251007 0.350018 61.084301
v -139.658936 0.350014 44.919769
v -178.215546 0.350011 37.250385
v -98.663002 0.350018 61.084297
v -98.663002 -0.349981 61.084297
v -97.889244 -0.349984 53.228268
v -97.889244 0.350016 53.228268
v -98.663002 -0.349981 61.084297
v -97.889244 -0.349984 53.228268
v -141.251007 0.350018 61.084301
v -137.975006 0.350018 61.084301
v -136.445892 0.350014 45.558884
v -139.658936 0.350014 44.919769
v -137.975006 0.350018 61.084301
v -98.663002 0.350018 61.084297
v -97.889244 0.350016 53.228268
v -136.445892 0.350014 45.558884
v -141.251007 -0.349981 61.084301
v -180.562988 -0.349981 61.084301
v -178.215546 -0.349989 37.250385
v -138.052399 -0.349986 45.239326
v -180.562988 -0.349981 61.084301
v -180.562988 0.350018 61.084301
v -178.215546 0.350011 37.250385
v -178.215546 -0.349989 37.250385
v -171.263458 0.350004 14.332391
v -134.943909 0.350009 29.376432
v -127.287125 0.350004 15.051605
v -159.973846 0.349998 -6.788956
v -171.263458 -0.349996 14.332391
v -171.263458 0.350004 14.332391
v -159.973846 0.349998 -6.788956
v -159.973846 -0.350002 -6.788956
v -178.215546 0.350011 37.250385
v -139.658936 0.350014 44.919769
v -134.943909 0.350009 29.376432
v -171.263458 0.350004 14.332391
v -97.889244 0.350016 53.228268
v -97.889244 -0.349984 53.228268
v -95.597733 -0.349986 45.674141
v -95.597733 0.350014 45.674141
v -133.430603 -0.349991 30.003263
v -95.597733 -0.349986 45.674141
v -139.658936 0.350014 44.919769
v -136.445892 0.350014 45.558884
v -131.917267 0.350009 30.630098
v -134.943909 0.350009 29.376432
v -95.597733 0.350014 45.674141
v -131.917267 0.350009 30.630098
v -178.215546 -0.349989 37.250385
v -171.263458 -0.349996 14.332391
v -125.925179 -0.349995 15.961632
v -159.973846 -0.350002 -6.788956
v -144.780609 -0.350008 -25.301956
v -115.824593 -0.349999 3.654040
v -124.563240 0.350005 16.871655
v -91.876495 0.350012 38.712215
v -86.868576 0.350010 32.610039
v -114.666359 0.350001 4.812276
v -95.597733 0.350014 45.674141
v -95.597733 -0.349986 45.674141
v -91.876495 -0.349988 38.712215
v -91.876495 0.350012 38.712215
v -95.597733 -0.349986 45.674141
v -133.430603 -0.349991 30.003263
v -125.925179 -0.349995 15.961632
v -91.876495 -0.349988 38.712215
v -134.943909 0.350009 29.376432
v -131.917267 0.350009 30.630098
v -124.563240 0.350005 16.871655
v -127.287125 0.350004 15.051605
v -131.917267 0.350009 30.630098
v -95.597733 0.350014 45.674141
v -91.876495 0.350012 38.712215
v -124.563240 0.350005 16.871655
v -133.430603 -0.349991 30.003263
v -171.263458 -0.349996 14.332391
v -159.973846 -0.350002 -6.788956
v -125.925179 -0.349995 15.961632
v -114.666359 0.350001 4.812276
v -86.868576 0.350010 32.610039
v -80.766388 0.350008 27.602114
v -102.606956 0.349998 -5.084596
v -116.982826 0.350001 2.495795
v -114.666359 0.350001 4.812276
v -102.606956 0.349998 -5.084596
v -104.427002 0.349998 -7.808487
v -86.868576 -0.349990 32.610039
v -103.516983 -0.350002 -6.446542
v -80.766388 -0.349992 27.602114
v -159.973846 -0.350002 -6.788956
v -159.973846 0.349998 -6.788956
v -144.780609 0.349992 -25.301956
v -144.780609 -0.350008 -25.301956
v -159.973846 0.349998 -6.788956
v -127.287125 0.350004 15.051605
v -116.982826 0.350001 2.495795
v -144.780609 0.349992 -25.301956
v -91.876495 0.350012 38.712215
v -91.876495 -0.349988 38.712215
v -86.868576 -0.349990 32.610039
v -86.868576 0.350010 32.610039
v -91.876495 -0.349988 38.712215
v -127.287125 0.350004 15.051605
v -124.563240 0.350005 16.871655
v -114.666359 0.350001 4.812276
v -116.982826 0.350001 2.495795
v -89.475342 -0.350004 -13.951947
v -73.804459 -0.349993 23.880886
v -80.766388 0.350008 27.602114
v -80.766388 -0.349992 27.602114
v -73.804459 -0.349993 23.880886
v -73.804459 0.350007 23.880886
v -126.267570 0.349988 -40.495193
v -104.427002 0.349998 -7.808487
v -90.102180 0.349995 -15.465260
v -105.146233 0.349984 -51.784771
v -126.267570 -0.350012 -40.495193
v -144.780609 -0.350008 -25.301956
v -144.780609 0.349992 -25.301956
v -126.267570 0.349988 -40.495193
v -126.267570 -0.350012 -40.495193
v -144.780609 0.349992 -25.301956
v -116.982826 0.350001 2.495795
v -86.868576 0.350010 32.610039
v -86.868576 -0.349990 32.610039
v -80.766388 -0.349992 27.602114
v -80.766388 0.350008 27.602114
v -105.146233 -0.350016 -51.784771
v -82.228233 -0.350018 -58.736870
v -74.239265 -0.350006 -18.573755
v -104.427002 0.349998 -7.808487
v -102.606956 0.349998 -5.084596
v -88.848503 0.349996 -12.438635
v -90.102180 0.349995 -15.465260
v -102.606956 0.349998 -5.084596
v -80.766388 0.350008 27.602114
v -73.804459 0.350007 23.880886
v -88.848503 0.349996 -12.438635
v -103.516983 -0.350002 -6.446542
v -126.267570 -0.350012 -40.495193
v -105.146233 -0.350016 -51.784771
v -89.475342 -0.350004 -13.951947
v -126.267570 -0.350012 -40.495193
v -126.267570 0.349988 -40.495193
v -105.146233 0.349984 -51.784771
v -105.146233 -0.350016 -51.784771
v -58.394302 -0.350018 -61.084301
v -58.394302 -0.350006 -20.134356
v -73.919701 0.349995 -16.967236
v -66.250328 0.350006 21.589373
v -58.394299 0.350006 20.815619
v -58.394302 0.349994 -18.496355
v -74.558823 0.349994 -20.180285
v -73.919701 0.349995 -16.967236
v -58.394302 0.349994 -18.496355
v -58.394302 0.349993 -21.772348
v -105.146233 -0.350016 -51.784771
v -105.146233 0.349984 -51.784771
v -82.228233 0.349982 -58.736870
v -82.228233 -0.350018 -58.736870
v -105.146233 0.349984 -51.784771
v -90.102180 0.349995 -15.465260
v -74.558823 0.349994 -20.180285
v -82.228233 0.349982 -58.736870
v -73.804459 0.350007 23.880886
v -73.804459 -0.349993 23.880886
v -66.250328 -0.349993 21.589373
v -66.250328 0.350006 21.589373
v -66.250328 -0.349993 21.589373
v -90.102180 0.349995 -15.465260
v -88.848503 0.349996 -12.438635
v -73.919701 0.349995 -16.967236
v -74.558823 0.349994 -20.180285
v -88.848503 0.349996 -12.438635
v -73.804459 0.350007 23.880886
v 58.394302 0.350006 20.815611
v 58.394295 0.349994 -18.496355
v -58.394302 0.349993 -21.772348
v -58.394302 0.349994 -18.496355
v 58.394295 0.349994 -18.496355
v 58.394295 0.349993 -21.772348
v -58.394302 0.349981 -61.084301
v -58.394302 0.349993 -21.772348
v 58.394295 0.349993 -21.772348
v 58.394291 0.349981 -61.084301
v -82.228233 -0.350018 -58.736870
v -82.228233 0.349982 -58.736870
v -58.394302 0.349981 -61.084301
v -58.394302 -0.350018 -61.084301
v -82.228233 0.349982 -58.736870
v -74.558823 0.349994 -20.180285
v -66.250328 0.350006 21.589373
v -66.250328 -0.349993 21.589373
v -58.394299 -0.349994 20.815619
v -58.394299 0.350006 20.815619
v -58.394299 -0.349994 20.815619
v 58.394291 -0.350018 -61.084301
v 58.394295 -0.350006 -20.134356
v -58.394302 -0.350018 -61.084301
v -58.394302 0.349981 -61.084301
v 58.394291 0.349981 -61.084301
v 58.394291 -0.350018 -61.084301
vn -0.0000 -1.0000 -0.0000
vn -0.0000 -0.0000 1.0000
vn 0.9569 -0.0000 -0.2903
vn -0.0000 1.0000 -0.0000
vn -0.9952 -0.0000 0.0980
vn 0.9952 -0.0000 -0.0980
vn 0.8819 -0.0000 -0.4714
vn -0.9569 -0.0000 0.2903
vn -0.8819 -0.0000 0.4714
vn 0.7730 -0.0000 -0.6344
vn -0.7730 -0.0000 0.6344
vn -0.4714 -0.0000 0.8819
vn 0.6344 -0.0000 -0.7730
vn -0.6344 -0.0000 0.7730
vn 0.4714 -0.0000 -0.8819
vn 0.2903 -0.0000 -0.9569
vn -0.2903 -0.0000 0.9569
vn 0.0980 -0.0000 -0.9952
vn -0.0980 -0.0000 0.9952
vn -0.9569 -0.0000 -0.2903
vn 0.9952 -0.0000 0.0980
vn -0.9952 -0.0000 -0.0980
vn -0.8819 -0.0000 -0.4714
vn 0.9569 -0.0000 0.2903
vn 0.8819 -0.0000 0.4714
vn -0.7730 -0.0000 -0.6344
vn 0.7730 -0.0000 0.6344
vn 0.4714 -0.0000 0.8819
vn -0.6344 -0.0000 -0.7730
vn 0.6344 -0.0000 0.7730
vn -0.4714 -0.0000 -0.8819
vn -0.2903 -0.0000 -0.9569
vn 0.2903 -0.0000 0.9569
vn -0.0980 -0.0000 -0.9952
vn 0.0980 -0.0000 0.9952
vn -0.0000 -0.0000 -1.0000
vt 0.031465 0.029274
vt 0.095283 0.029698
s 0
usemtl AIRPORT
f 1/1/1 2/1/1 3/1/1
f 4/1/1 5/1/1 6/1/1
f 7/1/2 8/1/2 9/1/2
f 7/1/2 9/1/2 10/1/2
f 11/1/2 12/1/2 13/1/2
f 11/1/2 13/1/2 14/1/2
f 15/1/2 16/1/2 17/1/2
f 15/1/2 17/1/2 18/1/2
f 19/1/3 20/1/3 21/1/3
f 19/1/3 21/1/3 22/1/3
f 23/1/4 24/1/4 25/1/4
f 23/1/4 25/1/4 26/1/4
f 27/1/5 28/1/5 29/1/5
f 27/1/5 29/1/5 30/1/5
f 31/1/1 32/1/1 33/1/1
f 31/1/1 33/1/1 34/1/1
f 35/2/4 36/2/4 37/2/4
f 35/2/4 37/2/4 38/2/4
f 39/1/4 40/1/4 41/1/4
f 39/1/4 41/1/4 42/1/4
f 43/1/1 44/1/1 45/1/1
f 43/1/1 45/1/1 46/1/1
f 47/1/6 48/1/6 49/1/6
f 47/1/6 49/1/6 50/1/6
f 51/1/4 52/1/4 53/1/4
f 51/1/4 53/1/4 54/1/4
f 55/1/7 56/1/7 57/1/7
f 55/1/7 57/1/7 58/1/7
f 59/1/4 60/1/4 61/1/4
f 59/1/4 61/1/4 62/1/4
f 63/1/8 64/1/8 65/1/8
f 63/1/8 65/1/8 66/1/8
f 67/1/1 68/1/1 69/1/1
f 67/1/1 69/1/1 70/1/1
f 36/2/4 71/2/4 72/2/4
f 36/2/4 72/2/4 37/2/4
f 73/1/4 74/1/4 75/1/4
f 73/1/4 75/1/4 76/1/4
f 2/1/1 77/1/1 78/1/1
f 2/1/1 78/1/1 79/1/1
f 80/1/1 81/1/1 82/1/1
f 80/1/1 82/1/1 83/1/1
f 84/1/4 85/1/4 86/1/4
f 84/1/4 86/1/4 87/1/4
f 88/1/9 89/1/9 90/1/9
f 88/1/9 90/1/9 91/1/9
f 92/1/1 93/1/1 94/1/1
f 92/1/1 94/1/1 95/1/1
f 71/2/4 96/2/4 97/2/4
f 71/2/4 97/2/4 72/2/4
f 98/1/4 99/1/4 100/1/4
f 98/1/4 100/1/4 101/1/4
f 102/1/1 103/1/1 104/1/1
f 102/1/1 104/1/1 105/1/1
f 106/1/4 107/1/4 108/1/4
f 106/1/4 108/1/4 109/1/4
f 110/2/4 111/2/4 112/2/4
f 110/2/4 112/2/4 113/2/4
f 114/1/1 115/1/1 116/1/1
f 114/1/1 116/1/1 117/1/1
f 118/1/10 119/1/10 120/1/10
f 118/1/10 120/1/10 121/1/10
f 122/1/4 123/1/4 124/1/4
f 122/1/4 124/1/4 125/1/4
f 126/1/11 127/1/11 128/1/11
f 126/1/11 128/1/11 129/1/11
f 130/1/1 131/1/1 81/1/1
f 130/1/1 81/1/1 80/1/1
f 96/2/4 132/2/4 133/2/4
f 96/2/4 133/2/4 97/2/4
f 134/1/1 135/1/1 136/1/1
f 134/1/1 136/1/1 137/1/1
f 138/1/12 139/1/12 140/1/12
f 138/1/12 140/1/12 141/1/12
f 142/1/4 143/1/4 144/1/4
f 142/1/4 144/1/4 145/1/4
f 81/1/1 146/1/1 147/1/1
f 81/1/1 147/1/1 82/1/1
f 148/1/13 149/1/13 150/1/13
f 148/1/13 150/1/13 151/1/13
f 152/1/4 153/1/4 154/1/4
f 152/1/4 154/1/4 155/1/4
f 156/1/14 157/1/14 158/1/14
f 156/1/14 158/1/14 159/1/14
f 160/1/1 161/1/1 162/1/1
f 160/1/1 162/1/1 163/1/1
f 164/2/4 165/2/4 166/2/4
f 164/2/4 166/2/4 167/2/4
f 168/1/4 169/1/4 170/1/4
f 168/1/4 170/1/4 171/1/4
f 172/1/1 173/1/1 174/1/1
f 172/1/1 174/1/1 175/1/1
f 176/1/15 177/1/15 178/1/15
f 176/1/15 178/1/15 179/1/15
f 180/1/1 181/1/1 182/1/1
f 180/1/1 182/1/1 183/1/1
f 184/1/4 185/1/4 186/1/4
f 184/1/4 186/1/4 187/1/4
f 188/2/4 189/2/4 190/2/4
f 188/2/4 190/2/4 191/2/4
f 192/1/16 193/1/16 194/1/16
f 192/1/16 194/1/16 195/1/16
f 196/1/4 197/1/4 198/1/4
f 196/1/4 198/1/4 199/1/4
f 200/1/17 201/1/17 202/1/17
f 200/1/17 202/1/17 203/1/17
f 204/1/1 205/1/1 206/1/1
f 204/1/1 206/1/1 207/1/1
f 165/2/4 208/2/4 209/2/4
f 165/2/4 209/2/4 166/2/4
f 210/1/4 211/1/4 212/1/4
f 210/1/4 212/1/4 213/1/4
f 214/1/1 215/1/1 216/1/1
f 214/1/1 216/1/1 217/1/1
f 218/1/2 219/1/2 220/1/2
f 218/1/2 220/1/2 221/1/2
f 222/1/18 223/1/18 224/1/18
f 222/1/18 224/1/18 225/1/18
f 226/1/4 227/1/4 228/1/4
f 226/1/4 228/1/4 229/1/4
f 230/1/19 231/1/19 232/1/19
f 230/1/19 232/1/19 233/1/19
f 234/1/1 235/1/1 236/1/1
f 234/1/1 236/1/1 237/1/1
f 238/1/2 239/1/2 240/1/2
f 238/1/2 240/1/2 241/1/2
f 242/1/2 243/1/2 244/1/2
f 242/1/2 244/1/2 245/1/2
f 246/1/2 247/1/2 248/1/2
f 246/1/2 248/1/2 249/1/2
f 250/1/20 251/1/20 252/1/20
f 250/1/20 252/1/20 253/1/20
f 254/1/4 255/1/4 256/1/4
f 254/1/4 256/1/4 257/1/4
f 258/1/21 259/1/21 260/1/21
f 258/1/21 260/1/21 261/1/21
f 262/1/1 4/1/1 6/1/1
f 262/1/1 6/1/1 263/1/1
f 264/2/4 265/2/4 266/2/4
f 264/2/4 266/2/4 267/2/4
f 268/1/4 269/1/4 270/1/4
f 268/1/4 270/1/4 271/1/4
f 272/1/1 273/1/1 274/1/1
f 272/1/1 274/1/1 275/1/1
f 276/1/22 277/1/22 278/1/22
f 276/1/22 278/1/22 279/1/22
f 280/1/4 281/1/4 282/1/4
f 280/1/4 282/1/4 283/1/4
f 284/1/23 285/1/23 286/1/23
f 284/1/23 286/1/23 287/1/23
f 288/1/4 289/1/4 290/1/4
f 288/1/4 290/1/4 291/1/4
f 292/1/24 293/1/24 294/1/24
f 292/1/24 294/1/24 295/1/24
f 263/1/1 6/1/1 296/1/1
f 263/1/1 296/1/1 297/1/1
f 298/2/4 299/2/4 300/2/4
f 298/2/4 300/2/4 301/2/4
f 271/1/4 270/1/4 302/1/4
f 271/1/4 302/1/4 303/1/4
f 6/1/1 304/1/1 305/1/1
f 6/1/1 305/1/1 296/1/1
f 306/1/1 307/1/1 308/1/1
f 306/1/1 308/1/1 309/1/1
f 310/1/4 311/1/4 312/1/4
f 310/1/4 312/1/4 313/1/4
f 314/1/25 315/1/25 316/1/25
f 314/1/25 316/1/25 317/1/25
f 318/1/1 319/1/1 320/1/1
f 318/1/1 320/1/1 321/1/1
f 322/2/4 323/2/4 324/2/4
f 322/2/4 324/2/4 325/2/4
f 326/1/4 327/1/4 328/1/4
f 326/1/4 328/1/4 329/1/4
f 330/1/1 331/1/1 332/1/1
f 330/1/1 332/1/1 333/1/1
f 334/1/4 335/1/4 336/1/4
f 334/1/4 336/1/4 337/1/4
f 338/2/4 339/2/4 340/2/4
f 338/2/4 340/2/4 341/2/4
f 342/1/1 309/1/1 343/1/1
f 342/1/1 343/1/1 344/1/1
f 345/1/26 346/1/26 347/1/26
f 345/1/26 347/1/26 348/1/26
f 349/1/4 350/1/4 351/1/4
f 349/1/4 351/1/4 352/1/4
f 353/1/27 354/1/27 355/1/27
f 353/1/27 355/1/27 356/1/27
f 357/1/1 306/1/1 309/1/1
f 357/1/1 309/1/1 342/1/1
f 358/2/4 359/2/4 360/2/4
f 358/2/4 360/2/4 361/2/4
f 344/1/1 343/1/1 362/1/1
f 344/1/1 362/1/1 363/1/1
f 364/1/28 365/1/28 366/1/28
f 364/1/28 366/1/28 367/1/28
f 368/1/4 369/1/4 370/1/4
f 368/1/4 370/1/4 371/1/4
f 309/1/1 308/1/1 372/1/1
f 309/1/1 372/1/1 343/1/1
f 373/1/29 374/1/29 375/1/29
f 373/1/29 375/1/29 376/1/29
f 377/1/4 378/1/4 369/1/4
f 377/1/4 369/1/4 368/1/4
f 379/1/30 380/1/30 381/1/30
f 379/1/30 381/1/30 382/1/30
f 362/1/1 383/1/1 384/1/1
f 362/1/1 384/1/1 385/1/1
f 386/2/4 387/2/4 388/2/4
f 386/2/4 388/2/4 389/2/4
f 390/1/4 391/1/4 392/1/4
f 390/1/4 392/1/4 393/1/4
f 394/1/1 395/1/1 396/1/1
f 394/1/1 396/1/1 397/1/1
f 398/1/31 399/1/31 400/1/31
f 398/1/31 400/1/31 401/1/31
f 385/1/1 384/1/1 402/1/1
f 385/1/1 402/1/1 403/1/1
f 404/1/4 405/1/4 406/1/4
f 404/1/4 406/1/4 407/1/4
f 408/2/4 409/2/4 410/2/4
f 408/2/4 410/2/4 411/2/4
f 412/1/32 413/1/32 414/1/32
f 412/1/32 414/1/32 415/1/32
f 416/1/4 417/1/4 418/1/4
f 416/1/4 418/1/4 419/1/4
f 420/1/33 421/1/33 422/1/33
f 420/1/33 422/1/33 423/1/33
f 363/1/1 362/1/1 385/1/1
f 363/1/1 385/1/1 424/1/1
f 425/2/4 426/2/4 427/2/4
f 425/2/4 427/2/4 428/2/4
f 429/1/4 430/1/4 405/1/4
f 429/1/4 405/1/4 404/1/4
f 407/1/4 406/1/4 431/1/4
f 407/1/4 431/1/4 432/1/4
f 433/2/4 434/2/4 435/2/4
f 433/2/4 435/2/4 436/2/4
f 437/1/4 438/1/4 439/1/4
f 437/1/4 439/1/4 440/1/4
f 441/1/34 442/1/34 443/1/34
f 441/1/34 443/1/34 444/1/34
f 445/1/4 446/1/4 438/1/4
f 445/1/4 438/1/4 437/1/4
f 447/1/35 448/1/35 449/1/35
f 447/1/35 449/1/35 450/1/35
f 424/1/1 385/1/1 403/1/1
f 424/1/1 403/1/1 451/1/1
f 403/1/1 402/1/1 452/1/1
f 403/1/1 452/1/1 453/1/1
f 454/1/36 455/1/36 456/1/36
f 454/1/36 456/1/36 457/1/36
