# Blender 5.2.0 LTS
# www.blender.org
mtllib LandingTrack3Curve2_AIRPORT_0.mtl
o LandingTrack3Curve2_AIRPORT_0
v 90.281425 0.349985 -47.693481
v 90.281433 -0.350015 -49.331467
v 90.281433 0.349984 -50.969467
v -46.648834 -0.349981 63.044315
v -47.693436 -0.349973 90.281433
v -50.969467 -0.349973 90.281425
v 90.281448 -0.350002 -8.381496
v 90.281433 -0.350015 -49.331467
v 90.281425 0.349985 -47.693481
v 90.281448 0.349997 -8.381496
v 90.281433 -0.350015 -49.331467
v 90.281448 -0.350002 -8.381496
v 71.033264 -0.350002 -6.485707
v 63.044296 -0.350014 -46.648849
v 90.281448 -0.350002 -8.381496
v 90.281448 0.349997 -8.381496
v 71.033264 0.349998 -6.485707
v 71.033264 -0.350002 -6.485707
v 90.281441 0.349973 -90.281441
v 90.281433 0.349984 -50.969467
v 90.281433 -0.350015 -49.331467
v 90.281441 -0.350027 -90.281441
v 62.724743 0.349985 -48.255371
v 55.055363 0.349974 -86.811996
v 21.182991 0.349977 -76.536926
v 36.227039 0.349988 -40.217381
v 71.033264 0.349998 -6.485707
v 63.363846 0.349986 -45.042313
v 37.480698 0.349989 -37.190739
v 52.524776 0.350000 -0.871216
v 55.055363 0.349974 -86.811996
v 55.055363 -0.350026 -86.811996
v 21.182991 -0.350023 -76.536926
v 21.182991 0.349977 -76.536926
v 90.281441 -0.350027 -90.281441
v 90.281433 -0.350015 -49.331467
v 63.044296 -0.350014 -46.648849
v 55.055363 -0.350026 -86.811996
v 90.281425 0.349985 -47.693481
v 90.281433 0.349984 -50.969467
v 62.724743 0.349985 -48.255371
v 63.363846 0.349986 -45.042313
v 90.281441 0.349973 -90.281441
v 90.281441 -0.350027 -90.281441
v 55.055363 -0.350026 -86.811996
v 55.055363 0.349974 -86.811996
v 90.281448 0.349997 -8.381496
v 90.281425 0.349985 -47.693481
v 90.281433 0.349984 -50.969467
v 90.281441 0.349973 -90.281441
v 55.055363 0.349974 -86.811996
v 62.724743 0.349985 -48.255371
v 21.182991 0.349977 -76.536926
v 21.182991 -0.350023 -76.536926
v -10.033943 -0.350018 -59.851101
v -10.033943 0.349982 -59.851101
v 37.480698 0.349989 -37.190739
v 36.227039 0.349988 -40.217381
v 11.806610 0.349992 -27.164385
v 13.626640 0.349993 -24.440495
v 21.182991 -0.350023 -76.536926
v 36.853867 -0.350012 -38.704060
v 12.716621 -0.350008 -25.802448
v -10.033943 -0.350018 -59.851101
v 71.033264 -0.350002 -6.485707
v 71.033264 0.349998 -6.485707
v 52.524776 0.350000 -0.871216
v 52.524776 -0.350000 -0.871215
v 63.044296 -0.350014 -46.648849
v 71.033264 -0.350002 -6.485707
v 52.524776 -0.350000 -0.871215
v 36.853867 -0.350012 -38.704060
v 55.055363 -0.350026 -86.811996
v 63.044296 -0.350014 -46.648849
v 36.853867 -0.350012 -38.704060
v 21.182991 -0.350023 -76.536926
v 36.227039 0.349988 -40.217381
v 37.480698 0.349989 -37.190739
v -10.033943 -0.350018 -59.851101
v 12.716621 -0.350008 -25.802448
v -8.439827 -0.350002 -8.439770
v -37.395836 -0.350011 -37.395779
v 12.716621 -0.350008 -25.802448
v 35.467243 -0.349997 8.246220
v 20.516212 -0.349994 20.516211
v -8.439827 -0.350002 -8.439770
v 35.467243 -0.349997 8.246220
v 35.467243 0.350002 8.246220
v 20.516212 0.350006 20.516211
v 20.516212 -0.349994 20.516211
v 13.626640 0.349993 -24.440495
v 35.467243 0.350002 8.246220
v 36.227039 0.349988 -40.217381
v 21.182991 0.349977 -76.536926
v -10.033943 0.349982 -59.851101
v 11.806610 0.349992 -27.164385
v 52.524776 -0.350000 -0.871215
v 52.524776 0.350000 -0.871216
v 35.467243 0.350002 8.246220
v 35.467243 -0.349997 8.246220
v 36.853867 -0.350012 -38.704060
v 52.524776 -0.350000 -0.871215
v 20.516212 -0.349994 20.516211
v 20.516212 0.350006 20.516211
v 8.246223 0.350011 35.467258
v 8.246223 -0.349989 35.467258
v -9.598053 0.349997 -9.598018
v -37.395836 0.349989 -37.395779
v -59.851151 0.349997 -10.033908
v -27.164406 0.350004 11.806650
v 13.626640 0.349993 -24.440495
v 11.806610 0.349992 -27.164385
v -9.598053 0.349997 -9.598018
v -7.281593 0.349998 -7.281529
v -10.033943 0.349982 -59.851101
v -10.033943 -0.350018 -59.851101
v -37.395836 -0.350011 -37.395779
v -37.395836 0.349989 -37.395779
v -7.281593 0.349998 -7.281529
v 20.516212 0.350006 20.516211
v 11.806610 0.349992 -27.164385
v -10.033943 0.349982 -59.851101
v -37.395836 0.349989 -37.395779
v -9.598053 0.349997 -9.598018
v 8.246223 0.350011 35.467258
v -24.440514 0.350004 13.626702
v -37.190765 0.350011 37.480736
v -0.871216 0.350016 52.524769
v -59.851151 0.349997 -10.033908
v -59.851151 -0.350003 -10.033908
v -76.536957 -0.349994 21.183027
v -76.536957 0.350006 21.183027
v -24.440514 0.350004 13.626702
v -27.164406 0.350004 11.806650
v -40.217392 0.350011 36.227058
v -37.190765 0.350011 37.480736
v -8.439827 -0.350002 -8.439770
v 20.516212 -0.349994 20.516211
v 8.246223 -0.349989 35.467258
v -25.802460 -0.349996 12.716677
v -37.395836 -0.350011 -37.395779
v -8.439827 -0.350002 -8.439770
v -25.802460 -0.349996 12.716677
v -59.851151 -0.350003 -10.033908
v -7.281593 0.349998 -7.281529
v -9.598053 0.349997 -9.598018
v -27.164406 0.350004 11.806650
v -24.440514 0.350004 13.626702
v -37.395836 0.349989 -37.395779
v -37.395836 -0.350011 -37.395779
v -59.851151 -0.350003 -10.033908
v -59.851151 0.349997 -10.033908
v 20.516212 0.350006 20.516211
v -7.281593 0.349998 -7.281529
v -24.440514 0.350004 13.626702
v 8.246223 0.350011 35.467258
v -37.190765 0.350011 37.480736
v -40.217392 0.350011 36.227058
v -48.255371 0.350019 62.724754
v -45.042297 0.350019 63.363876
v -76.536957 -0.349994 21.183027
v -38.704071 -0.349989 36.853897
v -46.648834 -0.349981 63.044315
v -86.811996 -0.349983 55.055382
v -38.704071 -0.349989 36.853897
v -0.871216 -0.349984 52.524769
v -6.485703 -0.349978 71.033249
v -46.648834 -0.349981 63.044315
v -27.164406 0.350004 11.806650
v -59.851151 0.349997 -10.033908
v -76.536957 0.350006 21.183027
v -40.217392 0.350011 36.227058
v 8.246223 -0.349989 35.467258
v 8.246223 0.350011 35.467258
v -0.871216 0.350016 52.524769
v -0.871216 -0.349984 52.524769
v -25.802460 -0.349996 12.716677
v 8.246223 -0.349989 35.467258
v -0.871216 -0.349984 52.524769
v -38.704071 -0.349989 36.853897
v -59.851151 -0.350003 -10.033908
v -25.802460 -0.349996 12.716677
v -38.704071 -0.349989 36.853897
v -76.536957 -0.349994 21.183027
v -46.648834 -0.349981 63.044315
v -6.485703 -0.349978 71.033249
v -8.381493 -0.349973 90.281425
v -47.693436 -0.349973 90.281433
v -6.485703 -0.349978 71.033249
v -6.485703 0.350021 71.033249
v -8.381493 0.350027 90.281425
v -8.381493 -0.349973 90.281425
v -76.536957 0.350006 21.183027
v -76.536957 -0.349994 21.183027
v -86.811996 -0.349983 55.055382
v -86.811996 0.350017 55.055382
v -0.871216 0.350016 52.524769
v -37.190765 0.350011 37.480736
v -45.042297 0.350019 63.363876
v -6.485703 0.350021 71.033249
v -40.217392 0.350011 36.227058
v -76.536957 0.350006 21.183027
v -86.811996 0.350017 55.055382
v -48.255371 0.350019 62.724754
v -0.871216 -0.349984 52.524769
v -0.871216 0.350016 52.524769
v -6.485703 0.350021 71.033249
v -6.485703 -0.349978 71.033249
v -47.693436 -0.349973 90.281433
v -8.381493 -0.349973 90.281425
v -8.381493 0.350027 90.281425
v -47.693436 0.350027 90.281433
v -47.693436 0.350027 90.281433
v -50.969467 0.350027 90.281425
v -50.969467 -0.349973 90.281425
v -47.693436 -0.349973 90.281433
v -90.281448 -0.349973 90.281441
v -50.969467 -0.349973 90.281425
v -50.969467 0.350027 90.281425
v -90.281448 0.350027 90.281441
v -86.811996 -0.349983 55.055382
v -46.648834 -0.349981 63.044315
v -50.969467 -0.349973 90.281425
v -90.281448 -0.349973 90.281441
v -45.042297 0.350019 63.363876
v -48.255371 0.350019 62.724754
v -50.969467 0.350027 90.281425
v -47.693436 0.350027 90.281433
v -86.811996 0.350017 55.055382
v -86.811996 -0.349983 55.055382
v -90.281448 -0.349973 90.281441
v -90.281448 0.350027 90.281441
v -6.485703 0.350021 71.033249
v -45.042297 0.350019 63.363876
v -47.693436 0.350027 90.281433
v -8.381493 0.350027 90.281425
v -48.255371 0.350019 62.724754
v -86.811996 0.350017 55.055382
v -90.281448 0.350027 90.281441
v -50.969467 0.350027 90.281425
vn 1.0000 -0.0000 -0.0000
vn -0.0000 -1.0000 -0.0000
vn 0.0980 -0.0000 0.9952
vn -0.0000 1.0000 -0.0000
vn -0.2903 -0.0000 -0.9569
vn -0.0980 -0.0000 -0.9952
vn -0.4714 -0.0000 -0.8819
vn 0.2903 -0.0000 0.9569
vn 0.6344 -0.0000 0.7730
vn 0.4714 -0.0000 0.8819
vn 0.7730 -0.0000 0.6344
vn -0.6344 -0.0000 -0.7730
vn -0.8819 -0.0000 -0.4714
vn -0.7730 -0.0000 -0.6344
vn 0.8819 -0.0000 0.4714
vn 0.9952 -0.0000 0.0980
vn -0.9569 -0.0000 -0.2903
vn 0.9569 -0.0000 0.2903
vn -0.0000 -0.0000 1.0000
vn -0.9952 -0.0000 -0.0980
vt 0.032180 0.030026
vt 0.032178 0.030026
vt 0.032180 0.030026
vt 0.032178 0.030026
vt 0.032178 0.030025
vt 0.032180 0.030025
vt 0.032180 0.030027
vt 0.032178 0.030027
vt 0.095688 0.029957
s 0
usemtl AIRPORT
f 1/1/1 2/2/1 3/3/1
f 4/2/2 5/2/2 6/4/2
f 7/5/1 8/2/1 9/1/1
f 7/5/1 9/1/1 10/6/1
f 11/2/2 12/5/2 13/5/2
f 11/2/2 13/5/2 14/2/2
f 15/5/3 16/6/3 17/6/3
f 15/5/3 17/6/3 18/5/3
f 19/7/1 20/3/1 21/4/1
f 19/7/1 21/4/1 22/8/1
f 23/3/4 24/7/4 25/7/4
f 23/3/4 25/7/4 26/3/4
f 27/6/4 28/1/4 29/1/4
f 27/6/4 29/1/4 30/6/4
f 31/7/5 32/8/5 33/8/5
f 31/7/5 33/8/5 34/7/5
f 35/8/2 36/4/2 37/4/2
f 35/8/2 37/4/2 38/8/2
f 39/9/4 40/9/4 41/9/4
f 39/9/4 41/9/4 42/9/4
f 43/7/6 44/8/6 45/8/6
f 43/7/6 45/8/6 46/7/6
f 47/6/4 48/1/4 28/1/4
f 47/6/4 28/1/4 27/6/4
f 49/3/4 50/7/4 51/7/4
f 49/3/4 51/7/4 52/3/4
f 53/7/7 54/8/7 55/8/7
f 53/7/7 55/8/7 56/7/7
f 57/9/4 58/9/4 59/9/4
f 57/9/4 59/9/4 60/9/4
f 61/8/2 62/4/2 63/4/2
f 61/8/2 63/4/2 64/8/2
f 65/5/8 66/6/8 67/6/8
f 65/5/8 67/6/8 68/5/8
f 69/2/2 70/5/2 71/5/2
f 69/2/2 71/5/2 72/2/2
f 73/8/2 74/4/2 75/4/2
f 73/8/2 75/4/2 76/8/2
f 42/9/4 41/9/4 77/9/4
f 42/9/4 77/9/4 78/9/4
f 79/8/2 80/4/2 81/4/2
f 79/8/2 81/4/2 82/8/2
f 83/2/2 84/5/2 85/5/2
f 83/2/2 85/5/2 86/2/2
f 87/5/9 88/6/9 89/6/9
f 87/5/9 89/6/9 90/5/9
f 30/6/4 29/1/4 91/1/4
f 30/6/4 91/1/4 92/6/4
f 93/3/4 94/7/4 95/7/4
f 93/3/4 95/7/4 96/3/4
f 97/5/10 98/6/10 99/6/10
f 97/5/10 99/6/10 100/5/10
f 101/2/2 102/5/2 84/5/2
f 101/2/2 84/5/2 83/2/2
f 103/5/11 104/6/11 105/6/11
f 103/5/11 105/6/11 106/5/11
f 107/3/4 108/7/4 109/7/4
f 107/3/4 109/7/4 110/3/4
f 111/9/4 112/9/4 113/9/4
f 111/9/4 113/9/4 114/9/4
f 115/7/12 116/8/12 117/8/12
f 115/7/12 117/8/12 118/7/12
f 92/6/4 91/1/4 119/1/4
f 92/6/4 119/1/4 120/6/4
f 121/3/4 122/7/4 123/7/4
f 121/3/4 123/7/4 124/3/4
f 125/6/4 126/1/4 127/1/4
f 125/6/4 127/1/4 128/6/4
f 129/7/13 130/8/13 131/8/13
f 129/7/13 131/8/13 132/7/13
f 133/9/4 134/9/4 135/9/4
f 133/9/4 135/9/4 136/9/4
f 137/2/2 138/5/2 139/5/2
f 137/2/2 139/5/2 140/2/2
f 141/8/2 142/4/2 143/4/2
f 141/8/2 143/4/2 144/8/2
f 145/9/4 146/9/4 147/9/4
f 145/9/4 147/9/4 148/9/4
f 149/7/14 150/8/14 151/8/14
f 149/7/14 151/8/14 152/7/14
f 153/6/4 154/1/4 155/1/4
f 153/6/4 155/1/4 156/6/4
f 157/9/4 158/9/4 159/9/4
f 157/9/4 159/9/4 160/9/4
f 161/8/2 162/4/2 163/4/2
f 161/8/2 163/4/2 164/8/2
f 165/2/2 166/5/2 167/5/2
f 165/2/2 167/5/2 168/2/2
f 169/3/4 170/7/4 171/7/4
f 169/3/4 171/7/4 172/3/4
f 173/5/15 174/6/15 175/6/15
f 173/5/15 175/6/15 176/5/15
f 177/2/2 178/5/2 179/5/2
f 177/2/2 179/5/2 180/2/2
f 181/8/2 182/4/2 183/4/2
f 181/8/2 183/4/2 184/8/2
f 185/2/2 186/5/2 187/5/2
f 185/2/2 187/5/2 188/2/2
f 189/5/16 190/6/16 191/6/16
f 189/5/16 191/6/16 192/5/16
f 193/7/17 194/8/17 195/8/17
f 193/7/17 195/8/17 196/7/17
f 197/6/4 198/1/4 199/1/4
f 197/6/4 199/1/4 200/6/4
f 201/3/4 202/7/4 203/7/4
f 201/3/4 203/7/4 204/3/4
f 205/5/18 206/6/18 207/6/18
f 205/5/18 207/6/18 208/5/18
f 209/2/19 210/5/19 211/6/19
f 209/2/19 211/6/19 212/1/19
f 213/1/19 214/3/19 215/4/19
f 213/1/19 215/4/19 216/2/19
f 217/8/19 218/4/19 219/3/19
f 217/8/19 219/3/19 220/7/19
f 221/8/2 222/4/2 223/4/2
f 221/8/2 223/4/2 224/8/2
f 225/9/4 226/9/4 227/9/4
f 225/9/4 227/9/4 228/9/4
f 229/7/20 230/8/20 231/8/20
f 229/7/20 231/8/20 232/7/20
f 233/6/4 234/1/4 235/1/4
f 233/6/4 235/1/4 236/6/4
f 237/3/4 238/7/4 239/7/4
f 237/3/4 239/7/4 240/3/4
