# Blender 5.2.0 LTS
# www.blender.org
mtllib LandingTrack1Straight_AIRPORT_0.mtl
o LandingTrack1Straight_AIRPORT_0
v 1.638001 0.350014 44.881657
v 0.000001 -0.349986 44.881657
v -1.637999 0.350014 44.881657
v -1.637995 0.350041 134.644958
v 0.000005 -0.349959 134.644958
v 1.638005 0.350041 134.644958
v 1.637997 0.349986 -44.881657
v -0.000003 -0.350014 -44.881657
v -1.638003 0.349986 -44.881657
v -1.637999 0.350014 44.881657
v 0.000001 -0.349986 44.881657
v 1.638001 0.350014 44.881657
v 1.637993 0.349959 -134.644958
v -0.000007 -0.350041 -134.644958
v -1.638007 0.349959 -134.644958
v -1.638003 0.349986 -44.881657
v -0.000003 -0.350014 -44.881657
v 1.637997 0.349986 -44.881657
v -40.949993 0.350027 89.763313
v -40.949989 0.350041 134.644958
v -1.637995 0.350041 134.644958
v -1.637997 0.350027 89.763313
v -40.949993 -0.349973 89.763313
v -40.949993 0.350027 89.763313
v -40.949993 0.350014 44.881657
v -40.949993 -0.349986 44.881657
v 40.950001 -0.349973 89.763313
v 40.950001 0.350027 89.763313
v 40.950005 0.350041 134.644958
v 40.950005 -0.349959 134.644958
v 0.000005 -0.349959 134.644958
v -1.637995 0.350041 134.644958
v -40.949989 0.350041 134.644958
v -40.949989 -0.349959 134.644958
v -40.949993 -0.349986 44.881657
v -40.949993 0.350014 44.881657
v -1.637999 0.350014 44.881657
v 0.000001 -0.349986 44.881657
v 1.638003 0.350027 89.763313
v 1.638005 0.350041 134.644958
v 40.950005 0.350041 134.644958
v 40.950001 0.350027 89.763313
v 0.000003 -0.349973 89.763313
v 0.000001 -0.349986 44.881657
v 40.950001 -0.349986 44.881657
v 40.950001 -0.349973 89.763313
v 0.000001 -0.349986 44.881657
v 1.638001 0.350014 44.881657
v 40.950001 0.350014 44.881657
v 40.950001 -0.349986 44.881657
v -40.949993 -0.349973 89.763313
v -40.949993 -0.349986 44.881657
v 1.638001 0.350014 44.881657
v -1.637999 0.350014 44.881657
v 40.950005 -0.349959 134.644958
v 40.950005 0.350041 134.644958
v 1.638005 0.350041 134.644958
v 0.000005 -0.349959 134.644958
v 1.638005 0.350041 134.644958
v 1.638003 0.350027 89.763313
v -1.637997 0.350027 89.763313
v -1.637995 0.350041 134.644958
v -40.949989 -0.349959 134.644958
v 0.000005 -0.349959 134.644958
v 40.950005 -0.349959 134.644958
v 40.950001 0.350014 44.881657
v 40.950001 -0.349986 44.881657
v 40.950001 0.350014 44.881657
v 40.950001 0.350027 89.763313
v 40.950001 -0.349973 89.763313
v -40.949989 -0.349959 134.644958
v -40.949989 0.350041 134.644958
v -40.949993 0.350027 89.763313
v -40.949993 -0.349973 89.763313
v -40.949993 0.350014 44.881657
v -40.949997 0.350000 0.000002
v -40.949993 0.350014 44.881657
v -1.637999 0.350014 44.881657
v -1.638001 0.350000 -0.000000
v -40.949997 -0.350000 0.000002
v -40.949997 0.350000 0.000002
v -40.950001 0.349986 -44.881657
v -40.950001 -0.350014 -44.881657
v 40.949997 -0.350000 -0.000002
v 40.949997 0.350000 -0.000002
v 40.950001 0.350014 44.881657
v 40.950001 -0.349986 44.881657
v 0.000001 -0.349986 44.881657
v -1.637999 0.350014 44.881657
v -40.949993 0.350014 44.881657
v -40.949993 -0.349986 44.881657
v -40.950001 -0.350014 -44.881657
v -40.950001 0.349986 -44.881657
v -1.638003 0.349986 -44.881657
v -0.000003 -0.350014 -44.881657
v 1.637999 0.350000 -0.000000
v 1.638001 0.350014 44.881657
v 40.950001 0.350014 44.881657
v 40.949997 0.350000 -0.000002
v -0.000001 -0.350000 0.000000
v -0.000003 -0.350014 -44.881657
v 40.949993 -0.350014 -44.881657
v 40.949997 -0.350000 -0.000002
v -0.000003 -0.350014 -44.881657
v 1.637997 0.349986 -44.881657
v 40.949993 0.349986 -44.881657
v 40.949993 -0.350014 -44.881657
v -40.949997 -0.350000 0.000002
v -40.950001 -0.350014 -44.881657
v 1.637999 0.350000 -0.000000
v 1.637997 0.349986 -44.881657
v -1.638003 0.349986 -44.881657
v -1.638001 0.350000 -0.000000
v 40.950001 -0.349986 44.881657
v 40.950001 0.350014 44.881657
v 1.638001 0.350014 44.881657
v 0.000001 -0.349986 44.881657
v 1.638001 0.350014 44.881657
v 1.637999 0.350000 -0.000000
v -1.638001 0.350000 -0.000000
v -1.637999 0.350014 44.881657
v -40.949993 -0.349986 44.881657
v 0.000001 -0.349986 44.881657
v 40.950001 -0.349986 44.881657
v 1.637997 0.349986 -44.881657
v 1.637999 0.350000 -0.000000
v 40.949997 0.350000 -0.000002
v 40.949993 0.349986 -44.881657
v 40.949993 -0.350014 -44.881657
v 40.949993 0.349986 -44.881657
v 40.949997 0.350000 -0.000002
v 40.949997 -0.350000 -0.000002
v -40.949993 -0.349986 44.881657
v -40.949993 0.350014 44.881657
v -40.949997 0.350000 0.000002
v -40.949997 -0.350000 0.000002
v -40.950001 0.349986 -44.881657
v -40.949997 0.350000 0.000002
v -1.638001 0.350000 -0.000000
v -1.638003 0.349986 -44.881657
v -40.950001 0.349973 -89.763313
v -40.950001 0.349986 -44.881657
v -1.638003 0.349986 -44.881657
v -1.638005 0.349973 -89.763313
v -40.950001 -0.350027 -89.763313
v -40.950001 0.349973 -89.763313
v -40.950005 0.349959 -134.644958
v -40.950005 -0.350041 -134.644958
v 40.949993 -0.350027 -89.763313
v 40.949993 0.349973 -89.763313
v 40.949993 0.349986 -44.881657
v 40.949993 -0.350014 -44.881657
v -0.000003 -0.350014 -44.881657
v -1.638003 0.349986 -44.881657
v -40.950001 0.349986 -44.881657
v -40.950001 -0.350014 -44.881657
v -40.950005 -0.350041 -134.644958
v -40.950005 0.349959 -134.644958
v -1.638007 0.349959 -134.644958
v -0.000007 -0.350041 -134.644958
v 1.637995 0.349973 -89.763313
v 1.637997 0.349986 -44.881657
v 40.949993 0.349986 -44.881657
v 40.949993 0.349973 -89.763313
v -0.000005 -0.350027 -89.763313
v -0.000007 -0.350041 -134.644958
v 40.949989 -0.350041 -134.644958
v 40.949993 -0.350027 -89.763313
v -0.000007 -0.350041 -134.644958
v 1.637993 0.349959 -134.644958
v 40.949989 0.349959 -134.644958
v 40.949989 -0.350041 -134.644958
v -40.950001 -0.350027 -89.763313
v -40.950005 -0.350041 -134.644958
v 1.637993 0.349959 -134.644958
v -1.638007 0.349959 -134.644958
v 40.949993 -0.350014 -44.881657
v 40.949993 0.349986 -44.881657
v 1.637997 0.349986 -44.881657
v -0.000003 -0.350014 -44.881657
v 1.637997 0.349986 -44.881657
v 1.637995 0.349973 -89.763313
v -1.638005 0.349973 -89.763313
v -1.638003 0.349986 -44.881657
v -40.950001 -0.350014 -44.881657
v -0.000003 -0.350014 -44.881657
v 40.949993 -0.350014 -44.881657
v 40.949989 0.349959 -134.644958
v 40.949989 -0.350041 -134.644958
v 40.949989 0.349959 -134.644958
v 40.949993 0.349973 -89.763313
v 40.949993 -0.350027 -89.763313
v -40.950001 -0.350014 -44.881657
v -40.950001 0.349986 -44.881657
v -40.950001 0.349973 -89.763313
v -40.950001 -0.350027 -89.763313
v -40.950005 0.349959 -134.644958
vn -0.0000 -0.0000 -1.0000
vn -0.0000 -0.0000 1.0000
vn -0.0000 1.0000 -0.0000
vn -1.0000 -0.0000 -0.0000
vn 1.0000 -0.0000 -0.0000
vn -0.0000 -1.0000 -0.0000
vt 0.033401 0.030027
vt 0.033398 0.030027
vt 0.033401 0.030027
vt 0.033401 0.030032
vt 0.033398 0.030032
vt 0.033401 0.030032
vt 0.033402 0.030028
vt 0.033403 0.030028
vt 0.033403 0.030027
vt 0.033402 0.030027
vt 0.033398 0.030030
vt 0.033401 0.030030
vt 0.033401 0.030028
vt 0.033398 0.030028
vt 0.033398 0.030025
vt 0.033401 0.030025
vt 0.033401 0.030023
vt 0.033398 0.030023
vt 0.033401 0.030031
vt 0.033398 0.030031
vt 0.033402 0.030027
vt 0.033403 0.030027
vt 0.033403 0.030026
vt 0.033402 0.030026
vt 0.033397 0.030027
vt 0.033398 0.030026
vt 0.033397 0.030026
vt 0.033401 0.030026
vt 0.033397 0.030028
vt 0.033398 0.030033
vt 0.033401 0.030033
vt 0.094765 0.029870
vt 0.094764 0.029870
vt 0.094764 0.029870
vt 0.094765 0.029870
vt 0.033396 0.030028
vt 0.033396 0.030027
vt 0.033396 0.030026
s 0
usemtl AIRPORT
f 1/1/1 2/2/1 3/3/1
f 4/4/2 5/5/2 6/6/2
f 7/1/1 8/2/1 9/3/1
f 10/4/2 11/5/2 12/6/2
f 13/1/1 14/2/1 15/3/1
f 16/4/2 17/5/2 18/6/2
f 19/7/3 20/8/3 21/9/3
f 19/7/3 21/9/3 22/10/3
f 23/11/4 24/12/4 25/13/4
f 23/11/4 25/13/4 26/14/4
f 27/15/5 28/16/5 29/17/5
f 27/15/5 29/17/5 30/18/5
f 31/5/2 32/4/2 33/19/2
f 31/5/2 33/19/2 34/20/2
f 35/14/1 36/13/1 37/3/1
f 35/14/1 37/3/1 38/2/1
f 39/21/3 40/22/3 41/23/3
f 39/21/3 41/23/3 42/24/3
f 43/25/6 44/2/6 45/26/6
f 43/25/6 45/26/6 46/27/6
f 47/2/1 48/1/1 49/28/1
f 47/2/1 49/28/1 50/26/1
f 51/29/6 52/14/6 44/2/6
f 51/29/6 44/2/6 43/25/6
f 39/21/3 53/1/3 54/3/3
f 39/21/3 54/3/3 22/10/3
f 55/30/2 56/31/2 57/6/2
f 55/30/2 57/6/2 58/5/2
f 59/32/3 60/33/3 61/34/3
f 59/32/3 61/34/3 62/35/3
f 63/36/6 51/29/6 43/25/6
f 63/36/6 43/25/6 64/37/6
f 64/37/6 43/25/6 46/27/6
f 64/37/6 46/27/6 65/38/6
f 53/1/3 39/21/3 42/24/3
f 53/1/3 42/24/3 66/28/3
f 67/26/5 68/28/5 69/16/5
f 67/26/5 69/16/5 70/15/5
f 71/20/4 72/19/4 73/12/4
f 71/20/4 73/12/4 74/11/4
f 75/13/3 19/7/3 22/10/3
f 75/13/3 22/10/3 54/3/3
f 76/7/3 77/8/3 78/9/3
f 76/7/3 78/9/3 79/10/3
f 80/11/4 81/12/4 82/13/4
f 80/11/4 82/13/4 83/14/4
f 84/15/5 85/16/5 86/17/5
f 84/15/5 86/17/5 87/18/5
f 88/5/2 89/4/2 90/19/2
f 88/5/2 90/19/2 91/20/2
f 92/14/1 93/13/1 94/3/1
f 92/14/1 94/3/1 95/2/1
f 96/21/3 97/22/3 98/23/3
f 96/21/3 98/23/3 99/24/3
f 100/25/6 101/2/6 102/26/6
f 100/25/6 102/26/6 103/27/6
f 104/2/1 105/1/1 106/28/1
f 104/2/1 106/28/1 107/26/1
f 108/29/6 109/14/6 101/2/6
f 108/29/6 101/2/6 100/25/6
f 110/21/3 111/1/3 112/3/3
f 110/21/3 112/3/3 113/10/3
f 114/30/2 115/31/2 116/6/2
f 114/30/2 116/6/2 117/5/2
f 118/32/3 119/33/3 120/34/3
f 118/32/3 120/34/3 121/35/3
f 122/36/6 108/29/6 100/25/6
f 122/36/6 100/25/6 123/37/6
f 123/37/6 100/25/6 103/27/6
f 123/37/6 103/27/6 124/38/6
f 125/1/3 126/21/3 127/24/3
f 125/1/3 127/24/3 128/28/3
f 129/26/5 130/28/5 131/16/5
f 129/26/5 131/16/5 132/15/5
f 133/20/4 134/19/4 135/12/4
f 133/20/4 135/12/4 136/11/4
f 137/13/3 138/7/3 139/10/3
f 137/13/3 139/10/3 140/3/3
f 141/7/3 142/8/3 143/9/3
f 141/7/3 143/9/3 144/10/3
f 145/11/4 146/12/4 147/13/4
f 145/11/4 147/13/4 148/14/4
f 149/15/5 150/16/5 151/17/5
f 149/15/5 151/17/5 152/18/5
f 153/5/2 154/4/2 155/19/2
f 153/5/2 155/19/2 156/20/2
f 157/14/1 158/13/1 159/3/1
f 157/14/1 159/3/1 160/2/1
f 161/21/3 162/22/3 163/23/3
f 161/21/3 163/23/3 164/24/3
f 165/25/6 166/2/6 167/26/6
f 165/25/6 167/26/6 168/27/6
f 169/2/1 170/1/1 171/28/1
f 169/2/1 171/28/1 172/26/1
f 173/29/6 174/14/6 166/2/6
f 173/29/6 166/2/6 165/25/6
f 161/21/3 175/1/3 176/3/3
f 161/21/3 176/3/3 144/10/3
f 177/30/2 178/31/2 179/6/2
f 177/30/2 179/6/2 180/5/2
f 181/32/3 182/33/3 183/34/3
f 181/32/3 183/34/3 184/35/3
f 185/36/6 173/29/6 165/25/6
f 185/36/6 165/25/6 186/37/6
f 186/37/6 165/25/6 168/27/6
f 186/37/6 168/27/6 187/38/6
f 175/1/3 161/21/3 164/24/3
f 175/1/3 164/24/3 188/28/3
f 189/26/5 190/28/5 191/16/5
f 189/26/5 191/16/5 192/15/5
f 193/20/4 194/19/4 195/12/4
f 193/20/4 195/12/4 196/11/4
f 197/13/3 141/7/3 144/10/3
f 197/13/3 144/10/3 176/3/3
