# Blender 5.2.0 LTS
# www.blender.org
mtllib LandingTrack5StraightAngled_AIRPORT_0.mtl
o LandingTrack5StraightAngled_AIRPORT_0
v 52.473183 0.349985 -50.121063
v 82.813576 0.349993 -24.613691
v 82.882355 0.349957 -140.713898
v -82.792686 0.350043 140.803650
v -42.735233 0.350014 45.087322
v -45.051716 0.350013 42.770844
v -42.735233 0.350014 45.087322
v -82.792686 0.350043 140.803650
v -7.320768 0.350020 65.412308
v 52.473183 0.349985 -50.121063
v 82.882355 0.349957 -140.713898
v 50.156700 0.349984 -52.437542
v 82.882355 0.349957 -140.713898
v 29.975590 0.349973 -87.708092
v 50.156700 0.349984 -52.437542
v 58.931618 -0.350018 -58.752083
v 29.975590 -0.350027 -87.708092
v 82.882355 -0.350043 -140.713898
v 82.882355 -0.350043 -140.713898
v 82.813599 -0.350007 -24.613686
v 58.931618 -0.350018 -58.752083
v -68.012932 -0.349979 68.192429
v -82.792686 -0.349957 140.803650
v -82.889557 -0.349992 25.255827
v -68.012932 -0.349979 68.192429
v -36.276791 -0.349989 36.456299
v -7.320768 -0.349980 65.412308
v -65.232819 -0.349998 7.500292
v -36.276791 -0.349989 36.456299
v -7.320768 -0.349980 65.412308
v -7.320768 0.350020 65.412308
v -82.792686 0.350043 140.803650
v -82.792686 -0.349957 140.803650
v -33.496681 0.349993 -24.235836
v -65.232819 0.350002 7.500292
v -45.051716 0.350013 42.770844
v -13.315575 0.350003 11.034714
v -33.496681 -0.350007 -24.235836
v -33.496681 0.349993 -24.235836
v -1.760546 0.349983 -55.971962
v -1.760546 -0.350017 -55.971962
v 24.415367 -0.349990 33.676178
v 24.415367 0.350010 33.676178
v -7.320768 0.350020 65.412308
v -7.320768 -0.349980 65.412308
v -10.999093 0.350004 13.351194
v -42.735233 0.350014 45.087322
v -7.320768 0.350020 65.412308
v 24.415367 0.350010 33.676178
v -4.540657 -0.349999 4.720171
v 27.195480 -0.350008 -27.015955
v 56.151505 -0.349999 1.940051
v 24.415367 -0.349990 33.676178
v -33.496681 -0.350007 -24.235836
v -1.760546 -0.350017 -55.971962
v 27.195480 -0.350008 -27.015955
v -4.540657 -0.349999 4.720171
v -10.999093 0.350004 13.351194
v 20.737045 0.349994 -18.384932
v 18.420563 0.349994 -20.701412
v -13.315575 0.350003 11.034714
v -42.735233 0.350014 45.087322
v -10.999093 0.350004 13.351194
v -13.315575 0.350003 11.034714
v -45.051716 0.350013 42.770844
v -65.232819 -0.349998 7.500292
v -33.496681 -0.350007 -24.235836
v -4.540657 -0.349999 4.720171
v -36.276791 -0.349989 36.456299
v -36.276791 -0.349989 36.456299
v -4.540657 -0.349999 4.720171
v 24.415367 -0.349990 33.676178
v -7.320768 -0.349980 65.412308
v 20.737045 0.349994 -18.384932
v 56.151505 0.350001 1.940051
v 56.151505 -0.349999 1.940051
v 56.151505 0.350001 1.940051
v 24.415367 0.350010 33.676178
v 24.415367 -0.349990 33.676178
v -65.232819 -0.349998 7.500292
v -65.232819 0.350002 7.500292
v -1.760546 0.349983 -55.971962
v 18.420563 0.349994 -20.701412
v 29.975590 0.349973 -87.708092
v -1.760546 0.349983 -55.971962
v 18.420563 0.349994 -20.701412
v 29.975590 -0.350027 -87.708092
v 29.975590 0.349973 -87.708092
v 82.882355 0.349957 -140.713898
v 82.882355 -0.350043 -140.713898
v 20.737045 0.349994 -18.384932
v 52.473183 0.349985 -50.121063
v 50.156700 0.349984 -52.437542
v 18.420563 0.349994 -20.701412
v -1.760546 -0.350017 -55.971962
v 29.975590 -0.350027 -87.708092
v 27.195480 -0.350008 -27.015955
v 27.195480 -0.350008 -27.015955
v 58.931618 -0.350018 -58.752083
v 82.813599 -0.350007 -24.613686
v 56.151505 -0.349999 1.940051
v 82.813599 -0.350007 -24.613686
v 82.813576 0.349993 -24.613691
v 56.151505 0.350001 1.940051
v 56.151505 -0.349999 1.940051
v -1.760546 -0.350017 -55.971962
v -1.760546 0.349983 -55.971962
v 29.975590 0.349973 -87.708092
v 29.975590 -0.350027 -87.708092
v 82.813576 0.349993 -24.613691
v 52.473183 0.349985 -50.121063
v 20.737045 0.349994 -18.384932
v 56.151505 0.350001 1.940051
v -82.889557 -0.349992 25.255827
v -82.889557 0.350008 25.255827
v -65.232819 0.350002 7.500292
v -65.232819 -0.349998 7.500292
v -82.889557 0.350008 25.255827
v -88.893707 0.350009 29.679127
v -88.833916 0.350045 148.418747
v -82.792686 0.350043 140.803650
v 82.813576 0.349993 -24.613691
v 88.846825 0.349991 -29.007950
v 88.889290 0.349955 -148.363358
v 82.882355 0.349957 -140.713898
v -98.579178 -0.349994 19.824060
v -97.384865 -0.349992 26.739470
v -97.377502 -0.349949 168.383286
v -98.579185 -0.349946 177.693298
v -88.893707 -0.349991 29.679127
v -82.889557 -0.349992 25.255827
v -82.792686 -0.349957 140.803650
v -88.833916 -0.349955 148.418747
v -82.889557 0.350008 25.255827
v -82.889557 -0.349992 25.255827
v -88.893707 -0.349991 29.679127
v -88.893707 0.350009 29.679127
v -88.893707 0.350009 29.679127
v -88.893707 -0.349991 29.679127
v -93.983788 -0.349991 30.200108
v -93.983795 0.350009 30.200111
v -93.983795 0.350009 30.200111
v -93.983788 -0.349991 30.200108
v -97.384865 -0.349992 26.739470
v -97.384872 0.350008 26.739477
v -97.384872 0.350008 26.739477
v -97.384865 -0.349992 26.739470
v -98.579178 -0.349994 19.824060
v -98.579178 0.350006 19.824060
v 82.813576 0.349993 -24.613691
v 82.813599 -0.350007 -24.613686
v 88.846825 -0.350009 -29.007950
v 88.846825 0.349991 -29.007950
v 88.846825 0.349991 -29.007950
v 88.846825 -0.350009 -29.007950
v 93.961540 -0.350009 -29.504301
v 93.961540 0.349991 -29.504301
v 93.961540 0.349991 -29.504301
v 93.961540 -0.350009 -29.504301
v 97.379097 -0.350008 -26.027216
v 97.379097 0.349992 -26.027216
v 97.379097 0.349992 -26.027216
v 97.379097 -0.350008 -26.027216
v 98.579178 -0.350006 -19.106024
v 98.579178 0.349994 -19.106024
v 98.579185 0.349946 -177.693298
v 98.579185 -0.350054 -177.693298
v 97.384354 -0.350051 -168.376480
v 97.384354 0.349949 -168.376480
v 97.384354 0.349949 -168.376480
v 97.384354 -0.350051 -168.376480
v 93.981697 -0.350048 -158.077164
v 93.981697 0.349952 -158.077164
v 93.981697 0.349952 -158.077164
v 93.981697 -0.350048 -158.077164
v 88.889290 -0.350045 -148.363358
v 88.889290 0.349955 -148.363358
v 88.889290 0.349955 -148.363358
v 88.889290 -0.350045 -148.363358
v 82.882355 -0.350043 -140.713898
v 82.882355 0.349957 -140.713898
v -82.792686 -0.349957 140.803650
v -82.792686 0.350043 140.803650
v -88.833916 0.350045 148.418747
v -88.833916 -0.349955 148.418747
v -88.833916 -0.349955 148.418747
v -88.833916 0.350045 148.418747
v -93.955414 0.350048 158.103439
v -93.955414 -0.349952 158.103439
v -93.955414 -0.349952 158.103439
v -93.955414 0.350048 158.103439
v -97.377502 0.350051 168.383286
v -97.377502 -0.349949 168.383286
v -97.377502 -0.349949 168.383286
v -97.377502 0.350051 168.383286
v -98.579185 0.350054 177.693298
v -98.579185 -0.349946 177.693298
v -65.232819 0.350002 7.500292
v -82.889557 0.350008 25.255827
v -82.792686 0.350043 140.803650
v -45.051716 0.350013 42.770844
v -97.377502 0.350051 168.383286
v -97.384872 0.350008 26.739477
v -98.579178 0.350006 19.824060
v -98.579185 0.350054 177.693298
v 88.889290 0.349955 -148.363358
v 88.846825 0.349991 -29.007950
v 93.961540 0.349991 -29.504301
v 93.981697 0.349952 -158.077164
v 82.882355 -0.350043 -140.713898
v 88.889290 -0.350045 -148.363358
v 88.846825 -0.350009 -29.007950
v 82.813599 -0.350007 -24.613686
v 93.981697 0.349952 -158.077164
v 93.961540 0.349991 -29.504301
v 97.379097 0.349992 -26.027216
v 97.384354 0.349949 -168.376480
v 98.579185 0.349946 -177.693298
v 98.579178 0.349994 -19.106024
v 98.579178 -0.350006 -19.106024
v 98.579185 -0.350054 -177.693298
v 97.384354 -0.350051 -168.376480
v 97.379097 -0.350008 -26.027216
v 93.961540 -0.350009 -29.504301
v 93.981697 -0.350048 -158.077164
v 97.384354 -0.350051 -168.376480
v 98.579185 -0.350054 -177.693298
v 98.579178 -0.350006 -19.106024
v 97.379097 -0.350008 -26.027216
v 93.961540 -0.350009 -29.504301
v 88.846825 -0.350009 -29.007950
v 88.889290 -0.350045 -148.363358
v 93.981697 -0.350048 -158.077164
v 97.384354 0.349949 -168.376480
v 97.379097 0.349992 -26.027216
v 98.579178 0.349994 -19.106024
v 98.579185 0.349946 -177.693298
v -98.579185 0.350054 177.693298
v -98.579178 0.350006 19.824060
v -98.579178 -0.349994 19.824060
v -98.579185 -0.349946 177.693298
v -93.955414 0.350048 158.103439
v -93.983795 0.350009 30.200111
v -97.384872 0.350008 26.739477
v -97.377502 0.350051 168.383286
v -97.384865 -0.349992 26.739470
v -93.983788 -0.349991 30.200108
v -93.955414 -0.349952 158.103439
v -97.377502 -0.349949 168.383286
v -93.983788 -0.349991 30.200108
v -88.893707 -0.349991 29.679127
v -88.833916 -0.349955 148.418747
v -93.955414 -0.349952 158.103439
v -88.833916 0.350045 148.418747
v -88.893707 0.350009 29.679127
vn -0.0000 1.0000 -0.0000
vn -0.0000 -1.0000 -0.0000
vn 0.7067 -0.0000 0.7075
vn -0.7071 -0.0000 -0.7071
vn 0.7071 -0.0000 0.7071
vn -0.7078 -0.0000 -0.7064
vn 0.7057 -0.0000 0.7085
vn -0.7091 -0.0000 -0.7051
vn -0.5931 -0.0000 -0.8051
vn -0.1018 -0.0000 -0.9948
vn 0.7132 -0.0000 -0.7009
vn 0.9854 -0.0000 -0.1702
vn 0.5887 -0.0000 0.8083
vn 0.0966 -0.0000 0.9953
vn -0.7132 -0.0000 0.7010
vn -0.9853 -0.0000 0.1708
vn -0.9919 -0.0000 -0.1272
vn -0.9495 -0.0000 -0.3137
vn -0.8857 -0.0000 -0.4643
vn -0.7865 -0.0000 -0.6176
vn 0.7834 -0.0000 0.6215
vn 0.8840 -0.0000 0.4675
vn 0.9488 -0.0000 0.3159
vn 0.9918 -0.0000 0.1280
vn 1.0000 -0.0000 -0.0000
vn -1.0000 -0.0000 -0.0000
vt 0.031497 0.030762
vt 0.031497 0.030761
vt 0.031496 0.030761
vt 0.031495 0.030762
vt 0.031495 0.030762
vt 0.031497 0.030761
vt 0.031495 0.030761
vt 0.031496 0.030762
vt 0.031497 0.030762
vt 0.031495 0.030763
vt 0.031497 0.030763
vt 0.031492 0.030762
vt 0.031492 0.030763
vt 0.031493 0.030763
vt 0.031492 0.030761
vt 0.031492 0.030761
vt 0.031492 0.030763
vt 0.031492 0.030762
vt 0.031493 0.030762
vt 0.031493 0.030761
vt 0.031493 0.030762
vt 0.031495 0.030759
vt 0.031493 0.030759
vt 0.031498 0.030763
vt 0.031498 0.030762
vt 0.031493 0.030764
vt 0.031495 0.030764
vt 0.031495 0.030758
vt 0.031493 0.030758
vt 0.031498 0.030762
vt 0.031498 0.030761
vt 0.095316 0.028118
vt 0.095316 0.028118
vt 0.031490 0.030763
vt 0.031490 0.030762
vt 0.031490 0.030762
vt 0.031490 0.030761
vt 0.031493 0.030766
vt 0.031495 0.030766
vt 0.031492 0.030761
vt 0.031493 0.030759
vt 0.031495 0.030759
vt 0.031493 0.030764
vt 0.031495 0.030764
vt 0.031497 0.030763
vt 0.031496 0.030763
vt 0.031497 0.030762
vt 0.031497 0.030762
vt 0.031497 0.030760
vt 0.031496 0.030761
vt 0.031493 0.030764
vt 0.031493 0.030764
vt 0.031495 0.030764
vt 0.031495 0.030764
vt 0.031493 0.030760
vt 0.031495 0.030760
vt 0.031495 0.030764
vt 0.031493 0.030764
vt 0.031493 0.030765
vt 0.031495 0.030765
vt 0.031496 0.030763
vt 0.031497 0.030763
vt 0.031497 0.030763
vt 0.031497 0.030763
vt 0.031497 0.030761
vt 0.031496 0.030761
vt 0.031496 0.030761
vt 0.031497 0.030763
s 0
usemtl AIRPORT
f 1/1/1 2/2/1 3/3/1
f 4/1/1 5/4/1 6/5/1
f 7/4/1 8/6/1 9/7/1
f 10/1/1 11/8/1 12/9/1
f 13/10/1 14/11/1 15/9/1
f 16/12/2 17/13/2 18/14/2
f 19/14/2 20/15/2 21/12/2
f 22/12/2 23/16/2 24/17/2
f 25/18/2 26/19/2 27/20/2
f 25/18/2 27/20/2 23/16/2
f 24/17/2 28/14/2 29/21/2
f 24/17/2 29/21/2 22/12/2
f 30/20/3 31/7/3 32/22/3
f 30/20/3 32/22/3 33/23/3
f 34/11/1 35/24/1 36/25/1
f 34/11/1 36/25/1 37/9/1
f 38/26/4 39/27/4 40/10/4
f 38/26/4 40/10/4 41/14/4
f 42/23/5 43/22/5 44/28/5
f 42/23/5 44/28/5 45/29/5
f 46/1/1 47/30/1 48/31/1
f 46/1/1 48/31/1 49/6/1
f 50/18/2 51/19/2 52/20/2
f 50/18/2 52/20/2 53/16/2
f 54/13/2 55/14/2 56/21/2
f 54/13/2 56/21/2 57/12/2
f 58/1/1 59/4/1 60/5/1
f 58/1/1 60/5/1 61/9/1
f 62/32/1 63/33/1 64/33/1
f 62/32/1 64/33/1 65/32/1
f 66/34/2 67/13/2 68/12/2
f 66/34/2 68/12/2 69/35/2
f 70/36/2 71/18/2 72/16/2
f 70/36/2 72/16/2 73/37/2
f 74/4/1 46/1/1 49/6/1
f 74/4/1 49/6/1 75/7/1
f 76/20/5 77/7/5 78/22/5
f 76/20/5 78/22/5 79/23/5
f 80/38/4 81/39/4 39/27/4
f 80/38/4 39/27/4 38/26/4
f 82/10/1 34/11/1 37/9/1
f 82/10/1 37/9/1 83/5/1
f 84/11/1 85/24/1 86/25/1
f 84/11/1 86/25/1 12/9/1
f 87/26/6 88/27/6 89/10/6
f 87/26/6 89/10/6 90/14/6
f 91/32/1 92/33/1 93/33/1
f 91/32/1 93/33/1 94/32/1
f 95/34/2 96/13/2 21/12/2
f 95/34/2 21/12/2 97/35/2
f 98/36/2 99/18/2 100/40/2
f 98/36/2 100/40/2 101/37/2
f 102/41/7 103/42/7 104/28/7
f 102/41/7 104/28/7 105/29/7
f 106/38/4 107/39/4 108/27/4
f 106/38/4 108/27/4 109/26/4
f 110/2/1 111/1/1 112/30/1
f 110/2/1 112/30/1 113/31/1
f 114/43/8 115/44/8 116/10/8
f 114/43/8 116/10/8 117/14/8
f 118/45/1 119/46/1 120/47/1
f 118/45/1 120/47/1 121/48/1
f 122/2/1 123/49/1 124/50/1
f 122/2/1 124/50/1 125/3/1
f 126/51/2 127/51/2 128/29/2
f 126/51/2 128/29/2 129/29/2
f 130/52/2 131/17/2 132/29/2
f 130/52/2 132/29/2 133/29/2
f 134/44/9 135/43/9 136/52/9
f 134/44/9 136/52/9 137/53/9
f 138/53/10 139/52/10 140/51/10
f 138/53/10 140/51/10 141/54/10
f 142/54/11 143/51/11 144/51/11
f 142/54/11 144/51/11 145/54/11
f 146/54/12 147/51/12 148/51/12
f 146/54/12 148/51/12 149/54/12
f 150/42/13 151/41/13 152/23/13
f 150/42/13 152/23/13 153/22/13
f 154/22/14 155/23/14 156/55/14
f 154/22/14 156/55/14 157/56/14
f 158/56/15 159/55/15 160/55/15
f 158/56/15 160/55/15 161/56/15
f 162/56/16 163/55/16 164/55/16
f 162/56/16 164/55/16 165/56/16
f 166/57/17 167/58/17 168/58/17
f 166/57/17 168/58/17 169/57/17
f 170/57/18 171/58/18 172/58/18
f 170/57/18 172/58/18 173/57/18
f 174/57/19 175/58/19 176/51/19
f 174/57/19 176/51/19 177/54/19
f 178/54/20 179/51/20 180/59/20
f 178/54/20 180/59/20 181/60/20
f 182/29/21 183/28/21 184/28/21
f 182/29/21 184/28/21 185/29/21
f 186/29/22 187/28/22 188/28/22
s 1
f 186/29/22 188/28/22 189/29/22
s 0
f 190/29/23 191/28/23 192/28/23
f 190/29/23 192/28/23 193/29/23
f 194/29/24 195/28/24 196/28/24
f 194/29/24 196/28/24 197/29/24
f 198/10/1 199/61/1 200/9/1
f 198/10/1 200/9/1 201/5/1
f 202/62/1 203/63/1 204/63/1
f 202/62/1 204/63/1 205/64/1
f 206/50/1 207/49/1 208/65/1
f 206/50/1 208/65/1 209/66/1
f 210/59/2 211/51/2 212/23/2
f 210/59/2 212/23/2 213/41/2
f 214/66/1 215/65/1 216/65/1
f 214/66/1 216/65/1 217/67/1
f 218/57/25 219/56/25 220/55/25
f 218/57/25 220/55/25 221/58/25
f 222/58/2 223/55/2 224/55/2
f 222/58/2 224/55/2 225/58/2
f 226/58/2 227/58/2 228/55/2
f 226/58/2 228/55/2 229/55/2
f 230/55/2 231/23/2 232/51/2
f 230/55/2 232/51/2 233/58/2
f 234/67/1 235/65/1 236/6/1
f 234/67/1 236/6/1 237/67/1
f 238/28/26 239/54/26 240/51/26
f 238/28/26 240/51/26 241/29/26
f 242/68/1 243/63/1 244/63/1
f 242/68/1 244/63/1 245/62/1
f 246/51/2 247/51/2 248/29/2
f 246/51/2 248/29/2 249/29/2
f 250/51/2 251/52/2 252/29/2
f 250/51/2 252/29/2 253/29/2
f 254/47/1 255/46/1 243/63/1
f 254/47/1 243/63/1 242/68/1
